G04 #@! TF.GenerationSoftware,KiCad,Pcbnew,5.1.2-1.fc30*
G04 #@! TF.CreationDate,2019-05-22T10:25:12+05:30*
G04 #@! TF.ProjectId,sx1509,73783135-3039-42e6-9b69-6361645f7063,v0.1*
G04 #@! TF.SameCoordinates,Original*
G04 #@! TF.FileFunction,Soldermask,Top*
G04 #@! TF.FilePolarity,Negative*
%FSLAX46Y46*%
G04 Gerber Fmt 4.6, Leading zero omitted, Abs format (unit mm)*
G04 Created by KiCad (PCBNEW 5.1.2-1.fc30) date 2019-05-22 10:25:12*
%MOMM*%
%LPD*%
G04 APERTURE LIST*
%ADD10C,0.100000*%
G04 APERTURE END LIST*
D10*
G36*
X182716627Y-130912299D02*
G01*
X182796742Y-130936602D01*
X182876855Y-130960903D01*
X182876857Y-130960904D01*
X183024518Y-131039831D01*
X183153949Y-131146051D01*
X183260169Y-131275482D01*
X183339096Y-131423143D01*
X183387701Y-131583373D01*
X183404112Y-131750000D01*
X183387701Y-131916627D01*
X183339096Y-132076857D01*
X183260169Y-132224518D01*
X183153949Y-132353949D01*
X183024518Y-132460169D01*
X182876857Y-132539096D01*
X182876855Y-132539097D01*
X182796742Y-132563398D01*
X182716627Y-132587701D01*
X182591752Y-132600000D01*
X182508248Y-132600000D01*
X182383373Y-132587701D01*
X182303258Y-132563398D01*
X182223145Y-132539097D01*
X182223143Y-132539096D01*
X182075482Y-132460169D01*
X181946051Y-132353949D01*
X181839831Y-132224518D01*
X181760904Y-132076857D01*
X181712299Y-131916627D01*
X181695888Y-131750000D01*
X181712299Y-131583373D01*
X181760904Y-131423143D01*
X181839831Y-131275482D01*
X181946051Y-131146051D01*
X182075482Y-131039831D01*
X182223143Y-130960904D01*
X182223145Y-130960903D01*
X182303258Y-130936602D01*
X182383373Y-130912299D01*
X182508248Y-130900000D01*
X182591752Y-130900000D01*
X182716627Y-130912299D01*
X182716627Y-130912299D01*
G37*
G36*
X103390000Y-132600000D02*
G01*
X101690000Y-132600000D01*
X101690000Y-130900000D01*
X103390000Y-130900000D01*
X103390000Y-132600000D01*
X103390000Y-132600000D01*
G37*
G36*
X134800000Y-131229000D02*
G01*
X133830000Y-131229000D01*
X133830000Y-129959000D01*
X134800000Y-129959000D01*
X134800000Y-131229000D01*
X134800000Y-131229000D01*
G37*
G36*
X137340000Y-131229000D02*
G01*
X136370000Y-131229000D01*
X136370000Y-129959000D01*
X137340000Y-129959000D01*
X137340000Y-131229000D01*
X137340000Y-131229000D01*
G37*
G36*
X136070000Y-131229000D02*
G01*
X135100000Y-131229000D01*
X135100000Y-129959000D01*
X136070000Y-129959000D01*
X136070000Y-131229000D01*
X136070000Y-131229000D01*
G37*
G36*
X140519696Y-130281313D02*
G01*
X140526620Y-130283413D01*
X140532999Y-130286823D01*
X140538588Y-130291410D01*
X140543375Y-130297243D01*
X140560702Y-130314570D01*
X140581077Y-130328184D01*
X140603716Y-130337561D01*
X140627749Y-130342341D01*
X140652253Y-130342341D01*
X140676286Y-130337560D01*
X140698925Y-130328183D01*
X140719299Y-130314569D01*
X140736625Y-130297243D01*
X140741412Y-130291410D01*
X140747001Y-130286823D01*
X140753380Y-130283413D01*
X140760304Y-130281313D01*
X140773638Y-130280000D01*
X141146362Y-130280000D01*
X141159696Y-130281313D01*
X141166620Y-130283413D01*
X141172999Y-130286823D01*
X141178589Y-130291411D01*
X141183177Y-130297001D01*
X141186587Y-130303380D01*
X141188687Y-130310304D01*
X141190000Y-130323638D01*
X141190000Y-130636362D01*
X141188687Y-130649696D01*
X141186587Y-130656620D01*
X141183177Y-130662999D01*
X141178589Y-130668589D01*
X141172999Y-130673177D01*
X141166620Y-130676587D01*
X141159696Y-130678687D01*
X141146362Y-130680000D01*
X140773638Y-130680000D01*
X140760304Y-130678687D01*
X140753380Y-130676587D01*
X140747001Y-130673177D01*
X140741412Y-130668590D01*
X140736625Y-130662757D01*
X140719298Y-130645430D01*
X140698923Y-130631816D01*
X140676284Y-130622439D01*
X140652251Y-130617659D01*
X140627747Y-130617659D01*
X140603714Y-130622440D01*
X140581075Y-130631817D01*
X140560701Y-130645431D01*
X140543375Y-130662757D01*
X140538588Y-130668590D01*
X140532999Y-130673177D01*
X140526620Y-130676587D01*
X140519696Y-130678687D01*
X140506362Y-130680000D01*
X140133638Y-130680000D01*
X140120304Y-130678687D01*
X140113380Y-130676587D01*
X140107001Y-130673177D01*
X140101411Y-130668589D01*
X140096823Y-130662999D01*
X140093413Y-130656620D01*
X140091313Y-130649696D01*
X140090000Y-130636362D01*
X140090000Y-130323638D01*
X140091313Y-130310304D01*
X140093413Y-130303380D01*
X140096823Y-130297001D01*
X140101411Y-130291411D01*
X140107001Y-130286823D01*
X140113380Y-130283413D01*
X140120304Y-130281313D01*
X140133638Y-130280000D01*
X140506362Y-130280000D01*
X140519696Y-130281313D01*
X140519696Y-130281313D01*
G37*
G36*
X102706627Y-128372299D02*
G01*
X102786742Y-128396601D01*
X102866855Y-128420903D01*
X102866857Y-128420904D01*
X103014518Y-128499831D01*
X103143949Y-128606051D01*
X103250169Y-128735482D01*
X103329096Y-128883143D01*
X103377701Y-129043373D01*
X103394112Y-129210000D01*
X103377701Y-129376627D01*
X103329096Y-129536857D01*
X103250169Y-129684518D01*
X103143949Y-129813949D01*
X103014518Y-129920169D01*
X102866857Y-129999096D01*
X102866855Y-129999097D01*
X102786742Y-130023399D01*
X102706627Y-130047701D01*
X102581752Y-130060000D01*
X102498248Y-130060000D01*
X102373373Y-130047701D01*
X102293258Y-130023399D01*
X102213145Y-129999097D01*
X102213143Y-129999096D01*
X102065482Y-129920169D01*
X101936051Y-129813949D01*
X101829831Y-129684518D01*
X101750904Y-129536857D01*
X101702299Y-129376627D01*
X101685888Y-129210000D01*
X101702299Y-129043373D01*
X101750904Y-128883143D01*
X101829831Y-128735482D01*
X101936051Y-128606051D01*
X102065482Y-128499831D01*
X102213143Y-128420904D01*
X102213145Y-128420903D01*
X102293258Y-128396601D01*
X102373373Y-128372299D01*
X102498248Y-128360000D01*
X102581752Y-128360000D01*
X102706627Y-128372299D01*
X102706627Y-128372299D01*
G37*
G36*
X183400000Y-130060000D02*
G01*
X181700000Y-130060000D01*
X181700000Y-128360000D01*
X183400000Y-128360000D01*
X183400000Y-130060000D01*
X183400000Y-130060000D01*
G37*
G36*
X134813000Y-127318000D02*
G01*
X133843000Y-127318000D01*
X133843000Y-126048000D01*
X134813000Y-126048000D01*
X134813000Y-127318000D01*
X134813000Y-127318000D01*
G37*
G36*
X136083000Y-127318000D02*
G01*
X135113000Y-127318000D01*
X135113000Y-126048000D01*
X136083000Y-126048000D01*
X136083000Y-127318000D01*
X136083000Y-127318000D01*
G37*
G36*
X137353000Y-127318000D02*
G01*
X136383000Y-127318000D01*
X136383000Y-126048000D01*
X137353000Y-126048000D01*
X137353000Y-127318000D01*
X137353000Y-127318000D01*
G37*
G36*
X180176627Y-125197299D02*
G01*
X180256742Y-125221601D01*
X180336855Y-125245903D01*
X180336857Y-125245904D01*
X180484518Y-125324831D01*
X180613949Y-125431051D01*
X180720169Y-125560482D01*
X180799096Y-125708143D01*
X180847701Y-125868373D01*
X180864112Y-126035000D01*
X180847701Y-126201627D01*
X180799096Y-126361857D01*
X180720169Y-126509518D01*
X180613949Y-126638949D01*
X180484518Y-126745169D01*
X180341121Y-126821817D01*
X180336855Y-126824097D01*
X180262605Y-126846620D01*
X180176627Y-126872701D01*
X180051752Y-126885000D01*
X179968248Y-126885000D01*
X179843373Y-126872701D01*
X179757395Y-126846620D01*
X179683145Y-126824097D01*
X179678879Y-126821817D01*
X179535482Y-126745169D01*
X179406051Y-126638949D01*
X179299831Y-126509518D01*
X179220904Y-126361857D01*
X179172299Y-126201627D01*
X179155888Y-126035000D01*
X179172299Y-125868373D01*
X179220904Y-125708143D01*
X179299831Y-125560482D01*
X179406051Y-125431051D01*
X179535482Y-125324831D01*
X179683143Y-125245904D01*
X179683145Y-125245903D01*
X179763258Y-125221601D01*
X179843373Y-125197299D01*
X179968248Y-125185000D01*
X180051752Y-125185000D01*
X180176627Y-125197299D01*
X180176627Y-125197299D01*
G37*
G36*
X182716627Y-125197299D02*
G01*
X182796742Y-125221601D01*
X182876855Y-125245903D01*
X182876857Y-125245904D01*
X183024518Y-125324831D01*
X183153949Y-125431051D01*
X183260169Y-125560482D01*
X183339096Y-125708143D01*
X183387701Y-125868373D01*
X183404112Y-126035000D01*
X183387701Y-126201627D01*
X183339096Y-126361857D01*
X183260169Y-126509518D01*
X183153949Y-126638949D01*
X183024518Y-126745169D01*
X182881121Y-126821817D01*
X182876855Y-126824097D01*
X182802605Y-126846620D01*
X182716627Y-126872701D01*
X182591752Y-126885000D01*
X182508248Y-126885000D01*
X182383373Y-126872701D01*
X182297395Y-126846620D01*
X182223145Y-126824097D01*
X182218879Y-126821817D01*
X182075482Y-126745169D01*
X181946051Y-126638949D01*
X181839831Y-126509518D01*
X181760904Y-126361857D01*
X181712299Y-126201627D01*
X181695888Y-126035000D01*
X181712299Y-125868373D01*
X181760904Y-125708143D01*
X181839831Y-125560482D01*
X181946051Y-125431051D01*
X182075482Y-125324831D01*
X182223143Y-125245904D01*
X182223145Y-125245903D01*
X182303258Y-125221601D01*
X182383373Y-125197299D01*
X182508248Y-125185000D01*
X182591752Y-125185000D01*
X182716627Y-125197299D01*
X182716627Y-125197299D01*
G37*
G36*
X140519696Y-126471313D02*
G01*
X140526620Y-126473413D01*
X140532999Y-126476823D01*
X140538588Y-126481410D01*
X140543375Y-126487243D01*
X140560702Y-126504570D01*
X140581077Y-126518184D01*
X140603716Y-126527561D01*
X140627749Y-126532341D01*
X140652253Y-126532341D01*
X140676286Y-126527560D01*
X140698925Y-126518183D01*
X140719299Y-126504569D01*
X140736625Y-126487243D01*
X140741412Y-126481410D01*
X140747001Y-126476823D01*
X140753380Y-126473413D01*
X140760304Y-126471313D01*
X140773638Y-126470000D01*
X141146362Y-126470000D01*
X141159696Y-126471313D01*
X141166620Y-126473413D01*
X141172999Y-126476823D01*
X141178589Y-126481411D01*
X141183177Y-126487001D01*
X141186587Y-126493380D01*
X141188687Y-126500304D01*
X141190000Y-126513638D01*
X141190000Y-126826362D01*
X141188687Y-126839696D01*
X141186587Y-126846620D01*
X141183177Y-126852999D01*
X141178589Y-126858589D01*
X141172999Y-126863177D01*
X141166620Y-126866587D01*
X141159696Y-126868687D01*
X141146362Y-126870000D01*
X140773638Y-126870000D01*
X140760304Y-126868687D01*
X140753380Y-126866587D01*
X140747001Y-126863177D01*
X140741412Y-126858590D01*
X140736625Y-126852757D01*
X140719298Y-126835430D01*
X140698923Y-126821816D01*
X140676284Y-126812439D01*
X140652251Y-126807659D01*
X140627747Y-126807659D01*
X140603714Y-126812440D01*
X140581075Y-126821817D01*
X140560701Y-126835431D01*
X140543375Y-126852757D01*
X140538588Y-126858590D01*
X140532999Y-126863177D01*
X140526620Y-126866587D01*
X140519696Y-126868687D01*
X140506362Y-126870000D01*
X140133638Y-126870000D01*
X140120304Y-126868687D01*
X140113380Y-126866587D01*
X140107001Y-126863177D01*
X140101411Y-126858589D01*
X140096823Y-126852999D01*
X140093413Y-126846620D01*
X140091313Y-126839696D01*
X140090000Y-126826362D01*
X140090000Y-126513638D01*
X140091313Y-126500304D01*
X140093413Y-126493380D01*
X140096823Y-126487001D01*
X140101411Y-126481411D01*
X140107001Y-126476823D01*
X140113380Y-126473413D01*
X140120304Y-126471313D01*
X140133638Y-126470000D01*
X140506362Y-126470000D01*
X140519696Y-126471313D01*
X140519696Y-126471313D01*
G37*
G36*
X102706627Y-124968299D02*
G01*
X102786742Y-124992601D01*
X102866855Y-125016903D01*
X102866857Y-125016904D01*
X103014518Y-125095831D01*
X103143949Y-125202051D01*
X103250169Y-125331482D01*
X103329096Y-125479143D01*
X103377701Y-125639373D01*
X103394112Y-125806000D01*
X103377701Y-125972627D01*
X103329096Y-126132857D01*
X103250169Y-126280518D01*
X103143949Y-126409949D01*
X103014518Y-126516169D01*
X102913808Y-126570000D01*
X102866855Y-126595097D01*
X102786742Y-126619399D01*
X102706627Y-126643701D01*
X102581752Y-126656000D01*
X102498248Y-126656000D01*
X102373373Y-126643701D01*
X102293258Y-126619399D01*
X102213145Y-126595097D01*
X102166192Y-126570000D01*
X102065482Y-126516169D01*
X101936051Y-126409949D01*
X101829831Y-126280518D01*
X101750904Y-126132857D01*
X101702299Y-125972627D01*
X101685888Y-125806000D01*
X101702299Y-125639373D01*
X101750904Y-125479143D01*
X101829831Y-125331482D01*
X101936051Y-125202051D01*
X102065482Y-125095831D01*
X102213143Y-125016904D01*
X102213145Y-125016903D01*
X102293258Y-124992601D01*
X102373373Y-124968299D01*
X102498248Y-124956000D01*
X102581752Y-124956000D01*
X102706627Y-124968299D01*
X102706627Y-124968299D01*
G37*
G36*
X105930000Y-126656000D02*
G01*
X104230000Y-126656000D01*
X104230000Y-124956000D01*
X105930000Y-124956000D01*
X105930000Y-126656000D01*
X105930000Y-126656000D01*
G37*
G36*
X182716627Y-122657299D02*
G01*
X182763148Y-122671411D01*
X182876855Y-122705903D01*
X182876857Y-122705904D01*
X183024518Y-122784831D01*
X183153949Y-122891051D01*
X183260169Y-123020482D01*
X183339096Y-123168143D01*
X183387701Y-123328373D01*
X183404112Y-123495000D01*
X183387701Y-123661627D01*
X183339096Y-123821857D01*
X183260169Y-123969518D01*
X183153949Y-124098949D01*
X183024518Y-124205169D01*
X182876857Y-124284096D01*
X182876855Y-124284097D01*
X182796742Y-124308399D01*
X182716627Y-124332701D01*
X182591752Y-124345000D01*
X182508248Y-124345000D01*
X182383373Y-124332701D01*
X182303258Y-124308398D01*
X182223145Y-124284097D01*
X182223143Y-124284096D01*
X182075482Y-124205169D01*
X181946051Y-124098949D01*
X181839831Y-123969518D01*
X181760904Y-123821857D01*
X181712299Y-123661627D01*
X181695888Y-123495000D01*
X181712299Y-123328373D01*
X181760904Y-123168143D01*
X181839831Y-123020482D01*
X181946051Y-122891051D01*
X182075482Y-122784831D01*
X182223143Y-122705904D01*
X182223145Y-122705903D01*
X182336852Y-122671411D01*
X182383373Y-122657299D01*
X182508248Y-122645000D01*
X182591752Y-122645000D01*
X182716627Y-122657299D01*
X182716627Y-122657299D01*
G37*
G36*
X180176627Y-122657299D02*
G01*
X180223148Y-122671411D01*
X180336855Y-122705903D01*
X180336857Y-122705904D01*
X180484518Y-122784831D01*
X180613949Y-122891051D01*
X180720169Y-123020482D01*
X180799096Y-123168143D01*
X180847701Y-123328373D01*
X180864112Y-123495000D01*
X180847701Y-123661627D01*
X180799096Y-123821857D01*
X180720169Y-123969518D01*
X180613949Y-124098949D01*
X180484518Y-124205169D01*
X180336857Y-124284096D01*
X180336855Y-124284097D01*
X180256742Y-124308399D01*
X180176627Y-124332701D01*
X180051752Y-124345000D01*
X179968248Y-124345000D01*
X179843373Y-124332701D01*
X179763258Y-124308398D01*
X179683145Y-124284097D01*
X179683143Y-124284096D01*
X179535482Y-124205169D01*
X179406051Y-124098949D01*
X179299831Y-123969518D01*
X179220904Y-123821857D01*
X179172299Y-123661627D01*
X179155888Y-123495000D01*
X179172299Y-123328373D01*
X179220904Y-123168143D01*
X179299831Y-123020482D01*
X179406051Y-122891051D01*
X179535482Y-122784831D01*
X179683143Y-122705904D01*
X179683145Y-122705903D01*
X179796852Y-122671411D01*
X179843373Y-122657299D01*
X179968248Y-122645000D01*
X180051752Y-122645000D01*
X180176627Y-122657299D01*
X180176627Y-122657299D01*
G37*
G36*
X105246627Y-122428299D02*
G01*
X105326742Y-122452601D01*
X105406855Y-122476903D01*
X105406857Y-122476904D01*
X105554518Y-122555831D01*
X105683949Y-122662051D01*
X105790169Y-122791482D01*
X105869096Y-122939143D01*
X105917701Y-123099373D01*
X105934112Y-123266000D01*
X105917701Y-123432627D01*
X105869096Y-123592857D01*
X105790169Y-123740518D01*
X105683949Y-123869949D01*
X105554518Y-123976169D01*
X105406857Y-124055096D01*
X105406855Y-124055097D01*
X105326742Y-124079399D01*
X105246627Y-124103701D01*
X105121752Y-124116000D01*
X105038248Y-124116000D01*
X104913373Y-124103701D01*
X104833258Y-124079399D01*
X104753145Y-124055097D01*
X104753143Y-124055096D01*
X104605482Y-123976169D01*
X104476051Y-123869949D01*
X104369831Y-123740518D01*
X104290904Y-123592857D01*
X104242299Y-123432627D01*
X104225888Y-123266000D01*
X104242299Y-123099373D01*
X104290904Y-122939143D01*
X104369831Y-122791482D01*
X104476051Y-122662051D01*
X104605482Y-122555831D01*
X104753143Y-122476904D01*
X104753145Y-122476903D01*
X104833258Y-122452601D01*
X104913373Y-122428299D01*
X105038248Y-122416000D01*
X105121752Y-122416000D01*
X105246627Y-122428299D01*
X105246627Y-122428299D01*
G37*
G36*
X102706627Y-122428299D02*
G01*
X102786742Y-122452601D01*
X102866855Y-122476903D01*
X102866857Y-122476904D01*
X103014518Y-122555831D01*
X103143949Y-122662051D01*
X103250169Y-122791482D01*
X103329096Y-122939143D01*
X103377701Y-123099373D01*
X103394112Y-123266000D01*
X103377701Y-123432627D01*
X103329096Y-123592857D01*
X103250169Y-123740518D01*
X103143949Y-123869949D01*
X103014518Y-123976169D01*
X102866857Y-124055096D01*
X102866855Y-124055097D01*
X102786742Y-124079399D01*
X102706627Y-124103701D01*
X102581752Y-124116000D01*
X102498248Y-124116000D01*
X102373373Y-124103701D01*
X102293258Y-124079399D01*
X102213145Y-124055097D01*
X102213143Y-124055096D01*
X102065482Y-123976169D01*
X101936051Y-123869949D01*
X101829831Y-123740518D01*
X101750904Y-123592857D01*
X101702299Y-123432627D01*
X101685888Y-123266000D01*
X101702299Y-123099373D01*
X101750904Y-122939143D01*
X101829831Y-122791482D01*
X101936051Y-122662051D01*
X102065482Y-122555831D01*
X102213143Y-122476904D01*
X102213145Y-122476903D01*
X102293258Y-122452601D01*
X102373373Y-122428299D01*
X102498248Y-122416000D01*
X102581752Y-122416000D01*
X102706627Y-122428299D01*
X102706627Y-122428299D01*
G37*
G36*
X142739696Y-122661313D02*
G01*
X142746620Y-122663413D01*
X142752999Y-122666823D01*
X142758588Y-122671410D01*
X142763375Y-122677243D01*
X142780702Y-122694570D01*
X142801077Y-122708184D01*
X142823716Y-122717561D01*
X142847749Y-122722341D01*
X142872253Y-122722341D01*
X142896286Y-122717560D01*
X142918925Y-122708183D01*
X142939299Y-122694569D01*
X142956625Y-122677243D01*
X142961412Y-122671410D01*
X142967001Y-122666823D01*
X142973380Y-122663413D01*
X142980304Y-122661313D01*
X142993638Y-122660000D01*
X143366362Y-122660000D01*
X143379696Y-122661313D01*
X143386620Y-122663413D01*
X143392999Y-122666823D01*
X143398589Y-122671411D01*
X143403177Y-122677001D01*
X143406587Y-122683380D01*
X143408687Y-122690304D01*
X143410000Y-122703638D01*
X143410000Y-123016362D01*
X143408687Y-123029696D01*
X143406587Y-123036620D01*
X143403177Y-123042999D01*
X143398589Y-123048589D01*
X143392999Y-123053177D01*
X143386620Y-123056587D01*
X143379696Y-123058687D01*
X143366362Y-123060000D01*
X142993638Y-123060000D01*
X142980304Y-123058687D01*
X142973380Y-123056587D01*
X142967001Y-123053177D01*
X142961412Y-123048590D01*
X142956625Y-123042757D01*
X142939298Y-123025430D01*
X142918923Y-123011816D01*
X142896284Y-123002439D01*
X142872251Y-122997659D01*
X142847747Y-122997659D01*
X142823714Y-123002440D01*
X142801075Y-123011817D01*
X142780701Y-123025431D01*
X142763375Y-123042757D01*
X142758588Y-123048590D01*
X142752999Y-123053177D01*
X142746620Y-123056587D01*
X142739696Y-123058687D01*
X142726362Y-123060000D01*
X142353638Y-123060000D01*
X142340304Y-123058687D01*
X142333380Y-123056587D01*
X142327001Y-123053177D01*
X142321411Y-123048589D01*
X142316823Y-123042999D01*
X142313413Y-123036620D01*
X142311313Y-123029696D01*
X142310000Y-123016362D01*
X142310000Y-122703638D01*
X142311313Y-122690304D01*
X142313413Y-122683380D01*
X142316823Y-122677001D01*
X142321411Y-122671411D01*
X142327001Y-122666823D01*
X142333380Y-122663413D01*
X142340304Y-122661313D01*
X142353638Y-122660000D01*
X142726362Y-122660000D01*
X142739696Y-122661313D01*
X142739696Y-122661313D01*
G37*
G36*
X140804696Y-122661313D02*
G01*
X140811620Y-122663413D01*
X140817999Y-122666823D01*
X140823588Y-122671410D01*
X140828375Y-122677243D01*
X140845702Y-122694570D01*
X140866077Y-122708184D01*
X140888716Y-122717561D01*
X140912749Y-122722341D01*
X140937253Y-122722341D01*
X140961286Y-122717560D01*
X140983925Y-122708183D01*
X141004299Y-122694569D01*
X141021625Y-122677243D01*
X141026412Y-122671410D01*
X141032001Y-122666823D01*
X141038380Y-122663413D01*
X141045304Y-122661313D01*
X141058638Y-122660000D01*
X141431362Y-122660000D01*
X141444696Y-122661313D01*
X141451620Y-122663413D01*
X141457999Y-122666823D01*
X141463589Y-122671411D01*
X141468177Y-122677001D01*
X141471587Y-122683380D01*
X141473687Y-122690304D01*
X141475000Y-122703638D01*
X141475000Y-123016362D01*
X141473687Y-123029696D01*
X141471587Y-123036620D01*
X141468177Y-123042999D01*
X141463589Y-123048589D01*
X141457999Y-123053177D01*
X141451620Y-123056587D01*
X141444696Y-123058687D01*
X141431362Y-123060000D01*
X141058638Y-123060000D01*
X141045304Y-123058687D01*
X141038380Y-123056587D01*
X141032001Y-123053177D01*
X141026412Y-123048590D01*
X141021625Y-123042757D01*
X141004298Y-123025430D01*
X140983923Y-123011816D01*
X140961284Y-123002439D01*
X140937251Y-122997659D01*
X140912747Y-122997659D01*
X140888714Y-123002440D01*
X140866075Y-123011817D01*
X140845701Y-123025431D01*
X140828375Y-123042757D01*
X140823588Y-123048590D01*
X140817999Y-123053177D01*
X140811620Y-123056587D01*
X140804696Y-123058687D01*
X140791362Y-123060000D01*
X140418638Y-123060000D01*
X140405304Y-123058687D01*
X140398380Y-123056587D01*
X140392001Y-123053177D01*
X140386411Y-123048589D01*
X140381823Y-123042999D01*
X140378413Y-123036620D01*
X140376313Y-123029696D01*
X140375000Y-123016362D01*
X140375000Y-122703638D01*
X140376313Y-122690304D01*
X140378413Y-122683380D01*
X140381823Y-122677001D01*
X140386411Y-122671411D01*
X140392001Y-122666823D01*
X140398380Y-122663413D01*
X140405304Y-122661313D01*
X140418638Y-122660000D01*
X140791362Y-122660000D01*
X140804696Y-122661313D01*
X140804696Y-122661313D01*
G37*
G36*
X182716627Y-120117299D02*
G01*
X182763148Y-120131411D01*
X182876855Y-120165903D01*
X182876857Y-120165904D01*
X183024518Y-120244831D01*
X183153949Y-120351051D01*
X183260169Y-120480482D01*
X183280265Y-120518079D01*
X183339097Y-120628145D01*
X183363399Y-120708258D01*
X183387701Y-120788373D01*
X183404112Y-120955000D01*
X183387701Y-121121627D01*
X183339096Y-121281857D01*
X183260169Y-121429518D01*
X183153949Y-121558949D01*
X183024518Y-121665169D01*
X182994900Y-121681000D01*
X182876855Y-121744097D01*
X182796742Y-121768398D01*
X182716627Y-121792701D01*
X182591752Y-121805000D01*
X182508248Y-121805000D01*
X182383373Y-121792701D01*
X182303258Y-121768398D01*
X182223145Y-121744097D01*
X182105100Y-121681000D01*
X182075482Y-121665169D01*
X181946051Y-121558949D01*
X181839831Y-121429518D01*
X181760904Y-121281857D01*
X181712299Y-121121627D01*
X181695888Y-120955000D01*
X181712299Y-120788373D01*
X181736601Y-120708258D01*
X181760903Y-120628145D01*
X181819735Y-120518079D01*
X181839831Y-120480482D01*
X181946051Y-120351051D01*
X182075482Y-120244831D01*
X182223143Y-120165904D01*
X182223145Y-120165903D01*
X182336852Y-120131411D01*
X182383373Y-120117299D01*
X182508248Y-120105000D01*
X182591752Y-120105000D01*
X182716627Y-120117299D01*
X182716627Y-120117299D01*
G37*
G36*
X180176627Y-120117299D02*
G01*
X180223148Y-120131411D01*
X180336855Y-120165903D01*
X180336857Y-120165904D01*
X180484518Y-120244831D01*
X180613949Y-120351051D01*
X180720169Y-120480482D01*
X180740265Y-120518079D01*
X180799097Y-120628145D01*
X180823399Y-120708258D01*
X180847701Y-120788373D01*
X180864112Y-120955000D01*
X180847701Y-121121627D01*
X180799096Y-121281857D01*
X180720169Y-121429518D01*
X180613949Y-121558949D01*
X180484518Y-121665169D01*
X180454900Y-121681000D01*
X180336855Y-121744097D01*
X180256742Y-121768398D01*
X180176627Y-121792701D01*
X180051752Y-121805000D01*
X179968248Y-121805000D01*
X179843373Y-121792701D01*
X179763258Y-121768398D01*
X179683145Y-121744097D01*
X179565100Y-121681000D01*
X179535482Y-121665169D01*
X179406051Y-121558949D01*
X179299831Y-121429518D01*
X179220904Y-121281857D01*
X179172299Y-121121627D01*
X179155888Y-120955000D01*
X179172299Y-120788373D01*
X179196601Y-120708258D01*
X179220903Y-120628145D01*
X179279735Y-120518079D01*
X179299831Y-120480482D01*
X179406051Y-120351051D01*
X179535482Y-120244831D01*
X179683143Y-120165904D01*
X179683145Y-120165903D01*
X179796852Y-120131411D01*
X179843373Y-120117299D01*
X179968248Y-120105000D01*
X180051752Y-120105000D01*
X180176627Y-120117299D01*
X180176627Y-120117299D01*
G37*
G36*
X132173696Y-121282313D02*
G01*
X132180620Y-121284413D01*
X132186999Y-121287823D01*
X132192588Y-121292410D01*
X132197375Y-121298243D01*
X132214702Y-121315570D01*
X132235077Y-121329184D01*
X132257716Y-121338561D01*
X132281749Y-121343341D01*
X132306253Y-121343341D01*
X132330286Y-121338560D01*
X132352925Y-121329183D01*
X132373299Y-121315569D01*
X132390625Y-121298243D01*
X132395412Y-121292410D01*
X132401001Y-121287823D01*
X132407380Y-121284413D01*
X132414304Y-121282313D01*
X132427638Y-121281000D01*
X132800362Y-121281000D01*
X132813696Y-121282313D01*
X132820620Y-121284413D01*
X132826999Y-121287823D01*
X132832589Y-121292411D01*
X132837177Y-121298001D01*
X132840587Y-121304380D01*
X132842687Y-121311304D01*
X132844000Y-121324638D01*
X132844000Y-121637362D01*
X132842687Y-121650696D01*
X132840587Y-121657620D01*
X132837177Y-121663999D01*
X132832589Y-121669589D01*
X132826999Y-121674177D01*
X132820620Y-121677587D01*
X132813696Y-121679687D01*
X132800362Y-121681000D01*
X132427638Y-121681000D01*
X132414304Y-121679687D01*
X132407380Y-121677587D01*
X132401001Y-121674177D01*
X132395412Y-121669590D01*
X132390625Y-121663757D01*
X132373298Y-121646430D01*
X132352923Y-121632816D01*
X132330284Y-121623439D01*
X132306251Y-121618659D01*
X132281747Y-121618659D01*
X132257714Y-121623440D01*
X132235075Y-121632817D01*
X132214701Y-121646431D01*
X132197375Y-121663757D01*
X132192588Y-121669590D01*
X132186999Y-121674177D01*
X132180620Y-121677587D01*
X132173696Y-121679687D01*
X132160362Y-121681000D01*
X131787638Y-121681000D01*
X131774304Y-121679687D01*
X131767380Y-121677587D01*
X131761001Y-121674177D01*
X131755411Y-121669589D01*
X131750823Y-121663999D01*
X131747413Y-121657620D01*
X131745313Y-121650696D01*
X131744000Y-121637362D01*
X131744000Y-121324638D01*
X131745313Y-121311304D01*
X131747413Y-121304380D01*
X131750823Y-121298001D01*
X131755411Y-121292411D01*
X131761001Y-121287823D01*
X131767380Y-121284413D01*
X131774304Y-121282313D01*
X131787638Y-121281000D01*
X132160362Y-121281000D01*
X132173696Y-121282313D01*
X132173696Y-121282313D01*
G37*
G36*
X102706627Y-119888299D02*
G01*
X102786742Y-119912601D01*
X102866855Y-119936903D01*
X102866857Y-119936904D01*
X103014518Y-120015831D01*
X103143949Y-120122051D01*
X103250169Y-120251482D01*
X103329096Y-120399143D01*
X103377701Y-120559373D01*
X103394112Y-120726000D01*
X103377701Y-120892627D01*
X103329096Y-121052857D01*
X103250169Y-121200518D01*
X103143949Y-121329949D01*
X103014518Y-121436169D01*
X102914257Y-121489760D01*
X102866855Y-121515097D01*
X102786742Y-121539399D01*
X102706627Y-121563701D01*
X102581752Y-121576000D01*
X102498248Y-121576000D01*
X102373373Y-121563701D01*
X102293258Y-121539399D01*
X102213145Y-121515097D01*
X102165743Y-121489760D01*
X102065482Y-121436169D01*
X101936051Y-121329949D01*
X101829831Y-121200518D01*
X101750904Y-121052857D01*
X101702299Y-120892627D01*
X101685888Y-120726000D01*
X101702299Y-120559373D01*
X101750904Y-120399143D01*
X101829831Y-120251482D01*
X101936051Y-120122051D01*
X102065482Y-120015831D01*
X102213143Y-119936904D01*
X102213145Y-119936903D01*
X102293258Y-119912601D01*
X102373373Y-119888299D01*
X102498248Y-119876000D01*
X102581752Y-119876000D01*
X102706627Y-119888299D01*
X102706627Y-119888299D01*
G37*
G36*
X105246627Y-119888299D02*
G01*
X105326742Y-119912601D01*
X105406855Y-119936903D01*
X105406857Y-119936904D01*
X105554518Y-120015831D01*
X105683949Y-120122051D01*
X105790169Y-120251482D01*
X105869096Y-120399143D01*
X105917701Y-120559373D01*
X105934112Y-120726000D01*
X105917701Y-120892627D01*
X105869096Y-121052857D01*
X105790169Y-121200518D01*
X105683949Y-121329949D01*
X105554518Y-121436169D01*
X105454257Y-121489760D01*
X105406855Y-121515097D01*
X105326742Y-121539399D01*
X105246627Y-121563701D01*
X105121752Y-121576000D01*
X105038248Y-121576000D01*
X104913373Y-121563701D01*
X104833258Y-121539399D01*
X104753145Y-121515097D01*
X104705743Y-121489760D01*
X104605482Y-121436169D01*
X104476051Y-121329949D01*
X104369831Y-121200518D01*
X104290904Y-121052857D01*
X104242299Y-120892627D01*
X104225888Y-120726000D01*
X104242299Y-120559373D01*
X104290904Y-120399143D01*
X104369831Y-120251482D01*
X104476051Y-120122051D01*
X104605482Y-120015831D01*
X104753143Y-119936904D01*
X104753145Y-119936903D01*
X104833258Y-119912601D01*
X104913373Y-119888299D01*
X105038248Y-119876000D01*
X105121752Y-119876000D01*
X105246627Y-119888299D01*
X105246627Y-119888299D01*
G37*
G36*
X137435940Y-117642391D02*
G01*
X137438342Y-117666777D01*
X137445455Y-117690226D01*
X137457006Y-117711837D01*
X137472551Y-117730779D01*
X137487200Y-117742800D01*
X137499221Y-117757449D01*
X137518163Y-117772994D01*
X137539774Y-117784545D01*
X137563223Y-117791658D01*
X137587609Y-117794060D01*
X138535760Y-117794060D01*
X138535760Y-120389940D01*
X137587609Y-120389940D01*
X137563223Y-120392342D01*
X137539774Y-120399455D01*
X137518163Y-120411006D01*
X137499221Y-120426551D01*
X137487200Y-120441200D01*
X137472551Y-120453221D01*
X137457006Y-120472163D01*
X137445455Y-120493774D01*
X137438342Y-120517223D01*
X137435940Y-120541609D01*
X137435940Y-121489760D01*
X134840060Y-121489760D01*
X134840060Y-120541609D01*
X134837658Y-120517223D01*
X134830545Y-120493774D01*
X134818994Y-120472163D01*
X134803449Y-120453221D01*
X134788800Y-120441200D01*
X134776779Y-120426551D01*
X134757837Y-120411006D01*
X134736226Y-120399455D01*
X134712777Y-120392342D01*
X134688391Y-120389940D01*
X133740240Y-120389940D01*
X133740240Y-117794060D01*
X134688391Y-117794060D01*
X134712777Y-117791658D01*
X134736226Y-117784545D01*
X134757837Y-117772994D01*
X134776779Y-117757449D01*
X134788800Y-117742800D01*
X134803449Y-117730779D01*
X134818994Y-117711837D01*
X134830545Y-117690226D01*
X134837658Y-117666777D01*
X134840060Y-117642391D01*
X134840060Y-116694240D01*
X137435940Y-116694240D01*
X137435940Y-117642391D01*
X137435940Y-117642391D01*
G37*
G36*
X140714696Y-120121313D02*
G01*
X140721620Y-120123413D01*
X140727999Y-120126823D01*
X140733588Y-120131410D01*
X140738375Y-120137243D01*
X140755702Y-120154570D01*
X140776077Y-120168184D01*
X140798716Y-120177561D01*
X140822749Y-120182341D01*
X140847253Y-120182341D01*
X140871286Y-120177560D01*
X140893925Y-120168183D01*
X140914299Y-120154569D01*
X140931625Y-120137243D01*
X140936412Y-120131410D01*
X140942001Y-120126823D01*
X140948380Y-120123413D01*
X140955304Y-120121313D01*
X140968638Y-120120000D01*
X141341362Y-120120000D01*
X141354696Y-120121313D01*
X141361620Y-120123413D01*
X141367999Y-120126823D01*
X141373589Y-120131411D01*
X141378177Y-120137001D01*
X141381587Y-120143380D01*
X141383687Y-120150304D01*
X141385000Y-120163638D01*
X141385000Y-120476362D01*
X141383687Y-120489696D01*
X141381587Y-120496620D01*
X141378177Y-120502999D01*
X141373589Y-120508589D01*
X141367999Y-120513177D01*
X141361620Y-120516587D01*
X141354696Y-120518687D01*
X141341362Y-120520000D01*
X140968638Y-120520000D01*
X140955304Y-120518687D01*
X140948380Y-120516587D01*
X140942001Y-120513177D01*
X140936412Y-120508590D01*
X140931625Y-120502757D01*
X140914298Y-120485430D01*
X140893923Y-120471816D01*
X140871284Y-120462439D01*
X140847251Y-120457659D01*
X140822747Y-120457659D01*
X140798714Y-120462440D01*
X140776075Y-120471817D01*
X140755701Y-120485431D01*
X140738375Y-120502757D01*
X140733588Y-120508590D01*
X140727999Y-120513177D01*
X140721620Y-120516587D01*
X140714696Y-120518687D01*
X140701362Y-120520000D01*
X140328638Y-120520000D01*
X140315304Y-120518687D01*
X140308380Y-120516587D01*
X140302001Y-120513177D01*
X140296411Y-120508589D01*
X140291823Y-120502999D01*
X140288413Y-120496620D01*
X140286313Y-120489696D01*
X140285000Y-120476362D01*
X140285000Y-120163638D01*
X140286313Y-120150304D01*
X140288413Y-120143380D01*
X140291823Y-120137001D01*
X140296411Y-120131411D01*
X140302001Y-120126823D01*
X140308380Y-120123413D01*
X140315304Y-120121313D01*
X140328638Y-120120000D01*
X140701362Y-120120000D01*
X140714696Y-120121313D01*
X140714696Y-120121313D01*
G37*
G36*
X130624766Y-118409821D02*
G01*
X130761257Y-118466358D01*
X130884097Y-118548437D01*
X130988563Y-118652903D01*
X131070642Y-118775743D01*
X131127179Y-118912234D01*
X131156000Y-119057130D01*
X131156000Y-119204870D01*
X131127179Y-119349766D01*
X131070642Y-119486257D01*
X130988563Y-119609097D01*
X130884097Y-119713563D01*
X130761257Y-119795642D01*
X130624766Y-119852179D01*
X130479870Y-119881000D01*
X130332130Y-119881000D01*
X130187234Y-119852179D01*
X130050743Y-119795642D01*
X129927903Y-119713563D01*
X129823437Y-119609097D01*
X129741358Y-119486257D01*
X129684821Y-119349766D01*
X129656000Y-119204870D01*
X129656000Y-119057130D01*
X129684821Y-118912234D01*
X129741358Y-118775743D01*
X129823437Y-118652903D01*
X129927903Y-118548437D01*
X130050743Y-118466358D01*
X130187234Y-118409821D01*
X130332130Y-118381000D01*
X130479870Y-118381000D01*
X130624766Y-118409821D01*
X130624766Y-118409821D01*
G37*
G36*
X182716627Y-117577299D02*
G01*
X182796742Y-117601602D01*
X182876855Y-117625903D01*
X182876857Y-117625904D01*
X183024518Y-117704831D01*
X183153949Y-117811051D01*
X183260169Y-117940482D01*
X183339096Y-118088143D01*
X183387701Y-118248373D01*
X183404112Y-118415000D01*
X183387701Y-118581627D01*
X183339096Y-118741857D01*
X183260169Y-118889518D01*
X183153949Y-119018949D01*
X183024518Y-119125169D01*
X182901245Y-119191060D01*
X182876855Y-119204097D01*
X182796742Y-119228398D01*
X182716627Y-119252701D01*
X182591752Y-119265000D01*
X182508248Y-119265000D01*
X182383373Y-119252701D01*
X182303258Y-119228399D01*
X182223145Y-119204097D01*
X182198755Y-119191060D01*
X182075482Y-119125169D01*
X181946051Y-119018949D01*
X181839831Y-118889518D01*
X181760904Y-118741857D01*
X181712299Y-118581627D01*
X181695888Y-118415000D01*
X181712299Y-118248373D01*
X181760904Y-118088143D01*
X181839831Y-117940482D01*
X181946051Y-117811051D01*
X182075482Y-117704831D01*
X182223143Y-117625904D01*
X182223145Y-117625903D01*
X182303258Y-117601602D01*
X182383373Y-117577299D01*
X182508248Y-117565000D01*
X182591752Y-117565000D01*
X182716627Y-117577299D01*
X182716627Y-117577299D01*
G37*
G36*
X180176627Y-117577299D02*
G01*
X180256742Y-117601602D01*
X180336855Y-117625903D01*
X180336857Y-117625904D01*
X180484518Y-117704831D01*
X180613949Y-117811051D01*
X180720169Y-117940482D01*
X180799096Y-118088143D01*
X180847701Y-118248373D01*
X180864112Y-118415000D01*
X180847701Y-118581627D01*
X180799096Y-118741857D01*
X180720169Y-118889518D01*
X180613949Y-119018949D01*
X180484518Y-119125169D01*
X180361245Y-119191060D01*
X180336855Y-119204097D01*
X180256742Y-119228398D01*
X180176627Y-119252701D01*
X180051752Y-119265000D01*
X179968248Y-119265000D01*
X179843373Y-119252701D01*
X179763258Y-119228399D01*
X179683145Y-119204097D01*
X179658755Y-119191060D01*
X179535482Y-119125169D01*
X179406051Y-119018949D01*
X179299831Y-118889518D01*
X179220904Y-118741857D01*
X179172299Y-118581627D01*
X179155888Y-118415000D01*
X179172299Y-118248373D01*
X179220904Y-118088143D01*
X179299831Y-117940482D01*
X179406051Y-117811051D01*
X179535482Y-117704831D01*
X179683143Y-117625904D01*
X179683145Y-117625903D01*
X179763258Y-117601602D01*
X179843373Y-117577299D01*
X179968248Y-117565000D01*
X180051752Y-117565000D01*
X180176627Y-117577299D01*
X180176627Y-117577299D01*
G37*
G36*
X102706627Y-117348299D02*
G01*
X102786742Y-117372602D01*
X102866855Y-117396903D01*
X102866857Y-117396904D01*
X103014518Y-117475831D01*
X103143949Y-117582051D01*
X103250169Y-117711482D01*
X103329096Y-117859143D01*
X103377701Y-118019373D01*
X103394112Y-118186000D01*
X103377701Y-118352627D01*
X103329096Y-118512857D01*
X103250169Y-118660518D01*
X103143949Y-118789949D01*
X103014518Y-118896169D01*
X102866857Y-118975096D01*
X102866855Y-118975097D01*
X102808033Y-118992940D01*
X102706627Y-119023701D01*
X102581752Y-119036000D01*
X102498248Y-119036000D01*
X102373373Y-119023701D01*
X102271967Y-118992940D01*
X102213145Y-118975097D01*
X102213143Y-118975096D01*
X102065482Y-118896169D01*
X101936051Y-118789949D01*
X101829831Y-118660518D01*
X101750904Y-118512857D01*
X101702299Y-118352627D01*
X101685888Y-118186000D01*
X101702299Y-118019373D01*
X101750904Y-117859143D01*
X101829831Y-117711482D01*
X101936051Y-117582051D01*
X102065482Y-117475831D01*
X102213143Y-117396904D01*
X102213145Y-117396903D01*
X102293258Y-117372602D01*
X102373373Y-117348299D01*
X102498248Y-117336000D01*
X102581752Y-117336000D01*
X102706627Y-117348299D01*
X102706627Y-117348299D01*
G37*
G36*
X105246627Y-117348299D02*
G01*
X105326742Y-117372602D01*
X105406855Y-117396903D01*
X105406857Y-117396904D01*
X105554518Y-117475831D01*
X105683949Y-117582051D01*
X105790169Y-117711482D01*
X105869096Y-117859143D01*
X105917701Y-118019373D01*
X105934112Y-118186000D01*
X105917701Y-118352627D01*
X105869096Y-118512857D01*
X105790169Y-118660518D01*
X105683949Y-118789949D01*
X105554518Y-118896169D01*
X105406857Y-118975096D01*
X105406855Y-118975097D01*
X105348033Y-118992940D01*
X105246627Y-119023701D01*
X105121752Y-119036000D01*
X105038248Y-119036000D01*
X104913373Y-119023701D01*
X104811967Y-118992940D01*
X104753145Y-118975097D01*
X104753143Y-118975096D01*
X104605482Y-118896169D01*
X104476051Y-118789949D01*
X104369831Y-118660518D01*
X104290904Y-118512857D01*
X104242299Y-118352627D01*
X104225888Y-118186000D01*
X104242299Y-118019373D01*
X104290904Y-117859143D01*
X104369831Y-117711482D01*
X104476051Y-117582051D01*
X104605482Y-117475831D01*
X104753143Y-117396904D01*
X104753145Y-117396903D01*
X104833258Y-117372602D01*
X104913373Y-117348299D01*
X105038248Y-117336000D01*
X105121752Y-117336000D01*
X105246627Y-117348299D01*
X105246627Y-117348299D01*
G37*
G36*
X182716627Y-115037299D02*
G01*
X182796742Y-115061601D01*
X182876855Y-115085903D01*
X182876857Y-115085904D01*
X183024518Y-115164831D01*
X183153949Y-115271051D01*
X183260169Y-115400482D01*
X183339096Y-115548143D01*
X183387701Y-115708373D01*
X183404112Y-115875000D01*
X183387701Y-116041627D01*
X183339096Y-116201857D01*
X183260169Y-116349518D01*
X183153949Y-116478949D01*
X183024518Y-116585169D01*
X182876857Y-116664096D01*
X182876855Y-116664097D01*
X182796742Y-116688399D01*
X182716627Y-116712701D01*
X182591752Y-116725000D01*
X182508248Y-116725000D01*
X182383373Y-116712701D01*
X182303258Y-116688398D01*
X182223145Y-116664097D01*
X182223143Y-116664096D01*
X182075482Y-116585169D01*
X181946051Y-116478949D01*
X181839831Y-116349518D01*
X181760904Y-116201857D01*
X181712299Y-116041627D01*
X181695888Y-115875000D01*
X181712299Y-115708373D01*
X181760904Y-115548143D01*
X181839831Y-115400482D01*
X181946051Y-115271051D01*
X182075482Y-115164831D01*
X182223143Y-115085904D01*
X182223145Y-115085903D01*
X182303258Y-115061602D01*
X182383373Y-115037299D01*
X182508248Y-115025000D01*
X182591752Y-115025000D01*
X182716627Y-115037299D01*
X182716627Y-115037299D01*
G37*
G36*
X180176627Y-115037299D02*
G01*
X180256742Y-115061601D01*
X180336855Y-115085903D01*
X180336857Y-115085904D01*
X180484518Y-115164831D01*
X180613949Y-115271051D01*
X180720169Y-115400482D01*
X180799096Y-115548143D01*
X180847701Y-115708373D01*
X180864112Y-115875000D01*
X180847701Y-116041627D01*
X180799096Y-116201857D01*
X180720169Y-116349518D01*
X180613949Y-116478949D01*
X180484518Y-116585169D01*
X180336857Y-116664096D01*
X180336855Y-116664097D01*
X180256742Y-116688399D01*
X180176627Y-116712701D01*
X180051752Y-116725000D01*
X179968248Y-116725000D01*
X179843373Y-116712701D01*
X179763258Y-116688398D01*
X179683145Y-116664097D01*
X179683143Y-116664096D01*
X179535482Y-116585169D01*
X179406051Y-116478949D01*
X179299831Y-116349518D01*
X179220904Y-116201857D01*
X179172299Y-116041627D01*
X179155888Y-115875000D01*
X179172299Y-115708373D01*
X179220904Y-115548143D01*
X179299831Y-115400482D01*
X179406051Y-115271051D01*
X179535482Y-115164831D01*
X179683143Y-115085904D01*
X179683145Y-115085903D01*
X179763258Y-115061602D01*
X179843373Y-115037299D01*
X179968248Y-115025000D01*
X180051752Y-115025000D01*
X180176627Y-115037299D01*
X180176627Y-115037299D01*
G37*
G36*
X102706627Y-114808299D02*
G01*
X102786742Y-114832602D01*
X102866855Y-114856903D01*
X102866857Y-114856904D01*
X103014518Y-114935831D01*
X103143949Y-115042051D01*
X103250169Y-115171482D01*
X103329096Y-115319143D01*
X103377701Y-115479373D01*
X103394112Y-115646000D01*
X103377701Y-115812627D01*
X103329096Y-115972857D01*
X103250169Y-116120518D01*
X103143949Y-116249949D01*
X103014518Y-116356169D01*
X102866857Y-116435096D01*
X102866855Y-116435097D01*
X102786742Y-116459399D01*
X102706627Y-116483701D01*
X102581752Y-116496000D01*
X102498248Y-116496000D01*
X102373373Y-116483701D01*
X102293258Y-116459399D01*
X102213145Y-116435097D01*
X102213143Y-116435096D01*
X102065482Y-116356169D01*
X101936051Y-116249949D01*
X101829831Y-116120518D01*
X101750904Y-115972857D01*
X101702299Y-115812627D01*
X101685888Y-115646000D01*
X101702299Y-115479373D01*
X101750904Y-115319143D01*
X101829831Y-115171482D01*
X101936051Y-115042051D01*
X102065482Y-114935831D01*
X102213143Y-114856904D01*
X102213145Y-114856903D01*
X102293258Y-114832602D01*
X102373373Y-114808299D01*
X102498248Y-114796000D01*
X102581752Y-114796000D01*
X102706627Y-114808299D01*
X102706627Y-114808299D01*
G37*
G36*
X105246627Y-114808299D02*
G01*
X105326742Y-114832602D01*
X105406855Y-114856903D01*
X105406857Y-114856904D01*
X105554518Y-114935831D01*
X105683949Y-115042051D01*
X105790169Y-115171482D01*
X105869096Y-115319143D01*
X105917701Y-115479373D01*
X105934112Y-115646000D01*
X105917701Y-115812627D01*
X105869096Y-115972857D01*
X105790169Y-116120518D01*
X105683949Y-116249949D01*
X105554518Y-116356169D01*
X105406857Y-116435096D01*
X105406855Y-116435097D01*
X105326742Y-116459399D01*
X105246627Y-116483701D01*
X105121752Y-116496000D01*
X105038248Y-116496000D01*
X104913373Y-116483701D01*
X104833258Y-116459399D01*
X104753145Y-116435097D01*
X104753143Y-116435096D01*
X104605482Y-116356169D01*
X104476051Y-116249949D01*
X104369831Y-116120518D01*
X104290904Y-115972857D01*
X104242299Y-115812627D01*
X104225888Y-115646000D01*
X104242299Y-115479373D01*
X104290904Y-115319143D01*
X104369831Y-115171482D01*
X104476051Y-115042051D01*
X104605482Y-114935831D01*
X104753143Y-114856904D01*
X104753145Y-114856903D01*
X104833258Y-114832602D01*
X104913373Y-114808299D01*
X105038248Y-114796000D01*
X105121752Y-114796000D01*
X105246627Y-114808299D01*
X105246627Y-114808299D01*
G37*
G36*
X182716627Y-112497299D02*
G01*
X182796742Y-112521602D01*
X182876855Y-112545903D01*
X182876857Y-112545904D01*
X183024518Y-112624831D01*
X183153949Y-112731051D01*
X183260169Y-112860482D01*
X183339096Y-113008143D01*
X183387701Y-113168373D01*
X183404112Y-113335000D01*
X183387701Y-113501627D01*
X183339096Y-113661857D01*
X183260169Y-113809518D01*
X183153949Y-113938949D01*
X183024518Y-114045169D01*
X182876857Y-114124096D01*
X182876855Y-114124097D01*
X182796742Y-114148398D01*
X182716627Y-114172701D01*
X182591752Y-114185000D01*
X182508248Y-114185000D01*
X182383373Y-114172701D01*
X182303258Y-114148398D01*
X182223145Y-114124097D01*
X182223143Y-114124096D01*
X182075482Y-114045169D01*
X181946051Y-113938949D01*
X181839831Y-113809518D01*
X181760904Y-113661857D01*
X181712299Y-113501627D01*
X181695888Y-113335000D01*
X181712299Y-113168373D01*
X181760904Y-113008143D01*
X181839831Y-112860482D01*
X181946051Y-112731051D01*
X182075482Y-112624831D01*
X182223143Y-112545904D01*
X182223145Y-112545903D01*
X182303258Y-112521602D01*
X182383373Y-112497299D01*
X182508248Y-112485000D01*
X182591752Y-112485000D01*
X182716627Y-112497299D01*
X182716627Y-112497299D01*
G37*
G36*
X180176627Y-112497299D02*
G01*
X180256742Y-112521602D01*
X180336855Y-112545903D01*
X180336857Y-112545904D01*
X180484518Y-112624831D01*
X180613949Y-112731051D01*
X180720169Y-112860482D01*
X180799096Y-113008143D01*
X180847701Y-113168373D01*
X180864112Y-113335000D01*
X180847701Y-113501627D01*
X180799096Y-113661857D01*
X180720169Y-113809518D01*
X180613949Y-113938949D01*
X180484518Y-114045169D01*
X180336857Y-114124096D01*
X180336855Y-114124097D01*
X180256742Y-114148398D01*
X180176627Y-114172701D01*
X180051752Y-114185000D01*
X179968248Y-114185000D01*
X179843373Y-114172701D01*
X179763258Y-114148398D01*
X179683145Y-114124097D01*
X179683143Y-114124096D01*
X179535482Y-114045169D01*
X179406051Y-113938949D01*
X179299831Y-113809518D01*
X179220904Y-113661857D01*
X179172299Y-113501627D01*
X179155888Y-113335000D01*
X179172299Y-113168373D01*
X179220904Y-113008143D01*
X179299831Y-112860482D01*
X179406051Y-112731051D01*
X179535482Y-112624831D01*
X179683143Y-112545904D01*
X179683145Y-112545903D01*
X179763258Y-112521602D01*
X179843373Y-112497299D01*
X179968248Y-112485000D01*
X180051752Y-112485000D01*
X180176627Y-112497299D01*
X180176627Y-112497299D01*
G37*
G36*
X102706627Y-112268299D02*
G01*
X102786742Y-112292601D01*
X102866855Y-112316903D01*
X102866857Y-112316904D01*
X103014518Y-112395831D01*
X103143949Y-112502051D01*
X103250169Y-112631482D01*
X103329096Y-112779143D01*
X103377701Y-112939373D01*
X103394112Y-113106000D01*
X103377701Y-113272627D01*
X103329096Y-113432857D01*
X103250169Y-113580518D01*
X103143949Y-113709949D01*
X103014518Y-113816169D01*
X102866857Y-113895096D01*
X102866855Y-113895097D01*
X102786742Y-113919399D01*
X102706627Y-113943701D01*
X102581752Y-113956000D01*
X102498248Y-113956000D01*
X102373373Y-113943701D01*
X102293258Y-113919399D01*
X102213145Y-113895097D01*
X102213143Y-113895096D01*
X102065482Y-113816169D01*
X101936051Y-113709949D01*
X101829831Y-113580518D01*
X101750904Y-113432857D01*
X101702299Y-113272627D01*
X101685888Y-113106000D01*
X101702299Y-112939373D01*
X101750904Y-112779143D01*
X101829831Y-112631482D01*
X101936051Y-112502051D01*
X102065482Y-112395831D01*
X102213143Y-112316904D01*
X102213145Y-112316903D01*
X102293258Y-112292601D01*
X102373373Y-112268299D01*
X102498248Y-112256000D01*
X102581752Y-112256000D01*
X102706627Y-112268299D01*
X102706627Y-112268299D01*
G37*
G36*
X105246627Y-112268299D02*
G01*
X105326742Y-112292601D01*
X105406855Y-112316903D01*
X105406857Y-112316904D01*
X105554518Y-112395831D01*
X105683949Y-112502051D01*
X105790169Y-112631482D01*
X105869096Y-112779143D01*
X105917701Y-112939373D01*
X105934112Y-113106000D01*
X105917701Y-113272627D01*
X105869096Y-113432857D01*
X105790169Y-113580518D01*
X105683949Y-113709949D01*
X105554518Y-113816169D01*
X105406857Y-113895096D01*
X105406855Y-113895097D01*
X105326742Y-113919399D01*
X105246627Y-113943701D01*
X105121752Y-113956000D01*
X105038248Y-113956000D01*
X104913373Y-113943701D01*
X104833258Y-113919399D01*
X104753145Y-113895097D01*
X104753143Y-113895096D01*
X104605482Y-113816169D01*
X104476051Y-113709949D01*
X104369831Y-113580518D01*
X104290904Y-113432857D01*
X104242299Y-113272627D01*
X104225888Y-113106000D01*
X104242299Y-112939373D01*
X104290904Y-112779143D01*
X104369831Y-112631482D01*
X104476051Y-112502051D01*
X104605482Y-112395831D01*
X104753143Y-112316904D01*
X104753145Y-112316903D01*
X104833258Y-112292601D01*
X104913373Y-112268299D01*
X105038248Y-112256000D01*
X105121752Y-112256000D01*
X105246627Y-112268299D01*
X105246627Y-112268299D01*
G37*
G36*
X182716627Y-109957299D02*
G01*
X182763148Y-109971411D01*
X182876855Y-110005903D01*
X182876857Y-110005904D01*
X183024518Y-110084831D01*
X183153949Y-110191051D01*
X183260169Y-110320482D01*
X183339096Y-110468143D01*
X183387701Y-110628373D01*
X183404112Y-110795000D01*
X183387701Y-110961627D01*
X183339096Y-111121857D01*
X183260169Y-111269518D01*
X183153949Y-111398949D01*
X183024518Y-111505169D01*
X182881121Y-111581817D01*
X182876855Y-111584097D01*
X182802605Y-111606620D01*
X182716627Y-111632701D01*
X182591752Y-111645000D01*
X182508248Y-111645000D01*
X182383373Y-111632701D01*
X182297395Y-111606620D01*
X182223145Y-111584097D01*
X182218879Y-111581817D01*
X182075482Y-111505169D01*
X181946051Y-111398949D01*
X181839831Y-111269518D01*
X181760904Y-111121857D01*
X181712299Y-110961627D01*
X181695888Y-110795000D01*
X181712299Y-110628373D01*
X181760904Y-110468143D01*
X181839831Y-110320482D01*
X181946051Y-110191051D01*
X182075482Y-110084831D01*
X182223143Y-110005904D01*
X182223145Y-110005903D01*
X182336852Y-109971411D01*
X182383373Y-109957299D01*
X182508248Y-109945000D01*
X182591752Y-109945000D01*
X182716627Y-109957299D01*
X182716627Y-109957299D01*
G37*
G36*
X180176627Y-109957299D02*
G01*
X180223148Y-109971411D01*
X180336855Y-110005903D01*
X180336857Y-110005904D01*
X180484518Y-110084831D01*
X180613949Y-110191051D01*
X180720169Y-110320482D01*
X180799096Y-110468143D01*
X180847701Y-110628373D01*
X180864112Y-110795000D01*
X180847701Y-110961627D01*
X180799096Y-111121857D01*
X180720169Y-111269518D01*
X180613949Y-111398949D01*
X180484518Y-111505169D01*
X180341121Y-111581817D01*
X180336855Y-111584097D01*
X180262605Y-111606620D01*
X180176627Y-111632701D01*
X180051752Y-111645000D01*
X179968248Y-111645000D01*
X179843373Y-111632701D01*
X179757395Y-111606620D01*
X179683145Y-111584097D01*
X179678879Y-111581817D01*
X179535482Y-111505169D01*
X179406051Y-111398949D01*
X179299831Y-111269518D01*
X179220904Y-111121857D01*
X179172299Y-110961627D01*
X179155888Y-110795000D01*
X179172299Y-110628373D01*
X179220904Y-110468143D01*
X179299831Y-110320482D01*
X179406051Y-110191051D01*
X179535482Y-110084831D01*
X179683143Y-110005904D01*
X179683145Y-110005903D01*
X179796852Y-109971411D01*
X179843373Y-109957299D01*
X179968248Y-109945000D01*
X180051752Y-109945000D01*
X180176627Y-109957299D01*
X180176627Y-109957299D01*
G37*
G36*
X124045696Y-111231313D02*
G01*
X124052620Y-111233413D01*
X124058999Y-111236823D01*
X124064588Y-111241410D01*
X124069375Y-111247243D01*
X124086702Y-111264570D01*
X124107077Y-111278184D01*
X124129716Y-111287561D01*
X124153749Y-111292341D01*
X124178253Y-111292341D01*
X124202286Y-111287560D01*
X124224925Y-111278183D01*
X124245299Y-111264569D01*
X124262625Y-111247243D01*
X124267412Y-111241410D01*
X124273001Y-111236823D01*
X124279380Y-111233413D01*
X124286304Y-111231313D01*
X124299638Y-111230000D01*
X124672362Y-111230000D01*
X124685696Y-111231313D01*
X124692620Y-111233413D01*
X124698999Y-111236823D01*
X124704589Y-111241411D01*
X124709177Y-111247001D01*
X124712587Y-111253380D01*
X124714687Y-111260304D01*
X124716000Y-111273638D01*
X124716000Y-111586362D01*
X124714687Y-111599696D01*
X124712587Y-111606620D01*
X124709177Y-111612999D01*
X124704589Y-111618589D01*
X124698999Y-111623177D01*
X124692620Y-111626587D01*
X124685696Y-111628687D01*
X124672362Y-111630000D01*
X124299638Y-111630000D01*
X124286304Y-111628687D01*
X124279380Y-111626587D01*
X124273001Y-111623177D01*
X124267412Y-111618590D01*
X124262625Y-111612757D01*
X124245298Y-111595430D01*
X124224923Y-111581816D01*
X124202284Y-111572439D01*
X124178251Y-111567659D01*
X124153747Y-111567659D01*
X124129714Y-111572440D01*
X124107075Y-111581817D01*
X124086701Y-111595431D01*
X124069375Y-111612757D01*
X124064588Y-111618590D01*
X124058999Y-111623177D01*
X124052620Y-111626587D01*
X124045696Y-111628687D01*
X124032362Y-111630000D01*
X123659638Y-111630000D01*
X123646304Y-111628687D01*
X123639380Y-111626587D01*
X123633001Y-111623177D01*
X123627411Y-111618589D01*
X123622823Y-111612999D01*
X123619413Y-111606620D01*
X123617313Y-111599696D01*
X123616000Y-111586362D01*
X123616000Y-111273638D01*
X123617313Y-111260304D01*
X123619413Y-111253380D01*
X123622823Y-111247001D01*
X123627411Y-111241411D01*
X123633001Y-111236823D01*
X123639380Y-111233413D01*
X123646304Y-111231313D01*
X123659638Y-111230000D01*
X124032362Y-111230000D01*
X124045696Y-111231313D01*
X124045696Y-111231313D01*
G37*
G36*
X105246627Y-109728299D02*
G01*
X105326742Y-109752601D01*
X105406855Y-109776903D01*
X105406857Y-109776904D01*
X105554518Y-109855831D01*
X105683949Y-109962051D01*
X105790169Y-110091482D01*
X105869096Y-110239143D01*
X105917701Y-110399373D01*
X105934112Y-110566000D01*
X105917701Y-110732627D01*
X105869096Y-110892857D01*
X105790169Y-111040518D01*
X105683949Y-111169949D01*
X105554518Y-111276169D01*
X105453808Y-111330000D01*
X105406855Y-111355097D01*
X105326742Y-111379399D01*
X105246627Y-111403701D01*
X105121752Y-111416000D01*
X105038248Y-111416000D01*
X104913373Y-111403701D01*
X104833258Y-111379399D01*
X104753145Y-111355097D01*
X104706192Y-111330000D01*
X104605482Y-111276169D01*
X104476051Y-111169949D01*
X104369831Y-111040518D01*
X104290904Y-110892857D01*
X104242299Y-110732627D01*
X104225888Y-110566000D01*
X104242299Y-110399373D01*
X104290904Y-110239143D01*
X104369831Y-110091482D01*
X104476051Y-109962051D01*
X104605482Y-109855831D01*
X104753143Y-109776904D01*
X104753145Y-109776903D01*
X104833258Y-109752601D01*
X104913373Y-109728299D01*
X105038248Y-109716000D01*
X105121752Y-109716000D01*
X105246627Y-109728299D01*
X105246627Y-109728299D01*
G37*
G36*
X102706627Y-109728299D02*
G01*
X102786742Y-109752601D01*
X102866855Y-109776903D01*
X102866857Y-109776904D01*
X103014518Y-109855831D01*
X103143949Y-109962051D01*
X103250169Y-110091482D01*
X103329096Y-110239143D01*
X103377701Y-110399373D01*
X103394112Y-110566000D01*
X103377701Y-110732627D01*
X103329096Y-110892857D01*
X103250169Y-111040518D01*
X103143949Y-111169949D01*
X103014518Y-111276169D01*
X102913808Y-111330000D01*
X102866855Y-111355097D01*
X102786742Y-111379399D01*
X102706627Y-111403701D01*
X102581752Y-111416000D01*
X102498248Y-111416000D01*
X102373373Y-111403701D01*
X102293258Y-111379399D01*
X102213145Y-111355097D01*
X102166192Y-111330000D01*
X102065482Y-111276169D01*
X101936051Y-111169949D01*
X101829831Y-111040518D01*
X101750904Y-110892857D01*
X101702299Y-110732627D01*
X101685888Y-110566000D01*
X101702299Y-110399373D01*
X101750904Y-110239143D01*
X101829831Y-110091482D01*
X101936051Y-109962051D01*
X102065482Y-109855831D01*
X102213143Y-109776904D01*
X102213145Y-109776903D01*
X102293258Y-109752601D01*
X102373373Y-109728299D01*
X102498248Y-109716000D01*
X102581752Y-109716000D01*
X102706627Y-109728299D01*
X102706627Y-109728299D01*
G37*
G36*
X124009696Y-109961313D02*
G01*
X124016620Y-109963413D01*
X124022999Y-109966823D01*
X124028588Y-109971410D01*
X124033375Y-109977243D01*
X124050702Y-109994570D01*
X124071077Y-110008184D01*
X124093716Y-110017561D01*
X124117749Y-110022341D01*
X124142253Y-110022341D01*
X124166286Y-110017560D01*
X124188925Y-110008183D01*
X124209299Y-109994569D01*
X124226625Y-109977243D01*
X124231412Y-109971410D01*
X124237001Y-109966823D01*
X124243380Y-109963413D01*
X124250304Y-109961313D01*
X124263638Y-109960000D01*
X124636362Y-109960000D01*
X124649696Y-109961313D01*
X124656620Y-109963413D01*
X124662999Y-109966823D01*
X124668589Y-109971411D01*
X124673177Y-109977001D01*
X124676587Y-109983380D01*
X124678687Y-109990304D01*
X124680000Y-110003638D01*
X124680000Y-110316362D01*
X124678687Y-110329696D01*
X124676587Y-110336620D01*
X124673177Y-110342999D01*
X124668589Y-110348589D01*
X124662999Y-110353177D01*
X124656620Y-110356587D01*
X124649696Y-110358687D01*
X124636362Y-110360000D01*
X124263638Y-110360000D01*
X124250304Y-110358687D01*
X124243380Y-110356587D01*
X124237001Y-110353177D01*
X124231412Y-110348590D01*
X124226625Y-110342757D01*
X124209298Y-110325430D01*
X124188923Y-110311816D01*
X124166284Y-110302439D01*
X124142251Y-110297659D01*
X124117747Y-110297659D01*
X124093714Y-110302440D01*
X124071075Y-110311817D01*
X124050701Y-110325431D01*
X124033375Y-110342757D01*
X124028588Y-110348590D01*
X124022999Y-110353177D01*
X124016620Y-110356587D01*
X124009696Y-110358687D01*
X123996362Y-110360000D01*
X123623638Y-110360000D01*
X123610304Y-110358687D01*
X123603380Y-110356587D01*
X123597001Y-110353177D01*
X123591411Y-110348589D01*
X123586823Y-110342999D01*
X123583413Y-110336620D01*
X123581313Y-110329696D01*
X123580000Y-110316362D01*
X123580000Y-110003638D01*
X123581313Y-109990304D01*
X123583413Y-109983380D01*
X123586823Y-109977001D01*
X123591411Y-109971411D01*
X123597001Y-109966823D01*
X123603380Y-109963413D01*
X123610304Y-109961313D01*
X123623638Y-109960000D01*
X123996362Y-109960000D01*
X124009696Y-109961313D01*
X124009696Y-109961313D01*
G37*
G36*
X134288696Y-109956313D02*
G01*
X134295620Y-109958413D01*
X134301999Y-109961823D01*
X134307588Y-109966410D01*
X134312375Y-109972243D01*
X134329702Y-109989570D01*
X134350077Y-110003184D01*
X134372716Y-110012561D01*
X134396749Y-110017341D01*
X134421253Y-110017341D01*
X134445286Y-110012560D01*
X134467925Y-110003183D01*
X134488299Y-109989569D01*
X134505625Y-109972243D01*
X134510412Y-109966410D01*
X134516001Y-109961823D01*
X134522380Y-109958413D01*
X134529304Y-109956313D01*
X134542638Y-109955000D01*
X134915362Y-109955000D01*
X134928696Y-109956313D01*
X134935620Y-109958413D01*
X134941999Y-109961823D01*
X134947589Y-109966411D01*
X134952177Y-109972001D01*
X134955587Y-109978380D01*
X134957687Y-109985304D01*
X134959000Y-109998638D01*
X134959000Y-110311362D01*
X134957687Y-110324696D01*
X134955587Y-110331620D01*
X134952177Y-110337999D01*
X134947589Y-110343589D01*
X134941999Y-110348177D01*
X134935620Y-110351587D01*
X134928696Y-110353687D01*
X134915362Y-110355000D01*
X134542638Y-110355000D01*
X134529304Y-110353687D01*
X134522380Y-110351587D01*
X134516001Y-110348177D01*
X134510412Y-110343590D01*
X134505625Y-110337757D01*
X134488298Y-110320430D01*
X134467923Y-110306816D01*
X134445284Y-110297439D01*
X134421251Y-110292659D01*
X134396747Y-110292659D01*
X134372714Y-110297440D01*
X134350075Y-110306817D01*
X134329701Y-110320431D01*
X134312375Y-110337757D01*
X134307588Y-110343590D01*
X134301999Y-110348177D01*
X134295620Y-110351587D01*
X134288696Y-110353687D01*
X134275362Y-110355000D01*
X133902638Y-110355000D01*
X133889304Y-110353687D01*
X133882380Y-110351587D01*
X133876001Y-110348177D01*
X133870411Y-110343589D01*
X133865823Y-110337999D01*
X133862413Y-110331620D01*
X133860313Y-110324696D01*
X133859000Y-110311362D01*
X133859000Y-109998638D01*
X133860313Y-109985304D01*
X133862413Y-109978380D01*
X133865823Y-109972001D01*
X133870411Y-109966411D01*
X133876001Y-109961823D01*
X133882380Y-109958413D01*
X133889304Y-109956313D01*
X133902638Y-109955000D01*
X134275362Y-109955000D01*
X134288696Y-109956313D01*
X134288696Y-109956313D01*
G37*
G36*
X182716627Y-107417299D02*
G01*
X182796742Y-107441601D01*
X182876855Y-107465903D01*
X182876857Y-107465904D01*
X183024518Y-107544831D01*
X183153949Y-107651051D01*
X183260169Y-107780482D01*
X183339096Y-107928143D01*
X183387701Y-108088373D01*
X183404112Y-108255000D01*
X183387701Y-108421627D01*
X183339096Y-108581857D01*
X183260169Y-108729518D01*
X183153949Y-108858949D01*
X183024518Y-108965169D01*
X182876857Y-109044096D01*
X182876855Y-109044097D01*
X182796742Y-109068399D01*
X182716627Y-109092701D01*
X182591752Y-109105000D01*
X182508248Y-109105000D01*
X182383373Y-109092701D01*
X182303258Y-109068399D01*
X182223145Y-109044097D01*
X182223143Y-109044096D01*
X182075482Y-108965169D01*
X181946051Y-108858949D01*
X181839831Y-108729518D01*
X181760904Y-108581857D01*
X181712299Y-108421627D01*
X181695888Y-108255000D01*
X181712299Y-108088373D01*
X181760904Y-107928143D01*
X181839831Y-107780482D01*
X181946051Y-107651051D01*
X182075482Y-107544831D01*
X182223143Y-107465904D01*
X182223145Y-107465903D01*
X182303258Y-107441601D01*
X182383373Y-107417299D01*
X182508248Y-107405000D01*
X182591752Y-107405000D01*
X182716627Y-107417299D01*
X182716627Y-107417299D01*
G37*
G36*
X180860000Y-109105000D02*
G01*
X179160000Y-109105000D01*
X179160000Y-107405000D01*
X180860000Y-107405000D01*
X180860000Y-109105000D01*
X180860000Y-109105000D01*
G37*
G36*
X102706627Y-107188299D02*
G01*
X102786742Y-107212602D01*
X102866855Y-107236903D01*
X102866857Y-107236904D01*
X103014518Y-107315831D01*
X103143949Y-107422051D01*
X103250169Y-107551482D01*
X103329096Y-107699143D01*
X103377701Y-107859373D01*
X103394112Y-108026000D01*
X103377701Y-108192627D01*
X103329096Y-108352857D01*
X103250169Y-108500518D01*
X103143949Y-108629949D01*
X103014518Y-108736169D01*
X102866857Y-108815096D01*
X102866855Y-108815097D01*
X102786742Y-108839398D01*
X102706627Y-108863701D01*
X102581752Y-108876000D01*
X102498248Y-108876000D01*
X102373373Y-108863701D01*
X102293258Y-108839398D01*
X102213145Y-108815097D01*
X102213143Y-108815096D01*
X102065482Y-108736169D01*
X101936051Y-108629949D01*
X101829831Y-108500518D01*
X101750904Y-108352857D01*
X101702299Y-108192627D01*
X101685888Y-108026000D01*
X101702299Y-107859373D01*
X101750904Y-107699143D01*
X101829831Y-107551482D01*
X101936051Y-107422051D01*
X102065482Y-107315831D01*
X102213143Y-107236904D01*
X102213145Y-107236903D01*
X102293258Y-107212602D01*
X102373373Y-107188299D01*
X102498248Y-107176000D01*
X102581752Y-107176000D01*
X102706627Y-107188299D01*
X102706627Y-107188299D01*
G37*
G36*
X105246627Y-107188299D02*
G01*
X105326742Y-107212602D01*
X105406855Y-107236903D01*
X105406857Y-107236904D01*
X105554518Y-107315831D01*
X105683949Y-107422051D01*
X105790169Y-107551482D01*
X105869096Y-107699143D01*
X105917701Y-107859373D01*
X105934112Y-108026000D01*
X105917701Y-108192627D01*
X105869096Y-108352857D01*
X105790169Y-108500518D01*
X105683949Y-108629949D01*
X105554518Y-108736169D01*
X105406857Y-108815096D01*
X105406855Y-108815097D01*
X105326742Y-108839398D01*
X105246627Y-108863701D01*
X105121752Y-108876000D01*
X105038248Y-108876000D01*
X104913373Y-108863701D01*
X104833258Y-108839398D01*
X104753145Y-108815097D01*
X104753143Y-108815096D01*
X104605482Y-108736169D01*
X104476051Y-108629949D01*
X104369831Y-108500518D01*
X104290904Y-108352857D01*
X104242299Y-108192627D01*
X104225888Y-108026000D01*
X104242299Y-107859373D01*
X104290904Y-107699143D01*
X104369831Y-107551482D01*
X104476051Y-107422051D01*
X104605482Y-107315831D01*
X104753143Y-107236904D01*
X104753145Y-107236903D01*
X104833258Y-107212602D01*
X104913373Y-107188299D01*
X105038248Y-107176000D01*
X105121752Y-107176000D01*
X105246627Y-107188299D01*
X105246627Y-107188299D01*
G37*
G36*
X134445000Y-107700000D02*
G01*
X133555000Y-107700000D01*
X133555000Y-105600000D01*
X134445000Y-105600000D01*
X134445000Y-107700000D01*
X134445000Y-107700000D01*
G37*
G36*
X136445000Y-107700000D02*
G01*
X135555000Y-107700000D01*
X135555000Y-105600000D01*
X136445000Y-105600000D01*
X136445000Y-107700000D01*
X136445000Y-107700000D01*
G37*
G36*
X138445000Y-107700000D02*
G01*
X137555000Y-107700000D01*
X137555000Y-105600000D01*
X138445000Y-105600000D01*
X138445000Y-107700000D01*
X138445000Y-107700000D01*
G37*
G36*
X140445000Y-107700000D02*
G01*
X139555000Y-107700000D01*
X139555000Y-105600000D01*
X140445000Y-105600000D01*
X140445000Y-107700000D01*
X140445000Y-107700000D01*
G37*
G36*
X142445000Y-107700000D02*
G01*
X141555000Y-107700000D01*
X141555000Y-105600000D01*
X142445000Y-105600000D01*
X142445000Y-107700000D01*
X142445000Y-107700000D01*
G37*
G36*
X144445000Y-107700000D02*
G01*
X143555000Y-107700000D01*
X143555000Y-105600000D01*
X144445000Y-105600000D01*
X144445000Y-107700000D01*
X144445000Y-107700000D01*
G37*
G36*
X146445000Y-107700000D02*
G01*
X145555000Y-107700000D01*
X145555000Y-105600000D01*
X146445000Y-105600000D01*
X146445000Y-107700000D01*
X146445000Y-107700000D01*
G37*
G36*
X148445000Y-107700000D02*
G01*
X147555000Y-107700000D01*
X147555000Y-105600000D01*
X148445000Y-105600000D01*
X148445000Y-107700000D01*
X148445000Y-107700000D01*
G37*
G36*
X116445000Y-107700000D02*
G01*
X115555000Y-107700000D01*
X115555000Y-105600000D01*
X116445000Y-105600000D01*
X116445000Y-107700000D01*
X116445000Y-107700000D01*
G37*
G36*
X120445000Y-107700000D02*
G01*
X119555000Y-107700000D01*
X119555000Y-105600000D01*
X120445000Y-105600000D01*
X120445000Y-107700000D01*
X120445000Y-107700000D01*
G37*
G36*
X124445000Y-107700000D02*
G01*
X123555000Y-107700000D01*
X123555000Y-105600000D01*
X124445000Y-105600000D01*
X124445000Y-107700000D01*
X124445000Y-107700000D01*
G37*
G36*
X126445000Y-107700000D02*
G01*
X125555000Y-107700000D01*
X125555000Y-105600000D01*
X126445000Y-105600000D01*
X126445000Y-107700000D01*
X126445000Y-107700000D01*
G37*
G36*
X128445000Y-107700000D02*
G01*
X127555000Y-107700000D01*
X127555000Y-105600000D01*
X128445000Y-105600000D01*
X128445000Y-107700000D01*
X128445000Y-107700000D01*
G37*
G36*
X110445000Y-107700000D02*
G01*
X109555000Y-107700000D01*
X109555000Y-105600000D01*
X110445000Y-105600000D01*
X110445000Y-107700000D01*
X110445000Y-107700000D01*
G37*
G36*
X114445000Y-107700000D02*
G01*
X113555000Y-107700000D01*
X113555000Y-105600000D01*
X114445000Y-105600000D01*
X114445000Y-107700000D01*
X114445000Y-107700000D01*
G37*
G36*
X112445000Y-107700000D02*
G01*
X111555000Y-107700000D01*
X111555000Y-105600000D01*
X112445000Y-105600000D01*
X112445000Y-107700000D01*
X112445000Y-107700000D01*
G37*
G36*
X130445000Y-107700000D02*
G01*
X129555000Y-107700000D01*
X129555000Y-105600000D01*
X130445000Y-105600000D01*
X130445000Y-107700000D01*
X130445000Y-107700000D01*
G37*
G36*
X132445000Y-107700000D02*
G01*
X131555000Y-107700000D01*
X131555000Y-105600000D01*
X132445000Y-105600000D01*
X132445000Y-107700000D01*
X132445000Y-107700000D01*
G37*
G36*
X118445000Y-107700000D02*
G01*
X117555000Y-107700000D01*
X117555000Y-105600000D01*
X118445000Y-105600000D01*
X118445000Y-107700000D01*
X118445000Y-107700000D01*
G37*
G36*
X122445000Y-107700000D02*
G01*
X121555000Y-107700000D01*
X121555000Y-105600000D01*
X122445000Y-105600000D01*
X122445000Y-107700000D01*
X122445000Y-107700000D01*
G37*
G36*
X147175013Y-103423057D02*
G01*
X147284206Y-103468286D01*
X147382477Y-103533949D01*
X147466051Y-103617523D01*
X147531714Y-103715794D01*
X147576943Y-103824987D01*
X147600000Y-103940904D01*
X147600000Y-104059096D01*
X147576943Y-104175013D01*
X147531714Y-104284206D01*
X147466051Y-104382477D01*
X147382477Y-104466051D01*
X147284206Y-104531714D01*
X147175013Y-104576943D01*
X147059096Y-104600000D01*
X146940904Y-104600000D01*
X146824987Y-104576943D01*
X146715794Y-104531714D01*
X146617523Y-104466051D01*
X146533949Y-104382477D01*
X146468286Y-104284206D01*
X146423057Y-104175013D01*
X146400000Y-104059096D01*
X146400000Y-103940904D01*
X146423057Y-103824987D01*
X146468286Y-103715794D01*
X146533949Y-103617523D01*
X146617523Y-103533949D01*
X146715794Y-103468286D01*
X146824987Y-103423057D01*
X146940904Y-103400000D01*
X147059096Y-103400000D01*
X147175013Y-103423057D01*
X147175013Y-103423057D01*
G37*
G36*
X111175013Y-103423057D02*
G01*
X111284206Y-103468286D01*
X111382477Y-103533949D01*
X111466051Y-103617523D01*
X111531714Y-103715794D01*
X111576943Y-103824987D01*
X111600000Y-103940904D01*
X111600000Y-104059096D01*
X111576943Y-104175013D01*
X111531714Y-104284206D01*
X111466051Y-104382477D01*
X111382477Y-104466051D01*
X111284206Y-104531714D01*
X111175013Y-104576943D01*
X111059096Y-104600000D01*
X110940904Y-104600000D01*
X110824987Y-104576943D01*
X110715794Y-104531714D01*
X110617523Y-104466051D01*
X110533949Y-104382477D01*
X110468286Y-104284206D01*
X110423057Y-104175013D01*
X110400000Y-104059096D01*
X110400000Y-103940904D01*
X110423057Y-103824987D01*
X110468286Y-103715794D01*
X110533949Y-103617523D01*
X110617523Y-103533949D01*
X110715794Y-103468286D01*
X110824987Y-103423057D01*
X110940904Y-103400000D01*
X111059096Y-103400000D01*
X111175013Y-103423057D01*
X111175013Y-103423057D01*
G37*
G36*
X110445000Y-102400000D02*
G01*
X109555000Y-102400000D01*
X109555000Y-100300000D01*
X110445000Y-100300000D01*
X110445000Y-102400000D01*
X110445000Y-102400000D01*
G37*
G36*
X112445000Y-102400000D02*
G01*
X111555000Y-102400000D01*
X111555000Y-100300000D01*
X112445000Y-100300000D01*
X112445000Y-102400000D01*
X112445000Y-102400000D01*
G37*
G36*
X114445000Y-102400000D02*
G01*
X113555000Y-102400000D01*
X113555000Y-100300000D01*
X114445000Y-100300000D01*
X114445000Y-102400000D01*
X114445000Y-102400000D01*
G37*
G36*
X116445000Y-102400000D02*
G01*
X115555000Y-102400000D01*
X115555000Y-100300000D01*
X116445000Y-100300000D01*
X116445000Y-102400000D01*
X116445000Y-102400000D01*
G37*
G36*
X118445000Y-102400000D02*
G01*
X117555000Y-102400000D01*
X117555000Y-100300000D01*
X118445000Y-100300000D01*
X118445000Y-102400000D01*
X118445000Y-102400000D01*
G37*
G36*
X120445000Y-102400000D02*
G01*
X119555000Y-102400000D01*
X119555000Y-100300000D01*
X120445000Y-100300000D01*
X120445000Y-102400000D01*
X120445000Y-102400000D01*
G37*
G36*
X122445000Y-102400000D02*
G01*
X121555000Y-102400000D01*
X121555000Y-100300000D01*
X122445000Y-100300000D01*
X122445000Y-102400000D01*
X122445000Y-102400000D01*
G37*
G36*
X124445000Y-102400000D02*
G01*
X123555000Y-102400000D01*
X123555000Y-100300000D01*
X124445000Y-100300000D01*
X124445000Y-102400000D01*
X124445000Y-102400000D01*
G37*
G36*
X148445000Y-102400000D02*
G01*
X147555000Y-102400000D01*
X147555000Y-100300000D01*
X148445000Y-100300000D01*
X148445000Y-102400000D01*
X148445000Y-102400000D01*
G37*
G36*
X126445000Y-102400000D02*
G01*
X125555000Y-102400000D01*
X125555000Y-100300000D01*
X126445000Y-100300000D01*
X126445000Y-102400000D01*
X126445000Y-102400000D01*
G37*
G36*
X144445000Y-102400000D02*
G01*
X143555000Y-102400000D01*
X143555000Y-100300000D01*
X144445000Y-100300000D01*
X144445000Y-102400000D01*
X144445000Y-102400000D01*
G37*
G36*
X142445000Y-102400000D02*
G01*
X141555000Y-102400000D01*
X141555000Y-100300000D01*
X142445000Y-100300000D01*
X142445000Y-102400000D01*
X142445000Y-102400000D01*
G37*
G36*
X140445000Y-102400000D02*
G01*
X139555000Y-102400000D01*
X139555000Y-100300000D01*
X140445000Y-100300000D01*
X140445000Y-102400000D01*
X140445000Y-102400000D01*
G37*
G36*
X136445000Y-102400000D02*
G01*
X135555000Y-102400000D01*
X135555000Y-100300000D01*
X136445000Y-100300000D01*
X136445000Y-102400000D01*
X136445000Y-102400000D01*
G37*
G36*
X134445000Y-102400000D02*
G01*
X133555000Y-102400000D01*
X133555000Y-100300000D01*
X134445000Y-100300000D01*
X134445000Y-102400000D01*
X134445000Y-102400000D01*
G37*
G36*
X132445000Y-102400000D02*
G01*
X131555000Y-102400000D01*
X131555000Y-100300000D01*
X132445000Y-100300000D01*
X132445000Y-102400000D01*
X132445000Y-102400000D01*
G37*
G36*
X130445000Y-102400000D02*
G01*
X129555000Y-102400000D01*
X129555000Y-100300000D01*
X130445000Y-100300000D01*
X130445000Y-102400000D01*
X130445000Y-102400000D01*
G37*
G36*
X128445000Y-102400000D02*
G01*
X127555000Y-102400000D01*
X127555000Y-100300000D01*
X128445000Y-100300000D01*
X128445000Y-102400000D01*
X128445000Y-102400000D01*
G37*
G36*
X146445000Y-102400000D02*
G01*
X145555000Y-102400000D01*
X145555000Y-100300000D01*
X146445000Y-100300000D01*
X146445000Y-102400000D01*
X146445000Y-102400000D01*
G37*
G36*
X138445000Y-102400000D02*
G01*
X137555000Y-102400000D01*
X137555000Y-100300000D01*
X138445000Y-100300000D01*
X138445000Y-102400000D01*
X138445000Y-102400000D01*
G37*
M02*
