G04 #@! TF.GenerationSoftware,KiCad,Pcbnew,5.0.2-5.fc29*
G04 #@! TF.CreationDate,2019-03-04T17:53:56+05:30*
G04 #@! TF.ProjectId,sx1509,73783135-3039-42e6-9b69-6361645f7063,v0.1*
G04 #@! TF.SameCoordinates,Original*
G04 #@! TF.FileFunction,Paste,Bot*
G04 #@! TF.FilePolarity,Positive*
%FSLAX46Y46*%
G04 Gerber Fmt 4.6, Leading zero omitted, Abs format (unit mm)*
G04 Created by KiCad (PCBNEW 5.0.2-5.fc29) date Mon 04 Mar 2019 05:53:56 PM IST*
%MOMM*%
%LPD*%
G01*
G04 APERTURE LIST*
%ADD10R,0.500000X2.000000*%
%ADD11R,0.890000X3.000000*%
G04 APERTURE END LIST*
D10*
G04 #@! TO.C,P3*
X131550000Y-140750000D03*
X131550000Y-136350000D03*
X132350000Y-136350000D03*
X132350000Y-140750000D03*
X130750000Y-140750000D03*
X130750000Y-136350000D03*
X129950000Y-136350000D03*
X129950000Y-140750000D03*
X129150000Y-136350000D03*
X129150000Y-140750000D03*
X128350000Y-140750000D03*
X128350000Y-136350000D03*
X127550000Y-140750000D03*
X127550000Y-136350000D03*
X126750000Y-136350000D03*
X126750000Y-140750000D03*
X125950000Y-136350000D03*
X125950000Y-140750000D03*
X125150000Y-136350000D03*
X125150000Y-140750000D03*
X124350000Y-136350000D03*
X124350000Y-140750000D03*
X123550000Y-140750000D03*
X123550000Y-136350000D03*
X122750000Y-140750000D03*
X122750000Y-136350000D03*
X121950000Y-140750000D03*
X121950000Y-136350000D03*
X121150000Y-136350000D03*
X121150000Y-140750000D03*
X139550000Y-140750000D03*
X144350000Y-140750000D03*
X134750000Y-136350000D03*
X140350000Y-136350000D03*
X142750000Y-136350000D03*
X144350000Y-136350000D03*
X141150000Y-136350000D03*
X140350000Y-140750000D03*
X138750000Y-140750000D03*
X138750000Y-136350000D03*
X142750000Y-140750000D03*
X143550000Y-136350000D03*
X133150000Y-140750000D03*
X135550000Y-136350000D03*
X134750000Y-140750000D03*
X141950000Y-140750000D03*
X135550000Y-140750000D03*
X137150000Y-140750000D03*
X141150000Y-140750000D03*
X133950000Y-140750000D03*
X139550000Y-136350000D03*
X136350000Y-136350000D03*
X137150000Y-136350000D03*
X133150000Y-136350000D03*
X136350000Y-140750000D03*
X137950000Y-140750000D03*
X137950000Y-136350000D03*
X133950000Y-136350000D03*
X141950000Y-136350000D03*
X143550000Y-140750000D03*
G04 #@! TD*
D11*
G04 #@! TO.C,P1*
X148000000Y-106250000D03*
X146000000Y-106250000D03*
X144000000Y-106250000D03*
X142000000Y-106250000D03*
X140000000Y-106250000D03*
X138000000Y-106250000D03*
X136000000Y-106250000D03*
X134000000Y-106250000D03*
X132000000Y-106250000D03*
X130000000Y-106250000D03*
X128000000Y-106250000D03*
X126000000Y-106250000D03*
X124000000Y-106250000D03*
X122000000Y-106250000D03*
X120000000Y-106250000D03*
X118000000Y-106250000D03*
X116000000Y-106250000D03*
X114000000Y-106250000D03*
X112000000Y-106250000D03*
X148000000Y-101750000D03*
X146000000Y-101750000D03*
X144000000Y-101750000D03*
X142000000Y-101750000D03*
X140000000Y-101750000D03*
X138000000Y-101750000D03*
X136000000Y-101750000D03*
X134000000Y-101750000D03*
X132000000Y-101750000D03*
X130000000Y-101750000D03*
X128000000Y-101750000D03*
X126000000Y-101750000D03*
X124000000Y-101750000D03*
X122000000Y-101750000D03*
X120000000Y-101750000D03*
X118000000Y-101750000D03*
X116000000Y-101750000D03*
X114000000Y-101750000D03*
X112000000Y-101750000D03*
X110000000Y-101750000D03*
X110000000Y-106250000D03*
G04 #@! TD*
M02*
