G04 #@! TF.GenerationSoftware,KiCad,Pcbnew,5.1.2-1.fc30*
G04 #@! TF.CreationDate,2019-05-22T10:25:12+05:30*
G04 #@! TF.ProjectId,sx1509,73783135-3039-42e6-9b69-6361645f7063,v0.1*
G04 #@! TF.SameCoordinates,Original*
G04 #@! TF.FileFunction,Soldermask,Bot*
G04 #@! TF.FilePolarity,Negative*
%FSLAX46Y46*%
G04 Gerber Fmt 4.6, Leading zero omitted, Abs format (unit mm)*
G04 Created by KiCad (PCBNEW 5.1.2-1.fc30) date 2019-05-22 10:25:12*
%MOMM*%
%LPD*%
G04 APERTURE LIST*
%ADD10C,0.100000*%
G04 APERTURE END LIST*
D10*
G36*
X182716627Y-130912299D02*
G01*
X182796742Y-130936602D01*
X182876855Y-130960903D01*
X182876857Y-130960904D01*
X183024518Y-131039831D01*
X183153949Y-131146051D01*
X183260169Y-131275482D01*
X183339096Y-131423143D01*
X183387701Y-131583373D01*
X183404112Y-131750000D01*
X183387701Y-131916627D01*
X183339096Y-132076857D01*
X183260169Y-132224518D01*
X183153949Y-132353949D01*
X183024518Y-132460169D01*
X182876857Y-132539096D01*
X182876855Y-132539097D01*
X182796742Y-132563398D01*
X182716627Y-132587701D01*
X182591752Y-132600000D01*
X182508248Y-132600000D01*
X182383373Y-132587701D01*
X182303258Y-132563398D01*
X182223145Y-132539097D01*
X182223143Y-132539096D01*
X182075482Y-132460169D01*
X181946051Y-132353949D01*
X181839831Y-132224518D01*
X181760904Y-132076857D01*
X181712299Y-131916627D01*
X181695888Y-131750000D01*
X181712299Y-131583373D01*
X181760904Y-131423143D01*
X181839831Y-131275482D01*
X181946051Y-131146051D01*
X182075482Y-131039831D01*
X182223143Y-130960904D01*
X182223145Y-130960903D01*
X182303258Y-130936602D01*
X182383373Y-130912299D01*
X182508248Y-130900000D01*
X182591752Y-130900000D01*
X182716627Y-130912299D01*
X182716627Y-130912299D01*
G37*
G36*
X103390000Y-132600000D02*
G01*
X101690000Y-132600000D01*
X101690000Y-130900000D01*
X103390000Y-130900000D01*
X103390000Y-132600000D01*
X103390000Y-132600000D01*
G37*
G36*
X102706627Y-128372299D02*
G01*
X102786742Y-128396601D01*
X102866855Y-128420903D01*
X102866857Y-128420904D01*
X103014518Y-128499831D01*
X103143949Y-128606051D01*
X103250169Y-128735482D01*
X103329096Y-128883143D01*
X103377701Y-129043373D01*
X103394112Y-129210000D01*
X103377701Y-129376627D01*
X103329096Y-129536857D01*
X103250169Y-129684518D01*
X103143949Y-129813949D01*
X103014518Y-129920169D01*
X102866857Y-129999096D01*
X102866855Y-129999097D01*
X102786742Y-130023399D01*
X102706627Y-130047701D01*
X102581752Y-130060000D01*
X102498248Y-130060000D01*
X102373373Y-130047701D01*
X102293258Y-130023399D01*
X102213145Y-129999097D01*
X102213143Y-129999096D01*
X102065482Y-129920169D01*
X101936051Y-129813949D01*
X101829831Y-129684518D01*
X101750904Y-129536857D01*
X101702299Y-129376627D01*
X101685888Y-129210000D01*
X101702299Y-129043373D01*
X101750904Y-128883143D01*
X101829831Y-128735482D01*
X101936051Y-128606051D01*
X102065482Y-128499831D01*
X102213143Y-128420904D01*
X102213145Y-128420903D01*
X102293258Y-128396601D01*
X102373373Y-128372299D01*
X102498248Y-128360000D01*
X102581752Y-128360000D01*
X102706627Y-128372299D01*
X102706627Y-128372299D01*
G37*
G36*
X183400000Y-130060000D02*
G01*
X181700000Y-130060000D01*
X181700000Y-128360000D01*
X183400000Y-128360000D01*
X183400000Y-130060000D01*
X183400000Y-130060000D01*
G37*
G36*
X182716627Y-125197299D02*
G01*
X182796742Y-125221601D01*
X182876855Y-125245903D01*
X182876857Y-125245904D01*
X183024518Y-125324831D01*
X183153949Y-125431051D01*
X183260169Y-125560482D01*
X183339096Y-125708143D01*
X183387701Y-125868373D01*
X183404112Y-126035000D01*
X183387701Y-126201627D01*
X183339096Y-126361857D01*
X183260169Y-126509518D01*
X183153949Y-126638949D01*
X183024518Y-126745169D01*
X182876857Y-126824096D01*
X182876855Y-126824097D01*
X182796742Y-126848399D01*
X182716627Y-126872701D01*
X182591752Y-126885000D01*
X182508248Y-126885000D01*
X182383373Y-126872701D01*
X182303258Y-126848399D01*
X182223145Y-126824097D01*
X182223143Y-126824096D01*
X182075482Y-126745169D01*
X181946051Y-126638949D01*
X181839831Y-126509518D01*
X181760904Y-126361857D01*
X181712299Y-126201627D01*
X181695888Y-126035000D01*
X181712299Y-125868373D01*
X181760904Y-125708143D01*
X181839831Y-125560482D01*
X181946051Y-125431051D01*
X182075482Y-125324831D01*
X182223143Y-125245904D01*
X182223145Y-125245903D01*
X182303258Y-125221601D01*
X182383373Y-125197299D01*
X182508248Y-125185000D01*
X182591752Y-125185000D01*
X182716627Y-125197299D01*
X182716627Y-125197299D01*
G37*
G36*
X180176627Y-125197299D02*
G01*
X180256742Y-125221601D01*
X180336855Y-125245903D01*
X180336857Y-125245904D01*
X180484518Y-125324831D01*
X180613949Y-125431051D01*
X180720169Y-125560482D01*
X180799096Y-125708143D01*
X180847701Y-125868373D01*
X180864112Y-126035000D01*
X180847701Y-126201627D01*
X180799096Y-126361857D01*
X180720169Y-126509518D01*
X180613949Y-126638949D01*
X180484518Y-126745169D01*
X180336857Y-126824096D01*
X180336855Y-126824097D01*
X180256742Y-126848399D01*
X180176627Y-126872701D01*
X180051752Y-126885000D01*
X179968248Y-126885000D01*
X179843373Y-126872701D01*
X179763258Y-126848399D01*
X179683145Y-126824097D01*
X179683143Y-126824096D01*
X179535482Y-126745169D01*
X179406051Y-126638949D01*
X179299831Y-126509518D01*
X179220904Y-126361857D01*
X179172299Y-126201627D01*
X179155888Y-126035000D01*
X179172299Y-125868373D01*
X179220904Y-125708143D01*
X179299831Y-125560482D01*
X179406051Y-125431051D01*
X179535482Y-125324831D01*
X179683143Y-125245904D01*
X179683145Y-125245903D01*
X179763258Y-125221601D01*
X179843373Y-125197299D01*
X179968248Y-125185000D01*
X180051752Y-125185000D01*
X180176627Y-125197299D01*
X180176627Y-125197299D01*
G37*
G36*
X105930000Y-126656000D02*
G01*
X104230000Y-126656000D01*
X104230000Y-124956000D01*
X105930000Y-124956000D01*
X105930000Y-126656000D01*
X105930000Y-126656000D01*
G37*
G36*
X102706627Y-124968299D02*
G01*
X102786742Y-124992601D01*
X102866855Y-125016903D01*
X102866857Y-125016904D01*
X103014518Y-125095831D01*
X103143949Y-125202051D01*
X103250169Y-125331482D01*
X103329096Y-125479143D01*
X103377701Y-125639373D01*
X103394112Y-125806000D01*
X103377701Y-125972627D01*
X103329096Y-126132857D01*
X103250169Y-126280518D01*
X103143949Y-126409949D01*
X103014518Y-126516169D01*
X102866857Y-126595096D01*
X102866855Y-126595097D01*
X102786742Y-126619399D01*
X102706627Y-126643701D01*
X102581752Y-126656000D01*
X102498248Y-126656000D01*
X102373373Y-126643701D01*
X102293258Y-126619399D01*
X102213145Y-126595097D01*
X102213143Y-126595096D01*
X102065482Y-126516169D01*
X101936051Y-126409949D01*
X101829831Y-126280518D01*
X101750904Y-126132857D01*
X101702299Y-125972627D01*
X101685888Y-125806000D01*
X101702299Y-125639373D01*
X101750904Y-125479143D01*
X101829831Y-125331482D01*
X101936051Y-125202051D01*
X102065482Y-125095831D01*
X102213143Y-125016904D01*
X102213145Y-125016903D01*
X102293258Y-124992601D01*
X102373373Y-124968299D01*
X102498248Y-124956000D01*
X102581752Y-124956000D01*
X102706627Y-124968299D01*
X102706627Y-124968299D01*
G37*
G36*
X182716627Y-122657299D02*
G01*
X182796742Y-122681602D01*
X182876855Y-122705903D01*
X182876857Y-122705904D01*
X183024518Y-122784831D01*
X183153949Y-122891051D01*
X183260169Y-123020482D01*
X183339096Y-123168143D01*
X183387701Y-123328373D01*
X183404112Y-123495000D01*
X183387701Y-123661627D01*
X183339096Y-123821857D01*
X183260169Y-123969518D01*
X183153949Y-124098949D01*
X183024518Y-124205169D01*
X182876857Y-124284096D01*
X182876855Y-124284097D01*
X182796742Y-124308399D01*
X182716627Y-124332701D01*
X182591752Y-124345000D01*
X182508248Y-124345000D01*
X182383373Y-124332701D01*
X182303258Y-124308398D01*
X182223145Y-124284097D01*
X182223143Y-124284096D01*
X182075482Y-124205169D01*
X181946051Y-124098949D01*
X181839831Y-123969518D01*
X181760904Y-123821857D01*
X181712299Y-123661627D01*
X181695888Y-123495000D01*
X181712299Y-123328373D01*
X181760904Y-123168143D01*
X181839831Y-123020482D01*
X181946051Y-122891051D01*
X182075482Y-122784831D01*
X182223143Y-122705904D01*
X182223145Y-122705903D01*
X182303258Y-122681601D01*
X182383373Y-122657299D01*
X182508248Y-122645000D01*
X182591752Y-122645000D01*
X182716627Y-122657299D01*
X182716627Y-122657299D01*
G37*
G36*
X180176627Y-122657299D02*
G01*
X180256742Y-122681602D01*
X180336855Y-122705903D01*
X180336857Y-122705904D01*
X180484518Y-122784831D01*
X180613949Y-122891051D01*
X180720169Y-123020482D01*
X180799096Y-123168143D01*
X180847701Y-123328373D01*
X180864112Y-123495000D01*
X180847701Y-123661627D01*
X180799096Y-123821857D01*
X180720169Y-123969518D01*
X180613949Y-124098949D01*
X180484518Y-124205169D01*
X180336857Y-124284096D01*
X180336855Y-124284097D01*
X180256742Y-124308399D01*
X180176627Y-124332701D01*
X180051752Y-124345000D01*
X179968248Y-124345000D01*
X179843373Y-124332701D01*
X179763258Y-124308398D01*
X179683145Y-124284097D01*
X179683143Y-124284096D01*
X179535482Y-124205169D01*
X179406051Y-124098949D01*
X179299831Y-123969518D01*
X179220904Y-123821857D01*
X179172299Y-123661627D01*
X179155888Y-123495000D01*
X179172299Y-123328373D01*
X179220904Y-123168143D01*
X179299831Y-123020482D01*
X179406051Y-122891051D01*
X179535482Y-122784831D01*
X179683143Y-122705904D01*
X179683145Y-122705903D01*
X179763258Y-122681601D01*
X179843373Y-122657299D01*
X179968248Y-122645000D01*
X180051752Y-122645000D01*
X180176627Y-122657299D01*
X180176627Y-122657299D01*
G37*
G36*
X102706627Y-122428299D02*
G01*
X102786742Y-122452601D01*
X102866855Y-122476903D01*
X102866857Y-122476904D01*
X103014518Y-122555831D01*
X103143949Y-122662051D01*
X103250169Y-122791482D01*
X103329096Y-122939143D01*
X103377701Y-123099373D01*
X103394112Y-123266000D01*
X103377701Y-123432627D01*
X103329096Y-123592857D01*
X103250169Y-123740518D01*
X103143949Y-123869949D01*
X103014518Y-123976169D01*
X102866857Y-124055096D01*
X102866855Y-124055097D01*
X102786742Y-124079399D01*
X102706627Y-124103701D01*
X102581752Y-124116000D01*
X102498248Y-124116000D01*
X102373373Y-124103701D01*
X102293258Y-124079399D01*
X102213145Y-124055097D01*
X102213143Y-124055096D01*
X102065482Y-123976169D01*
X101936051Y-123869949D01*
X101829831Y-123740518D01*
X101750904Y-123592857D01*
X101702299Y-123432627D01*
X101685888Y-123266000D01*
X101702299Y-123099373D01*
X101750904Y-122939143D01*
X101829831Y-122791482D01*
X101936051Y-122662051D01*
X102065482Y-122555831D01*
X102213143Y-122476904D01*
X102213145Y-122476903D01*
X102293258Y-122452601D01*
X102373373Y-122428299D01*
X102498248Y-122416000D01*
X102581752Y-122416000D01*
X102706627Y-122428299D01*
X102706627Y-122428299D01*
G37*
G36*
X105246627Y-122428299D02*
G01*
X105326742Y-122452601D01*
X105406855Y-122476903D01*
X105406857Y-122476904D01*
X105554518Y-122555831D01*
X105683949Y-122662051D01*
X105790169Y-122791482D01*
X105869096Y-122939143D01*
X105917701Y-123099373D01*
X105934112Y-123266000D01*
X105917701Y-123432627D01*
X105869096Y-123592857D01*
X105790169Y-123740518D01*
X105683949Y-123869949D01*
X105554518Y-123976169D01*
X105406857Y-124055096D01*
X105406855Y-124055097D01*
X105326742Y-124079399D01*
X105246627Y-124103701D01*
X105121752Y-124116000D01*
X105038248Y-124116000D01*
X104913373Y-124103701D01*
X104833258Y-124079399D01*
X104753145Y-124055097D01*
X104753143Y-124055096D01*
X104605482Y-123976169D01*
X104476051Y-123869949D01*
X104369831Y-123740518D01*
X104290904Y-123592857D01*
X104242299Y-123432627D01*
X104225888Y-123266000D01*
X104242299Y-123099373D01*
X104290904Y-122939143D01*
X104369831Y-122791482D01*
X104476051Y-122662051D01*
X104605482Y-122555831D01*
X104753143Y-122476904D01*
X104753145Y-122476903D01*
X104833258Y-122452601D01*
X104913373Y-122428299D01*
X105038248Y-122416000D01*
X105121752Y-122416000D01*
X105246627Y-122428299D01*
X105246627Y-122428299D01*
G37*
G36*
X182716627Y-120117299D02*
G01*
X182796742Y-120141601D01*
X182876855Y-120165903D01*
X182876857Y-120165904D01*
X183024518Y-120244831D01*
X183153949Y-120351051D01*
X183260169Y-120480482D01*
X183339096Y-120628143D01*
X183387701Y-120788373D01*
X183404112Y-120955000D01*
X183387701Y-121121627D01*
X183339096Y-121281857D01*
X183260169Y-121429518D01*
X183153949Y-121558949D01*
X183024518Y-121665169D01*
X182876857Y-121744096D01*
X182876855Y-121744097D01*
X182796742Y-121768398D01*
X182716627Y-121792701D01*
X182591752Y-121805000D01*
X182508248Y-121805000D01*
X182383373Y-121792701D01*
X182303258Y-121768398D01*
X182223145Y-121744097D01*
X182223143Y-121744096D01*
X182075482Y-121665169D01*
X181946051Y-121558949D01*
X181839831Y-121429518D01*
X181760904Y-121281857D01*
X181712299Y-121121627D01*
X181695888Y-120955000D01*
X181712299Y-120788373D01*
X181760904Y-120628143D01*
X181839831Y-120480482D01*
X181946051Y-120351051D01*
X182075482Y-120244831D01*
X182223143Y-120165904D01*
X182223145Y-120165903D01*
X182303258Y-120141602D01*
X182383373Y-120117299D01*
X182508248Y-120105000D01*
X182591752Y-120105000D01*
X182716627Y-120117299D01*
X182716627Y-120117299D01*
G37*
G36*
X180176627Y-120117299D02*
G01*
X180256742Y-120141601D01*
X180336855Y-120165903D01*
X180336857Y-120165904D01*
X180484518Y-120244831D01*
X180613949Y-120351051D01*
X180720169Y-120480482D01*
X180799096Y-120628143D01*
X180847701Y-120788373D01*
X180864112Y-120955000D01*
X180847701Y-121121627D01*
X180799096Y-121281857D01*
X180720169Y-121429518D01*
X180613949Y-121558949D01*
X180484518Y-121665169D01*
X180336857Y-121744096D01*
X180336855Y-121744097D01*
X180256742Y-121768398D01*
X180176627Y-121792701D01*
X180051752Y-121805000D01*
X179968248Y-121805000D01*
X179843373Y-121792701D01*
X179763258Y-121768398D01*
X179683145Y-121744097D01*
X179683143Y-121744096D01*
X179535482Y-121665169D01*
X179406051Y-121558949D01*
X179299831Y-121429518D01*
X179220904Y-121281857D01*
X179172299Y-121121627D01*
X179155888Y-120955000D01*
X179172299Y-120788373D01*
X179220904Y-120628143D01*
X179299831Y-120480482D01*
X179406051Y-120351051D01*
X179535482Y-120244831D01*
X179683143Y-120165904D01*
X179683145Y-120165903D01*
X179763258Y-120141602D01*
X179843373Y-120117299D01*
X179968248Y-120105000D01*
X180051752Y-120105000D01*
X180176627Y-120117299D01*
X180176627Y-120117299D01*
G37*
G36*
X105246627Y-119888299D02*
G01*
X105326742Y-119912601D01*
X105406855Y-119936903D01*
X105406857Y-119936904D01*
X105554518Y-120015831D01*
X105683949Y-120122051D01*
X105790169Y-120251482D01*
X105869096Y-120399143D01*
X105917701Y-120559373D01*
X105934112Y-120726000D01*
X105917701Y-120892627D01*
X105869096Y-121052857D01*
X105790169Y-121200518D01*
X105683949Y-121329949D01*
X105554518Y-121436169D01*
X105406857Y-121515096D01*
X105406855Y-121515097D01*
X105326742Y-121539399D01*
X105246627Y-121563701D01*
X105121752Y-121576000D01*
X105038248Y-121576000D01*
X104913373Y-121563701D01*
X104833258Y-121539399D01*
X104753145Y-121515097D01*
X104753143Y-121515096D01*
X104605482Y-121436169D01*
X104476051Y-121329949D01*
X104369831Y-121200518D01*
X104290904Y-121052857D01*
X104242299Y-120892627D01*
X104225888Y-120726000D01*
X104242299Y-120559373D01*
X104290904Y-120399143D01*
X104369831Y-120251482D01*
X104476051Y-120122051D01*
X104605482Y-120015831D01*
X104753143Y-119936904D01*
X104753145Y-119936903D01*
X104833258Y-119912601D01*
X104913373Y-119888299D01*
X105038248Y-119876000D01*
X105121752Y-119876000D01*
X105246627Y-119888299D01*
X105246627Y-119888299D01*
G37*
G36*
X102706627Y-119888299D02*
G01*
X102786742Y-119912601D01*
X102866855Y-119936903D01*
X102866857Y-119936904D01*
X103014518Y-120015831D01*
X103143949Y-120122051D01*
X103250169Y-120251482D01*
X103329096Y-120399143D01*
X103377701Y-120559373D01*
X103394112Y-120726000D01*
X103377701Y-120892627D01*
X103329096Y-121052857D01*
X103250169Y-121200518D01*
X103143949Y-121329949D01*
X103014518Y-121436169D01*
X102866857Y-121515096D01*
X102866855Y-121515097D01*
X102786742Y-121539399D01*
X102706627Y-121563701D01*
X102581752Y-121576000D01*
X102498248Y-121576000D01*
X102373373Y-121563701D01*
X102293258Y-121539399D01*
X102213145Y-121515097D01*
X102213143Y-121515096D01*
X102065482Y-121436169D01*
X101936051Y-121329949D01*
X101829831Y-121200518D01*
X101750904Y-121052857D01*
X101702299Y-120892627D01*
X101685888Y-120726000D01*
X101702299Y-120559373D01*
X101750904Y-120399143D01*
X101829831Y-120251482D01*
X101936051Y-120122051D01*
X102065482Y-120015831D01*
X102213143Y-119936904D01*
X102213145Y-119936903D01*
X102293258Y-119912601D01*
X102373373Y-119888299D01*
X102498248Y-119876000D01*
X102581752Y-119876000D01*
X102706627Y-119888299D01*
X102706627Y-119888299D01*
G37*
G36*
X180176627Y-117577299D02*
G01*
X180256742Y-117601602D01*
X180336855Y-117625903D01*
X180336857Y-117625904D01*
X180484518Y-117704831D01*
X180613949Y-117811051D01*
X180720169Y-117940482D01*
X180799096Y-118088143D01*
X180847701Y-118248373D01*
X180864112Y-118415000D01*
X180847701Y-118581627D01*
X180799096Y-118741857D01*
X180720169Y-118889518D01*
X180613949Y-119018949D01*
X180484518Y-119125169D01*
X180336857Y-119204096D01*
X180336855Y-119204097D01*
X180256742Y-119228398D01*
X180176627Y-119252701D01*
X180051752Y-119265000D01*
X179968248Y-119265000D01*
X179843373Y-119252701D01*
X179763258Y-119228399D01*
X179683145Y-119204097D01*
X179683143Y-119204096D01*
X179535482Y-119125169D01*
X179406051Y-119018949D01*
X179299831Y-118889518D01*
X179220904Y-118741857D01*
X179172299Y-118581627D01*
X179155888Y-118415000D01*
X179172299Y-118248373D01*
X179220904Y-118088143D01*
X179299831Y-117940482D01*
X179406051Y-117811051D01*
X179535482Y-117704831D01*
X179683143Y-117625904D01*
X179683145Y-117625903D01*
X179763258Y-117601602D01*
X179843373Y-117577299D01*
X179968248Y-117565000D01*
X180051752Y-117565000D01*
X180176627Y-117577299D01*
X180176627Y-117577299D01*
G37*
G36*
X182716627Y-117577299D02*
G01*
X182796742Y-117601602D01*
X182876855Y-117625903D01*
X182876857Y-117625904D01*
X183024518Y-117704831D01*
X183153949Y-117811051D01*
X183260169Y-117940482D01*
X183339096Y-118088143D01*
X183387701Y-118248373D01*
X183404112Y-118415000D01*
X183387701Y-118581627D01*
X183339096Y-118741857D01*
X183260169Y-118889518D01*
X183153949Y-119018949D01*
X183024518Y-119125169D01*
X182876857Y-119204096D01*
X182876855Y-119204097D01*
X182796742Y-119228398D01*
X182716627Y-119252701D01*
X182591752Y-119265000D01*
X182508248Y-119265000D01*
X182383373Y-119252701D01*
X182303258Y-119228399D01*
X182223145Y-119204097D01*
X182223143Y-119204096D01*
X182075482Y-119125169D01*
X181946051Y-119018949D01*
X181839831Y-118889518D01*
X181760904Y-118741857D01*
X181712299Y-118581627D01*
X181695888Y-118415000D01*
X181712299Y-118248373D01*
X181760904Y-118088143D01*
X181839831Y-117940482D01*
X181946051Y-117811051D01*
X182075482Y-117704831D01*
X182223143Y-117625904D01*
X182223145Y-117625903D01*
X182303258Y-117601602D01*
X182383373Y-117577299D01*
X182508248Y-117565000D01*
X182591752Y-117565000D01*
X182716627Y-117577299D01*
X182716627Y-117577299D01*
G37*
G36*
X105246627Y-117348299D02*
G01*
X105326742Y-117372602D01*
X105406855Y-117396903D01*
X105406857Y-117396904D01*
X105554518Y-117475831D01*
X105683949Y-117582051D01*
X105790169Y-117711482D01*
X105869096Y-117859143D01*
X105917701Y-118019373D01*
X105934112Y-118186000D01*
X105917701Y-118352627D01*
X105869096Y-118512857D01*
X105790169Y-118660518D01*
X105683949Y-118789949D01*
X105554518Y-118896169D01*
X105406857Y-118975096D01*
X105406855Y-118975097D01*
X105326742Y-118999398D01*
X105246627Y-119023701D01*
X105121752Y-119036000D01*
X105038248Y-119036000D01*
X104913373Y-119023701D01*
X104833258Y-118999398D01*
X104753145Y-118975097D01*
X104753143Y-118975096D01*
X104605482Y-118896169D01*
X104476051Y-118789949D01*
X104369831Y-118660518D01*
X104290904Y-118512857D01*
X104242299Y-118352627D01*
X104225888Y-118186000D01*
X104242299Y-118019373D01*
X104290904Y-117859143D01*
X104369831Y-117711482D01*
X104476051Y-117582051D01*
X104605482Y-117475831D01*
X104753143Y-117396904D01*
X104753145Y-117396903D01*
X104833258Y-117372602D01*
X104913373Y-117348299D01*
X105038248Y-117336000D01*
X105121752Y-117336000D01*
X105246627Y-117348299D01*
X105246627Y-117348299D01*
G37*
G36*
X102706627Y-117348299D02*
G01*
X102786742Y-117372602D01*
X102866855Y-117396903D01*
X102866857Y-117396904D01*
X103014518Y-117475831D01*
X103143949Y-117582051D01*
X103250169Y-117711482D01*
X103329096Y-117859143D01*
X103377701Y-118019373D01*
X103394112Y-118186000D01*
X103377701Y-118352627D01*
X103329096Y-118512857D01*
X103250169Y-118660518D01*
X103143949Y-118789949D01*
X103014518Y-118896169D01*
X102866857Y-118975096D01*
X102866855Y-118975097D01*
X102786742Y-118999398D01*
X102706627Y-119023701D01*
X102581752Y-119036000D01*
X102498248Y-119036000D01*
X102373373Y-119023701D01*
X102293258Y-118999398D01*
X102213145Y-118975097D01*
X102213143Y-118975096D01*
X102065482Y-118896169D01*
X101936051Y-118789949D01*
X101829831Y-118660518D01*
X101750904Y-118512857D01*
X101702299Y-118352627D01*
X101685888Y-118186000D01*
X101702299Y-118019373D01*
X101750904Y-117859143D01*
X101829831Y-117711482D01*
X101936051Y-117582051D01*
X102065482Y-117475831D01*
X102213143Y-117396904D01*
X102213145Y-117396903D01*
X102293258Y-117372602D01*
X102373373Y-117348299D01*
X102498248Y-117336000D01*
X102581752Y-117336000D01*
X102706627Y-117348299D01*
X102706627Y-117348299D01*
G37*
G36*
X180176627Y-115037299D02*
G01*
X180256742Y-115061601D01*
X180336855Y-115085903D01*
X180336857Y-115085904D01*
X180484518Y-115164831D01*
X180613949Y-115271051D01*
X180720169Y-115400482D01*
X180799096Y-115548143D01*
X180847701Y-115708373D01*
X180864112Y-115875000D01*
X180847701Y-116041627D01*
X180799096Y-116201857D01*
X180720169Y-116349518D01*
X180613949Y-116478949D01*
X180484518Y-116585169D01*
X180336857Y-116664096D01*
X180336855Y-116664097D01*
X180256742Y-116688399D01*
X180176627Y-116712701D01*
X180051752Y-116725000D01*
X179968248Y-116725000D01*
X179843373Y-116712701D01*
X179763258Y-116688398D01*
X179683145Y-116664097D01*
X179683143Y-116664096D01*
X179535482Y-116585169D01*
X179406051Y-116478949D01*
X179299831Y-116349518D01*
X179220904Y-116201857D01*
X179172299Y-116041627D01*
X179155888Y-115875000D01*
X179172299Y-115708373D01*
X179220904Y-115548143D01*
X179299831Y-115400482D01*
X179406051Y-115271051D01*
X179535482Y-115164831D01*
X179683143Y-115085904D01*
X179683145Y-115085903D01*
X179763258Y-115061602D01*
X179843373Y-115037299D01*
X179968248Y-115025000D01*
X180051752Y-115025000D01*
X180176627Y-115037299D01*
X180176627Y-115037299D01*
G37*
G36*
X182716627Y-115037299D02*
G01*
X182796742Y-115061601D01*
X182876855Y-115085903D01*
X182876857Y-115085904D01*
X183024518Y-115164831D01*
X183153949Y-115271051D01*
X183260169Y-115400482D01*
X183339096Y-115548143D01*
X183387701Y-115708373D01*
X183404112Y-115875000D01*
X183387701Y-116041627D01*
X183339096Y-116201857D01*
X183260169Y-116349518D01*
X183153949Y-116478949D01*
X183024518Y-116585169D01*
X182876857Y-116664096D01*
X182876855Y-116664097D01*
X182796742Y-116688399D01*
X182716627Y-116712701D01*
X182591752Y-116725000D01*
X182508248Y-116725000D01*
X182383373Y-116712701D01*
X182303258Y-116688398D01*
X182223145Y-116664097D01*
X182223143Y-116664096D01*
X182075482Y-116585169D01*
X181946051Y-116478949D01*
X181839831Y-116349518D01*
X181760904Y-116201857D01*
X181712299Y-116041627D01*
X181695888Y-115875000D01*
X181712299Y-115708373D01*
X181760904Y-115548143D01*
X181839831Y-115400482D01*
X181946051Y-115271051D01*
X182075482Y-115164831D01*
X182223143Y-115085904D01*
X182223145Y-115085903D01*
X182303258Y-115061602D01*
X182383373Y-115037299D01*
X182508248Y-115025000D01*
X182591752Y-115025000D01*
X182716627Y-115037299D01*
X182716627Y-115037299D01*
G37*
G36*
X102706627Y-114808299D02*
G01*
X102786742Y-114832602D01*
X102866855Y-114856903D01*
X102866857Y-114856904D01*
X103014518Y-114935831D01*
X103143949Y-115042051D01*
X103250169Y-115171482D01*
X103329096Y-115319143D01*
X103377701Y-115479373D01*
X103394112Y-115646000D01*
X103377701Y-115812627D01*
X103329096Y-115972857D01*
X103250169Y-116120518D01*
X103143949Y-116249949D01*
X103014518Y-116356169D01*
X102866857Y-116435096D01*
X102866855Y-116435097D01*
X102786742Y-116459399D01*
X102706627Y-116483701D01*
X102581752Y-116496000D01*
X102498248Y-116496000D01*
X102373373Y-116483701D01*
X102293258Y-116459399D01*
X102213145Y-116435097D01*
X102213143Y-116435096D01*
X102065482Y-116356169D01*
X101936051Y-116249949D01*
X101829831Y-116120518D01*
X101750904Y-115972857D01*
X101702299Y-115812627D01*
X101685888Y-115646000D01*
X101702299Y-115479373D01*
X101750904Y-115319143D01*
X101829831Y-115171482D01*
X101936051Y-115042051D01*
X102065482Y-114935831D01*
X102213143Y-114856904D01*
X102213145Y-114856903D01*
X102293258Y-114832602D01*
X102373373Y-114808299D01*
X102498248Y-114796000D01*
X102581752Y-114796000D01*
X102706627Y-114808299D01*
X102706627Y-114808299D01*
G37*
G36*
X105246627Y-114808299D02*
G01*
X105326742Y-114832602D01*
X105406855Y-114856903D01*
X105406857Y-114856904D01*
X105554518Y-114935831D01*
X105683949Y-115042051D01*
X105790169Y-115171482D01*
X105869096Y-115319143D01*
X105917701Y-115479373D01*
X105934112Y-115646000D01*
X105917701Y-115812627D01*
X105869096Y-115972857D01*
X105790169Y-116120518D01*
X105683949Y-116249949D01*
X105554518Y-116356169D01*
X105406857Y-116435096D01*
X105406855Y-116435097D01*
X105326742Y-116459399D01*
X105246627Y-116483701D01*
X105121752Y-116496000D01*
X105038248Y-116496000D01*
X104913373Y-116483701D01*
X104833258Y-116459399D01*
X104753145Y-116435097D01*
X104753143Y-116435096D01*
X104605482Y-116356169D01*
X104476051Y-116249949D01*
X104369831Y-116120518D01*
X104290904Y-115972857D01*
X104242299Y-115812627D01*
X104225888Y-115646000D01*
X104242299Y-115479373D01*
X104290904Y-115319143D01*
X104369831Y-115171482D01*
X104476051Y-115042051D01*
X104605482Y-114935831D01*
X104753143Y-114856904D01*
X104753145Y-114856903D01*
X104833258Y-114832602D01*
X104913373Y-114808299D01*
X105038248Y-114796000D01*
X105121752Y-114796000D01*
X105246627Y-114808299D01*
X105246627Y-114808299D01*
G37*
G36*
X180176627Y-112497299D02*
G01*
X180256742Y-112521602D01*
X180336855Y-112545903D01*
X180336857Y-112545904D01*
X180484518Y-112624831D01*
X180613949Y-112731051D01*
X180720169Y-112860482D01*
X180799096Y-113008143D01*
X180847701Y-113168373D01*
X180864112Y-113335000D01*
X180847701Y-113501627D01*
X180799096Y-113661857D01*
X180720169Y-113809518D01*
X180613949Y-113938949D01*
X180484518Y-114045169D01*
X180336857Y-114124096D01*
X180336855Y-114124097D01*
X180256742Y-114148398D01*
X180176627Y-114172701D01*
X180051752Y-114185000D01*
X179968248Y-114185000D01*
X179843373Y-114172701D01*
X179763258Y-114148398D01*
X179683145Y-114124097D01*
X179683143Y-114124096D01*
X179535482Y-114045169D01*
X179406051Y-113938949D01*
X179299831Y-113809518D01*
X179220904Y-113661857D01*
X179172299Y-113501627D01*
X179155888Y-113335000D01*
X179172299Y-113168373D01*
X179220904Y-113008143D01*
X179299831Y-112860482D01*
X179406051Y-112731051D01*
X179535482Y-112624831D01*
X179683143Y-112545904D01*
X179683145Y-112545903D01*
X179763258Y-112521602D01*
X179843373Y-112497299D01*
X179968248Y-112485000D01*
X180051752Y-112485000D01*
X180176627Y-112497299D01*
X180176627Y-112497299D01*
G37*
G36*
X182716627Y-112497299D02*
G01*
X182796742Y-112521602D01*
X182876855Y-112545903D01*
X182876857Y-112545904D01*
X183024518Y-112624831D01*
X183153949Y-112731051D01*
X183260169Y-112860482D01*
X183339096Y-113008143D01*
X183387701Y-113168373D01*
X183404112Y-113335000D01*
X183387701Y-113501627D01*
X183339096Y-113661857D01*
X183260169Y-113809518D01*
X183153949Y-113938949D01*
X183024518Y-114045169D01*
X182876857Y-114124096D01*
X182876855Y-114124097D01*
X182796742Y-114148398D01*
X182716627Y-114172701D01*
X182591752Y-114185000D01*
X182508248Y-114185000D01*
X182383373Y-114172701D01*
X182303258Y-114148398D01*
X182223145Y-114124097D01*
X182223143Y-114124096D01*
X182075482Y-114045169D01*
X181946051Y-113938949D01*
X181839831Y-113809518D01*
X181760904Y-113661857D01*
X181712299Y-113501627D01*
X181695888Y-113335000D01*
X181712299Y-113168373D01*
X181760904Y-113008143D01*
X181839831Y-112860482D01*
X181946051Y-112731051D01*
X182075482Y-112624831D01*
X182223143Y-112545904D01*
X182223145Y-112545903D01*
X182303258Y-112521602D01*
X182383373Y-112497299D01*
X182508248Y-112485000D01*
X182591752Y-112485000D01*
X182716627Y-112497299D01*
X182716627Y-112497299D01*
G37*
G36*
X105246627Y-112268299D02*
G01*
X105326742Y-112292601D01*
X105406855Y-112316903D01*
X105406857Y-112316904D01*
X105554518Y-112395831D01*
X105683949Y-112502051D01*
X105790169Y-112631482D01*
X105869096Y-112779143D01*
X105917701Y-112939373D01*
X105934112Y-113106000D01*
X105917701Y-113272627D01*
X105869096Y-113432857D01*
X105790169Y-113580518D01*
X105683949Y-113709949D01*
X105554518Y-113816169D01*
X105406857Y-113895096D01*
X105406855Y-113895097D01*
X105326742Y-113919399D01*
X105246627Y-113943701D01*
X105121752Y-113956000D01*
X105038248Y-113956000D01*
X104913373Y-113943701D01*
X104833258Y-113919399D01*
X104753145Y-113895097D01*
X104753143Y-113895096D01*
X104605482Y-113816169D01*
X104476051Y-113709949D01*
X104369831Y-113580518D01*
X104290904Y-113432857D01*
X104242299Y-113272627D01*
X104225888Y-113106000D01*
X104242299Y-112939373D01*
X104290904Y-112779143D01*
X104369831Y-112631482D01*
X104476051Y-112502051D01*
X104605482Y-112395831D01*
X104753143Y-112316904D01*
X104753145Y-112316903D01*
X104833258Y-112292601D01*
X104913373Y-112268299D01*
X105038248Y-112256000D01*
X105121752Y-112256000D01*
X105246627Y-112268299D01*
X105246627Y-112268299D01*
G37*
G36*
X102706627Y-112268299D02*
G01*
X102786742Y-112292601D01*
X102866855Y-112316903D01*
X102866857Y-112316904D01*
X103014518Y-112395831D01*
X103143949Y-112502051D01*
X103250169Y-112631482D01*
X103329096Y-112779143D01*
X103377701Y-112939373D01*
X103394112Y-113106000D01*
X103377701Y-113272627D01*
X103329096Y-113432857D01*
X103250169Y-113580518D01*
X103143949Y-113709949D01*
X103014518Y-113816169D01*
X102866857Y-113895096D01*
X102866855Y-113895097D01*
X102786742Y-113919399D01*
X102706627Y-113943701D01*
X102581752Y-113956000D01*
X102498248Y-113956000D01*
X102373373Y-113943701D01*
X102293258Y-113919399D01*
X102213145Y-113895097D01*
X102213143Y-113895096D01*
X102065482Y-113816169D01*
X101936051Y-113709949D01*
X101829831Y-113580518D01*
X101750904Y-113432857D01*
X101702299Y-113272627D01*
X101685888Y-113106000D01*
X101702299Y-112939373D01*
X101750904Y-112779143D01*
X101829831Y-112631482D01*
X101936051Y-112502051D01*
X102065482Y-112395831D01*
X102213143Y-112316904D01*
X102213145Y-112316903D01*
X102293258Y-112292601D01*
X102373373Y-112268299D01*
X102498248Y-112256000D01*
X102581752Y-112256000D01*
X102706627Y-112268299D01*
X102706627Y-112268299D01*
G37*
G36*
X182716627Y-109957299D02*
G01*
X182796742Y-109981602D01*
X182876855Y-110005903D01*
X182876857Y-110005904D01*
X183024518Y-110084831D01*
X183153949Y-110191051D01*
X183260169Y-110320482D01*
X183339096Y-110468143D01*
X183387701Y-110628373D01*
X183404112Y-110795000D01*
X183387701Y-110961627D01*
X183339096Y-111121857D01*
X183260169Y-111269518D01*
X183153949Y-111398949D01*
X183024518Y-111505169D01*
X182876857Y-111584096D01*
X182876855Y-111584097D01*
X182796742Y-111608399D01*
X182716627Y-111632701D01*
X182591752Y-111645000D01*
X182508248Y-111645000D01*
X182383373Y-111632701D01*
X182303258Y-111608398D01*
X182223145Y-111584097D01*
X182223143Y-111584096D01*
X182075482Y-111505169D01*
X181946051Y-111398949D01*
X181839831Y-111269518D01*
X181760904Y-111121857D01*
X181712299Y-110961627D01*
X181695888Y-110795000D01*
X181712299Y-110628373D01*
X181760904Y-110468143D01*
X181839831Y-110320482D01*
X181946051Y-110191051D01*
X182075482Y-110084831D01*
X182223143Y-110005904D01*
X182223145Y-110005903D01*
X182303258Y-109981601D01*
X182383373Y-109957299D01*
X182508248Y-109945000D01*
X182591752Y-109945000D01*
X182716627Y-109957299D01*
X182716627Y-109957299D01*
G37*
G36*
X180176627Y-109957299D02*
G01*
X180256742Y-109981602D01*
X180336855Y-110005903D01*
X180336857Y-110005904D01*
X180484518Y-110084831D01*
X180613949Y-110191051D01*
X180720169Y-110320482D01*
X180799096Y-110468143D01*
X180847701Y-110628373D01*
X180864112Y-110795000D01*
X180847701Y-110961627D01*
X180799096Y-111121857D01*
X180720169Y-111269518D01*
X180613949Y-111398949D01*
X180484518Y-111505169D01*
X180336857Y-111584096D01*
X180336855Y-111584097D01*
X180256742Y-111608399D01*
X180176627Y-111632701D01*
X180051752Y-111645000D01*
X179968248Y-111645000D01*
X179843373Y-111632701D01*
X179763258Y-111608398D01*
X179683145Y-111584097D01*
X179683143Y-111584096D01*
X179535482Y-111505169D01*
X179406051Y-111398949D01*
X179299831Y-111269518D01*
X179220904Y-111121857D01*
X179172299Y-110961627D01*
X179155888Y-110795000D01*
X179172299Y-110628373D01*
X179220904Y-110468143D01*
X179299831Y-110320482D01*
X179406051Y-110191051D01*
X179535482Y-110084831D01*
X179683143Y-110005904D01*
X179683145Y-110005903D01*
X179763258Y-109981601D01*
X179843373Y-109957299D01*
X179968248Y-109945000D01*
X180051752Y-109945000D01*
X180176627Y-109957299D01*
X180176627Y-109957299D01*
G37*
G36*
X102706627Y-109728299D02*
G01*
X102786742Y-109752601D01*
X102866855Y-109776903D01*
X102866857Y-109776904D01*
X103014518Y-109855831D01*
X103143949Y-109962051D01*
X103250169Y-110091482D01*
X103329096Y-110239143D01*
X103377701Y-110399373D01*
X103394112Y-110566000D01*
X103377701Y-110732627D01*
X103329096Y-110892857D01*
X103250169Y-111040518D01*
X103143949Y-111169949D01*
X103014518Y-111276169D01*
X102866857Y-111355096D01*
X102866855Y-111355097D01*
X102786742Y-111379399D01*
X102706627Y-111403701D01*
X102581752Y-111416000D01*
X102498248Y-111416000D01*
X102373373Y-111403701D01*
X102293258Y-111379399D01*
X102213145Y-111355097D01*
X102213143Y-111355096D01*
X102065482Y-111276169D01*
X101936051Y-111169949D01*
X101829831Y-111040518D01*
X101750904Y-110892857D01*
X101702299Y-110732627D01*
X101685888Y-110566000D01*
X101702299Y-110399373D01*
X101750904Y-110239143D01*
X101829831Y-110091482D01*
X101936051Y-109962051D01*
X102065482Y-109855831D01*
X102213143Y-109776904D01*
X102213145Y-109776903D01*
X102293258Y-109752601D01*
X102373373Y-109728299D01*
X102498248Y-109716000D01*
X102581752Y-109716000D01*
X102706627Y-109728299D01*
X102706627Y-109728299D01*
G37*
G36*
X105246627Y-109728299D02*
G01*
X105326742Y-109752601D01*
X105406855Y-109776903D01*
X105406857Y-109776904D01*
X105554518Y-109855831D01*
X105683949Y-109962051D01*
X105790169Y-110091482D01*
X105869096Y-110239143D01*
X105917701Y-110399373D01*
X105934112Y-110566000D01*
X105917701Y-110732627D01*
X105869096Y-110892857D01*
X105790169Y-111040518D01*
X105683949Y-111169949D01*
X105554518Y-111276169D01*
X105406857Y-111355096D01*
X105406855Y-111355097D01*
X105326742Y-111379399D01*
X105246627Y-111403701D01*
X105121752Y-111416000D01*
X105038248Y-111416000D01*
X104913373Y-111403701D01*
X104833258Y-111379399D01*
X104753145Y-111355097D01*
X104753143Y-111355096D01*
X104605482Y-111276169D01*
X104476051Y-111169949D01*
X104369831Y-111040518D01*
X104290904Y-110892857D01*
X104242299Y-110732627D01*
X104225888Y-110566000D01*
X104242299Y-110399373D01*
X104290904Y-110239143D01*
X104369831Y-110091482D01*
X104476051Y-109962051D01*
X104605482Y-109855831D01*
X104753143Y-109776904D01*
X104753145Y-109776903D01*
X104833258Y-109752601D01*
X104913373Y-109728299D01*
X105038248Y-109716000D01*
X105121752Y-109716000D01*
X105246627Y-109728299D01*
X105246627Y-109728299D01*
G37*
G36*
X180860000Y-109105000D02*
G01*
X179160000Y-109105000D01*
X179160000Y-107405000D01*
X180860000Y-107405000D01*
X180860000Y-109105000D01*
X180860000Y-109105000D01*
G37*
G36*
X182716627Y-107417299D02*
G01*
X182796742Y-107441601D01*
X182876855Y-107465903D01*
X182876857Y-107465904D01*
X183024518Y-107544831D01*
X183153949Y-107651051D01*
X183260169Y-107780482D01*
X183339096Y-107928143D01*
X183387701Y-108088373D01*
X183404112Y-108255000D01*
X183387701Y-108421627D01*
X183339096Y-108581857D01*
X183260169Y-108729518D01*
X183153949Y-108858949D01*
X183024518Y-108965169D01*
X182876857Y-109044096D01*
X182876855Y-109044097D01*
X182796742Y-109068399D01*
X182716627Y-109092701D01*
X182591752Y-109105000D01*
X182508248Y-109105000D01*
X182383373Y-109092701D01*
X182303258Y-109068399D01*
X182223145Y-109044097D01*
X182223143Y-109044096D01*
X182075482Y-108965169D01*
X181946051Y-108858949D01*
X181839831Y-108729518D01*
X181760904Y-108581857D01*
X181712299Y-108421627D01*
X181695888Y-108255000D01*
X181712299Y-108088373D01*
X181760904Y-107928143D01*
X181839831Y-107780482D01*
X181946051Y-107651051D01*
X182075482Y-107544831D01*
X182223143Y-107465904D01*
X182223145Y-107465903D01*
X182303258Y-107441601D01*
X182383373Y-107417299D01*
X182508248Y-107405000D01*
X182591752Y-107405000D01*
X182716627Y-107417299D01*
X182716627Y-107417299D01*
G37*
G36*
X105246627Y-107188299D02*
G01*
X105326742Y-107212602D01*
X105406855Y-107236903D01*
X105406857Y-107236904D01*
X105554518Y-107315831D01*
X105683949Y-107422051D01*
X105790169Y-107551482D01*
X105869096Y-107699143D01*
X105917701Y-107859373D01*
X105934112Y-108026000D01*
X105917701Y-108192627D01*
X105869096Y-108352857D01*
X105790169Y-108500518D01*
X105683949Y-108629949D01*
X105554518Y-108736169D01*
X105406857Y-108815096D01*
X105406855Y-108815097D01*
X105326742Y-108839398D01*
X105246627Y-108863701D01*
X105121752Y-108876000D01*
X105038248Y-108876000D01*
X104913373Y-108863701D01*
X104833258Y-108839398D01*
X104753145Y-108815097D01*
X104753143Y-108815096D01*
X104605482Y-108736169D01*
X104476051Y-108629949D01*
X104369831Y-108500518D01*
X104290904Y-108352857D01*
X104242299Y-108192627D01*
X104225888Y-108026000D01*
X104242299Y-107859373D01*
X104290904Y-107699143D01*
X104369831Y-107551482D01*
X104476051Y-107422051D01*
X104605482Y-107315831D01*
X104753143Y-107236904D01*
X104753145Y-107236903D01*
X104833258Y-107212602D01*
X104913373Y-107188299D01*
X105038248Y-107176000D01*
X105121752Y-107176000D01*
X105246627Y-107188299D01*
X105246627Y-107188299D01*
G37*
G36*
X102706627Y-107188299D02*
G01*
X102786742Y-107212602D01*
X102866855Y-107236903D01*
X102866857Y-107236904D01*
X103014518Y-107315831D01*
X103143949Y-107422051D01*
X103250169Y-107551482D01*
X103329096Y-107699143D01*
X103377701Y-107859373D01*
X103394112Y-108026000D01*
X103377701Y-108192627D01*
X103329096Y-108352857D01*
X103250169Y-108500518D01*
X103143949Y-108629949D01*
X103014518Y-108736169D01*
X102866857Y-108815096D01*
X102866855Y-108815097D01*
X102786742Y-108839398D01*
X102706627Y-108863701D01*
X102581752Y-108876000D01*
X102498248Y-108876000D01*
X102373373Y-108863701D01*
X102293258Y-108839398D01*
X102213145Y-108815097D01*
X102213143Y-108815096D01*
X102065482Y-108736169D01*
X101936051Y-108629949D01*
X101829831Y-108500518D01*
X101750904Y-108352857D01*
X101702299Y-108192627D01*
X101685888Y-108026000D01*
X101702299Y-107859373D01*
X101750904Y-107699143D01*
X101829831Y-107551482D01*
X101936051Y-107422051D01*
X102065482Y-107315831D01*
X102213143Y-107236904D01*
X102213145Y-107236903D01*
X102293258Y-107212602D01*
X102373373Y-107188299D01*
X102498248Y-107176000D01*
X102581752Y-107176000D01*
X102706627Y-107188299D01*
X102706627Y-107188299D01*
G37*
G36*
X148445000Y-107750000D02*
G01*
X147555000Y-107750000D01*
X147555000Y-104750000D01*
X148445000Y-104750000D01*
X148445000Y-107750000D01*
X148445000Y-107750000D01*
G37*
G36*
X146445000Y-107750000D02*
G01*
X145555000Y-107750000D01*
X145555000Y-104750000D01*
X146445000Y-104750000D01*
X146445000Y-107750000D01*
X146445000Y-107750000D01*
G37*
G36*
X144445000Y-107750000D02*
G01*
X143555000Y-107750000D01*
X143555000Y-104750000D01*
X144445000Y-104750000D01*
X144445000Y-107750000D01*
X144445000Y-107750000D01*
G37*
G36*
X124445000Y-107750000D02*
G01*
X123555000Y-107750000D01*
X123555000Y-104750000D01*
X124445000Y-104750000D01*
X124445000Y-107750000D01*
X124445000Y-107750000D01*
G37*
G36*
X142445000Y-107750000D02*
G01*
X141555000Y-107750000D01*
X141555000Y-104750000D01*
X142445000Y-104750000D01*
X142445000Y-107750000D01*
X142445000Y-107750000D01*
G37*
G36*
X140445000Y-107750000D02*
G01*
X139555000Y-107750000D01*
X139555000Y-104750000D01*
X140445000Y-104750000D01*
X140445000Y-107750000D01*
X140445000Y-107750000D01*
G37*
G36*
X138445000Y-107750000D02*
G01*
X137555000Y-107750000D01*
X137555000Y-104750000D01*
X138445000Y-104750000D01*
X138445000Y-107750000D01*
X138445000Y-107750000D01*
G37*
G36*
X136445000Y-107750000D02*
G01*
X135555000Y-107750000D01*
X135555000Y-104750000D01*
X136445000Y-104750000D01*
X136445000Y-107750000D01*
X136445000Y-107750000D01*
G37*
G36*
X134445000Y-107750000D02*
G01*
X133555000Y-107750000D01*
X133555000Y-104750000D01*
X134445000Y-104750000D01*
X134445000Y-107750000D01*
X134445000Y-107750000D01*
G37*
G36*
X132445000Y-107750000D02*
G01*
X131555000Y-107750000D01*
X131555000Y-104750000D01*
X132445000Y-104750000D01*
X132445000Y-107750000D01*
X132445000Y-107750000D01*
G37*
G36*
X128445000Y-107750000D02*
G01*
X127555000Y-107750000D01*
X127555000Y-104750000D01*
X128445000Y-104750000D01*
X128445000Y-107750000D01*
X128445000Y-107750000D01*
G37*
G36*
X116445000Y-107750000D02*
G01*
X115555000Y-107750000D01*
X115555000Y-104750000D01*
X116445000Y-104750000D01*
X116445000Y-107750000D01*
X116445000Y-107750000D01*
G37*
G36*
X114445000Y-107750000D02*
G01*
X113555000Y-107750000D01*
X113555000Y-104750000D01*
X114445000Y-104750000D01*
X114445000Y-107750000D01*
X114445000Y-107750000D01*
G37*
G36*
X112445000Y-107750000D02*
G01*
X111555000Y-107750000D01*
X111555000Y-104750000D01*
X112445000Y-104750000D01*
X112445000Y-107750000D01*
X112445000Y-107750000D01*
G37*
G36*
X110445000Y-107750000D02*
G01*
X109555000Y-107750000D01*
X109555000Y-104750000D01*
X110445000Y-104750000D01*
X110445000Y-107750000D01*
X110445000Y-107750000D01*
G37*
G36*
X122445000Y-107750000D02*
G01*
X121555000Y-107750000D01*
X121555000Y-104750000D01*
X122445000Y-104750000D01*
X122445000Y-107750000D01*
X122445000Y-107750000D01*
G37*
G36*
X126445000Y-107750000D02*
G01*
X125555000Y-107750000D01*
X125555000Y-104750000D01*
X126445000Y-104750000D01*
X126445000Y-107750000D01*
X126445000Y-107750000D01*
G37*
G36*
X118445000Y-107750000D02*
G01*
X117555000Y-107750000D01*
X117555000Y-104750000D01*
X118445000Y-104750000D01*
X118445000Y-107750000D01*
X118445000Y-107750000D01*
G37*
G36*
X120445000Y-107750000D02*
G01*
X119555000Y-107750000D01*
X119555000Y-104750000D01*
X120445000Y-104750000D01*
X120445000Y-107750000D01*
X120445000Y-107750000D01*
G37*
G36*
X130445000Y-107750000D02*
G01*
X129555000Y-107750000D01*
X129555000Y-104750000D01*
X130445000Y-104750000D01*
X130445000Y-107750000D01*
X130445000Y-107750000D01*
G37*
G36*
X111175013Y-103423057D02*
G01*
X111284206Y-103468286D01*
X111382477Y-103533949D01*
X111466051Y-103617523D01*
X111531714Y-103715794D01*
X111576943Y-103824987D01*
X111600000Y-103940904D01*
X111600000Y-104059096D01*
X111576943Y-104175013D01*
X111531714Y-104284206D01*
X111466051Y-104382477D01*
X111382477Y-104466051D01*
X111284206Y-104531714D01*
X111175013Y-104576943D01*
X111059096Y-104600000D01*
X110940904Y-104600000D01*
X110824987Y-104576943D01*
X110715794Y-104531714D01*
X110617523Y-104466051D01*
X110533949Y-104382477D01*
X110468286Y-104284206D01*
X110423057Y-104175013D01*
X110400000Y-104059096D01*
X110400000Y-103940904D01*
X110423057Y-103824987D01*
X110468286Y-103715794D01*
X110533949Y-103617523D01*
X110617523Y-103533949D01*
X110715794Y-103468286D01*
X110824987Y-103423057D01*
X110940904Y-103400000D01*
X111059096Y-103400000D01*
X111175013Y-103423057D01*
X111175013Y-103423057D01*
G37*
G36*
X147175013Y-103423057D02*
G01*
X147284206Y-103468286D01*
X147382477Y-103533949D01*
X147466051Y-103617523D01*
X147531714Y-103715794D01*
X147576943Y-103824987D01*
X147600000Y-103940904D01*
X147600000Y-104059096D01*
X147576943Y-104175013D01*
X147531714Y-104284206D01*
X147466051Y-104382477D01*
X147382477Y-104466051D01*
X147284206Y-104531714D01*
X147175013Y-104576943D01*
X147059096Y-104600000D01*
X146940904Y-104600000D01*
X146824987Y-104576943D01*
X146715794Y-104531714D01*
X146617523Y-104466051D01*
X146533949Y-104382477D01*
X146468286Y-104284206D01*
X146423057Y-104175013D01*
X146400000Y-104059096D01*
X146400000Y-103940904D01*
X146423057Y-103824987D01*
X146468286Y-103715794D01*
X146533949Y-103617523D01*
X146617523Y-103533949D01*
X146715794Y-103468286D01*
X146824987Y-103423057D01*
X146940904Y-103400000D01*
X147059096Y-103400000D01*
X147175013Y-103423057D01*
X147175013Y-103423057D01*
G37*
G36*
X110445000Y-103250000D02*
G01*
X109555000Y-103250000D01*
X109555000Y-100250000D01*
X110445000Y-100250000D01*
X110445000Y-103250000D01*
X110445000Y-103250000D01*
G37*
G36*
X112445000Y-103250000D02*
G01*
X111555000Y-103250000D01*
X111555000Y-100250000D01*
X112445000Y-100250000D01*
X112445000Y-103250000D01*
X112445000Y-103250000D01*
G37*
G36*
X116445000Y-103250000D02*
G01*
X115555000Y-103250000D01*
X115555000Y-100250000D01*
X116445000Y-100250000D01*
X116445000Y-103250000D01*
X116445000Y-103250000D01*
G37*
G36*
X148445000Y-103250000D02*
G01*
X147555000Y-103250000D01*
X147555000Y-100250000D01*
X148445000Y-100250000D01*
X148445000Y-103250000D01*
X148445000Y-103250000D01*
G37*
G36*
X146445000Y-103250000D02*
G01*
X145555000Y-103250000D01*
X145555000Y-100250000D01*
X146445000Y-100250000D01*
X146445000Y-103250000D01*
X146445000Y-103250000D01*
G37*
G36*
X144445000Y-103250000D02*
G01*
X143555000Y-103250000D01*
X143555000Y-100250000D01*
X144445000Y-100250000D01*
X144445000Y-103250000D01*
X144445000Y-103250000D01*
G37*
G36*
X142445000Y-103250000D02*
G01*
X141555000Y-103250000D01*
X141555000Y-100250000D01*
X142445000Y-100250000D01*
X142445000Y-103250000D01*
X142445000Y-103250000D01*
G37*
G36*
X140445000Y-103250000D02*
G01*
X139555000Y-103250000D01*
X139555000Y-100250000D01*
X140445000Y-100250000D01*
X140445000Y-103250000D01*
X140445000Y-103250000D01*
G37*
G36*
X138445000Y-103250000D02*
G01*
X137555000Y-103250000D01*
X137555000Y-100250000D01*
X138445000Y-100250000D01*
X138445000Y-103250000D01*
X138445000Y-103250000D01*
G37*
G36*
X136445000Y-103250000D02*
G01*
X135555000Y-103250000D01*
X135555000Y-100250000D01*
X136445000Y-100250000D01*
X136445000Y-103250000D01*
X136445000Y-103250000D01*
G37*
G36*
X134445000Y-103250000D02*
G01*
X133555000Y-103250000D01*
X133555000Y-100250000D01*
X134445000Y-100250000D01*
X134445000Y-103250000D01*
X134445000Y-103250000D01*
G37*
G36*
X132445000Y-103250000D02*
G01*
X131555000Y-103250000D01*
X131555000Y-100250000D01*
X132445000Y-100250000D01*
X132445000Y-103250000D01*
X132445000Y-103250000D01*
G37*
G36*
X130445000Y-103250000D02*
G01*
X129555000Y-103250000D01*
X129555000Y-100250000D01*
X130445000Y-100250000D01*
X130445000Y-103250000D01*
X130445000Y-103250000D01*
G37*
G36*
X128445000Y-103250000D02*
G01*
X127555000Y-103250000D01*
X127555000Y-100250000D01*
X128445000Y-100250000D01*
X128445000Y-103250000D01*
X128445000Y-103250000D01*
G37*
G36*
X126445000Y-103250000D02*
G01*
X125555000Y-103250000D01*
X125555000Y-100250000D01*
X126445000Y-100250000D01*
X126445000Y-103250000D01*
X126445000Y-103250000D01*
G37*
G36*
X124445000Y-103250000D02*
G01*
X123555000Y-103250000D01*
X123555000Y-100250000D01*
X124445000Y-100250000D01*
X124445000Y-103250000D01*
X124445000Y-103250000D01*
G37*
G36*
X122445000Y-103250000D02*
G01*
X121555000Y-103250000D01*
X121555000Y-100250000D01*
X122445000Y-100250000D01*
X122445000Y-103250000D01*
X122445000Y-103250000D01*
G37*
G36*
X120445000Y-103250000D02*
G01*
X119555000Y-103250000D01*
X119555000Y-100250000D01*
X120445000Y-100250000D01*
X120445000Y-103250000D01*
X120445000Y-103250000D01*
G37*
G36*
X114445000Y-103250000D02*
G01*
X113555000Y-103250000D01*
X113555000Y-100250000D01*
X114445000Y-100250000D01*
X114445000Y-103250000D01*
X114445000Y-103250000D01*
G37*
G36*
X118445000Y-103250000D02*
G01*
X117555000Y-103250000D01*
X117555000Y-100250000D01*
X118445000Y-100250000D01*
X118445000Y-103250000D01*
X118445000Y-103250000D01*
G37*
M02*
