G04 #@! TF.GenerationSoftware,KiCad,Pcbnew,5.1.2-1.fc30*
G04 #@! TF.CreationDate,2019-05-22T10:25:12+05:30*
G04 #@! TF.ProjectId,sx1509,73783135-3039-42e6-9b69-6361645f7063,v0.1*
G04 #@! TF.SameCoordinates,Original*
G04 #@! TF.FileFunction,Copper,L1,Top*
G04 #@! TF.FilePolarity,Positive*
%FSLAX46Y46*%
G04 Gerber Fmt 4.6, Leading zero omitted, Abs format (unit mm)*
G04 Created by KiCad (PCBNEW 5.1.2-1.fc30) date 2019-05-22 10:25:12*
%MOMM*%
%LPD*%
G04 APERTURE LIST*
%ADD10R,0.198120X0.848360*%
%ADD11R,0.848360X0.198120*%
%ADD12R,2.649220X2.649220*%
%ADD13R,0.890000X2.100000*%
%ADD14R,1.700000X1.700000*%
%ADD15O,1.700000X1.700000*%
%ADD16C,0.100000*%
%ADD17C,0.400000*%
%ADD18C,1.500000*%
%ADD19R,0.970000X1.270000*%
%ADD20C,0.500000*%
%ADD21C,0.150000*%
%ADD22C,0.254000*%
G04 APERTURE END LIST*
D10*
X137336880Y-117118420D03*
X136935560Y-117118420D03*
X136536780Y-117118420D03*
X136138000Y-117118420D03*
X135739220Y-117118420D03*
X135340440Y-117118420D03*
X134939120Y-117118420D03*
D11*
X134164420Y-117893120D03*
X134164420Y-118294440D03*
X134164420Y-118693220D03*
X134164420Y-119092000D03*
X134164420Y-119490780D03*
X134164420Y-119889560D03*
X134164420Y-120290880D03*
D10*
X134939120Y-121065580D03*
X135340440Y-121065580D03*
X135739220Y-121065580D03*
X136138000Y-121065580D03*
X136536780Y-121065580D03*
X136935560Y-121065580D03*
X137336880Y-121065580D03*
D11*
X138111580Y-120290880D03*
X138111580Y-119889560D03*
X138111580Y-119490780D03*
X138111580Y-119092000D03*
X138111580Y-118693220D03*
X138111580Y-118294440D03*
X138111580Y-117893120D03*
D12*
X136138000Y-119092000D03*
D13*
X148000000Y-101350000D03*
X146000000Y-101350000D03*
X144000000Y-101350000D03*
X142000000Y-101350000D03*
X140000000Y-101350000D03*
X138000000Y-101350000D03*
X136000000Y-101350000D03*
X134000000Y-101350000D03*
X132000000Y-101350000D03*
X130000000Y-101350000D03*
X128000000Y-101350000D03*
X126000000Y-101350000D03*
X124000000Y-101350000D03*
X122000000Y-101350000D03*
X120000000Y-101350000D03*
X118000000Y-101350000D03*
X116000000Y-101350000D03*
X114000000Y-101350000D03*
X148000000Y-106650000D03*
X146000000Y-106650000D03*
X144000000Y-106650000D03*
X142000000Y-106650000D03*
X140000000Y-106650000D03*
X138000000Y-106650000D03*
X136000000Y-106650000D03*
X134000000Y-106650000D03*
X132000000Y-106650000D03*
X130000000Y-106650000D03*
X128000000Y-106650000D03*
X126000000Y-106650000D03*
X124000000Y-106650000D03*
X122000000Y-106650000D03*
X120000000Y-106650000D03*
X118000000Y-106650000D03*
X116000000Y-106650000D03*
X110000000Y-106650000D03*
X110000000Y-101350000D03*
X112000000Y-101350000D03*
X112000000Y-106650000D03*
X114000000Y-106650000D03*
D14*
X182550000Y-129210000D03*
D15*
X182550000Y-131750000D03*
X102540000Y-129210000D03*
D14*
X102540000Y-131750000D03*
D16*
G36*
X132113802Y-121281482D02*
G01*
X132123509Y-121282921D01*
X132133028Y-121285306D01*
X132142268Y-121288612D01*
X132151140Y-121292808D01*
X132159557Y-121297853D01*
X132167439Y-121303699D01*
X132174711Y-121310289D01*
X132181301Y-121317561D01*
X132187147Y-121325443D01*
X132192192Y-121333860D01*
X132196388Y-121342732D01*
X132199694Y-121351972D01*
X132202079Y-121361491D01*
X132203518Y-121371198D01*
X132204000Y-121381000D01*
X132204000Y-121581000D01*
X132203518Y-121590802D01*
X132202079Y-121600509D01*
X132199694Y-121610028D01*
X132196388Y-121619268D01*
X132192192Y-121628140D01*
X132187147Y-121636557D01*
X132181301Y-121644439D01*
X132174711Y-121651711D01*
X132167439Y-121658301D01*
X132159557Y-121664147D01*
X132151140Y-121669192D01*
X132142268Y-121673388D01*
X132133028Y-121676694D01*
X132123509Y-121679079D01*
X132113802Y-121680518D01*
X132104000Y-121681000D01*
X131844000Y-121681000D01*
X131834198Y-121680518D01*
X131824491Y-121679079D01*
X131814972Y-121676694D01*
X131805732Y-121673388D01*
X131796860Y-121669192D01*
X131788443Y-121664147D01*
X131780561Y-121658301D01*
X131773289Y-121651711D01*
X131766699Y-121644439D01*
X131760853Y-121636557D01*
X131755808Y-121628140D01*
X131751612Y-121619268D01*
X131748306Y-121610028D01*
X131745921Y-121600509D01*
X131744482Y-121590802D01*
X131744000Y-121581000D01*
X131744000Y-121381000D01*
X131744482Y-121371198D01*
X131745921Y-121361491D01*
X131748306Y-121351972D01*
X131751612Y-121342732D01*
X131755808Y-121333860D01*
X131760853Y-121325443D01*
X131766699Y-121317561D01*
X131773289Y-121310289D01*
X131780561Y-121303699D01*
X131788443Y-121297853D01*
X131796860Y-121292808D01*
X131805732Y-121288612D01*
X131814972Y-121285306D01*
X131824491Y-121282921D01*
X131834198Y-121281482D01*
X131844000Y-121281000D01*
X132104000Y-121281000D01*
X132113802Y-121281482D01*
X132113802Y-121281482D01*
G37*
D17*
X131974000Y-121481000D03*
D16*
G36*
X132753802Y-121281482D02*
G01*
X132763509Y-121282921D01*
X132773028Y-121285306D01*
X132782268Y-121288612D01*
X132791140Y-121292808D01*
X132799557Y-121297853D01*
X132807439Y-121303699D01*
X132814711Y-121310289D01*
X132821301Y-121317561D01*
X132827147Y-121325443D01*
X132832192Y-121333860D01*
X132836388Y-121342732D01*
X132839694Y-121351972D01*
X132842079Y-121361491D01*
X132843518Y-121371198D01*
X132844000Y-121381000D01*
X132844000Y-121581000D01*
X132843518Y-121590802D01*
X132842079Y-121600509D01*
X132839694Y-121610028D01*
X132836388Y-121619268D01*
X132832192Y-121628140D01*
X132827147Y-121636557D01*
X132821301Y-121644439D01*
X132814711Y-121651711D01*
X132807439Y-121658301D01*
X132799557Y-121664147D01*
X132791140Y-121669192D01*
X132782268Y-121673388D01*
X132773028Y-121676694D01*
X132763509Y-121679079D01*
X132753802Y-121680518D01*
X132744000Y-121681000D01*
X132484000Y-121681000D01*
X132474198Y-121680518D01*
X132464491Y-121679079D01*
X132454972Y-121676694D01*
X132445732Y-121673388D01*
X132436860Y-121669192D01*
X132428443Y-121664147D01*
X132420561Y-121658301D01*
X132413289Y-121651711D01*
X132406699Y-121644439D01*
X132400853Y-121636557D01*
X132395808Y-121628140D01*
X132391612Y-121619268D01*
X132388306Y-121610028D01*
X132385921Y-121600509D01*
X132384482Y-121590802D01*
X132384000Y-121581000D01*
X132384000Y-121381000D01*
X132384482Y-121371198D01*
X132385921Y-121361491D01*
X132388306Y-121351972D01*
X132391612Y-121342732D01*
X132395808Y-121333860D01*
X132400853Y-121325443D01*
X132406699Y-121317561D01*
X132413289Y-121310289D01*
X132420561Y-121303699D01*
X132428443Y-121297853D01*
X132436860Y-121292808D01*
X132445732Y-121288612D01*
X132454972Y-121285306D01*
X132464491Y-121282921D01*
X132474198Y-121281482D01*
X132484000Y-121281000D01*
X132744000Y-121281000D01*
X132753802Y-121281482D01*
X132753802Y-121281482D01*
G37*
D17*
X132614000Y-121481000D03*
D16*
G36*
X143319802Y-122660482D02*
G01*
X143329509Y-122661921D01*
X143339028Y-122664306D01*
X143348268Y-122667612D01*
X143357140Y-122671808D01*
X143365557Y-122676853D01*
X143373439Y-122682699D01*
X143380711Y-122689289D01*
X143387301Y-122696561D01*
X143393147Y-122704443D01*
X143398192Y-122712860D01*
X143402388Y-122721732D01*
X143405694Y-122730972D01*
X143408079Y-122740491D01*
X143409518Y-122750198D01*
X143410000Y-122760000D01*
X143410000Y-122960000D01*
X143409518Y-122969802D01*
X143408079Y-122979509D01*
X143405694Y-122989028D01*
X143402388Y-122998268D01*
X143398192Y-123007140D01*
X143393147Y-123015557D01*
X143387301Y-123023439D01*
X143380711Y-123030711D01*
X143373439Y-123037301D01*
X143365557Y-123043147D01*
X143357140Y-123048192D01*
X143348268Y-123052388D01*
X143339028Y-123055694D01*
X143329509Y-123058079D01*
X143319802Y-123059518D01*
X143310000Y-123060000D01*
X143050000Y-123060000D01*
X143040198Y-123059518D01*
X143030491Y-123058079D01*
X143020972Y-123055694D01*
X143011732Y-123052388D01*
X143002860Y-123048192D01*
X142994443Y-123043147D01*
X142986561Y-123037301D01*
X142979289Y-123030711D01*
X142972699Y-123023439D01*
X142966853Y-123015557D01*
X142961808Y-123007140D01*
X142957612Y-122998268D01*
X142954306Y-122989028D01*
X142951921Y-122979509D01*
X142950482Y-122969802D01*
X142950000Y-122960000D01*
X142950000Y-122760000D01*
X142950482Y-122750198D01*
X142951921Y-122740491D01*
X142954306Y-122730972D01*
X142957612Y-122721732D01*
X142961808Y-122712860D01*
X142966853Y-122704443D01*
X142972699Y-122696561D01*
X142979289Y-122689289D01*
X142986561Y-122682699D01*
X142994443Y-122676853D01*
X143002860Y-122671808D01*
X143011732Y-122667612D01*
X143020972Y-122664306D01*
X143030491Y-122661921D01*
X143040198Y-122660482D01*
X143050000Y-122660000D01*
X143310000Y-122660000D01*
X143319802Y-122660482D01*
X143319802Y-122660482D01*
G37*
D17*
X143180000Y-122860000D03*
D16*
G36*
X142679802Y-122660482D02*
G01*
X142689509Y-122661921D01*
X142699028Y-122664306D01*
X142708268Y-122667612D01*
X142717140Y-122671808D01*
X142725557Y-122676853D01*
X142733439Y-122682699D01*
X142740711Y-122689289D01*
X142747301Y-122696561D01*
X142753147Y-122704443D01*
X142758192Y-122712860D01*
X142762388Y-122721732D01*
X142765694Y-122730972D01*
X142768079Y-122740491D01*
X142769518Y-122750198D01*
X142770000Y-122760000D01*
X142770000Y-122960000D01*
X142769518Y-122969802D01*
X142768079Y-122979509D01*
X142765694Y-122989028D01*
X142762388Y-122998268D01*
X142758192Y-123007140D01*
X142753147Y-123015557D01*
X142747301Y-123023439D01*
X142740711Y-123030711D01*
X142733439Y-123037301D01*
X142725557Y-123043147D01*
X142717140Y-123048192D01*
X142708268Y-123052388D01*
X142699028Y-123055694D01*
X142689509Y-123058079D01*
X142679802Y-123059518D01*
X142670000Y-123060000D01*
X142410000Y-123060000D01*
X142400198Y-123059518D01*
X142390491Y-123058079D01*
X142380972Y-123055694D01*
X142371732Y-123052388D01*
X142362860Y-123048192D01*
X142354443Y-123043147D01*
X142346561Y-123037301D01*
X142339289Y-123030711D01*
X142332699Y-123023439D01*
X142326853Y-123015557D01*
X142321808Y-123007140D01*
X142317612Y-122998268D01*
X142314306Y-122989028D01*
X142311921Y-122979509D01*
X142310482Y-122969802D01*
X142310000Y-122960000D01*
X142310000Y-122760000D01*
X142310482Y-122750198D01*
X142311921Y-122740491D01*
X142314306Y-122730972D01*
X142317612Y-122721732D01*
X142321808Y-122712860D01*
X142326853Y-122704443D01*
X142332699Y-122696561D01*
X142339289Y-122689289D01*
X142346561Y-122682699D01*
X142354443Y-122676853D01*
X142362860Y-122671808D01*
X142371732Y-122667612D01*
X142380972Y-122664306D01*
X142390491Y-122661921D01*
X142400198Y-122660482D01*
X142410000Y-122660000D01*
X142670000Y-122660000D01*
X142679802Y-122660482D01*
X142679802Y-122660482D01*
G37*
D17*
X142540000Y-122860000D03*
D16*
G36*
X140744802Y-122660482D02*
G01*
X140754509Y-122661921D01*
X140764028Y-122664306D01*
X140773268Y-122667612D01*
X140782140Y-122671808D01*
X140790557Y-122676853D01*
X140798439Y-122682699D01*
X140805711Y-122689289D01*
X140812301Y-122696561D01*
X140818147Y-122704443D01*
X140823192Y-122712860D01*
X140827388Y-122721732D01*
X140830694Y-122730972D01*
X140833079Y-122740491D01*
X140834518Y-122750198D01*
X140835000Y-122760000D01*
X140835000Y-122960000D01*
X140834518Y-122969802D01*
X140833079Y-122979509D01*
X140830694Y-122989028D01*
X140827388Y-122998268D01*
X140823192Y-123007140D01*
X140818147Y-123015557D01*
X140812301Y-123023439D01*
X140805711Y-123030711D01*
X140798439Y-123037301D01*
X140790557Y-123043147D01*
X140782140Y-123048192D01*
X140773268Y-123052388D01*
X140764028Y-123055694D01*
X140754509Y-123058079D01*
X140744802Y-123059518D01*
X140735000Y-123060000D01*
X140475000Y-123060000D01*
X140465198Y-123059518D01*
X140455491Y-123058079D01*
X140445972Y-123055694D01*
X140436732Y-123052388D01*
X140427860Y-123048192D01*
X140419443Y-123043147D01*
X140411561Y-123037301D01*
X140404289Y-123030711D01*
X140397699Y-123023439D01*
X140391853Y-123015557D01*
X140386808Y-123007140D01*
X140382612Y-122998268D01*
X140379306Y-122989028D01*
X140376921Y-122979509D01*
X140375482Y-122969802D01*
X140375000Y-122960000D01*
X140375000Y-122760000D01*
X140375482Y-122750198D01*
X140376921Y-122740491D01*
X140379306Y-122730972D01*
X140382612Y-122721732D01*
X140386808Y-122712860D01*
X140391853Y-122704443D01*
X140397699Y-122696561D01*
X140404289Y-122689289D01*
X140411561Y-122682699D01*
X140419443Y-122676853D01*
X140427860Y-122671808D01*
X140436732Y-122667612D01*
X140445972Y-122664306D01*
X140455491Y-122661921D01*
X140465198Y-122660482D01*
X140475000Y-122660000D01*
X140735000Y-122660000D01*
X140744802Y-122660482D01*
X140744802Y-122660482D01*
G37*
D17*
X140605000Y-122860000D03*
D16*
G36*
X141384802Y-122660482D02*
G01*
X141394509Y-122661921D01*
X141404028Y-122664306D01*
X141413268Y-122667612D01*
X141422140Y-122671808D01*
X141430557Y-122676853D01*
X141438439Y-122682699D01*
X141445711Y-122689289D01*
X141452301Y-122696561D01*
X141458147Y-122704443D01*
X141463192Y-122712860D01*
X141467388Y-122721732D01*
X141470694Y-122730972D01*
X141473079Y-122740491D01*
X141474518Y-122750198D01*
X141475000Y-122760000D01*
X141475000Y-122960000D01*
X141474518Y-122969802D01*
X141473079Y-122979509D01*
X141470694Y-122989028D01*
X141467388Y-122998268D01*
X141463192Y-123007140D01*
X141458147Y-123015557D01*
X141452301Y-123023439D01*
X141445711Y-123030711D01*
X141438439Y-123037301D01*
X141430557Y-123043147D01*
X141422140Y-123048192D01*
X141413268Y-123052388D01*
X141404028Y-123055694D01*
X141394509Y-123058079D01*
X141384802Y-123059518D01*
X141375000Y-123060000D01*
X141115000Y-123060000D01*
X141105198Y-123059518D01*
X141095491Y-123058079D01*
X141085972Y-123055694D01*
X141076732Y-123052388D01*
X141067860Y-123048192D01*
X141059443Y-123043147D01*
X141051561Y-123037301D01*
X141044289Y-123030711D01*
X141037699Y-123023439D01*
X141031853Y-123015557D01*
X141026808Y-123007140D01*
X141022612Y-122998268D01*
X141019306Y-122989028D01*
X141016921Y-122979509D01*
X141015482Y-122969802D01*
X141015000Y-122960000D01*
X141015000Y-122760000D01*
X141015482Y-122750198D01*
X141016921Y-122740491D01*
X141019306Y-122730972D01*
X141022612Y-122721732D01*
X141026808Y-122712860D01*
X141031853Y-122704443D01*
X141037699Y-122696561D01*
X141044289Y-122689289D01*
X141051561Y-122682699D01*
X141059443Y-122676853D01*
X141067860Y-122671808D01*
X141076732Y-122667612D01*
X141085972Y-122664306D01*
X141095491Y-122661921D01*
X141105198Y-122660482D01*
X141115000Y-122660000D01*
X141375000Y-122660000D01*
X141384802Y-122660482D01*
X141384802Y-122660482D01*
G37*
D17*
X141245000Y-122860000D03*
D16*
G36*
X134228802Y-109955482D02*
G01*
X134238509Y-109956921D01*
X134248028Y-109959306D01*
X134257268Y-109962612D01*
X134266140Y-109966808D01*
X134274557Y-109971853D01*
X134282439Y-109977699D01*
X134289711Y-109984289D01*
X134296301Y-109991561D01*
X134302147Y-109999443D01*
X134307192Y-110007860D01*
X134311388Y-110016732D01*
X134314694Y-110025972D01*
X134317079Y-110035491D01*
X134318518Y-110045198D01*
X134319000Y-110055000D01*
X134319000Y-110255000D01*
X134318518Y-110264802D01*
X134317079Y-110274509D01*
X134314694Y-110284028D01*
X134311388Y-110293268D01*
X134307192Y-110302140D01*
X134302147Y-110310557D01*
X134296301Y-110318439D01*
X134289711Y-110325711D01*
X134282439Y-110332301D01*
X134274557Y-110338147D01*
X134266140Y-110343192D01*
X134257268Y-110347388D01*
X134248028Y-110350694D01*
X134238509Y-110353079D01*
X134228802Y-110354518D01*
X134219000Y-110355000D01*
X133959000Y-110355000D01*
X133949198Y-110354518D01*
X133939491Y-110353079D01*
X133929972Y-110350694D01*
X133920732Y-110347388D01*
X133911860Y-110343192D01*
X133903443Y-110338147D01*
X133895561Y-110332301D01*
X133888289Y-110325711D01*
X133881699Y-110318439D01*
X133875853Y-110310557D01*
X133870808Y-110302140D01*
X133866612Y-110293268D01*
X133863306Y-110284028D01*
X133860921Y-110274509D01*
X133859482Y-110264802D01*
X133859000Y-110255000D01*
X133859000Y-110055000D01*
X133859482Y-110045198D01*
X133860921Y-110035491D01*
X133863306Y-110025972D01*
X133866612Y-110016732D01*
X133870808Y-110007860D01*
X133875853Y-109999443D01*
X133881699Y-109991561D01*
X133888289Y-109984289D01*
X133895561Y-109977699D01*
X133903443Y-109971853D01*
X133911860Y-109966808D01*
X133920732Y-109962612D01*
X133929972Y-109959306D01*
X133939491Y-109956921D01*
X133949198Y-109955482D01*
X133959000Y-109955000D01*
X134219000Y-109955000D01*
X134228802Y-109955482D01*
X134228802Y-109955482D01*
G37*
D17*
X134089000Y-110155000D03*
D16*
G36*
X134868802Y-109955482D02*
G01*
X134878509Y-109956921D01*
X134888028Y-109959306D01*
X134897268Y-109962612D01*
X134906140Y-109966808D01*
X134914557Y-109971853D01*
X134922439Y-109977699D01*
X134929711Y-109984289D01*
X134936301Y-109991561D01*
X134942147Y-109999443D01*
X134947192Y-110007860D01*
X134951388Y-110016732D01*
X134954694Y-110025972D01*
X134957079Y-110035491D01*
X134958518Y-110045198D01*
X134959000Y-110055000D01*
X134959000Y-110255000D01*
X134958518Y-110264802D01*
X134957079Y-110274509D01*
X134954694Y-110284028D01*
X134951388Y-110293268D01*
X134947192Y-110302140D01*
X134942147Y-110310557D01*
X134936301Y-110318439D01*
X134929711Y-110325711D01*
X134922439Y-110332301D01*
X134914557Y-110338147D01*
X134906140Y-110343192D01*
X134897268Y-110347388D01*
X134888028Y-110350694D01*
X134878509Y-110353079D01*
X134868802Y-110354518D01*
X134859000Y-110355000D01*
X134599000Y-110355000D01*
X134589198Y-110354518D01*
X134579491Y-110353079D01*
X134569972Y-110350694D01*
X134560732Y-110347388D01*
X134551860Y-110343192D01*
X134543443Y-110338147D01*
X134535561Y-110332301D01*
X134528289Y-110325711D01*
X134521699Y-110318439D01*
X134515853Y-110310557D01*
X134510808Y-110302140D01*
X134506612Y-110293268D01*
X134503306Y-110284028D01*
X134500921Y-110274509D01*
X134499482Y-110264802D01*
X134499000Y-110255000D01*
X134499000Y-110055000D01*
X134499482Y-110045198D01*
X134500921Y-110035491D01*
X134503306Y-110025972D01*
X134506612Y-110016732D01*
X134510808Y-110007860D01*
X134515853Y-109999443D01*
X134521699Y-109991561D01*
X134528289Y-109984289D01*
X134535561Y-109977699D01*
X134543443Y-109971853D01*
X134551860Y-109966808D01*
X134560732Y-109962612D01*
X134569972Y-109959306D01*
X134579491Y-109956921D01*
X134589198Y-109955482D01*
X134599000Y-109955000D01*
X134859000Y-109955000D01*
X134868802Y-109955482D01*
X134868802Y-109955482D01*
G37*
D17*
X134729000Y-110155000D03*
D16*
G36*
X141294802Y-120120482D02*
G01*
X141304509Y-120121921D01*
X141314028Y-120124306D01*
X141323268Y-120127612D01*
X141332140Y-120131808D01*
X141340557Y-120136853D01*
X141348439Y-120142699D01*
X141355711Y-120149289D01*
X141362301Y-120156561D01*
X141368147Y-120164443D01*
X141373192Y-120172860D01*
X141377388Y-120181732D01*
X141380694Y-120190972D01*
X141383079Y-120200491D01*
X141384518Y-120210198D01*
X141385000Y-120220000D01*
X141385000Y-120420000D01*
X141384518Y-120429802D01*
X141383079Y-120439509D01*
X141380694Y-120449028D01*
X141377388Y-120458268D01*
X141373192Y-120467140D01*
X141368147Y-120475557D01*
X141362301Y-120483439D01*
X141355711Y-120490711D01*
X141348439Y-120497301D01*
X141340557Y-120503147D01*
X141332140Y-120508192D01*
X141323268Y-120512388D01*
X141314028Y-120515694D01*
X141304509Y-120518079D01*
X141294802Y-120519518D01*
X141285000Y-120520000D01*
X141025000Y-120520000D01*
X141015198Y-120519518D01*
X141005491Y-120518079D01*
X140995972Y-120515694D01*
X140986732Y-120512388D01*
X140977860Y-120508192D01*
X140969443Y-120503147D01*
X140961561Y-120497301D01*
X140954289Y-120490711D01*
X140947699Y-120483439D01*
X140941853Y-120475557D01*
X140936808Y-120467140D01*
X140932612Y-120458268D01*
X140929306Y-120449028D01*
X140926921Y-120439509D01*
X140925482Y-120429802D01*
X140925000Y-120420000D01*
X140925000Y-120220000D01*
X140925482Y-120210198D01*
X140926921Y-120200491D01*
X140929306Y-120190972D01*
X140932612Y-120181732D01*
X140936808Y-120172860D01*
X140941853Y-120164443D01*
X140947699Y-120156561D01*
X140954289Y-120149289D01*
X140961561Y-120142699D01*
X140969443Y-120136853D01*
X140977860Y-120131808D01*
X140986732Y-120127612D01*
X140995972Y-120124306D01*
X141005491Y-120121921D01*
X141015198Y-120120482D01*
X141025000Y-120120000D01*
X141285000Y-120120000D01*
X141294802Y-120120482D01*
X141294802Y-120120482D01*
G37*
D17*
X141155000Y-120320000D03*
D16*
G36*
X140654802Y-120120482D02*
G01*
X140664509Y-120121921D01*
X140674028Y-120124306D01*
X140683268Y-120127612D01*
X140692140Y-120131808D01*
X140700557Y-120136853D01*
X140708439Y-120142699D01*
X140715711Y-120149289D01*
X140722301Y-120156561D01*
X140728147Y-120164443D01*
X140733192Y-120172860D01*
X140737388Y-120181732D01*
X140740694Y-120190972D01*
X140743079Y-120200491D01*
X140744518Y-120210198D01*
X140745000Y-120220000D01*
X140745000Y-120420000D01*
X140744518Y-120429802D01*
X140743079Y-120439509D01*
X140740694Y-120449028D01*
X140737388Y-120458268D01*
X140733192Y-120467140D01*
X140728147Y-120475557D01*
X140722301Y-120483439D01*
X140715711Y-120490711D01*
X140708439Y-120497301D01*
X140700557Y-120503147D01*
X140692140Y-120508192D01*
X140683268Y-120512388D01*
X140674028Y-120515694D01*
X140664509Y-120518079D01*
X140654802Y-120519518D01*
X140645000Y-120520000D01*
X140385000Y-120520000D01*
X140375198Y-120519518D01*
X140365491Y-120518079D01*
X140355972Y-120515694D01*
X140346732Y-120512388D01*
X140337860Y-120508192D01*
X140329443Y-120503147D01*
X140321561Y-120497301D01*
X140314289Y-120490711D01*
X140307699Y-120483439D01*
X140301853Y-120475557D01*
X140296808Y-120467140D01*
X140292612Y-120458268D01*
X140289306Y-120449028D01*
X140286921Y-120439509D01*
X140285482Y-120429802D01*
X140285000Y-120420000D01*
X140285000Y-120220000D01*
X140285482Y-120210198D01*
X140286921Y-120200491D01*
X140289306Y-120190972D01*
X140292612Y-120181732D01*
X140296808Y-120172860D01*
X140301853Y-120164443D01*
X140307699Y-120156561D01*
X140314289Y-120149289D01*
X140321561Y-120142699D01*
X140329443Y-120136853D01*
X140337860Y-120131808D01*
X140346732Y-120127612D01*
X140355972Y-120124306D01*
X140365491Y-120121921D01*
X140375198Y-120120482D01*
X140385000Y-120120000D01*
X140645000Y-120120000D01*
X140654802Y-120120482D01*
X140654802Y-120120482D01*
G37*
D17*
X140515000Y-120320000D03*
D16*
G36*
X141099802Y-130280482D02*
G01*
X141109509Y-130281921D01*
X141119028Y-130284306D01*
X141128268Y-130287612D01*
X141137140Y-130291808D01*
X141145557Y-130296853D01*
X141153439Y-130302699D01*
X141160711Y-130309289D01*
X141167301Y-130316561D01*
X141173147Y-130324443D01*
X141178192Y-130332860D01*
X141182388Y-130341732D01*
X141185694Y-130350972D01*
X141188079Y-130360491D01*
X141189518Y-130370198D01*
X141190000Y-130380000D01*
X141190000Y-130580000D01*
X141189518Y-130589802D01*
X141188079Y-130599509D01*
X141185694Y-130609028D01*
X141182388Y-130618268D01*
X141178192Y-130627140D01*
X141173147Y-130635557D01*
X141167301Y-130643439D01*
X141160711Y-130650711D01*
X141153439Y-130657301D01*
X141145557Y-130663147D01*
X141137140Y-130668192D01*
X141128268Y-130672388D01*
X141119028Y-130675694D01*
X141109509Y-130678079D01*
X141099802Y-130679518D01*
X141090000Y-130680000D01*
X140830000Y-130680000D01*
X140820198Y-130679518D01*
X140810491Y-130678079D01*
X140800972Y-130675694D01*
X140791732Y-130672388D01*
X140782860Y-130668192D01*
X140774443Y-130663147D01*
X140766561Y-130657301D01*
X140759289Y-130650711D01*
X140752699Y-130643439D01*
X140746853Y-130635557D01*
X140741808Y-130627140D01*
X140737612Y-130618268D01*
X140734306Y-130609028D01*
X140731921Y-130599509D01*
X140730482Y-130589802D01*
X140730000Y-130580000D01*
X140730000Y-130380000D01*
X140730482Y-130370198D01*
X140731921Y-130360491D01*
X140734306Y-130350972D01*
X140737612Y-130341732D01*
X140741808Y-130332860D01*
X140746853Y-130324443D01*
X140752699Y-130316561D01*
X140759289Y-130309289D01*
X140766561Y-130302699D01*
X140774443Y-130296853D01*
X140782860Y-130291808D01*
X140791732Y-130287612D01*
X140800972Y-130284306D01*
X140810491Y-130281921D01*
X140820198Y-130280482D01*
X140830000Y-130280000D01*
X141090000Y-130280000D01*
X141099802Y-130280482D01*
X141099802Y-130280482D01*
G37*
D17*
X140960000Y-130480000D03*
D16*
G36*
X140459802Y-130280482D02*
G01*
X140469509Y-130281921D01*
X140479028Y-130284306D01*
X140488268Y-130287612D01*
X140497140Y-130291808D01*
X140505557Y-130296853D01*
X140513439Y-130302699D01*
X140520711Y-130309289D01*
X140527301Y-130316561D01*
X140533147Y-130324443D01*
X140538192Y-130332860D01*
X140542388Y-130341732D01*
X140545694Y-130350972D01*
X140548079Y-130360491D01*
X140549518Y-130370198D01*
X140550000Y-130380000D01*
X140550000Y-130580000D01*
X140549518Y-130589802D01*
X140548079Y-130599509D01*
X140545694Y-130609028D01*
X140542388Y-130618268D01*
X140538192Y-130627140D01*
X140533147Y-130635557D01*
X140527301Y-130643439D01*
X140520711Y-130650711D01*
X140513439Y-130657301D01*
X140505557Y-130663147D01*
X140497140Y-130668192D01*
X140488268Y-130672388D01*
X140479028Y-130675694D01*
X140469509Y-130678079D01*
X140459802Y-130679518D01*
X140450000Y-130680000D01*
X140190000Y-130680000D01*
X140180198Y-130679518D01*
X140170491Y-130678079D01*
X140160972Y-130675694D01*
X140151732Y-130672388D01*
X140142860Y-130668192D01*
X140134443Y-130663147D01*
X140126561Y-130657301D01*
X140119289Y-130650711D01*
X140112699Y-130643439D01*
X140106853Y-130635557D01*
X140101808Y-130627140D01*
X140097612Y-130618268D01*
X140094306Y-130609028D01*
X140091921Y-130599509D01*
X140090482Y-130589802D01*
X140090000Y-130580000D01*
X140090000Y-130380000D01*
X140090482Y-130370198D01*
X140091921Y-130360491D01*
X140094306Y-130350972D01*
X140097612Y-130341732D01*
X140101808Y-130332860D01*
X140106853Y-130324443D01*
X140112699Y-130316561D01*
X140119289Y-130309289D01*
X140126561Y-130302699D01*
X140134443Y-130296853D01*
X140142860Y-130291808D01*
X140151732Y-130287612D01*
X140160972Y-130284306D01*
X140170491Y-130281921D01*
X140180198Y-130280482D01*
X140190000Y-130280000D01*
X140450000Y-130280000D01*
X140459802Y-130280482D01*
X140459802Y-130280482D01*
G37*
D17*
X140320000Y-130480000D03*
D16*
G36*
X140459802Y-126470482D02*
G01*
X140469509Y-126471921D01*
X140479028Y-126474306D01*
X140488268Y-126477612D01*
X140497140Y-126481808D01*
X140505557Y-126486853D01*
X140513439Y-126492699D01*
X140520711Y-126499289D01*
X140527301Y-126506561D01*
X140533147Y-126514443D01*
X140538192Y-126522860D01*
X140542388Y-126531732D01*
X140545694Y-126540972D01*
X140548079Y-126550491D01*
X140549518Y-126560198D01*
X140550000Y-126570000D01*
X140550000Y-126770000D01*
X140549518Y-126779802D01*
X140548079Y-126789509D01*
X140545694Y-126799028D01*
X140542388Y-126808268D01*
X140538192Y-126817140D01*
X140533147Y-126825557D01*
X140527301Y-126833439D01*
X140520711Y-126840711D01*
X140513439Y-126847301D01*
X140505557Y-126853147D01*
X140497140Y-126858192D01*
X140488268Y-126862388D01*
X140479028Y-126865694D01*
X140469509Y-126868079D01*
X140459802Y-126869518D01*
X140450000Y-126870000D01*
X140190000Y-126870000D01*
X140180198Y-126869518D01*
X140170491Y-126868079D01*
X140160972Y-126865694D01*
X140151732Y-126862388D01*
X140142860Y-126858192D01*
X140134443Y-126853147D01*
X140126561Y-126847301D01*
X140119289Y-126840711D01*
X140112699Y-126833439D01*
X140106853Y-126825557D01*
X140101808Y-126817140D01*
X140097612Y-126808268D01*
X140094306Y-126799028D01*
X140091921Y-126789509D01*
X140090482Y-126779802D01*
X140090000Y-126770000D01*
X140090000Y-126570000D01*
X140090482Y-126560198D01*
X140091921Y-126550491D01*
X140094306Y-126540972D01*
X140097612Y-126531732D01*
X140101808Y-126522860D01*
X140106853Y-126514443D01*
X140112699Y-126506561D01*
X140119289Y-126499289D01*
X140126561Y-126492699D01*
X140134443Y-126486853D01*
X140142860Y-126481808D01*
X140151732Y-126477612D01*
X140160972Y-126474306D01*
X140170491Y-126471921D01*
X140180198Y-126470482D01*
X140190000Y-126470000D01*
X140450000Y-126470000D01*
X140459802Y-126470482D01*
X140459802Y-126470482D01*
G37*
D17*
X140320000Y-126670000D03*
D16*
G36*
X141099802Y-126470482D02*
G01*
X141109509Y-126471921D01*
X141119028Y-126474306D01*
X141128268Y-126477612D01*
X141137140Y-126481808D01*
X141145557Y-126486853D01*
X141153439Y-126492699D01*
X141160711Y-126499289D01*
X141167301Y-126506561D01*
X141173147Y-126514443D01*
X141178192Y-126522860D01*
X141182388Y-126531732D01*
X141185694Y-126540972D01*
X141188079Y-126550491D01*
X141189518Y-126560198D01*
X141190000Y-126570000D01*
X141190000Y-126770000D01*
X141189518Y-126779802D01*
X141188079Y-126789509D01*
X141185694Y-126799028D01*
X141182388Y-126808268D01*
X141178192Y-126817140D01*
X141173147Y-126825557D01*
X141167301Y-126833439D01*
X141160711Y-126840711D01*
X141153439Y-126847301D01*
X141145557Y-126853147D01*
X141137140Y-126858192D01*
X141128268Y-126862388D01*
X141119028Y-126865694D01*
X141109509Y-126868079D01*
X141099802Y-126869518D01*
X141090000Y-126870000D01*
X140830000Y-126870000D01*
X140820198Y-126869518D01*
X140810491Y-126868079D01*
X140800972Y-126865694D01*
X140791732Y-126862388D01*
X140782860Y-126858192D01*
X140774443Y-126853147D01*
X140766561Y-126847301D01*
X140759289Y-126840711D01*
X140752699Y-126833439D01*
X140746853Y-126825557D01*
X140741808Y-126817140D01*
X140737612Y-126808268D01*
X140734306Y-126799028D01*
X140731921Y-126789509D01*
X140730482Y-126779802D01*
X140730000Y-126770000D01*
X140730000Y-126570000D01*
X140730482Y-126560198D01*
X140731921Y-126550491D01*
X140734306Y-126540972D01*
X140737612Y-126531732D01*
X140741808Y-126522860D01*
X140746853Y-126514443D01*
X140752699Y-126506561D01*
X140759289Y-126499289D01*
X140766561Y-126492699D01*
X140774443Y-126486853D01*
X140782860Y-126481808D01*
X140791732Y-126477612D01*
X140800972Y-126474306D01*
X140810491Y-126471921D01*
X140820198Y-126470482D01*
X140830000Y-126470000D01*
X141090000Y-126470000D01*
X141099802Y-126470482D01*
X141099802Y-126470482D01*
G37*
D17*
X140960000Y-126670000D03*
D16*
G36*
X123985802Y-111230482D02*
G01*
X123995509Y-111231921D01*
X124005028Y-111234306D01*
X124014268Y-111237612D01*
X124023140Y-111241808D01*
X124031557Y-111246853D01*
X124039439Y-111252699D01*
X124046711Y-111259289D01*
X124053301Y-111266561D01*
X124059147Y-111274443D01*
X124064192Y-111282860D01*
X124068388Y-111291732D01*
X124071694Y-111300972D01*
X124074079Y-111310491D01*
X124075518Y-111320198D01*
X124076000Y-111330000D01*
X124076000Y-111530000D01*
X124075518Y-111539802D01*
X124074079Y-111549509D01*
X124071694Y-111559028D01*
X124068388Y-111568268D01*
X124064192Y-111577140D01*
X124059147Y-111585557D01*
X124053301Y-111593439D01*
X124046711Y-111600711D01*
X124039439Y-111607301D01*
X124031557Y-111613147D01*
X124023140Y-111618192D01*
X124014268Y-111622388D01*
X124005028Y-111625694D01*
X123995509Y-111628079D01*
X123985802Y-111629518D01*
X123976000Y-111630000D01*
X123716000Y-111630000D01*
X123706198Y-111629518D01*
X123696491Y-111628079D01*
X123686972Y-111625694D01*
X123677732Y-111622388D01*
X123668860Y-111618192D01*
X123660443Y-111613147D01*
X123652561Y-111607301D01*
X123645289Y-111600711D01*
X123638699Y-111593439D01*
X123632853Y-111585557D01*
X123627808Y-111577140D01*
X123623612Y-111568268D01*
X123620306Y-111559028D01*
X123617921Y-111549509D01*
X123616482Y-111539802D01*
X123616000Y-111530000D01*
X123616000Y-111330000D01*
X123616482Y-111320198D01*
X123617921Y-111310491D01*
X123620306Y-111300972D01*
X123623612Y-111291732D01*
X123627808Y-111282860D01*
X123632853Y-111274443D01*
X123638699Y-111266561D01*
X123645289Y-111259289D01*
X123652561Y-111252699D01*
X123660443Y-111246853D01*
X123668860Y-111241808D01*
X123677732Y-111237612D01*
X123686972Y-111234306D01*
X123696491Y-111231921D01*
X123706198Y-111230482D01*
X123716000Y-111230000D01*
X123976000Y-111230000D01*
X123985802Y-111230482D01*
X123985802Y-111230482D01*
G37*
D17*
X123846000Y-111430000D03*
D16*
G36*
X124625802Y-111230482D02*
G01*
X124635509Y-111231921D01*
X124645028Y-111234306D01*
X124654268Y-111237612D01*
X124663140Y-111241808D01*
X124671557Y-111246853D01*
X124679439Y-111252699D01*
X124686711Y-111259289D01*
X124693301Y-111266561D01*
X124699147Y-111274443D01*
X124704192Y-111282860D01*
X124708388Y-111291732D01*
X124711694Y-111300972D01*
X124714079Y-111310491D01*
X124715518Y-111320198D01*
X124716000Y-111330000D01*
X124716000Y-111530000D01*
X124715518Y-111539802D01*
X124714079Y-111549509D01*
X124711694Y-111559028D01*
X124708388Y-111568268D01*
X124704192Y-111577140D01*
X124699147Y-111585557D01*
X124693301Y-111593439D01*
X124686711Y-111600711D01*
X124679439Y-111607301D01*
X124671557Y-111613147D01*
X124663140Y-111618192D01*
X124654268Y-111622388D01*
X124645028Y-111625694D01*
X124635509Y-111628079D01*
X124625802Y-111629518D01*
X124616000Y-111630000D01*
X124356000Y-111630000D01*
X124346198Y-111629518D01*
X124336491Y-111628079D01*
X124326972Y-111625694D01*
X124317732Y-111622388D01*
X124308860Y-111618192D01*
X124300443Y-111613147D01*
X124292561Y-111607301D01*
X124285289Y-111600711D01*
X124278699Y-111593439D01*
X124272853Y-111585557D01*
X124267808Y-111577140D01*
X124263612Y-111568268D01*
X124260306Y-111559028D01*
X124257921Y-111549509D01*
X124256482Y-111539802D01*
X124256000Y-111530000D01*
X124256000Y-111330000D01*
X124256482Y-111320198D01*
X124257921Y-111310491D01*
X124260306Y-111300972D01*
X124263612Y-111291732D01*
X124267808Y-111282860D01*
X124272853Y-111274443D01*
X124278699Y-111266561D01*
X124285289Y-111259289D01*
X124292561Y-111252699D01*
X124300443Y-111246853D01*
X124308860Y-111241808D01*
X124317732Y-111237612D01*
X124326972Y-111234306D01*
X124336491Y-111231921D01*
X124346198Y-111230482D01*
X124356000Y-111230000D01*
X124616000Y-111230000D01*
X124625802Y-111230482D01*
X124625802Y-111230482D01*
G37*
D17*
X124486000Y-111430000D03*
D16*
G36*
X124589802Y-109960482D02*
G01*
X124599509Y-109961921D01*
X124609028Y-109964306D01*
X124618268Y-109967612D01*
X124627140Y-109971808D01*
X124635557Y-109976853D01*
X124643439Y-109982699D01*
X124650711Y-109989289D01*
X124657301Y-109996561D01*
X124663147Y-110004443D01*
X124668192Y-110012860D01*
X124672388Y-110021732D01*
X124675694Y-110030972D01*
X124678079Y-110040491D01*
X124679518Y-110050198D01*
X124680000Y-110060000D01*
X124680000Y-110260000D01*
X124679518Y-110269802D01*
X124678079Y-110279509D01*
X124675694Y-110289028D01*
X124672388Y-110298268D01*
X124668192Y-110307140D01*
X124663147Y-110315557D01*
X124657301Y-110323439D01*
X124650711Y-110330711D01*
X124643439Y-110337301D01*
X124635557Y-110343147D01*
X124627140Y-110348192D01*
X124618268Y-110352388D01*
X124609028Y-110355694D01*
X124599509Y-110358079D01*
X124589802Y-110359518D01*
X124580000Y-110360000D01*
X124320000Y-110360000D01*
X124310198Y-110359518D01*
X124300491Y-110358079D01*
X124290972Y-110355694D01*
X124281732Y-110352388D01*
X124272860Y-110348192D01*
X124264443Y-110343147D01*
X124256561Y-110337301D01*
X124249289Y-110330711D01*
X124242699Y-110323439D01*
X124236853Y-110315557D01*
X124231808Y-110307140D01*
X124227612Y-110298268D01*
X124224306Y-110289028D01*
X124221921Y-110279509D01*
X124220482Y-110269802D01*
X124220000Y-110260000D01*
X124220000Y-110060000D01*
X124220482Y-110050198D01*
X124221921Y-110040491D01*
X124224306Y-110030972D01*
X124227612Y-110021732D01*
X124231808Y-110012860D01*
X124236853Y-110004443D01*
X124242699Y-109996561D01*
X124249289Y-109989289D01*
X124256561Y-109982699D01*
X124264443Y-109976853D01*
X124272860Y-109971808D01*
X124281732Y-109967612D01*
X124290972Y-109964306D01*
X124300491Y-109961921D01*
X124310198Y-109960482D01*
X124320000Y-109960000D01*
X124580000Y-109960000D01*
X124589802Y-109960482D01*
X124589802Y-109960482D01*
G37*
D17*
X124450000Y-110160000D03*
D16*
G36*
X123949802Y-109960482D02*
G01*
X123959509Y-109961921D01*
X123969028Y-109964306D01*
X123978268Y-109967612D01*
X123987140Y-109971808D01*
X123995557Y-109976853D01*
X124003439Y-109982699D01*
X124010711Y-109989289D01*
X124017301Y-109996561D01*
X124023147Y-110004443D01*
X124028192Y-110012860D01*
X124032388Y-110021732D01*
X124035694Y-110030972D01*
X124038079Y-110040491D01*
X124039518Y-110050198D01*
X124040000Y-110060000D01*
X124040000Y-110260000D01*
X124039518Y-110269802D01*
X124038079Y-110279509D01*
X124035694Y-110289028D01*
X124032388Y-110298268D01*
X124028192Y-110307140D01*
X124023147Y-110315557D01*
X124017301Y-110323439D01*
X124010711Y-110330711D01*
X124003439Y-110337301D01*
X123995557Y-110343147D01*
X123987140Y-110348192D01*
X123978268Y-110352388D01*
X123969028Y-110355694D01*
X123959509Y-110358079D01*
X123949802Y-110359518D01*
X123940000Y-110360000D01*
X123680000Y-110360000D01*
X123670198Y-110359518D01*
X123660491Y-110358079D01*
X123650972Y-110355694D01*
X123641732Y-110352388D01*
X123632860Y-110348192D01*
X123624443Y-110343147D01*
X123616561Y-110337301D01*
X123609289Y-110330711D01*
X123602699Y-110323439D01*
X123596853Y-110315557D01*
X123591808Y-110307140D01*
X123587612Y-110298268D01*
X123584306Y-110289028D01*
X123581921Y-110279509D01*
X123580482Y-110269802D01*
X123580000Y-110260000D01*
X123580000Y-110060000D01*
X123580482Y-110050198D01*
X123581921Y-110040491D01*
X123584306Y-110030972D01*
X123587612Y-110021732D01*
X123591808Y-110012860D01*
X123596853Y-110004443D01*
X123602699Y-109996561D01*
X123609289Y-109989289D01*
X123616561Y-109982699D01*
X123624443Y-109976853D01*
X123632860Y-109971808D01*
X123641732Y-109967612D01*
X123650972Y-109964306D01*
X123660491Y-109961921D01*
X123670198Y-109960482D01*
X123680000Y-109960000D01*
X123940000Y-109960000D01*
X123949802Y-109960482D01*
X123949802Y-109960482D01*
G37*
D17*
X123810000Y-110160000D03*
D18*
X130406000Y-119131000D03*
D19*
X134328000Y-126683000D03*
X135598000Y-126683000D03*
X136868000Y-126683000D03*
X136855000Y-130594000D03*
X135585000Y-130594000D03*
X134315000Y-130594000D03*
D15*
X102540000Y-108026000D03*
X105080000Y-108026000D03*
X102540000Y-110566000D03*
X105080000Y-110566000D03*
X102540000Y-113106000D03*
X105080000Y-113106000D03*
X102540000Y-115646000D03*
X105080000Y-115646000D03*
X102540000Y-118186000D03*
X105080000Y-118186000D03*
X102540000Y-120726000D03*
X105080000Y-120726000D03*
X102540000Y-123266000D03*
X105080000Y-123266000D03*
X102540000Y-125806000D03*
D14*
X105080000Y-125806000D03*
X180010000Y-108255000D03*
D15*
X182550000Y-108255000D03*
X180010000Y-110795000D03*
X182550000Y-110795000D03*
X180010000Y-113335000D03*
X182550000Y-113335000D03*
X180010000Y-115875000D03*
X182550000Y-115875000D03*
X180010000Y-118415000D03*
X182550000Y-118415000D03*
X180010000Y-120955000D03*
X182550000Y-120955000D03*
X180010000Y-123495000D03*
X182550000Y-123495000D03*
X180010000Y-126035000D03*
X182550000Y-126035000D03*
D20*
X142500300Y-108752000D03*
X145113400Y-108752000D03*
X132230900Y-111788000D03*
X124991100Y-108752000D03*
X126066500Y-108644700D03*
X140757000Y-119484000D03*
X127116200Y-106058600D03*
X130995500Y-106058600D03*
X111000000Y-101186600D03*
X113000000Y-101186600D03*
X145000000Y-101186600D03*
X133000000Y-101186600D03*
X133000000Y-106048500D03*
X115030400Y-101186600D03*
X118909700Y-101186600D03*
X121000000Y-101186600D03*
X123000000Y-101186600D03*
X125000000Y-101186600D03*
X127116200Y-101186600D03*
X127894500Y-103839800D03*
X130995500Y-101186600D03*
X135000000Y-101186600D03*
X137000000Y-101186600D03*
X137799700Y-103965400D03*
X140066000Y-104000000D03*
X143000000Y-101186600D03*
X120591600Y-108485500D03*
X123000000Y-106058600D03*
X133525100Y-108690600D03*
X135429800Y-108690600D03*
X137646900Y-108752000D03*
X140066000Y-108752000D03*
X143000000Y-106058600D03*
X111000000Y-106058600D03*
X113475400Y-108752000D03*
X115723000Y-108485500D03*
X118157300Y-108485500D03*
X127688700Y-115166900D03*
X128519500Y-115533100D03*
X129886500Y-114972500D03*
X132344200Y-112929000D03*
X139042900Y-117784800D03*
X136949000Y-124511000D03*
X136372400Y-122980900D03*
X135405800Y-122376300D03*
X134410100Y-121492600D03*
X133634100Y-121350600D03*
X133319100Y-120379200D03*
X136361000Y-116222700D03*
X142554200Y-128251600D03*
X141289100Y-128901500D03*
X139205900Y-118674900D03*
X135379900Y-128368000D03*
X132087700Y-116860900D03*
X133217500Y-111461400D03*
D21*
X140793800Y-127136200D02*
X141220000Y-127136200D01*
X141220000Y-127136200D02*
X141479800Y-126876400D01*
X141479800Y-126876400D02*
X141479800Y-126444700D01*
X141479800Y-126444700D02*
X140496300Y-125461200D01*
X140496300Y-125461200D02*
X135854600Y-125461200D01*
X135854600Y-125461200D02*
X131974000Y-121580600D01*
X131974000Y-121580600D02*
X131974000Y-121481000D01*
X140320000Y-126670000D02*
X140320000Y-126792400D01*
X140320000Y-126792400D02*
X140663800Y-127136200D01*
X140663800Y-127136200D02*
X140793800Y-127136200D01*
X140793800Y-127136200D02*
X140793800Y-129106600D01*
X140793800Y-129106600D02*
X140960000Y-129272800D01*
X140960000Y-129272800D02*
X140960000Y-130480000D01*
X133829700Y-119490800D02*
X133350500Y-119490800D01*
X133350500Y-119490800D02*
X131974000Y-120867300D01*
X131974000Y-120867300D02*
X131974000Y-121481000D01*
X123846000Y-111551200D02*
X123846000Y-111430000D01*
X102540000Y-130654700D02*
X102403100Y-130654700D01*
X102403100Y-130654700D02*
X100748500Y-129000100D01*
X100748500Y-129000100D02*
X100748500Y-113279600D01*
X100748500Y-113279600D02*
X102045700Y-111982400D01*
X102045700Y-111982400D02*
X123414800Y-111982400D01*
X123414800Y-111982400D02*
X123846000Y-111551200D01*
X123846000Y-111551200D02*
X124222700Y-111927900D01*
X124222700Y-111927900D02*
X130817300Y-111927900D01*
X130817300Y-111927900D02*
X133038900Y-109706300D01*
X133038900Y-109706300D02*
X134373300Y-109706300D01*
X134373300Y-109706300D02*
X134729000Y-110062000D01*
X134729000Y-110062000D02*
X134729000Y-110155000D01*
X140960000Y-130785800D02*
X180490500Y-130785800D01*
X180490500Y-130785800D02*
X181454700Y-131750000D01*
X102540000Y-131750000D02*
X139995800Y-131750000D01*
X139995800Y-131750000D02*
X140960000Y-130785800D01*
X140960000Y-130785800D02*
X140960000Y-130480000D01*
X182550000Y-131750000D02*
X181454700Y-131750000D01*
X123810000Y-110160000D02*
X123810000Y-111394000D01*
X123810000Y-111394000D02*
X123846000Y-111430000D01*
X102540000Y-131750000D02*
X102540000Y-130654700D01*
X141097300Y-110155000D02*
X142500300Y-108752000D01*
X134729000Y-110155000D02*
X141097300Y-110155000D01*
X141155000Y-120320000D02*
X141260200Y-120214800D01*
X141260200Y-120214800D02*
X141260200Y-110317900D01*
X141260200Y-110317900D02*
X141097300Y-110155000D01*
X134164400Y-119490800D02*
X133829700Y-119490800D01*
X142500300Y-108752000D02*
X143193300Y-108752000D01*
X143193300Y-108752000D02*
X144000000Y-107945300D01*
X144000000Y-106650000D02*
X144000000Y-107945300D01*
X135739000Y-121066000D02*
X135739000Y-119491000D01*
X135739000Y-119491000D02*
X136138000Y-119092000D01*
X136537000Y-117118000D02*
X136537000Y-118693000D01*
X136537000Y-118693000D02*
X136138000Y-119092000D01*
X146000000Y-106650000D02*
X146000000Y-107945300D01*
X145113400Y-108752000D02*
X145920100Y-107945300D01*
X145920100Y-107945300D02*
X146000000Y-107945300D01*
X138781100Y-119092000D02*
X138859400Y-119170300D01*
X138859400Y-119170300D02*
X139419000Y-119170300D01*
X139419000Y-119170300D02*
X139739600Y-118849700D01*
X139739600Y-118849700D02*
X139739600Y-117408000D01*
X139739600Y-117408000D02*
X134288300Y-111956700D01*
X134288300Y-111956700D02*
X132399600Y-111956700D01*
X132399600Y-111956700D02*
X132230900Y-111788000D01*
X138111600Y-119092000D02*
X138781100Y-119092000D01*
X124450000Y-108752000D02*
X124450000Y-108395300D01*
X124450000Y-108395300D02*
X124000000Y-107945300D01*
X124450000Y-110160000D02*
X124450000Y-108752000D01*
X124450000Y-108752000D02*
X124991100Y-108752000D01*
X124000000Y-106650000D02*
X124000000Y-107945300D01*
X126000000Y-108644700D02*
X126000000Y-106650000D01*
X124486000Y-111430000D02*
X126000000Y-109916000D01*
X126000000Y-109916000D02*
X126000000Y-108644700D01*
X126000000Y-108644700D02*
X126066500Y-108644700D01*
X138112000Y-119491000D02*
X140750000Y-119491000D01*
X140750000Y-119491000D02*
X140757000Y-119484000D01*
X138112000Y-119491000D02*
X138111800Y-119491000D01*
X138111800Y-119491000D02*
X138111600Y-119490800D01*
X128000000Y-106650000D02*
X128000000Y-105354700D01*
X127116200Y-106058600D02*
X127116200Y-105618600D01*
X127116200Y-105618600D02*
X127380100Y-105354700D01*
X127380100Y-105354700D02*
X128000000Y-105354700D01*
X130000000Y-106650000D02*
X130000000Y-105354700D01*
X130995500Y-106058600D02*
X130995500Y-105794500D01*
X130995500Y-105794500D02*
X130555700Y-105354700D01*
X130555700Y-105354700D02*
X130000000Y-105354700D01*
X111000000Y-101186600D02*
X111836600Y-101186600D01*
X111836600Y-101186600D02*
X112000000Y-101350000D01*
X113000000Y-101186600D02*
X113836600Y-101186600D01*
X113836600Y-101186600D02*
X114000000Y-101350000D01*
X145000000Y-101186600D02*
X145836600Y-101186600D01*
X145836600Y-101186600D02*
X146000000Y-101350000D01*
X144000000Y-101350000D02*
X144163400Y-101186600D01*
X144163400Y-101186600D02*
X145000000Y-101186600D01*
X133000000Y-101186600D02*
X132163400Y-101186600D01*
X132163400Y-101186600D02*
X132000000Y-101350000D01*
X132000000Y-106650000D02*
X132000000Y-105354700D01*
X133000000Y-106048500D02*
X133000000Y-105788200D01*
X133000000Y-105788200D02*
X132566500Y-105354700D01*
X132566500Y-105354700D02*
X132000000Y-105354700D01*
X115030400Y-101186600D02*
X115836600Y-101186600D01*
X115836600Y-101186600D02*
X116000000Y-101350000D01*
X118909700Y-101186600D02*
X118163400Y-101186600D01*
X118163400Y-101186600D02*
X118000000Y-101350000D01*
X121000000Y-101186600D02*
X120163400Y-101186600D01*
X120163400Y-101186600D02*
X120000000Y-101350000D01*
X123000000Y-101186600D02*
X122163400Y-101186600D01*
X122163400Y-101186600D02*
X122000000Y-101350000D01*
X125000000Y-101186600D02*
X124163400Y-101186600D01*
X124163400Y-101186600D02*
X124000000Y-101350000D01*
X127116200Y-101186600D02*
X126163400Y-101186600D01*
X126163400Y-101186600D02*
X126000000Y-101350000D01*
X127894500Y-103839800D02*
X128000000Y-103734300D01*
X128000000Y-103734300D02*
X128000000Y-101350000D01*
X130995500Y-101186600D02*
X130163400Y-101186600D01*
X130163400Y-101186600D02*
X130000000Y-101350000D01*
X135000000Y-101186600D02*
X134163400Y-101186600D01*
X134163400Y-101186600D02*
X134000000Y-101350000D01*
X137000000Y-101186600D02*
X136163400Y-101186600D01*
X136163400Y-101186600D02*
X136000000Y-101350000D01*
X137799700Y-103965400D02*
X138000000Y-103765100D01*
X138000000Y-103765100D02*
X138000000Y-101350000D01*
X140066000Y-104000000D02*
X140000000Y-103934000D01*
X140000000Y-103934000D02*
X140000000Y-101350000D01*
X143000000Y-101186600D02*
X142163400Y-101186600D01*
X142163400Y-101186600D02*
X142000000Y-101350000D01*
X120000000Y-106650000D02*
X120000000Y-107945300D01*
X120591600Y-108485500D02*
X120051400Y-107945300D01*
X120051400Y-107945300D02*
X120000000Y-107945300D01*
X122000000Y-106650000D02*
X122000000Y-105354700D01*
X123000000Y-106058600D02*
X123000000Y-105794500D01*
X123000000Y-105794500D02*
X122560200Y-105354700D01*
X122560200Y-105354700D02*
X122000000Y-105354700D01*
X133525100Y-108690600D02*
X134000000Y-108215700D01*
X134000000Y-108215700D02*
X134000000Y-106650000D01*
X135429800Y-108690600D02*
X136000000Y-108120400D01*
X136000000Y-108120400D02*
X136000000Y-106650000D01*
X137646900Y-108752000D02*
X138000000Y-108398900D01*
X138000000Y-108398900D02*
X138000000Y-106650000D01*
X140066000Y-108752000D02*
X140000000Y-108686000D01*
X140000000Y-108686000D02*
X140000000Y-106650000D01*
X142000000Y-106650000D02*
X142000000Y-105354700D01*
X143000000Y-106058600D02*
X143000000Y-105794500D01*
X143000000Y-105794500D02*
X142560200Y-105354700D01*
X142560200Y-105354700D02*
X142000000Y-105354700D01*
X112000000Y-106650000D02*
X112000000Y-105354700D01*
X111000000Y-106058600D02*
X111000000Y-105794500D01*
X111000000Y-105794500D02*
X111439800Y-105354700D01*
X111439800Y-105354700D02*
X112000000Y-105354700D01*
X113475400Y-108752000D02*
X114000000Y-108227400D01*
X114000000Y-108227400D02*
X114000000Y-106650000D01*
X115723000Y-108485500D02*
X116000000Y-108208500D01*
X116000000Y-108208500D02*
X116000000Y-106650000D01*
X118157300Y-108485500D02*
X118000000Y-108328200D01*
X118000000Y-108328200D02*
X118000000Y-106650000D01*
X133494900Y-117893100D02*
X133494900Y-117567600D01*
X133494900Y-117567600D02*
X132278900Y-116351600D01*
X132278900Y-116351600D02*
X128637600Y-116351600D01*
X128637600Y-116351600D02*
X127688700Y-115402700D01*
X127688700Y-115402700D02*
X127688700Y-115166900D01*
X134164400Y-117893100D02*
X133494900Y-117893100D01*
X128519500Y-115533100D02*
X133353800Y-115533100D01*
X133353800Y-115533100D02*
X134939100Y-117118400D01*
X135340400Y-117118400D02*
X135340400Y-116448900D01*
X129886500Y-114972500D02*
X133864000Y-114972500D01*
X133864000Y-114972500D02*
X135340400Y-116448900D01*
X135739200Y-117118400D02*
X135739200Y-116372500D01*
X135739200Y-116372500D02*
X133785500Y-114418800D01*
X133785500Y-114418800D02*
X127594000Y-114418800D01*
X127594000Y-114418800D02*
X122717400Y-119295400D01*
X122717400Y-119295400D02*
X102020800Y-119295400D01*
X102020800Y-119295400D02*
X101408900Y-118683500D01*
X101408900Y-118683500D02*
X101408900Y-117735500D01*
X101408900Y-117735500D02*
X102403100Y-116741300D01*
X102403100Y-116741300D02*
X102540000Y-116741300D01*
X102540000Y-115646000D02*
X102540000Y-116741300D01*
X103635300Y-118186000D02*
X103635300Y-118049000D01*
X103635300Y-118049000D02*
X104593600Y-117090700D01*
X104593600Y-117090700D02*
X123175600Y-117090700D01*
X123175600Y-117090700D02*
X126177600Y-114088700D01*
X126177600Y-114088700D02*
X134977900Y-114088700D01*
X134977900Y-114088700D02*
X136935600Y-116046400D01*
X136935600Y-116046400D02*
X136935600Y-117118400D01*
X102540000Y-118186000D02*
X103635300Y-118186000D01*
X102540000Y-119630700D02*
X101855400Y-119630700D01*
X101855400Y-119630700D02*
X101068900Y-118844200D01*
X101068900Y-118844200D02*
X101068900Y-115566600D01*
X101068900Y-115566600D02*
X102259500Y-114376000D01*
X102259500Y-114376000D02*
X122065300Y-114376000D01*
X122065300Y-114376000D02*
X122725900Y-113715400D01*
X122725900Y-113715400D02*
X135062000Y-113715400D01*
X135062000Y-113715400D02*
X137336900Y-115990300D01*
X137336900Y-115990300D02*
X137336900Y-117118400D01*
X102540000Y-120726000D02*
X102540000Y-119630700D01*
X132344200Y-112929000D02*
X134747200Y-112929000D01*
X134747200Y-112929000D02*
X138111600Y-116293400D01*
X138111600Y-116293400D02*
X138111600Y-117893100D01*
X138111600Y-118294400D02*
X138781100Y-118294400D01*
X139042900Y-117784800D02*
X139042900Y-118032600D01*
X139042900Y-118032600D02*
X138781100Y-118294400D01*
X138111600Y-120290900D02*
X138781100Y-120290900D01*
X180010000Y-126035000D02*
X180010000Y-124939700D01*
X180010000Y-124939700D02*
X180146900Y-124939700D01*
X180146900Y-124939700D02*
X181105400Y-123981200D01*
X181105400Y-123981200D02*
X181105400Y-123014000D01*
X181105400Y-123014000D02*
X180429700Y-122338300D01*
X180429700Y-122338300D02*
X179100700Y-122338300D01*
X179100700Y-122338300D02*
X177966000Y-121203600D01*
X177966000Y-121203600D02*
X139693800Y-121203600D01*
X139693800Y-121203600D02*
X138781100Y-120290900D01*
X137336900Y-121065600D02*
X137336900Y-121735100D01*
X180010000Y-123495000D02*
X178914700Y-123495000D01*
X178914700Y-123495000D02*
X177154800Y-121735100D01*
X177154800Y-121735100D02*
X137336900Y-121735100D01*
X136936000Y-121066000D02*
X136936000Y-124497000D01*
X136936000Y-124497000D02*
X136949000Y-124511000D01*
X136935600Y-121065600D02*
X136936000Y-121066000D01*
X136536800Y-121065600D02*
X136536800Y-122816500D01*
X136536800Y-122816500D02*
X136372400Y-122980900D01*
X135405800Y-122376300D02*
X135340400Y-122310900D01*
X135340400Y-122310900D02*
X135340400Y-121065600D01*
X134939100Y-121065600D02*
X134939100Y-121735100D01*
X134410100Y-121492600D02*
X134652600Y-121735100D01*
X134652600Y-121735100D02*
X134939100Y-121735100D01*
X133634100Y-121350600D02*
X133634100Y-120821200D01*
X133634100Y-120821200D02*
X134164400Y-120290900D01*
X134164400Y-119889600D02*
X133494900Y-119889600D01*
X133319100Y-120379200D02*
X133319100Y-120065400D01*
X133319100Y-120065400D02*
X133494900Y-119889600D01*
X136138000Y-116448900D02*
X136138000Y-116445700D01*
X136138000Y-116445700D02*
X136361000Y-116222700D01*
X136138000Y-117118400D02*
X136138000Y-116448900D01*
X182550000Y-129210000D02*
X148811600Y-129210000D01*
X148811600Y-129210000D02*
X145779300Y-126177700D01*
X145779300Y-126177700D02*
X145779200Y-126177700D01*
X145779200Y-126177700D02*
X145203700Y-125602100D01*
X145203700Y-125602100D02*
X142540000Y-122938500D01*
X142540000Y-122938500D02*
X142540000Y-122860000D01*
X145203700Y-125602100D02*
X142554200Y-128251600D01*
X139507000Y-123958000D02*
X138457400Y-125007600D01*
X138457400Y-125007600D02*
X136744800Y-125007600D01*
X136744800Y-125007600D02*
X135870100Y-124132900D01*
X135870100Y-124132900D02*
X135870100Y-122775300D01*
X135870100Y-122775300D02*
X136138000Y-122507400D01*
X136138000Y-122507400D02*
X136138000Y-121065600D01*
X140605000Y-122860000D02*
X139507000Y-123958000D01*
X139507000Y-123958000D02*
X141866400Y-126317500D01*
X141866400Y-126317500D02*
X141866400Y-128324200D01*
X141866400Y-128324200D02*
X141289100Y-128901500D01*
X134328000Y-126683000D02*
X134328000Y-127563300D01*
X138111600Y-118693200D02*
X139187600Y-118693200D01*
X139187600Y-118693200D02*
X139205900Y-118674900D01*
X134328000Y-127563300D02*
X134575200Y-127563300D01*
X134575200Y-127563300D02*
X135379900Y-128368000D01*
X135598000Y-126683000D02*
X135598000Y-127563300D01*
X135598000Y-127563300D02*
X137403300Y-127563300D01*
X137403300Y-127563300D02*
X140320000Y-130480000D01*
X135585000Y-130594000D02*
X135585000Y-129713700D01*
X135585000Y-129713700D02*
X133597600Y-127726300D01*
X133597600Y-127726300D02*
X133597600Y-125923400D01*
X133597600Y-125923400D02*
X133739400Y-125781600D01*
X133739400Y-125781600D02*
X140162100Y-125781600D01*
X140162100Y-125781600D02*
X140960000Y-126579500D01*
X140960000Y-126579500D02*
X140960000Y-126670000D01*
X134315000Y-130594000D02*
X133584700Y-130594000D01*
X133584700Y-130594000D02*
X129357100Y-126366400D01*
X129357100Y-126366400D02*
X129357100Y-118751300D01*
X129357100Y-118751300D02*
X129997100Y-118111300D01*
X129997100Y-118111300D02*
X131882100Y-118111300D01*
X131882100Y-118111300D02*
X132464000Y-118693200D01*
X132464000Y-118693200D02*
X134164400Y-118693200D01*
X132087700Y-116860900D02*
X132087700Y-116967800D01*
X132087700Y-116967800D02*
X133414300Y-118294400D01*
X133414300Y-118294400D02*
X134164400Y-118294400D01*
X134089000Y-110155000D02*
X134089000Y-110589900D01*
X134089000Y-110589900D02*
X133217500Y-111461400D01*
X140515000Y-120320000D02*
X140084600Y-119889600D01*
X140084600Y-119889600D02*
X138111600Y-119889600D01*
X134164400Y-119092000D02*
X133494900Y-119092000D01*
X130406000Y-119131000D02*
X133455900Y-119131000D01*
X133455900Y-119131000D02*
X133494900Y-119092000D01*
D22*
G36*
X184314493Y-133605000D02*
G01*
X100685000Y-133605000D01*
X100685000Y-129940691D01*
X101218220Y-130473911D01*
X101159463Y-130545506D01*
X101100498Y-130655820D01*
X101064188Y-130775518D01*
X101051928Y-130900000D01*
X101051928Y-132600000D01*
X101064188Y-132724482D01*
X101100498Y-132844180D01*
X101159463Y-132954494D01*
X101238815Y-133051185D01*
X101335506Y-133130537D01*
X101445820Y-133189502D01*
X101565518Y-133225812D01*
X101690000Y-133238072D01*
X103390000Y-133238072D01*
X103514482Y-133225812D01*
X103634180Y-133189502D01*
X103744494Y-133130537D01*
X103841185Y-133051185D01*
X103920537Y-132954494D01*
X103979502Y-132844180D01*
X104015812Y-132724482D01*
X104028072Y-132600000D01*
X104028072Y-132460000D01*
X139960925Y-132460000D01*
X139995800Y-132463435D01*
X140030675Y-132460000D01*
X140030677Y-132460000D01*
X140134984Y-132449727D01*
X140268820Y-132409128D01*
X140392163Y-132343200D01*
X140500275Y-132254475D01*
X140522512Y-132227379D01*
X141254091Y-131495800D01*
X180196409Y-131495800D01*
X180927988Y-132227379D01*
X180950225Y-132254475D01*
X181058337Y-132343200D01*
X181181680Y-132409128D01*
X181225611Y-132422455D01*
X181309294Y-132579014D01*
X181494866Y-132805134D01*
X181720986Y-132990706D01*
X181978966Y-133128599D01*
X182258889Y-133213513D01*
X182477050Y-133235000D01*
X182622950Y-133235000D01*
X182841111Y-133213513D01*
X183121034Y-133128599D01*
X183379014Y-132990706D01*
X183605134Y-132805134D01*
X183790706Y-132579014D01*
X183928599Y-132321034D01*
X184013513Y-132041111D01*
X184042185Y-131750000D01*
X184013513Y-131458889D01*
X183928599Y-131178966D01*
X183790706Y-130920986D01*
X183605134Y-130694866D01*
X183575313Y-130670393D01*
X183644180Y-130649502D01*
X183754494Y-130590537D01*
X183851185Y-130511185D01*
X183930537Y-130414494D01*
X183989502Y-130304180D01*
X184025812Y-130184482D01*
X184038072Y-130060000D01*
X184038072Y-128360000D01*
X184025812Y-128235518D01*
X183989502Y-128115820D01*
X183930537Y-128005506D01*
X183851185Y-127908815D01*
X183754494Y-127829463D01*
X183644180Y-127770498D01*
X183524482Y-127734188D01*
X183400000Y-127721928D01*
X181700000Y-127721928D01*
X181575518Y-127734188D01*
X181455820Y-127770498D01*
X181345506Y-127829463D01*
X181248815Y-127908815D01*
X181169463Y-128005506D01*
X181110498Y-128115820D01*
X181074188Y-128235518D01*
X181061928Y-128360000D01*
X181061928Y-128500000D01*
X149105691Y-128500000D01*
X146306012Y-125700321D01*
X146283775Y-125673225D01*
X146256152Y-125650555D01*
X145730423Y-125124736D01*
X145730398Y-125124706D01*
X145708174Y-125097626D01*
X145681083Y-125075393D01*
X143968374Y-123362749D01*
X143992177Y-123321163D01*
X144031941Y-123202567D01*
X144045000Y-123091750D01*
X143886250Y-122933000D01*
X143538610Y-122933000D01*
X143408072Y-122802467D01*
X143408072Y-122787000D01*
X143886250Y-122787000D01*
X144045000Y-122628250D01*
X144031941Y-122517433D01*
X144007689Y-122445100D01*
X176860709Y-122445100D01*
X178387992Y-123972384D01*
X178410225Y-123999475D01*
X178437315Y-124021707D01*
X178518335Y-124088199D01*
X178518337Y-124088200D01*
X178641680Y-124154128D01*
X178685611Y-124167455D01*
X178769294Y-124324014D01*
X178954866Y-124550134D01*
X179180986Y-124735706D01*
X179235791Y-124765000D01*
X179180986Y-124794294D01*
X178954866Y-124979866D01*
X178769294Y-125205986D01*
X178631401Y-125463966D01*
X178546487Y-125743889D01*
X178517815Y-126035000D01*
X178546487Y-126326111D01*
X178631401Y-126606034D01*
X178769294Y-126864014D01*
X178954866Y-127090134D01*
X179180986Y-127275706D01*
X179438966Y-127413599D01*
X179718889Y-127498513D01*
X179937050Y-127520000D01*
X180082950Y-127520000D01*
X180301111Y-127498513D01*
X180581034Y-127413599D01*
X180839014Y-127275706D01*
X181065134Y-127090134D01*
X181250706Y-126864014D01*
X181281584Y-126806244D01*
X181452412Y-127035269D01*
X181668645Y-127230178D01*
X181918748Y-127379157D01*
X182193109Y-127476481D01*
X182423000Y-127355814D01*
X182423000Y-126162000D01*
X182677000Y-126162000D01*
X182677000Y-127355814D01*
X182906891Y-127476481D01*
X183181252Y-127379157D01*
X183431355Y-127230178D01*
X183647588Y-127035269D01*
X183821641Y-126801920D01*
X183946825Y-126539099D01*
X183991476Y-126391890D01*
X183870155Y-126162000D01*
X182677000Y-126162000D01*
X182423000Y-126162000D01*
X182403000Y-126162000D01*
X182403000Y-125908000D01*
X182423000Y-125908000D01*
X182423000Y-123622000D01*
X182677000Y-123622000D01*
X182677000Y-125908000D01*
X183870155Y-125908000D01*
X183991476Y-125678110D01*
X183946825Y-125530901D01*
X183821641Y-125268080D01*
X183647588Y-125034731D01*
X183431355Y-124839822D01*
X183305745Y-124765000D01*
X183431355Y-124690178D01*
X183647588Y-124495269D01*
X183821641Y-124261920D01*
X183946825Y-123999099D01*
X183991476Y-123851890D01*
X183870155Y-123622000D01*
X182677000Y-123622000D01*
X182423000Y-123622000D01*
X182403000Y-123622000D01*
X182403000Y-123368000D01*
X182423000Y-123368000D01*
X182423000Y-121082000D01*
X182677000Y-121082000D01*
X182677000Y-123368000D01*
X183870155Y-123368000D01*
X183991476Y-123138110D01*
X183946825Y-122990901D01*
X183821641Y-122728080D01*
X183647588Y-122494731D01*
X183431355Y-122299822D01*
X183305745Y-122225000D01*
X183431355Y-122150178D01*
X183647588Y-121955269D01*
X183821641Y-121721920D01*
X183946825Y-121459099D01*
X183991476Y-121311890D01*
X183870155Y-121082000D01*
X182677000Y-121082000D01*
X182423000Y-121082000D01*
X182403000Y-121082000D01*
X182403000Y-120828000D01*
X182423000Y-120828000D01*
X182423000Y-118542000D01*
X182677000Y-118542000D01*
X182677000Y-120828000D01*
X183870155Y-120828000D01*
X183991476Y-120598110D01*
X183946825Y-120450901D01*
X183821641Y-120188080D01*
X183647588Y-119954731D01*
X183431355Y-119759822D01*
X183305745Y-119685000D01*
X183431355Y-119610178D01*
X183647588Y-119415269D01*
X183821641Y-119181920D01*
X183946825Y-118919099D01*
X183991476Y-118771890D01*
X183870155Y-118542000D01*
X182677000Y-118542000D01*
X182423000Y-118542000D01*
X182403000Y-118542000D01*
X182403000Y-118288000D01*
X182423000Y-118288000D01*
X182423000Y-116002000D01*
X182677000Y-116002000D01*
X182677000Y-118288000D01*
X183870155Y-118288000D01*
X183991476Y-118058110D01*
X183946825Y-117910901D01*
X183821641Y-117648080D01*
X183647588Y-117414731D01*
X183431355Y-117219822D01*
X183305745Y-117145000D01*
X183431355Y-117070178D01*
X183647588Y-116875269D01*
X183821641Y-116641920D01*
X183946825Y-116379099D01*
X183991476Y-116231890D01*
X183870155Y-116002000D01*
X182677000Y-116002000D01*
X182423000Y-116002000D01*
X182403000Y-116002000D01*
X182403000Y-115748000D01*
X182423000Y-115748000D01*
X182423000Y-113462000D01*
X182677000Y-113462000D01*
X182677000Y-115748000D01*
X183870155Y-115748000D01*
X183991476Y-115518110D01*
X183946825Y-115370901D01*
X183821641Y-115108080D01*
X183647588Y-114874731D01*
X183431355Y-114679822D01*
X183305745Y-114605000D01*
X183431355Y-114530178D01*
X183647588Y-114335269D01*
X183821641Y-114101920D01*
X183946825Y-113839099D01*
X183991476Y-113691890D01*
X183870155Y-113462000D01*
X182677000Y-113462000D01*
X182423000Y-113462000D01*
X182403000Y-113462000D01*
X182403000Y-113208000D01*
X182423000Y-113208000D01*
X182423000Y-110922000D01*
X182677000Y-110922000D01*
X182677000Y-113208000D01*
X183870155Y-113208000D01*
X183991476Y-112978110D01*
X183946825Y-112830901D01*
X183821641Y-112568080D01*
X183647588Y-112334731D01*
X183431355Y-112139822D01*
X183305745Y-112065000D01*
X183431355Y-111990178D01*
X183647588Y-111795269D01*
X183821641Y-111561920D01*
X183946825Y-111299099D01*
X183991476Y-111151890D01*
X183870155Y-110922000D01*
X182677000Y-110922000D01*
X182423000Y-110922000D01*
X182403000Y-110922000D01*
X182403000Y-110668000D01*
X182423000Y-110668000D01*
X182423000Y-108382000D01*
X182677000Y-108382000D01*
X182677000Y-110668000D01*
X183870155Y-110668000D01*
X183991476Y-110438110D01*
X183946825Y-110290901D01*
X183821641Y-110028080D01*
X183647588Y-109794731D01*
X183431355Y-109599822D01*
X183305745Y-109525000D01*
X183431355Y-109450178D01*
X183647588Y-109255269D01*
X183821641Y-109021920D01*
X183946825Y-108759099D01*
X183991476Y-108611890D01*
X183870155Y-108382000D01*
X182677000Y-108382000D01*
X182423000Y-108382000D01*
X182403000Y-108382000D01*
X182403000Y-108128000D01*
X182423000Y-108128000D01*
X182423000Y-106934186D01*
X182677000Y-106934186D01*
X182677000Y-108128000D01*
X183870155Y-108128000D01*
X183991476Y-107898110D01*
X183946825Y-107750901D01*
X183821641Y-107488080D01*
X183647588Y-107254731D01*
X183431355Y-107059822D01*
X183181252Y-106910843D01*
X182906891Y-106813519D01*
X182677000Y-106934186D01*
X182423000Y-106934186D01*
X182193109Y-106813519D01*
X181918748Y-106910843D01*
X181668645Y-107059822D01*
X181472498Y-107236626D01*
X181449502Y-107160820D01*
X181390537Y-107050506D01*
X181311185Y-106953815D01*
X181214494Y-106874463D01*
X181104180Y-106815498D01*
X180984482Y-106779188D01*
X180860000Y-106766928D01*
X179160000Y-106766928D01*
X179035518Y-106779188D01*
X178915820Y-106815498D01*
X178805506Y-106874463D01*
X178708815Y-106953815D01*
X178629463Y-107050506D01*
X178570498Y-107160820D01*
X178534188Y-107280518D01*
X178521928Y-107405000D01*
X178521928Y-109105000D01*
X178534188Y-109229482D01*
X178570498Y-109349180D01*
X178629463Y-109459494D01*
X178708815Y-109556185D01*
X178805506Y-109635537D01*
X178915820Y-109694502D01*
X178984687Y-109715393D01*
X178954866Y-109739866D01*
X178769294Y-109965986D01*
X178631401Y-110223966D01*
X178546487Y-110503889D01*
X178517815Y-110795000D01*
X178546487Y-111086111D01*
X178631401Y-111366034D01*
X178769294Y-111624014D01*
X178954866Y-111850134D01*
X179180986Y-112035706D01*
X179235791Y-112065000D01*
X179180986Y-112094294D01*
X178954866Y-112279866D01*
X178769294Y-112505986D01*
X178631401Y-112763966D01*
X178546487Y-113043889D01*
X178517815Y-113335000D01*
X178546487Y-113626111D01*
X178631401Y-113906034D01*
X178769294Y-114164014D01*
X178954866Y-114390134D01*
X179180986Y-114575706D01*
X179235791Y-114605000D01*
X179180986Y-114634294D01*
X178954866Y-114819866D01*
X178769294Y-115045986D01*
X178631401Y-115303966D01*
X178546487Y-115583889D01*
X178517815Y-115875000D01*
X178546487Y-116166111D01*
X178631401Y-116446034D01*
X178769294Y-116704014D01*
X178954866Y-116930134D01*
X179180986Y-117115706D01*
X179235791Y-117145000D01*
X179180986Y-117174294D01*
X178954866Y-117359866D01*
X178769294Y-117585986D01*
X178631401Y-117843966D01*
X178546487Y-118123889D01*
X178517815Y-118415000D01*
X178546487Y-118706111D01*
X178631401Y-118986034D01*
X178769294Y-119244014D01*
X178954866Y-119470134D01*
X179180986Y-119655706D01*
X179235791Y-119685000D01*
X179180986Y-119714294D01*
X178954866Y-119899866D01*
X178769294Y-120125986D01*
X178631401Y-120383966D01*
X178546487Y-120663889D01*
X178536077Y-120769586D01*
X178492712Y-120726221D01*
X178470475Y-120699125D01*
X178362363Y-120610400D01*
X178239020Y-120544472D01*
X178105184Y-120503873D01*
X178000877Y-120493600D01*
X178000875Y-120493600D01*
X177966000Y-120490165D01*
X177931125Y-120493600D01*
X142015823Y-120493600D01*
X142023072Y-120420000D01*
X142023072Y-120220000D01*
X142008890Y-120076009D01*
X141970200Y-119948464D01*
X141970200Y-110352774D01*
X141973635Y-110317899D01*
X141970484Y-110285907D01*
X142627318Y-109629073D01*
X142758445Y-109602990D01*
X142919505Y-109536277D01*
X143030668Y-109462000D01*
X143158425Y-109462000D01*
X143193300Y-109465435D01*
X143228175Y-109462000D01*
X143228177Y-109462000D01*
X143332484Y-109451727D01*
X143466320Y-109411128D01*
X143589663Y-109345200D01*
X143697775Y-109256475D01*
X143720012Y-109229379D01*
X144228400Y-108720992D01*
X144228400Y-108839165D01*
X144262410Y-109010145D01*
X144329123Y-109171205D01*
X144425976Y-109316155D01*
X144549245Y-109439424D01*
X144694195Y-109536277D01*
X144855255Y-109602990D01*
X145026235Y-109637000D01*
X145200565Y-109637000D01*
X145371545Y-109602990D01*
X145532605Y-109536277D01*
X145677555Y-109439424D01*
X145800824Y-109316155D01*
X145897677Y-109171205D01*
X145964390Y-109010145D01*
X145990473Y-108879019D01*
X146261599Y-108607892D01*
X146273020Y-108604428D01*
X146396363Y-108538500D01*
X146504475Y-108449775D01*
X146593200Y-108341663D01*
X146607902Y-108314157D01*
X146689180Y-108289502D01*
X146799494Y-108230537D01*
X146896185Y-108151185D01*
X146975537Y-108054494D01*
X147000000Y-108008728D01*
X147024463Y-108054494D01*
X147103815Y-108151185D01*
X147200506Y-108230537D01*
X147310820Y-108289502D01*
X147430518Y-108325812D01*
X147555000Y-108338072D01*
X147714250Y-108335000D01*
X147873000Y-108176250D01*
X147873000Y-106777000D01*
X148127000Y-106777000D01*
X148127000Y-108176250D01*
X148285750Y-108335000D01*
X148445000Y-108338072D01*
X148569482Y-108325812D01*
X148689180Y-108289502D01*
X148799494Y-108230537D01*
X148896185Y-108151185D01*
X148975537Y-108054494D01*
X149034502Y-107944180D01*
X149070812Y-107824482D01*
X149083072Y-107700000D01*
X149080000Y-106935750D01*
X148921250Y-106777000D01*
X148127000Y-106777000D01*
X147873000Y-106777000D01*
X147853000Y-106777000D01*
X147853000Y-106523000D01*
X147873000Y-106523000D01*
X147873000Y-105123750D01*
X148127000Y-105123750D01*
X148127000Y-106523000D01*
X148921250Y-106523000D01*
X149080000Y-106364250D01*
X149083072Y-105600000D01*
X149070812Y-105475518D01*
X149034502Y-105355820D01*
X148975537Y-105245506D01*
X148896185Y-105148815D01*
X148799494Y-105069463D01*
X148689180Y-105010498D01*
X148569482Y-104974188D01*
X148445000Y-104961928D01*
X148285750Y-104965000D01*
X148127000Y-105123750D01*
X147873000Y-105123750D01*
X147740072Y-104990822D01*
X147787267Y-104959287D01*
X147959287Y-104787267D01*
X148094443Y-104584992D01*
X148187540Y-104360236D01*
X148235000Y-104121637D01*
X148235000Y-103878363D01*
X148187540Y-103639764D01*
X148094443Y-103415008D01*
X147959287Y-103212733D01*
X147787267Y-103040713D01*
X147740072Y-103009178D01*
X147873000Y-102876250D01*
X147873000Y-101477000D01*
X148127000Y-101477000D01*
X148127000Y-102876250D01*
X148285750Y-103035000D01*
X148445000Y-103038072D01*
X148569482Y-103025812D01*
X148689180Y-102989502D01*
X148799494Y-102930537D01*
X148896185Y-102851185D01*
X148975537Y-102754494D01*
X149034502Y-102644180D01*
X149070812Y-102524482D01*
X149083072Y-102400000D01*
X149080000Y-101635750D01*
X148921250Y-101477000D01*
X148127000Y-101477000D01*
X147873000Y-101477000D01*
X147853000Y-101477000D01*
X147853000Y-101223000D01*
X147873000Y-101223000D01*
X147873000Y-101203000D01*
X148127000Y-101203000D01*
X148127000Y-101223000D01*
X148921250Y-101223000D01*
X149080000Y-101064250D01*
X149081524Y-100685000D01*
X184314492Y-100685000D01*
X184314493Y-133605000D01*
X184314493Y-133605000D01*
G37*
X184314493Y-133605000D02*
X100685000Y-133605000D01*
X100685000Y-129940691D01*
X101218220Y-130473911D01*
X101159463Y-130545506D01*
X101100498Y-130655820D01*
X101064188Y-130775518D01*
X101051928Y-130900000D01*
X101051928Y-132600000D01*
X101064188Y-132724482D01*
X101100498Y-132844180D01*
X101159463Y-132954494D01*
X101238815Y-133051185D01*
X101335506Y-133130537D01*
X101445820Y-133189502D01*
X101565518Y-133225812D01*
X101690000Y-133238072D01*
X103390000Y-133238072D01*
X103514482Y-133225812D01*
X103634180Y-133189502D01*
X103744494Y-133130537D01*
X103841185Y-133051185D01*
X103920537Y-132954494D01*
X103979502Y-132844180D01*
X104015812Y-132724482D01*
X104028072Y-132600000D01*
X104028072Y-132460000D01*
X139960925Y-132460000D01*
X139995800Y-132463435D01*
X140030675Y-132460000D01*
X140030677Y-132460000D01*
X140134984Y-132449727D01*
X140268820Y-132409128D01*
X140392163Y-132343200D01*
X140500275Y-132254475D01*
X140522512Y-132227379D01*
X141254091Y-131495800D01*
X180196409Y-131495800D01*
X180927988Y-132227379D01*
X180950225Y-132254475D01*
X181058337Y-132343200D01*
X181181680Y-132409128D01*
X181225611Y-132422455D01*
X181309294Y-132579014D01*
X181494866Y-132805134D01*
X181720986Y-132990706D01*
X181978966Y-133128599D01*
X182258889Y-133213513D01*
X182477050Y-133235000D01*
X182622950Y-133235000D01*
X182841111Y-133213513D01*
X183121034Y-133128599D01*
X183379014Y-132990706D01*
X183605134Y-132805134D01*
X183790706Y-132579014D01*
X183928599Y-132321034D01*
X184013513Y-132041111D01*
X184042185Y-131750000D01*
X184013513Y-131458889D01*
X183928599Y-131178966D01*
X183790706Y-130920986D01*
X183605134Y-130694866D01*
X183575313Y-130670393D01*
X183644180Y-130649502D01*
X183754494Y-130590537D01*
X183851185Y-130511185D01*
X183930537Y-130414494D01*
X183989502Y-130304180D01*
X184025812Y-130184482D01*
X184038072Y-130060000D01*
X184038072Y-128360000D01*
X184025812Y-128235518D01*
X183989502Y-128115820D01*
X183930537Y-128005506D01*
X183851185Y-127908815D01*
X183754494Y-127829463D01*
X183644180Y-127770498D01*
X183524482Y-127734188D01*
X183400000Y-127721928D01*
X181700000Y-127721928D01*
X181575518Y-127734188D01*
X181455820Y-127770498D01*
X181345506Y-127829463D01*
X181248815Y-127908815D01*
X181169463Y-128005506D01*
X181110498Y-128115820D01*
X181074188Y-128235518D01*
X181061928Y-128360000D01*
X181061928Y-128500000D01*
X149105691Y-128500000D01*
X146306012Y-125700321D01*
X146283775Y-125673225D01*
X146256152Y-125650555D01*
X145730423Y-125124736D01*
X145730398Y-125124706D01*
X145708174Y-125097626D01*
X145681083Y-125075393D01*
X143968374Y-123362749D01*
X143992177Y-123321163D01*
X144031941Y-123202567D01*
X144045000Y-123091750D01*
X143886250Y-122933000D01*
X143538610Y-122933000D01*
X143408072Y-122802467D01*
X143408072Y-122787000D01*
X143886250Y-122787000D01*
X144045000Y-122628250D01*
X144031941Y-122517433D01*
X144007689Y-122445100D01*
X176860709Y-122445100D01*
X178387992Y-123972384D01*
X178410225Y-123999475D01*
X178437315Y-124021707D01*
X178518335Y-124088199D01*
X178518337Y-124088200D01*
X178641680Y-124154128D01*
X178685611Y-124167455D01*
X178769294Y-124324014D01*
X178954866Y-124550134D01*
X179180986Y-124735706D01*
X179235791Y-124765000D01*
X179180986Y-124794294D01*
X178954866Y-124979866D01*
X178769294Y-125205986D01*
X178631401Y-125463966D01*
X178546487Y-125743889D01*
X178517815Y-126035000D01*
X178546487Y-126326111D01*
X178631401Y-126606034D01*
X178769294Y-126864014D01*
X178954866Y-127090134D01*
X179180986Y-127275706D01*
X179438966Y-127413599D01*
X179718889Y-127498513D01*
X179937050Y-127520000D01*
X180082950Y-127520000D01*
X180301111Y-127498513D01*
X180581034Y-127413599D01*
X180839014Y-127275706D01*
X181065134Y-127090134D01*
X181250706Y-126864014D01*
X181281584Y-126806244D01*
X181452412Y-127035269D01*
X181668645Y-127230178D01*
X181918748Y-127379157D01*
X182193109Y-127476481D01*
X182423000Y-127355814D01*
X182423000Y-126162000D01*
X182677000Y-126162000D01*
X182677000Y-127355814D01*
X182906891Y-127476481D01*
X183181252Y-127379157D01*
X183431355Y-127230178D01*
X183647588Y-127035269D01*
X183821641Y-126801920D01*
X183946825Y-126539099D01*
X183991476Y-126391890D01*
X183870155Y-126162000D01*
X182677000Y-126162000D01*
X182423000Y-126162000D01*
X182403000Y-126162000D01*
X182403000Y-125908000D01*
X182423000Y-125908000D01*
X182423000Y-123622000D01*
X182677000Y-123622000D01*
X182677000Y-125908000D01*
X183870155Y-125908000D01*
X183991476Y-125678110D01*
X183946825Y-125530901D01*
X183821641Y-125268080D01*
X183647588Y-125034731D01*
X183431355Y-124839822D01*
X183305745Y-124765000D01*
X183431355Y-124690178D01*
X183647588Y-124495269D01*
X183821641Y-124261920D01*
X183946825Y-123999099D01*
X183991476Y-123851890D01*
X183870155Y-123622000D01*
X182677000Y-123622000D01*
X182423000Y-123622000D01*
X182403000Y-123622000D01*
X182403000Y-123368000D01*
X182423000Y-123368000D01*
X182423000Y-121082000D01*
X182677000Y-121082000D01*
X182677000Y-123368000D01*
X183870155Y-123368000D01*
X183991476Y-123138110D01*
X183946825Y-122990901D01*
X183821641Y-122728080D01*
X183647588Y-122494731D01*
X183431355Y-122299822D01*
X183305745Y-122225000D01*
X183431355Y-122150178D01*
X183647588Y-121955269D01*
X183821641Y-121721920D01*
X183946825Y-121459099D01*
X183991476Y-121311890D01*
X183870155Y-121082000D01*
X182677000Y-121082000D01*
X182423000Y-121082000D01*
X182403000Y-121082000D01*
X182403000Y-120828000D01*
X182423000Y-120828000D01*
X182423000Y-118542000D01*
X182677000Y-118542000D01*
X182677000Y-120828000D01*
X183870155Y-120828000D01*
X183991476Y-120598110D01*
X183946825Y-120450901D01*
X183821641Y-120188080D01*
X183647588Y-119954731D01*
X183431355Y-119759822D01*
X183305745Y-119685000D01*
X183431355Y-119610178D01*
X183647588Y-119415269D01*
X183821641Y-119181920D01*
X183946825Y-118919099D01*
X183991476Y-118771890D01*
X183870155Y-118542000D01*
X182677000Y-118542000D01*
X182423000Y-118542000D01*
X182403000Y-118542000D01*
X182403000Y-118288000D01*
X182423000Y-118288000D01*
X182423000Y-116002000D01*
X182677000Y-116002000D01*
X182677000Y-118288000D01*
X183870155Y-118288000D01*
X183991476Y-118058110D01*
X183946825Y-117910901D01*
X183821641Y-117648080D01*
X183647588Y-117414731D01*
X183431355Y-117219822D01*
X183305745Y-117145000D01*
X183431355Y-117070178D01*
X183647588Y-116875269D01*
X183821641Y-116641920D01*
X183946825Y-116379099D01*
X183991476Y-116231890D01*
X183870155Y-116002000D01*
X182677000Y-116002000D01*
X182423000Y-116002000D01*
X182403000Y-116002000D01*
X182403000Y-115748000D01*
X182423000Y-115748000D01*
X182423000Y-113462000D01*
X182677000Y-113462000D01*
X182677000Y-115748000D01*
X183870155Y-115748000D01*
X183991476Y-115518110D01*
X183946825Y-115370901D01*
X183821641Y-115108080D01*
X183647588Y-114874731D01*
X183431355Y-114679822D01*
X183305745Y-114605000D01*
X183431355Y-114530178D01*
X183647588Y-114335269D01*
X183821641Y-114101920D01*
X183946825Y-113839099D01*
X183991476Y-113691890D01*
X183870155Y-113462000D01*
X182677000Y-113462000D01*
X182423000Y-113462000D01*
X182403000Y-113462000D01*
X182403000Y-113208000D01*
X182423000Y-113208000D01*
X182423000Y-110922000D01*
X182677000Y-110922000D01*
X182677000Y-113208000D01*
X183870155Y-113208000D01*
X183991476Y-112978110D01*
X183946825Y-112830901D01*
X183821641Y-112568080D01*
X183647588Y-112334731D01*
X183431355Y-112139822D01*
X183305745Y-112065000D01*
X183431355Y-111990178D01*
X183647588Y-111795269D01*
X183821641Y-111561920D01*
X183946825Y-111299099D01*
X183991476Y-111151890D01*
X183870155Y-110922000D01*
X182677000Y-110922000D01*
X182423000Y-110922000D01*
X182403000Y-110922000D01*
X182403000Y-110668000D01*
X182423000Y-110668000D01*
X182423000Y-108382000D01*
X182677000Y-108382000D01*
X182677000Y-110668000D01*
X183870155Y-110668000D01*
X183991476Y-110438110D01*
X183946825Y-110290901D01*
X183821641Y-110028080D01*
X183647588Y-109794731D01*
X183431355Y-109599822D01*
X183305745Y-109525000D01*
X183431355Y-109450178D01*
X183647588Y-109255269D01*
X183821641Y-109021920D01*
X183946825Y-108759099D01*
X183991476Y-108611890D01*
X183870155Y-108382000D01*
X182677000Y-108382000D01*
X182423000Y-108382000D01*
X182403000Y-108382000D01*
X182403000Y-108128000D01*
X182423000Y-108128000D01*
X182423000Y-106934186D01*
X182677000Y-106934186D01*
X182677000Y-108128000D01*
X183870155Y-108128000D01*
X183991476Y-107898110D01*
X183946825Y-107750901D01*
X183821641Y-107488080D01*
X183647588Y-107254731D01*
X183431355Y-107059822D01*
X183181252Y-106910843D01*
X182906891Y-106813519D01*
X182677000Y-106934186D01*
X182423000Y-106934186D01*
X182193109Y-106813519D01*
X181918748Y-106910843D01*
X181668645Y-107059822D01*
X181472498Y-107236626D01*
X181449502Y-107160820D01*
X181390537Y-107050506D01*
X181311185Y-106953815D01*
X181214494Y-106874463D01*
X181104180Y-106815498D01*
X180984482Y-106779188D01*
X180860000Y-106766928D01*
X179160000Y-106766928D01*
X179035518Y-106779188D01*
X178915820Y-106815498D01*
X178805506Y-106874463D01*
X178708815Y-106953815D01*
X178629463Y-107050506D01*
X178570498Y-107160820D01*
X178534188Y-107280518D01*
X178521928Y-107405000D01*
X178521928Y-109105000D01*
X178534188Y-109229482D01*
X178570498Y-109349180D01*
X178629463Y-109459494D01*
X178708815Y-109556185D01*
X178805506Y-109635537D01*
X178915820Y-109694502D01*
X178984687Y-109715393D01*
X178954866Y-109739866D01*
X178769294Y-109965986D01*
X178631401Y-110223966D01*
X178546487Y-110503889D01*
X178517815Y-110795000D01*
X178546487Y-111086111D01*
X178631401Y-111366034D01*
X178769294Y-111624014D01*
X178954866Y-111850134D01*
X179180986Y-112035706D01*
X179235791Y-112065000D01*
X179180986Y-112094294D01*
X178954866Y-112279866D01*
X178769294Y-112505986D01*
X178631401Y-112763966D01*
X178546487Y-113043889D01*
X178517815Y-113335000D01*
X178546487Y-113626111D01*
X178631401Y-113906034D01*
X178769294Y-114164014D01*
X178954866Y-114390134D01*
X179180986Y-114575706D01*
X179235791Y-114605000D01*
X179180986Y-114634294D01*
X178954866Y-114819866D01*
X178769294Y-115045986D01*
X178631401Y-115303966D01*
X178546487Y-115583889D01*
X178517815Y-115875000D01*
X178546487Y-116166111D01*
X178631401Y-116446034D01*
X178769294Y-116704014D01*
X178954866Y-116930134D01*
X179180986Y-117115706D01*
X179235791Y-117145000D01*
X179180986Y-117174294D01*
X178954866Y-117359866D01*
X178769294Y-117585986D01*
X178631401Y-117843966D01*
X178546487Y-118123889D01*
X178517815Y-118415000D01*
X178546487Y-118706111D01*
X178631401Y-118986034D01*
X178769294Y-119244014D01*
X178954866Y-119470134D01*
X179180986Y-119655706D01*
X179235791Y-119685000D01*
X179180986Y-119714294D01*
X178954866Y-119899866D01*
X178769294Y-120125986D01*
X178631401Y-120383966D01*
X178546487Y-120663889D01*
X178536077Y-120769586D01*
X178492712Y-120726221D01*
X178470475Y-120699125D01*
X178362363Y-120610400D01*
X178239020Y-120544472D01*
X178105184Y-120503873D01*
X178000877Y-120493600D01*
X178000875Y-120493600D01*
X177966000Y-120490165D01*
X177931125Y-120493600D01*
X142015823Y-120493600D01*
X142023072Y-120420000D01*
X142023072Y-120220000D01*
X142008890Y-120076009D01*
X141970200Y-119948464D01*
X141970200Y-110352774D01*
X141973635Y-110317899D01*
X141970484Y-110285907D01*
X142627318Y-109629073D01*
X142758445Y-109602990D01*
X142919505Y-109536277D01*
X143030668Y-109462000D01*
X143158425Y-109462000D01*
X143193300Y-109465435D01*
X143228175Y-109462000D01*
X143228177Y-109462000D01*
X143332484Y-109451727D01*
X143466320Y-109411128D01*
X143589663Y-109345200D01*
X143697775Y-109256475D01*
X143720012Y-109229379D01*
X144228400Y-108720992D01*
X144228400Y-108839165D01*
X144262410Y-109010145D01*
X144329123Y-109171205D01*
X144425976Y-109316155D01*
X144549245Y-109439424D01*
X144694195Y-109536277D01*
X144855255Y-109602990D01*
X145026235Y-109637000D01*
X145200565Y-109637000D01*
X145371545Y-109602990D01*
X145532605Y-109536277D01*
X145677555Y-109439424D01*
X145800824Y-109316155D01*
X145897677Y-109171205D01*
X145964390Y-109010145D01*
X145990473Y-108879019D01*
X146261599Y-108607892D01*
X146273020Y-108604428D01*
X146396363Y-108538500D01*
X146504475Y-108449775D01*
X146593200Y-108341663D01*
X146607902Y-108314157D01*
X146689180Y-108289502D01*
X146799494Y-108230537D01*
X146896185Y-108151185D01*
X146975537Y-108054494D01*
X147000000Y-108008728D01*
X147024463Y-108054494D01*
X147103815Y-108151185D01*
X147200506Y-108230537D01*
X147310820Y-108289502D01*
X147430518Y-108325812D01*
X147555000Y-108338072D01*
X147714250Y-108335000D01*
X147873000Y-108176250D01*
X147873000Y-106777000D01*
X148127000Y-106777000D01*
X148127000Y-108176250D01*
X148285750Y-108335000D01*
X148445000Y-108338072D01*
X148569482Y-108325812D01*
X148689180Y-108289502D01*
X148799494Y-108230537D01*
X148896185Y-108151185D01*
X148975537Y-108054494D01*
X149034502Y-107944180D01*
X149070812Y-107824482D01*
X149083072Y-107700000D01*
X149080000Y-106935750D01*
X148921250Y-106777000D01*
X148127000Y-106777000D01*
X147873000Y-106777000D01*
X147853000Y-106777000D01*
X147853000Y-106523000D01*
X147873000Y-106523000D01*
X147873000Y-105123750D01*
X148127000Y-105123750D01*
X148127000Y-106523000D01*
X148921250Y-106523000D01*
X149080000Y-106364250D01*
X149083072Y-105600000D01*
X149070812Y-105475518D01*
X149034502Y-105355820D01*
X148975537Y-105245506D01*
X148896185Y-105148815D01*
X148799494Y-105069463D01*
X148689180Y-105010498D01*
X148569482Y-104974188D01*
X148445000Y-104961928D01*
X148285750Y-104965000D01*
X148127000Y-105123750D01*
X147873000Y-105123750D01*
X147740072Y-104990822D01*
X147787267Y-104959287D01*
X147959287Y-104787267D01*
X148094443Y-104584992D01*
X148187540Y-104360236D01*
X148235000Y-104121637D01*
X148235000Y-103878363D01*
X148187540Y-103639764D01*
X148094443Y-103415008D01*
X147959287Y-103212733D01*
X147787267Y-103040713D01*
X147740072Y-103009178D01*
X147873000Y-102876250D01*
X147873000Y-101477000D01*
X148127000Y-101477000D01*
X148127000Y-102876250D01*
X148285750Y-103035000D01*
X148445000Y-103038072D01*
X148569482Y-103025812D01*
X148689180Y-102989502D01*
X148799494Y-102930537D01*
X148896185Y-102851185D01*
X148975537Y-102754494D01*
X149034502Y-102644180D01*
X149070812Y-102524482D01*
X149083072Y-102400000D01*
X149080000Y-101635750D01*
X148921250Y-101477000D01*
X148127000Y-101477000D01*
X147873000Y-101477000D01*
X147853000Y-101477000D01*
X147853000Y-101223000D01*
X147873000Y-101223000D01*
X147873000Y-101203000D01*
X148127000Y-101203000D01*
X148127000Y-101223000D01*
X148921250Y-101223000D01*
X149080000Y-101064250D01*
X149081524Y-100685000D01*
X184314492Y-100685000D01*
X184314493Y-133605000D01*
G36*
X139455863Y-130619954D02*
G01*
X139466110Y-130723991D01*
X139508110Y-130862448D01*
X139576316Y-130990051D01*
X139617308Y-131040000D01*
X137976410Y-131040000D01*
X137975000Y-130879750D01*
X137816250Y-130721000D01*
X136982000Y-130721000D01*
X136982000Y-130741000D01*
X136728000Y-130741000D01*
X136728000Y-130721000D01*
X136708072Y-130721000D01*
X136708072Y-130467000D01*
X136728000Y-130467000D01*
X136728000Y-129482750D01*
X136982000Y-129482750D01*
X136982000Y-130467000D01*
X137816250Y-130467000D01*
X137975000Y-130308250D01*
X137978072Y-129959000D01*
X137965812Y-129834518D01*
X137929502Y-129714820D01*
X137870537Y-129604506D01*
X137791185Y-129507815D01*
X137694494Y-129428463D01*
X137584180Y-129369498D01*
X137464482Y-129333188D01*
X137340000Y-129320928D01*
X137140750Y-129324000D01*
X136982000Y-129482750D01*
X136728000Y-129482750D01*
X136569250Y-129324000D01*
X136370000Y-129320928D01*
X136245518Y-129333188D01*
X136220000Y-129340929D01*
X136194482Y-129333188D01*
X136186239Y-129332376D01*
X136178200Y-129317337D01*
X136089475Y-129209225D01*
X136062384Y-129186992D01*
X135936119Y-129060727D01*
X135944055Y-129055424D01*
X136067324Y-128932155D01*
X136164177Y-128787205D01*
X136230890Y-128626145D01*
X136264900Y-128455165D01*
X136264900Y-128280835D01*
X136263401Y-128273300D01*
X137109209Y-128273300D01*
X139455863Y-130619954D01*
X139455863Y-130619954D01*
G37*
X139455863Y-130619954D02*
X139466110Y-130723991D01*
X139508110Y-130862448D01*
X139576316Y-130990051D01*
X139617308Y-131040000D01*
X137976410Y-131040000D01*
X137975000Y-130879750D01*
X137816250Y-130721000D01*
X136982000Y-130721000D01*
X136982000Y-130741000D01*
X136728000Y-130741000D01*
X136728000Y-130721000D01*
X136708072Y-130721000D01*
X136708072Y-130467000D01*
X136728000Y-130467000D01*
X136728000Y-129482750D01*
X136982000Y-129482750D01*
X136982000Y-130467000D01*
X137816250Y-130467000D01*
X137975000Y-130308250D01*
X137978072Y-129959000D01*
X137965812Y-129834518D01*
X137929502Y-129714820D01*
X137870537Y-129604506D01*
X137791185Y-129507815D01*
X137694494Y-129428463D01*
X137584180Y-129369498D01*
X137464482Y-129333188D01*
X137340000Y-129320928D01*
X137140750Y-129324000D01*
X136982000Y-129482750D01*
X136728000Y-129482750D01*
X136569250Y-129324000D01*
X136370000Y-129320928D01*
X136245518Y-129333188D01*
X136220000Y-129340929D01*
X136194482Y-129333188D01*
X136186239Y-129332376D01*
X136178200Y-129317337D01*
X136089475Y-129209225D01*
X136062384Y-129186992D01*
X135936119Y-129060727D01*
X135944055Y-129055424D01*
X136067324Y-128932155D01*
X136164177Y-128787205D01*
X136230890Y-128626145D01*
X136264900Y-128455165D01*
X136264900Y-128280835D01*
X136263401Y-128273300D01*
X137109209Y-128273300D01*
X139455863Y-130619954D01*
G36*
X127160652Y-115878450D02*
G01*
X127184225Y-115907174D01*
X127211317Y-115929408D01*
X128110892Y-116828984D01*
X128133125Y-116856075D01*
X128241237Y-116944800D01*
X128364580Y-117010728D01*
X128498416Y-117051327D01*
X128602723Y-117061600D01*
X128602724Y-117061600D01*
X128637599Y-117065035D01*
X128672474Y-117061600D01*
X131225283Y-117061600D01*
X131236710Y-117119045D01*
X131303423Y-117280105D01*
X131384403Y-117401300D01*
X130031975Y-117401300D01*
X129997100Y-117397865D01*
X129962225Y-117401300D01*
X129962223Y-117401300D01*
X129857916Y-117411573D01*
X129724080Y-117452172D01*
X129600737Y-117518100D01*
X129492625Y-117606825D01*
X129470388Y-117633921D01*
X128879717Y-118224592D01*
X128852626Y-118246825D01*
X128830393Y-118273916D01*
X128763901Y-118354937D01*
X128697972Y-118478281D01*
X128657374Y-118612116D01*
X128643665Y-118751300D01*
X128647101Y-118786185D01*
X128647100Y-126331525D01*
X128643665Y-126366400D01*
X128647100Y-126401275D01*
X128647100Y-126401276D01*
X128657373Y-126505583D01*
X128697972Y-126639419D01*
X128763900Y-126762762D01*
X128852625Y-126870874D01*
X128879717Y-126893108D01*
X133026608Y-131040000D01*
X104028072Y-131040000D01*
X104028072Y-130900000D01*
X104015812Y-130775518D01*
X103979502Y-130655820D01*
X103920537Y-130545506D01*
X103841185Y-130448815D01*
X103744494Y-130369463D01*
X103634180Y-130310498D01*
X103565313Y-130289607D01*
X103595134Y-130265134D01*
X103780706Y-130039014D01*
X103918599Y-129781034D01*
X104003513Y-129501111D01*
X104032185Y-129210000D01*
X104003513Y-128918889D01*
X103918599Y-128638966D01*
X103780706Y-128380986D01*
X103595134Y-128154866D01*
X103369014Y-127969294D01*
X103111034Y-127831401D01*
X102831111Y-127746487D01*
X102612950Y-127725000D01*
X102467050Y-127725000D01*
X102248889Y-127746487D01*
X101968966Y-127831401D01*
X101710986Y-127969294D01*
X101484866Y-128154866D01*
X101458500Y-128186993D01*
X101458500Y-126829007D01*
X101484866Y-126861134D01*
X101710986Y-127046706D01*
X101968966Y-127184599D01*
X102248889Y-127269513D01*
X102467050Y-127291000D01*
X102612950Y-127291000D01*
X102831111Y-127269513D01*
X103111034Y-127184599D01*
X103369014Y-127046706D01*
X103595134Y-126861134D01*
X103619607Y-126831313D01*
X103640498Y-126900180D01*
X103699463Y-127010494D01*
X103778815Y-127107185D01*
X103875506Y-127186537D01*
X103985820Y-127245502D01*
X104105518Y-127281812D01*
X104230000Y-127294072D01*
X104794250Y-127291000D01*
X104953000Y-127132250D01*
X104953000Y-125933000D01*
X105207000Y-125933000D01*
X105207000Y-127132250D01*
X105365750Y-127291000D01*
X105930000Y-127294072D01*
X106054482Y-127281812D01*
X106174180Y-127245502D01*
X106284494Y-127186537D01*
X106381185Y-127107185D01*
X106460537Y-127010494D01*
X106519502Y-126900180D01*
X106555812Y-126780482D01*
X106568072Y-126656000D01*
X106565000Y-126091750D01*
X106406250Y-125933000D01*
X105207000Y-125933000D01*
X104953000Y-125933000D01*
X104933000Y-125933000D01*
X104933000Y-125679000D01*
X104953000Y-125679000D01*
X104953000Y-123393000D01*
X105207000Y-123393000D01*
X105207000Y-125679000D01*
X106406250Y-125679000D01*
X106565000Y-125520250D01*
X106568072Y-124956000D01*
X106555812Y-124831518D01*
X106519502Y-124711820D01*
X106460537Y-124601506D01*
X106381185Y-124504815D01*
X106284494Y-124425463D01*
X106174180Y-124366498D01*
X106093534Y-124342034D01*
X106177588Y-124266269D01*
X106351641Y-124032920D01*
X106476825Y-123770099D01*
X106521476Y-123622890D01*
X106400155Y-123393000D01*
X105207000Y-123393000D01*
X104953000Y-123393000D01*
X104933000Y-123393000D01*
X104933000Y-123139000D01*
X104953000Y-123139000D01*
X104953000Y-120853000D01*
X105207000Y-120853000D01*
X105207000Y-123139000D01*
X106400155Y-123139000D01*
X106521476Y-122909110D01*
X106476825Y-122761901D01*
X106351641Y-122499080D01*
X106177588Y-122265731D01*
X105961355Y-122070822D01*
X105835745Y-121996000D01*
X105961355Y-121921178D01*
X106177588Y-121726269D01*
X106351641Y-121492920D01*
X106476825Y-121230099D01*
X106521476Y-121082890D01*
X106400155Y-120853000D01*
X105207000Y-120853000D01*
X104953000Y-120853000D01*
X104933000Y-120853000D01*
X104933000Y-120599000D01*
X104953000Y-120599000D01*
X104953000Y-120579000D01*
X105207000Y-120579000D01*
X105207000Y-120599000D01*
X106400155Y-120599000D01*
X106521476Y-120369110D01*
X106476825Y-120221901D01*
X106373704Y-120005400D01*
X122682525Y-120005400D01*
X122717400Y-120008835D01*
X122752275Y-120005400D01*
X122752277Y-120005400D01*
X122856584Y-119995127D01*
X122990420Y-119954528D01*
X123113763Y-119888600D01*
X123221875Y-119799875D01*
X123244112Y-119772779D01*
X127147337Y-115869554D01*
X127160652Y-115878450D01*
X127160652Y-115878450D01*
G37*
X127160652Y-115878450D02*
X127184225Y-115907174D01*
X127211317Y-115929408D01*
X128110892Y-116828984D01*
X128133125Y-116856075D01*
X128241237Y-116944800D01*
X128364580Y-117010728D01*
X128498416Y-117051327D01*
X128602723Y-117061600D01*
X128602724Y-117061600D01*
X128637599Y-117065035D01*
X128672474Y-117061600D01*
X131225283Y-117061600D01*
X131236710Y-117119045D01*
X131303423Y-117280105D01*
X131384403Y-117401300D01*
X130031975Y-117401300D01*
X129997100Y-117397865D01*
X129962225Y-117401300D01*
X129962223Y-117401300D01*
X129857916Y-117411573D01*
X129724080Y-117452172D01*
X129600737Y-117518100D01*
X129492625Y-117606825D01*
X129470388Y-117633921D01*
X128879717Y-118224592D01*
X128852626Y-118246825D01*
X128830393Y-118273916D01*
X128763901Y-118354937D01*
X128697972Y-118478281D01*
X128657374Y-118612116D01*
X128643665Y-118751300D01*
X128647101Y-118786185D01*
X128647100Y-126331525D01*
X128643665Y-126366400D01*
X128647100Y-126401275D01*
X128647100Y-126401276D01*
X128657373Y-126505583D01*
X128697972Y-126639419D01*
X128763900Y-126762762D01*
X128852625Y-126870874D01*
X128879717Y-126893108D01*
X133026608Y-131040000D01*
X104028072Y-131040000D01*
X104028072Y-130900000D01*
X104015812Y-130775518D01*
X103979502Y-130655820D01*
X103920537Y-130545506D01*
X103841185Y-130448815D01*
X103744494Y-130369463D01*
X103634180Y-130310498D01*
X103565313Y-130289607D01*
X103595134Y-130265134D01*
X103780706Y-130039014D01*
X103918599Y-129781034D01*
X104003513Y-129501111D01*
X104032185Y-129210000D01*
X104003513Y-128918889D01*
X103918599Y-128638966D01*
X103780706Y-128380986D01*
X103595134Y-128154866D01*
X103369014Y-127969294D01*
X103111034Y-127831401D01*
X102831111Y-127746487D01*
X102612950Y-127725000D01*
X102467050Y-127725000D01*
X102248889Y-127746487D01*
X101968966Y-127831401D01*
X101710986Y-127969294D01*
X101484866Y-128154866D01*
X101458500Y-128186993D01*
X101458500Y-126829007D01*
X101484866Y-126861134D01*
X101710986Y-127046706D01*
X101968966Y-127184599D01*
X102248889Y-127269513D01*
X102467050Y-127291000D01*
X102612950Y-127291000D01*
X102831111Y-127269513D01*
X103111034Y-127184599D01*
X103369014Y-127046706D01*
X103595134Y-126861134D01*
X103619607Y-126831313D01*
X103640498Y-126900180D01*
X103699463Y-127010494D01*
X103778815Y-127107185D01*
X103875506Y-127186537D01*
X103985820Y-127245502D01*
X104105518Y-127281812D01*
X104230000Y-127294072D01*
X104794250Y-127291000D01*
X104953000Y-127132250D01*
X104953000Y-125933000D01*
X105207000Y-125933000D01*
X105207000Y-127132250D01*
X105365750Y-127291000D01*
X105930000Y-127294072D01*
X106054482Y-127281812D01*
X106174180Y-127245502D01*
X106284494Y-127186537D01*
X106381185Y-127107185D01*
X106460537Y-127010494D01*
X106519502Y-126900180D01*
X106555812Y-126780482D01*
X106568072Y-126656000D01*
X106565000Y-126091750D01*
X106406250Y-125933000D01*
X105207000Y-125933000D01*
X104953000Y-125933000D01*
X104933000Y-125933000D01*
X104933000Y-125679000D01*
X104953000Y-125679000D01*
X104953000Y-123393000D01*
X105207000Y-123393000D01*
X105207000Y-125679000D01*
X106406250Y-125679000D01*
X106565000Y-125520250D01*
X106568072Y-124956000D01*
X106555812Y-124831518D01*
X106519502Y-124711820D01*
X106460537Y-124601506D01*
X106381185Y-124504815D01*
X106284494Y-124425463D01*
X106174180Y-124366498D01*
X106093534Y-124342034D01*
X106177588Y-124266269D01*
X106351641Y-124032920D01*
X106476825Y-123770099D01*
X106521476Y-123622890D01*
X106400155Y-123393000D01*
X105207000Y-123393000D01*
X104953000Y-123393000D01*
X104933000Y-123393000D01*
X104933000Y-123139000D01*
X104953000Y-123139000D01*
X104953000Y-120853000D01*
X105207000Y-120853000D01*
X105207000Y-123139000D01*
X106400155Y-123139000D01*
X106521476Y-122909110D01*
X106476825Y-122761901D01*
X106351641Y-122499080D01*
X106177588Y-122265731D01*
X105961355Y-122070822D01*
X105835745Y-121996000D01*
X105961355Y-121921178D01*
X106177588Y-121726269D01*
X106351641Y-121492920D01*
X106476825Y-121230099D01*
X106521476Y-121082890D01*
X106400155Y-120853000D01*
X105207000Y-120853000D01*
X104953000Y-120853000D01*
X104933000Y-120853000D01*
X104933000Y-120599000D01*
X104953000Y-120599000D01*
X104953000Y-120579000D01*
X105207000Y-120579000D01*
X105207000Y-120599000D01*
X106400155Y-120599000D01*
X106521476Y-120369110D01*
X106476825Y-120221901D01*
X106373704Y-120005400D01*
X122682525Y-120005400D01*
X122717400Y-120008835D01*
X122752275Y-120005400D01*
X122752277Y-120005400D01*
X122856584Y-119995127D01*
X122990420Y-119954528D01*
X123113763Y-119888600D01*
X123221875Y-119799875D01*
X123244112Y-119772779D01*
X127147337Y-115869554D01*
X127160652Y-115878450D01*
G36*
X139451928Y-126570000D02*
G01*
X139451928Y-126770000D01*
X139466110Y-126913991D01*
X139508110Y-127052448D01*
X139576316Y-127180051D01*
X139668104Y-127291896D01*
X139779949Y-127383684D01*
X139907552Y-127451890D01*
X140004942Y-127481433D01*
X140083800Y-127560290D01*
X140083801Y-129071716D01*
X140080365Y-129106600D01*
X140094074Y-129245784D01*
X140095902Y-129251811D01*
X137989554Y-127145463D01*
X137988000Y-126968750D01*
X137829250Y-126810000D01*
X136995000Y-126810000D01*
X136995000Y-126830000D01*
X136741000Y-126830000D01*
X136741000Y-126810000D01*
X136721072Y-126810000D01*
X136721072Y-126556000D01*
X136741000Y-126556000D01*
X136741000Y-126536000D01*
X136995000Y-126536000D01*
X136995000Y-126556000D01*
X137829250Y-126556000D01*
X137893650Y-126491600D01*
X139459650Y-126491600D01*
X139451928Y-126570000D01*
X139451928Y-126570000D01*
G37*
X139451928Y-126570000D02*
X139451928Y-126770000D01*
X139466110Y-126913991D01*
X139508110Y-127052448D01*
X139576316Y-127180051D01*
X139668104Y-127291896D01*
X139779949Y-127383684D01*
X139907552Y-127451890D01*
X140004942Y-127481433D01*
X140083800Y-127560290D01*
X140083801Y-129071716D01*
X140080365Y-129106600D01*
X140094074Y-129245784D01*
X140095902Y-129251811D01*
X137989554Y-127145463D01*
X137988000Y-126968750D01*
X137829250Y-126810000D01*
X136995000Y-126810000D01*
X136995000Y-126830000D01*
X136741000Y-126830000D01*
X136741000Y-126810000D01*
X136721072Y-126810000D01*
X136721072Y-126556000D01*
X136741000Y-126556000D01*
X136741000Y-126536000D01*
X136995000Y-126536000D01*
X136995000Y-126556000D01*
X137829250Y-126556000D01*
X137893650Y-126491600D01*
X139459650Y-126491600D01*
X139451928Y-126570000D01*
G36*
X136265000Y-118965000D02*
G01*
X136285000Y-118965000D01*
X136285000Y-119219000D01*
X136265000Y-119219000D01*
X136265000Y-119239000D01*
X136011000Y-119239000D01*
X136011000Y-119219000D01*
X135991000Y-119219000D01*
X135991000Y-118965000D01*
X136011000Y-118965000D01*
X136011000Y-118945000D01*
X136265000Y-118945000D01*
X136265000Y-118965000D01*
X136265000Y-118965000D01*
G37*
X136265000Y-118965000D02*
X136285000Y-118965000D01*
X136285000Y-119219000D01*
X136265000Y-119219000D01*
X136265000Y-119239000D01*
X136011000Y-119239000D01*
X136011000Y-119219000D01*
X135991000Y-119219000D01*
X135991000Y-118965000D01*
X136011000Y-118965000D01*
X136011000Y-118945000D01*
X136265000Y-118945000D01*
X136265000Y-118965000D01*
G36*
X123175600Y-117804135D02*
G01*
X123207740Y-117800969D01*
X122423309Y-118585400D01*
X106508582Y-118585400D01*
X106521476Y-118542890D01*
X106400155Y-118313000D01*
X105207000Y-118313000D01*
X105207000Y-118333000D01*
X104953000Y-118333000D01*
X104953000Y-118313000D01*
X104933000Y-118313000D01*
X104933000Y-118059000D01*
X104953000Y-118059000D01*
X104953000Y-118039000D01*
X105207000Y-118039000D01*
X105207000Y-118059000D01*
X106400155Y-118059000D01*
X106521476Y-117829110D01*
X106512859Y-117800700D01*
X123140725Y-117800700D01*
X123175600Y-117804135D01*
X123175600Y-117804135D01*
G37*
X123175600Y-117804135D02*
X123207740Y-117800969D01*
X122423309Y-118585400D01*
X106508582Y-118585400D01*
X106521476Y-118542890D01*
X106400155Y-118313000D01*
X105207000Y-118313000D01*
X105207000Y-118333000D01*
X104953000Y-118333000D01*
X104953000Y-118313000D01*
X104933000Y-118313000D01*
X104933000Y-118059000D01*
X104953000Y-118059000D01*
X104953000Y-118039000D01*
X105207000Y-118039000D01*
X105207000Y-118059000D01*
X106400155Y-118059000D01*
X106521476Y-117829110D01*
X106512859Y-117800700D01*
X123140725Y-117800700D01*
X123175600Y-117804135D01*
G36*
X122881509Y-116380700D02*
G01*
X106366988Y-116380700D01*
X106476825Y-116150099D01*
X106521476Y-116002890D01*
X106400155Y-115773000D01*
X105207000Y-115773000D01*
X105207000Y-115793000D01*
X104953000Y-115793000D01*
X104953000Y-115773000D01*
X104933000Y-115773000D01*
X104933000Y-115519000D01*
X104953000Y-115519000D01*
X104953000Y-115499000D01*
X105207000Y-115499000D01*
X105207000Y-115519000D01*
X106400155Y-115519000D01*
X106521476Y-115289110D01*
X106476825Y-115141901D01*
X106450199Y-115086000D01*
X122030425Y-115086000D01*
X122065300Y-115089435D01*
X122100175Y-115086000D01*
X122100177Y-115086000D01*
X122204484Y-115075727D01*
X122338320Y-115035128D01*
X122461663Y-114969200D01*
X122569775Y-114880475D01*
X122592012Y-114853379D01*
X123019992Y-114425400D01*
X124836808Y-114425400D01*
X122881509Y-116380700D01*
X122881509Y-116380700D01*
G37*
X122881509Y-116380700D02*
X106366988Y-116380700D01*
X106476825Y-116150099D01*
X106521476Y-116002890D01*
X106400155Y-115773000D01*
X105207000Y-115773000D01*
X105207000Y-115793000D01*
X104953000Y-115793000D01*
X104953000Y-115773000D01*
X104933000Y-115773000D01*
X104933000Y-115519000D01*
X104953000Y-115519000D01*
X104953000Y-115499000D01*
X105207000Y-115499000D01*
X105207000Y-115519000D01*
X106400155Y-115519000D01*
X106521476Y-115289110D01*
X106476825Y-115141901D01*
X106450199Y-115086000D01*
X122030425Y-115086000D01*
X122065300Y-115089435D01*
X122100175Y-115086000D01*
X122100177Y-115086000D01*
X122204484Y-115075727D01*
X122338320Y-115035128D01*
X122461663Y-114969200D01*
X122569775Y-114880475D01*
X122592012Y-114853379D01*
X123019992Y-114425400D01*
X124836808Y-114425400D01*
X122881509Y-116380700D01*
G36*
X131543476Y-112352155D02*
G01*
X131616477Y-112425156D01*
X131559923Y-112509795D01*
X131493210Y-112670855D01*
X131459200Y-112841835D01*
X131459200Y-113005400D01*
X122760774Y-113005400D01*
X122725899Y-113001965D01*
X122691024Y-113005400D01*
X122691023Y-113005400D01*
X122586716Y-113015673D01*
X122452880Y-113056272D01*
X122337499Y-113117945D01*
X122329535Y-113122201D01*
X122262340Y-113177347D01*
X122221425Y-113210925D01*
X122199192Y-113238016D01*
X121771209Y-113666000D01*
X106450199Y-113666000D01*
X106476825Y-113610099D01*
X106521476Y-113462890D01*
X106400155Y-113233000D01*
X105207000Y-113233000D01*
X105207000Y-113253000D01*
X104953000Y-113253000D01*
X104953000Y-113233000D01*
X104933000Y-113233000D01*
X104933000Y-112979000D01*
X104953000Y-112979000D01*
X104953000Y-112959000D01*
X105207000Y-112959000D01*
X105207000Y-112979000D01*
X106400155Y-112979000D01*
X106521476Y-112749110D01*
X106504275Y-112692400D01*
X123379925Y-112692400D01*
X123414800Y-112695835D01*
X123449675Y-112692400D01*
X123449677Y-112692400D01*
X123553984Y-112682127D01*
X123687820Y-112641528D01*
X123811163Y-112575600D01*
X123857364Y-112537684D01*
X123949680Y-112587028D01*
X124083516Y-112627627D01*
X124187823Y-112637900D01*
X124187824Y-112637900D01*
X124222699Y-112641335D01*
X124257574Y-112637900D01*
X130782425Y-112637900D01*
X130817300Y-112641335D01*
X130852175Y-112637900D01*
X130852177Y-112637900D01*
X130956484Y-112627627D01*
X131090320Y-112587028D01*
X131213663Y-112521100D01*
X131321775Y-112432375D01*
X131344012Y-112405279D01*
X131484860Y-112264431D01*
X131543476Y-112352155D01*
X131543476Y-112352155D01*
G37*
X131543476Y-112352155D02*
X131616477Y-112425156D01*
X131559923Y-112509795D01*
X131493210Y-112670855D01*
X131459200Y-112841835D01*
X131459200Y-113005400D01*
X122760774Y-113005400D01*
X122725899Y-113001965D01*
X122691024Y-113005400D01*
X122691023Y-113005400D01*
X122586716Y-113015673D01*
X122452880Y-113056272D01*
X122337499Y-113117945D01*
X122329535Y-113122201D01*
X122262340Y-113177347D01*
X122221425Y-113210925D01*
X122199192Y-113238016D01*
X121771209Y-113666000D01*
X106450199Y-113666000D01*
X106476825Y-113610099D01*
X106521476Y-113462890D01*
X106400155Y-113233000D01*
X105207000Y-113233000D01*
X105207000Y-113253000D01*
X104953000Y-113253000D01*
X104953000Y-113233000D01*
X104933000Y-113233000D01*
X104933000Y-112979000D01*
X104953000Y-112979000D01*
X104953000Y-112959000D01*
X105207000Y-112959000D01*
X105207000Y-112979000D01*
X106400155Y-112979000D01*
X106521476Y-112749110D01*
X106504275Y-112692400D01*
X123379925Y-112692400D01*
X123414800Y-112695835D01*
X123449675Y-112692400D01*
X123449677Y-112692400D01*
X123553984Y-112682127D01*
X123687820Y-112641528D01*
X123811163Y-112575600D01*
X123857364Y-112537684D01*
X123949680Y-112587028D01*
X124083516Y-112627627D01*
X124187823Y-112637900D01*
X124187824Y-112637900D01*
X124222699Y-112641335D01*
X124257574Y-112637900D01*
X130782425Y-112637900D01*
X130817300Y-112641335D01*
X130852175Y-112637900D01*
X130852177Y-112637900D01*
X130956484Y-112627627D01*
X131090320Y-112587028D01*
X131213663Y-112521100D01*
X131321775Y-112432375D01*
X131344012Y-112405279D01*
X131484860Y-112264431D01*
X131543476Y-112352155D01*
G36*
X108920000Y-101064250D02*
G01*
X109078750Y-101223000D01*
X109873000Y-101223000D01*
X109873000Y-101203000D01*
X110115000Y-101203000D01*
X110115000Y-101273765D01*
X110147000Y-101434640D01*
X110147000Y-101477000D01*
X110127000Y-101477000D01*
X110127000Y-102876250D01*
X110259928Y-103009178D01*
X110212733Y-103040713D01*
X110040713Y-103212733D01*
X109905557Y-103415008D01*
X109812460Y-103639764D01*
X109765000Y-103878363D01*
X109765000Y-104121637D01*
X109812460Y-104360236D01*
X109905557Y-104584992D01*
X110040713Y-104787267D01*
X110212733Y-104959287D01*
X110259928Y-104990822D01*
X110127000Y-105123750D01*
X110127000Y-105911107D01*
X110115000Y-105971435D01*
X110115000Y-106145765D01*
X110127000Y-106206093D01*
X110127000Y-106523000D01*
X110147000Y-106523000D01*
X110147000Y-106777000D01*
X110127000Y-106777000D01*
X110127000Y-108176250D01*
X110285750Y-108335000D01*
X110445000Y-108338072D01*
X110569482Y-108325812D01*
X110689180Y-108289502D01*
X110799494Y-108230537D01*
X110896185Y-108151185D01*
X110975537Y-108054494D01*
X111000000Y-108008728D01*
X111024463Y-108054494D01*
X111103815Y-108151185D01*
X111200506Y-108230537D01*
X111310820Y-108289502D01*
X111430518Y-108325812D01*
X111555000Y-108338072D01*
X112445000Y-108338072D01*
X112569482Y-108325812D01*
X112689180Y-108289502D01*
X112737202Y-108263833D01*
X112691123Y-108332795D01*
X112624410Y-108493855D01*
X112590400Y-108664835D01*
X112590400Y-108839165D01*
X112624410Y-109010145D01*
X112691123Y-109171205D01*
X112787976Y-109316155D01*
X112911245Y-109439424D01*
X113056195Y-109536277D01*
X113217255Y-109602990D01*
X113388235Y-109637000D01*
X113562565Y-109637000D01*
X113733545Y-109602990D01*
X113894605Y-109536277D01*
X114039555Y-109439424D01*
X114162824Y-109316155D01*
X114259677Y-109171205D01*
X114326390Y-109010145D01*
X114352473Y-108879019D01*
X114477388Y-108754104D01*
X114504474Y-108731875D01*
X114526704Y-108704788D01*
X114526707Y-108704785D01*
X114593199Y-108623765D01*
X114603535Y-108604428D01*
X114659128Y-108500420D01*
X114699727Y-108366584D01*
X114708327Y-108279268D01*
X114799494Y-108230537D01*
X114896185Y-108151185D01*
X114911077Y-108133039D01*
X114872010Y-108227355D01*
X114838000Y-108398335D01*
X114838000Y-108572665D01*
X114872010Y-108743645D01*
X114938723Y-108904705D01*
X115035576Y-109049655D01*
X115158845Y-109172924D01*
X115303795Y-109269777D01*
X115464855Y-109336490D01*
X115635835Y-109370500D01*
X115810165Y-109370500D01*
X115981145Y-109336490D01*
X116142205Y-109269777D01*
X116287155Y-109172924D01*
X116410424Y-109049655D01*
X116507277Y-108904705D01*
X116573990Y-108743645D01*
X116606571Y-108579847D01*
X116659128Y-108481520D01*
X116699727Y-108347684D01*
X116706362Y-108280318D01*
X116799494Y-108230537D01*
X116896185Y-108151185D01*
X116975537Y-108054494D01*
X117000000Y-108008728D01*
X117024463Y-108054494D01*
X117103815Y-108151185D01*
X117200506Y-108230537D01*
X117290000Y-108278373D01*
X117290000Y-108293325D01*
X117286873Y-108325070D01*
X117272300Y-108398335D01*
X117272300Y-108572665D01*
X117306310Y-108743645D01*
X117373023Y-108904705D01*
X117469876Y-109049655D01*
X117593145Y-109172924D01*
X117738095Y-109269777D01*
X117899155Y-109336490D01*
X118070135Y-109370500D01*
X118244465Y-109370500D01*
X118415445Y-109336490D01*
X118576505Y-109269777D01*
X118721455Y-109172924D01*
X118844724Y-109049655D01*
X118941577Y-108904705D01*
X119008290Y-108743645D01*
X119042300Y-108572665D01*
X119042300Y-108398335D01*
X119008290Y-108227355D01*
X118949720Y-108085953D01*
X118975537Y-108054494D01*
X119000000Y-108008728D01*
X119024463Y-108054494D01*
X119103815Y-108151185D01*
X119200506Y-108230537D01*
X119310820Y-108289502D01*
X119392098Y-108314157D01*
X119406800Y-108341663D01*
X119495525Y-108449775D01*
X119603637Y-108538500D01*
X119682847Y-108580839D01*
X119714527Y-108612519D01*
X119740610Y-108743645D01*
X119807323Y-108904705D01*
X119904176Y-109049655D01*
X120027445Y-109172924D01*
X120172395Y-109269777D01*
X120333455Y-109336490D01*
X120504435Y-109370500D01*
X120678765Y-109370500D01*
X120849745Y-109336490D01*
X121010805Y-109269777D01*
X121155755Y-109172924D01*
X121279024Y-109049655D01*
X121375877Y-108904705D01*
X121442590Y-108743645D01*
X121476600Y-108572665D01*
X121476600Y-108398335D01*
X121462807Y-108328992D01*
X121555000Y-108338072D01*
X122445000Y-108338072D01*
X122569482Y-108325812D01*
X122689180Y-108289502D01*
X122799494Y-108230537D01*
X122896185Y-108151185D01*
X122975537Y-108054494D01*
X123000000Y-108008728D01*
X123024463Y-108054494D01*
X123103815Y-108151185D01*
X123200506Y-108230537D01*
X123310820Y-108289502D01*
X123392099Y-108314158D01*
X123406801Y-108341663D01*
X123495526Y-108449775D01*
X123522617Y-108472008D01*
X123740000Y-108689391D01*
X123740000Y-108717123D01*
X123736565Y-108752000D01*
X123740001Y-108786887D01*
X123740001Y-109321928D01*
X123680000Y-109321928D01*
X123536009Y-109336110D01*
X123397552Y-109378110D01*
X123269949Y-109446316D01*
X123158104Y-109538104D01*
X123066316Y-109649949D01*
X122998110Y-109777552D01*
X122956110Y-109916009D01*
X122941928Y-110060000D01*
X122941928Y-110260000D01*
X122956110Y-110403991D01*
X122998110Y-110542448D01*
X123066316Y-110670051D01*
X123100000Y-110711096D01*
X123100001Y-110924281D01*
X123034110Y-111047552D01*
X122992110Y-111186009D01*
X122983601Y-111272400D01*
X106380467Y-111272400D01*
X106476825Y-111070099D01*
X106521476Y-110922890D01*
X106400155Y-110693000D01*
X105207000Y-110693000D01*
X105207000Y-110713000D01*
X104953000Y-110713000D01*
X104953000Y-110693000D01*
X104933000Y-110693000D01*
X104933000Y-110439000D01*
X104953000Y-110439000D01*
X104953000Y-108153000D01*
X105207000Y-108153000D01*
X105207000Y-110439000D01*
X106400155Y-110439000D01*
X106521476Y-110209110D01*
X106476825Y-110061901D01*
X106351641Y-109799080D01*
X106177588Y-109565731D01*
X105961355Y-109370822D01*
X105835745Y-109296000D01*
X105961355Y-109221178D01*
X106177588Y-109026269D01*
X106351641Y-108792920D01*
X106476825Y-108530099D01*
X106521476Y-108382890D01*
X106400155Y-108153000D01*
X105207000Y-108153000D01*
X104953000Y-108153000D01*
X104933000Y-108153000D01*
X104933000Y-107899000D01*
X104953000Y-107899000D01*
X104953000Y-106705186D01*
X105207000Y-106705186D01*
X105207000Y-107899000D01*
X106400155Y-107899000D01*
X106505174Y-107700000D01*
X108916928Y-107700000D01*
X108929188Y-107824482D01*
X108965498Y-107944180D01*
X109024463Y-108054494D01*
X109103815Y-108151185D01*
X109200506Y-108230537D01*
X109310820Y-108289502D01*
X109430518Y-108325812D01*
X109555000Y-108338072D01*
X109714250Y-108335000D01*
X109873000Y-108176250D01*
X109873000Y-106777000D01*
X109078750Y-106777000D01*
X108920000Y-106935750D01*
X108916928Y-107700000D01*
X106505174Y-107700000D01*
X106521476Y-107669110D01*
X106476825Y-107521901D01*
X106351641Y-107259080D01*
X106177588Y-107025731D01*
X105961355Y-106830822D01*
X105711252Y-106681843D01*
X105436891Y-106584519D01*
X105207000Y-106705186D01*
X104953000Y-106705186D01*
X104723109Y-106584519D01*
X104448748Y-106681843D01*
X104198645Y-106830822D01*
X103982412Y-107025731D01*
X103811584Y-107254756D01*
X103780706Y-107196986D01*
X103595134Y-106970866D01*
X103369014Y-106785294D01*
X103111034Y-106647401D01*
X102831111Y-106562487D01*
X102612950Y-106541000D01*
X102467050Y-106541000D01*
X102248889Y-106562487D01*
X101968966Y-106647401D01*
X101710986Y-106785294D01*
X101484866Y-106970866D01*
X101299294Y-107196986D01*
X101161401Y-107454966D01*
X101076487Y-107734889D01*
X101047815Y-108026000D01*
X101076487Y-108317111D01*
X101161401Y-108597034D01*
X101299294Y-108855014D01*
X101484866Y-109081134D01*
X101710986Y-109266706D01*
X101765791Y-109296000D01*
X101710986Y-109325294D01*
X101484866Y-109510866D01*
X101299294Y-109736986D01*
X101161401Y-109994966D01*
X101076487Y-110274889D01*
X101047815Y-110566000D01*
X101076487Y-110857111D01*
X101161401Y-111137034D01*
X101299294Y-111395014D01*
X101447908Y-111576101D01*
X100685000Y-112339009D01*
X100685000Y-105600000D01*
X108916928Y-105600000D01*
X108920000Y-106364250D01*
X109078750Y-106523000D01*
X109873000Y-106523000D01*
X109873000Y-105123750D01*
X109714250Y-104965000D01*
X109555000Y-104961928D01*
X109430518Y-104974188D01*
X109310820Y-105010498D01*
X109200506Y-105069463D01*
X109103815Y-105148815D01*
X109024463Y-105245506D01*
X108965498Y-105355820D01*
X108929188Y-105475518D01*
X108916928Y-105600000D01*
X100685000Y-105600000D01*
X100685000Y-102400000D01*
X108916928Y-102400000D01*
X108929188Y-102524482D01*
X108965498Y-102644180D01*
X109024463Y-102754494D01*
X109103815Y-102851185D01*
X109200506Y-102930537D01*
X109310820Y-102989502D01*
X109430518Y-103025812D01*
X109555000Y-103038072D01*
X109714250Y-103035000D01*
X109873000Y-102876250D01*
X109873000Y-101477000D01*
X109078750Y-101477000D01*
X108920000Y-101635750D01*
X108916928Y-102400000D01*
X100685000Y-102400000D01*
X100685000Y-100685000D01*
X108918476Y-100685000D01*
X108920000Y-101064250D01*
X108920000Y-101064250D01*
G37*
X108920000Y-101064250D02*
X109078750Y-101223000D01*
X109873000Y-101223000D01*
X109873000Y-101203000D01*
X110115000Y-101203000D01*
X110115000Y-101273765D01*
X110147000Y-101434640D01*
X110147000Y-101477000D01*
X110127000Y-101477000D01*
X110127000Y-102876250D01*
X110259928Y-103009178D01*
X110212733Y-103040713D01*
X110040713Y-103212733D01*
X109905557Y-103415008D01*
X109812460Y-103639764D01*
X109765000Y-103878363D01*
X109765000Y-104121637D01*
X109812460Y-104360236D01*
X109905557Y-104584992D01*
X110040713Y-104787267D01*
X110212733Y-104959287D01*
X110259928Y-104990822D01*
X110127000Y-105123750D01*
X110127000Y-105911107D01*
X110115000Y-105971435D01*
X110115000Y-106145765D01*
X110127000Y-106206093D01*
X110127000Y-106523000D01*
X110147000Y-106523000D01*
X110147000Y-106777000D01*
X110127000Y-106777000D01*
X110127000Y-108176250D01*
X110285750Y-108335000D01*
X110445000Y-108338072D01*
X110569482Y-108325812D01*
X110689180Y-108289502D01*
X110799494Y-108230537D01*
X110896185Y-108151185D01*
X110975537Y-108054494D01*
X111000000Y-108008728D01*
X111024463Y-108054494D01*
X111103815Y-108151185D01*
X111200506Y-108230537D01*
X111310820Y-108289502D01*
X111430518Y-108325812D01*
X111555000Y-108338072D01*
X112445000Y-108338072D01*
X112569482Y-108325812D01*
X112689180Y-108289502D01*
X112737202Y-108263833D01*
X112691123Y-108332795D01*
X112624410Y-108493855D01*
X112590400Y-108664835D01*
X112590400Y-108839165D01*
X112624410Y-109010145D01*
X112691123Y-109171205D01*
X112787976Y-109316155D01*
X112911245Y-109439424D01*
X113056195Y-109536277D01*
X113217255Y-109602990D01*
X113388235Y-109637000D01*
X113562565Y-109637000D01*
X113733545Y-109602990D01*
X113894605Y-109536277D01*
X114039555Y-109439424D01*
X114162824Y-109316155D01*
X114259677Y-109171205D01*
X114326390Y-109010145D01*
X114352473Y-108879019D01*
X114477388Y-108754104D01*
X114504474Y-108731875D01*
X114526704Y-108704788D01*
X114526707Y-108704785D01*
X114593199Y-108623765D01*
X114603535Y-108604428D01*
X114659128Y-108500420D01*
X114699727Y-108366584D01*
X114708327Y-108279268D01*
X114799494Y-108230537D01*
X114896185Y-108151185D01*
X114911077Y-108133039D01*
X114872010Y-108227355D01*
X114838000Y-108398335D01*
X114838000Y-108572665D01*
X114872010Y-108743645D01*
X114938723Y-108904705D01*
X115035576Y-109049655D01*
X115158845Y-109172924D01*
X115303795Y-109269777D01*
X115464855Y-109336490D01*
X115635835Y-109370500D01*
X115810165Y-109370500D01*
X115981145Y-109336490D01*
X116142205Y-109269777D01*
X116287155Y-109172924D01*
X116410424Y-109049655D01*
X116507277Y-108904705D01*
X116573990Y-108743645D01*
X116606571Y-108579847D01*
X116659128Y-108481520D01*
X116699727Y-108347684D01*
X116706362Y-108280318D01*
X116799494Y-108230537D01*
X116896185Y-108151185D01*
X116975537Y-108054494D01*
X117000000Y-108008728D01*
X117024463Y-108054494D01*
X117103815Y-108151185D01*
X117200506Y-108230537D01*
X117290000Y-108278373D01*
X117290000Y-108293325D01*
X117286873Y-108325070D01*
X117272300Y-108398335D01*
X117272300Y-108572665D01*
X117306310Y-108743645D01*
X117373023Y-108904705D01*
X117469876Y-109049655D01*
X117593145Y-109172924D01*
X117738095Y-109269777D01*
X117899155Y-109336490D01*
X118070135Y-109370500D01*
X118244465Y-109370500D01*
X118415445Y-109336490D01*
X118576505Y-109269777D01*
X118721455Y-109172924D01*
X118844724Y-109049655D01*
X118941577Y-108904705D01*
X119008290Y-108743645D01*
X119042300Y-108572665D01*
X119042300Y-108398335D01*
X119008290Y-108227355D01*
X118949720Y-108085953D01*
X118975537Y-108054494D01*
X119000000Y-108008728D01*
X119024463Y-108054494D01*
X119103815Y-108151185D01*
X119200506Y-108230537D01*
X119310820Y-108289502D01*
X119392098Y-108314157D01*
X119406800Y-108341663D01*
X119495525Y-108449775D01*
X119603637Y-108538500D01*
X119682847Y-108580839D01*
X119714527Y-108612519D01*
X119740610Y-108743645D01*
X119807323Y-108904705D01*
X119904176Y-109049655D01*
X120027445Y-109172924D01*
X120172395Y-109269777D01*
X120333455Y-109336490D01*
X120504435Y-109370500D01*
X120678765Y-109370500D01*
X120849745Y-109336490D01*
X121010805Y-109269777D01*
X121155755Y-109172924D01*
X121279024Y-109049655D01*
X121375877Y-108904705D01*
X121442590Y-108743645D01*
X121476600Y-108572665D01*
X121476600Y-108398335D01*
X121462807Y-108328992D01*
X121555000Y-108338072D01*
X122445000Y-108338072D01*
X122569482Y-108325812D01*
X122689180Y-108289502D01*
X122799494Y-108230537D01*
X122896185Y-108151185D01*
X122975537Y-108054494D01*
X123000000Y-108008728D01*
X123024463Y-108054494D01*
X123103815Y-108151185D01*
X123200506Y-108230537D01*
X123310820Y-108289502D01*
X123392099Y-108314158D01*
X123406801Y-108341663D01*
X123495526Y-108449775D01*
X123522617Y-108472008D01*
X123740000Y-108689391D01*
X123740000Y-108717123D01*
X123736565Y-108752000D01*
X123740001Y-108786887D01*
X123740001Y-109321928D01*
X123680000Y-109321928D01*
X123536009Y-109336110D01*
X123397552Y-109378110D01*
X123269949Y-109446316D01*
X123158104Y-109538104D01*
X123066316Y-109649949D01*
X122998110Y-109777552D01*
X122956110Y-109916009D01*
X122941928Y-110060000D01*
X122941928Y-110260000D01*
X122956110Y-110403991D01*
X122998110Y-110542448D01*
X123066316Y-110670051D01*
X123100000Y-110711096D01*
X123100001Y-110924281D01*
X123034110Y-111047552D01*
X122992110Y-111186009D01*
X122983601Y-111272400D01*
X106380467Y-111272400D01*
X106476825Y-111070099D01*
X106521476Y-110922890D01*
X106400155Y-110693000D01*
X105207000Y-110693000D01*
X105207000Y-110713000D01*
X104953000Y-110713000D01*
X104953000Y-110693000D01*
X104933000Y-110693000D01*
X104933000Y-110439000D01*
X104953000Y-110439000D01*
X104953000Y-108153000D01*
X105207000Y-108153000D01*
X105207000Y-110439000D01*
X106400155Y-110439000D01*
X106521476Y-110209110D01*
X106476825Y-110061901D01*
X106351641Y-109799080D01*
X106177588Y-109565731D01*
X105961355Y-109370822D01*
X105835745Y-109296000D01*
X105961355Y-109221178D01*
X106177588Y-109026269D01*
X106351641Y-108792920D01*
X106476825Y-108530099D01*
X106521476Y-108382890D01*
X106400155Y-108153000D01*
X105207000Y-108153000D01*
X104953000Y-108153000D01*
X104933000Y-108153000D01*
X104933000Y-107899000D01*
X104953000Y-107899000D01*
X104953000Y-106705186D01*
X105207000Y-106705186D01*
X105207000Y-107899000D01*
X106400155Y-107899000D01*
X106505174Y-107700000D01*
X108916928Y-107700000D01*
X108929188Y-107824482D01*
X108965498Y-107944180D01*
X109024463Y-108054494D01*
X109103815Y-108151185D01*
X109200506Y-108230537D01*
X109310820Y-108289502D01*
X109430518Y-108325812D01*
X109555000Y-108338072D01*
X109714250Y-108335000D01*
X109873000Y-108176250D01*
X109873000Y-106777000D01*
X109078750Y-106777000D01*
X108920000Y-106935750D01*
X108916928Y-107700000D01*
X106505174Y-107700000D01*
X106521476Y-107669110D01*
X106476825Y-107521901D01*
X106351641Y-107259080D01*
X106177588Y-107025731D01*
X105961355Y-106830822D01*
X105711252Y-106681843D01*
X105436891Y-106584519D01*
X105207000Y-106705186D01*
X104953000Y-106705186D01*
X104723109Y-106584519D01*
X104448748Y-106681843D01*
X104198645Y-106830822D01*
X103982412Y-107025731D01*
X103811584Y-107254756D01*
X103780706Y-107196986D01*
X103595134Y-106970866D01*
X103369014Y-106785294D01*
X103111034Y-106647401D01*
X102831111Y-106562487D01*
X102612950Y-106541000D01*
X102467050Y-106541000D01*
X102248889Y-106562487D01*
X101968966Y-106647401D01*
X101710986Y-106785294D01*
X101484866Y-106970866D01*
X101299294Y-107196986D01*
X101161401Y-107454966D01*
X101076487Y-107734889D01*
X101047815Y-108026000D01*
X101076487Y-108317111D01*
X101161401Y-108597034D01*
X101299294Y-108855014D01*
X101484866Y-109081134D01*
X101710986Y-109266706D01*
X101765791Y-109296000D01*
X101710986Y-109325294D01*
X101484866Y-109510866D01*
X101299294Y-109736986D01*
X101161401Y-109994966D01*
X101076487Y-110274889D01*
X101047815Y-110566000D01*
X101076487Y-110857111D01*
X101161401Y-111137034D01*
X101299294Y-111395014D01*
X101447908Y-111576101D01*
X100685000Y-112339009D01*
X100685000Y-105600000D01*
X108916928Y-105600000D01*
X108920000Y-106364250D01*
X109078750Y-106523000D01*
X109873000Y-106523000D01*
X109873000Y-105123750D01*
X109714250Y-104965000D01*
X109555000Y-104961928D01*
X109430518Y-104974188D01*
X109310820Y-105010498D01*
X109200506Y-105069463D01*
X109103815Y-105148815D01*
X109024463Y-105245506D01*
X108965498Y-105355820D01*
X108929188Y-105475518D01*
X108916928Y-105600000D01*
X100685000Y-105600000D01*
X100685000Y-102400000D01*
X108916928Y-102400000D01*
X108929188Y-102524482D01*
X108965498Y-102644180D01*
X109024463Y-102754494D01*
X109103815Y-102851185D01*
X109200506Y-102930537D01*
X109310820Y-102989502D01*
X109430518Y-103025812D01*
X109555000Y-103038072D01*
X109714250Y-103035000D01*
X109873000Y-102876250D01*
X109873000Y-101477000D01*
X109078750Y-101477000D01*
X108920000Y-101635750D01*
X108916928Y-102400000D01*
X100685000Y-102400000D01*
X100685000Y-100685000D01*
X108918476Y-100685000D01*
X108920000Y-101064250D01*
M02*
