M48
;DRILL file {KiCad 5.0.2-5.fc29} date Mon 04 Mar 2019 05:53:49 PM IST
;FORMAT={-:-/ absolute / metric / decimal}
FMAT,2
METRIC,TZ
T1C0.300
T2C1.000
T3C2.700
T4C0.800
T5C1.200
%
G90
G05
T1
X111.Y-101.186
X111.Y-106.058
X113.Y-101.186
X113.475Y-108.752
X115.03Y-101.186
X115.723Y-108.752
X118.157Y-108.752
X118.91Y-101.186
X120.592Y-108.752
X121.Y-101.186
X121.153Y-134.637
X121.153Y-142.597
X121.95Y-134.62
X121.953Y-142.607
X122.753Y-142.607
X123.Y-101.186
X123.Y-106.058
X123.55Y-134.6
X123.55Y-142.58
X124.35Y-134.61
X124.36Y-142.52
X125.Y-101.186
X125.055Y-108.826
X125.15Y-142.49
X125.46Y-118.669
X125.94Y-134.61
X126.116Y-108.178
X126.73Y-134.61
X126.75Y-142.49
X127.116Y-101.186
X127.116Y-106.058
X127.55Y-142.49
X127.894Y-103.84
X128.35Y-134.6
X129.15Y-134.6
X129.15Y-142.48
X129.95Y-142.5
X130.047Y-123.022
X130.495Y-114.509
X130.74Y-134.62
X130.995Y-101.186
X130.995Y-106.058
X131.072Y-115.411
X131.55Y-142.51
X131.553Y-134.64
X131.966Y-115.472
X132.295Y-119.117
X132.344Y-120.404
X132.35Y-142.49
X132.605Y-113.85
X132.947Y-121.69
X132.973Y-118.176
X133.Y-101.186
X133.Y-106.058
X133.153Y-134.593
X133.361Y-108.495
X133.679Y-121.439
X133.95Y-134.59
X133.95Y-142.49
X134.104Y-120.816
X134.412Y-113.
X134.655Y-122.525
X134.722Y-113.99
X134.74Y-134.62
X134.753Y-142.483
X134.823Y-123.304
X135.Y-101.186
X135.43Y-108.643
X135.553Y-134.603
X135.911Y-115.673
X136.35Y-142.5
X136.549Y-116.271
X137.Y-101.186
X137.153Y-134.573
X137.153Y-142.453
X137.632Y-123.957
X137.647Y-108.643
X137.675Y-115.195
X137.799Y-103.965
X137.95Y-134.6
X138.213Y-116.739
X138.74Y-142.51
X138.962Y-118.651
X138.975Y-117.98
X139.55Y-134.61
X139.55Y-142.54
X140.066Y-104.
X140.066Y-108.643
X140.36Y-134.61
X140.626Y-118.495
X141.15Y-142.58
X141.953Y-134.603
X141.953Y-142.607
X142.5Y-108.752
X142.75Y-134.62
X143.Y-101.186
X143.Y-106.058
X143.553Y-142.583
X144.34Y-142.57
X144.35Y-134.61
X145.Y-101.186
X145.113Y-108.752
X173.107Y-121.871
X176.119Y-122.096
T2
X102.54Y-108.026
X102.54Y-110.566
X102.54Y-113.106
X102.54Y-115.646
X102.54Y-118.186
X102.54Y-120.726
X102.54Y-123.266
X102.54Y-125.806
X105.08Y-108.026
X105.08Y-110.566
X105.08Y-113.106
X105.08Y-115.646
X105.08Y-118.186
X105.08Y-120.726
X105.08Y-123.266
X105.08Y-125.806
X180.01Y-108.255
X180.01Y-110.795
X180.01Y-113.335
X180.01Y-115.875
X180.01Y-118.415
X180.01Y-120.955
X180.01Y-123.495
X180.01Y-126.035
X182.55Y-108.255
X182.55Y-110.795
X182.55Y-113.335
X182.55Y-115.875
X182.55Y-118.415
X182.55Y-120.955
X182.55Y-123.495
X182.55Y-126.035
X182.55Y-129.21
X182.55Y-131.75
X102.54Y-129.21
X102.54Y-131.75
T3
X104.Y-104.
X104.Y-135.5
X181.Y-104.
X181.Y-135.5
T4
X118.65Y-138.55
X118.653Y-138.557
T5
X146.85Y-138.55
X146.853Y-138.557
X111.Y-104.
X147.Y-104.
T0
M30
