G04 #@! TF.GenerationSoftware,KiCad,Pcbnew,5.1.2-1.fc30*
G04 #@! TF.CreationDate,2019-05-22T10:25:12+05:30*
G04 #@! TF.ProjectId,sx1509,73783135-3039-42e6-9b69-6361645f7063,v0.1*
G04 #@! TF.SameCoordinates,Original*
G04 #@! TF.FileFunction,Legend,Top*
G04 #@! TF.FilePolarity,Positive*
%FSLAX46Y46*%
G04 Gerber Fmt 4.6, Leading zero omitted, Abs format (unit mm)*
G04 Created by KiCad (PCBNEW 5.1.2-1.fc30) date 2019-05-22 10:25:12*
%MOMM*%
%LPD*%
G04 APERTURE LIST*
%ADD10C,0.066040*%
%ADD11C,0.127000*%
%ADD12C,0.203200*%
%ADD13C,0.100000*%
%ADD14C,0.150000*%
%ADD15C,0.120000*%
%ADD16C,0.101600*%
G04 APERTURE END LIST*
D10*
X134139020Y-119018340D02*
X134139020Y-119165660D01*
X134139020Y-119165660D02*
X134540340Y-119165660D01*
X134540340Y-119018340D02*
X134540340Y-119165660D01*
X134139020Y-119018340D02*
X134540340Y-119018340D01*
X134139020Y-119414580D02*
X134139020Y-119566980D01*
X134139020Y-119566980D02*
X134540340Y-119566980D01*
X134540340Y-119414580D02*
X134540340Y-119566980D01*
X134139020Y-119414580D02*
X134540340Y-119414580D01*
X134139020Y-119815900D02*
X134139020Y-119965760D01*
X134139020Y-119965760D02*
X134540340Y-119965760D01*
X134540340Y-119815900D02*
X134540340Y-119965760D01*
X134139020Y-119815900D02*
X134540340Y-119815900D01*
X134139020Y-120214680D02*
X134139020Y-120367080D01*
X134139020Y-120367080D02*
X134540340Y-120367080D01*
X134540340Y-120214680D02*
X134540340Y-120367080D01*
X134139020Y-120214680D02*
X134540340Y-120214680D01*
X134139020Y-118617020D02*
X134139020Y-118769420D01*
X134139020Y-118769420D02*
X134540340Y-118769420D01*
X134540340Y-118617020D02*
X134540340Y-118769420D01*
X134139020Y-118617020D02*
X134540340Y-118617020D01*
X134139020Y-118218240D02*
X134139020Y-118368100D01*
X134139020Y-118368100D02*
X134540340Y-118368100D01*
X134540340Y-118218240D02*
X134540340Y-118368100D01*
X134139020Y-118218240D02*
X134540340Y-118218240D01*
X134139020Y-117816920D02*
X134139020Y-117969320D01*
X134139020Y-117969320D02*
X134540340Y-117969320D01*
X134540340Y-117816920D02*
X134540340Y-117969320D01*
X134139020Y-117816920D02*
X134540340Y-117816920D01*
X134738460Y-120814120D02*
X134738460Y-120966520D01*
X134738460Y-120966520D02*
X135139780Y-120966520D01*
X135139780Y-120814120D02*
X135139780Y-120966520D01*
X134738460Y-120814120D02*
X135139780Y-120814120D01*
X135139780Y-120814120D02*
X135139780Y-120966520D01*
X135139780Y-120966520D02*
X135538560Y-120966520D01*
X135538560Y-120814120D02*
X135538560Y-120966520D01*
X135139780Y-120814120D02*
X135538560Y-120814120D01*
X135538560Y-120814120D02*
X135538560Y-120966520D01*
X135538560Y-120966520D02*
X135939880Y-120966520D01*
X135939880Y-120814120D02*
X135939880Y-120966520D01*
X135538560Y-120814120D02*
X135939880Y-120814120D01*
X135939880Y-120814120D02*
X135939880Y-120966520D01*
X135939880Y-120966520D02*
X136336120Y-120966520D01*
X136336120Y-120814120D02*
X136336120Y-120966520D01*
X135939880Y-120814120D02*
X136336120Y-120814120D01*
X136336120Y-120814120D02*
X136336120Y-120966520D01*
X136336120Y-120966520D02*
X136737440Y-120966520D01*
X136737440Y-120814120D02*
X136737440Y-120966520D01*
X136336120Y-120814120D02*
X136737440Y-120814120D01*
X136737440Y-120814120D02*
X136737440Y-120966520D01*
X136737440Y-120966520D02*
X137136220Y-120966520D01*
X137136220Y-120814120D02*
X137136220Y-120966520D01*
X136737440Y-120814120D02*
X137136220Y-120814120D01*
X137136220Y-120814120D02*
X137136220Y-120966520D01*
X137136220Y-120966520D02*
X137537540Y-120966520D01*
X137537540Y-120814120D02*
X137537540Y-120966520D01*
X137136220Y-120814120D02*
X137537540Y-120814120D01*
X137735660Y-120214680D02*
X137735660Y-120367080D01*
X137735660Y-120367080D02*
X138136980Y-120367080D01*
X138136980Y-120214680D02*
X138136980Y-120367080D01*
X137735660Y-120214680D02*
X138136980Y-120214680D01*
X137735660Y-119815900D02*
X137735660Y-119965760D01*
X137735660Y-119965760D02*
X138136980Y-119965760D01*
X138136980Y-119815900D02*
X138136980Y-119965760D01*
X137735660Y-119815900D02*
X138136980Y-119815900D01*
X137735660Y-119414580D02*
X137735660Y-119566980D01*
X137735660Y-119566980D02*
X138136980Y-119566980D01*
X138136980Y-119414580D02*
X138136980Y-119566980D01*
X137735660Y-119414580D02*
X138136980Y-119414580D01*
X137735660Y-119018340D02*
X137735660Y-119165660D01*
X137735660Y-119165660D02*
X138136980Y-119165660D01*
X138136980Y-119018340D02*
X138136980Y-119165660D01*
X137735660Y-119018340D02*
X138136980Y-119018340D01*
X137735660Y-118617020D02*
X137735660Y-118769420D01*
X137735660Y-118769420D02*
X138136980Y-118769420D01*
X138136980Y-118617020D02*
X138136980Y-118769420D01*
X137735660Y-118617020D02*
X138136980Y-118617020D01*
X137735660Y-118218240D02*
X137735660Y-118368100D01*
X137735660Y-118368100D02*
X138136980Y-118368100D01*
X138136980Y-118218240D02*
X138136980Y-118368100D01*
X137735660Y-118218240D02*
X138136980Y-118218240D01*
X137735660Y-117816920D02*
X137735660Y-117969320D01*
X137735660Y-117969320D02*
X138136980Y-117969320D01*
X138136980Y-117816920D02*
X138136980Y-117969320D01*
X137735660Y-117816920D02*
X138136980Y-117816920D01*
X137136220Y-117217480D02*
X137136220Y-117369880D01*
X137136220Y-117369880D02*
X137537540Y-117369880D01*
X137537540Y-117217480D02*
X137537540Y-117369880D01*
X137136220Y-117217480D02*
X137537540Y-117217480D01*
X136737440Y-117217480D02*
X136737440Y-117369880D01*
X136737440Y-117369880D02*
X137136220Y-117369880D01*
X137136220Y-117217480D02*
X137136220Y-117369880D01*
X136737440Y-117217480D02*
X137136220Y-117217480D01*
X136336120Y-117217480D02*
X136336120Y-117369880D01*
X136336120Y-117369880D02*
X136737440Y-117369880D01*
X136737440Y-117217480D02*
X136737440Y-117369880D01*
X136336120Y-117217480D02*
X136737440Y-117217480D01*
X135939880Y-117217480D02*
X135939880Y-117369880D01*
X135939880Y-117369880D02*
X136336120Y-117369880D01*
X136336120Y-117217480D02*
X136336120Y-117369880D01*
X135939880Y-117217480D02*
X136336120Y-117217480D01*
X135538560Y-117217480D02*
X135538560Y-117369880D01*
X135538560Y-117369880D02*
X135939880Y-117369880D01*
X135939880Y-117217480D02*
X135939880Y-117369880D01*
X135538560Y-117217480D02*
X135939880Y-117217480D01*
X135139780Y-117217480D02*
X135139780Y-117369880D01*
X135139780Y-117369880D02*
X135538560Y-117369880D01*
X135538560Y-117217480D02*
X135538560Y-117369880D01*
X135139780Y-117217480D02*
X135538560Y-117217480D01*
X134738460Y-117217480D02*
X134738460Y-117369880D01*
X134738460Y-117369880D02*
X135139780Y-117369880D01*
X135139780Y-117217480D02*
X135139780Y-117369880D01*
X134738460Y-117217480D02*
X135139780Y-117217480D01*
X135144860Y-118098860D02*
X135144860Y-118761800D01*
X135144860Y-118761800D02*
X135807800Y-118761800D01*
X135807800Y-118098860D02*
X135807800Y-118761800D01*
X135144860Y-118098860D02*
X135807800Y-118098860D01*
X136468200Y-119422200D02*
X136468200Y-120085140D01*
X136468200Y-120085140D02*
X137131140Y-120085140D01*
X137131140Y-119422200D02*
X137131140Y-120085140D01*
X136468200Y-119422200D02*
X137131140Y-119422200D01*
X136468200Y-118098860D02*
X136468200Y-118761800D01*
X136468200Y-118761800D02*
X137131140Y-118761800D01*
X137131140Y-118098860D02*
X137131140Y-118761800D01*
X136468200Y-118098860D02*
X137131140Y-118098860D01*
X135144860Y-119422200D02*
X135144860Y-120085140D01*
X135144860Y-120085140D02*
X135807800Y-120085140D01*
X135807800Y-119422200D02*
X135807800Y-120085140D01*
X135144860Y-119422200D02*
X135807800Y-119422200D01*
X137237820Y-117093020D02*
X137237820Y-117542600D01*
X137237820Y-117542600D02*
X137435940Y-117542600D01*
X137435940Y-117093020D02*
X137435940Y-117542600D01*
X137237820Y-117093020D02*
X137435940Y-117093020D01*
X136836500Y-117093020D02*
X136836500Y-117542600D01*
X136836500Y-117542600D02*
X137037160Y-117542600D01*
X137037160Y-117093020D02*
X137037160Y-117542600D01*
X136836500Y-117093020D02*
X137037160Y-117093020D01*
X136437720Y-117093020D02*
X136437720Y-117542600D01*
X136437720Y-117542600D02*
X136635840Y-117542600D01*
X136635840Y-117093020D02*
X136635840Y-117542600D01*
X136437720Y-117093020D02*
X136635840Y-117093020D01*
X136038940Y-117093020D02*
X136038940Y-117542600D01*
X136038940Y-117542600D02*
X136237060Y-117542600D01*
X136237060Y-117093020D02*
X136237060Y-117542600D01*
X136038940Y-117093020D02*
X136237060Y-117093020D01*
X135640160Y-117093020D02*
X135640160Y-117542600D01*
X135640160Y-117542600D02*
X135838280Y-117542600D01*
X135838280Y-117093020D02*
X135838280Y-117542600D01*
X135640160Y-117093020D02*
X135838280Y-117093020D01*
X135238840Y-117093020D02*
X135238840Y-117542600D01*
X135238840Y-117542600D02*
X135439500Y-117542600D01*
X135439500Y-117093020D02*
X135439500Y-117542600D01*
X135238840Y-117093020D02*
X135439500Y-117093020D01*
X134840060Y-117093020D02*
X134840060Y-117542600D01*
X134840060Y-117542600D02*
X135038180Y-117542600D01*
X135038180Y-117093020D02*
X135038180Y-117542600D01*
X134840060Y-117093020D02*
X135038180Y-117093020D01*
X134263480Y-117667060D02*
X134263480Y-118119180D01*
X134263480Y-118119180D02*
X134464140Y-118119180D01*
X134464140Y-117667060D02*
X134464140Y-118119180D01*
X134263480Y-117667060D02*
X134464140Y-117667060D01*
X134263480Y-118068380D02*
X134263480Y-118517960D01*
X134263480Y-118517960D02*
X134464140Y-118517960D01*
X134464140Y-118068380D02*
X134464140Y-118517960D01*
X134263480Y-118068380D02*
X134464140Y-118068380D01*
X134263480Y-118467160D02*
X134263480Y-118919280D01*
X134263480Y-118919280D02*
X134464140Y-118919280D01*
X134464140Y-118467160D02*
X134464140Y-118919280D01*
X134263480Y-118467160D02*
X134464140Y-118467160D01*
X134263480Y-118868480D02*
X134263480Y-119315520D01*
X134263480Y-119315520D02*
X134464140Y-119315520D01*
X134464140Y-118868480D02*
X134464140Y-119315520D01*
X134263480Y-118868480D02*
X134464140Y-118868480D01*
X134263480Y-119264720D02*
X134263480Y-119716840D01*
X134263480Y-119716840D02*
X134464140Y-119716840D01*
X134464140Y-119264720D02*
X134464140Y-119716840D01*
X134263480Y-119264720D02*
X134464140Y-119264720D01*
X134263480Y-119666040D02*
X134263480Y-120115620D01*
X134263480Y-120115620D02*
X134464140Y-120115620D01*
X134464140Y-119666040D02*
X134464140Y-120115620D01*
X134263480Y-119666040D02*
X134464140Y-119666040D01*
X134263480Y-120064820D02*
X134263480Y-120516940D01*
X134263480Y-120516940D02*
X134464140Y-120516940D01*
X134464140Y-120064820D02*
X134464140Y-120516940D01*
X134263480Y-120064820D02*
X134464140Y-120064820D01*
X134840060Y-120641400D02*
X134840060Y-121090980D01*
X134840060Y-121090980D02*
X135038180Y-121090980D01*
X135038180Y-120641400D02*
X135038180Y-121090980D01*
X134840060Y-120641400D02*
X135038180Y-120641400D01*
X135238840Y-120641400D02*
X135238840Y-121090980D01*
X135238840Y-121090980D02*
X135439500Y-121090980D01*
X135439500Y-120641400D02*
X135439500Y-121090980D01*
X135238840Y-120641400D02*
X135439500Y-120641400D01*
X135640160Y-120641400D02*
X135640160Y-121090980D01*
X135640160Y-121090980D02*
X135838280Y-121090980D01*
X135838280Y-120641400D02*
X135838280Y-121090980D01*
X135640160Y-120641400D02*
X135838280Y-120641400D01*
X136038940Y-120641400D02*
X136038940Y-121090980D01*
X136038940Y-121090980D02*
X136237060Y-121090980D01*
X136237060Y-120641400D02*
X136237060Y-121090980D01*
X136038940Y-120641400D02*
X136237060Y-120641400D01*
X136437720Y-120641400D02*
X136437720Y-121090980D01*
X136437720Y-121090980D02*
X136635840Y-121090980D01*
X136635840Y-120641400D02*
X136635840Y-121090980D01*
X136437720Y-120641400D02*
X136635840Y-120641400D01*
X136836500Y-120641400D02*
X136836500Y-121090980D01*
X136836500Y-121090980D02*
X137037160Y-121090980D01*
X137037160Y-120641400D02*
X137037160Y-121090980D01*
X136836500Y-120641400D02*
X137037160Y-120641400D01*
X137237820Y-120641400D02*
X137237820Y-121090980D01*
X137237820Y-121090980D02*
X137435940Y-121090980D01*
X137435940Y-120641400D02*
X137435940Y-121090980D01*
X137237820Y-120641400D02*
X137435940Y-120641400D01*
X137811860Y-120064820D02*
X137811860Y-120516940D01*
X137811860Y-120516940D02*
X138012520Y-120516940D01*
X138012520Y-120064820D02*
X138012520Y-120516940D01*
X137811860Y-120064820D02*
X138012520Y-120064820D01*
X137811860Y-119666040D02*
X137811860Y-120115620D01*
X137811860Y-120115620D02*
X138012520Y-120115620D01*
X138012520Y-119666040D02*
X138012520Y-120115620D01*
X137811860Y-119666040D02*
X138012520Y-119666040D01*
X137811860Y-119264720D02*
X137811860Y-119716840D01*
X137811860Y-119716840D02*
X138012520Y-119716840D01*
X138012520Y-119264720D02*
X138012520Y-119716840D01*
X137811860Y-119264720D02*
X138012520Y-119264720D01*
X137811860Y-118868480D02*
X137811860Y-119315520D01*
X137811860Y-119315520D02*
X138012520Y-119315520D01*
X138012520Y-118868480D02*
X138012520Y-119315520D01*
X137811860Y-118868480D02*
X138012520Y-118868480D01*
X137811860Y-118467160D02*
X137811860Y-118919280D01*
X137811860Y-118919280D02*
X138012520Y-118919280D01*
X138012520Y-118467160D02*
X138012520Y-118919280D01*
X137811860Y-118467160D02*
X138012520Y-118467160D01*
X137811860Y-118068380D02*
X137811860Y-118517960D01*
X137811860Y-118517960D02*
X138012520Y-118517960D01*
X138012520Y-118068380D02*
X138012520Y-118517960D01*
X137811860Y-118068380D02*
X138012520Y-118068380D01*
X137811860Y-117667060D02*
X137811860Y-118119180D01*
X137811860Y-118119180D02*
X138012520Y-118119180D01*
X138012520Y-117667060D02*
X138012520Y-118119180D01*
X137811860Y-117667060D02*
X138012520Y-117667060D01*
D11*
X134139020Y-117093020D02*
X138136980Y-117093020D01*
X138136980Y-117093020D02*
X138136980Y-121090980D01*
X138136980Y-121090980D02*
X134139020Y-121090980D01*
X134139020Y-121090980D02*
X134139020Y-117093020D01*
D12*
X137837260Y-116993960D02*
X138236040Y-117392740D01*
X138236040Y-117392740D02*
X138236040Y-117593400D01*
X137837260Y-116993960D02*
X137636600Y-116993960D01*
X134039960Y-116993960D02*
X134639400Y-116993960D01*
X134039960Y-116993960D02*
X134039960Y-117593400D01*
X134039960Y-121190040D02*
X134039960Y-120590600D01*
X134039960Y-121190040D02*
X134639400Y-121190040D01*
X138236040Y-121190040D02*
X137636600Y-121190040D01*
X138236040Y-121190040D02*
X138236040Y-120590600D01*
D13*
X138520476Y-116910140D02*
G75*
G03X138520476Y-116910140I-147276J0D01*
G01*
D14*
X148750000Y-100000000D02*
X148750000Y-108000000D01*
X109250000Y-100000000D02*
X109250000Y-108000000D01*
X148750000Y-100000000D02*
X109250000Y-100000000D01*
X109250000Y-108000000D02*
X148750000Y-108000000D01*
D15*
X183990000Y-127880000D02*
X183990000Y-133080000D01*
X183990000Y-133080000D02*
X186650000Y-133080000D01*
X186650000Y-133080000D02*
X186650000Y-127880000D01*
X186650000Y-127880000D02*
X183990000Y-127880000D01*
X186650000Y-128830000D02*
X192650000Y-128830000D01*
X192650000Y-128830000D02*
X192650000Y-129590000D01*
X192650000Y-129590000D02*
X186650000Y-129590000D01*
X186650000Y-128890000D02*
X192650000Y-128890000D01*
X186650000Y-129010000D02*
X192650000Y-129010000D01*
X186650000Y-129130000D02*
X192650000Y-129130000D01*
X186650000Y-129250000D02*
X192650000Y-129250000D01*
X186650000Y-129370000D02*
X192650000Y-129370000D01*
X186650000Y-129490000D02*
X192650000Y-129490000D01*
X183660000Y-128830000D02*
X183990000Y-128830000D01*
X183660000Y-129590000D02*
X183990000Y-129590000D01*
X183990000Y-130480000D02*
X186650000Y-130480000D01*
X186650000Y-131370000D02*
X192650000Y-131370000D01*
X192650000Y-131370000D02*
X192650000Y-132130000D01*
X192650000Y-132130000D02*
X186650000Y-132130000D01*
X183592929Y-131370000D02*
X183990000Y-131370000D01*
X183592929Y-132130000D02*
X183990000Y-132130000D01*
X181280000Y-129210000D02*
X181280000Y-127940000D01*
X181280000Y-127940000D02*
X182550000Y-127940000D01*
X103810000Y-133020000D02*
X102540000Y-133020000D01*
X103810000Y-131750000D02*
X103810000Y-133020000D01*
X101497071Y-128830000D02*
X101100000Y-128830000D01*
X101497071Y-129590000D02*
X101100000Y-129590000D01*
X92440000Y-128830000D02*
X98440000Y-128830000D01*
X92440000Y-129590000D02*
X92440000Y-128830000D01*
X98440000Y-129590000D02*
X92440000Y-129590000D01*
X101100000Y-130480000D02*
X98440000Y-130480000D01*
X101430000Y-131370000D02*
X101100000Y-131370000D01*
X101430000Y-132130000D02*
X101100000Y-132130000D01*
X98440000Y-131470000D02*
X92440000Y-131470000D01*
X98440000Y-131590000D02*
X92440000Y-131590000D01*
X98440000Y-131710000D02*
X92440000Y-131710000D01*
X98440000Y-131830000D02*
X92440000Y-131830000D01*
X98440000Y-131950000D02*
X92440000Y-131950000D01*
X98440000Y-132070000D02*
X92440000Y-132070000D01*
X92440000Y-131370000D02*
X98440000Y-131370000D01*
X92440000Y-132130000D02*
X92440000Y-131370000D01*
X98440000Y-132130000D02*
X92440000Y-132130000D01*
X98440000Y-133080000D02*
X101100000Y-133080000D01*
X98440000Y-127880000D02*
X98440000Y-133080000D01*
X101100000Y-127880000D02*
X98440000Y-127880000D01*
X101100000Y-133080000D02*
X101100000Y-127880000D01*
X131856000Y-119131000D02*
G75*
G03X131856000Y-119131000I-1450000J0D01*
G01*
X134748000Y-128233000D02*
X134348000Y-127783000D01*
X133998000Y-128233000D02*
X134748000Y-128233000D01*
X134348000Y-127783000D02*
X133998000Y-128233000D01*
X133688000Y-127573000D02*
X137508000Y-127573000D01*
X137508000Y-127573000D02*
X137508000Y-125793000D01*
X137508000Y-125793000D02*
X133688000Y-125793000D01*
X133688000Y-127573000D02*
X133688000Y-125793000D01*
X133675000Y-131484000D02*
X133675000Y-129704000D01*
X137495000Y-129704000D02*
X133675000Y-129704000D01*
X137495000Y-131484000D02*
X137495000Y-129704000D01*
X133675000Y-131484000D02*
X137495000Y-131484000D01*
X134335000Y-131694000D02*
X133985000Y-132144000D01*
X133985000Y-132144000D02*
X134735000Y-132144000D01*
X134735000Y-132144000D02*
X134335000Y-131694000D01*
X106350000Y-127076000D02*
X105080000Y-127076000D01*
X106350000Y-125806000D02*
X106350000Y-127076000D01*
X104037071Y-107646000D02*
X103582929Y-107646000D01*
X104037071Y-108406000D02*
X103582929Y-108406000D01*
X101497071Y-107646000D02*
X101100000Y-107646000D01*
X101497071Y-108406000D02*
X101100000Y-108406000D01*
X92440000Y-107646000D02*
X98440000Y-107646000D01*
X92440000Y-108406000D02*
X92440000Y-107646000D01*
X98440000Y-108406000D02*
X92440000Y-108406000D01*
X101100000Y-109296000D02*
X98440000Y-109296000D01*
X104037071Y-110186000D02*
X103582929Y-110186000D01*
X104037071Y-110946000D02*
X103582929Y-110946000D01*
X101497071Y-110186000D02*
X101100000Y-110186000D01*
X101497071Y-110946000D02*
X101100000Y-110946000D01*
X92440000Y-110186000D02*
X98440000Y-110186000D01*
X92440000Y-110946000D02*
X92440000Y-110186000D01*
X98440000Y-110946000D02*
X92440000Y-110946000D01*
X101100000Y-111836000D02*
X98440000Y-111836000D01*
X104037071Y-112726000D02*
X103582929Y-112726000D01*
X104037071Y-113486000D02*
X103582929Y-113486000D01*
X101497071Y-112726000D02*
X101100000Y-112726000D01*
X101497071Y-113486000D02*
X101100000Y-113486000D01*
X92440000Y-112726000D02*
X98440000Y-112726000D01*
X92440000Y-113486000D02*
X92440000Y-112726000D01*
X98440000Y-113486000D02*
X92440000Y-113486000D01*
X101100000Y-114376000D02*
X98440000Y-114376000D01*
X104037071Y-115266000D02*
X103582929Y-115266000D01*
X104037071Y-116026000D02*
X103582929Y-116026000D01*
X101497071Y-115266000D02*
X101100000Y-115266000D01*
X101497071Y-116026000D02*
X101100000Y-116026000D01*
X92440000Y-115266000D02*
X98440000Y-115266000D01*
X92440000Y-116026000D02*
X92440000Y-115266000D01*
X98440000Y-116026000D02*
X92440000Y-116026000D01*
X101100000Y-116916000D02*
X98440000Y-116916000D01*
X104037071Y-117806000D02*
X103582929Y-117806000D01*
X104037071Y-118566000D02*
X103582929Y-118566000D01*
X101497071Y-117806000D02*
X101100000Y-117806000D01*
X101497071Y-118566000D02*
X101100000Y-118566000D01*
X92440000Y-117806000D02*
X98440000Y-117806000D01*
X92440000Y-118566000D02*
X92440000Y-117806000D01*
X98440000Y-118566000D02*
X92440000Y-118566000D01*
X101100000Y-119456000D02*
X98440000Y-119456000D01*
X104037071Y-120346000D02*
X103582929Y-120346000D01*
X104037071Y-121106000D02*
X103582929Y-121106000D01*
X101497071Y-120346000D02*
X101100000Y-120346000D01*
X101497071Y-121106000D02*
X101100000Y-121106000D01*
X92440000Y-120346000D02*
X98440000Y-120346000D01*
X92440000Y-121106000D02*
X92440000Y-120346000D01*
X98440000Y-121106000D02*
X92440000Y-121106000D01*
X101100000Y-121996000D02*
X98440000Y-121996000D01*
X104037071Y-122886000D02*
X103582929Y-122886000D01*
X104037071Y-123646000D02*
X103582929Y-123646000D01*
X101497071Y-122886000D02*
X101100000Y-122886000D01*
X101497071Y-123646000D02*
X101100000Y-123646000D01*
X92440000Y-122886000D02*
X98440000Y-122886000D01*
X92440000Y-123646000D02*
X92440000Y-122886000D01*
X98440000Y-123646000D02*
X92440000Y-123646000D01*
X101100000Y-124536000D02*
X98440000Y-124536000D01*
X103970000Y-125426000D02*
X103582929Y-125426000D01*
X103970000Y-126186000D02*
X103582929Y-126186000D01*
X101497071Y-125426000D02*
X101100000Y-125426000D01*
X101497071Y-126186000D02*
X101100000Y-126186000D01*
X98440000Y-125526000D02*
X92440000Y-125526000D01*
X98440000Y-125646000D02*
X92440000Y-125646000D01*
X98440000Y-125766000D02*
X92440000Y-125766000D01*
X98440000Y-125886000D02*
X92440000Y-125886000D01*
X98440000Y-126006000D02*
X92440000Y-126006000D01*
X98440000Y-126126000D02*
X92440000Y-126126000D01*
X92440000Y-125426000D02*
X98440000Y-125426000D01*
X92440000Y-126186000D02*
X92440000Y-125426000D01*
X98440000Y-126186000D02*
X92440000Y-126186000D01*
X98440000Y-127136000D02*
X101100000Y-127136000D01*
X98440000Y-106696000D02*
X98440000Y-127136000D01*
X101100000Y-106696000D02*
X98440000Y-106696000D01*
X101100000Y-127136000D02*
X101100000Y-106696000D01*
X183990000Y-106925000D02*
X183990000Y-127365000D01*
X183990000Y-127365000D02*
X186650000Y-127365000D01*
X186650000Y-127365000D02*
X186650000Y-106925000D01*
X186650000Y-106925000D02*
X183990000Y-106925000D01*
X186650000Y-107875000D02*
X192650000Y-107875000D01*
X192650000Y-107875000D02*
X192650000Y-108635000D01*
X192650000Y-108635000D02*
X186650000Y-108635000D01*
X186650000Y-107935000D02*
X192650000Y-107935000D01*
X186650000Y-108055000D02*
X192650000Y-108055000D01*
X186650000Y-108175000D02*
X192650000Y-108175000D01*
X186650000Y-108295000D02*
X192650000Y-108295000D01*
X186650000Y-108415000D02*
X192650000Y-108415000D01*
X186650000Y-108535000D02*
X192650000Y-108535000D01*
X183592929Y-107875000D02*
X183990000Y-107875000D01*
X183592929Y-108635000D02*
X183990000Y-108635000D01*
X181120000Y-107875000D02*
X181507071Y-107875000D01*
X181120000Y-108635000D02*
X181507071Y-108635000D01*
X183990000Y-109525000D02*
X186650000Y-109525000D01*
X186650000Y-110415000D02*
X192650000Y-110415000D01*
X192650000Y-110415000D02*
X192650000Y-111175000D01*
X192650000Y-111175000D02*
X186650000Y-111175000D01*
X183592929Y-110415000D02*
X183990000Y-110415000D01*
X183592929Y-111175000D02*
X183990000Y-111175000D01*
X181052929Y-110415000D02*
X181507071Y-110415000D01*
X181052929Y-111175000D02*
X181507071Y-111175000D01*
X183990000Y-112065000D02*
X186650000Y-112065000D01*
X186650000Y-112955000D02*
X192650000Y-112955000D01*
X192650000Y-112955000D02*
X192650000Y-113715000D01*
X192650000Y-113715000D02*
X186650000Y-113715000D01*
X183592929Y-112955000D02*
X183990000Y-112955000D01*
X183592929Y-113715000D02*
X183990000Y-113715000D01*
X181052929Y-112955000D02*
X181507071Y-112955000D01*
X181052929Y-113715000D02*
X181507071Y-113715000D01*
X183990000Y-114605000D02*
X186650000Y-114605000D01*
X186650000Y-115495000D02*
X192650000Y-115495000D01*
X192650000Y-115495000D02*
X192650000Y-116255000D01*
X192650000Y-116255000D02*
X186650000Y-116255000D01*
X183592929Y-115495000D02*
X183990000Y-115495000D01*
X183592929Y-116255000D02*
X183990000Y-116255000D01*
X181052929Y-115495000D02*
X181507071Y-115495000D01*
X181052929Y-116255000D02*
X181507071Y-116255000D01*
X183990000Y-117145000D02*
X186650000Y-117145000D01*
X186650000Y-118035000D02*
X192650000Y-118035000D01*
X192650000Y-118035000D02*
X192650000Y-118795000D01*
X192650000Y-118795000D02*
X186650000Y-118795000D01*
X183592929Y-118035000D02*
X183990000Y-118035000D01*
X183592929Y-118795000D02*
X183990000Y-118795000D01*
X181052929Y-118035000D02*
X181507071Y-118035000D01*
X181052929Y-118795000D02*
X181507071Y-118795000D01*
X183990000Y-119685000D02*
X186650000Y-119685000D01*
X186650000Y-120575000D02*
X192650000Y-120575000D01*
X192650000Y-120575000D02*
X192650000Y-121335000D01*
X192650000Y-121335000D02*
X186650000Y-121335000D01*
X183592929Y-120575000D02*
X183990000Y-120575000D01*
X183592929Y-121335000D02*
X183990000Y-121335000D01*
X181052929Y-120575000D02*
X181507071Y-120575000D01*
X181052929Y-121335000D02*
X181507071Y-121335000D01*
X183990000Y-122225000D02*
X186650000Y-122225000D01*
X186650000Y-123115000D02*
X192650000Y-123115000D01*
X192650000Y-123115000D02*
X192650000Y-123875000D01*
X192650000Y-123875000D02*
X186650000Y-123875000D01*
X183592929Y-123115000D02*
X183990000Y-123115000D01*
X183592929Y-123875000D02*
X183990000Y-123875000D01*
X181052929Y-123115000D02*
X181507071Y-123115000D01*
X181052929Y-123875000D02*
X181507071Y-123875000D01*
X183990000Y-124765000D02*
X186650000Y-124765000D01*
X186650000Y-125655000D02*
X192650000Y-125655000D01*
X192650000Y-125655000D02*
X192650000Y-126415000D01*
X192650000Y-126415000D02*
X186650000Y-126415000D01*
X183592929Y-125655000D02*
X183990000Y-125655000D01*
X183592929Y-126415000D02*
X183990000Y-126415000D01*
X181052929Y-125655000D02*
X181507071Y-125655000D01*
X181052929Y-126415000D02*
X181507071Y-126415000D01*
X178740000Y-108255000D02*
X178740000Y-106985000D01*
X178740000Y-106985000D02*
X180010000Y-106985000D01*
D16*
X132267523Y-120694619D02*
X133295619Y-120694619D01*
X133416571Y-120634142D01*
X133477047Y-120573666D01*
X133537523Y-120452714D01*
X133537523Y-120210809D01*
X133477047Y-120089857D01*
X133416571Y-120029380D01*
X133295619Y-119968904D01*
X132267523Y-119968904D01*
X133537523Y-118698904D02*
X133537523Y-119424619D01*
X133537523Y-119061761D02*
X132267523Y-119061761D01*
X132448952Y-119182714D01*
X132569904Y-119303666D01*
X132630380Y-119424619D01*
X139827047Y-123748666D02*
X139887523Y-123567238D01*
X139887523Y-123264857D01*
X139827047Y-123143904D01*
X139766571Y-123083428D01*
X139645619Y-123022952D01*
X139524666Y-123022952D01*
X139403714Y-123083428D01*
X139343238Y-123143904D01*
X139282761Y-123264857D01*
X139222285Y-123506761D01*
X139161809Y-123627714D01*
X139101333Y-123688190D01*
X138980380Y-123748666D01*
X138859428Y-123748666D01*
X138738476Y-123688190D01*
X138678000Y-123627714D01*
X138617523Y-123506761D01*
X138617523Y-123204380D01*
X138678000Y-123022952D01*
X138617523Y-122599619D02*
X139887523Y-121752952D01*
X138617523Y-121752952D02*
X139887523Y-122599619D01*
X139887523Y-120603904D02*
X139887523Y-121329619D01*
X139887523Y-120966761D02*
X138617523Y-120966761D01*
X138798952Y-121087714D01*
X138919904Y-121208666D01*
X138980380Y-121329619D01*
X138617523Y-119454857D02*
X138617523Y-120059619D01*
X139222285Y-120120095D01*
X139161809Y-120059619D01*
X139101333Y-119938666D01*
X139101333Y-119636285D01*
X139161809Y-119515333D01*
X139222285Y-119454857D01*
X139343238Y-119394380D01*
X139645619Y-119394380D01*
X139766571Y-119454857D01*
X139827047Y-119515333D01*
X139887523Y-119636285D01*
X139887523Y-119938666D01*
X139827047Y-120059619D01*
X139766571Y-120120095D01*
X138617523Y-118608190D02*
X138617523Y-118487238D01*
X138678000Y-118366285D01*
X138738476Y-118305809D01*
X138859428Y-118245333D01*
X139101333Y-118184857D01*
X139403714Y-118184857D01*
X139645619Y-118245333D01*
X139766571Y-118305809D01*
X139827047Y-118366285D01*
X139887523Y-118487238D01*
X139887523Y-118608190D01*
X139827047Y-118729142D01*
X139766571Y-118789619D01*
X139645619Y-118850095D01*
X139403714Y-118910571D01*
X139101333Y-118910571D01*
X138859428Y-118850095D01*
X138738476Y-118789619D01*
X138678000Y-118729142D01*
X138617523Y-118608190D01*
X139887523Y-117580095D02*
X139887523Y-117338190D01*
X139827047Y-117217238D01*
X139766571Y-117156761D01*
X139585142Y-117035809D01*
X139343238Y-116975333D01*
X138859428Y-116975333D01*
X138738476Y-117035809D01*
X138678000Y-117096285D01*
X138617523Y-117217238D01*
X138617523Y-117459142D01*
X138678000Y-117580095D01*
X138738476Y-117640571D01*
X138859428Y-117701047D01*
X139161809Y-117701047D01*
X139282761Y-117640571D01*
X139343238Y-117580095D01*
X139403714Y-117459142D01*
X139403714Y-117217238D01*
X139343238Y-117096285D01*
X139282761Y-117035809D01*
X139161809Y-116975333D01*
D14*
X108316666Y-104516666D02*
X107616666Y-104516666D01*
X107616666Y-104250000D01*
X107650000Y-104183333D01*
X107683333Y-104150000D01*
X107750000Y-104116666D01*
X107850000Y-104116666D01*
X107916666Y-104150000D01*
X107950000Y-104183333D01*
X107983333Y-104250000D01*
X107983333Y-104516666D01*
X107683333Y-103850000D02*
X107650000Y-103816666D01*
X107616666Y-103750000D01*
X107616666Y-103583333D01*
X107650000Y-103516666D01*
X107683333Y-103483333D01*
X107750000Y-103450000D01*
X107816666Y-103450000D01*
X107916666Y-103483333D01*
X108316666Y-103883333D01*
X108316666Y-103450000D01*
X186601666Y-126392380D02*
X186601666Y-127106666D01*
X186554047Y-127249523D01*
X186458809Y-127344761D01*
X186315952Y-127392380D01*
X186220714Y-127392380D01*
X186982619Y-126392380D02*
X187601666Y-126392380D01*
X187268333Y-126773333D01*
X187411190Y-126773333D01*
X187506428Y-126820952D01*
X187554047Y-126868571D01*
X187601666Y-126963809D01*
X187601666Y-127201904D01*
X187554047Y-127297142D01*
X187506428Y-127344761D01*
X187411190Y-127392380D01*
X187125476Y-127392380D01*
X187030238Y-127344761D01*
X186982619Y-127297142D01*
X97821666Y-133472380D02*
X97821666Y-134186666D01*
X97774047Y-134329523D01*
X97678809Y-134424761D01*
X97535952Y-134472380D01*
X97440714Y-134472380D01*
X98726428Y-133805714D02*
X98726428Y-134472380D01*
X98488333Y-133424761D02*
X98250238Y-134139047D01*
X98869285Y-134139047D01*
X132127333Y-120788142D02*
X132079714Y-120835761D01*
X131936857Y-120883380D01*
X131841619Y-120883380D01*
X131698761Y-120835761D01*
X131603523Y-120740523D01*
X131555904Y-120645285D01*
X131508285Y-120454809D01*
X131508285Y-120311952D01*
X131555904Y-120121476D01*
X131603523Y-120026238D01*
X131698761Y-119931000D01*
X131841619Y-119883380D01*
X131936857Y-119883380D01*
X132079714Y-119931000D01*
X132127333Y-119978619D01*
X133079714Y-120883380D02*
X132508285Y-120883380D01*
X132794000Y-120883380D02*
X132794000Y-119883380D01*
X132698761Y-120026238D01*
X132603523Y-120121476D01*
X132508285Y-120169095D01*
X142693333Y-122167142D02*
X142645714Y-122214761D01*
X142502857Y-122262380D01*
X142407619Y-122262380D01*
X142264761Y-122214761D01*
X142169523Y-122119523D01*
X142121904Y-122024285D01*
X142074285Y-121833809D01*
X142074285Y-121690952D01*
X142121904Y-121500476D01*
X142169523Y-121405238D01*
X142264761Y-121310000D01*
X142407619Y-121262380D01*
X142502857Y-121262380D01*
X142645714Y-121310000D01*
X142693333Y-121357619D01*
X143074285Y-121357619D02*
X143121904Y-121310000D01*
X143217142Y-121262380D01*
X143455238Y-121262380D01*
X143550476Y-121310000D01*
X143598095Y-121357619D01*
X143645714Y-121452857D01*
X143645714Y-121548095D01*
X143598095Y-121690952D01*
X143026666Y-122262380D01*
X143645714Y-122262380D01*
X140758333Y-122167142D02*
X140710714Y-122214761D01*
X140567857Y-122262380D01*
X140472619Y-122262380D01*
X140329761Y-122214761D01*
X140234523Y-122119523D01*
X140186904Y-122024285D01*
X140139285Y-121833809D01*
X140139285Y-121690952D01*
X140186904Y-121500476D01*
X140234523Y-121405238D01*
X140329761Y-121310000D01*
X140472619Y-121262380D01*
X140567857Y-121262380D01*
X140710714Y-121310000D01*
X140758333Y-121357619D01*
X141091666Y-121262380D02*
X141710714Y-121262380D01*
X141377380Y-121643333D01*
X141520238Y-121643333D01*
X141615476Y-121690952D01*
X141663095Y-121738571D01*
X141710714Y-121833809D01*
X141710714Y-122071904D01*
X141663095Y-122167142D01*
X141615476Y-122214761D01*
X141520238Y-122262380D01*
X141234523Y-122262380D01*
X141139285Y-122214761D01*
X141091666Y-122167142D01*
X134242333Y-109557380D02*
X133909000Y-109081190D01*
X133670904Y-109557380D02*
X133670904Y-108557380D01*
X134051857Y-108557380D01*
X134147095Y-108605000D01*
X134194714Y-108652619D01*
X134242333Y-108747857D01*
X134242333Y-108890714D01*
X134194714Y-108985952D01*
X134147095Y-109033571D01*
X134051857Y-109081190D01*
X133670904Y-109081190D01*
X135194714Y-109557380D02*
X134623285Y-109557380D01*
X134909000Y-109557380D02*
X134909000Y-108557380D01*
X134813761Y-108700238D01*
X134718523Y-108795476D01*
X134623285Y-108843095D01*
X140668333Y-119722380D02*
X140335000Y-119246190D01*
X140096904Y-119722380D02*
X140096904Y-118722380D01*
X140477857Y-118722380D01*
X140573095Y-118770000D01*
X140620714Y-118817619D01*
X140668333Y-118912857D01*
X140668333Y-119055714D01*
X140620714Y-119150952D01*
X140573095Y-119198571D01*
X140477857Y-119246190D01*
X140096904Y-119246190D01*
X141049285Y-118817619D02*
X141096904Y-118770000D01*
X141192142Y-118722380D01*
X141430238Y-118722380D01*
X141525476Y-118770000D01*
X141573095Y-118817619D01*
X141620714Y-118912857D01*
X141620714Y-119008095D01*
X141573095Y-119150952D01*
X141001666Y-119722380D01*
X141620714Y-119722380D01*
X140473333Y-129882380D02*
X140140000Y-129406190D01*
X139901904Y-129882380D02*
X139901904Y-128882380D01*
X140282857Y-128882380D01*
X140378095Y-128930000D01*
X140425714Y-128977619D01*
X140473333Y-129072857D01*
X140473333Y-129215714D01*
X140425714Y-129310952D01*
X140378095Y-129358571D01*
X140282857Y-129406190D01*
X139901904Y-129406190D01*
X140806666Y-128882380D02*
X141425714Y-128882380D01*
X141092380Y-129263333D01*
X141235238Y-129263333D01*
X141330476Y-129310952D01*
X141378095Y-129358571D01*
X141425714Y-129453809D01*
X141425714Y-129691904D01*
X141378095Y-129787142D01*
X141330476Y-129834761D01*
X141235238Y-129882380D01*
X140949523Y-129882380D01*
X140854285Y-129834761D01*
X140806666Y-129787142D01*
X140473333Y-126072380D02*
X140140000Y-125596190D01*
X139901904Y-126072380D02*
X139901904Y-125072380D01*
X140282857Y-125072380D01*
X140378095Y-125120000D01*
X140425714Y-125167619D01*
X140473333Y-125262857D01*
X140473333Y-125405714D01*
X140425714Y-125500952D01*
X140378095Y-125548571D01*
X140282857Y-125596190D01*
X139901904Y-125596190D01*
X141330476Y-125405714D02*
X141330476Y-126072380D01*
X141092380Y-125024761D02*
X140854285Y-125739047D01*
X141473333Y-125739047D01*
X123999333Y-110832380D02*
X123666000Y-110356190D01*
X123427904Y-110832380D02*
X123427904Y-109832380D01*
X123808857Y-109832380D01*
X123904095Y-109880000D01*
X123951714Y-109927619D01*
X123999333Y-110022857D01*
X123999333Y-110165714D01*
X123951714Y-110260952D01*
X123904095Y-110308571D01*
X123808857Y-110356190D01*
X123427904Y-110356190D01*
X124904095Y-109832380D02*
X124427904Y-109832380D01*
X124380285Y-110308571D01*
X124427904Y-110260952D01*
X124523142Y-110213333D01*
X124761238Y-110213333D01*
X124856476Y-110260952D01*
X124904095Y-110308571D01*
X124951714Y-110403809D01*
X124951714Y-110641904D01*
X124904095Y-110737142D01*
X124856476Y-110784761D01*
X124761238Y-110832380D01*
X124523142Y-110832380D01*
X124427904Y-110784761D01*
X124380285Y-110737142D01*
X123963333Y-109562380D02*
X123630000Y-109086190D01*
X123391904Y-109562380D02*
X123391904Y-108562380D01*
X123772857Y-108562380D01*
X123868095Y-108610000D01*
X123915714Y-108657619D01*
X123963333Y-108752857D01*
X123963333Y-108895714D01*
X123915714Y-108990952D01*
X123868095Y-109038571D01*
X123772857Y-109086190D01*
X123391904Y-109086190D01*
X124820476Y-108562380D02*
X124630000Y-108562380D01*
X124534761Y-108610000D01*
X124487142Y-108657619D01*
X124391904Y-108800476D01*
X124344285Y-108990952D01*
X124344285Y-109371904D01*
X124391904Y-109467142D01*
X124439523Y-109514761D01*
X124534761Y-109562380D01*
X124725238Y-109562380D01*
X124820476Y-109514761D01*
X124868095Y-109467142D01*
X124915714Y-109371904D01*
X124915714Y-109133809D01*
X124868095Y-109038571D01*
X124820476Y-108990952D01*
X124725238Y-108943333D01*
X124534761Y-108943333D01*
X124439523Y-108990952D01*
X124391904Y-109038571D01*
X124344285Y-109133809D01*
X127072666Y-116911571D02*
X127406000Y-116911571D01*
X127548857Y-117435380D02*
X127072666Y-117435380D01*
X127072666Y-116435380D01*
X127548857Y-116435380D01*
X127882190Y-116435380D02*
X128548857Y-117435380D01*
X128548857Y-116435380D02*
X127882190Y-117435380D01*
X128786952Y-116435380D02*
X129358380Y-116435380D01*
X129072666Y-117435380D02*
X129072666Y-116435380D01*
X129453619Y-117530619D02*
X130215523Y-117530619D01*
X131025047Y-117340142D02*
X130977428Y-117387761D01*
X130834571Y-117435380D01*
X130739333Y-117435380D01*
X130596476Y-117387761D01*
X130501238Y-117292523D01*
X130453619Y-117197285D01*
X130406000Y-117006809D01*
X130406000Y-116863952D01*
X130453619Y-116673476D01*
X130501238Y-116578238D01*
X130596476Y-116483000D01*
X130739333Y-116435380D01*
X130834571Y-116435380D01*
X130977428Y-116483000D01*
X131025047Y-116530619D01*
X131929809Y-117435380D02*
X131453619Y-117435380D01*
X131453619Y-116435380D01*
X132263142Y-117435380D02*
X132263142Y-116435380D01*
X132834571Y-117435380D02*
X132406000Y-116863952D01*
X132834571Y-116435380D02*
X132263142Y-117006809D01*
X133786952Y-117435380D02*
X133215523Y-117435380D01*
X133501238Y-117435380D02*
X133501238Y-116435380D01*
X133406000Y-116578238D01*
X133310761Y-116673476D01*
X133215523Y-116721095D01*
X134764666Y-124485380D02*
X134764666Y-125199666D01*
X134717047Y-125342523D01*
X134621809Y-125437761D01*
X134478952Y-125485380D01*
X134383714Y-125485380D01*
X135240857Y-125485380D02*
X135240857Y-124485380D01*
X135621809Y-124485380D01*
X135717047Y-124533000D01*
X135764666Y-124580619D01*
X135812285Y-124675857D01*
X135812285Y-124818714D01*
X135764666Y-124913952D01*
X135717047Y-124961571D01*
X135621809Y-125009190D01*
X135240857Y-125009190D01*
X136764666Y-125485380D02*
X136193238Y-125485380D01*
X136478952Y-125485380D02*
X136478952Y-124485380D01*
X136383714Y-124628238D01*
X136288476Y-124723476D01*
X136193238Y-124771095D01*
X134751666Y-128396380D02*
X134751666Y-129110666D01*
X134704047Y-129253523D01*
X134608809Y-129348761D01*
X134465952Y-129396380D01*
X134370714Y-129396380D01*
X135227857Y-129396380D02*
X135227857Y-128396380D01*
X135608809Y-128396380D01*
X135704047Y-128444000D01*
X135751666Y-128491619D01*
X135799285Y-128586857D01*
X135799285Y-128729714D01*
X135751666Y-128824952D01*
X135704047Y-128872571D01*
X135608809Y-128920190D01*
X135227857Y-128920190D01*
X136180238Y-128491619D02*
X136227857Y-128444000D01*
X136323095Y-128396380D01*
X136561190Y-128396380D01*
X136656428Y-128444000D01*
X136704047Y-128491619D01*
X136751666Y-128586857D01*
X136751666Y-128682095D01*
X136704047Y-128824952D01*
X136132619Y-129396380D01*
X136751666Y-129396380D01*
X99091666Y-127528380D02*
X99091666Y-128242666D01*
X99044047Y-128385523D01*
X98948809Y-128480761D01*
X98805952Y-128528380D01*
X98710714Y-128528380D01*
X100091666Y-128528380D02*
X99520238Y-128528380D01*
X99805952Y-128528380D02*
X99805952Y-127528380D01*
X99710714Y-127671238D01*
X99615476Y-127766476D01*
X99520238Y-127814095D01*
X185331666Y-105437380D02*
X185331666Y-106151666D01*
X185284047Y-106294523D01*
X185188809Y-106389761D01*
X185045952Y-106437380D01*
X184950714Y-106437380D01*
X185760238Y-105532619D02*
X185807857Y-105485000D01*
X185903095Y-105437380D01*
X186141190Y-105437380D01*
X186236428Y-105485000D01*
X186284047Y-105532619D01*
X186331666Y-105627857D01*
X186331666Y-105723095D01*
X186284047Y-105865952D01*
X185712619Y-106437380D01*
X186331666Y-106437380D01*
M02*
