G04 #@! TF.GenerationSoftware,KiCad,Pcbnew,5.1.2-1.fc30*
G04 #@! TF.CreationDate,2019-05-22T10:25:12+05:30*
G04 #@! TF.ProjectId,sx1509,73783135-3039-42e6-9b69-6361645f7063,v0.1*
G04 #@! TF.SameCoordinates,Original*
G04 #@! TF.FileFunction,Copper,L2,Bot*
G04 #@! TF.FilePolarity,Positive*
%FSLAX46Y46*%
G04 Gerber Fmt 4.6, Leading zero omitted, Abs format (unit mm)*
G04 Created by KiCad (PCBNEW 5.1.2-1.fc30) date 2019-05-22 10:25:12*
%MOMM*%
%LPD*%
G04 APERTURE LIST*
%ADD10R,0.890000X3.000000*%
%ADD11R,1.700000X1.700000*%
%ADD12O,1.700000X1.700000*%
%ADD13C,0.500000*%
%ADD14C,0.150000*%
%ADD15C,0.254000*%
G04 APERTURE END LIST*
D10*
X148000000Y-106250000D03*
X146000000Y-106250000D03*
X144000000Y-106250000D03*
X142000000Y-106250000D03*
X140000000Y-106250000D03*
X138000000Y-106250000D03*
X136000000Y-106250000D03*
X134000000Y-106250000D03*
X132000000Y-106250000D03*
X130000000Y-106250000D03*
X128000000Y-106250000D03*
X126000000Y-106250000D03*
X124000000Y-106250000D03*
X122000000Y-106250000D03*
X120000000Y-106250000D03*
X118000000Y-106250000D03*
X116000000Y-106250000D03*
X114000000Y-106250000D03*
X112000000Y-106250000D03*
X148000000Y-101750000D03*
X146000000Y-101750000D03*
X144000000Y-101750000D03*
X142000000Y-101750000D03*
X140000000Y-101750000D03*
X138000000Y-101750000D03*
X136000000Y-101750000D03*
X134000000Y-101750000D03*
X132000000Y-101750000D03*
X130000000Y-101750000D03*
X128000000Y-101750000D03*
X126000000Y-101750000D03*
X124000000Y-101750000D03*
X122000000Y-101750000D03*
X120000000Y-101750000D03*
X118000000Y-101750000D03*
X116000000Y-101750000D03*
X114000000Y-101750000D03*
X112000000Y-101750000D03*
X110000000Y-101750000D03*
X110000000Y-106250000D03*
D11*
X182550000Y-129210000D03*
D12*
X182550000Y-131750000D03*
X102540000Y-129210000D03*
D11*
X102540000Y-131750000D03*
D12*
X102540000Y-108026000D03*
X105080000Y-108026000D03*
X102540000Y-110566000D03*
X105080000Y-110566000D03*
X102540000Y-113106000D03*
X105080000Y-113106000D03*
X102540000Y-115646000D03*
X105080000Y-115646000D03*
X102540000Y-118186000D03*
X105080000Y-118186000D03*
X102540000Y-120726000D03*
X105080000Y-120726000D03*
X102540000Y-123266000D03*
X105080000Y-123266000D03*
X102540000Y-125806000D03*
D11*
X105080000Y-125806000D03*
X180010000Y-108255000D03*
D12*
X182550000Y-108255000D03*
X180010000Y-110795000D03*
X182550000Y-110795000D03*
X180010000Y-113335000D03*
X182550000Y-113335000D03*
X180010000Y-115875000D03*
X182550000Y-115875000D03*
X180010000Y-118415000D03*
X182550000Y-118415000D03*
X180010000Y-120955000D03*
X182550000Y-120955000D03*
X180010000Y-123495000D03*
X182550000Y-123495000D03*
X180010000Y-126035000D03*
X182550000Y-126035000D03*
D13*
X142500300Y-108752000D03*
X145113400Y-108752000D03*
X132230900Y-111788000D03*
X124991100Y-108752000D03*
X126066500Y-108644700D03*
X140757000Y-119484000D03*
X127116200Y-106058600D03*
X130995500Y-106058600D03*
X111000000Y-101186600D03*
X113000000Y-101186600D03*
X145000000Y-101186600D03*
X133000000Y-101186600D03*
X133000000Y-106048500D03*
X115030400Y-101186600D03*
X118909700Y-101186600D03*
X121000000Y-101186600D03*
X123000000Y-101186600D03*
X125000000Y-101186600D03*
X127116200Y-101186600D03*
X127894500Y-103839800D03*
X130995500Y-101186600D03*
X135000000Y-101186600D03*
X137000000Y-101186600D03*
X137799700Y-103965400D03*
X140066000Y-104000000D03*
X143000000Y-101186600D03*
X120591600Y-108485500D03*
X123000000Y-106058600D03*
X133525100Y-108690600D03*
X135429800Y-108690600D03*
X137646900Y-108752000D03*
X140066000Y-108752000D03*
X143000000Y-106058600D03*
X111000000Y-106058600D03*
X113475400Y-108752000D03*
X115723000Y-108485500D03*
X118157300Y-108485500D03*
X127688700Y-115166900D03*
X128519500Y-115533100D03*
X129886500Y-114972500D03*
X132344200Y-112929000D03*
X139042900Y-117784800D03*
X136949000Y-124511000D03*
X136372400Y-122980900D03*
X135405800Y-122376300D03*
X134410100Y-121492600D03*
X133634100Y-121350600D03*
X133319100Y-120379200D03*
X136361000Y-116222700D03*
X142554200Y-128251600D03*
X141289100Y-128901500D03*
X139205900Y-118674900D03*
X135379900Y-128368000D03*
X132087700Y-116860900D03*
X133217500Y-111461400D03*
D14*
X144000000Y-106250000D02*
X144000000Y-107995300D01*
X144000000Y-107995300D02*
X143257000Y-107995300D01*
X143257000Y-107995300D02*
X142500300Y-108752000D01*
X146000000Y-106250000D02*
X146000000Y-107995300D01*
X146000000Y-107995300D02*
X145870100Y-107995300D01*
X145870100Y-107995300D02*
X145113400Y-108752000D01*
X124991100Y-108752000D02*
X128027100Y-111788000D01*
X128027100Y-111788000D02*
X132230900Y-111788000D01*
X124000000Y-107995300D02*
X124234400Y-107995300D01*
X124234400Y-107995300D02*
X124991100Y-108752000D01*
X124000000Y-106250000D02*
X124000000Y-107995300D01*
X140757000Y-119484000D02*
X140757000Y-118291300D01*
X140757000Y-118291300D02*
X131110400Y-108644700D01*
X131110400Y-108644700D02*
X126066500Y-108644700D01*
X126066500Y-108644700D02*
X126066500Y-108061800D01*
X126066500Y-108061800D02*
X126000000Y-107995300D01*
X126000000Y-106250000D02*
X126000000Y-107995300D01*
X128000000Y-106250000D02*
X128000000Y-104504700D01*
X128000000Y-104504700D02*
X127394100Y-104504700D01*
X127394100Y-104504700D02*
X127116300Y-104782500D01*
X127116300Y-104782500D02*
X127116300Y-106058600D01*
X127116300Y-106058600D02*
X127116200Y-106058600D01*
X130000000Y-106250000D02*
X130000000Y-104504700D01*
X130000000Y-104504700D02*
X130603100Y-104504700D01*
X130603100Y-104504700D02*
X130995400Y-104897000D01*
X130995400Y-104897000D02*
X130995400Y-106058600D01*
X130995400Y-106058600D02*
X130995500Y-106058600D01*
X112000000Y-101750000D02*
X111563400Y-101750000D01*
X111563400Y-101750000D02*
X111000000Y-101186600D01*
X114000000Y-101750000D02*
X113563400Y-101750000D01*
X113563400Y-101750000D02*
X113000000Y-101186600D01*
X145000000Y-101750000D02*
X146000000Y-101750000D01*
X144000000Y-101750000D02*
X145000000Y-101750000D01*
X145000000Y-101750000D02*
X145000000Y-101186600D01*
X132000000Y-101750000D02*
X132436600Y-101750000D01*
X132436600Y-101750000D02*
X133000000Y-101186600D01*
X132000000Y-106250000D02*
X132000000Y-104504700D01*
X132000000Y-104504700D02*
X132598900Y-104504700D01*
X132598900Y-104504700D02*
X132999900Y-104905700D01*
X132999900Y-104905700D02*
X132999900Y-106048500D01*
X132999900Y-106048500D02*
X133000000Y-106048500D01*
X116000000Y-101750000D02*
X115593800Y-101750000D01*
X115593800Y-101750000D02*
X115030400Y-101186600D01*
X118000000Y-101750000D02*
X118346300Y-101750000D01*
X118346300Y-101750000D02*
X118909700Y-101186600D01*
X120000000Y-101750000D02*
X120436600Y-101750000D01*
X120436600Y-101750000D02*
X121000000Y-101186600D01*
X122000000Y-101750000D02*
X122436600Y-101750000D01*
X122436600Y-101750000D02*
X123000000Y-101186600D01*
X124000000Y-101750000D02*
X124436600Y-101750000D01*
X124436600Y-101750000D02*
X125000000Y-101186600D01*
X126000000Y-101750000D02*
X126552800Y-101750000D01*
X126552800Y-101750000D02*
X127116200Y-101186600D01*
X128000000Y-101750000D02*
X128000000Y-103495300D01*
X128000000Y-103495300D02*
X127894500Y-103600800D01*
X127894500Y-103600800D02*
X127894500Y-103839800D01*
X130000000Y-101750000D02*
X130432100Y-101750000D01*
X130432100Y-101750000D02*
X130995500Y-101186600D01*
X134000000Y-101750000D02*
X134436600Y-101750000D01*
X134436600Y-101750000D02*
X135000000Y-101186600D01*
X136000000Y-101750000D02*
X136436600Y-101750000D01*
X136436600Y-101750000D02*
X137000000Y-101186600D01*
X138000000Y-101750000D02*
X138000000Y-103495300D01*
X138000000Y-103495300D02*
X137799700Y-103695600D01*
X137799700Y-103695600D02*
X137799700Y-103965400D01*
X140000000Y-101750000D02*
X140000000Y-103495300D01*
X140000000Y-103495300D02*
X140066000Y-103561300D01*
X140066000Y-103561300D02*
X140066000Y-104000000D01*
X142000000Y-101750000D02*
X142436600Y-101750000D01*
X142436600Y-101750000D02*
X143000000Y-101186600D01*
X120000000Y-106250000D02*
X120000000Y-107995300D01*
X120000000Y-107995300D02*
X120101400Y-107995300D01*
X120101400Y-107995300D02*
X120591600Y-108485500D01*
X122000000Y-106250000D02*
X122000000Y-104504700D01*
X122000000Y-104504700D02*
X122606500Y-104504700D01*
X122606500Y-104504700D02*
X122999900Y-104898100D01*
X122999900Y-104898100D02*
X122999900Y-106058600D01*
X122999900Y-106058600D02*
X123000000Y-106058600D01*
X134000000Y-106250000D02*
X134000000Y-107995300D01*
X134000000Y-107995300D02*
X133525100Y-108470200D01*
X133525100Y-108470200D02*
X133525100Y-108690600D01*
X136000000Y-106250000D02*
X136000000Y-107995300D01*
X136000000Y-107995300D02*
X135429800Y-108565500D01*
X135429800Y-108565500D02*
X135429800Y-108690600D01*
X138000000Y-106250000D02*
X138000000Y-107995300D01*
X138000000Y-107995300D02*
X137646900Y-108348400D01*
X137646900Y-108348400D02*
X137646900Y-108752000D01*
X140000000Y-106250000D02*
X140000000Y-107995300D01*
X140000000Y-107995300D02*
X140066000Y-108061300D01*
X140066000Y-108061300D02*
X140066000Y-108752000D01*
X142000000Y-106250000D02*
X142000000Y-104504700D01*
X142000000Y-104504700D02*
X142606500Y-104504700D01*
X142606500Y-104504700D02*
X142999900Y-104898100D01*
X142999900Y-104898100D02*
X142999900Y-106058600D01*
X142999900Y-106058600D02*
X143000000Y-106058600D01*
X112000000Y-106250000D02*
X111191400Y-106250000D01*
X111191400Y-106250000D02*
X111000000Y-106058600D01*
X114000000Y-106250000D02*
X114000000Y-107995300D01*
X114000000Y-107995300D02*
X113475400Y-108519900D01*
X113475400Y-108519900D02*
X113475400Y-108752000D01*
X116000000Y-106250000D02*
X116000000Y-107995300D01*
X116000000Y-107995300D02*
X115723000Y-108272300D01*
X115723000Y-108272300D02*
X115723000Y-108485500D01*
X118000000Y-106250000D02*
X118000000Y-107995300D01*
X118000000Y-107995300D02*
X118157300Y-108152600D01*
X118157300Y-108152600D02*
X118157300Y-108485500D01*
X102540000Y-108026000D02*
X103635300Y-108026000D01*
X103635300Y-108026000D02*
X103635300Y-108162900D01*
X103635300Y-108162900D02*
X104768400Y-109296000D01*
X104768400Y-109296000D02*
X121817800Y-109296000D01*
X121817800Y-109296000D02*
X127688700Y-115166900D01*
X102540000Y-110566000D02*
X103635300Y-110566000D01*
X103635300Y-110566000D02*
X103635300Y-110703000D01*
X103635300Y-110703000D02*
X104593600Y-111661300D01*
X104593600Y-111661300D02*
X123352600Y-111661300D01*
X123352600Y-111661300D02*
X127353600Y-115662300D01*
X127353600Y-115662300D02*
X128390300Y-115662300D01*
X128390300Y-115662300D02*
X128519500Y-115533100D01*
X102540000Y-113106000D02*
X103635300Y-113106000D01*
X103635300Y-113106000D02*
X103635300Y-113243000D01*
X103635300Y-113243000D02*
X104593600Y-114201300D01*
X104593600Y-114201300D02*
X106000700Y-114201300D01*
X106000700Y-114201300D02*
X107832700Y-116033300D01*
X107832700Y-116033300D02*
X128825700Y-116033300D01*
X128825700Y-116033300D02*
X129886500Y-114972500D01*
X102540000Y-123266000D02*
X103635300Y-123266000D01*
X103635300Y-123266000D02*
X103635300Y-123129000D01*
X103635300Y-123129000D02*
X104593600Y-122170700D01*
X104593600Y-122170700D02*
X123472200Y-122170700D01*
X123472200Y-122170700D02*
X132344200Y-113298700D01*
X132344200Y-113298700D02*
X132344200Y-112929000D01*
X139042900Y-117784800D02*
X136971000Y-115712900D01*
X136971000Y-115712900D02*
X134288800Y-115712900D01*
X134288800Y-115712900D02*
X125291000Y-124710700D01*
X125291000Y-124710700D02*
X104046000Y-124710700D01*
X104046000Y-124710700D02*
X103635300Y-125121400D01*
X103635300Y-125121400D02*
X103635300Y-125806000D01*
X102540000Y-125806000D02*
X103635300Y-125806000D01*
X180010000Y-120955000D02*
X178914700Y-120955000D01*
X136949000Y-124511000D02*
X175358700Y-124511000D01*
X175358700Y-124511000D02*
X178914700Y-120955000D01*
X178914700Y-118415000D02*
X174348900Y-122980800D01*
X174348900Y-122980800D02*
X136372400Y-122980800D01*
X136372400Y-122980800D02*
X136372400Y-122980900D01*
X180010000Y-118415000D02*
X178914700Y-118415000D01*
X180010000Y-115875000D02*
X178914700Y-115875000D01*
X178914700Y-115875000D02*
X172413400Y-122376300D01*
X172413400Y-122376300D02*
X135405800Y-122376300D01*
X180010000Y-113335000D02*
X178914700Y-113335000D01*
X178914700Y-113335000D02*
X170757100Y-121492600D01*
X170757100Y-121492600D02*
X134410100Y-121492600D01*
X180010000Y-110795000D02*
X178914700Y-110795000D01*
X178914700Y-110795000D02*
X169010100Y-120699600D01*
X169010100Y-120699600D02*
X134285100Y-120699600D01*
X134285100Y-120699600D02*
X133634100Y-121350600D01*
X180010000Y-108255000D02*
X178914700Y-108255000D01*
X178914700Y-108255000D02*
X166790500Y-120379200D01*
X166790500Y-120379200D02*
X133319100Y-120379200D01*
X142554200Y-128251600D02*
X141238700Y-128251600D01*
X141238700Y-128251600D02*
X140563200Y-128927100D01*
X140563200Y-128927100D02*
X135227700Y-128927100D01*
X135227700Y-128927100D02*
X132438200Y-126137600D01*
X132438200Y-126137600D02*
X132438200Y-120007600D01*
X132438200Y-120007600D02*
X136223100Y-116222700D01*
X136223100Y-116222700D02*
X136361000Y-116222700D01*
X102540000Y-129210000D02*
X103635300Y-129210000D01*
X141289100Y-128901500D02*
X140890300Y-129300300D01*
X140890300Y-129300300D02*
X103725600Y-129300300D01*
X103725600Y-129300300D02*
X103635300Y-129210000D01*
X135379900Y-128368000D02*
X132759400Y-125747500D01*
X132759400Y-125747500D02*
X132759400Y-120162400D01*
X132759400Y-120162400D02*
X134246900Y-118674900D01*
X134246900Y-118674900D02*
X139205900Y-118674900D01*
X133217500Y-111461400D02*
X133217500Y-115731100D01*
X133217500Y-115731100D02*
X132087700Y-116860900D01*
D15*
G36*
X108920000Y-101464250D02*
G01*
X109078750Y-101623000D01*
X109873000Y-101623000D01*
X109873000Y-101603000D01*
X110127000Y-101603000D01*
X110127000Y-101623000D01*
X110147000Y-101623000D01*
X110147000Y-101877000D01*
X110127000Y-101877000D01*
X110127000Y-101897000D01*
X109873000Y-101897000D01*
X109873000Y-101877000D01*
X109078750Y-101877000D01*
X108920000Y-102035750D01*
X108916928Y-103250000D01*
X108929188Y-103374482D01*
X108965498Y-103494180D01*
X109024463Y-103604494D01*
X109103815Y-103701185D01*
X109200506Y-103780537D01*
X109310820Y-103839502D01*
X109430518Y-103875812D01*
X109555000Y-103888072D01*
X109714250Y-103885000D01*
X109775953Y-103823297D01*
X109765000Y-103878363D01*
X109765000Y-104121637D01*
X109775953Y-104176703D01*
X109714250Y-104115000D01*
X109555000Y-104111928D01*
X109430518Y-104124188D01*
X109310820Y-104160498D01*
X109200506Y-104219463D01*
X109103815Y-104298815D01*
X109024463Y-104395506D01*
X108965498Y-104505820D01*
X108929188Y-104625518D01*
X108916928Y-104750000D01*
X108920000Y-105964250D01*
X109078750Y-106123000D01*
X109873000Y-106123000D01*
X109873000Y-106103000D01*
X110115000Y-106103000D01*
X110115000Y-106145765D01*
X110147000Y-106306640D01*
X110147000Y-106377000D01*
X110127000Y-106377000D01*
X110127000Y-108226250D01*
X110285750Y-108385000D01*
X110445000Y-108388072D01*
X110569482Y-108375812D01*
X110689180Y-108339502D01*
X110799494Y-108280537D01*
X110896185Y-108201185D01*
X110975537Y-108104494D01*
X111000000Y-108058728D01*
X111024463Y-108104494D01*
X111103815Y-108201185D01*
X111200506Y-108280537D01*
X111310820Y-108339502D01*
X111430518Y-108375812D01*
X111555000Y-108388072D01*
X112445000Y-108388072D01*
X112569482Y-108375812D01*
X112688225Y-108339792D01*
X112624410Y-108493855D01*
X112606081Y-108586000D01*
X106450199Y-108586000D01*
X106476825Y-108530099D01*
X106521476Y-108382890D01*
X106400155Y-108153000D01*
X105207000Y-108153000D01*
X105207000Y-108173000D01*
X104953000Y-108173000D01*
X104953000Y-108153000D01*
X104933000Y-108153000D01*
X104933000Y-107899000D01*
X104953000Y-107899000D01*
X104953000Y-106705186D01*
X105207000Y-106705186D01*
X105207000Y-107899000D01*
X106400155Y-107899000D01*
X106478787Y-107750000D01*
X108916928Y-107750000D01*
X108929188Y-107874482D01*
X108965498Y-107994180D01*
X109024463Y-108104494D01*
X109103815Y-108201185D01*
X109200506Y-108280537D01*
X109310820Y-108339502D01*
X109430518Y-108375812D01*
X109555000Y-108388072D01*
X109714250Y-108385000D01*
X109873000Y-108226250D01*
X109873000Y-106377000D01*
X109078750Y-106377000D01*
X108920000Y-106535750D01*
X108916928Y-107750000D01*
X106478787Y-107750000D01*
X106521476Y-107669110D01*
X106476825Y-107521901D01*
X106351641Y-107259080D01*
X106177588Y-107025731D01*
X105961355Y-106830822D01*
X105711252Y-106681843D01*
X105436891Y-106584519D01*
X105207000Y-106705186D01*
X104953000Y-106705186D01*
X104723109Y-106584519D01*
X104448748Y-106681843D01*
X104198645Y-106830822D01*
X103982412Y-107025731D01*
X103811584Y-107254756D01*
X103780706Y-107196986D01*
X103595134Y-106970866D01*
X103369014Y-106785294D01*
X103111034Y-106647401D01*
X102831111Y-106562487D01*
X102612950Y-106541000D01*
X102467050Y-106541000D01*
X102248889Y-106562487D01*
X101968966Y-106647401D01*
X101710986Y-106785294D01*
X101484866Y-106970866D01*
X101299294Y-107196986D01*
X101161401Y-107454966D01*
X101076487Y-107734889D01*
X101047815Y-108026000D01*
X101076487Y-108317111D01*
X101161401Y-108597034D01*
X101299294Y-108855014D01*
X101484866Y-109081134D01*
X101710986Y-109266706D01*
X101765791Y-109296000D01*
X101710986Y-109325294D01*
X101484866Y-109510866D01*
X101299294Y-109736986D01*
X101161401Y-109994966D01*
X101076487Y-110274889D01*
X101047815Y-110566000D01*
X101076487Y-110857111D01*
X101161401Y-111137034D01*
X101299294Y-111395014D01*
X101484866Y-111621134D01*
X101710986Y-111806706D01*
X101765791Y-111836000D01*
X101710986Y-111865294D01*
X101484866Y-112050866D01*
X101299294Y-112276986D01*
X101161401Y-112534966D01*
X101076487Y-112814889D01*
X101047815Y-113106000D01*
X101076487Y-113397111D01*
X101161401Y-113677034D01*
X101299294Y-113935014D01*
X101484866Y-114161134D01*
X101710986Y-114346706D01*
X101765791Y-114376000D01*
X101710986Y-114405294D01*
X101484866Y-114590866D01*
X101299294Y-114816986D01*
X101161401Y-115074966D01*
X101076487Y-115354889D01*
X101047815Y-115646000D01*
X101076487Y-115937111D01*
X101161401Y-116217034D01*
X101299294Y-116475014D01*
X101484866Y-116701134D01*
X101710986Y-116886706D01*
X101765791Y-116916000D01*
X101710986Y-116945294D01*
X101484866Y-117130866D01*
X101299294Y-117356986D01*
X101161401Y-117614966D01*
X101076487Y-117894889D01*
X101047815Y-118186000D01*
X101076487Y-118477111D01*
X101161401Y-118757034D01*
X101299294Y-119015014D01*
X101484866Y-119241134D01*
X101710986Y-119426706D01*
X101765791Y-119456000D01*
X101710986Y-119485294D01*
X101484866Y-119670866D01*
X101299294Y-119896986D01*
X101161401Y-120154966D01*
X101076487Y-120434889D01*
X101047815Y-120726000D01*
X101076487Y-121017111D01*
X101161401Y-121297034D01*
X101299294Y-121555014D01*
X101484866Y-121781134D01*
X101710986Y-121966706D01*
X101765791Y-121996000D01*
X101710986Y-122025294D01*
X101484866Y-122210866D01*
X101299294Y-122436986D01*
X101161401Y-122694966D01*
X101076487Y-122974889D01*
X101047815Y-123266000D01*
X101076487Y-123557111D01*
X101161401Y-123837034D01*
X101299294Y-124095014D01*
X101484866Y-124321134D01*
X101710986Y-124506706D01*
X101765791Y-124536000D01*
X101710986Y-124565294D01*
X101484866Y-124750866D01*
X101299294Y-124976986D01*
X101161401Y-125234966D01*
X101076487Y-125514889D01*
X101047815Y-125806000D01*
X101076487Y-126097111D01*
X101161401Y-126377034D01*
X101299294Y-126635014D01*
X101484866Y-126861134D01*
X101710986Y-127046706D01*
X101968966Y-127184599D01*
X102248889Y-127269513D01*
X102467050Y-127291000D01*
X102612950Y-127291000D01*
X102831111Y-127269513D01*
X103111034Y-127184599D01*
X103369014Y-127046706D01*
X103595134Y-126861134D01*
X103619607Y-126831313D01*
X103640498Y-126900180D01*
X103699463Y-127010494D01*
X103778815Y-127107185D01*
X103875506Y-127186537D01*
X103985820Y-127245502D01*
X104105518Y-127281812D01*
X104230000Y-127294072D01*
X104794250Y-127291000D01*
X104953000Y-127132250D01*
X104953000Y-125933000D01*
X105207000Y-125933000D01*
X105207000Y-127132250D01*
X105365750Y-127291000D01*
X105930000Y-127294072D01*
X106054482Y-127281812D01*
X106174180Y-127245502D01*
X106284494Y-127186537D01*
X106381185Y-127107185D01*
X106460537Y-127010494D01*
X106519502Y-126900180D01*
X106555812Y-126780482D01*
X106568072Y-126656000D01*
X106565000Y-126091750D01*
X106406250Y-125933000D01*
X105207000Y-125933000D01*
X104953000Y-125933000D01*
X104933000Y-125933000D01*
X104933000Y-125679000D01*
X104953000Y-125679000D01*
X104953000Y-125659000D01*
X105207000Y-125659000D01*
X105207000Y-125679000D01*
X106406250Y-125679000D01*
X106565000Y-125520250D01*
X106565542Y-125420700D01*
X125256125Y-125420700D01*
X125291000Y-125424135D01*
X125325875Y-125420700D01*
X125325877Y-125420700D01*
X125430184Y-125410427D01*
X125564020Y-125369828D01*
X125687363Y-125303900D01*
X125795475Y-125215175D01*
X125817712Y-125188079D01*
X134582891Y-116422900D01*
X135018809Y-116422900D01*
X131960817Y-119480892D01*
X131933726Y-119503125D01*
X131911493Y-119530216D01*
X131845001Y-119611237D01*
X131779072Y-119734581D01*
X131738474Y-119868416D01*
X131724765Y-120007600D01*
X131728201Y-120042485D01*
X131728200Y-126102725D01*
X131724765Y-126137600D01*
X131728200Y-126172475D01*
X131728200Y-126172476D01*
X131738473Y-126276783D01*
X131779072Y-126410619D01*
X131845000Y-126533962D01*
X131933725Y-126642074D01*
X131960817Y-126664308D01*
X133886809Y-128590300D01*
X103982085Y-128590300D01*
X103908320Y-128550872D01*
X103864389Y-128537545D01*
X103780706Y-128380986D01*
X103595134Y-128154866D01*
X103369014Y-127969294D01*
X103111034Y-127831401D01*
X102831111Y-127746487D01*
X102612950Y-127725000D01*
X102467050Y-127725000D01*
X102248889Y-127746487D01*
X101968966Y-127831401D01*
X101710986Y-127969294D01*
X101484866Y-128154866D01*
X101299294Y-128380986D01*
X101161401Y-128638966D01*
X101076487Y-128918889D01*
X101047815Y-129210000D01*
X101076487Y-129501111D01*
X101161401Y-129781034D01*
X101299294Y-130039014D01*
X101484866Y-130265134D01*
X101514687Y-130289607D01*
X101445820Y-130310498D01*
X101335506Y-130369463D01*
X101238815Y-130448815D01*
X101159463Y-130545506D01*
X101100498Y-130655820D01*
X101064188Y-130775518D01*
X101051928Y-130900000D01*
X101051928Y-132600000D01*
X101064188Y-132724482D01*
X101100498Y-132844180D01*
X101159463Y-132954494D01*
X101238815Y-133051185D01*
X101335506Y-133130537D01*
X101445820Y-133189502D01*
X101565518Y-133225812D01*
X101690000Y-133238072D01*
X103390000Y-133238072D01*
X103514482Y-133225812D01*
X103634180Y-133189502D01*
X103744494Y-133130537D01*
X103841185Y-133051185D01*
X103920537Y-132954494D01*
X103979502Y-132844180D01*
X104015812Y-132724482D01*
X104028072Y-132600000D01*
X104028072Y-131750000D01*
X181057815Y-131750000D01*
X181086487Y-132041111D01*
X181171401Y-132321034D01*
X181309294Y-132579014D01*
X181494866Y-132805134D01*
X181720986Y-132990706D01*
X181978966Y-133128599D01*
X182258889Y-133213513D01*
X182477050Y-133235000D01*
X182622950Y-133235000D01*
X182841111Y-133213513D01*
X183121034Y-133128599D01*
X183379014Y-132990706D01*
X183605134Y-132805134D01*
X183790706Y-132579014D01*
X183928599Y-132321034D01*
X184013513Y-132041111D01*
X184042185Y-131750000D01*
X184013513Y-131458889D01*
X183928599Y-131178966D01*
X183790706Y-130920986D01*
X183605134Y-130694866D01*
X183575313Y-130670393D01*
X183644180Y-130649502D01*
X183754494Y-130590537D01*
X183851185Y-130511185D01*
X183930537Y-130414494D01*
X183989502Y-130304180D01*
X184025812Y-130184482D01*
X184038072Y-130060000D01*
X184038072Y-128360000D01*
X184025812Y-128235518D01*
X183989502Y-128115820D01*
X183930537Y-128005506D01*
X183851185Y-127908815D01*
X183754494Y-127829463D01*
X183644180Y-127770498D01*
X183524482Y-127734188D01*
X183400000Y-127721928D01*
X181700000Y-127721928D01*
X181575518Y-127734188D01*
X181455820Y-127770498D01*
X181345506Y-127829463D01*
X181248815Y-127908815D01*
X181169463Y-128005506D01*
X181110498Y-128115820D01*
X181074188Y-128235518D01*
X181061928Y-128360000D01*
X181061928Y-130060000D01*
X181074188Y-130184482D01*
X181110498Y-130304180D01*
X181169463Y-130414494D01*
X181248815Y-130511185D01*
X181345506Y-130590537D01*
X181455820Y-130649502D01*
X181524687Y-130670393D01*
X181494866Y-130694866D01*
X181309294Y-130920986D01*
X181171401Y-131178966D01*
X181086487Y-131458889D01*
X181057815Y-131750000D01*
X104028072Y-131750000D01*
X104028072Y-130900000D01*
X104015812Y-130775518D01*
X103979502Y-130655820D01*
X103920537Y-130545506D01*
X103841185Y-130448815D01*
X103744494Y-130369463D01*
X103634180Y-130310498D01*
X103565313Y-130289607D01*
X103595134Y-130265134D01*
X103780706Y-130039014D01*
X103796054Y-130010300D01*
X140855425Y-130010300D01*
X140890300Y-130013735D01*
X140925175Y-130010300D01*
X140925177Y-130010300D01*
X141029484Y-130000027D01*
X141163320Y-129959428D01*
X141286663Y-129893500D01*
X141394775Y-129804775D01*
X141416310Y-129778535D01*
X141547245Y-129752490D01*
X141708305Y-129685777D01*
X141853255Y-129588924D01*
X141976524Y-129465655D01*
X142073377Y-129320705D01*
X142140090Y-129159645D01*
X142162447Y-129047248D01*
X142296055Y-129102590D01*
X142467035Y-129136600D01*
X142641365Y-129136600D01*
X142812345Y-129102590D01*
X142973405Y-129035877D01*
X143118355Y-128939024D01*
X143241624Y-128815755D01*
X143338477Y-128670805D01*
X143405190Y-128509745D01*
X143439200Y-128338765D01*
X143439200Y-128164435D01*
X143405190Y-127993455D01*
X143338477Y-127832395D01*
X143241624Y-127687445D01*
X143118355Y-127564176D01*
X142973405Y-127467323D01*
X142812345Y-127400610D01*
X142641365Y-127366600D01*
X142467035Y-127366600D01*
X142296055Y-127400610D01*
X142134995Y-127467323D01*
X142023832Y-127541600D01*
X141273574Y-127541600D01*
X141238699Y-127538165D01*
X141203824Y-127541600D01*
X141203823Y-127541600D01*
X141099516Y-127551873D01*
X140965680Y-127592472D01*
X140842337Y-127658400D01*
X140734225Y-127747125D01*
X140711992Y-127774216D01*
X140269109Y-128217100D01*
X136252222Y-128217100D01*
X136230890Y-128109855D01*
X136164177Y-127948795D01*
X136067324Y-127803845D01*
X135944055Y-127680576D01*
X135799105Y-127583723D01*
X135638045Y-127517010D01*
X135506918Y-127490927D01*
X133469400Y-125453409D01*
X133469400Y-122220177D01*
X133546935Y-122235600D01*
X133721265Y-122235600D01*
X133881438Y-122203740D01*
X133990895Y-122276877D01*
X134151955Y-122343590D01*
X134322935Y-122377600D01*
X134497265Y-122377600D01*
X134520800Y-122372919D01*
X134520800Y-122463465D01*
X134554810Y-122634445D01*
X134621523Y-122795505D01*
X134718376Y-122940455D01*
X134841645Y-123063724D01*
X134986595Y-123160577D01*
X135147655Y-123227290D01*
X135318635Y-123261300D01*
X135492965Y-123261300D01*
X135527761Y-123254379D01*
X135588123Y-123400105D01*
X135684976Y-123545055D01*
X135808245Y-123668324D01*
X135953195Y-123765177D01*
X136114255Y-123831890D01*
X136285235Y-123865900D01*
X136342521Y-123865900D01*
X136261576Y-123946845D01*
X136164723Y-124091795D01*
X136098010Y-124252855D01*
X136064000Y-124423835D01*
X136064000Y-124598165D01*
X136098010Y-124769145D01*
X136164723Y-124930205D01*
X136261576Y-125075155D01*
X136384845Y-125198424D01*
X136529795Y-125295277D01*
X136690855Y-125361990D01*
X136861835Y-125396000D01*
X137036165Y-125396000D01*
X137207145Y-125361990D01*
X137368205Y-125295277D01*
X137479368Y-125221000D01*
X175323825Y-125221000D01*
X175358700Y-125224435D01*
X175393575Y-125221000D01*
X175393577Y-125221000D01*
X175497884Y-125210727D01*
X175631720Y-125170128D01*
X175755063Y-125104200D01*
X175863175Y-125015475D01*
X175885412Y-124988379D01*
X178913754Y-121960038D01*
X178954866Y-122010134D01*
X179180986Y-122195706D01*
X179235791Y-122225000D01*
X179180986Y-122254294D01*
X178954866Y-122439866D01*
X178769294Y-122665986D01*
X178631401Y-122923966D01*
X178546487Y-123203889D01*
X178517815Y-123495000D01*
X178546487Y-123786111D01*
X178631401Y-124066034D01*
X178769294Y-124324014D01*
X178954866Y-124550134D01*
X179180986Y-124735706D01*
X179235791Y-124765000D01*
X179180986Y-124794294D01*
X178954866Y-124979866D01*
X178769294Y-125205986D01*
X178631401Y-125463966D01*
X178546487Y-125743889D01*
X178517815Y-126035000D01*
X178546487Y-126326111D01*
X178631401Y-126606034D01*
X178769294Y-126864014D01*
X178954866Y-127090134D01*
X179180986Y-127275706D01*
X179438966Y-127413599D01*
X179718889Y-127498513D01*
X179937050Y-127520000D01*
X180082950Y-127520000D01*
X180301111Y-127498513D01*
X180581034Y-127413599D01*
X180839014Y-127275706D01*
X181065134Y-127090134D01*
X181250706Y-126864014D01*
X181281584Y-126806244D01*
X181452412Y-127035269D01*
X181668645Y-127230178D01*
X181918748Y-127379157D01*
X182193109Y-127476481D01*
X182423000Y-127355814D01*
X182423000Y-126162000D01*
X182677000Y-126162000D01*
X182677000Y-127355814D01*
X182906891Y-127476481D01*
X183181252Y-127379157D01*
X183431355Y-127230178D01*
X183647588Y-127035269D01*
X183821641Y-126801920D01*
X183946825Y-126539099D01*
X183991476Y-126391890D01*
X183870155Y-126162000D01*
X182677000Y-126162000D01*
X182423000Y-126162000D01*
X182403000Y-126162000D01*
X182403000Y-125908000D01*
X182423000Y-125908000D01*
X182423000Y-123622000D01*
X182677000Y-123622000D01*
X182677000Y-125908000D01*
X183870155Y-125908000D01*
X183991476Y-125678110D01*
X183946825Y-125530901D01*
X183821641Y-125268080D01*
X183647588Y-125034731D01*
X183431355Y-124839822D01*
X183305745Y-124765000D01*
X183431355Y-124690178D01*
X183647588Y-124495269D01*
X183821641Y-124261920D01*
X183946825Y-123999099D01*
X183991476Y-123851890D01*
X183870155Y-123622000D01*
X182677000Y-123622000D01*
X182423000Y-123622000D01*
X182403000Y-123622000D01*
X182403000Y-123368000D01*
X182423000Y-123368000D01*
X182423000Y-121082000D01*
X182677000Y-121082000D01*
X182677000Y-123368000D01*
X183870155Y-123368000D01*
X183991476Y-123138110D01*
X183946825Y-122990901D01*
X183821641Y-122728080D01*
X183647588Y-122494731D01*
X183431355Y-122299822D01*
X183305745Y-122225000D01*
X183431355Y-122150178D01*
X183647588Y-121955269D01*
X183821641Y-121721920D01*
X183946825Y-121459099D01*
X183991476Y-121311890D01*
X183870155Y-121082000D01*
X182677000Y-121082000D01*
X182423000Y-121082000D01*
X182403000Y-121082000D01*
X182403000Y-120828000D01*
X182423000Y-120828000D01*
X182423000Y-118542000D01*
X182677000Y-118542000D01*
X182677000Y-120828000D01*
X183870155Y-120828000D01*
X183991476Y-120598110D01*
X183946825Y-120450901D01*
X183821641Y-120188080D01*
X183647588Y-119954731D01*
X183431355Y-119759822D01*
X183305745Y-119685000D01*
X183431355Y-119610178D01*
X183647588Y-119415269D01*
X183821641Y-119181920D01*
X183946825Y-118919099D01*
X183991476Y-118771890D01*
X183870155Y-118542000D01*
X182677000Y-118542000D01*
X182423000Y-118542000D01*
X182403000Y-118542000D01*
X182403000Y-118288000D01*
X182423000Y-118288000D01*
X182423000Y-116002000D01*
X182677000Y-116002000D01*
X182677000Y-118288000D01*
X183870155Y-118288000D01*
X183991476Y-118058110D01*
X183946825Y-117910901D01*
X183821641Y-117648080D01*
X183647588Y-117414731D01*
X183431355Y-117219822D01*
X183305745Y-117145000D01*
X183431355Y-117070178D01*
X183647588Y-116875269D01*
X183821641Y-116641920D01*
X183946825Y-116379099D01*
X183991476Y-116231890D01*
X183870155Y-116002000D01*
X182677000Y-116002000D01*
X182423000Y-116002000D01*
X182403000Y-116002000D01*
X182403000Y-115748000D01*
X182423000Y-115748000D01*
X182423000Y-113462000D01*
X182677000Y-113462000D01*
X182677000Y-115748000D01*
X183870155Y-115748000D01*
X183991476Y-115518110D01*
X183946825Y-115370901D01*
X183821641Y-115108080D01*
X183647588Y-114874731D01*
X183431355Y-114679822D01*
X183305745Y-114605000D01*
X183431355Y-114530178D01*
X183647588Y-114335269D01*
X183821641Y-114101920D01*
X183946825Y-113839099D01*
X183991476Y-113691890D01*
X183870155Y-113462000D01*
X182677000Y-113462000D01*
X182423000Y-113462000D01*
X182403000Y-113462000D01*
X182403000Y-113208000D01*
X182423000Y-113208000D01*
X182423000Y-110922000D01*
X182677000Y-110922000D01*
X182677000Y-113208000D01*
X183870155Y-113208000D01*
X183991476Y-112978110D01*
X183946825Y-112830901D01*
X183821641Y-112568080D01*
X183647588Y-112334731D01*
X183431355Y-112139822D01*
X183305745Y-112065000D01*
X183431355Y-111990178D01*
X183647588Y-111795269D01*
X183821641Y-111561920D01*
X183946825Y-111299099D01*
X183991476Y-111151890D01*
X183870155Y-110922000D01*
X182677000Y-110922000D01*
X182423000Y-110922000D01*
X182403000Y-110922000D01*
X182403000Y-110668000D01*
X182423000Y-110668000D01*
X182423000Y-108382000D01*
X182677000Y-108382000D01*
X182677000Y-110668000D01*
X183870155Y-110668000D01*
X183991476Y-110438110D01*
X183946825Y-110290901D01*
X183821641Y-110028080D01*
X183647588Y-109794731D01*
X183431355Y-109599822D01*
X183305745Y-109525000D01*
X183431355Y-109450178D01*
X183647588Y-109255269D01*
X183821641Y-109021920D01*
X183946825Y-108759099D01*
X183991476Y-108611890D01*
X183870155Y-108382000D01*
X182677000Y-108382000D01*
X182423000Y-108382000D01*
X182403000Y-108382000D01*
X182403000Y-108128000D01*
X182423000Y-108128000D01*
X182423000Y-106934186D01*
X182677000Y-106934186D01*
X182677000Y-108128000D01*
X183870155Y-108128000D01*
X183991476Y-107898110D01*
X183946825Y-107750901D01*
X183821641Y-107488080D01*
X183647588Y-107254731D01*
X183431355Y-107059822D01*
X183181252Y-106910843D01*
X182906891Y-106813519D01*
X182677000Y-106934186D01*
X182423000Y-106934186D01*
X182193109Y-106813519D01*
X181918748Y-106910843D01*
X181668645Y-107059822D01*
X181472498Y-107236626D01*
X181449502Y-107160820D01*
X181390537Y-107050506D01*
X181311185Y-106953815D01*
X181214494Y-106874463D01*
X181104180Y-106815498D01*
X180984482Y-106779188D01*
X180860000Y-106766928D01*
X179160000Y-106766928D01*
X179035518Y-106779188D01*
X178915820Y-106815498D01*
X178805506Y-106874463D01*
X178708815Y-106953815D01*
X178629463Y-107050506D01*
X178570498Y-107160820D01*
X178534188Y-107280518D01*
X178521928Y-107405000D01*
X178521928Y-107659881D01*
X178518337Y-107661800D01*
X178410225Y-107750525D01*
X178387992Y-107777616D01*
X166496409Y-119669200D01*
X141622500Y-119669200D01*
X141642000Y-119571165D01*
X141642000Y-119396835D01*
X141607990Y-119225855D01*
X141541277Y-119064795D01*
X141467000Y-118953632D01*
X141467000Y-118326177D01*
X141470435Y-118291300D01*
X141456727Y-118152115D01*
X141416128Y-118018280D01*
X141350199Y-117894936D01*
X141261475Y-117786825D01*
X141234379Y-117764588D01*
X131857863Y-108388072D01*
X132445000Y-108388072D01*
X132569482Y-108375812D01*
X132689180Y-108339502D01*
X132719276Y-108323415D01*
X132674110Y-108432455D01*
X132640100Y-108603435D01*
X132640100Y-108777765D01*
X132674110Y-108948745D01*
X132740823Y-109109805D01*
X132837676Y-109254755D01*
X132960945Y-109378024D01*
X133105895Y-109474877D01*
X133266955Y-109541590D01*
X133437935Y-109575600D01*
X133612265Y-109575600D01*
X133783245Y-109541590D01*
X133944305Y-109474877D01*
X134089255Y-109378024D01*
X134212524Y-109254755D01*
X134309377Y-109109805D01*
X134376090Y-108948745D01*
X134410100Y-108777765D01*
X134410100Y-108603435D01*
X134407753Y-108591638D01*
X134477379Y-108522012D01*
X134504475Y-108499775D01*
X134593200Y-108391663D01*
X134604337Y-108370827D01*
X134578810Y-108432455D01*
X134544800Y-108603435D01*
X134544800Y-108777765D01*
X134578810Y-108948745D01*
X134645523Y-109109805D01*
X134742376Y-109254755D01*
X134865645Y-109378024D01*
X135010595Y-109474877D01*
X135171655Y-109541590D01*
X135342635Y-109575600D01*
X135516965Y-109575600D01*
X135687945Y-109541590D01*
X135849005Y-109474877D01*
X135993955Y-109378024D01*
X136117224Y-109254755D01*
X136214077Y-109109805D01*
X136280790Y-108948745D01*
X136314800Y-108777765D01*
X136314800Y-108684591D01*
X136477379Y-108522012D01*
X136504475Y-108499775D01*
X136593200Y-108391663D01*
X136607902Y-108364157D01*
X136689180Y-108339502D01*
X136799494Y-108280537D01*
X136896185Y-108201185D01*
X136975537Y-108104494D01*
X136983407Y-108089771D01*
X136948817Y-108203797D01*
X136862623Y-108332795D01*
X136795910Y-108493855D01*
X136761900Y-108664835D01*
X136761900Y-108839165D01*
X136795910Y-109010145D01*
X136862623Y-109171205D01*
X136959476Y-109316155D01*
X137082745Y-109439424D01*
X137227695Y-109536277D01*
X137388755Y-109602990D01*
X137559735Y-109637000D01*
X137734065Y-109637000D01*
X137905045Y-109602990D01*
X138066105Y-109536277D01*
X138211055Y-109439424D01*
X138334324Y-109316155D01*
X138431177Y-109171205D01*
X138497890Y-109010145D01*
X138531900Y-108839165D01*
X138531900Y-108664835D01*
X138499826Y-108503590D01*
X138504475Y-108499775D01*
X138593200Y-108391663D01*
X138607902Y-108364157D01*
X138689180Y-108339502D01*
X138799494Y-108280537D01*
X138896185Y-108201185D01*
X138975537Y-108104494D01*
X139000000Y-108058728D01*
X139024463Y-108104494D01*
X139103815Y-108201185D01*
X139200506Y-108280537D01*
X139286078Y-108326277D01*
X139281723Y-108332795D01*
X139215010Y-108493855D01*
X139181000Y-108664835D01*
X139181000Y-108839165D01*
X139215010Y-109010145D01*
X139281723Y-109171205D01*
X139378576Y-109316155D01*
X139501845Y-109439424D01*
X139646795Y-109536277D01*
X139807855Y-109602990D01*
X139978835Y-109637000D01*
X140153165Y-109637000D01*
X140324145Y-109602990D01*
X140485205Y-109536277D01*
X140630155Y-109439424D01*
X140753424Y-109316155D01*
X140850277Y-109171205D01*
X140916990Y-109010145D01*
X140951000Y-108839165D01*
X140951000Y-108664835D01*
X140916990Y-108493855D01*
X140850277Y-108332795D01*
X140809740Y-108272128D01*
X140896185Y-108201185D01*
X140975537Y-108104494D01*
X141000000Y-108058728D01*
X141024463Y-108104494D01*
X141103815Y-108201185D01*
X141200506Y-108280537D01*
X141310820Y-108339502D01*
X141430518Y-108375812D01*
X141555000Y-108388072D01*
X141693127Y-108388072D01*
X141649310Y-108493855D01*
X141615300Y-108664835D01*
X141615300Y-108839165D01*
X141649310Y-109010145D01*
X141716023Y-109171205D01*
X141812876Y-109316155D01*
X141936145Y-109439424D01*
X142081095Y-109536277D01*
X142242155Y-109602990D01*
X142413135Y-109637000D01*
X142587465Y-109637000D01*
X142758445Y-109602990D01*
X142919505Y-109536277D01*
X143064455Y-109439424D01*
X143187724Y-109316155D01*
X143284577Y-109171205D01*
X143351290Y-109010145D01*
X143377373Y-108879019D01*
X143551092Y-108705300D01*
X143965123Y-108705300D01*
X144000000Y-108708735D01*
X144034877Y-108705300D01*
X144139184Y-108695027D01*
X144228400Y-108667963D01*
X144228400Y-108839165D01*
X144262410Y-109010145D01*
X144329123Y-109171205D01*
X144425976Y-109316155D01*
X144549245Y-109439424D01*
X144694195Y-109536277D01*
X144855255Y-109602990D01*
X145026235Y-109637000D01*
X145200565Y-109637000D01*
X145371545Y-109602990D01*
X145532605Y-109536277D01*
X145677555Y-109439424D01*
X145800824Y-109316155D01*
X145897677Y-109171205D01*
X145964390Y-109010145D01*
X145990473Y-108879019D01*
X146189827Y-108679664D01*
X146273020Y-108654428D01*
X146396363Y-108588500D01*
X146504475Y-108499775D01*
X146593200Y-108391663D01*
X146607902Y-108364157D01*
X146689180Y-108339502D01*
X146799494Y-108280537D01*
X146896185Y-108201185D01*
X146975537Y-108104494D01*
X147000000Y-108058728D01*
X147024463Y-108104494D01*
X147103815Y-108201185D01*
X147200506Y-108280537D01*
X147310820Y-108339502D01*
X147430518Y-108375812D01*
X147555000Y-108388072D01*
X147714250Y-108385000D01*
X147873000Y-108226250D01*
X147873000Y-106377000D01*
X148127000Y-106377000D01*
X148127000Y-108226250D01*
X148285750Y-108385000D01*
X148445000Y-108388072D01*
X148569482Y-108375812D01*
X148689180Y-108339502D01*
X148799494Y-108280537D01*
X148896185Y-108201185D01*
X148975537Y-108104494D01*
X149034502Y-107994180D01*
X149070812Y-107874482D01*
X149083072Y-107750000D01*
X149080000Y-106535750D01*
X148921250Y-106377000D01*
X148127000Y-106377000D01*
X147873000Y-106377000D01*
X147853000Y-106377000D01*
X147853000Y-106123000D01*
X147873000Y-106123000D01*
X147873000Y-106103000D01*
X148127000Y-106103000D01*
X148127000Y-106123000D01*
X148921250Y-106123000D01*
X149080000Y-105964250D01*
X149083072Y-104750000D01*
X149070812Y-104625518D01*
X149034502Y-104505820D01*
X148975537Y-104395506D01*
X148896185Y-104298815D01*
X148799494Y-104219463D01*
X148689180Y-104160498D01*
X148569482Y-104124188D01*
X148445000Y-104111928D01*
X148285750Y-104115000D01*
X148224047Y-104176703D01*
X148235000Y-104121637D01*
X148235000Y-103878363D01*
X148224047Y-103823297D01*
X148285750Y-103885000D01*
X148445000Y-103888072D01*
X148569482Y-103875812D01*
X148689180Y-103839502D01*
X148799494Y-103780537D01*
X148896185Y-103701185D01*
X148975537Y-103604494D01*
X149034502Y-103494180D01*
X149070812Y-103374482D01*
X149083072Y-103250000D01*
X149080000Y-102035750D01*
X148921250Y-101877000D01*
X148127000Y-101877000D01*
X148127000Y-101897000D01*
X147873000Y-101897000D01*
X147873000Y-101877000D01*
X147853000Y-101877000D01*
X147853000Y-101623000D01*
X147873000Y-101623000D01*
X147873000Y-101603000D01*
X148127000Y-101603000D01*
X148127000Y-101623000D01*
X148921250Y-101623000D01*
X149080000Y-101464250D01*
X149081971Y-100685000D01*
X184314492Y-100685000D01*
X184314493Y-133605000D01*
X100685000Y-133605000D01*
X100685000Y-100685000D01*
X108918029Y-100685000D01*
X108920000Y-101464250D01*
X108920000Y-101464250D01*
G37*
X108920000Y-101464250D02*
X109078750Y-101623000D01*
X109873000Y-101623000D01*
X109873000Y-101603000D01*
X110127000Y-101603000D01*
X110127000Y-101623000D01*
X110147000Y-101623000D01*
X110147000Y-101877000D01*
X110127000Y-101877000D01*
X110127000Y-101897000D01*
X109873000Y-101897000D01*
X109873000Y-101877000D01*
X109078750Y-101877000D01*
X108920000Y-102035750D01*
X108916928Y-103250000D01*
X108929188Y-103374482D01*
X108965498Y-103494180D01*
X109024463Y-103604494D01*
X109103815Y-103701185D01*
X109200506Y-103780537D01*
X109310820Y-103839502D01*
X109430518Y-103875812D01*
X109555000Y-103888072D01*
X109714250Y-103885000D01*
X109775953Y-103823297D01*
X109765000Y-103878363D01*
X109765000Y-104121637D01*
X109775953Y-104176703D01*
X109714250Y-104115000D01*
X109555000Y-104111928D01*
X109430518Y-104124188D01*
X109310820Y-104160498D01*
X109200506Y-104219463D01*
X109103815Y-104298815D01*
X109024463Y-104395506D01*
X108965498Y-104505820D01*
X108929188Y-104625518D01*
X108916928Y-104750000D01*
X108920000Y-105964250D01*
X109078750Y-106123000D01*
X109873000Y-106123000D01*
X109873000Y-106103000D01*
X110115000Y-106103000D01*
X110115000Y-106145765D01*
X110147000Y-106306640D01*
X110147000Y-106377000D01*
X110127000Y-106377000D01*
X110127000Y-108226250D01*
X110285750Y-108385000D01*
X110445000Y-108388072D01*
X110569482Y-108375812D01*
X110689180Y-108339502D01*
X110799494Y-108280537D01*
X110896185Y-108201185D01*
X110975537Y-108104494D01*
X111000000Y-108058728D01*
X111024463Y-108104494D01*
X111103815Y-108201185D01*
X111200506Y-108280537D01*
X111310820Y-108339502D01*
X111430518Y-108375812D01*
X111555000Y-108388072D01*
X112445000Y-108388072D01*
X112569482Y-108375812D01*
X112688225Y-108339792D01*
X112624410Y-108493855D01*
X112606081Y-108586000D01*
X106450199Y-108586000D01*
X106476825Y-108530099D01*
X106521476Y-108382890D01*
X106400155Y-108153000D01*
X105207000Y-108153000D01*
X105207000Y-108173000D01*
X104953000Y-108173000D01*
X104953000Y-108153000D01*
X104933000Y-108153000D01*
X104933000Y-107899000D01*
X104953000Y-107899000D01*
X104953000Y-106705186D01*
X105207000Y-106705186D01*
X105207000Y-107899000D01*
X106400155Y-107899000D01*
X106478787Y-107750000D01*
X108916928Y-107750000D01*
X108929188Y-107874482D01*
X108965498Y-107994180D01*
X109024463Y-108104494D01*
X109103815Y-108201185D01*
X109200506Y-108280537D01*
X109310820Y-108339502D01*
X109430518Y-108375812D01*
X109555000Y-108388072D01*
X109714250Y-108385000D01*
X109873000Y-108226250D01*
X109873000Y-106377000D01*
X109078750Y-106377000D01*
X108920000Y-106535750D01*
X108916928Y-107750000D01*
X106478787Y-107750000D01*
X106521476Y-107669110D01*
X106476825Y-107521901D01*
X106351641Y-107259080D01*
X106177588Y-107025731D01*
X105961355Y-106830822D01*
X105711252Y-106681843D01*
X105436891Y-106584519D01*
X105207000Y-106705186D01*
X104953000Y-106705186D01*
X104723109Y-106584519D01*
X104448748Y-106681843D01*
X104198645Y-106830822D01*
X103982412Y-107025731D01*
X103811584Y-107254756D01*
X103780706Y-107196986D01*
X103595134Y-106970866D01*
X103369014Y-106785294D01*
X103111034Y-106647401D01*
X102831111Y-106562487D01*
X102612950Y-106541000D01*
X102467050Y-106541000D01*
X102248889Y-106562487D01*
X101968966Y-106647401D01*
X101710986Y-106785294D01*
X101484866Y-106970866D01*
X101299294Y-107196986D01*
X101161401Y-107454966D01*
X101076487Y-107734889D01*
X101047815Y-108026000D01*
X101076487Y-108317111D01*
X101161401Y-108597034D01*
X101299294Y-108855014D01*
X101484866Y-109081134D01*
X101710986Y-109266706D01*
X101765791Y-109296000D01*
X101710986Y-109325294D01*
X101484866Y-109510866D01*
X101299294Y-109736986D01*
X101161401Y-109994966D01*
X101076487Y-110274889D01*
X101047815Y-110566000D01*
X101076487Y-110857111D01*
X101161401Y-111137034D01*
X101299294Y-111395014D01*
X101484866Y-111621134D01*
X101710986Y-111806706D01*
X101765791Y-111836000D01*
X101710986Y-111865294D01*
X101484866Y-112050866D01*
X101299294Y-112276986D01*
X101161401Y-112534966D01*
X101076487Y-112814889D01*
X101047815Y-113106000D01*
X101076487Y-113397111D01*
X101161401Y-113677034D01*
X101299294Y-113935014D01*
X101484866Y-114161134D01*
X101710986Y-114346706D01*
X101765791Y-114376000D01*
X101710986Y-114405294D01*
X101484866Y-114590866D01*
X101299294Y-114816986D01*
X101161401Y-115074966D01*
X101076487Y-115354889D01*
X101047815Y-115646000D01*
X101076487Y-115937111D01*
X101161401Y-116217034D01*
X101299294Y-116475014D01*
X101484866Y-116701134D01*
X101710986Y-116886706D01*
X101765791Y-116916000D01*
X101710986Y-116945294D01*
X101484866Y-117130866D01*
X101299294Y-117356986D01*
X101161401Y-117614966D01*
X101076487Y-117894889D01*
X101047815Y-118186000D01*
X101076487Y-118477111D01*
X101161401Y-118757034D01*
X101299294Y-119015014D01*
X101484866Y-119241134D01*
X101710986Y-119426706D01*
X101765791Y-119456000D01*
X101710986Y-119485294D01*
X101484866Y-119670866D01*
X101299294Y-119896986D01*
X101161401Y-120154966D01*
X101076487Y-120434889D01*
X101047815Y-120726000D01*
X101076487Y-121017111D01*
X101161401Y-121297034D01*
X101299294Y-121555014D01*
X101484866Y-121781134D01*
X101710986Y-121966706D01*
X101765791Y-121996000D01*
X101710986Y-122025294D01*
X101484866Y-122210866D01*
X101299294Y-122436986D01*
X101161401Y-122694966D01*
X101076487Y-122974889D01*
X101047815Y-123266000D01*
X101076487Y-123557111D01*
X101161401Y-123837034D01*
X101299294Y-124095014D01*
X101484866Y-124321134D01*
X101710986Y-124506706D01*
X101765791Y-124536000D01*
X101710986Y-124565294D01*
X101484866Y-124750866D01*
X101299294Y-124976986D01*
X101161401Y-125234966D01*
X101076487Y-125514889D01*
X101047815Y-125806000D01*
X101076487Y-126097111D01*
X101161401Y-126377034D01*
X101299294Y-126635014D01*
X101484866Y-126861134D01*
X101710986Y-127046706D01*
X101968966Y-127184599D01*
X102248889Y-127269513D01*
X102467050Y-127291000D01*
X102612950Y-127291000D01*
X102831111Y-127269513D01*
X103111034Y-127184599D01*
X103369014Y-127046706D01*
X103595134Y-126861134D01*
X103619607Y-126831313D01*
X103640498Y-126900180D01*
X103699463Y-127010494D01*
X103778815Y-127107185D01*
X103875506Y-127186537D01*
X103985820Y-127245502D01*
X104105518Y-127281812D01*
X104230000Y-127294072D01*
X104794250Y-127291000D01*
X104953000Y-127132250D01*
X104953000Y-125933000D01*
X105207000Y-125933000D01*
X105207000Y-127132250D01*
X105365750Y-127291000D01*
X105930000Y-127294072D01*
X106054482Y-127281812D01*
X106174180Y-127245502D01*
X106284494Y-127186537D01*
X106381185Y-127107185D01*
X106460537Y-127010494D01*
X106519502Y-126900180D01*
X106555812Y-126780482D01*
X106568072Y-126656000D01*
X106565000Y-126091750D01*
X106406250Y-125933000D01*
X105207000Y-125933000D01*
X104953000Y-125933000D01*
X104933000Y-125933000D01*
X104933000Y-125679000D01*
X104953000Y-125679000D01*
X104953000Y-125659000D01*
X105207000Y-125659000D01*
X105207000Y-125679000D01*
X106406250Y-125679000D01*
X106565000Y-125520250D01*
X106565542Y-125420700D01*
X125256125Y-125420700D01*
X125291000Y-125424135D01*
X125325875Y-125420700D01*
X125325877Y-125420700D01*
X125430184Y-125410427D01*
X125564020Y-125369828D01*
X125687363Y-125303900D01*
X125795475Y-125215175D01*
X125817712Y-125188079D01*
X134582891Y-116422900D01*
X135018809Y-116422900D01*
X131960817Y-119480892D01*
X131933726Y-119503125D01*
X131911493Y-119530216D01*
X131845001Y-119611237D01*
X131779072Y-119734581D01*
X131738474Y-119868416D01*
X131724765Y-120007600D01*
X131728201Y-120042485D01*
X131728200Y-126102725D01*
X131724765Y-126137600D01*
X131728200Y-126172475D01*
X131728200Y-126172476D01*
X131738473Y-126276783D01*
X131779072Y-126410619D01*
X131845000Y-126533962D01*
X131933725Y-126642074D01*
X131960817Y-126664308D01*
X133886809Y-128590300D01*
X103982085Y-128590300D01*
X103908320Y-128550872D01*
X103864389Y-128537545D01*
X103780706Y-128380986D01*
X103595134Y-128154866D01*
X103369014Y-127969294D01*
X103111034Y-127831401D01*
X102831111Y-127746487D01*
X102612950Y-127725000D01*
X102467050Y-127725000D01*
X102248889Y-127746487D01*
X101968966Y-127831401D01*
X101710986Y-127969294D01*
X101484866Y-128154866D01*
X101299294Y-128380986D01*
X101161401Y-128638966D01*
X101076487Y-128918889D01*
X101047815Y-129210000D01*
X101076487Y-129501111D01*
X101161401Y-129781034D01*
X101299294Y-130039014D01*
X101484866Y-130265134D01*
X101514687Y-130289607D01*
X101445820Y-130310498D01*
X101335506Y-130369463D01*
X101238815Y-130448815D01*
X101159463Y-130545506D01*
X101100498Y-130655820D01*
X101064188Y-130775518D01*
X101051928Y-130900000D01*
X101051928Y-132600000D01*
X101064188Y-132724482D01*
X101100498Y-132844180D01*
X101159463Y-132954494D01*
X101238815Y-133051185D01*
X101335506Y-133130537D01*
X101445820Y-133189502D01*
X101565518Y-133225812D01*
X101690000Y-133238072D01*
X103390000Y-133238072D01*
X103514482Y-133225812D01*
X103634180Y-133189502D01*
X103744494Y-133130537D01*
X103841185Y-133051185D01*
X103920537Y-132954494D01*
X103979502Y-132844180D01*
X104015812Y-132724482D01*
X104028072Y-132600000D01*
X104028072Y-131750000D01*
X181057815Y-131750000D01*
X181086487Y-132041111D01*
X181171401Y-132321034D01*
X181309294Y-132579014D01*
X181494866Y-132805134D01*
X181720986Y-132990706D01*
X181978966Y-133128599D01*
X182258889Y-133213513D01*
X182477050Y-133235000D01*
X182622950Y-133235000D01*
X182841111Y-133213513D01*
X183121034Y-133128599D01*
X183379014Y-132990706D01*
X183605134Y-132805134D01*
X183790706Y-132579014D01*
X183928599Y-132321034D01*
X184013513Y-132041111D01*
X184042185Y-131750000D01*
X184013513Y-131458889D01*
X183928599Y-131178966D01*
X183790706Y-130920986D01*
X183605134Y-130694866D01*
X183575313Y-130670393D01*
X183644180Y-130649502D01*
X183754494Y-130590537D01*
X183851185Y-130511185D01*
X183930537Y-130414494D01*
X183989502Y-130304180D01*
X184025812Y-130184482D01*
X184038072Y-130060000D01*
X184038072Y-128360000D01*
X184025812Y-128235518D01*
X183989502Y-128115820D01*
X183930537Y-128005506D01*
X183851185Y-127908815D01*
X183754494Y-127829463D01*
X183644180Y-127770498D01*
X183524482Y-127734188D01*
X183400000Y-127721928D01*
X181700000Y-127721928D01*
X181575518Y-127734188D01*
X181455820Y-127770498D01*
X181345506Y-127829463D01*
X181248815Y-127908815D01*
X181169463Y-128005506D01*
X181110498Y-128115820D01*
X181074188Y-128235518D01*
X181061928Y-128360000D01*
X181061928Y-130060000D01*
X181074188Y-130184482D01*
X181110498Y-130304180D01*
X181169463Y-130414494D01*
X181248815Y-130511185D01*
X181345506Y-130590537D01*
X181455820Y-130649502D01*
X181524687Y-130670393D01*
X181494866Y-130694866D01*
X181309294Y-130920986D01*
X181171401Y-131178966D01*
X181086487Y-131458889D01*
X181057815Y-131750000D01*
X104028072Y-131750000D01*
X104028072Y-130900000D01*
X104015812Y-130775518D01*
X103979502Y-130655820D01*
X103920537Y-130545506D01*
X103841185Y-130448815D01*
X103744494Y-130369463D01*
X103634180Y-130310498D01*
X103565313Y-130289607D01*
X103595134Y-130265134D01*
X103780706Y-130039014D01*
X103796054Y-130010300D01*
X140855425Y-130010300D01*
X140890300Y-130013735D01*
X140925175Y-130010300D01*
X140925177Y-130010300D01*
X141029484Y-130000027D01*
X141163320Y-129959428D01*
X141286663Y-129893500D01*
X141394775Y-129804775D01*
X141416310Y-129778535D01*
X141547245Y-129752490D01*
X141708305Y-129685777D01*
X141853255Y-129588924D01*
X141976524Y-129465655D01*
X142073377Y-129320705D01*
X142140090Y-129159645D01*
X142162447Y-129047248D01*
X142296055Y-129102590D01*
X142467035Y-129136600D01*
X142641365Y-129136600D01*
X142812345Y-129102590D01*
X142973405Y-129035877D01*
X143118355Y-128939024D01*
X143241624Y-128815755D01*
X143338477Y-128670805D01*
X143405190Y-128509745D01*
X143439200Y-128338765D01*
X143439200Y-128164435D01*
X143405190Y-127993455D01*
X143338477Y-127832395D01*
X143241624Y-127687445D01*
X143118355Y-127564176D01*
X142973405Y-127467323D01*
X142812345Y-127400610D01*
X142641365Y-127366600D01*
X142467035Y-127366600D01*
X142296055Y-127400610D01*
X142134995Y-127467323D01*
X142023832Y-127541600D01*
X141273574Y-127541600D01*
X141238699Y-127538165D01*
X141203824Y-127541600D01*
X141203823Y-127541600D01*
X141099516Y-127551873D01*
X140965680Y-127592472D01*
X140842337Y-127658400D01*
X140734225Y-127747125D01*
X140711992Y-127774216D01*
X140269109Y-128217100D01*
X136252222Y-128217100D01*
X136230890Y-128109855D01*
X136164177Y-127948795D01*
X136067324Y-127803845D01*
X135944055Y-127680576D01*
X135799105Y-127583723D01*
X135638045Y-127517010D01*
X135506918Y-127490927D01*
X133469400Y-125453409D01*
X133469400Y-122220177D01*
X133546935Y-122235600D01*
X133721265Y-122235600D01*
X133881438Y-122203740D01*
X133990895Y-122276877D01*
X134151955Y-122343590D01*
X134322935Y-122377600D01*
X134497265Y-122377600D01*
X134520800Y-122372919D01*
X134520800Y-122463465D01*
X134554810Y-122634445D01*
X134621523Y-122795505D01*
X134718376Y-122940455D01*
X134841645Y-123063724D01*
X134986595Y-123160577D01*
X135147655Y-123227290D01*
X135318635Y-123261300D01*
X135492965Y-123261300D01*
X135527761Y-123254379D01*
X135588123Y-123400105D01*
X135684976Y-123545055D01*
X135808245Y-123668324D01*
X135953195Y-123765177D01*
X136114255Y-123831890D01*
X136285235Y-123865900D01*
X136342521Y-123865900D01*
X136261576Y-123946845D01*
X136164723Y-124091795D01*
X136098010Y-124252855D01*
X136064000Y-124423835D01*
X136064000Y-124598165D01*
X136098010Y-124769145D01*
X136164723Y-124930205D01*
X136261576Y-125075155D01*
X136384845Y-125198424D01*
X136529795Y-125295277D01*
X136690855Y-125361990D01*
X136861835Y-125396000D01*
X137036165Y-125396000D01*
X137207145Y-125361990D01*
X137368205Y-125295277D01*
X137479368Y-125221000D01*
X175323825Y-125221000D01*
X175358700Y-125224435D01*
X175393575Y-125221000D01*
X175393577Y-125221000D01*
X175497884Y-125210727D01*
X175631720Y-125170128D01*
X175755063Y-125104200D01*
X175863175Y-125015475D01*
X175885412Y-124988379D01*
X178913754Y-121960038D01*
X178954866Y-122010134D01*
X179180986Y-122195706D01*
X179235791Y-122225000D01*
X179180986Y-122254294D01*
X178954866Y-122439866D01*
X178769294Y-122665986D01*
X178631401Y-122923966D01*
X178546487Y-123203889D01*
X178517815Y-123495000D01*
X178546487Y-123786111D01*
X178631401Y-124066034D01*
X178769294Y-124324014D01*
X178954866Y-124550134D01*
X179180986Y-124735706D01*
X179235791Y-124765000D01*
X179180986Y-124794294D01*
X178954866Y-124979866D01*
X178769294Y-125205986D01*
X178631401Y-125463966D01*
X178546487Y-125743889D01*
X178517815Y-126035000D01*
X178546487Y-126326111D01*
X178631401Y-126606034D01*
X178769294Y-126864014D01*
X178954866Y-127090134D01*
X179180986Y-127275706D01*
X179438966Y-127413599D01*
X179718889Y-127498513D01*
X179937050Y-127520000D01*
X180082950Y-127520000D01*
X180301111Y-127498513D01*
X180581034Y-127413599D01*
X180839014Y-127275706D01*
X181065134Y-127090134D01*
X181250706Y-126864014D01*
X181281584Y-126806244D01*
X181452412Y-127035269D01*
X181668645Y-127230178D01*
X181918748Y-127379157D01*
X182193109Y-127476481D01*
X182423000Y-127355814D01*
X182423000Y-126162000D01*
X182677000Y-126162000D01*
X182677000Y-127355814D01*
X182906891Y-127476481D01*
X183181252Y-127379157D01*
X183431355Y-127230178D01*
X183647588Y-127035269D01*
X183821641Y-126801920D01*
X183946825Y-126539099D01*
X183991476Y-126391890D01*
X183870155Y-126162000D01*
X182677000Y-126162000D01*
X182423000Y-126162000D01*
X182403000Y-126162000D01*
X182403000Y-125908000D01*
X182423000Y-125908000D01*
X182423000Y-123622000D01*
X182677000Y-123622000D01*
X182677000Y-125908000D01*
X183870155Y-125908000D01*
X183991476Y-125678110D01*
X183946825Y-125530901D01*
X183821641Y-125268080D01*
X183647588Y-125034731D01*
X183431355Y-124839822D01*
X183305745Y-124765000D01*
X183431355Y-124690178D01*
X183647588Y-124495269D01*
X183821641Y-124261920D01*
X183946825Y-123999099D01*
X183991476Y-123851890D01*
X183870155Y-123622000D01*
X182677000Y-123622000D01*
X182423000Y-123622000D01*
X182403000Y-123622000D01*
X182403000Y-123368000D01*
X182423000Y-123368000D01*
X182423000Y-121082000D01*
X182677000Y-121082000D01*
X182677000Y-123368000D01*
X183870155Y-123368000D01*
X183991476Y-123138110D01*
X183946825Y-122990901D01*
X183821641Y-122728080D01*
X183647588Y-122494731D01*
X183431355Y-122299822D01*
X183305745Y-122225000D01*
X183431355Y-122150178D01*
X183647588Y-121955269D01*
X183821641Y-121721920D01*
X183946825Y-121459099D01*
X183991476Y-121311890D01*
X183870155Y-121082000D01*
X182677000Y-121082000D01*
X182423000Y-121082000D01*
X182403000Y-121082000D01*
X182403000Y-120828000D01*
X182423000Y-120828000D01*
X182423000Y-118542000D01*
X182677000Y-118542000D01*
X182677000Y-120828000D01*
X183870155Y-120828000D01*
X183991476Y-120598110D01*
X183946825Y-120450901D01*
X183821641Y-120188080D01*
X183647588Y-119954731D01*
X183431355Y-119759822D01*
X183305745Y-119685000D01*
X183431355Y-119610178D01*
X183647588Y-119415269D01*
X183821641Y-119181920D01*
X183946825Y-118919099D01*
X183991476Y-118771890D01*
X183870155Y-118542000D01*
X182677000Y-118542000D01*
X182423000Y-118542000D01*
X182403000Y-118542000D01*
X182403000Y-118288000D01*
X182423000Y-118288000D01*
X182423000Y-116002000D01*
X182677000Y-116002000D01*
X182677000Y-118288000D01*
X183870155Y-118288000D01*
X183991476Y-118058110D01*
X183946825Y-117910901D01*
X183821641Y-117648080D01*
X183647588Y-117414731D01*
X183431355Y-117219822D01*
X183305745Y-117145000D01*
X183431355Y-117070178D01*
X183647588Y-116875269D01*
X183821641Y-116641920D01*
X183946825Y-116379099D01*
X183991476Y-116231890D01*
X183870155Y-116002000D01*
X182677000Y-116002000D01*
X182423000Y-116002000D01*
X182403000Y-116002000D01*
X182403000Y-115748000D01*
X182423000Y-115748000D01*
X182423000Y-113462000D01*
X182677000Y-113462000D01*
X182677000Y-115748000D01*
X183870155Y-115748000D01*
X183991476Y-115518110D01*
X183946825Y-115370901D01*
X183821641Y-115108080D01*
X183647588Y-114874731D01*
X183431355Y-114679822D01*
X183305745Y-114605000D01*
X183431355Y-114530178D01*
X183647588Y-114335269D01*
X183821641Y-114101920D01*
X183946825Y-113839099D01*
X183991476Y-113691890D01*
X183870155Y-113462000D01*
X182677000Y-113462000D01*
X182423000Y-113462000D01*
X182403000Y-113462000D01*
X182403000Y-113208000D01*
X182423000Y-113208000D01*
X182423000Y-110922000D01*
X182677000Y-110922000D01*
X182677000Y-113208000D01*
X183870155Y-113208000D01*
X183991476Y-112978110D01*
X183946825Y-112830901D01*
X183821641Y-112568080D01*
X183647588Y-112334731D01*
X183431355Y-112139822D01*
X183305745Y-112065000D01*
X183431355Y-111990178D01*
X183647588Y-111795269D01*
X183821641Y-111561920D01*
X183946825Y-111299099D01*
X183991476Y-111151890D01*
X183870155Y-110922000D01*
X182677000Y-110922000D01*
X182423000Y-110922000D01*
X182403000Y-110922000D01*
X182403000Y-110668000D01*
X182423000Y-110668000D01*
X182423000Y-108382000D01*
X182677000Y-108382000D01*
X182677000Y-110668000D01*
X183870155Y-110668000D01*
X183991476Y-110438110D01*
X183946825Y-110290901D01*
X183821641Y-110028080D01*
X183647588Y-109794731D01*
X183431355Y-109599822D01*
X183305745Y-109525000D01*
X183431355Y-109450178D01*
X183647588Y-109255269D01*
X183821641Y-109021920D01*
X183946825Y-108759099D01*
X183991476Y-108611890D01*
X183870155Y-108382000D01*
X182677000Y-108382000D01*
X182423000Y-108382000D01*
X182403000Y-108382000D01*
X182403000Y-108128000D01*
X182423000Y-108128000D01*
X182423000Y-106934186D01*
X182677000Y-106934186D01*
X182677000Y-108128000D01*
X183870155Y-108128000D01*
X183991476Y-107898110D01*
X183946825Y-107750901D01*
X183821641Y-107488080D01*
X183647588Y-107254731D01*
X183431355Y-107059822D01*
X183181252Y-106910843D01*
X182906891Y-106813519D01*
X182677000Y-106934186D01*
X182423000Y-106934186D01*
X182193109Y-106813519D01*
X181918748Y-106910843D01*
X181668645Y-107059822D01*
X181472498Y-107236626D01*
X181449502Y-107160820D01*
X181390537Y-107050506D01*
X181311185Y-106953815D01*
X181214494Y-106874463D01*
X181104180Y-106815498D01*
X180984482Y-106779188D01*
X180860000Y-106766928D01*
X179160000Y-106766928D01*
X179035518Y-106779188D01*
X178915820Y-106815498D01*
X178805506Y-106874463D01*
X178708815Y-106953815D01*
X178629463Y-107050506D01*
X178570498Y-107160820D01*
X178534188Y-107280518D01*
X178521928Y-107405000D01*
X178521928Y-107659881D01*
X178518337Y-107661800D01*
X178410225Y-107750525D01*
X178387992Y-107777616D01*
X166496409Y-119669200D01*
X141622500Y-119669200D01*
X141642000Y-119571165D01*
X141642000Y-119396835D01*
X141607990Y-119225855D01*
X141541277Y-119064795D01*
X141467000Y-118953632D01*
X141467000Y-118326177D01*
X141470435Y-118291300D01*
X141456727Y-118152115D01*
X141416128Y-118018280D01*
X141350199Y-117894936D01*
X141261475Y-117786825D01*
X141234379Y-117764588D01*
X131857863Y-108388072D01*
X132445000Y-108388072D01*
X132569482Y-108375812D01*
X132689180Y-108339502D01*
X132719276Y-108323415D01*
X132674110Y-108432455D01*
X132640100Y-108603435D01*
X132640100Y-108777765D01*
X132674110Y-108948745D01*
X132740823Y-109109805D01*
X132837676Y-109254755D01*
X132960945Y-109378024D01*
X133105895Y-109474877D01*
X133266955Y-109541590D01*
X133437935Y-109575600D01*
X133612265Y-109575600D01*
X133783245Y-109541590D01*
X133944305Y-109474877D01*
X134089255Y-109378024D01*
X134212524Y-109254755D01*
X134309377Y-109109805D01*
X134376090Y-108948745D01*
X134410100Y-108777765D01*
X134410100Y-108603435D01*
X134407753Y-108591638D01*
X134477379Y-108522012D01*
X134504475Y-108499775D01*
X134593200Y-108391663D01*
X134604337Y-108370827D01*
X134578810Y-108432455D01*
X134544800Y-108603435D01*
X134544800Y-108777765D01*
X134578810Y-108948745D01*
X134645523Y-109109805D01*
X134742376Y-109254755D01*
X134865645Y-109378024D01*
X135010595Y-109474877D01*
X135171655Y-109541590D01*
X135342635Y-109575600D01*
X135516965Y-109575600D01*
X135687945Y-109541590D01*
X135849005Y-109474877D01*
X135993955Y-109378024D01*
X136117224Y-109254755D01*
X136214077Y-109109805D01*
X136280790Y-108948745D01*
X136314800Y-108777765D01*
X136314800Y-108684591D01*
X136477379Y-108522012D01*
X136504475Y-108499775D01*
X136593200Y-108391663D01*
X136607902Y-108364157D01*
X136689180Y-108339502D01*
X136799494Y-108280537D01*
X136896185Y-108201185D01*
X136975537Y-108104494D01*
X136983407Y-108089771D01*
X136948817Y-108203797D01*
X136862623Y-108332795D01*
X136795910Y-108493855D01*
X136761900Y-108664835D01*
X136761900Y-108839165D01*
X136795910Y-109010145D01*
X136862623Y-109171205D01*
X136959476Y-109316155D01*
X137082745Y-109439424D01*
X137227695Y-109536277D01*
X137388755Y-109602990D01*
X137559735Y-109637000D01*
X137734065Y-109637000D01*
X137905045Y-109602990D01*
X138066105Y-109536277D01*
X138211055Y-109439424D01*
X138334324Y-109316155D01*
X138431177Y-109171205D01*
X138497890Y-109010145D01*
X138531900Y-108839165D01*
X138531900Y-108664835D01*
X138499826Y-108503590D01*
X138504475Y-108499775D01*
X138593200Y-108391663D01*
X138607902Y-108364157D01*
X138689180Y-108339502D01*
X138799494Y-108280537D01*
X138896185Y-108201185D01*
X138975537Y-108104494D01*
X139000000Y-108058728D01*
X139024463Y-108104494D01*
X139103815Y-108201185D01*
X139200506Y-108280537D01*
X139286078Y-108326277D01*
X139281723Y-108332795D01*
X139215010Y-108493855D01*
X139181000Y-108664835D01*
X139181000Y-108839165D01*
X139215010Y-109010145D01*
X139281723Y-109171205D01*
X139378576Y-109316155D01*
X139501845Y-109439424D01*
X139646795Y-109536277D01*
X139807855Y-109602990D01*
X139978835Y-109637000D01*
X140153165Y-109637000D01*
X140324145Y-109602990D01*
X140485205Y-109536277D01*
X140630155Y-109439424D01*
X140753424Y-109316155D01*
X140850277Y-109171205D01*
X140916990Y-109010145D01*
X140951000Y-108839165D01*
X140951000Y-108664835D01*
X140916990Y-108493855D01*
X140850277Y-108332795D01*
X140809740Y-108272128D01*
X140896185Y-108201185D01*
X140975537Y-108104494D01*
X141000000Y-108058728D01*
X141024463Y-108104494D01*
X141103815Y-108201185D01*
X141200506Y-108280537D01*
X141310820Y-108339502D01*
X141430518Y-108375812D01*
X141555000Y-108388072D01*
X141693127Y-108388072D01*
X141649310Y-108493855D01*
X141615300Y-108664835D01*
X141615300Y-108839165D01*
X141649310Y-109010145D01*
X141716023Y-109171205D01*
X141812876Y-109316155D01*
X141936145Y-109439424D01*
X142081095Y-109536277D01*
X142242155Y-109602990D01*
X142413135Y-109637000D01*
X142587465Y-109637000D01*
X142758445Y-109602990D01*
X142919505Y-109536277D01*
X143064455Y-109439424D01*
X143187724Y-109316155D01*
X143284577Y-109171205D01*
X143351290Y-109010145D01*
X143377373Y-108879019D01*
X143551092Y-108705300D01*
X143965123Y-108705300D01*
X144000000Y-108708735D01*
X144034877Y-108705300D01*
X144139184Y-108695027D01*
X144228400Y-108667963D01*
X144228400Y-108839165D01*
X144262410Y-109010145D01*
X144329123Y-109171205D01*
X144425976Y-109316155D01*
X144549245Y-109439424D01*
X144694195Y-109536277D01*
X144855255Y-109602990D01*
X145026235Y-109637000D01*
X145200565Y-109637000D01*
X145371545Y-109602990D01*
X145532605Y-109536277D01*
X145677555Y-109439424D01*
X145800824Y-109316155D01*
X145897677Y-109171205D01*
X145964390Y-109010145D01*
X145990473Y-108879019D01*
X146189827Y-108679664D01*
X146273020Y-108654428D01*
X146396363Y-108588500D01*
X146504475Y-108499775D01*
X146593200Y-108391663D01*
X146607902Y-108364157D01*
X146689180Y-108339502D01*
X146799494Y-108280537D01*
X146896185Y-108201185D01*
X146975537Y-108104494D01*
X147000000Y-108058728D01*
X147024463Y-108104494D01*
X147103815Y-108201185D01*
X147200506Y-108280537D01*
X147310820Y-108339502D01*
X147430518Y-108375812D01*
X147555000Y-108388072D01*
X147714250Y-108385000D01*
X147873000Y-108226250D01*
X147873000Y-106377000D01*
X148127000Y-106377000D01*
X148127000Y-108226250D01*
X148285750Y-108385000D01*
X148445000Y-108388072D01*
X148569482Y-108375812D01*
X148689180Y-108339502D01*
X148799494Y-108280537D01*
X148896185Y-108201185D01*
X148975537Y-108104494D01*
X149034502Y-107994180D01*
X149070812Y-107874482D01*
X149083072Y-107750000D01*
X149080000Y-106535750D01*
X148921250Y-106377000D01*
X148127000Y-106377000D01*
X147873000Y-106377000D01*
X147853000Y-106377000D01*
X147853000Y-106123000D01*
X147873000Y-106123000D01*
X147873000Y-106103000D01*
X148127000Y-106103000D01*
X148127000Y-106123000D01*
X148921250Y-106123000D01*
X149080000Y-105964250D01*
X149083072Y-104750000D01*
X149070812Y-104625518D01*
X149034502Y-104505820D01*
X148975537Y-104395506D01*
X148896185Y-104298815D01*
X148799494Y-104219463D01*
X148689180Y-104160498D01*
X148569482Y-104124188D01*
X148445000Y-104111928D01*
X148285750Y-104115000D01*
X148224047Y-104176703D01*
X148235000Y-104121637D01*
X148235000Y-103878363D01*
X148224047Y-103823297D01*
X148285750Y-103885000D01*
X148445000Y-103888072D01*
X148569482Y-103875812D01*
X148689180Y-103839502D01*
X148799494Y-103780537D01*
X148896185Y-103701185D01*
X148975537Y-103604494D01*
X149034502Y-103494180D01*
X149070812Y-103374482D01*
X149083072Y-103250000D01*
X149080000Y-102035750D01*
X148921250Y-101877000D01*
X148127000Y-101877000D01*
X148127000Y-101897000D01*
X147873000Y-101897000D01*
X147873000Y-101877000D01*
X147853000Y-101877000D01*
X147853000Y-101623000D01*
X147873000Y-101623000D01*
X147873000Y-101603000D01*
X148127000Y-101603000D01*
X148127000Y-101623000D01*
X148921250Y-101623000D01*
X149080000Y-101464250D01*
X149081971Y-100685000D01*
X184314492Y-100685000D01*
X184314493Y-133605000D01*
X100685000Y-133605000D01*
X100685000Y-100685000D01*
X108918029Y-100685000D01*
X108920000Y-101464250D01*
G36*
X132507501Y-115437007D02*
G01*
X131960681Y-115983827D01*
X131829555Y-116009910D01*
X131668495Y-116076623D01*
X131523545Y-116173476D01*
X131400276Y-116296745D01*
X131303423Y-116441695D01*
X131236710Y-116602755D01*
X131202700Y-116773735D01*
X131202700Y-116948065D01*
X131236710Y-117119045D01*
X131303423Y-117280105D01*
X131400276Y-117425055D01*
X131486415Y-117511194D01*
X124996909Y-124000700D01*
X106366988Y-124000700D01*
X106476825Y-123770099D01*
X106521476Y-123622890D01*
X106400155Y-123393000D01*
X105207000Y-123393000D01*
X105207000Y-123413000D01*
X104953000Y-123413000D01*
X104953000Y-123393000D01*
X104933000Y-123393000D01*
X104933000Y-123139000D01*
X104953000Y-123139000D01*
X104953000Y-123119000D01*
X105207000Y-123119000D01*
X105207000Y-123139000D01*
X106400155Y-123139000D01*
X106521476Y-122909110D01*
X106512859Y-122880700D01*
X123437325Y-122880700D01*
X123472200Y-122884135D01*
X123507075Y-122880700D01*
X123507077Y-122880700D01*
X123611384Y-122870427D01*
X123745220Y-122829828D01*
X123868563Y-122763900D01*
X123976675Y-122675175D01*
X123998912Y-122648079D01*
X132507501Y-114139490D01*
X132507501Y-115437007D01*
X132507501Y-115437007D01*
G37*
X132507501Y-115437007D02*
X131960681Y-115983827D01*
X131829555Y-116009910D01*
X131668495Y-116076623D01*
X131523545Y-116173476D01*
X131400276Y-116296745D01*
X131303423Y-116441695D01*
X131236710Y-116602755D01*
X131202700Y-116773735D01*
X131202700Y-116948065D01*
X131236710Y-117119045D01*
X131303423Y-117280105D01*
X131400276Y-117425055D01*
X131486415Y-117511194D01*
X124996909Y-124000700D01*
X106366988Y-124000700D01*
X106476825Y-123770099D01*
X106521476Y-123622890D01*
X106400155Y-123393000D01*
X105207000Y-123393000D01*
X105207000Y-123413000D01*
X104953000Y-123413000D01*
X104953000Y-123393000D01*
X104933000Y-123393000D01*
X104933000Y-123139000D01*
X104953000Y-123139000D01*
X104953000Y-123119000D01*
X105207000Y-123119000D01*
X105207000Y-123139000D01*
X106400155Y-123139000D01*
X106521476Y-122909110D01*
X106512859Y-122880700D01*
X123437325Y-122880700D01*
X123472200Y-122884135D01*
X123507075Y-122880700D01*
X123507077Y-122880700D01*
X123611384Y-122870427D01*
X123745220Y-122829828D01*
X123868563Y-122763900D01*
X123976675Y-122675175D01*
X123998912Y-122648079D01*
X132507501Y-114139490D01*
X132507501Y-115437007D01*
G36*
X105207000Y-115519000D02*
G01*
X105227000Y-115519000D01*
X105227000Y-115773000D01*
X105207000Y-115773000D01*
X105207000Y-118059000D01*
X106400155Y-118059000D01*
X106521476Y-117829110D01*
X106476825Y-117681901D01*
X106351641Y-117419080D01*
X106177588Y-117185731D01*
X105961355Y-116990822D01*
X105835745Y-116916000D01*
X105961355Y-116841178D01*
X106177588Y-116646269D01*
X106351641Y-116412920D01*
X106476825Y-116150099D01*
X106521476Y-116002890D01*
X106400156Y-115773002D01*
X106565000Y-115773002D01*
X106565000Y-115769691D01*
X107305992Y-116510684D01*
X107328225Y-116537775D01*
X107436337Y-116626500D01*
X107559680Y-116692428D01*
X107693516Y-116733027D01*
X107797823Y-116743300D01*
X107797824Y-116743300D01*
X107832699Y-116746735D01*
X107867574Y-116743300D01*
X127895509Y-116743300D01*
X123178109Y-121460700D01*
X106366988Y-121460700D01*
X106476825Y-121230099D01*
X106521476Y-121082890D01*
X106400155Y-120853000D01*
X105207000Y-120853000D01*
X105207000Y-120873000D01*
X104953000Y-120873000D01*
X104953000Y-120853000D01*
X104933000Y-120853000D01*
X104933000Y-120599000D01*
X104953000Y-120599000D01*
X104953000Y-118313000D01*
X105207000Y-118313000D01*
X105207000Y-120599000D01*
X106400155Y-120599000D01*
X106521476Y-120369110D01*
X106476825Y-120221901D01*
X106351641Y-119959080D01*
X106177588Y-119725731D01*
X105961355Y-119530822D01*
X105835745Y-119456000D01*
X105961355Y-119381178D01*
X106177588Y-119186269D01*
X106351641Y-118952920D01*
X106476825Y-118690099D01*
X106521476Y-118542890D01*
X106400155Y-118313000D01*
X105207000Y-118313000D01*
X104953000Y-118313000D01*
X104933000Y-118313000D01*
X104933000Y-118059000D01*
X104953000Y-118059000D01*
X104953000Y-115773000D01*
X104933000Y-115773000D01*
X104933000Y-115519000D01*
X104953000Y-115519000D01*
X104953000Y-115499000D01*
X105207000Y-115499000D01*
X105207000Y-115519000D01*
X105207000Y-115519000D01*
G37*
X105207000Y-115519000D02*
X105227000Y-115519000D01*
X105227000Y-115773000D01*
X105207000Y-115773000D01*
X105207000Y-118059000D01*
X106400155Y-118059000D01*
X106521476Y-117829110D01*
X106476825Y-117681901D01*
X106351641Y-117419080D01*
X106177588Y-117185731D01*
X105961355Y-116990822D01*
X105835745Y-116916000D01*
X105961355Y-116841178D01*
X106177588Y-116646269D01*
X106351641Y-116412920D01*
X106476825Y-116150099D01*
X106521476Y-116002890D01*
X106400156Y-115773002D01*
X106565000Y-115773002D01*
X106565000Y-115769691D01*
X107305992Y-116510684D01*
X107328225Y-116537775D01*
X107436337Y-116626500D01*
X107559680Y-116692428D01*
X107693516Y-116733027D01*
X107797823Y-116743300D01*
X107797824Y-116743300D01*
X107832699Y-116746735D01*
X107867574Y-116743300D01*
X127895509Y-116743300D01*
X123178109Y-121460700D01*
X106366988Y-121460700D01*
X106476825Y-121230099D01*
X106521476Y-121082890D01*
X106400155Y-120853000D01*
X105207000Y-120853000D01*
X105207000Y-120873000D01*
X104953000Y-120873000D01*
X104953000Y-120853000D01*
X104933000Y-120853000D01*
X104933000Y-120599000D01*
X104953000Y-120599000D01*
X104953000Y-118313000D01*
X105207000Y-118313000D01*
X105207000Y-120599000D01*
X106400155Y-120599000D01*
X106521476Y-120369110D01*
X106476825Y-120221901D01*
X106351641Y-119959080D01*
X106177588Y-119725731D01*
X105961355Y-119530822D01*
X105835745Y-119456000D01*
X105961355Y-119381178D01*
X106177588Y-119186269D01*
X106351641Y-118952920D01*
X106476825Y-118690099D01*
X106521476Y-118542890D01*
X106400155Y-118313000D01*
X105207000Y-118313000D01*
X104953000Y-118313000D01*
X104933000Y-118313000D01*
X104933000Y-118059000D01*
X104953000Y-118059000D01*
X104953000Y-115773000D01*
X104933000Y-115773000D01*
X104933000Y-115519000D01*
X104953000Y-115519000D01*
X104953000Y-115499000D01*
X105207000Y-115499000D01*
X105207000Y-115519000D01*
G36*
X126010508Y-115323300D02*
G01*
X108126792Y-115323300D01*
X106527412Y-113723921D01*
X106505175Y-113696825D01*
X106455093Y-113655724D01*
X106476825Y-113610099D01*
X106521476Y-113462890D01*
X106400155Y-113233000D01*
X105207000Y-113233000D01*
X105207000Y-113253000D01*
X104953000Y-113253000D01*
X104953000Y-113233000D01*
X104933000Y-113233000D01*
X104933000Y-112979000D01*
X104953000Y-112979000D01*
X104953000Y-112959000D01*
X105207000Y-112959000D01*
X105207000Y-112979000D01*
X106400155Y-112979000D01*
X106521476Y-112749110D01*
X106476825Y-112601901D01*
X106366988Y-112371300D01*
X123058509Y-112371300D01*
X126010508Y-115323300D01*
X126010508Y-115323300D01*
G37*
X126010508Y-115323300D02*
X108126792Y-115323300D01*
X106527412Y-113723921D01*
X106505175Y-113696825D01*
X106455093Y-113655724D01*
X106476825Y-113610099D01*
X106521476Y-113462890D01*
X106400155Y-113233000D01*
X105207000Y-113233000D01*
X105207000Y-113253000D01*
X104953000Y-113253000D01*
X104953000Y-113233000D01*
X104933000Y-113233000D01*
X104933000Y-112979000D01*
X104953000Y-112979000D01*
X104953000Y-112959000D01*
X105207000Y-112959000D01*
X105207000Y-112979000D01*
X106400155Y-112979000D01*
X106521476Y-112749110D01*
X106476825Y-112601901D01*
X106366988Y-112371300D01*
X123058509Y-112371300D01*
X126010508Y-115323300D01*
G36*
X122469009Y-110951300D02*
G01*
X106512859Y-110951300D01*
X106521476Y-110922890D01*
X106400155Y-110693000D01*
X105207000Y-110693000D01*
X105207000Y-110713000D01*
X104953000Y-110713000D01*
X104953000Y-110693000D01*
X104933000Y-110693000D01*
X104933000Y-110439000D01*
X104953000Y-110439000D01*
X104953000Y-110419000D01*
X105207000Y-110419000D01*
X105207000Y-110439000D01*
X106400155Y-110439000D01*
X106521476Y-110209110D01*
X106476825Y-110061901D01*
X106450199Y-110006000D01*
X121523709Y-110006000D01*
X122469009Y-110951300D01*
X122469009Y-110951300D01*
G37*
X122469009Y-110951300D02*
X106512859Y-110951300D01*
X106521476Y-110922890D01*
X106400155Y-110693000D01*
X105207000Y-110693000D01*
X105207000Y-110713000D01*
X104953000Y-110713000D01*
X104953000Y-110693000D01*
X104933000Y-110693000D01*
X104933000Y-110439000D01*
X104953000Y-110439000D01*
X104953000Y-110419000D01*
X105207000Y-110419000D01*
X105207000Y-110439000D01*
X106400155Y-110439000D01*
X106521476Y-110209110D01*
X106476825Y-110061901D01*
X106450199Y-110006000D01*
X121523709Y-110006000D01*
X122469009Y-110951300D01*
M02*
