G04 #@! TF.GenerationSoftware,KiCad,Pcbnew,5.0.2-5.fc29*
G04 #@! TF.CreationDate,2019-03-04T17:53:56+05:30*
G04 #@! TF.ProjectId,sx1509,73783135-3039-42e6-9b69-6361645f7063,v0.1*
G04 #@! TF.SameCoordinates,Original*
G04 #@! TF.FileFunction,Soldermask,Bot*
G04 #@! TF.FilePolarity,Negative*
%FSLAX46Y46*%
G04 Gerber Fmt 4.6, Leading zero omitted, Abs format (unit mm)*
G04 Created by KiCad (PCBNEW 5.0.2-5.fc29) date Mon 04 Mar 2019 05:53:56 PM IST*
%MOMM*%
%LPD*%
G01*
G04 APERTURE LIST*
%ADD10C,0.100000*%
G04 APERTURE END LIST*
D10*
G36*
X143800000Y-141750000D02*
X143300000Y-141750000D01*
X143300000Y-139750000D01*
X143800000Y-139750000D01*
X143800000Y-141750000D01*
X143800000Y-141750000D01*
G37*
G36*
X121400000Y-141750000D02*
X120900000Y-141750000D01*
X120900000Y-139750000D01*
X121400000Y-139750000D01*
X121400000Y-141750000D01*
X121400000Y-141750000D01*
G37*
G36*
X131800000Y-141750000D02*
X131300000Y-141750000D01*
X131300000Y-139750000D01*
X131800000Y-139750000D01*
X131800000Y-141750000D01*
X131800000Y-141750000D01*
G37*
G36*
X132600000Y-141750000D02*
X132100000Y-141750000D01*
X132100000Y-139750000D01*
X132600000Y-139750000D01*
X132600000Y-141750000D01*
X132600000Y-141750000D01*
G37*
G36*
X131000000Y-141750000D02*
X130500000Y-141750000D01*
X130500000Y-139750000D01*
X131000000Y-139750000D01*
X131000000Y-141750000D01*
X131000000Y-141750000D01*
G37*
G36*
X130200000Y-141750000D02*
X129700000Y-141750000D01*
X129700000Y-139750000D01*
X130200000Y-139750000D01*
X130200000Y-141750000D01*
X130200000Y-141750000D01*
G37*
G36*
X129400000Y-141750000D02*
X128900000Y-141750000D01*
X128900000Y-139750000D01*
X129400000Y-139750000D01*
X129400000Y-141750000D01*
X129400000Y-141750000D01*
G37*
G36*
X128600000Y-141750000D02*
X128100000Y-141750000D01*
X128100000Y-139750000D01*
X128600000Y-139750000D01*
X128600000Y-141750000D01*
X128600000Y-141750000D01*
G37*
G36*
X127800000Y-141750000D02*
X127300000Y-141750000D01*
X127300000Y-139750000D01*
X127800000Y-139750000D01*
X127800000Y-141750000D01*
X127800000Y-141750000D01*
G37*
G36*
X127000000Y-141750000D02*
X126500000Y-141750000D01*
X126500000Y-139750000D01*
X127000000Y-139750000D01*
X127000000Y-141750000D01*
X127000000Y-141750000D01*
G37*
G36*
X126200000Y-141750000D02*
X125700000Y-141750000D01*
X125700000Y-139750000D01*
X126200000Y-139750000D01*
X126200000Y-141750000D01*
X126200000Y-141750000D01*
G37*
G36*
X125400000Y-141750000D02*
X124900000Y-141750000D01*
X124900000Y-139750000D01*
X125400000Y-139750000D01*
X125400000Y-141750000D01*
X125400000Y-141750000D01*
G37*
G36*
X124600000Y-141750000D02*
X124100000Y-141750000D01*
X124100000Y-139750000D01*
X124600000Y-139750000D01*
X124600000Y-141750000D01*
X124600000Y-141750000D01*
G37*
G36*
X123800000Y-141750000D02*
X123300000Y-141750000D01*
X123300000Y-139750000D01*
X123800000Y-139750000D01*
X123800000Y-141750000D01*
X123800000Y-141750000D01*
G37*
G36*
X123000000Y-141750000D02*
X122500000Y-141750000D01*
X122500000Y-139750000D01*
X123000000Y-139750000D01*
X123000000Y-141750000D01*
X123000000Y-141750000D01*
G37*
G36*
X122200000Y-141750000D02*
X121700000Y-141750000D01*
X121700000Y-139750000D01*
X122200000Y-139750000D01*
X122200000Y-141750000D01*
X122200000Y-141750000D01*
G37*
G36*
X135800000Y-141750000D02*
X135300000Y-141750000D01*
X135300000Y-139750000D01*
X135800000Y-139750000D01*
X135800000Y-141750000D01*
X135800000Y-141750000D01*
G37*
G36*
X139800000Y-141750000D02*
X139300000Y-141750000D01*
X139300000Y-139750000D01*
X139800000Y-139750000D01*
X139800000Y-141750000D01*
X139800000Y-141750000D01*
G37*
G36*
X138200000Y-141750000D02*
X137700000Y-141750000D01*
X137700000Y-139750000D01*
X138200000Y-139750000D01*
X138200000Y-141750000D01*
X138200000Y-141750000D01*
G37*
G36*
X136600000Y-141750000D02*
X136100000Y-141750000D01*
X136100000Y-139750000D01*
X136600000Y-139750000D01*
X136600000Y-141750000D01*
X136600000Y-141750000D01*
G37*
G36*
X134200000Y-141750000D02*
X133700000Y-141750000D01*
X133700000Y-139750000D01*
X134200000Y-139750000D01*
X134200000Y-141750000D01*
X134200000Y-141750000D01*
G37*
G36*
X141400000Y-141750000D02*
X140900000Y-141750000D01*
X140900000Y-139750000D01*
X141400000Y-139750000D01*
X141400000Y-141750000D01*
X141400000Y-141750000D01*
G37*
G36*
X137400000Y-141750000D02*
X136900000Y-141750000D01*
X136900000Y-139750000D01*
X137400000Y-139750000D01*
X137400000Y-141750000D01*
X137400000Y-141750000D01*
G37*
G36*
X142200000Y-141750000D02*
X141700000Y-141750000D01*
X141700000Y-139750000D01*
X142200000Y-139750000D01*
X142200000Y-141750000D01*
X142200000Y-141750000D01*
G37*
G36*
X135000000Y-141750000D02*
X134500000Y-141750000D01*
X134500000Y-139750000D01*
X135000000Y-139750000D01*
X135000000Y-141750000D01*
X135000000Y-141750000D01*
G37*
G36*
X133400000Y-141750000D02*
X132900000Y-141750000D01*
X132900000Y-139750000D01*
X133400000Y-139750000D01*
X133400000Y-141750000D01*
X133400000Y-141750000D01*
G37*
G36*
X143000000Y-141750000D02*
X142500000Y-141750000D01*
X142500000Y-139750000D01*
X143000000Y-139750000D01*
X143000000Y-141750000D01*
X143000000Y-141750000D01*
G37*
G36*
X139000000Y-141750000D02*
X138500000Y-141750000D01*
X138500000Y-139750000D01*
X139000000Y-139750000D01*
X139000000Y-141750000D01*
X139000000Y-141750000D01*
G37*
G36*
X140600000Y-141750000D02*
X140100000Y-141750000D01*
X140100000Y-139750000D01*
X140600000Y-139750000D01*
X140600000Y-141750000D01*
X140600000Y-141750000D01*
G37*
G36*
X144600000Y-141750000D02*
X144100000Y-141750000D01*
X144100000Y-139750000D01*
X144600000Y-139750000D01*
X144600000Y-141750000D01*
X144600000Y-141750000D01*
G37*
G36*
X147025012Y-137973057D02*
X147134207Y-138018287D01*
X147232481Y-138083952D01*
X147316048Y-138167519D01*
X147316050Y-138167522D01*
X147381713Y-138265793D01*
X147381714Y-138265795D01*
X147381977Y-138266189D01*
X147384712Y-138272791D01*
X147384713Y-138272793D01*
X147396817Y-138302015D01*
X147429943Y-138381988D01*
X147453000Y-138497904D01*
X147453000Y-138616096D01*
X147429943Y-138732012D01*
X147384713Y-138841207D01*
X147319048Y-138939481D01*
X147235481Y-139023048D01*
X147137207Y-139088713D01*
X147028012Y-139133943D01*
X146912096Y-139157000D01*
X146793904Y-139157000D01*
X146677988Y-139133943D01*
X146568793Y-139088713D01*
X146470519Y-139023048D01*
X146386952Y-138939481D01*
X146363562Y-138904475D01*
X146321287Y-138841207D01*
X146321286Y-138841205D01*
X146321023Y-138840811D01*
X146318288Y-138834209D01*
X146318287Y-138834207D01*
X146273058Y-138725014D01*
X146273057Y-138725012D01*
X146250000Y-138609096D01*
X146250000Y-138490904D01*
X146273057Y-138374988D01*
X146318287Y-138265793D01*
X146383952Y-138167519D01*
X146467519Y-138083952D01*
X146565793Y-138018287D01*
X146674988Y-137973057D01*
X146790904Y-137950000D01*
X146909096Y-137950000D01*
X147025012Y-137973057D01*
X147025012Y-137973057D01*
G37*
G36*
X118766676Y-138165372D02*
X118839468Y-138195523D01*
X118904989Y-138239303D01*
X118960697Y-138295011D01*
X118960699Y-138295014D01*
X118960700Y-138295015D01*
X119004475Y-138360529D01*
X119004476Y-138360531D01*
X119004741Y-138360928D01*
X119013464Y-138381988D01*
X119037628Y-138440324D01*
X119053000Y-138517603D01*
X119053000Y-138596397D01*
X119039020Y-138666676D01*
X119037628Y-138673676D01*
X119007477Y-138746468D01*
X118963697Y-138811989D01*
X118907989Y-138867697D01*
X118842468Y-138911477D01*
X118774867Y-138939478D01*
X118769676Y-138941628D01*
X118692397Y-138957000D01*
X118613603Y-138957000D01*
X118536324Y-138941628D01*
X118531133Y-138939478D01*
X118463532Y-138911477D01*
X118398011Y-138867697D01*
X118342303Y-138811989D01*
X118337623Y-138804985D01*
X118298525Y-138746471D01*
X118298524Y-138746468D01*
X118298259Y-138746072D01*
X118265372Y-138666676D01*
X118255311Y-138616095D01*
X118250000Y-138589397D01*
X118250000Y-138510603D01*
X118265372Y-138433324D01*
X118286637Y-138381986D01*
X118295523Y-138360532D01*
X118339303Y-138295011D01*
X118395011Y-138239303D01*
X118460532Y-138195523D01*
X118533324Y-138165372D01*
X118610603Y-138150000D01*
X118689397Y-138150000D01*
X118766676Y-138165372D01*
X118766676Y-138165372D01*
G37*
G36*
X181438953Y-133293233D02*
X181656301Y-133336466D01*
X181825910Y-133406720D01*
X182065774Y-133506075D01*
X182065775Y-133506076D01*
X182434292Y-133752311D01*
X182747689Y-134065708D01*
X182911846Y-134311386D01*
X182993925Y-134434226D01*
X183163534Y-134843700D01*
X183250000Y-135278393D01*
X183250000Y-135721607D01*
X183163534Y-136156300D01*
X182993925Y-136565774D01*
X182993924Y-136565775D01*
X182747689Y-136934292D01*
X182434292Y-137247689D01*
X182188614Y-137411846D01*
X182065774Y-137493925D01*
X181825910Y-137593280D01*
X181656301Y-137663534D01*
X181438953Y-137706767D01*
X181221607Y-137750000D01*
X180778393Y-137750000D01*
X180561047Y-137706767D01*
X180343699Y-137663534D01*
X180174090Y-137593280D01*
X179934226Y-137493925D01*
X179811386Y-137411846D01*
X179565708Y-137247689D01*
X179252311Y-136934292D01*
X179006076Y-136565775D01*
X179006075Y-136565774D01*
X178836466Y-136156300D01*
X178750000Y-135721607D01*
X178750000Y-135278393D01*
X178836466Y-134843700D01*
X179006075Y-134434226D01*
X179088154Y-134311386D01*
X179252311Y-134065708D01*
X179565708Y-133752311D01*
X179934225Y-133506076D01*
X179934226Y-133506075D01*
X180174090Y-133406720D01*
X180343699Y-133336466D01*
X180561047Y-133293233D01*
X180778393Y-133250000D01*
X181221607Y-133250000D01*
X181438953Y-133293233D01*
X181438953Y-133293233D01*
G37*
G36*
X104438953Y-133293233D02*
X104656301Y-133336466D01*
X104825910Y-133406720D01*
X105065774Y-133506075D01*
X105065775Y-133506076D01*
X105434292Y-133752311D01*
X105747689Y-134065708D01*
X105911846Y-134311386D01*
X105993925Y-134434226D01*
X106163534Y-134843700D01*
X106250000Y-135278393D01*
X106250000Y-135721607D01*
X106163534Y-136156300D01*
X105993925Y-136565774D01*
X105993924Y-136565775D01*
X105747689Y-136934292D01*
X105434292Y-137247689D01*
X105188614Y-137411846D01*
X105065774Y-137493925D01*
X104825910Y-137593280D01*
X104656301Y-137663534D01*
X104438953Y-137706767D01*
X104221607Y-137750000D01*
X103778393Y-137750000D01*
X103561047Y-137706767D01*
X103343699Y-137663534D01*
X103174090Y-137593280D01*
X102934226Y-137493925D01*
X102811386Y-137411846D01*
X102565708Y-137247689D01*
X102252311Y-136934292D01*
X102006076Y-136565775D01*
X102006075Y-136565774D01*
X101836466Y-136156300D01*
X101750000Y-135721607D01*
X101750000Y-135278393D01*
X101836466Y-134843700D01*
X102006075Y-134434226D01*
X102088154Y-134311386D01*
X102252311Y-134065708D01*
X102565708Y-133752311D01*
X102934225Y-133506076D01*
X102934226Y-133506075D01*
X103174090Y-133406720D01*
X103343699Y-133336466D01*
X103561047Y-133293233D01*
X103778393Y-133250000D01*
X104221607Y-133250000D01*
X104438953Y-133293233D01*
X104438953Y-133293233D01*
G37*
G36*
X139000000Y-137350000D02*
X138500000Y-137350000D01*
X138500000Y-135350000D01*
X139000000Y-135350000D01*
X139000000Y-137350000D01*
X139000000Y-137350000D01*
G37*
G36*
X135800000Y-137350000D02*
X135300000Y-137350000D01*
X135300000Y-135350000D01*
X135800000Y-135350000D01*
X135800000Y-137350000D01*
X135800000Y-137350000D01*
G37*
G36*
X141400000Y-137350000D02*
X140900000Y-137350000D01*
X140900000Y-135350000D01*
X141400000Y-135350000D01*
X141400000Y-137350000D01*
X141400000Y-137350000D01*
G37*
G36*
X139800000Y-137350000D02*
X139300000Y-137350000D01*
X139300000Y-135350000D01*
X139800000Y-135350000D01*
X139800000Y-137350000D01*
X139800000Y-137350000D01*
G37*
G36*
X136600000Y-137350000D02*
X136100000Y-137350000D01*
X136100000Y-135350000D01*
X136600000Y-135350000D01*
X136600000Y-137350000D01*
X136600000Y-137350000D01*
G37*
G36*
X137400000Y-137350000D02*
X136900000Y-137350000D01*
X136900000Y-135350000D01*
X137400000Y-135350000D01*
X137400000Y-137350000D01*
X137400000Y-137350000D01*
G37*
G36*
X143800000Y-137350000D02*
X143300000Y-137350000D01*
X143300000Y-135350000D01*
X143800000Y-135350000D01*
X143800000Y-137350000D01*
X143800000Y-137350000D01*
G37*
G36*
X138200000Y-137350000D02*
X137700000Y-137350000D01*
X137700000Y-135350000D01*
X138200000Y-135350000D01*
X138200000Y-137350000D01*
X138200000Y-137350000D01*
G37*
G36*
X142200000Y-137350000D02*
X141700000Y-137350000D01*
X141700000Y-135350000D01*
X142200000Y-135350000D01*
X142200000Y-137350000D01*
X142200000Y-137350000D01*
G37*
G36*
X144600000Y-137350000D02*
X144100000Y-137350000D01*
X144100000Y-135350000D01*
X144600000Y-135350000D01*
X144600000Y-137350000D01*
X144600000Y-137350000D01*
G37*
G36*
X126200000Y-137350000D02*
X125700000Y-137350000D01*
X125700000Y-135350000D01*
X126200000Y-135350000D01*
X126200000Y-137350000D01*
X126200000Y-137350000D01*
G37*
G36*
X140600000Y-137350000D02*
X140100000Y-137350000D01*
X140100000Y-135350000D01*
X140600000Y-135350000D01*
X140600000Y-137350000D01*
X140600000Y-137350000D01*
G37*
G36*
X143000000Y-137350000D02*
X142500000Y-137350000D01*
X142500000Y-135350000D01*
X143000000Y-135350000D01*
X143000000Y-137350000D01*
X143000000Y-137350000D01*
G37*
G36*
X127000000Y-137350000D02*
X126500000Y-137350000D01*
X126500000Y-135350000D01*
X127000000Y-135350000D01*
X127000000Y-137350000D01*
X127000000Y-137350000D01*
G37*
G36*
X135000000Y-137350000D02*
X134500000Y-137350000D01*
X134500000Y-135350000D01*
X135000000Y-135350000D01*
X135000000Y-137350000D01*
X135000000Y-137350000D01*
G37*
G36*
X133400000Y-137350000D02*
X132900000Y-137350000D01*
X132900000Y-135350000D01*
X133400000Y-135350000D01*
X133400000Y-137350000D01*
X133400000Y-137350000D01*
G37*
G36*
X122200000Y-137350000D02*
X121700000Y-137350000D01*
X121700000Y-135350000D01*
X122200000Y-135350000D01*
X122200000Y-137350000D01*
X122200000Y-137350000D01*
G37*
G36*
X125400000Y-137350000D02*
X124900000Y-137350000D01*
X124900000Y-135350000D01*
X125400000Y-135350000D01*
X125400000Y-137350000D01*
X125400000Y-137350000D01*
G37*
G36*
X127800000Y-137350000D02*
X127300000Y-137350000D01*
X127300000Y-135350000D01*
X127800000Y-135350000D01*
X127800000Y-137350000D01*
X127800000Y-137350000D01*
G37*
G36*
X124600000Y-137350000D02*
X124100000Y-137350000D01*
X124100000Y-135350000D01*
X124600000Y-135350000D01*
X124600000Y-137350000D01*
X124600000Y-137350000D01*
G37*
G36*
X128600000Y-137350000D02*
X128100000Y-137350000D01*
X128100000Y-135350000D01*
X128600000Y-135350000D01*
X128600000Y-137350000D01*
X128600000Y-137350000D01*
G37*
G36*
X129400000Y-137350000D02*
X128900000Y-137350000D01*
X128900000Y-135350000D01*
X129400000Y-135350000D01*
X129400000Y-137350000D01*
X129400000Y-137350000D01*
G37*
G36*
X123800000Y-137350000D02*
X123300000Y-137350000D01*
X123300000Y-135350000D01*
X123800000Y-135350000D01*
X123800000Y-137350000D01*
X123800000Y-137350000D01*
G37*
G36*
X130200000Y-137350000D02*
X129700000Y-137350000D01*
X129700000Y-135350000D01*
X130200000Y-135350000D01*
X130200000Y-137350000D01*
X130200000Y-137350000D01*
G37*
G36*
X123000000Y-137350000D02*
X122500000Y-137350000D01*
X122500000Y-135350000D01*
X123000000Y-135350000D01*
X123000000Y-137350000D01*
X123000000Y-137350000D01*
G37*
G36*
X131000000Y-137350000D02*
X130500000Y-137350000D01*
X130500000Y-135350000D01*
X131000000Y-135350000D01*
X131000000Y-137350000D01*
X131000000Y-137350000D01*
G37*
G36*
X121400000Y-137350000D02*
X120900000Y-137350000D01*
X120900000Y-135350000D01*
X121400000Y-135350000D01*
X121400000Y-137350000D01*
X121400000Y-137350000D01*
G37*
G36*
X131800000Y-137350000D02*
X131300000Y-137350000D01*
X131300000Y-135350000D01*
X131800000Y-135350000D01*
X131800000Y-137350000D01*
X131800000Y-137350000D01*
G37*
G36*
X132600000Y-137350000D02*
X132100000Y-137350000D01*
X132100000Y-135350000D01*
X132600000Y-135350000D01*
X132600000Y-137350000D01*
X132600000Y-137350000D01*
G37*
G36*
X134200000Y-137350000D02*
X133700000Y-137350000D01*
X133700000Y-135350000D01*
X134200000Y-135350000D01*
X134200000Y-137350000D01*
X134200000Y-137350000D01*
G37*
G36*
X182716630Y-130912299D02*
X182876855Y-130960903D01*
X183024520Y-131039831D01*
X183153949Y-131146051D01*
X183260169Y-131275480D01*
X183339097Y-131423145D01*
X183387701Y-131583370D01*
X183404112Y-131750000D01*
X183387701Y-131916630D01*
X183339097Y-132076855D01*
X183260169Y-132224520D01*
X183153949Y-132353949D01*
X183024520Y-132460169D01*
X182876855Y-132539097D01*
X182716630Y-132587701D01*
X182591752Y-132600000D01*
X182508248Y-132600000D01*
X182383370Y-132587701D01*
X182223145Y-132539097D01*
X182075480Y-132460169D01*
X181946051Y-132353949D01*
X181839831Y-132224520D01*
X181760903Y-132076855D01*
X181712299Y-131916630D01*
X181695888Y-131750000D01*
X181712299Y-131583370D01*
X181760903Y-131423145D01*
X181839831Y-131275480D01*
X181946051Y-131146051D01*
X182075480Y-131039831D01*
X182223145Y-130960903D01*
X182383370Y-130912299D01*
X182508248Y-130900000D01*
X182591752Y-130900000D01*
X182716630Y-130912299D01*
X182716630Y-130912299D01*
G37*
G36*
X103390000Y-132600000D02*
X101690000Y-132600000D01*
X101690000Y-130900000D01*
X103390000Y-130900000D01*
X103390000Y-132600000D01*
X103390000Y-132600000D01*
G37*
G36*
X183400000Y-130060000D02*
X181700000Y-130060000D01*
X181700000Y-128360000D01*
X183400000Y-128360000D01*
X183400000Y-130060000D01*
X183400000Y-130060000D01*
G37*
G36*
X102706630Y-128372299D02*
X102866855Y-128420903D01*
X103014520Y-128499831D01*
X103143949Y-128606051D01*
X103250169Y-128735480D01*
X103329097Y-128883145D01*
X103377701Y-129043370D01*
X103394112Y-129210000D01*
X103377701Y-129376630D01*
X103329097Y-129536855D01*
X103250169Y-129684520D01*
X103143949Y-129813949D01*
X103014520Y-129920169D01*
X102866855Y-129999097D01*
X102706630Y-130047701D01*
X102581752Y-130060000D01*
X102498248Y-130060000D01*
X102373370Y-130047701D01*
X102213145Y-129999097D01*
X102065480Y-129920169D01*
X101936051Y-129813949D01*
X101829831Y-129684520D01*
X101750903Y-129536855D01*
X101702299Y-129376630D01*
X101685888Y-129210000D01*
X101702299Y-129043370D01*
X101750903Y-128883145D01*
X101829831Y-128735480D01*
X101936051Y-128606051D01*
X102065480Y-128499831D01*
X102213145Y-128420903D01*
X102373370Y-128372299D01*
X102498248Y-128360000D01*
X102581752Y-128360000D01*
X102706630Y-128372299D01*
X102706630Y-128372299D01*
G37*
G36*
X180176630Y-125197299D02*
X180336855Y-125245903D01*
X180484520Y-125324831D01*
X180613949Y-125431051D01*
X180720169Y-125560480D01*
X180799097Y-125708145D01*
X180847701Y-125868370D01*
X180864112Y-126035000D01*
X180847701Y-126201630D01*
X180799097Y-126361855D01*
X180720169Y-126509520D01*
X180613949Y-126638949D01*
X180484520Y-126745169D01*
X180336855Y-126824097D01*
X180176630Y-126872701D01*
X180051752Y-126885000D01*
X179968248Y-126885000D01*
X179843370Y-126872701D01*
X179683145Y-126824097D01*
X179535480Y-126745169D01*
X179406051Y-126638949D01*
X179299831Y-126509520D01*
X179220903Y-126361855D01*
X179172299Y-126201630D01*
X179155888Y-126035000D01*
X179172299Y-125868370D01*
X179220903Y-125708145D01*
X179299831Y-125560480D01*
X179406051Y-125431051D01*
X179535480Y-125324831D01*
X179683145Y-125245903D01*
X179843370Y-125197299D01*
X179968248Y-125185000D01*
X180051752Y-125185000D01*
X180176630Y-125197299D01*
X180176630Y-125197299D01*
G37*
G36*
X182716630Y-125197299D02*
X182876855Y-125245903D01*
X183024520Y-125324831D01*
X183153949Y-125431051D01*
X183260169Y-125560480D01*
X183339097Y-125708145D01*
X183387701Y-125868370D01*
X183404112Y-126035000D01*
X183387701Y-126201630D01*
X183339097Y-126361855D01*
X183260169Y-126509520D01*
X183153949Y-126638949D01*
X183024520Y-126745169D01*
X182876855Y-126824097D01*
X182716630Y-126872701D01*
X182591752Y-126885000D01*
X182508248Y-126885000D01*
X182383370Y-126872701D01*
X182223145Y-126824097D01*
X182075480Y-126745169D01*
X181946051Y-126638949D01*
X181839831Y-126509520D01*
X181760903Y-126361855D01*
X181712299Y-126201630D01*
X181695888Y-126035000D01*
X181712299Y-125868370D01*
X181760903Y-125708145D01*
X181839831Y-125560480D01*
X181946051Y-125431051D01*
X182075480Y-125324831D01*
X182223145Y-125245903D01*
X182383370Y-125197299D01*
X182508248Y-125185000D01*
X182591752Y-125185000D01*
X182716630Y-125197299D01*
X182716630Y-125197299D01*
G37*
G36*
X105930000Y-126656000D02*
X104230000Y-126656000D01*
X104230000Y-124956000D01*
X105930000Y-124956000D01*
X105930000Y-126656000D01*
X105930000Y-126656000D01*
G37*
G36*
X102706630Y-124968299D02*
X102866855Y-125016903D01*
X103014520Y-125095831D01*
X103143949Y-125202051D01*
X103250169Y-125331480D01*
X103329097Y-125479145D01*
X103377701Y-125639370D01*
X103394112Y-125806000D01*
X103377701Y-125972630D01*
X103329097Y-126132855D01*
X103250169Y-126280520D01*
X103143949Y-126409949D01*
X103014520Y-126516169D01*
X102866855Y-126595097D01*
X102706630Y-126643701D01*
X102581752Y-126656000D01*
X102498248Y-126656000D01*
X102373370Y-126643701D01*
X102213145Y-126595097D01*
X102065480Y-126516169D01*
X101936051Y-126409949D01*
X101829831Y-126280520D01*
X101750903Y-126132855D01*
X101702299Y-125972630D01*
X101685888Y-125806000D01*
X101702299Y-125639370D01*
X101750903Y-125479145D01*
X101829831Y-125331480D01*
X101936051Y-125202051D01*
X102065480Y-125095831D01*
X102213145Y-125016903D01*
X102373370Y-124968299D01*
X102498248Y-124956000D01*
X102581752Y-124956000D01*
X102706630Y-124968299D01*
X102706630Y-124968299D01*
G37*
G36*
X182716630Y-122657299D02*
X182876855Y-122705903D01*
X183024520Y-122784831D01*
X183153949Y-122891051D01*
X183260169Y-123020480D01*
X183339097Y-123168145D01*
X183387701Y-123328370D01*
X183404112Y-123495000D01*
X183387701Y-123661630D01*
X183339097Y-123821855D01*
X183260169Y-123969520D01*
X183153949Y-124098949D01*
X183024520Y-124205169D01*
X182876855Y-124284097D01*
X182716630Y-124332701D01*
X182591752Y-124345000D01*
X182508248Y-124345000D01*
X182383370Y-124332701D01*
X182223145Y-124284097D01*
X182075480Y-124205169D01*
X181946051Y-124098949D01*
X181839831Y-123969520D01*
X181760903Y-123821855D01*
X181712299Y-123661630D01*
X181695888Y-123495000D01*
X181712299Y-123328370D01*
X181760903Y-123168145D01*
X181839831Y-123020480D01*
X181946051Y-122891051D01*
X182075480Y-122784831D01*
X182223145Y-122705903D01*
X182383370Y-122657299D01*
X182508248Y-122645000D01*
X182591752Y-122645000D01*
X182716630Y-122657299D01*
X182716630Y-122657299D01*
G37*
G36*
X180176630Y-122657299D02*
X180336855Y-122705903D01*
X180484520Y-122784831D01*
X180613949Y-122891051D01*
X180720169Y-123020480D01*
X180799097Y-123168145D01*
X180847701Y-123328370D01*
X180864112Y-123495000D01*
X180847701Y-123661630D01*
X180799097Y-123821855D01*
X180720169Y-123969520D01*
X180613949Y-124098949D01*
X180484520Y-124205169D01*
X180336855Y-124284097D01*
X180176630Y-124332701D01*
X180051752Y-124345000D01*
X179968248Y-124345000D01*
X179843370Y-124332701D01*
X179683145Y-124284097D01*
X179535480Y-124205169D01*
X179406051Y-124098949D01*
X179299831Y-123969520D01*
X179220903Y-123821855D01*
X179172299Y-123661630D01*
X179155888Y-123495000D01*
X179172299Y-123328370D01*
X179220903Y-123168145D01*
X179299831Y-123020480D01*
X179406051Y-122891051D01*
X179535480Y-122784831D01*
X179683145Y-122705903D01*
X179843370Y-122657299D01*
X179968248Y-122645000D01*
X180051752Y-122645000D01*
X180176630Y-122657299D01*
X180176630Y-122657299D01*
G37*
G36*
X102706630Y-122428299D02*
X102866855Y-122476903D01*
X103014520Y-122555831D01*
X103143949Y-122662051D01*
X103250169Y-122791480D01*
X103329097Y-122939145D01*
X103377701Y-123099370D01*
X103394112Y-123266000D01*
X103377701Y-123432630D01*
X103329097Y-123592855D01*
X103250169Y-123740520D01*
X103143949Y-123869949D01*
X103014520Y-123976169D01*
X102866855Y-124055097D01*
X102706630Y-124103701D01*
X102581752Y-124116000D01*
X102498248Y-124116000D01*
X102373370Y-124103701D01*
X102213145Y-124055097D01*
X102065480Y-123976169D01*
X101936051Y-123869949D01*
X101829831Y-123740520D01*
X101750903Y-123592855D01*
X101702299Y-123432630D01*
X101685888Y-123266000D01*
X101702299Y-123099370D01*
X101750903Y-122939145D01*
X101829831Y-122791480D01*
X101936051Y-122662051D01*
X102065480Y-122555831D01*
X102213145Y-122476903D01*
X102373370Y-122428299D01*
X102498248Y-122416000D01*
X102581752Y-122416000D01*
X102706630Y-122428299D01*
X102706630Y-122428299D01*
G37*
G36*
X105246630Y-122428299D02*
X105406855Y-122476903D01*
X105554520Y-122555831D01*
X105683949Y-122662051D01*
X105790169Y-122791480D01*
X105869097Y-122939145D01*
X105917701Y-123099370D01*
X105934112Y-123266000D01*
X105917701Y-123432630D01*
X105869097Y-123592855D01*
X105790169Y-123740520D01*
X105683949Y-123869949D01*
X105554520Y-123976169D01*
X105406855Y-124055097D01*
X105246630Y-124103701D01*
X105121752Y-124116000D01*
X105038248Y-124116000D01*
X104913370Y-124103701D01*
X104753145Y-124055097D01*
X104605480Y-123976169D01*
X104476051Y-123869949D01*
X104369831Y-123740520D01*
X104290903Y-123592855D01*
X104242299Y-123432630D01*
X104225888Y-123266000D01*
X104242299Y-123099370D01*
X104290903Y-122939145D01*
X104369831Y-122791480D01*
X104476051Y-122662051D01*
X104605480Y-122555831D01*
X104753145Y-122476903D01*
X104913370Y-122428299D01*
X105038248Y-122416000D01*
X105121752Y-122416000D01*
X105246630Y-122428299D01*
X105246630Y-122428299D01*
G37*
G36*
X180176630Y-120117299D02*
X180336855Y-120165903D01*
X180484520Y-120244831D01*
X180613949Y-120351051D01*
X180720169Y-120480480D01*
X180799097Y-120628145D01*
X180847701Y-120788370D01*
X180864112Y-120955000D01*
X180847701Y-121121630D01*
X180799097Y-121281855D01*
X180720169Y-121429520D01*
X180613949Y-121558949D01*
X180484520Y-121665169D01*
X180336855Y-121744097D01*
X180176630Y-121792701D01*
X180051752Y-121805000D01*
X179968248Y-121805000D01*
X179843370Y-121792701D01*
X179683145Y-121744097D01*
X179535480Y-121665169D01*
X179406051Y-121558949D01*
X179299831Y-121429520D01*
X179220903Y-121281855D01*
X179172299Y-121121630D01*
X179155888Y-120955000D01*
X179172299Y-120788370D01*
X179220903Y-120628145D01*
X179299831Y-120480480D01*
X179406051Y-120351051D01*
X179535480Y-120244831D01*
X179683145Y-120165903D01*
X179843370Y-120117299D01*
X179968248Y-120105000D01*
X180051752Y-120105000D01*
X180176630Y-120117299D01*
X180176630Y-120117299D01*
G37*
G36*
X182716630Y-120117299D02*
X182876855Y-120165903D01*
X183024520Y-120244831D01*
X183153949Y-120351051D01*
X183260169Y-120480480D01*
X183339097Y-120628145D01*
X183387701Y-120788370D01*
X183404112Y-120955000D01*
X183387701Y-121121630D01*
X183339097Y-121281855D01*
X183260169Y-121429520D01*
X183153949Y-121558949D01*
X183024520Y-121665169D01*
X182876855Y-121744097D01*
X182716630Y-121792701D01*
X182591752Y-121805000D01*
X182508248Y-121805000D01*
X182383370Y-121792701D01*
X182223145Y-121744097D01*
X182075480Y-121665169D01*
X181946051Y-121558949D01*
X181839831Y-121429520D01*
X181760903Y-121281855D01*
X181712299Y-121121630D01*
X181695888Y-120955000D01*
X181712299Y-120788370D01*
X181760903Y-120628145D01*
X181839831Y-120480480D01*
X181946051Y-120351051D01*
X182075480Y-120244831D01*
X182223145Y-120165903D01*
X182383370Y-120117299D01*
X182508248Y-120105000D01*
X182591752Y-120105000D01*
X182716630Y-120117299D01*
X182716630Y-120117299D01*
G37*
G36*
X102706630Y-119888299D02*
X102866855Y-119936903D01*
X103014520Y-120015831D01*
X103143949Y-120122051D01*
X103250169Y-120251480D01*
X103329097Y-120399145D01*
X103377701Y-120559370D01*
X103394112Y-120726000D01*
X103377701Y-120892630D01*
X103329097Y-121052855D01*
X103250169Y-121200520D01*
X103143949Y-121329949D01*
X103014520Y-121436169D01*
X102866855Y-121515097D01*
X102706630Y-121563701D01*
X102581752Y-121576000D01*
X102498248Y-121576000D01*
X102373370Y-121563701D01*
X102213145Y-121515097D01*
X102065480Y-121436169D01*
X101936051Y-121329949D01*
X101829831Y-121200520D01*
X101750903Y-121052855D01*
X101702299Y-120892630D01*
X101685888Y-120726000D01*
X101702299Y-120559370D01*
X101750903Y-120399145D01*
X101829831Y-120251480D01*
X101936051Y-120122051D01*
X102065480Y-120015831D01*
X102213145Y-119936903D01*
X102373370Y-119888299D01*
X102498248Y-119876000D01*
X102581752Y-119876000D01*
X102706630Y-119888299D01*
X102706630Y-119888299D01*
G37*
G36*
X105246630Y-119888299D02*
X105406855Y-119936903D01*
X105554520Y-120015831D01*
X105683949Y-120122051D01*
X105790169Y-120251480D01*
X105869097Y-120399145D01*
X105917701Y-120559370D01*
X105934112Y-120726000D01*
X105917701Y-120892630D01*
X105869097Y-121052855D01*
X105790169Y-121200520D01*
X105683949Y-121329949D01*
X105554520Y-121436169D01*
X105406855Y-121515097D01*
X105246630Y-121563701D01*
X105121752Y-121576000D01*
X105038248Y-121576000D01*
X104913370Y-121563701D01*
X104753145Y-121515097D01*
X104605480Y-121436169D01*
X104476051Y-121329949D01*
X104369831Y-121200520D01*
X104290903Y-121052855D01*
X104242299Y-120892630D01*
X104225888Y-120726000D01*
X104242299Y-120559370D01*
X104290903Y-120399145D01*
X104369831Y-120251480D01*
X104476051Y-120122051D01*
X104605480Y-120015831D01*
X104753145Y-119936903D01*
X104913370Y-119888299D01*
X105038248Y-119876000D01*
X105121752Y-119876000D01*
X105246630Y-119888299D01*
X105246630Y-119888299D01*
G37*
G36*
X182716630Y-117577299D02*
X182876855Y-117625903D01*
X183024520Y-117704831D01*
X183153949Y-117811051D01*
X183260169Y-117940480D01*
X183339097Y-118088145D01*
X183387701Y-118248370D01*
X183404112Y-118415000D01*
X183387701Y-118581630D01*
X183339097Y-118741855D01*
X183260169Y-118889520D01*
X183153949Y-119018949D01*
X183024520Y-119125169D01*
X182876855Y-119204097D01*
X182716630Y-119252701D01*
X182591752Y-119265000D01*
X182508248Y-119265000D01*
X182383370Y-119252701D01*
X182223145Y-119204097D01*
X182075480Y-119125169D01*
X181946051Y-119018949D01*
X181839831Y-118889520D01*
X181760903Y-118741855D01*
X181712299Y-118581630D01*
X181695888Y-118415000D01*
X181712299Y-118248370D01*
X181760903Y-118088145D01*
X181839831Y-117940480D01*
X181946051Y-117811051D01*
X182075480Y-117704831D01*
X182223145Y-117625903D01*
X182383370Y-117577299D01*
X182508248Y-117565000D01*
X182591752Y-117565000D01*
X182716630Y-117577299D01*
X182716630Y-117577299D01*
G37*
G36*
X180176630Y-117577299D02*
X180336855Y-117625903D01*
X180484520Y-117704831D01*
X180613949Y-117811051D01*
X180720169Y-117940480D01*
X180799097Y-118088145D01*
X180847701Y-118248370D01*
X180864112Y-118415000D01*
X180847701Y-118581630D01*
X180799097Y-118741855D01*
X180720169Y-118889520D01*
X180613949Y-119018949D01*
X180484520Y-119125169D01*
X180336855Y-119204097D01*
X180176630Y-119252701D01*
X180051752Y-119265000D01*
X179968248Y-119265000D01*
X179843370Y-119252701D01*
X179683145Y-119204097D01*
X179535480Y-119125169D01*
X179406051Y-119018949D01*
X179299831Y-118889520D01*
X179220903Y-118741855D01*
X179172299Y-118581630D01*
X179155888Y-118415000D01*
X179172299Y-118248370D01*
X179220903Y-118088145D01*
X179299831Y-117940480D01*
X179406051Y-117811051D01*
X179535480Y-117704831D01*
X179683145Y-117625903D01*
X179843370Y-117577299D01*
X179968248Y-117565000D01*
X180051752Y-117565000D01*
X180176630Y-117577299D01*
X180176630Y-117577299D01*
G37*
G36*
X102706630Y-117348299D02*
X102866855Y-117396903D01*
X103014520Y-117475831D01*
X103143949Y-117582051D01*
X103250169Y-117711480D01*
X103329097Y-117859145D01*
X103377701Y-118019370D01*
X103394112Y-118186000D01*
X103377701Y-118352630D01*
X103329097Y-118512855D01*
X103250169Y-118660520D01*
X103143949Y-118789949D01*
X103014520Y-118896169D01*
X102866855Y-118975097D01*
X102706630Y-119023701D01*
X102581752Y-119036000D01*
X102498248Y-119036000D01*
X102373370Y-119023701D01*
X102213145Y-118975097D01*
X102065480Y-118896169D01*
X101936051Y-118789949D01*
X101829831Y-118660520D01*
X101750903Y-118512855D01*
X101702299Y-118352630D01*
X101685888Y-118186000D01*
X101702299Y-118019370D01*
X101750903Y-117859145D01*
X101829831Y-117711480D01*
X101936051Y-117582051D01*
X102065480Y-117475831D01*
X102213145Y-117396903D01*
X102373370Y-117348299D01*
X102498248Y-117336000D01*
X102581752Y-117336000D01*
X102706630Y-117348299D01*
X102706630Y-117348299D01*
G37*
G36*
X105246630Y-117348299D02*
X105406855Y-117396903D01*
X105554520Y-117475831D01*
X105683949Y-117582051D01*
X105790169Y-117711480D01*
X105869097Y-117859145D01*
X105917701Y-118019370D01*
X105934112Y-118186000D01*
X105917701Y-118352630D01*
X105869097Y-118512855D01*
X105790169Y-118660520D01*
X105683949Y-118789949D01*
X105554520Y-118896169D01*
X105406855Y-118975097D01*
X105246630Y-119023701D01*
X105121752Y-119036000D01*
X105038248Y-119036000D01*
X104913370Y-119023701D01*
X104753145Y-118975097D01*
X104605480Y-118896169D01*
X104476051Y-118789949D01*
X104369831Y-118660520D01*
X104290903Y-118512855D01*
X104242299Y-118352630D01*
X104225888Y-118186000D01*
X104242299Y-118019370D01*
X104290903Y-117859145D01*
X104369831Y-117711480D01*
X104476051Y-117582051D01*
X104605480Y-117475831D01*
X104753145Y-117396903D01*
X104913370Y-117348299D01*
X105038248Y-117336000D01*
X105121752Y-117336000D01*
X105246630Y-117348299D01*
X105246630Y-117348299D01*
G37*
G36*
X182716630Y-115037299D02*
X182876855Y-115085903D01*
X183024520Y-115164831D01*
X183153949Y-115271051D01*
X183260169Y-115400480D01*
X183339097Y-115548145D01*
X183387701Y-115708370D01*
X183404112Y-115875000D01*
X183387701Y-116041630D01*
X183339097Y-116201855D01*
X183260169Y-116349520D01*
X183153949Y-116478949D01*
X183024520Y-116585169D01*
X182876855Y-116664097D01*
X182716630Y-116712701D01*
X182591752Y-116725000D01*
X182508248Y-116725000D01*
X182383370Y-116712701D01*
X182223145Y-116664097D01*
X182075480Y-116585169D01*
X181946051Y-116478949D01*
X181839831Y-116349520D01*
X181760903Y-116201855D01*
X181712299Y-116041630D01*
X181695888Y-115875000D01*
X181712299Y-115708370D01*
X181760903Y-115548145D01*
X181839831Y-115400480D01*
X181946051Y-115271051D01*
X182075480Y-115164831D01*
X182223145Y-115085903D01*
X182383370Y-115037299D01*
X182508248Y-115025000D01*
X182591752Y-115025000D01*
X182716630Y-115037299D01*
X182716630Y-115037299D01*
G37*
G36*
X180176630Y-115037299D02*
X180336855Y-115085903D01*
X180484520Y-115164831D01*
X180613949Y-115271051D01*
X180720169Y-115400480D01*
X180799097Y-115548145D01*
X180847701Y-115708370D01*
X180864112Y-115875000D01*
X180847701Y-116041630D01*
X180799097Y-116201855D01*
X180720169Y-116349520D01*
X180613949Y-116478949D01*
X180484520Y-116585169D01*
X180336855Y-116664097D01*
X180176630Y-116712701D01*
X180051752Y-116725000D01*
X179968248Y-116725000D01*
X179843370Y-116712701D01*
X179683145Y-116664097D01*
X179535480Y-116585169D01*
X179406051Y-116478949D01*
X179299831Y-116349520D01*
X179220903Y-116201855D01*
X179172299Y-116041630D01*
X179155888Y-115875000D01*
X179172299Y-115708370D01*
X179220903Y-115548145D01*
X179299831Y-115400480D01*
X179406051Y-115271051D01*
X179535480Y-115164831D01*
X179683145Y-115085903D01*
X179843370Y-115037299D01*
X179968248Y-115025000D01*
X180051752Y-115025000D01*
X180176630Y-115037299D01*
X180176630Y-115037299D01*
G37*
G36*
X102706630Y-114808299D02*
X102866855Y-114856903D01*
X103014520Y-114935831D01*
X103143949Y-115042051D01*
X103250169Y-115171480D01*
X103329097Y-115319145D01*
X103377701Y-115479370D01*
X103394112Y-115646000D01*
X103377701Y-115812630D01*
X103329097Y-115972855D01*
X103250169Y-116120520D01*
X103143949Y-116249949D01*
X103014520Y-116356169D01*
X102866855Y-116435097D01*
X102706630Y-116483701D01*
X102581752Y-116496000D01*
X102498248Y-116496000D01*
X102373370Y-116483701D01*
X102213145Y-116435097D01*
X102065480Y-116356169D01*
X101936051Y-116249949D01*
X101829831Y-116120520D01*
X101750903Y-115972855D01*
X101702299Y-115812630D01*
X101685888Y-115646000D01*
X101702299Y-115479370D01*
X101750903Y-115319145D01*
X101829831Y-115171480D01*
X101936051Y-115042051D01*
X102065480Y-114935831D01*
X102213145Y-114856903D01*
X102373370Y-114808299D01*
X102498248Y-114796000D01*
X102581752Y-114796000D01*
X102706630Y-114808299D01*
X102706630Y-114808299D01*
G37*
G36*
X105246630Y-114808299D02*
X105406855Y-114856903D01*
X105554520Y-114935831D01*
X105683949Y-115042051D01*
X105790169Y-115171480D01*
X105869097Y-115319145D01*
X105917701Y-115479370D01*
X105934112Y-115646000D01*
X105917701Y-115812630D01*
X105869097Y-115972855D01*
X105790169Y-116120520D01*
X105683949Y-116249949D01*
X105554520Y-116356169D01*
X105406855Y-116435097D01*
X105246630Y-116483701D01*
X105121752Y-116496000D01*
X105038248Y-116496000D01*
X104913370Y-116483701D01*
X104753145Y-116435097D01*
X104605480Y-116356169D01*
X104476051Y-116249949D01*
X104369831Y-116120520D01*
X104290903Y-115972855D01*
X104242299Y-115812630D01*
X104225888Y-115646000D01*
X104242299Y-115479370D01*
X104290903Y-115319145D01*
X104369831Y-115171480D01*
X104476051Y-115042051D01*
X104605480Y-114935831D01*
X104753145Y-114856903D01*
X104913370Y-114808299D01*
X105038248Y-114796000D01*
X105121752Y-114796000D01*
X105246630Y-114808299D01*
X105246630Y-114808299D01*
G37*
G36*
X180176630Y-112497299D02*
X180336855Y-112545903D01*
X180484520Y-112624831D01*
X180613949Y-112731051D01*
X180720169Y-112860480D01*
X180799097Y-113008145D01*
X180847701Y-113168370D01*
X180864112Y-113335000D01*
X180847701Y-113501630D01*
X180799097Y-113661855D01*
X180720169Y-113809520D01*
X180613949Y-113938949D01*
X180484520Y-114045169D01*
X180336855Y-114124097D01*
X180176630Y-114172701D01*
X180051752Y-114185000D01*
X179968248Y-114185000D01*
X179843370Y-114172701D01*
X179683145Y-114124097D01*
X179535480Y-114045169D01*
X179406051Y-113938949D01*
X179299831Y-113809520D01*
X179220903Y-113661855D01*
X179172299Y-113501630D01*
X179155888Y-113335000D01*
X179172299Y-113168370D01*
X179220903Y-113008145D01*
X179299831Y-112860480D01*
X179406051Y-112731051D01*
X179535480Y-112624831D01*
X179683145Y-112545903D01*
X179843370Y-112497299D01*
X179968248Y-112485000D01*
X180051752Y-112485000D01*
X180176630Y-112497299D01*
X180176630Y-112497299D01*
G37*
G36*
X182716630Y-112497299D02*
X182876855Y-112545903D01*
X183024520Y-112624831D01*
X183153949Y-112731051D01*
X183260169Y-112860480D01*
X183339097Y-113008145D01*
X183387701Y-113168370D01*
X183404112Y-113335000D01*
X183387701Y-113501630D01*
X183339097Y-113661855D01*
X183260169Y-113809520D01*
X183153949Y-113938949D01*
X183024520Y-114045169D01*
X182876855Y-114124097D01*
X182716630Y-114172701D01*
X182591752Y-114185000D01*
X182508248Y-114185000D01*
X182383370Y-114172701D01*
X182223145Y-114124097D01*
X182075480Y-114045169D01*
X181946051Y-113938949D01*
X181839831Y-113809520D01*
X181760903Y-113661855D01*
X181712299Y-113501630D01*
X181695888Y-113335000D01*
X181712299Y-113168370D01*
X181760903Y-113008145D01*
X181839831Y-112860480D01*
X181946051Y-112731051D01*
X182075480Y-112624831D01*
X182223145Y-112545903D01*
X182383370Y-112497299D01*
X182508248Y-112485000D01*
X182591752Y-112485000D01*
X182716630Y-112497299D01*
X182716630Y-112497299D01*
G37*
G36*
X105246630Y-112268299D02*
X105406855Y-112316903D01*
X105554520Y-112395831D01*
X105683949Y-112502051D01*
X105790169Y-112631480D01*
X105869097Y-112779145D01*
X105917701Y-112939370D01*
X105934112Y-113106000D01*
X105917701Y-113272630D01*
X105869097Y-113432855D01*
X105790169Y-113580520D01*
X105683949Y-113709949D01*
X105554520Y-113816169D01*
X105406855Y-113895097D01*
X105246630Y-113943701D01*
X105121752Y-113956000D01*
X105038248Y-113956000D01*
X104913370Y-113943701D01*
X104753145Y-113895097D01*
X104605480Y-113816169D01*
X104476051Y-113709949D01*
X104369831Y-113580520D01*
X104290903Y-113432855D01*
X104242299Y-113272630D01*
X104225888Y-113106000D01*
X104242299Y-112939370D01*
X104290903Y-112779145D01*
X104369831Y-112631480D01*
X104476051Y-112502051D01*
X104605480Y-112395831D01*
X104753145Y-112316903D01*
X104913370Y-112268299D01*
X105038248Y-112256000D01*
X105121752Y-112256000D01*
X105246630Y-112268299D01*
X105246630Y-112268299D01*
G37*
G36*
X102706630Y-112268299D02*
X102866855Y-112316903D01*
X103014520Y-112395831D01*
X103143949Y-112502051D01*
X103250169Y-112631480D01*
X103329097Y-112779145D01*
X103377701Y-112939370D01*
X103394112Y-113106000D01*
X103377701Y-113272630D01*
X103329097Y-113432855D01*
X103250169Y-113580520D01*
X103143949Y-113709949D01*
X103014520Y-113816169D01*
X102866855Y-113895097D01*
X102706630Y-113943701D01*
X102581752Y-113956000D01*
X102498248Y-113956000D01*
X102373370Y-113943701D01*
X102213145Y-113895097D01*
X102065480Y-113816169D01*
X101936051Y-113709949D01*
X101829831Y-113580520D01*
X101750903Y-113432855D01*
X101702299Y-113272630D01*
X101685888Y-113106000D01*
X101702299Y-112939370D01*
X101750903Y-112779145D01*
X101829831Y-112631480D01*
X101936051Y-112502051D01*
X102065480Y-112395831D01*
X102213145Y-112316903D01*
X102373370Y-112268299D01*
X102498248Y-112256000D01*
X102581752Y-112256000D01*
X102706630Y-112268299D01*
X102706630Y-112268299D01*
G37*
G36*
X180176630Y-109957299D02*
X180336855Y-110005903D01*
X180484520Y-110084831D01*
X180613949Y-110191051D01*
X180720169Y-110320480D01*
X180799097Y-110468145D01*
X180847701Y-110628370D01*
X180864112Y-110795000D01*
X180847701Y-110961630D01*
X180799097Y-111121855D01*
X180720169Y-111269520D01*
X180613949Y-111398949D01*
X180484520Y-111505169D01*
X180336855Y-111584097D01*
X180176630Y-111632701D01*
X180051752Y-111645000D01*
X179968248Y-111645000D01*
X179843370Y-111632701D01*
X179683145Y-111584097D01*
X179535480Y-111505169D01*
X179406051Y-111398949D01*
X179299831Y-111269520D01*
X179220903Y-111121855D01*
X179172299Y-110961630D01*
X179155888Y-110795000D01*
X179172299Y-110628370D01*
X179220903Y-110468145D01*
X179299831Y-110320480D01*
X179406051Y-110191051D01*
X179535480Y-110084831D01*
X179683145Y-110005903D01*
X179843370Y-109957299D01*
X179968248Y-109945000D01*
X180051752Y-109945000D01*
X180176630Y-109957299D01*
X180176630Y-109957299D01*
G37*
G36*
X182716630Y-109957299D02*
X182876855Y-110005903D01*
X183024520Y-110084831D01*
X183153949Y-110191051D01*
X183260169Y-110320480D01*
X183339097Y-110468145D01*
X183387701Y-110628370D01*
X183404112Y-110795000D01*
X183387701Y-110961630D01*
X183339097Y-111121855D01*
X183260169Y-111269520D01*
X183153949Y-111398949D01*
X183024520Y-111505169D01*
X182876855Y-111584097D01*
X182716630Y-111632701D01*
X182591752Y-111645000D01*
X182508248Y-111645000D01*
X182383370Y-111632701D01*
X182223145Y-111584097D01*
X182075480Y-111505169D01*
X181946051Y-111398949D01*
X181839831Y-111269520D01*
X181760903Y-111121855D01*
X181712299Y-110961630D01*
X181695888Y-110795000D01*
X181712299Y-110628370D01*
X181760903Y-110468145D01*
X181839831Y-110320480D01*
X181946051Y-110191051D01*
X182075480Y-110084831D01*
X182223145Y-110005903D01*
X182383370Y-109957299D01*
X182508248Y-109945000D01*
X182591752Y-109945000D01*
X182716630Y-109957299D01*
X182716630Y-109957299D01*
G37*
G36*
X102706630Y-109728299D02*
X102866855Y-109776903D01*
X103014520Y-109855831D01*
X103143949Y-109962051D01*
X103250169Y-110091480D01*
X103329097Y-110239145D01*
X103377701Y-110399370D01*
X103394112Y-110566000D01*
X103377701Y-110732630D01*
X103329097Y-110892855D01*
X103250169Y-111040520D01*
X103143949Y-111169949D01*
X103014520Y-111276169D01*
X102866855Y-111355097D01*
X102706630Y-111403701D01*
X102581752Y-111416000D01*
X102498248Y-111416000D01*
X102373370Y-111403701D01*
X102213145Y-111355097D01*
X102065480Y-111276169D01*
X101936051Y-111169949D01*
X101829831Y-111040520D01*
X101750903Y-110892855D01*
X101702299Y-110732630D01*
X101685888Y-110566000D01*
X101702299Y-110399370D01*
X101750903Y-110239145D01*
X101829831Y-110091480D01*
X101936051Y-109962051D01*
X102065480Y-109855831D01*
X102213145Y-109776903D01*
X102373370Y-109728299D01*
X102498248Y-109716000D01*
X102581752Y-109716000D01*
X102706630Y-109728299D01*
X102706630Y-109728299D01*
G37*
G36*
X105246630Y-109728299D02*
X105406855Y-109776903D01*
X105554520Y-109855831D01*
X105683949Y-109962051D01*
X105790169Y-110091480D01*
X105869097Y-110239145D01*
X105917701Y-110399370D01*
X105934112Y-110566000D01*
X105917701Y-110732630D01*
X105869097Y-110892855D01*
X105790169Y-111040520D01*
X105683949Y-111169949D01*
X105554520Y-111276169D01*
X105406855Y-111355097D01*
X105246630Y-111403701D01*
X105121752Y-111416000D01*
X105038248Y-111416000D01*
X104913370Y-111403701D01*
X104753145Y-111355097D01*
X104605480Y-111276169D01*
X104476051Y-111169949D01*
X104369831Y-111040520D01*
X104290903Y-110892855D01*
X104242299Y-110732630D01*
X104225888Y-110566000D01*
X104242299Y-110399370D01*
X104290903Y-110239145D01*
X104369831Y-110091480D01*
X104476051Y-109962051D01*
X104605480Y-109855831D01*
X104753145Y-109776903D01*
X104913370Y-109728299D01*
X105038248Y-109716000D01*
X105121752Y-109716000D01*
X105246630Y-109728299D01*
X105246630Y-109728299D01*
G37*
G36*
X182716630Y-107417299D02*
X182876855Y-107465903D01*
X183024520Y-107544831D01*
X183153949Y-107651051D01*
X183260169Y-107780480D01*
X183339097Y-107928145D01*
X183387701Y-108088370D01*
X183404112Y-108255000D01*
X183387701Y-108421630D01*
X183339097Y-108581855D01*
X183260169Y-108729520D01*
X183153949Y-108858949D01*
X183024520Y-108965169D01*
X182876855Y-109044097D01*
X182716630Y-109092701D01*
X182591752Y-109105000D01*
X182508248Y-109105000D01*
X182383370Y-109092701D01*
X182223145Y-109044097D01*
X182075480Y-108965169D01*
X181946051Y-108858949D01*
X181839831Y-108729520D01*
X181760903Y-108581855D01*
X181712299Y-108421630D01*
X181695888Y-108255000D01*
X181712299Y-108088370D01*
X181760903Y-107928145D01*
X181839831Y-107780480D01*
X181946051Y-107651051D01*
X182075480Y-107544831D01*
X182223145Y-107465903D01*
X182383370Y-107417299D01*
X182508248Y-107405000D01*
X182591752Y-107405000D01*
X182716630Y-107417299D01*
X182716630Y-107417299D01*
G37*
G36*
X180860000Y-109105000D02*
X179160000Y-109105000D01*
X179160000Y-107405000D01*
X180860000Y-107405000D01*
X180860000Y-109105000D01*
X180860000Y-109105000D01*
G37*
G36*
X105246630Y-107188299D02*
X105406855Y-107236903D01*
X105554520Y-107315831D01*
X105683949Y-107422051D01*
X105790169Y-107551480D01*
X105869097Y-107699145D01*
X105917701Y-107859370D01*
X105934112Y-108026000D01*
X105917701Y-108192630D01*
X105869097Y-108352855D01*
X105790169Y-108500520D01*
X105683949Y-108629949D01*
X105554520Y-108736169D01*
X105406855Y-108815097D01*
X105246630Y-108863701D01*
X105121752Y-108876000D01*
X105038248Y-108876000D01*
X104913370Y-108863701D01*
X104753145Y-108815097D01*
X104605480Y-108736169D01*
X104476051Y-108629949D01*
X104369831Y-108500520D01*
X104290903Y-108352855D01*
X104242299Y-108192630D01*
X104225888Y-108026000D01*
X104242299Y-107859370D01*
X104290903Y-107699145D01*
X104369831Y-107551480D01*
X104476051Y-107422051D01*
X104605480Y-107315831D01*
X104753145Y-107236903D01*
X104913370Y-107188299D01*
X105038248Y-107176000D01*
X105121752Y-107176000D01*
X105246630Y-107188299D01*
X105246630Y-107188299D01*
G37*
G36*
X102706630Y-107188299D02*
X102866855Y-107236903D01*
X103014520Y-107315831D01*
X103143949Y-107422051D01*
X103250169Y-107551480D01*
X103329097Y-107699145D01*
X103377701Y-107859370D01*
X103394112Y-108026000D01*
X103377701Y-108192630D01*
X103329097Y-108352855D01*
X103250169Y-108500520D01*
X103143949Y-108629949D01*
X103014520Y-108736169D01*
X102866855Y-108815097D01*
X102706630Y-108863701D01*
X102581752Y-108876000D01*
X102498248Y-108876000D01*
X102373370Y-108863701D01*
X102213145Y-108815097D01*
X102065480Y-108736169D01*
X101936051Y-108629949D01*
X101829831Y-108500520D01*
X101750903Y-108352855D01*
X101702299Y-108192630D01*
X101685888Y-108026000D01*
X101702299Y-107859370D01*
X101750903Y-107699145D01*
X101829831Y-107551480D01*
X101936051Y-107422051D01*
X102065480Y-107315831D01*
X102213145Y-107236903D01*
X102373370Y-107188299D01*
X102498248Y-107176000D01*
X102581752Y-107176000D01*
X102706630Y-107188299D01*
X102706630Y-107188299D01*
G37*
G36*
X112445000Y-107750000D02*
X111555000Y-107750000D01*
X111555000Y-104750000D01*
X112445000Y-104750000D01*
X112445000Y-107750000D01*
X112445000Y-107750000D01*
G37*
G36*
X118445000Y-107750000D02*
X117555000Y-107750000D01*
X117555000Y-104750000D01*
X118445000Y-104750000D01*
X118445000Y-107750000D01*
X118445000Y-107750000D01*
G37*
G36*
X110445000Y-107750000D02*
X109555000Y-107750000D01*
X109555000Y-104750000D01*
X110445000Y-104750000D01*
X110445000Y-107750000D01*
X110445000Y-107750000D01*
G37*
G36*
X138445000Y-107750000D02*
X137555000Y-107750000D01*
X137555000Y-104750000D01*
X138445000Y-104750000D01*
X138445000Y-107750000D01*
X138445000Y-107750000D01*
G37*
G36*
X136445000Y-107750000D02*
X135555000Y-107750000D01*
X135555000Y-104750000D01*
X136445000Y-104750000D01*
X136445000Y-107750000D01*
X136445000Y-107750000D01*
G37*
G36*
X140445000Y-107750000D02*
X139555000Y-107750000D01*
X139555000Y-104750000D01*
X140445000Y-104750000D01*
X140445000Y-107750000D01*
X140445000Y-107750000D01*
G37*
G36*
X142445000Y-107750000D02*
X141555000Y-107750000D01*
X141555000Y-104750000D01*
X142445000Y-104750000D01*
X142445000Y-107750000D01*
X142445000Y-107750000D01*
G37*
G36*
X144445000Y-107750000D02*
X143555000Y-107750000D01*
X143555000Y-104750000D01*
X144445000Y-104750000D01*
X144445000Y-107750000D01*
X144445000Y-107750000D01*
G37*
G36*
X146445000Y-107750000D02*
X145555000Y-107750000D01*
X145555000Y-104750000D01*
X146445000Y-104750000D01*
X146445000Y-107750000D01*
X146445000Y-107750000D01*
G37*
G36*
X148445000Y-107750000D02*
X147555000Y-107750000D01*
X147555000Y-104750000D01*
X148445000Y-104750000D01*
X148445000Y-107750000D01*
X148445000Y-107750000D01*
G37*
G36*
X116445000Y-107750000D02*
X115555000Y-107750000D01*
X115555000Y-104750000D01*
X116445000Y-104750000D01*
X116445000Y-107750000D01*
X116445000Y-107750000D01*
G37*
G36*
X120445000Y-107750000D02*
X119555000Y-107750000D01*
X119555000Y-104750000D01*
X120445000Y-104750000D01*
X120445000Y-107750000D01*
X120445000Y-107750000D01*
G37*
G36*
X122445000Y-107750000D02*
X121555000Y-107750000D01*
X121555000Y-104750000D01*
X122445000Y-104750000D01*
X122445000Y-107750000D01*
X122445000Y-107750000D01*
G37*
G36*
X124445000Y-107750000D02*
X123555000Y-107750000D01*
X123555000Y-104750000D01*
X124445000Y-104750000D01*
X124445000Y-107750000D01*
X124445000Y-107750000D01*
G37*
G36*
X126445000Y-107750000D02*
X125555000Y-107750000D01*
X125555000Y-104750000D01*
X126445000Y-104750000D01*
X126445000Y-107750000D01*
X126445000Y-107750000D01*
G37*
G36*
X128445000Y-107750000D02*
X127555000Y-107750000D01*
X127555000Y-104750000D01*
X128445000Y-104750000D01*
X128445000Y-107750000D01*
X128445000Y-107750000D01*
G37*
G36*
X130445000Y-107750000D02*
X129555000Y-107750000D01*
X129555000Y-104750000D01*
X130445000Y-104750000D01*
X130445000Y-107750000D01*
X130445000Y-107750000D01*
G37*
G36*
X132445000Y-107750000D02*
X131555000Y-107750000D01*
X131555000Y-104750000D01*
X132445000Y-104750000D01*
X132445000Y-107750000D01*
X132445000Y-107750000D01*
G37*
G36*
X134445000Y-107750000D02*
X133555000Y-107750000D01*
X133555000Y-104750000D01*
X134445000Y-104750000D01*
X134445000Y-107750000D01*
X134445000Y-107750000D01*
G37*
G36*
X114445000Y-107750000D02*
X113555000Y-107750000D01*
X113555000Y-104750000D01*
X114445000Y-104750000D01*
X114445000Y-107750000D01*
X114445000Y-107750000D01*
G37*
G36*
X104438953Y-101793233D02*
X104656301Y-101836466D01*
X104825910Y-101906720D01*
X105065774Y-102006075D01*
X105065775Y-102006076D01*
X105434292Y-102252311D01*
X105747689Y-102565708D01*
X105911846Y-102811386D01*
X105993925Y-102934226D01*
X106093280Y-103174090D01*
X106163534Y-103343699D01*
X106250000Y-103778394D01*
X106250000Y-104221606D01*
X106163534Y-104656301D01*
X106093280Y-104825910D01*
X105993925Y-105065774D01*
X105993924Y-105065775D01*
X105747689Y-105434292D01*
X105434292Y-105747689D01*
X105188614Y-105911846D01*
X105065774Y-105993925D01*
X104825910Y-106093280D01*
X104656301Y-106163534D01*
X104438953Y-106206767D01*
X104221607Y-106250000D01*
X103778393Y-106250000D01*
X103561047Y-106206767D01*
X103343699Y-106163534D01*
X103174090Y-106093280D01*
X102934226Y-105993925D01*
X102811386Y-105911846D01*
X102565708Y-105747689D01*
X102252311Y-105434292D01*
X102006076Y-105065775D01*
X102006075Y-105065774D01*
X101906720Y-104825910D01*
X101836466Y-104656301D01*
X101750000Y-104221606D01*
X101750000Y-103778394D01*
X101836466Y-103343699D01*
X101906720Y-103174090D01*
X102006075Y-102934226D01*
X102088154Y-102811386D01*
X102252311Y-102565708D01*
X102565708Y-102252311D01*
X102934225Y-102006076D01*
X102934226Y-102006075D01*
X103174090Y-101906720D01*
X103343699Y-101836466D01*
X103561047Y-101793233D01*
X103778393Y-101750000D01*
X104221607Y-101750000D01*
X104438953Y-101793233D01*
X104438953Y-101793233D01*
G37*
G36*
X181438953Y-101793233D02*
X181656301Y-101836466D01*
X181825910Y-101906720D01*
X182065774Y-102006075D01*
X182065775Y-102006076D01*
X182434292Y-102252311D01*
X182747689Y-102565708D01*
X182911846Y-102811386D01*
X182993925Y-102934226D01*
X183093280Y-103174090D01*
X183163534Y-103343699D01*
X183250000Y-103778394D01*
X183250000Y-104221606D01*
X183163534Y-104656301D01*
X183093280Y-104825910D01*
X182993925Y-105065774D01*
X182993924Y-105065775D01*
X182747689Y-105434292D01*
X182434292Y-105747689D01*
X182188614Y-105911846D01*
X182065774Y-105993925D01*
X181825910Y-106093280D01*
X181656301Y-106163534D01*
X181438953Y-106206767D01*
X181221607Y-106250000D01*
X180778393Y-106250000D01*
X180561047Y-106206767D01*
X180343699Y-106163534D01*
X180174090Y-106093280D01*
X179934226Y-105993925D01*
X179811386Y-105911846D01*
X179565708Y-105747689D01*
X179252311Y-105434292D01*
X179006076Y-105065775D01*
X179006075Y-105065774D01*
X178906720Y-104825910D01*
X178836466Y-104656301D01*
X178750000Y-104221606D01*
X178750000Y-103778394D01*
X178836466Y-103343699D01*
X178906720Y-103174090D01*
X179006075Y-102934226D01*
X179088154Y-102811386D01*
X179252311Y-102565708D01*
X179565708Y-102252311D01*
X179934225Y-102006076D01*
X179934226Y-102006075D01*
X180174090Y-101906720D01*
X180343699Y-101836466D01*
X180561047Y-101793233D01*
X180778393Y-101750000D01*
X181221607Y-101750000D01*
X181438953Y-101793233D01*
X181438953Y-101793233D01*
G37*
G36*
X147175012Y-103423057D02*
X147284207Y-103468287D01*
X147382481Y-103533952D01*
X147466048Y-103617519D01*
X147531713Y-103715793D01*
X147576943Y-103824988D01*
X147600000Y-103940904D01*
X147600000Y-104059096D01*
X147576943Y-104175012D01*
X147531713Y-104284207D01*
X147466048Y-104382481D01*
X147382481Y-104466048D01*
X147284207Y-104531713D01*
X147175012Y-104576943D01*
X147059096Y-104600000D01*
X146940904Y-104600000D01*
X146824988Y-104576943D01*
X146715793Y-104531713D01*
X146617519Y-104466048D01*
X146533952Y-104382481D01*
X146468287Y-104284207D01*
X146423057Y-104175012D01*
X146400000Y-104059096D01*
X146400000Y-103940904D01*
X146423057Y-103824988D01*
X146468287Y-103715793D01*
X146533952Y-103617519D01*
X146617519Y-103533952D01*
X146715793Y-103468287D01*
X146824988Y-103423057D01*
X146940904Y-103400000D01*
X147059096Y-103400000D01*
X147175012Y-103423057D01*
X147175012Y-103423057D01*
G37*
G36*
X111175012Y-103423057D02*
X111284207Y-103468287D01*
X111382481Y-103533952D01*
X111466048Y-103617519D01*
X111531713Y-103715793D01*
X111576943Y-103824988D01*
X111600000Y-103940904D01*
X111600000Y-104059096D01*
X111576943Y-104175012D01*
X111531713Y-104284207D01*
X111466048Y-104382481D01*
X111382481Y-104466048D01*
X111284207Y-104531713D01*
X111175012Y-104576943D01*
X111059096Y-104600000D01*
X110940904Y-104600000D01*
X110824988Y-104576943D01*
X110715793Y-104531713D01*
X110617519Y-104466048D01*
X110533952Y-104382481D01*
X110468287Y-104284207D01*
X110423057Y-104175012D01*
X110400000Y-104059096D01*
X110400000Y-103940904D01*
X110423057Y-103824988D01*
X110468287Y-103715793D01*
X110533952Y-103617519D01*
X110617519Y-103533952D01*
X110715793Y-103468287D01*
X110824988Y-103423057D01*
X110940904Y-103400000D01*
X111059096Y-103400000D01*
X111175012Y-103423057D01*
X111175012Y-103423057D01*
G37*
G36*
X114445000Y-103250000D02*
X113555000Y-103250000D01*
X113555000Y-100250000D01*
X114445000Y-100250000D01*
X114445000Y-103250000D01*
X114445000Y-103250000D01*
G37*
G36*
X146445000Y-103250000D02*
X145555000Y-103250000D01*
X145555000Y-100250000D01*
X146445000Y-100250000D01*
X146445000Y-103250000D01*
X146445000Y-103250000D01*
G37*
G36*
X144445000Y-103250000D02*
X143555000Y-103250000D01*
X143555000Y-100250000D01*
X144445000Y-100250000D01*
X144445000Y-103250000D01*
X144445000Y-103250000D01*
G37*
G36*
X142445000Y-103250000D02*
X141555000Y-103250000D01*
X141555000Y-100250000D01*
X142445000Y-100250000D01*
X142445000Y-103250000D01*
X142445000Y-103250000D01*
G37*
G36*
X140445000Y-103250000D02*
X139555000Y-103250000D01*
X139555000Y-100250000D01*
X140445000Y-100250000D01*
X140445000Y-103250000D01*
X140445000Y-103250000D01*
G37*
G36*
X138445000Y-103250000D02*
X137555000Y-103250000D01*
X137555000Y-100250000D01*
X138445000Y-100250000D01*
X138445000Y-103250000D01*
X138445000Y-103250000D01*
G37*
G36*
X136445000Y-103250000D02*
X135555000Y-103250000D01*
X135555000Y-100250000D01*
X136445000Y-100250000D01*
X136445000Y-103250000D01*
X136445000Y-103250000D01*
G37*
G36*
X134445000Y-103250000D02*
X133555000Y-103250000D01*
X133555000Y-100250000D01*
X134445000Y-100250000D01*
X134445000Y-103250000D01*
X134445000Y-103250000D01*
G37*
G36*
X132445000Y-103250000D02*
X131555000Y-103250000D01*
X131555000Y-100250000D01*
X132445000Y-100250000D01*
X132445000Y-103250000D01*
X132445000Y-103250000D01*
G37*
G36*
X130445000Y-103250000D02*
X129555000Y-103250000D01*
X129555000Y-100250000D01*
X130445000Y-100250000D01*
X130445000Y-103250000D01*
X130445000Y-103250000D01*
G37*
G36*
X128445000Y-103250000D02*
X127555000Y-103250000D01*
X127555000Y-100250000D01*
X128445000Y-100250000D01*
X128445000Y-103250000D01*
X128445000Y-103250000D01*
G37*
G36*
X126445000Y-103250000D02*
X125555000Y-103250000D01*
X125555000Y-100250000D01*
X126445000Y-100250000D01*
X126445000Y-103250000D01*
X126445000Y-103250000D01*
G37*
G36*
X124445000Y-103250000D02*
X123555000Y-103250000D01*
X123555000Y-100250000D01*
X124445000Y-100250000D01*
X124445000Y-103250000D01*
X124445000Y-103250000D01*
G37*
G36*
X122445000Y-103250000D02*
X121555000Y-103250000D01*
X121555000Y-100250000D01*
X122445000Y-100250000D01*
X122445000Y-103250000D01*
X122445000Y-103250000D01*
G37*
G36*
X120445000Y-103250000D02*
X119555000Y-103250000D01*
X119555000Y-100250000D01*
X120445000Y-100250000D01*
X120445000Y-103250000D01*
X120445000Y-103250000D01*
G37*
G36*
X118445000Y-103250000D02*
X117555000Y-103250000D01*
X117555000Y-100250000D01*
X118445000Y-100250000D01*
X118445000Y-103250000D01*
X118445000Y-103250000D01*
G37*
G36*
X116445000Y-103250000D02*
X115555000Y-103250000D01*
X115555000Y-100250000D01*
X116445000Y-100250000D01*
X116445000Y-103250000D01*
X116445000Y-103250000D01*
G37*
G36*
X110445000Y-103250000D02*
X109555000Y-103250000D01*
X109555000Y-100250000D01*
X110445000Y-100250000D01*
X110445000Y-103250000D01*
X110445000Y-103250000D01*
G37*
G36*
X148445000Y-103250000D02*
X147555000Y-103250000D01*
X147555000Y-100250000D01*
X148445000Y-100250000D01*
X148445000Y-103250000D01*
X148445000Y-103250000D01*
G37*
G36*
X112445000Y-103250000D02*
X111555000Y-103250000D01*
X111555000Y-100250000D01*
X112445000Y-100250000D01*
X112445000Y-103250000D01*
X112445000Y-103250000D01*
G37*
M02*
