M48
; DRILL file {KiCad 5.1.2-1.fc30} date Wed 22 May 2019 10:24:58 AM IST
; FORMAT={-:-/ absolute / inch / decimal}
; #@! TF.CreationDate,2019-05-22T10:24:58+05:30
; #@! TF.GenerationSoftware,Kicad,Pcbnew,5.1.2-1.fc30
; #@! TF.FileFunction,Plated,1,2,PTH
FMAT,2
INCH
T1C0.0118
T2C0.0394
%
G90
G05
T1
X4.3701Y-3.9837
X4.3701Y-4.1755
X4.4488Y-3.9837
X4.4675Y-4.2816
X4.5288Y-3.9837
X4.556Y-4.2711
X4.6519Y-4.2711
X4.6815Y-3.9837
X4.7477Y-4.2711
X4.7638Y-3.9837
X4.8425Y-3.9837
X4.8425Y-4.1755
X4.9209Y-4.2816
X4.9213Y-3.9837
X4.9632Y-4.2774
X5.0046Y-3.9837
X5.0046Y-4.1755
X5.0271Y-4.5341
X5.0352Y-4.0882
X5.0598Y-4.5485
X5.1136Y-4.5265
X5.1573Y-3.9837
X5.1573Y-4.1755
X5.2003Y-4.6008
X5.2059Y-4.4011
X5.2104Y-4.446
X5.2362Y-3.9837
X5.2362Y-4.1751
X5.2448Y-4.3882
X5.2488Y-4.7393
X5.2569Y-4.2792
X5.2612Y-4.7776
X5.2917Y-4.7832
X5.315Y-3.9837
X5.3299Y-5.0539
X5.3309Y-4.818
X5.3319Y-4.2792
X5.3685Y-4.5757
X5.369Y-4.8418
X5.3917Y-4.902
X5.3937Y-3.9837
X5.4192Y-4.2816
X5.4252Y-4.0931
X5.4741Y-4.6372
X5.4805Y-4.6722
X5.5144Y-4.0945
X5.5144Y-4.2816
X5.5416Y-4.7041
X5.5626Y-5.0749
X5.6102Y-4.2816
X5.6124Y-5.0493
X5.6299Y-3.9837
X5.6299Y-4.1755
X5.7087Y-3.9837
X5.7131Y-4.2816
T2
X4.037Y-5.087
X4.037Y-5.187
X7.187Y-5.087
X7.187Y-5.187
X4.037Y-4.253
X4.037Y-4.353
X4.037Y-4.453
X4.037Y-4.553
X4.037Y-4.653
X4.037Y-4.753
X4.037Y-4.853
X4.037Y-4.953
X4.137Y-4.253
X4.137Y-4.353
X4.137Y-4.453
X4.137Y-4.553
X4.137Y-4.653
X4.137Y-4.753
X4.137Y-4.853
X4.137Y-4.953
X7.087Y-4.262
X7.087Y-4.362
X7.087Y-4.462
X7.087Y-4.562
X7.087Y-4.662
X7.087Y-4.762
X7.087Y-4.862
X7.087Y-4.962
X7.187Y-4.262
X7.187Y-4.362
X7.187Y-4.462
X7.187Y-4.562
X7.187Y-4.662
X7.187Y-4.762
X7.187Y-4.862
X7.187Y-4.962
T0
M30
