G04 #@! TF.GenerationSoftware,KiCad,Pcbnew,5.0.2-5.fc29*
G04 #@! TF.CreationDate,2019-03-04T17:53:56+05:30*
G04 #@! TF.ProjectId,sx1509,73783135-3039-42e6-9b69-6361645f7063,v0.1*
G04 #@! TF.SameCoordinates,Original*
G04 #@! TF.FileFunction,Paste,Top*
G04 #@! TF.FilePolarity,Positive*
%FSLAX46Y46*%
G04 Gerber Fmt 4.6, Leading zero omitted, Abs format (unit mm)*
G04 Created by KiCad (PCBNEW 5.0.2-5.fc29) date Mon 04 Mar 2019 05:53:56 PM IST*
%MOMM*%
%LPD*%
G01*
G04 APERTURE LIST*
%ADD10R,0.890000X2.100000*%
%ADD11R,0.198120X0.848360*%
%ADD12R,0.848360X0.198120*%
%ADD13R,2.649220X2.649220*%
%ADD14C,0.100000*%
%ADD15C,0.318000*%
%ADD16R,0.500000X2.000000*%
%ADD17R,0.970000X1.270000*%
G04 APERTURE END LIST*
D10*
G04 #@! TO.C,P2*
X148000000Y-101350000D03*
X146000000Y-101350000D03*
X144000000Y-101350000D03*
X142000000Y-101350000D03*
X140000000Y-101350000D03*
X138000000Y-101350000D03*
X136000000Y-101350000D03*
X134000000Y-101350000D03*
X132000000Y-101350000D03*
X130000000Y-101350000D03*
X128000000Y-101350000D03*
X126000000Y-101350000D03*
X124000000Y-101350000D03*
X122000000Y-101350000D03*
X120000000Y-101350000D03*
X118000000Y-101350000D03*
X116000000Y-101350000D03*
X114000000Y-101350000D03*
X148000000Y-106650000D03*
X146000000Y-106650000D03*
X144000000Y-106650000D03*
X142000000Y-106650000D03*
X140000000Y-106650000D03*
X138000000Y-106650000D03*
X136000000Y-106650000D03*
X134000000Y-106650000D03*
X132000000Y-106650000D03*
X130000000Y-106650000D03*
X128000000Y-106650000D03*
X126000000Y-106650000D03*
X124000000Y-106650000D03*
X122000000Y-106650000D03*
X120000000Y-106650000D03*
X118000000Y-106650000D03*
X116000000Y-106650000D03*
X110000000Y-106650000D03*
X110000000Y-101350000D03*
X112000000Y-101350000D03*
X112000000Y-106650000D03*
X114000000Y-106650000D03*
G04 #@! TD*
D11*
G04 #@! TO.C,U1*
X137336880Y-117118420D03*
X136935560Y-117118420D03*
X136536780Y-117118420D03*
X136138000Y-117118420D03*
X135739220Y-117118420D03*
X135340440Y-117118420D03*
X134939120Y-117118420D03*
D12*
X134164420Y-117893120D03*
X134164420Y-118294440D03*
X134164420Y-118693220D03*
X134164420Y-119092000D03*
X134164420Y-119490780D03*
X134164420Y-119889560D03*
X134164420Y-120290880D03*
D11*
X134939120Y-121065580D03*
X135340440Y-121065580D03*
X135739220Y-121065580D03*
X136138000Y-121065580D03*
X136536780Y-121065580D03*
X136935560Y-121065580D03*
X137336880Y-121065580D03*
D12*
X138111580Y-120290880D03*
X138111580Y-119889560D03*
X138111580Y-119490780D03*
X138111580Y-119092000D03*
X138111580Y-118693220D03*
X138111580Y-118294440D03*
X138111580Y-117893120D03*
D13*
X136138000Y-119092000D03*
G04 #@! TD*
D14*
G04 #@! TO.C,C1*
G36*
X131492292Y-116330383D02*
X131500010Y-116331528D01*
X131507578Y-116333423D01*
X131514923Y-116336052D01*
X131521976Y-116339387D01*
X131528668Y-116343398D01*
X131534934Y-116348046D01*
X131540715Y-116353285D01*
X131545954Y-116359066D01*
X131550602Y-116365332D01*
X131554613Y-116372024D01*
X131557948Y-116379077D01*
X131560577Y-116386422D01*
X131562472Y-116393990D01*
X131563617Y-116401708D01*
X131564000Y-116409500D01*
X131564000Y-116610500D01*
X131563617Y-116618292D01*
X131562472Y-116626010D01*
X131560577Y-116633578D01*
X131557948Y-116640923D01*
X131554613Y-116647976D01*
X131550602Y-116654668D01*
X131545954Y-116660934D01*
X131540715Y-116666715D01*
X131534934Y-116671954D01*
X131528668Y-116676602D01*
X131521976Y-116680613D01*
X131514923Y-116683948D01*
X131507578Y-116686577D01*
X131500010Y-116688472D01*
X131492292Y-116689617D01*
X131484500Y-116690000D01*
X131325500Y-116690000D01*
X131317708Y-116689617D01*
X131309990Y-116688472D01*
X131302422Y-116686577D01*
X131295077Y-116683948D01*
X131288024Y-116680613D01*
X131281332Y-116676602D01*
X131275066Y-116671954D01*
X131269285Y-116666715D01*
X131264046Y-116660934D01*
X131259398Y-116654668D01*
X131255387Y-116647976D01*
X131252052Y-116640923D01*
X131249423Y-116633578D01*
X131247528Y-116626010D01*
X131246383Y-116618292D01*
X131246000Y-116610500D01*
X131246000Y-116409500D01*
X131246383Y-116401708D01*
X131247528Y-116393990D01*
X131249423Y-116386422D01*
X131252052Y-116379077D01*
X131255387Y-116372024D01*
X131259398Y-116365332D01*
X131264046Y-116359066D01*
X131269285Y-116353285D01*
X131275066Y-116348046D01*
X131281332Y-116343398D01*
X131288024Y-116339387D01*
X131295077Y-116336052D01*
X131302422Y-116333423D01*
X131309990Y-116331528D01*
X131317708Y-116330383D01*
X131325500Y-116330000D01*
X131484500Y-116330000D01*
X131492292Y-116330383D01*
X131492292Y-116330383D01*
G37*
D15*
X131405000Y-116510000D03*
D14*
G36*
X132182292Y-116330383D02*
X132190010Y-116331528D01*
X132197578Y-116333423D01*
X132204923Y-116336052D01*
X132211976Y-116339387D01*
X132218668Y-116343398D01*
X132224934Y-116348046D01*
X132230715Y-116353285D01*
X132235954Y-116359066D01*
X132240602Y-116365332D01*
X132244613Y-116372024D01*
X132247948Y-116379077D01*
X132250577Y-116386422D01*
X132252472Y-116393990D01*
X132253617Y-116401708D01*
X132254000Y-116409500D01*
X132254000Y-116610500D01*
X132253617Y-116618292D01*
X132252472Y-116626010D01*
X132250577Y-116633578D01*
X132247948Y-116640923D01*
X132244613Y-116647976D01*
X132240602Y-116654668D01*
X132235954Y-116660934D01*
X132230715Y-116666715D01*
X132224934Y-116671954D01*
X132218668Y-116676602D01*
X132211976Y-116680613D01*
X132204923Y-116683948D01*
X132197578Y-116686577D01*
X132190010Y-116688472D01*
X132182292Y-116689617D01*
X132174500Y-116690000D01*
X132015500Y-116690000D01*
X132007708Y-116689617D01*
X131999990Y-116688472D01*
X131992422Y-116686577D01*
X131985077Y-116683948D01*
X131978024Y-116680613D01*
X131971332Y-116676602D01*
X131965066Y-116671954D01*
X131959285Y-116666715D01*
X131954046Y-116660934D01*
X131949398Y-116654668D01*
X131945387Y-116647976D01*
X131942052Y-116640923D01*
X131939423Y-116633578D01*
X131937528Y-116626010D01*
X131936383Y-116618292D01*
X131936000Y-116610500D01*
X131936000Y-116409500D01*
X131936383Y-116401708D01*
X131937528Y-116393990D01*
X131939423Y-116386422D01*
X131942052Y-116379077D01*
X131945387Y-116372024D01*
X131949398Y-116365332D01*
X131954046Y-116359066D01*
X131959285Y-116353285D01*
X131965066Y-116348046D01*
X131971332Y-116343398D01*
X131978024Y-116339387D01*
X131985077Y-116336052D01*
X131992422Y-116333423D01*
X131999990Y-116331528D01*
X132007708Y-116330383D01*
X132015500Y-116330000D01*
X132174500Y-116330000D01*
X132182292Y-116330383D01*
X132182292Y-116330383D01*
G37*
D15*
X132095000Y-116510000D03*
G04 #@! TD*
D14*
G04 #@! TO.C,C2*
G36*
X143292292Y-122680383D02*
X143300010Y-122681528D01*
X143307578Y-122683423D01*
X143314923Y-122686052D01*
X143321976Y-122689387D01*
X143328668Y-122693398D01*
X143334934Y-122698046D01*
X143340715Y-122703285D01*
X143345954Y-122709066D01*
X143350602Y-122715332D01*
X143354613Y-122722024D01*
X143357948Y-122729077D01*
X143360577Y-122736422D01*
X143362472Y-122743990D01*
X143363617Y-122751708D01*
X143364000Y-122759500D01*
X143364000Y-122960500D01*
X143363617Y-122968292D01*
X143362472Y-122976010D01*
X143360577Y-122983578D01*
X143357948Y-122990923D01*
X143354613Y-122997976D01*
X143350602Y-123004668D01*
X143345954Y-123010934D01*
X143340715Y-123016715D01*
X143334934Y-123021954D01*
X143328668Y-123026602D01*
X143321976Y-123030613D01*
X143314923Y-123033948D01*
X143307578Y-123036577D01*
X143300010Y-123038472D01*
X143292292Y-123039617D01*
X143284500Y-123040000D01*
X143125500Y-123040000D01*
X143117708Y-123039617D01*
X143109990Y-123038472D01*
X143102422Y-123036577D01*
X143095077Y-123033948D01*
X143088024Y-123030613D01*
X143081332Y-123026602D01*
X143075066Y-123021954D01*
X143069285Y-123016715D01*
X143064046Y-123010934D01*
X143059398Y-123004668D01*
X143055387Y-122997976D01*
X143052052Y-122990923D01*
X143049423Y-122983578D01*
X143047528Y-122976010D01*
X143046383Y-122968292D01*
X143046000Y-122960500D01*
X143046000Y-122759500D01*
X143046383Y-122751708D01*
X143047528Y-122743990D01*
X143049423Y-122736422D01*
X143052052Y-122729077D01*
X143055387Y-122722024D01*
X143059398Y-122715332D01*
X143064046Y-122709066D01*
X143069285Y-122703285D01*
X143075066Y-122698046D01*
X143081332Y-122693398D01*
X143088024Y-122689387D01*
X143095077Y-122686052D01*
X143102422Y-122683423D01*
X143109990Y-122681528D01*
X143117708Y-122680383D01*
X143125500Y-122680000D01*
X143284500Y-122680000D01*
X143292292Y-122680383D01*
X143292292Y-122680383D01*
G37*
D15*
X143205000Y-122860000D03*
D14*
G36*
X142602292Y-122680383D02*
X142610010Y-122681528D01*
X142617578Y-122683423D01*
X142624923Y-122686052D01*
X142631976Y-122689387D01*
X142638668Y-122693398D01*
X142644934Y-122698046D01*
X142650715Y-122703285D01*
X142655954Y-122709066D01*
X142660602Y-122715332D01*
X142664613Y-122722024D01*
X142667948Y-122729077D01*
X142670577Y-122736422D01*
X142672472Y-122743990D01*
X142673617Y-122751708D01*
X142674000Y-122759500D01*
X142674000Y-122960500D01*
X142673617Y-122968292D01*
X142672472Y-122976010D01*
X142670577Y-122983578D01*
X142667948Y-122990923D01*
X142664613Y-122997976D01*
X142660602Y-123004668D01*
X142655954Y-123010934D01*
X142650715Y-123016715D01*
X142644934Y-123021954D01*
X142638668Y-123026602D01*
X142631976Y-123030613D01*
X142624923Y-123033948D01*
X142617578Y-123036577D01*
X142610010Y-123038472D01*
X142602292Y-123039617D01*
X142594500Y-123040000D01*
X142435500Y-123040000D01*
X142427708Y-123039617D01*
X142419990Y-123038472D01*
X142412422Y-123036577D01*
X142405077Y-123033948D01*
X142398024Y-123030613D01*
X142391332Y-123026602D01*
X142385066Y-123021954D01*
X142379285Y-123016715D01*
X142374046Y-123010934D01*
X142369398Y-123004668D01*
X142365387Y-122997976D01*
X142362052Y-122990923D01*
X142359423Y-122983578D01*
X142357528Y-122976010D01*
X142356383Y-122968292D01*
X142356000Y-122960500D01*
X142356000Y-122759500D01*
X142356383Y-122751708D01*
X142357528Y-122743990D01*
X142359423Y-122736422D01*
X142362052Y-122729077D01*
X142365387Y-122722024D01*
X142369398Y-122715332D01*
X142374046Y-122709066D01*
X142379285Y-122703285D01*
X142385066Y-122698046D01*
X142391332Y-122693398D01*
X142398024Y-122689387D01*
X142405077Y-122686052D01*
X142412422Y-122683423D01*
X142419990Y-122681528D01*
X142427708Y-122680383D01*
X142435500Y-122680000D01*
X142594500Y-122680000D01*
X142602292Y-122680383D01*
X142602292Y-122680383D01*
G37*
D15*
X142515000Y-122860000D03*
G04 #@! TD*
D14*
G04 #@! TO.C,C3*
G36*
X140667292Y-122680383D02*
X140675010Y-122681528D01*
X140682578Y-122683423D01*
X140689923Y-122686052D01*
X140696976Y-122689387D01*
X140703668Y-122693398D01*
X140709934Y-122698046D01*
X140715715Y-122703285D01*
X140720954Y-122709066D01*
X140725602Y-122715332D01*
X140729613Y-122722024D01*
X140732948Y-122729077D01*
X140735577Y-122736422D01*
X140737472Y-122743990D01*
X140738617Y-122751708D01*
X140739000Y-122759500D01*
X140739000Y-122960500D01*
X140738617Y-122968292D01*
X140737472Y-122976010D01*
X140735577Y-122983578D01*
X140732948Y-122990923D01*
X140729613Y-122997976D01*
X140725602Y-123004668D01*
X140720954Y-123010934D01*
X140715715Y-123016715D01*
X140709934Y-123021954D01*
X140703668Y-123026602D01*
X140696976Y-123030613D01*
X140689923Y-123033948D01*
X140682578Y-123036577D01*
X140675010Y-123038472D01*
X140667292Y-123039617D01*
X140659500Y-123040000D01*
X140500500Y-123040000D01*
X140492708Y-123039617D01*
X140484990Y-123038472D01*
X140477422Y-123036577D01*
X140470077Y-123033948D01*
X140463024Y-123030613D01*
X140456332Y-123026602D01*
X140450066Y-123021954D01*
X140444285Y-123016715D01*
X140439046Y-123010934D01*
X140434398Y-123004668D01*
X140430387Y-122997976D01*
X140427052Y-122990923D01*
X140424423Y-122983578D01*
X140422528Y-122976010D01*
X140421383Y-122968292D01*
X140421000Y-122960500D01*
X140421000Y-122759500D01*
X140421383Y-122751708D01*
X140422528Y-122743990D01*
X140424423Y-122736422D01*
X140427052Y-122729077D01*
X140430387Y-122722024D01*
X140434398Y-122715332D01*
X140439046Y-122709066D01*
X140444285Y-122703285D01*
X140450066Y-122698046D01*
X140456332Y-122693398D01*
X140463024Y-122689387D01*
X140470077Y-122686052D01*
X140477422Y-122683423D01*
X140484990Y-122681528D01*
X140492708Y-122680383D01*
X140500500Y-122680000D01*
X140659500Y-122680000D01*
X140667292Y-122680383D01*
X140667292Y-122680383D01*
G37*
D15*
X140580000Y-122860000D03*
D14*
G36*
X141357292Y-122680383D02*
X141365010Y-122681528D01*
X141372578Y-122683423D01*
X141379923Y-122686052D01*
X141386976Y-122689387D01*
X141393668Y-122693398D01*
X141399934Y-122698046D01*
X141405715Y-122703285D01*
X141410954Y-122709066D01*
X141415602Y-122715332D01*
X141419613Y-122722024D01*
X141422948Y-122729077D01*
X141425577Y-122736422D01*
X141427472Y-122743990D01*
X141428617Y-122751708D01*
X141429000Y-122759500D01*
X141429000Y-122960500D01*
X141428617Y-122968292D01*
X141427472Y-122976010D01*
X141425577Y-122983578D01*
X141422948Y-122990923D01*
X141419613Y-122997976D01*
X141415602Y-123004668D01*
X141410954Y-123010934D01*
X141405715Y-123016715D01*
X141399934Y-123021954D01*
X141393668Y-123026602D01*
X141386976Y-123030613D01*
X141379923Y-123033948D01*
X141372578Y-123036577D01*
X141365010Y-123038472D01*
X141357292Y-123039617D01*
X141349500Y-123040000D01*
X141190500Y-123040000D01*
X141182708Y-123039617D01*
X141174990Y-123038472D01*
X141167422Y-123036577D01*
X141160077Y-123033948D01*
X141153024Y-123030613D01*
X141146332Y-123026602D01*
X141140066Y-123021954D01*
X141134285Y-123016715D01*
X141129046Y-123010934D01*
X141124398Y-123004668D01*
X141120387Y-122997976D01*
X141117052Y-122990923D01*
X141114423Y-122983578D01*
X141112528Y-122976010D01*
X141111383Y-122968292D01*
X141111000Y-122960500D01*
X141111000Y-122759500D01*
X141111383Y-122751708D01*
X141112528Y-122743990D01*
X141114423Y-122736422D01*
X141117052Y-122729077D01*
X141120387Y-122722024D01*
X141124398Y-122715332D01*
X141129046Y-122709066D01*
X141134285Y-122703285D01*
X141140066Y-122698046D01*
X141146332Y-122693398D01*
X141153024Y-122689387D01*
X141160077Y-122686052D01*
X141167422Y-122683423D01*
X141174990Y-122681528D01*
X141182708Y-122680383D01*
X141190500Y-122680000D01*
X141349500Y-122680000D01*
X141357292Y-122680383D01*
X141357292Y-122680383D01*
G37*
D15*
X141270000Y-122860000D03*
G04 #@! TD*
D14*
G04 #@! TO.C,R1*
G36*
X142577292Y-120140383D02*
X142585010Y-120141528D01*
X142592578Y-120143423D01*
X142599923Y-120146052D01*
X142606976Y-120149387D01*
X142613668Y-120153398D01*
X142619934Y-120158046D01*
X142625715Y-120163285D01*
X142630954Y-120169066D01*
X142635602Y-120175332D01*
X142639613Y-120182024D01*
X142642948Y-120189077D01*
X142645577Y-120196422D01*
X142647472Y-120203990D01*
X142648617Y-120211708D01*
X142649000Y-120219500D01*
X142649000Y-120420500D01*
X142648617Y-120428292D01*
X142647472Y-120436010D01*
X142645577Y-120443578D01*
X142642948Y-120450923D01*
X142639613Y-120457976D01*
X142635602Y-120464668D01*
X142630954Y-120470934D01*
X142625715Y-120476715D01*
X142619934Y-120481954D01*
X142613668Y-120486602D01*
X142606976Y-120490613D01*
X142599923Y-120493948D01*
X142592578Y-120496577D01*
X142585010Y-120498472D01*
X142577292Y-120499617D01*
X142569500Y-120500000D01*
X142410500Y-120500000D01*
X142402708Y-120499617D01*
X142394990Y-120498472D01*
X142387422Y-120496577D01*
X142380077Y-120493948D01*
X142373024Y-120490613D01*
X142366332Y-120486602D01*
X142360066Y-120481954D01*
X142354285Y-120476715D01*
X142349046Y-120470934D01*
X142344398Y-120464668D01*
X142340387Y-120457976D01*
X142337052Y-120450923D01*
X142334423Y-120443578D01*
X142332528Y-120436010D01*
X142331383Y-120428292D01*
X142331000Y-120420500D01*
X142331000Y-120219500D01*
X142331383Y-120211708D01*
X142332528Y-120203990D01*
X142334423Y-120196422D01*
X142337052Y-120189077D01*
X142340387Y-120182024D01*
X142344398Y-120175332D01*
X142349046Y-120169066D01*
X142354285Y-120163285D01*
X142360066Y-120158046D01*
X142366332Y-120153398D01*
X142373024Y-120149387D01*
X142380077Y-120146052D01*
X142387422Y-120143423D01*
X142394990Y-120141528D01*
X142402708Y-120140383D01*
X142410500Y-120140000D01*
X142569500Y-120140000D01*
X142577292Y-120140383D01*
X142577292Y-120140383D01*
G37*
D15*
X142490000Y-120320000D03*
D14*
G36*
X143267292Y-120140383D02*
X143275010Y-120141528D01*
X143282578Y-120143423D01*
X143289923Y-120146052D01*
X143296976Y-120149387D01*
X143303668Y-120153398D01*
X143309934Y-120158046D01*
X143315715Y-120163285D01*
X143320954Y-120169066D01*
X143325602Y-120175332D01*
X143329613Y-120182024D01*
X143332948Y-120189077D01*
X143335577Y-120196422D01*
X143337472Y-120203990D01*
X143338617Y-120211708D01*
X143339000Y-120219500D01*
X143339000Y-120420500D01*
X143338617Y-120428292D01*
X143337472Y-120436010D01*
X143335577Y-120443578D01*
X143332948Y-120450923D01*
X143329613Y-120457976D01*
X143325602Y-120464668D01*
X143320954Y-120470934D01*
X143315715Y-120476715D01*
X143309934Y-120481954D01*
X143303668Y-120486602D01*
X143296976Y-120490613D01*
X143289923Y-120493948D01*
X143282578Y-120496577D01*
X143275010Y-120498472D01*
X143267292Y-120499617D01*
X143259500Y-120500000D01*
X143100500Y-120500000D01*
X143092708Y-120499617D01*
X143084990Y-120498472D01*
X143077422Y-120496577D01*
X143070077Y-120493948D01*
X143063024Y-120490613D01*
X143056332Y-120486602D01*
X143050066Y-120481954D01*
X143044285Y-120476715D01*
X143039046Y-120470934D01*
X143034398Y-120464668D01*
X143030387Y-120457976D01*
X143027052Y-120450923D01*
X143024423Y-120443578D01*
X143022528Y-120436010D01*
X143021383Y-120428292D01*
X143021000Y-120420500D01*
X143021000Y-120219500D01*
X143021383Y-120211708D01*
X143022528Y-120203990D01*
X143024423Y-120196422D01*
X143027052Y-120189077D01*
X143030387Y-120182024D01*
X143034398Y-120175332D01*
X143039046Y-120169066D01*
X143044285Y-120163285D01*
X143050066Y-120158046D01*
X143056332Y-120153398D01*
X143063024Y-120149387D01*
X143070077Y-120146052D01*
X143077422Y-120143423D01*
X143084990Y-120141528D01*
X143092708Y-120140383D01*
X143100500Y-120140000D01*
X143259500Y-120140000D01*
X143267292Y-120140383D01*
X143267292Y-120140383D01*
G37*
D15*
X143180000Y-120320000D03*
G04 #@! TD*
D14*
G04 #@! TO.C,R2*
G36*
X141267292Y-120140383D02*
X141275010Y-120141528D01*
X141282578Y-120143423D01*
X141289923Y-120146052D01*
X141296976Y-120149387D01*
X141303668Y-120153398D01*
X141309934Y-120158046D01*
X141315715Y-120163285D01*
X141320954Y-120169066D01*
X141325602Y-120175332D01*
X141329613Y-120182024D01*
X141332948Y-120189077D01*
X141335577Y-120196422D01*
X141337472Y-120203990D01*
X141338617Y-120211708D01*
X141339000Y-120219500D01*
X141339000Y-120420500D01*
X141338617Y-120428292D01*
X141337472Y-120436010D01*
X141335577Y-120443578D01*
X141332948Y-120450923D01*
X141329613Y-120457976D01*
X141325602Y-120464668D01*
X141320954Y-120470934D01*
X141315715Y-120476715D01*
X141309934Y-120481954D01*
X141303668Y-120486602D01*
X141296976Y-120490613D01*
X141289923Y-120493948D01*
X141282578Y-120496577D01*
X141275010Y-120498472D01*
X141267292Y-120499617D01*
X141259500Y-120500000D01*
X141100500Y-120500000D01*
X141092708Y-120499617D01*
X141084990Y-120498472D01*
X141077422Y-120496577D01*
X141070077Y-120493948D01*
X141063024Y-120490613D01*
X141056332Y-120486602D01*
X141050066Y-120481954D01*
X141044285Y-120476715D01*
X141039046Y-120470934D01*
X141034398Y-120464668D01*
X141030387Y-120457976D01*
X141027052Y-120450923D01*
X141024423Y-120443578D01*
X141022528Y-120436010D01*
X141021383Y-120428292D01*
X141021000Y-120420500D01*
X141021000Y-120219500D01*
X141021383Y-120211708D01*
X141022528Y-120203990D01*
X141024423Y-120196422D01*
X141027052Y-120189077D01*
X141030387Y-120182024D01*
X141034398Y-120175332D01*
X141039046Y-120169066D01*
X141044285Y-120163285D01*
X141050066Y-120158046D01*
X141056332Y-120153398D01*
X141063024Y-120149387D01*
X141070077Y-120146052D01*
X141077422Y-120143423D01*
X141084990Y-120141528D01*
X141092708Y-120140383D01*
X141100500Y-120140000D01*
X141259500Y-120140000D01*
X141267292Y-120140383D01*
X141267292Y-120140383D01*
G37*
D15*
X141180000Y-120320000D03*
D14*
G36*
X140577292Y-120140383D02*
X140585010Y-120141528D01*
X140592578Y-120143423D01*
X140599923Y-120146052D01*
X140606976Y-120149387D01*
X140613668Y-120153398D01*
X140619934Y-120158046D01*
X140625715Y-120163285D01*
X140630954Y-120169066D01*
X140635602Y-120175332D01*
X140639613Y-120182024D01*
X140642948Y-120189077D01*
X140645577Y-120196422D01*
X140647472Y-120203990D01*
X140648617Y-120211708D01*
X140649000Y-120219500D01*
X140649000Y-120420500D01*
X140648617Y-120428292D01*
X140647472Y-120436010D01*
X140645577Y-120443578D01*
X140642948Y-120450923D01*
X140639613Y-120457976D01*
X140635602Y-120464668D01*
X140630954Y-120470934D01*
X140625715Y-120476715D01*
X140619934Y-120481954D01*
X140613668Y-120486602D01*
X140606976Y-120490613D01*
X140599923Y-120493948D01*
X140592578Y-120496577D01*
X140585010Y-120498472D01*
X140577292Y-120499617D01*
X140569500Y-120500000D01*
X140410500Y-120500000D01*
X140402708Y-120499617D01*
X140394990Y-120498472D01*
X140387422Y-120496577D01*
X140380077Y-120493948D01*
X140373024Y-120490613D01*
X140366332Y-120486602D01*
X140360066Y-120481954D01*
X140354285Y-120476715D01*
X140349046Y-120470934D01*
X140344398Y-120464668D01*
X140340387Y-120457976D01*
X140337052Y-120450923D01*
X140334423Y-120443578D01*
X140332528Y-120436010D01*
X140331383Y-120428292D01*
X140331000Y-120420500D01*
X140331000Y-120219500D01*
X140331383Y-120211708D01*
X140332528Y-120203990D01*
X140334423Y-120196422D01*
X140337052Y-120189077D01*
X140340387Y-120182024D01*
X140344398Y-120175332D01*
X140349046Y-120169066D01*
X140354285Y-120163285D01*
X140360066Y-120158046D01*
X140366332Y-120153398D01*
X140373024Y-120149387D01*
X140380077Y-120146052D01*
X140387422Y-120143423D01*
X140394990Y-120141528D01*
X140402708Y-120140383D01*
X140410500Y-120140000D01*
X140569500Y-120140000D01*
X140577292Y-120140383D01*
X140577292Y-120140383D01*
G37*
D15*
X140490000Y-120320000D03*
G04 #@! TD*
D14*
G04 #@! TO.C,R3*
G36*
X141072292Y-130300383D02*
X141080010Y-130301528D01*
X141087578Y-130303423D01*
X141094923Y-130306052D01*
X141101976Y-130309387D01*
X141108668Y-130313398D01*
X141114934Y-130318046D01*
X141120715Y-130323285D01*
X141125954Y-130329066D01*
X141130602Y-130335332D01*
X141134613Y-130342024D01*
X141137948Y-130349077D01*
X141140577Y-130356422D01*
X141142472Y-130363990D01*
X141143617Y-130371708D01*
X141144000Y-130379500D01*
X141144000Y-130580500D01*
X141143617Y-130588292D01*
X141142472Y-130596010D01*
X141140577Y-130603578D01*
X141137948Y-130610923D01*
X141134613Y-130617976D01*
X141130602Y-130624668D01*
X141125954Y-130630934D01*
X141120715Y-130636715D01*
X141114934Y-130641954D01*
X141108668Y-130646602D01*
X141101976Y-130650613D01*
X141094923Y-130653948D01*
X141087578Y-130656577D01*
X141080010Y-130658472D01*
X141072292Y-130659617D01*
X141064500Y-130660000D01*
X140905500Y-130660000D01*
X140897708Y-130659617D01*
X140889990Y-130658472D01*
X140882422Y-130656577D01*
X140875077Y-130653948D01*
X140868024Y-130650613D01*
X140861332Y-130646602D01*
X140855066Y-130641954D01*
X140849285Y-130636715D01*
X140844046Y-130630934D01*
X140839398Y-130624668D01*
X140835387Y-130617976D01*
X140832052Y-130610923D01*
X140829423Y-130603578D01*
X140827528Y-130596010D01*
X140826383Y-130588292D01*
X140826000Y-130580500D01*
X140826000Y-130379500D01*
X140826383Y-130371708D01*
X140827528Y-130363990D01*
X140829423Y-130356422D01*
X140832052Y-130349077D01*
X140835387Y-130342024D01*
X140839398Y-130335332D01*
X140844046Y-130329066D01*
X140849285Y-130323285D01*
X140855066Y-130318046D01*
X140861332Y-130313398D01*
X140868024Y-130309387D01*
X140875077Y-130306052D01*
X140882422Y-130303423D01*
X140889990Y-130301528D01*
X140897708Y-130300383D01*
X140905500Y-130300000D01*
X141064500Y-130300000D01*
X141072292Y-130300383D01*
X141072292Y-130300383D01*
G37*
D15*
X140985000Y-130480000D03*
D14*
G36*
X140382292Y-130300383D02*
X140390010Y-130301528D01*
X140397578Y-130303423D01*
X140404923Y-130306052D01*
X140411976Y-130309387D01*
X140418668Y-130313398D01*
X140424934Y-130318046D01*
X140430715Y-130323285D01*
X140435954Y-130329066D01*
X140440602Y-130335332D01*
X140444613Y-130342024D01*
X140447948Y-130349077D01*
X140450577Y-130356422D01*
X140452472Y-130363990D01*
X140453617Y-130371708D01*
X140454000Y-130379500D01*
X140454000Y-130580500D01*
X140453617Y-130588292D01*
X140452472Y-130596010D01*
X140450577Y-130603578D01*
X140447948Y-130610923D01*
X140444613Y-130617976D01*
X140440602Y-130624668D01*
X140435954Y-130630934D01*
X140430715Y-130636715D01*
X140424934Y-130641954D01*
X140418668Y-130646602D01*
X140411976Y-130650613D01*
X140404923Y-130653948D01*
X140397578Y-130656577D01*
X140390010Y-130658472D01*
X140382292Y-130659617D01*
X140374500Y-130660000D01*
X140215500Y-130660000D01*
X140207708Y-130659617D01*
X140199990Y-130658472D01*
X140192422Y-130656577D01*
X140185077Y-130653948D01*
X140178024Y-130650613D01*
X140171332Y-130646602D01*
X140165066Y-130641954D01*
X140159285Y-130636715D01*
X140154046Y-130630934D01*
X140149398Y-130624668D01*
X140145387Y-130617976D01*
X140142052Y-130610923D01*
X140139423Y-130603578D01*
X140137528Y-130596010D01*
X140136383Y-130588292D01*
X140136000Y-130580500D01*
X140136000Y-130379500D01*
X140136383Y-130371708D01*
X140137528Y-130363990D01*
X140139423Y-130356422D01*
X140142052Y-130349077D01*
X140145387Y-130342024D01*
X140149398Y-130335332D01*
X140154046Y-130329066D01*
X140159285Y-130323285D01*
X140165066Y-130318046D01*
X140171332Y-130313398D01*
X140178024Y-130309387D01*
X140185077Y-130306052D01*
X140192422Y-130303423D01*
X140199990Y-130301528D01*
X140207708Y-130300383D01*
X140215500Y-130300000D01*
X140374500Y-130300000D01*
X140382292Y-130300383D01*
X140382292Y-130300383D01*
G37*
D15*
X140295000Y-130480000D03*
G04 #@! TD*
D14*
G04 #@! TO.C,R4*
G36*
X140382292Y-126490383D02*
X140390010Y-126491528D01*
X140397578Y-126493423D01*
X140404923Y-126496052D01*
X140411976Y-126499387D01*
X140418668Y-126503398D01*
X140424934Y-126508046D01*
X140430715Y-126513285D01*
X140435954Y-126519066D01*
X140440602Y-126525332D01*
X140444613Y-126532024D01*
X140447948Y-126539077D01*
X140450577Y-126546422D01*
X140452472Y-126553990D01*
X140453617Y-126561708D01*
X140454000Y-126569500D01*
X140454000Y-126770500D01*
X140453617Y-126778292D01*
X140452472Y-126786010D01*
X140450577Y-126793578D01*
X140447948Y-126800923D01*
X140444613Y-126807976D01*
X140440602Y-126814668D01*
X140435954Y-126820934D01*
X140430715Y-126826715D01*
X140424934Y-126831954D01*
X140418668Y-126836602D01*
X140411976Y-126840613D01*
X140404923Y-126843948D01*
X140397578Y-126846577D01*
X140390010Y-126848472D01*
X140382292Y-126849617D01*
X140374500Y-126850000D01*
X140215500Y-126850000D01*
X140207708Y-126849617D01*
X140199990Y-126848472D01*
X140192422Y-126846577D01*
X140185077Y-126843948D01*
X140178024Y-126840613D01*
X140171332Y-126836602D01*
X140165066Y-126831954D01*
X140159285Y-126826715D01*
X140154046Y-126820934D01*
X140149398Y-126814668D01*
X140145387Y-126807976D01*
X140142052Y-126800923D01*
X140139423Y-126793578D01*
X140137528Y-126786010D01*
X140136383Y-126778292D01*
X140136000Y-126770500D01*
X140136000Y-126569500D01*
X140136383Y-126561708D01*
X140137528Y-126553990D01*
X140139423Y-126546422D01*
X140142052Y-126539077D01*
X140145387Y-126532024D01*
X140149398Y-126525332D01*
X140154046Y-126519066D01*
X140159285Y-126513285D01*
X140165066Y-126508046D01*
X140171332Y-126503398D01*
X140178024Y-126499387D01*
X140185077Y-126496052D01*
X140192422Y-126493423D01*
X140199990Y-126491528D01*
X140207708Y-126490383D01*
X140215500Y-126490000D01*
X140374500Y-126490000D01*
X140382292Y-126490383D01*
X140382292Y-126490383D01*
G37*
D15*
X140295000Y-126670000D03*
D14*
G36*
X141072292Y-126490383D02*
X141080010Y-126491528D01*
X141087578Y-126493423D01*
X141094923Y-126496052D01*
X141101976Y-126499387D01*
X141108668Y-126503398D01*
X141114934Y-126508046D01*
X141120715Y-126513285D01*
X141125954Y-126519066D01*
X141130602Y-126525332D01*
X141134613Y-126532024D01*
X141137948Y-126539077D01*
X141140577Y-126546422D01*
X141142472Y-126553990D01*
X141143617Y-126561708D01*
X141144000Y-126569500D01*
X141144000Y-126770500D01*
X141143617Y-126778292D01*
X141142472Y-126786010D01*
X141140577Y-126793578D01*
X141137948Y-126800923D01*
X141134613Y-126807976D01*
X141130602Y-126814668D01*
X141125954Y-126820934D01*
X141120715Y-126826715D01*
X141114934Y-126831954D01*
X141108668Y-126836602D01*
X141101976Y-126840613D01*
X141094923Y-126843948D01*
X141087578Y-126846577D01*
X141080010Y-126848472D01*
X141072292Y-126849617D01*
X141064500Y-126850000D01*
X140905500Y-126850000D01*
X140897708Y-126849617D01*
X140889990Y-126848472D01*
X140882422Y-126846577D01*
X140875077Y-126843948D01*
X140868024Y-126840613D01*
X140861332Y-126836602D01*
X140855066Y-126831954D01*
X140849285Y-126826715D01*
X140844046Y-126820934D01*
X140839398Y-126814668D01*
X140835387Y-126807976D01*
X140832052Y-126800923D01*
X140829423Y-126793578D01*
X140827528Y-126786010D01*
X140826383Y-126778292D01*
X140826000Y-126770500D01*
X140826000Y-126569500D01*
X140826383Y-126561708D01*
X140827528Y-126553990D01*
X140829423Y-126546422D01*
X140832052Y-126539077D01*
X140835387Y-126532024D01*
X140839398Y-126525332D01*
X140844046Y-126519066D01*
X140849285Y-126513285D01*
X140855066Y-126508046D01*
X140861332Y-126503398D01*
X140868024Y-126499387D01*
X140875077Y-126496052D01*
X140882422Y-126493423D01*
X140889990Y-126491528D01*
X140897708Y-126490383D01*
X140905500Y-126490000D01*
X141064500Y-126490000D01*
X141072292Y-126490383D01*
X141072292Y-126490383D01*
G37*
D15*
X140985000Y-126670000D03*
G04 #@! TD*
D14*
G04 #@! TO.C,R5*
G36*
X127682292Y-109980383D02*
X127690010Y-109981528D01*
X127697578Y-109983423D01*
X127704923Y-109986052D01*
X127711976Y-109989387D01*
X127718668Y-109993398D01*
X127724934Y-109998046D01*
X127730715Y-110003285D01*
X127735954Y-110009066D01*
X127740602Y-110015332D01*
X127744613Y-110022024D01*
X127747948Y-110029077D01*
X127750577Y-110036422D01*
X127752472Y-110043990D01*
X127753617Y-110051708D01*
X127754000Y-110059500D01*
X127754000Y-110260500D01*
X127753617Y-110268292D01*
X127752472Y-110276010D01*
X127750577Y-110283578D01*
X127747948Y-110290923D01*
X127744613Y-110297976D01*
X127740602Y-110304668D01*
X127735954Y-110310934D01*
X127730715Y-110316715D01*
X127724934Y-110321954D01*
X127718668Y-110326602D01*
X127711976Y-110330613D01*
X127704923Y-110333948D01*
X127697578Y-110336577D01*
X127690010Y-110338472D01*
X127682292Y-110339617D01*
X127674500Y-110340000D01*
X127515500Y-110340000D01*
X127507708Y-110339617D01*
X127499990Y-110338472D01*
X127492422Y-110336577D01*
X127485077Y-110333948D01*
X127478024Y-110330613D01*
X127471332Y-110326602D01*
X127465066Y-110321954D01*
X127459285Y-110316715D01*
X127454046Y-110310934D01*
X127449398Y-110304668D01*
X127445387Y-110297976D01*
X127442052Y-110290923D01*
X127439423Y-110283578D01*
X127437528Y-110276010D01*
X127436383Y-110268292D01*
X127436000Y-110260500D01*
X127436000Y-110059500D01*
X127436383Y-110051708D01*
X127437528Y-110043990D01*
X127439423Y-110036422D01*
X127442052Y-110029077D01*
X127445387Y-110022024D01*
X127449398Y-110015332D01*
X127454046Y-110009066D01*
X127459285Y-110003285D01*
X127465066Y-109998046D01*
X127471332Y-109993398D01*
X127478024Y-109989387D01*
X127485077Y-109986052D01*
X127492422Y-109983423D01*
X127499990Y-109981528D01*
X127507708Y-109980383D01*
X127515500Y-109980000D01*
X127674500Y-109980000D01*
X127682292Y-109980383D01*
X127682292Y-109980383D01*
G37*
D15*
X127595000Y-110160000D03*
D14*
G36*
X128372292Y-109980383D02*
X128380010Y-109981528D01*
X128387578Y-109983423D01*
X128394923Y-109986052D01*
X128401976Y-109989387D01*
X128408668Y-109993398D01*
X128414934Y-109998046D01*
X128420715Y-110003285D01*
X128425954Y-110009066D01*
X128430602Y-110015332D01*
X128434613Y-110022024D01*
X128437948Y-110029077D01*
X128440577Y-110036422D01*
X128442472Y-110043990D01*
X128443617Y-110051708D01*
X128444000Y-110059500D01*
X128444000Y-110260500D01*
X128443617Y-110268292D01*
X128442472Y-110276010D01*
X128440577Y-110283578D01*
X128437948Y-110290923D01*
X128434613Y-110297976D01*
X128430602Y-110304668D01*
X128425954Y-110310934D01*
X128420715Y-110316715D01*
X128414934Y-110321954D01*
X128408668Y-110326602D01*
X128401976Y-110330613D01*
X128394923Y-110333948D01*
X128387578Y-110336577D01*
X128380010Y-110338472D01*
X128372292Y-110339617D01*
X128364500Y-110340000D01*
X128205500Y-110340000D01*
X128197708Y-110339617D01*
X128189990Y-110338472D01*
X128182422Y-110336577D01*
X128175077Y-110333948D01*
X128168024Y-110330613D01*
X128161332Y-110326602D01*
X128155066Y-110321954D01*
X128149285Y-110316715D01*
X128144046Y-110310934D01*
X128139398Y-110304668D01*
X128135387Y-110297976D01*
X128132052Y-110290923D01*
X128129423Y-110283578D01*
X128127528Y-110276010D01*
X128126383Y-110268292D01*
X128126000Y-110260500D01*
X128126000Y-110059500D01*
X128126383Y-110051708D01*
X128127528Y-110043990D01*
X128129423Y-110036422D01*
X128132052Y-110029077D01*
X128135387Y-110022024D01*
X128139398Y-110015332D01*
X128144046Y-110009066D01*
X128149285Y-110003285D01*
X128155066Y-109998046D01*
X128161332Y-109993398D01*
X128168024Y-109989387D01*
X128175077Y-109986052D01*
X128182422Y-109983423D01*
X128189990Y-109981528D01*
X128197708Y-109980383D01*
X128205500Y-109980000D01*
X128364500Y-109980000D01*
X128372292Y-109980383D01*
X128372292Y-109980383D01*
G37*
D15*
X128285000Y-110160000D03*
G04 #@! TD*
D14*
G04 #@! TO.C,R6*
G36*
X124562292Y-109980383D02*
X124570010Y-109981528D01*
X124577578Y-109983423D01*
X124584923Y-109986052D01*
X124591976Y-109989387D01*
X124598668Y-109993398D01*
X124604934Y-109998046D01*
X124610715Y-110003285D01*
X124615954Y-110009066D01*
X124620602Y-110015332D01*
X124624613Y-110022024D01*
X124627948Y-110029077D01*
X124630577Y-110036422D01*
X124632472Y-110043990D01*
X124633617Y-110051708D01*
X124634000Y-110059500D01*
X124634000Y-110260500D01*
X124633617Y-110268292D01*
X124632472Y-110276010D01*
X124630577Y-110283578D01*
X124627948Y-110290923D01*
X124624613Y-110297976D01*
X124620602Y-110304668D01*
X124615954Y-110310934D01*
X124610715Y-110316715D01*
X124604934Y-110321954D01*
X124598668Y-110326602D01*
X124591976Y-110330613D01*
X124584923Y-110333948D01*
X124577578Y-110336577D01*
X124570010Y-110338472D01*
X124562292Y-110339617D01*
X124554500Y-110340000D01*
X124395500Y-110340000D01*
X124387708Y-110339617D01*
X124379990Y-110338472D01*
X124372422Y-110336577D01*
X124365077Y-110333948D01*
X124358024Y-110330613D01*
X124351332Y-110326602D01*
X124345066Y-110321954D01*
X124339285Y-110316715D01*
X124334046Y-110310934D01*
X124329398Y-110304668D01*
X124325387Y-110297976D01*
X124322052Y-110290923D01*
X124319423Y-110283578D01*
X124317528Y-110276010D01*
X124316383Y-110268292D01*
X124316000Y-110260500D01*
X124316000Y-110059500D01*
X124316383Y-110051708D01*
X124317528Y-110043990D01*
X124319423Y-110036422D01*
X124322052Y-110029077D01*
X124325387Y-110022024D01*
X124329398Y-110015332D01*
X124334046Y-110009066D01*
X124339285Y-110003285D01*
X124345066Y-109998046D01*
X124351332Y-109993398D01*
X124358024Y-109989387D01*
X124365077Y-109986052D01*
X124372422Y-109983423D01*
X124379990Y-109981528D01*
X124387708Y-109980383D01*
X124395500Y-109980000D01*
X124554500Y-109980000D01*
X124562292Y-109980383D01*
X124562292Y-109980383D01*
G37*
D15*
X124475000Y-110160000D03*
D14*
G36*
X123872292Y-109980383D02*
X123880010Y-109981528D01*
X123887578Y-109983423D01*
X123894923Y-109986052D01*
X123901976Y-109989387D01*
X123908668Y-109993398D01*
X123914934Y-109998046D01*
X123920715Y-110003285D01*
X123925954Y-110009066D01*
X123930602Y-110015332D01*
X123934613Y-110022024D01*
X123937948Y-110029077D01*
X123940577Y-110036422D01*
X123942472Y-110043990D01*
X123943617Y-110051708D01*
X123944000Y-110059500D01*
X123944000Y-110260500D01*
X123943617Y-110268292D01*
X123942472Y-110276010D01*
X123940577Y-110283578D01*
X123937948Y-110290923D01*
X123934613Y-110297976D01*
X123930602Y-110304668D01*
X123925954Y-110310934D01*
X123920715Y-110316715D01*
X123914934Y-110321954D01*
X123908668Y-110326602D01*
X123901976Y-110330613D01*
X123894923Y-110333948D01*
X123887578Y-110336577D01*
X123880010Y-110338472D01*
X123872292Y-110339617D01*
X123864500Y-110340000D01*
X123705500Y-110340000D01*
X123697708Y-110339617D01*
X123689990Y-110338472D01*
X123682422Y-110336577D01*
X123675077Y-110333948D01*
X123668024Y-110330613D01*
X123661332Y-110326602D01*
X123655066Y-110321954D01*
X123649285Y-110316715D01*
X123644046Y-110310934D01*
X123639398Y-110304668D01*
X123635387Y-110297976D01*
X123632052Y-110290923D01*
X123629423Y-110283578D01*
X123627528Y-110276010D01*
X123626383Y-110268292D01*
X123626000Y-110260500D01*
X123626000Y-110059500D01*
X123626383Y-110051708D01*
X123627528Y-110043990D01*
X123629423Y-110036422D01*
X123632052Y-110029077D01*
X123635387Y-110022024D01*
X123639398Y-110015332D01*
X123644046Y-110009066D01*
X123649285Y-110003285D01*
X123655066Y-109998046D01*
X123661332Y-109993398D01*
X123668024Y-109989387D01*
X123675077Y-109986052D01*
X123682422Y-109983423D01*
X123689990Y-109981528D01*
X123697708Y-109980383D01*
X123705500Y-109980000D01*
X123864500Y-109980000D01*
X123872292Y-109980383D01*
X123872292Y-109980383D01*
G37*
D15*
X123785000Y-110160000D03*
G04 #@! TD*
D16*
G04 #@! TO.C,J5*
X131553000Y-136357000D03*
X131553000Y-140757000D03*
X132353000Y-140757000D03*
X132353000Y-136357000D03*
X130753000Y-136357000D03*
X130753000Y-140757000D03*
X129953000Y-140757000D03*
X129953000Y-136357000D03*
X129153000Y-140757000D03*
X129153000Y-136357000D03*
X128353000Y-136357000D03*
X128353000Y-140757000D03*
X127553000Y-136357000D03*
X127553000Y-140757000D03*
X126753000Y-140757000D03*
X126753000Y-136357000D03*
X125953000Y-140757000D03*
X125953000Y-136357000D03*
X125153000Y-140757000D03*
X125153000Y-136357000D03*
X124353000Y-140757000D03*
X124353000Y-136357000D03*
X123553000Y-136357000D03*
X123553000Y-140757000D03*
X122753000Y-136357000D03*
X122753000Y-140757000D03*
X121953000Y-136357000D03*
X121953000Y-140757000D03*
X121153000Y-140757000D03*
X121153000Y-136357000D03*
X139553000Y-136357000D03*
X144353000Y-136357000D03*
X134753000Y-140757000D03*
X140353000Y-140757000D03*
X142753000Y-140757000D03*
X144353000Y-140757000D03*
X141153000Y-140757000D03*
X140353000Y-136357000D03*
X138753000Y-136357000D03*
X138753000Y-140757000D03*
X142753000Y-136357000D03*
X143553000Y-140757000D03*
X133153000Y-136357000D03*
X135553000Y-140757000D03*
X134753000Y-136357000D03*
X141953000Y-136357000D03*
X135553000Y-136357000D03*
X137153000Y-136357000D03*
X141153000Y-136357000D03*
X133953000Y-136357000D03*
X139553000Y-140757000D03*
X136353000Y-140757000D03*
X137153000Y-140757000D03*
X133153000Y-140757000D03*
X136353000Y-136357000D03*
X137953000Y-136357000D03*
X137953000Y-140757000D03*
X133953000Y-140757000D03*
X141953000Y-140757000D03*
X143553000Y-136357000D03*
G04 #@! TD*
D17*
G04 #@! TO.C,JP1*
X134328000Y-126683000D03*
X135598000Y-126683000D03*
X136868000Y-126683000D03*
G04 #@! TD*
G04 #@! TO.C,JP2*
X136855000Y-130594000D03*
X135585000Y-130594000D03*
X134315000Y-130594000D03*
G04 #@! TD*
M02*
