M48
;DRILL file {KiCad 5.0.2-5.fc29} date Fri 22 Feb 2019 01:59:28 AM IST
;FORMAT={-:-/ absolute / metric / decimal}
FMAT,2
METRIC,TZ
T1C0.800
T2C1.016
T3C2.500
%
G90
G05
T1
X110.Y-103.
X110.Y-105.
X112.Y-103.
X112.Y-105.
X114.Y-103.
X114.Y-105.
X116.Y-103.
X116.Y-105.
X118.Y-103.
X118.Y-105.
X120.Y-103.
X120.Y-105.
X122.Y-103.
X122.Y-105.
X124.Y-103.
X124.Y-105.
X126.Y-103.
X126.Y-105.
X128.Y-103.
X128.Y-105.
X130.Y-103.
X130.Y-105.
X132.Y-103.
X132.Y-105.
X134.Y-103.
X134.Y-105.
X136.Y-103.
X136.Y-105.
X138.Y-103.
X138.Y-105.
X140.Y-103.
X140.Y-105.
X142.Y-103.
X142.Y-105.
X144.Y-103.
X144.Y-105.
X146.Y-103.
X146.Y-105.
X148.Y-103.
X148.Y-105.
T2
X169.85Y-129.21
X136.83Y-134.29
X169.85Y-136.83
X129.21Y-113.97
X131.75Y-113.97
X129.21Y-124.13
X146.99Y-119.05
X108.89Y-131.75
X174.93Y-119.05
X167.31Y-121.59
X159.69Y-126.67
X116.51Y-126.67
X126.67Y-129.21
X141.91Y-126.67
X124.13Y-126.67
X131.75Y-119.05
X113.97Y-136.83
X180.01Y-119.05
X146.99Y-134.29
X169.85Y-131.75
X129.21Y-121.59
X103.81Y-131.75
X136.83Y-121.59
X113.97Y-129.21
X111.43Y-119.05
X126.67Y-134.29
X154.61Y-126.67
X152.07Y-119.05
X116.51Y-136.83
X129.21Y-131.75
X172.39Y-131.75
X111.43Y-124.13
X152.07Y-121.59
X180.01Y-121.59
X167.31Y-126.67
X141.91Y-124.13
X126.67Y-126.67
X136.83Y-131.75
X131.75Y-121.59
X152.07Y-131.75
X108.89Y-121.59
X131.75Y-134.29
X157.15Y-136.83
X129.21Y-129.21
X108.89Y-124.13
X152.07Y-134.29
X113.97Y-134.29
X174.93Y-121.59
X174.93Y-126.67
X152.07Y-136.83
X126.67Y-124.13
X180.01Y-129.21
X124.13Y-124.13
X167.31Y-131.75
X167.31Y-129.21
X136.83Y-119.05
X116.51Y-131.75
X116.51Y-113.97
X119.05Y-113.97
X121.59Y-113.97
X124.13Y-113.97
X141.91Y-131.75
X131.75Y-136.83
X136.83Y-129.21
X111.43Y-121.59
X157.15Y-121.59
X108.89Y-129.21
X159.69Y-134.29
X172.39Y-134.29
X116.51Y-119.05
X131.75Y-126.67
X157.15Y-129.21
X124.13Y-119.05
X167.31Y-136.83
X157.15Y-124.13
X159.69Y-124.13
X113.97Y-126.67
X154.61Y-131.75
X146.99Y-131.75
X113.97Y-119.05
X169.85Y-121.59
X103.81Y-126.67
X113.97Y-124.13
X154.61Y-124.13
X180.01Y-124.13
X124.13Y-136.83
X108.89Y-119.05
X146.99Y-136.83
X146.99Y-124.13
X174.93Y-124.13
X167.31Y-124.13
X116.51Y-121.59
X136.83Y-136.83
X159.69Y-129.21
X136.83Y-124.13
X124.13Y-134.29
X172.39Y-129.21
X126.67Y-131.75
X146.99Y-126.67
X154.61Y-136.83
X146.99Y-129.21
X126.67Y-119.05
X169.85Y-124.13
X126.67Y-136.83
X152.07Y-126.67
X111.43Y-126.67
X103.81Y-113.97
X106.35Y-113.97
X108.89Y-113.97
X111.43Y-113.97
X139.37Y-113.97
X141.91Y-113.97
X144.45Y-113.97
X146.99Y-113.97
X149.53Y-113.97
X152.07Y-113.97
X154.61Y-113.97
X157.15Y-113.97
X159.69Y-113.97
X162.23Y-113.97
X164.77Y-113.97
X167.31Y-113.97
X124.13Y-129.21
X103.81Y-119.05
X157.15Y-119.05
X108.89Y-134.29
X136.83Y-126.67
X174.93Y-134.29
X159.69Y-119.05
X129.21Y-119.05
X113.97Y-121.59
X103.81Y-124.13
X169.85Y-119.05
X131.75Y-129.21
X111.43Y-136.83
X157.15Y-131.75
X146.99Y-121.59
X103.81Y-121.59
X180.01Y-126.67
X116.51Y-134.29
X180.01Y-131.75
X154.61Y-129.21
X172.39Y-126.67
X111.43Y-131.75
X169.85Y-126.67
X169.85Y-134.29
X116.51Y-124.13
X152.07Y-129.21
X154.61Y-134.29
X159.69Y-121.59
X116.51Y-129.21
X174.93Y-131.75
X172.39Y-124.13
X154.61Y-121.59
X159.69Y-131.75
X172.39Y-121.59
X129.21Y-136.83
X111.43Y-134.29
X141.91Y-134.29
X141.91Y-119.05
X174.93Y-129.21
X113.97Y-131.75
X129.21Y-134.29
X159.69Y-136.83
X167.31Y-119.05
X141.91Y-129.21
X129.21Y-126.67
X154.61Y-119.05
X157.15Y-126.67
X108.89Y-136.83
X141.91Y-136.83
X172.39Y-136.83
X172.39Y-119.05
X141.91Y-121.59
X167.31Y-134.29
X131.75Y-131.75
X174.93Y-136.83
X108.89Y-126.67
X111.43Y-129.21
X103.81Y-129.21
X157.15Y-134.29
X124.13Y-121.59
X124.13Y-131.75
X131.75Y-124.13
X152.07Y-124.13
X126.67Y-121.59
T3
X181.Y-135.5
X104.Y-135.5
X104.Y-104.
X181.Y-104.
T0
M30
