G04 #@! TF.GenerationSoftware,KiCad,Pcbnew,5.0.2-5.fc29*
G04 #@! TF.CreationDate,2019-02-22T01:59:12+05:30*
G04 #@! TF.ProjectId,proto-mezzanine,70726f74-6f2d-46d6-957a-7a616e696e65,A*
G04 #@! TF.SameCoordinates,Original*
G04 #@! TF.FileFunction,Copper,L1,Top*
G04 #@! TF.FilePolarity,Positive*
%FSLAX46Y46*%
G04 Gerber Fmt 4.6, Leading zero omitted, Abs format (unit mm)*
G04 Created by KiCad (PCBNEW 5.0.2-5.fc29) date Fri 22 Feb 2019 01:59:12 AM IST*
%MOMM*%
%LPD*%
G01*
G04 APERTURE LIST*
G04 #@! TA.AperFunction,ComponentPad*
%ADD10C,2.032000*%
G04 #@! TD*
G04 #@! TA.AperFunction,ComponentPad*
%ADD11R,2.032000X2.032000*%
G04 #@! TD*
G04 #@! TA.AperFunction,ComponentPad*
%ADD12O,2.032000X2.032000*%
G04 #@! TD*
G04 #@! TA.AperFunction,ComponentPad*
%ADD13O,1.727200X2.032000*%
G04 #@! TD*
G04 #@! TA.AperFunction,ComponentPad*
%ADD14R,1.727200X2.032000*%
G04 #@! TD*
G04 #@! TA.AperFunction,ComponentPad*
%ADD15R,1.200000X1.200000*%
G04 #@! TD*
G04 #@! TA.AperFunction,ComponentPad*
%ADD16C,1.200000*%
G04 #@! TD*
G04 #@! TA.AperFunction,ComponentPad*
%ADD17C,3.000000*%
G04 #@! TD*
G04 #@! TA.AperFunction,Conductor*
%ADD18C,0.635000*%
G04 #@! TD*
G04 #@! TA.AperFunction,Conductor*
%ADD19C,1.270000*%
G04 #@! TD*
G04 #@! TA.AperFunction,Conductor*
%ADD20C,0.254000*%
G04 #@! TD*
G04 APERTURE END LIST*
D10*
G04 #@! TO.P,J1,1*
G04 #@! TO.N,GND*
X180010000Y-119050000D03*
G04 #@! TD*
G04 #@! TO.P,J1,1*
G04 #@! TO.N,GND*
X180010000Y-121590000D03*
G04 #@! TD*
G04 #@! TO.P,J1,1*
G04 #@! TO.N,GND*
X180010000Y-129210000D03*
G04 #@! TD*
G04 #@! TO.P,J1,1*
G04 #@! TO.N,GND*
X180010000Y-126670000D03*
G04 #@! TD*
G04 #@! TO.P,J1,1*
G04 #@! TO.N,GND*
X180010000Y-131750000D03*
G04 #@! TD*
G04 #@! TO.P,J1,1*
G04 #@! TO.N,GND*
X180010000Y-124130000D03*
G04 #@! TD*
G04 #@! TO.P,J1,1*
G04 #@! TO.N,+1V8*
X136830000Y-129210000D03*
G04 #@! TD*
G04 #@! TO.P,J1,1*
G04 #@! TO.N,+1V8*
X136830000Y-131750000D03*
G04 #@! TD*
G04 #@! TO.P,J1,1*
G04 #@! TO.N,+1V8*
X136830000Y-136830000D03*
G04 #@! TD*
G04 #@! TO.P,J1,1*
G04 #@! TO.N,+1V8*
X136830000Y-134290000D03*
G04 #@! TD*
G04 #@! TO.P,J1,1*
G04 #@! TO.N,+1V8*
X136830000Y-124130000D03*
G04 #@! TD*
G04 #@! TO.P,J1,1*
G04 #@! TO.N,+1V8*
X136830000Y-126670000D03*
G04 #@! TD*
G04 #@! TO.P,J1,1*
G04 #@! TO.N,+1V8*
X136830000Y-121590000D03*
G04 #@! TD*
G04 #@! TO.P,J1,1*
G04 #@! TO.N,+5V*
X146990000Y-136830000D03*
G04 #@! TD*
G04 #@! TO.P,J1,1*
G04 #@! TO.N,+5V*
X146990000Y-134290000D03*
G04 #@! TD*
G04 #@! TO.P,J1,1*
G04 #@! TO.N,+5V*
X146990000Y-131750000D03*
G04 #@! TD*
G04 #@! TO.P,J1,1*
G04 #@! TO.N,+5V*
X146990000Y-129210000D03*
G04 #@! TD*
G04 #@! TO.P,J1,1*
G04 #@! TO.N,+5V*
X146990000Y-126670000D03*
G04 #@! TD*
G04 #@! TO.P,J1,1*
G04 #@! TO.N,+5V*
X146990000Y-124130000D03*
G04 #@! TD*
G04 #@! TO.P,J1,1*
G04 #@! TO.N,+5V*
X146990000Y-121590000D03*
G04 #@! TD*
G04 #@! TO.P,J1,1*
G04 #@! TO.N,+5V*
X146990000Y-119050000D03*
G04 #@! TD*
G04 #@! TO.P,J1,1*
G04 #@! TO.N,GND*
X141910000Y-131750000D03*
G04 #@! TD*
G04 #@! TO.P,J1,1*
G04 #@! TO.N,GND*
X141910000Y-129210000D03*
G04 #@! TD*
G04 #@! TO.P,J1,1*
G04 #@! TO.N,GND*
X141910000Y-136830000D03*
G04 #@! TD*
G04 #@! TO.P,J1,1*
G04 #@! TO.N,GND*
X141910000Y-134290000D03*
G04 #@! TD*
G04 #@! TO.P,J1,1*
G04 #@! TO.N,GND*
X141910000Y-126670000D03*
G04 #@! TD*
G04 #@! TO.P,J1,1*
G04 #@! TO.N,GND*
X141910000Y-124130000D03*
G04 #@! TD*
G04 #@! TO.P,J1,1*
G04 #@! TO.N,GND*
X141910000Y-121590000D03*
G04 #@! TD*
G04 #@! TO.P,J1,1*
G04 #@! TO.N,GND*
X141910000Y-119050000D03*
G04 #@! TD*
G04 #@! TO.P,J1,1*
G04 #@! TO.N,GND*
X103810000Y-131750000D03*
G04 #@! TD*
G04 #@! TO.P,J1,1*
G04 #@! TO.N,GND*
X103810000Y-129210000D03*
G04 #@! TD*
G04 #@! TO.P,J1,1*
G04 #@! TO.N,GND*
X103810000Y-126670000D03*
G04 #@! TD*
G04 #@! TO.P,J1,1*
G04 #@! TO.N,GND*
X103810000Y-121590000D03*
G04 #@! TD*
G04 #@! TO.P,J1,1*
G04 #@! TO.N,GND*
X103810000Y-119050000D03*
G04 #@! TD*
G04 #@! TO.P,J1,1*
G04 #@! TO.N,N/C*
X174930000Y-134290000D03*
G04 #@! TD*
G04 #@! TO.P,J1,1*
G04 #@! TO.N,N/C*
X169850000Y-124130000D03*
G04 #@! TD*
G04 #@! TO.P,J1,1*
G04 #@! TO.N,N/C*
X172390000Y-131750000D03*
G04 #@! TD*
G04 #@! TO.P,J1,1*
G04 #@! TO.N,N/C*
X174930000Y-131750000D03*
G04 #@! TD*
G04 #@! TO.P,J1,1*
G04 #@! TO.N,N/C*
X157150000Y-119050000D03*
G04 #@! TD*
G04 #@! TO.P,J1,1*
G04 #@! TO.N,N/C*
X154610000Y-136830000D03*
G04 #@! TD*
G04 #@! TO.P,J1,1*
G04 #@! TO.N,N/C*
X159690000Y-121590000D03*
G04 #@! TD*
G04 #@! TO.P,J1,1*
G04 #@! TO.N,N/C*
X172390000Y-126670000D03*
G04 #@! TD*
G04 #@! TO.P,J1,1*
G04 #@! TO.N,N/C*
X159690000Y-126670000D03*
G04 #@! TD*
G04 #@! TO.P,J1,1*
G04 #@! TO.N,N/C*
X154610000Y-124130000D03*
G04 #@! TD*
G04 #@! TO.P,J1,1*
G04 #@! TO.N,N/C*
X157150000Y-129210000D03*
G04 #@! TD*
G04 #@! TO.P,J1,1*
G04 #@! TO.N,N/C*
X159690000Y-129210000D03*
G04 #@! TD*
G04 #@! TO.P,J1,1*
G04 #@! TO.N,N/C*
X152070000Y-129210000D03*
G04 #@! TD*
G04 #@! TO.P,J1,1*
G04 #@! TO.N,N/C*
X154610000Y-119050000D03*
G04 #@! TD*
G04 #@! TO.P,J1,1*
G04 #@! TO.N,N/C*
X167310000Y-134290000D03*
G04 #@! TD*
G04 #@! TO.P,J1,1*
G04 #@! TO.N,N/C*
X174930000Y-129210000D03*
G04 #@! TD*
G04 #@! TO.P,J1,1*
G04 #@! TO.N,N/C*
X174930000Y-119050000D03*
G04 #@! TD*
G04 #@! TO.P,J1,1*
G04 #@! TO.N,N/C*
X154610000Y-131750000D03*
G04 #@! TD*
G04 #@! TO.P,J1,1*
G04 #@! TO.N,N/C*
X174930000Y-126670000D03*
G04 #@! TD*
G04 #@! TO.P,J1,1*
G04 #@! TO.N,N/C*
X157150000Y-121590000D03*
G04 #@! TD*
G04 #@! TO.P,J1,1*
G04 #@! TO.N,N/C*
X157150000Y-124130000D03*
G04 #@! TD*
G04 #@! TO.P,J1,1*
G04 #@! TO.N,N/C*
X167310000Y-129210000D03*
G04 #@! TD*
G04 #@! TO.P,J1,1*
G04 #@! TO.N,N/C*
X172390000Y-121590000D03*
G04 #@! TD*
G04 #@! TO.P,J1,1*
G04 #@! TO.N,N/C*
X169850000Y-129210000D03*
G04 #@! TD*
G04 #@! TO.P,J1,1*
G04 #@! TO.N,N/C*
X169850000Y-126670000D03*
G04 #@! TD*
G04 #@! TO.P,J1,1*
G04 #@! TO.N,N/C*
X167310000Y-124130000D03*
G04 #@! TD*
G04 #@! TO.P,J1,1*
G04 #@! TO.N,N/C*
X169850000Y-131750000D03*
G04 #@! TD*
G04 #@! TO.P,J1,1*
G04 #@! TO.N,N/C*
X152070000Y-119050000D03*
G04 #@! TD*
G04 #@! TO.P,J1,1*
G04 #@! TO.N,N/C*
X152070000Y-124130000D03*
G04 #@! TD*
G04 #@! TO.P,J1,1*
G04 #@! TO.N,N/C*
X167310000Y-121590000D03*
G04 #@! TD*
G04 #@! TO.P,J1,1*
G04 #@! TO.N,N/C*
X174930000Y-136830000D03*
G04 #@! TD*
G04 #@! TO.P,J1,1*
G04 #@! TO.N,N/C*
X172390000Y-124130000D03*
G04 #@! TD*
G04 #@! TO.P,J1,1*
G04 #@! TO.N,N/C*
X152070000Y-126670000D03*
G04 #@! TD*
G04 #@! TO.P,J1,1*
G04 #@! TO.N,N/C*
X169850000Y-136830000D03*
G04 #@! TD*
G04 #@! TO.P,J1,1*
G04 #@! TO.N,N/C*
X172390000Y-119050000D03*
G04 #@! TD*
G04 #@! TO.P,J1,1*
G04 #@! TO.N,N/C*
X152070000Y-121590000D03*
G04 #@! TD*
G04 #@! TO.P,J1,1*
G04 #@! TO.N,N/C*
X152070000Y-134290000D03*
G04 #@! TD*
G04 #@! TO.P,J1,1*
G04 #@! TO.N,N/C*
X152070000Y-136830000D03*
G04 #@! TD*
G04 #@! TO.P,J1,1*
G04 #@! TO.N,N/C*
X167310000Y-136830000D03*
G04 #@! TD*
G04 #@! TO.P,J1,1*
G04 #@! TO.N,N/C*
X167310000Y-131750000D03*
G04 #@! TD*
G04 #@! TO.P,J1,1*
G04 #@! TO.N,N/C*
X167310000Y-119050000D03*
G04 #@! TD*
G04 #@! TO.P,J1,1*
G04 #@! TO.N,N/C*
X174930000Y-124130000D03*
G04 #@! TD*
G04 #@! TO.P,J1,1*
G04 #@! TO.N,N/C*
X172390000Y-129210000D03*
G04 #@! TD*
G04 #@! TO.P,J1,1*
G04 #@! TO.N,N/C*
X159690000Y-131750000D03*
G04 #@! TD*
G04 #@! TO.P,J1,1*
G04 #@! TO.N,N/C*
X169850000Y-134290000D03*
G04 #@! TD*
G04 #@! TO.P,J1,1*
G04 #@! TO.N,N/C*
X172390000Y-134290000D03*
G04 #@! TD*
G04 #@! TO.P,J1,1*
G04 #@! TO.N,N/C*
X174930000Y-121590000D03*
G04 #@! TD*
G04 #@! TO.P,J1,1*
G04 #@! TO.N,N/C*
X157150000Y-134290000D03*
G04 #@! TD*
G04 #@! TO.P,J1,1*
G04 #@! TO.N,N/C*
X157150000Y-126670000D03*
G04 #@! TD*
G04 #@! TO.P,J1,1*
G04 #@! TO.N,N/C*
X169850000Y-119050000D03*
G04 #@! TD*
G04 #@! TO.P,J1,1*
G04 #@! TO.N,N/C*
X157150000Y-136830000D03*
G04 #@! TD*
G04 #@! TO.P,J1,1*
G04 #@! TO.N,N/C*
X169850000Y-121590000D03*
G04 #@! TD*
G04 #@! TO.P,J1,1*
G04 #@! TO.N,N/C*
X159690000Y-134290000D03*
G04 #@! TD*
G04 #@! TO.P,J1,1*
G04 #@! TO.N,N/C*
X157150000Y-131750000D03*
G04 #@! TD*
G04 #@! TO.P,J1,1*
G04 #@! TO.N,N/C*
X167310000Y-126670000D03*
G04 #@! TD*
G04 #@! TO.P,J1,1*
G04 #@! TO.N,N/C*
X159690000Y-119050000D03*
G04 #@! TD*
G04 #@! TO.P,J1,1*
G04 #@! TO.N,N/C*
X172390000Y-136830000D03*
G04 #@! TD*
G04 #@! TO.P,J1,1*
G04 #@! TO.N,N/C*
X152070000Y-131750000D03*
G04 #@! TD*
G04 #@! TO.P,J1,1*
G04 #@! TO.N,N/C*
X154610000Y-126670000D03*
G04 #@! TD*
G04 #@! TO.P,J1,1*
G04 #@! TO.N,N/C*
X154610000Y-134290000D03*
G04 #@! TD*
G04 #@! TO.P,J1,1*
G04 #@! TO.N,N/C*
X154610000Y-129210000D03*
G04 #@! TD*
G04 #@! TO.P,J1,1*
G04 #@! TO.N,N/C*
X159690000Y-136830000D03*
G04 #@! TD*
G04 #@! TO.P,J1,1*
G04 #@! TO.N,N/C*
X154610000Y-121590000D03*
G04 #@! TD*
G04 #@! TO.P,J1,1*
G04 #@! TO.N,N/C*
X159690000Y-124130000D03*
G04 #@! TD*
G04 #@! TO.P,J1,1*
G04 #@! TO.N,+1V8*
X136830000Y-119050000D03*
G04 #@! TD*
G04 #@! TO.P,J1,1*
G04 #@! TO.N,N/C*
X129210000Y-119050000D03*
G04 #@! TD*
G04 #@! TO.P,J1,1*
G04 #@! TO.N,N/C*
X126670000Y-136830000D03*
G04 #@! TD*
G04 #@! TO.P,J1,1*
G04 #@! TO.N,N/C*
X131750000Y-121590000D03*
G04 #@! TD*
G04 #@! TO.P,J1,1*
G04 #@! TO.N,N/C*
X131750000Y-126670000D03*
G04 #@! TD*
G04 #@! TO.P,J1,1*
G04 #@! TO.N,N/C*
X126670000Y-124130000D03*
G04 #@! TD*
G04 #@! TO.P,J1,1*
G04 #@! TO.N,N/C*
X129210000Y-129210000D03*
G04 #@! TD*
G04 #@! TO.P,J1,1*
G04 #@! TO.N,N/C*
X131750000Y-129210000D03*
G04 #@! TD*
G04 #@! TO.P,J1,1*
G04 #@! TO.N,N/C*
X124130000Y-129210000D03*
G04 #@! TD*
G04 #@! TO.P,J1,1*
G04 #@! TO.N,N/C*
X126670000Y-119050000D03*
G04 #@! TD*
G04 #@! TO.P,J1,1*
G04 #@! TO.N,N/C*
X126670000Y-131750000D03*
G04 #@! TD*
G04 #@! TO.P,J1,1*
G04 #@! TO.N,N/C*
X129210000Y-121590000D03*
G04 #@! TD*
G04 #@! TO.P,J1,1*
G04 #@! TO.N,N/C*
X129210000Y-124130000D03*
G04 #@! TD*
G04 #@! TO.P,J1,1*
G04 #@! TO.N,N/C*
X124130000Y-119050000D03*
G04 #@! TD*
G04 #@! TO.P,J1,1*
G04 #@! TO.N,N/C*
X124130000Y-124130000D03*
G04 #@! TD*
G04 #@! TO.P,J1,1*
G04 #@! TO.N,N/C*
X124130000Y-126670000D03*
G04 #@! TD*
G04 #@! TO.P,J1,1*
G04 #@! TO.N,N/C*
X124130000Y-121590000D03*
G04 #@! TD*
G04 #@! TO.P,J1,1*
G04 #@! TO.N,N/C*
X124130000Y-134290000D03*
G04 #@! TD*
G04 #@! TO.P,J1,1*
G04 #@! TO.N,N/C*
X124130000Y-136830000D03*
G04 #@! TD*
G04 #@! TO.P,J1,1*
G04 #@! TO.N,N/C*
X131750000Y-131750000D03*
G04 #@! TD*
G04 #@! TO.P,J1,1*
G04 #@! TO.N,N/C*
X129210000Y-134290000D03*
G04 #@! TD*
G04 #@! TO.P,J1,1*
G04 #@! TO.N,N/C*
X129210000Y-126670000D03*
G04 #@! TD*
G04 #@! TO.P,J1,1*
G04 #@! TO.N,N/C*
X129210000Y-136830000D03*
G04 #@! TD*
G04 #@! TO.P,J1,1*
G04 #@! TO.N,N/C*
X131750000Y-134290000D03*
G04 #@! TD*
G04 #@! TO.P,J1,1*
G04 #@! TO.N,N/C*
X129210000Y-131750000D03*
G04 #@! TD*
G04 #@! TO.P,J1,1*
G04 #@! TO.N,N/C*
X131750000Y-119050000D03*
G04 #@! TD*
G04 #@! TO.P,J1,1*
G04 #@! TO.N,N/C*
X124130000Y-131750000D03*
G04 #@! TD*
G04 #@! TO.P,J1,1*
G04 #@! TO.N,N/C*
X126670000Y-126670000D03*
G04 #@! TD*
G04 #@! TO.P,J1,1*
G04 #@! TO.N,N/C*
X126670000Y-134290000D03*
G04 #@! TD*
G04 #@! TO.P,J1,1*
G04 #@! TO.N,N/C*
X126670000Y-129210000D03*
G04 #@! TD*
G04 #@! TO.P,J1,1*
G04 #@! TO.N,N/C*
X131750000Y-136830000D03*
G04 #@! TD*
G04 #@! TO.P,J1,1*
G04 #@! TO.N,N/C*
X126670000Y-121590000D03*
G04 #@! TD*
G04 #@! TO.P,J1,1*
G04 #@! TO.N,N/C*
X131750000Y-124130000D03*
G04 #@! TD*
G04 #@! TO.P,J1,1*
G04 #@! TO.N,N/C*
X111430000Y-124130000D03*
G04 #@! TD*
G04 #@! TO.P,J1,1*
G04 #@! TO.N,N/C*
X113970000Y-129210000D03*
G04 #@! TD*
G04 #@! TO.P,J1,1*
G04 #@! TO.N,N/C*
X116510000Y-129210000D03*
G04 #@! TD*
G04 #@! TO.P,J1,1*
G04 #@! TO.N,N/C*
X108890000Y-129210000D03*
G04 #@! TD*
G04 #@! TO.P,J1,1*
G04 #@! TO.N,N/C*
X111430000Y-119050000D03*
G04 #@! TD*
G04 #@! TO.P,J1,1*
G04 #@! TO.N,N/C*
X116510000Y-126670000D03*
G04 #@! TD*
G04 #@! TO.P,J1,1*
G04 #@! TO.N,N/C*
X108890000Y-126670000D03*
G04 #@! TD*
G04 #@! TO.P,J1,1*
G04 #@! TO.N,N/C*
X108890000Y-121590000D03*
G04 #@! TD*
G04 #@! TO.P,J1,1*
G04 #@! TO.N,N/C*
X108890000Y-124130000D03*
G04 #@! TD*
G04 #@! TO.P,J1,1*
G04 #@! TO.N,N/C*
X113970000Y-126670000D03*
G04 #@! TD*
G04 #@! TO.P,J1,1*
G04 #@! TO.N,N/C*
X116510000Y-119050000D03*
G04 #@! TD*
G04 #@! TO.P,J1,1*
G04 #@! TO.N,N/C*
X113970000Y-121590000D03*
G04 #@! TD*
G04 #@! TO.P,J1,1*
G04 #@! TO.N,N/C*
X111430000Y-126670000D03*
G04 #@! TD*
G04 #@! TO.P,J1,1*
G04 #@! TO.N,N/C*
X113970000Y-124130000D03*
G04 #@! TD*
G04 #@! TO.P,J1,1*
G04 #@! TO.N,N/C*
X116510000Y-121590000D03*
G04 #@! TD*
G04 #@! TO.P,J1,1*
G04 #@! TO.N,N/C*
X113970000Y-119050000D03*
G04 #@! TD*
G04 #@! TO.P,J1,1*
G04 #@! TO.N,N/C*
X111430000Y-129210000D03*
G04 #@! TD*
G04 #@! TO.P,J1,1*
G04 #@! TO.N,N/C*
X108890000Y-119050000D03*
G04 #@! TD*
G04 #@! TO.P,J1,1*
G04 #@! TO.N,N/C*
X111430000Y-121590000D03*
G04 #@! TD*
G04 #@! TO.P,J1,1*
G04 #@! TO.N,N/C*
X116510000Y-124130000D03*
G04 #@! TD*
G04 #@! TO.P,J1,1*
G04 #@! TO.N,N/C*
X116510000Y-134290000D03*
G04 #@! TD*
G04 #@! TO.P,J1,1*
G04 #@! TO.N,N/C*
X113970000Y-131750000D03*
G04 #@! TD*
G04 #@! TO.P,J1,1*
G04 #@! TO.N,N/C*
X116510000Y-136830000D03*
G04 #@! TD*
G04 #@! TO.P,J1,1*
G04 #@! TO.N,N/C*
X113970000Y-136830000D03*
G04 #@! TD*
G04 #@! TO.P,J1,1*
G04 #@! TO.N,N/C*
X116510000Y-131750000D03*
G04 #@! TD*
G04 #@! TO.P,J1,1*
G04 #@! TO.N,N/C*
X113970000Y-134290000D03*
G04 #@! TD*
G04 #@! TO.P,J1,1*
G04 #@! TO.N,N/C*
X108890000Y-134290000D03*
G04 #@! TD*
G04 #@! TO.P,J1,1*
G04 #@! TO.N,N/C*
X108890000Y-131750000D03*
G04 #@! TD*
G04 #@! TO.P,J1,1*
G04 #@! TO.N,N/C*
X108890000Y-136830000D03*
G04 #@! TD*
G04 #@! TO.P,J1,1*
G04 #@! TO.N,N/C*
X111430000Y-134290000D03*
G04 #@! TD*
G04 #@! TO.P,J1,1*
G04 #@! TO.N,N/C*
X111430000Y-136830000D03*
G04 #@! TD*
G04 #@! TO.P,J1,1*
G04 #@! TO.N,N/C*
X111430000Y-131750000D03*
G04 #@! TD*
G04 #@! TO.P,J1,1*
G04 #@! TO.N,GND*
X103810000Y-124130000D03*
G04 #@! TD*
D11*
G04 #@! TO.P,J3,1*
G04 #@! TO.N,I2C0_SCL*
X129210000Y-113970000D03*
D12*
G04 #@! TO.P,J3,2*
G04 #@! TO.N,I2C0_SDA*
X131750000Y-113970000D03*
G04 #@! TD*
D13*
G04 #@! TO.P,J2,4*
G04 #@! TO.N,SPIO_DOUT*
X124130000Y-113970000D03*
G04 #@! TO.P,J2,3*
G04 #@! TO.N,SPIO_CS*
X121590000Y-113970000D03*
G04 #@! TO.P,J2,2*
G04 #@! TO.N,SPIO_DIN*
X119050000Y-113970000D03*
D14*
G04 #@! TO.P,J2,1*
G04 #@! TO.N,SPIO_SCL*
X116510000Y-113970000D03*
G04 #@! TD*
G04 #@! TO.P,J1,1*
G04 #@! TO.N,UART0_CTS*
X103810000Y-113970000D03*
D13*
G04 #@! TO.P,J1,2*
G04 #@! TO.N,UART0_TX*
X106350000Y-113970000D03*
G04 #@! TO.P,J1,3*
G04 #@! TO.N,UART0_RX*
X108890000Y-113970000D03*
G04 #@! TO.P,J1,4*
G04 #@! TO.N,UART0_RTS*
X111430000Y-113970000D03*
G04 #@! TD*
D14*
G04 #@! TO.P,J4,1*
G04 #@! TO.N,GPIO_A*
X139370000Y-113970000D03*
D13*
G04 #@! TO.P,J4,2*
G04 #@! TO.N,GPIO_B*
X141910000Y-113970000D03*
G04 #@! TO.P,J4,3*
G04 #@! TO.N,GPIO_C*
X144450000Y-113970000D03*
G04 #@! TO.P,J4,4*
G04 #@! TO.N,GPIO_D*
X146990000Y-113970000D03*
G04 #@! TO.P,J4,5*
G04 #@! TO.N,GPIO_E*
X149530000Y-113970000D03*
G04 #@! TO.P,J4,6*
G04 #@! TO.N,GPIO_F*
X152070000Y-113970000D03*
G04 #@! TO.P,J4,7*
G04 #@! TO.N,GPIO_G*
X154610000Y-113970000D03*
G04 #@! TO.P,J4,8*
G04 #@! TO.N,GPIO_H*
X157150000Y-113970000D03*
G04 #@! TO.P,J4,9*
G04 #@! TO.N,GPIO_I*
X159690000Y-113970000D03*
G04 #@! TO.P,J4,10*
G04 #@! TO.N,GPIO_J*
X162230000Y-113970000D03*
G04 #@! TO.P,J4,11*
G04 #@! TO.N,GPIO_K*
X164770000Y-113970000D03*
G04 #@! TO.P,J4,12*
G04 #@! TO.N,GPIO_L*
X167310000Y-113970000D03*
G04 #@! TD*
D15*
G04 #@! TO.P,P1,1*
G04 #@! TO.N,GND*
X110000000Y-105000000D03*
D16*
G04 #@! TO.P,P1,2*
X110000000Y-103000000D03*
G04 #@! TO.P,P1,3*
G04 #@! TO.N,UART0_CTS*
X112000000Y-105000000D03*
G04 #@! TO.P,P1,4*
G04 #@! TO.N,PWR_BTN_N*
X112000000Y-103000000D03*
G04 #@! TO.P,P1,5*
G04 #@! TO.N,UART0_TX*
X114000000Y-105000000D03*
G04 #@! TO.P,P1,6*
G04 #@! TO.N,RST_BTN_N*
X114000000Y-103000000D03*
G04 #@! TO.P,P1,7*
G04 #@! TO.N,UART0_RX*
X116000000Y-105000000D03*
G04 #@! TO.P,P1,8*
G04 #@! TO.N,SPIO_SCL*
X116000000Y-103000000D03*
G04 #@! TO.P,P1,9*
G04 #@! TO.N,UART0_RTS*
X118000000Y-105000000D03*
G04 #@! TO.P,P1,10*
G04 #@! TO.N,SPIO_DIN*
X118000000Y-103000000D03*
G04 #@! TO.P,P1,11*
G04 #@! TO.N,UART1_TX*
X120000000Y-105000000D03*
G04 #@! TO.P,P1,12*
G04 #@! TO.N,SPIO_CS*
X120000000Y-103000000D03*
G04 #@! TO.P,P1,13*
G04 #@! TO.N,UART1_RX*
X122000000Y-105000000D03*
G04 #@! TO.P,P1,14*
G04 #@! TO.N,SPIO_DOUT*
X122000000Y-103000000D03*
G04 #@! TO.P,P1,15*
G04 #@! TO.N,I2C0_SCL*
X124000000Y-105000000D03*
G04 #@! TO.P,P1,16*
G04 #@! TO.N,PCM_FS*
X124000000Y-103000000D03*
G04 #@! TO.P,P1,17*
G04 #@! TO.N,I2C0_SDA*
X126000000Y-105000000D03*
G04 #@! TO.P,P1,18*
G04 #@! TO.N,PCM_CLK*
X126000000Y-103000000D03*
G04 #@! TO.P,P1,19*
G04 #@! TO.N,I2C1_SCL*
X128000000Y-105000000D03*
G04 #@! TO.P,P1,20*
G04 #@! TO.N,PCM_DO*
X128000000Y-103000000D03*
G04 #@! TO.P,P1,21*
G04 #@! TO.N,I2C1_SDA*
X130000000Y-105000000D03*
G04 #@! TO.P,P1,22*
G04 #@! TO.N,PCM_DI*
X130000000Y-103000000D03*
G04 #@! TO.P,P1,23*
G04 #@! TO.N,GPIO_A*
X132000000Y-105000000D03*
G04 #@! TO.P,P1,24*
G04 #@! TO.N,GPIO_B*
X132000000Y-103000000D03*
G04 #@! TO.P,P1,25*
G04 #@! TO.N,GPIO_C*
X134000000Y-105000000D03*
G04 #@! TO.P,P1,26*
G04 #@! TO.N,GPIO_D*
X134000000Y-103000000D03*
G04 #@! TO.P,P1,27*
G04 #@! TO.N,GPIO_E*
X136000000Y-105000000D03*
G04 #@! TO.P,P1,28*
G04 #@! TO.N,GPIO_F*
X136000000Y-103000000D03*
G04 #@! TO.P,P1,29*
G04 #@! TO.N,GPIO_G*
X138000000Y-105000000D03*
G04 #@! TO.P,P1,30*
G04 #@! TO.N,GPIO_H*
X138000000Y-103000000D03*
G04 #@! TO.P,P1,31*
G04 #@! TO.N,GPIO_I*
X140000000Y-105000000D03*
G04 #@! TO.P,P1,32*
G04 #@! TO.N,GPIO_J*
X140000000Y-103000000D03*
G04 #@! TO.P,P1,33*
G04 #@! TO.N,GPIO_K*
X142000000Y-105000000D03*
G04 #@! TO.P,P1,34*
G04 #@! TO.N,GPIO_L*
X142000000Y-103000000D03*
G04 #@! TO.P,P1,35*
G04 #@! TO.N,+1V8*
X144000000Y-105000000D03*
G04 #@! TO.P,P1,36*
G04 #@! TO.N,SYS_DCIN*
X144000000Y-103000000D03*
G04 #@! TO.P,P1,37*
G04 #@! TO.N,+5V*
X146000000Y-105000000D03*
G04 #@! TO.P,P1,38*
G04 #@! TO.N,SYS_DCIN*
X146000000Y-103000000D03*
G04 #@! TO.P,P1,39*
G04 #@! TO.N,GND*
X148000000Y-105000000D03*
G04 #@! TO.P,P1,40*
X148000000Y-103000000D03*
G04 #@! TD*
D17*
G04 #@! TO.P,REF\002A\002A,1*
G04 #@! TO.N,N/C*
X104000000Y-135500000D03*
G04 #@! TD*
G04 #@! TO.P,REF\002A\002A,1*
G04 #@! TO.N,N/C*
X181000000Y-135500000D03*
G04 #@! TD*
G04 #@! TO.P,REF\002A\002A,1*
G04 #@! TO.N,N/C*
X181000000Y-104000000D03*
G04 #@! TD*
G04 #@! TO.P,REF\002A\002A,1*
G04 #@! TO.N,N/C*
X104000000Y-104000000D03*
G04 #@! TD*
D18*
G04 #@! TO.N,*
X108890000Y-119050000D02*
X116510000Y-119050000D01*
X108890000Y-121590000D02*
X116510000Y-121590000D01*
X108890000Y-124130000D02*
X116510000Y-124130000D01*
X108890000Y-126670000D02*
X116510000Y-126670000D01*
X108890000Y-129210000D02*
X116510000Y-129210000D01*
X108890000Y-131750000D02*
X116510000Y-131750000D01*
X108890000Y-134290000D02*
X116510000Y-134290000D01*
X108890000Y-136830000D02*
X116510000Y-136830000D01*
X174930000Y-136830000D02*
X167310000Y-136830000D01*
X167310000Y-134290000D02*
X174930000Y-134290000D01*
X174930000Y-131750000D02*
X167310000Y-131750000D01*
X167310000Y-129210000D02*
X174930000Y-129210000D01*
X174930000Y-126670000D02*
X167310000Y-126670000D01*
X167310000Y-124130000D02*
X174930000Y-124130000D01*
X174930000Y-121590000D02*
X167310000Y-121590000D01*
X167310000Y-119050000D02*
X174930000Y-119050000D01*
X152070000Y-136830000D02*
X159690000Y-136830000D01*
X152070000Y-134290000D02*
X159690000Y-134290000D01*
X152070000Y-131750000D02*
X159690000Y-131750000D01*
X152070000Y-129210000D02*
X159690000Y-129210000D01*
X152070000Y-126670000D02*
X159690000Y-126670000D01*
X152070000Y-124130000D02*
X159690000Y-124130000D01*
X152070000Y-121590000D02*
X159690000Y-121590000D01*
X152070000Y-119050000D02*
X159690000Y-119050000D01*
X124130000Y-136830000D02*
X131750000Y-136830000D01*
X124130000Y-134290000D02*
X131750000Y-134290000D01*
X124130000Y-131750000D02*
X131750000Y-131750000D01*
X124130000Y-129210000D02*
X131750000Y-129210000D01*
X124130000Y-126670000D02*
X131750000Y-126670000D01*
X124130000Y-124130000D02*
X131750000Y-124130000D01*
X124130000Y-121590000D02*
X131750000Y-121590000D01*
X124130000Y-119050000D02*
X131750000Y-119050000D01*
D19*
G04 #@! TO.N,+1V8*
X136830000Y-121590000D02*
X136830000Y-119050000D01*
X136830000Y-124130000D02*
X136830000Y-121590000D01*
X136830000Y-126670000D02*
X136830000Y-124130000D01*
X136830000Y-129210000D02*
X136830000Y-126670000D01*
X136830000Y-131750000D02*
X136830000Y-129210000D01*
X136830000Y-134290000D02*
X136830000Y-131750000D01*
X136830000Y-136830000D02*
X136830000Y-134290000D01*
X144000000Y-105000000D02*
X144000000Y-106800000D01*
X144000000Y-106800000D02*
X143180000Y-107620000D01*
X143180000Y-107620000D02*
X135560000Y-107620000D01*
X135560000Y-107620000D02*
X134290000Y-108890000D01*
X134290000Y-108890000D02*
X134290000Y-116510000D01*
X134290000Y-116510000D02*
X136830000Y-119050000D01*
G04 #@! TO.N,+5V*
X146990000Y-121590000D02*
X146990000Y-119050000D01*
X146990000Y-124130000D02*
X146990000Y-121590000D01*
X146990000Y-126670000D02*
X146990000Y-124130000D01*
X146990000Y-129210000D02*
X146990000Y-126670000D01*
X146990000Y-131750000D02*
X146990000Y-129210000D01*
X146990000Y-134290000D02*
X146990000Y-131750000D01*
X146990000Y-136830000D02*
X146990000Y-134290000D01*
X146000000Y-105000000D02*
X146000000Y-108610000D01*
X146000000Y-108610000D02*
X144450000Y-110160000D01*
X144450000Y-110160000D02*
X138100000Y-110160000D01*
X138100000Y-110160000D02*
X136830000Y-111430000D01*
X144450000Y-116510000D02*
X146990000Y-119050000D01*
X136830000Y-111430000D02*
X136830000Y-115240000D01*
X136830000Y-115240000D02*
X138100000Y-116510000D01*
X138100000Y-116510000D02*
X144450000Y-116510000D01*
D20*
G04 #@! TO.N,I2C0_SCL*
X129210000Y-109044940D02*
X129210000Y-113970000D01*
X124000000Y-105000000D02*
X124000000Y-107718600D01*
X124000000Y-107718600D02*
X124765000Y-108483600D01*
X124765000Y-108483600D02*
X128648660Y-108483600D01*
X128648660Y-108483600D02*
X129210000Y-109044940D01*
G04 #@! TO.N,I2C0_SDA*
X131750000Y-108536940D02*
X131750000Y-113970000D01*
X130883860Y-107670800D02*
X131750000Y-108536940D01*
X126492200Y-107670800D02*
X130883860Y-107670800D01*
X126492200Y-107670800D02*
X126000000Y-107178600D01*
X126000000Y-107178600D02*
X126000000Y-105000000D01*
D19*
G04 #@! TO.N,SYS_DCIN*
X144000000Y-103000000D02*
X146000000Y-103000000D01*
D20*
G04 #@! TO.N,UART0_CTS*
X103810000Y-108569960D02*
X103810000Y-113970000D01*
X111430000Y-107620000D02*
X106123940Y-107620000D01*
X106123940Y-107620000D02*
X105842000Y-107620000D01*
X104759960Y-107620000D02*
X106123940Y-107620000D01*
X104759960Y-107620000D02*
X103810000Y-108569960D01*
X112000000Y-105000000D02*
X112000000Y-107050000D01*
X112000000Y-107050000D02*
X111430000Y-107620000D01*
G04 #@! TO.N,UART0_TX*
X106350000Y-109540240D02*
X106350000Y-113970000D01*
X113309600Y-108890000D02*
X108968740Y-108890000D01*
X108968740Y-108890000D02*
X108356600Y-108890000D01*
X107000240Y-108890000D02*
X108968740Y-108890000D01*
X107000240Y-108890000D02*
X106350000Y-109540240D01*
X114000000Y-105000000D02*
X114000000Y-108199600D01*
X114000000Y-108199600D02*
X113309600Y-108890000D01*
G04 #@! TO.N,UART0_RX*
X108890000Y-110457180D02*
X108890000Y-113970000D01*
X115417800Y-109652000D02*
X111089640Y-109652000D01*
X111089640Y-109652000D02*
X110718800Y-109652000D01*
X109695180Y-109652000D02*
X111089640Y-109652000D01*
X109695180Y-109652000D02*
X108890000Y-110457180D01*
X116000000Y-105000000D02*
X116000000Y-105848528D01*
X116000000Y-105848528D02*
X116002000Y-105850528D01*
X116002000Y-105850528D02*
X116002000Y-109067800D01*
X116002000Y-109067800D02*
X115417800Y-109652000D01*
G04 #@! TO.N,UART0_RTS*
X111430000Y-111226800D02*
X111430000Y-113970000D01*
X113258800Y-110515600D02*
X113934440Y-110515600D01*
X113934440Y-110515600D02*
X117322800Y-110515600D01*
X112141200Y-110515600D02*
X113934440Y-110515600D01*
X112141200Y-110515600D02*
X111430000Y-111226800D01*
X117322800Y-110515600D02*
X118000000Y-109838400D01*
X118000000Y-109838400D02*
X118000000Y-105000000D01*
G04 #@! TD*
G04 #@! TO.N,GND*
G36*
X184569001Y-141569000D02*
X100431000Y-141569000D01*
X100431000Y-135125846D01*
X102119000Y-135125846D01*
X102119000Y-135874154D01*
X102405365Y-136565501D01*
X102934499Y-137094635D01*
X103625846Y-137381000D01*
X104374154Y-137381000D01*
X105065501Y-137094635D01*
X105594635Y-136565501D01*
X105881000Y-135874154D01*
X105881000Y-135125846D01*
X105594635Y-134434499D01*
X105065501Y-133905365D01*
X104374154Y-133619000D01*
X103625846Y-133619000D01*
X102934499Y-133905365D01*
X102405365Y-134434499D01*
X102119000Y-135125846D01*
X100431000Y-135125846D01*
X100431000Y-132775332D01*
X102964273Y-132775332D01*
X103078857Y-132972397D01*
X103602302Y-133159144D01*
X104157368Y-133131362D01*
X104541143Y-132972397D01*
X104655727Y-132775332D01*
X103810000Y-131929605D01*
X102964273Y-132775332D01*
X100431000Y-132775332D01*
X100431000Y-131542302D01*
X102400856Y-131542302D01*
X102428638Y-132097368D01*
X102587603Y-132481143D01*
X102784668Y-132595727D01*
X103630395Y-131750000D01*
X103989605Y-131750000D01*
X104835332Y-132595727D01*
X105032397Y-132481143D01*
X105219144Y-131957698D01*
X105191362Y-131402632D01*
X105032397Y-131018857D01*
X104835332Y-130904273D01*
X103989605Y-131750000D01*
X103630395Y-131750000D01*
X102784668Y-130904273D01*
X102587603Y-131018857D01*
X102400856Y-131542302D01*
X100431000Y-131542302D01*
X100431000Y-130235332D01*
X102964273Y-130235332D01*
X103078857Y-130432397D01*
X103202344Y-130476453D01*
X103078857Y-130527603D01*
X102964273Y-130724668D01*
X103810000Y-131570395D01*
X104655727Y-130724668D01*
X104541143Y-130527603D01*
X104417656Y-130483547D01*
X104541143Y-130432397D01*
X104655727Y-130235332D01*
X103810000Y-129389605D01*
X102964273Y-130235332D01*
X100431000Y-130235332D01*
X100431000Y-129002302D01*
X102400856Y-129002302D01*
X102428638Y-129557368D01*
X102587603Y-129941143D01*
X102784668Y-130055727D01*
X103630395Y-129210000D01*
X103989605Y-129210000D01*
X104835332Y-130055727D01*
X105032397Y-129941143D01*
X105219144Y-129417698D01*
X105191362Y-128862632D01*
X105032397Y-128478857D01*
X104835332Y-128364273D01*
X103989605Y-129210000D01*
X103630395Y-129210000D01*
X102784668Y-128364273D01*
X102587603Y-128478857D01*
X102400856Y-129002302D01*
X100431000Y-129002302D01*
X100431000Y-127695332D01*
X102964273Y-127695332D01*
X103078857Y-127892397D01*
X103202344Y-127936453D01*
X103078857Y-127987603D01*
X102964273Y-128184668D01*
X103810000Y-129030395D01*
X104655727Y-128184668D01*
X104541143Y-127987603D01*
X104417656Y-127943547D01*
X104541143Y-127892397D01*
X104655727Y-127695332D01*
X103810000Y-126849605D01*
X102964273Y-127695332D01*
X100431000Y-127695332D01*
X100431000Y-126462302D01*
X102400856Y-126462302D01*
X102428638Y-127017368D01*
X102587603Y-127401143D01*
X102784668Y-127515727D01*
X103630395Y-126670000D01*
X103989605Y-126670000D01*
X104835332Y-127515727D01*
X105032397Y-127401143D01*
X105219144Y-126877698D01*
X105191362Y-126322632D01*
X105032397Y-125938857D01*
X104835332Y-125824273D01*
X103989605Y-126670000D01*
X103630395Y-126670000D01*
X102784668Y-125824273D01*
X102587603Y-125938857D01*
X102400856Y-126462302D01*
X100431000Y-126462302D01*
X100431000Y-125155332D01*
X102964273Y-125155332D01*
X103078857Y-125352397D01*
X103202344Y-125396453D01*
X103078857Y-125447603D01*
X102964273Y-125644668D01*
X103810000Y-126490395D01*
X104655727Y-125644668D01*
X104541143Y-125447603D01*
X104417656Y-125403547D01*
X104541143Y-125352397D01*
X104655727Y-125155332D01*
X103810000Y-124309605D01*
X102964273Y-125155332D01*
X100431000Y-125155332D01*
X100431000Y-123922302D01*
X102400856Y-123922302D01*
X102428638Y-124477368D01*
X102587603Y-124861143D01*
X102784668Y-124975727D01*
X103630395Y-124130000D01*
X103989605Y-124130000D01*
X104835332Y-124975727D01*
X105032397Y-124861143D01*
X105219144Y-124337698D01*
X105191362Y-123782632D01*
X105032397Y-123398857D01*
X104835332Y-123284273D01*
X103989605Y-124130000D01*
X103630395Y-124130000D01*
X102784668Y-123284273D01*
X102587603Y-123398857D01*
X102400856Y-123922302D01*
X100431000Y-123922302D01*
X100431000Y-122615332D01*
X102964273Y-122615332D01*
X103078857Y-122812397D01*
X103202344Y-122856453D01*
X103078857Y-122907603D01*
X102964273Y-123104668D01*
X103810000Y-123950395D01*
X104655727Y-123104668D01*
X104541143Y-122907603D01*
X104417656Y-122863547D01*
X104541143Y-122812397D01*
X104655727Y-122615332D01*
X103810000Y-121769605D01*
X102964273Y-122615332D01*
X100431000Y-122615332D01*
X100431000Y-121382302D01*
X102400856Y-121382302D01*
X102428638Y-121937368D01*
X102587603Y-122321143D01*
X102784668Y-122435727D01*
X103630395Y-121590000D01*
X103989605Y-121590000D01*
X104835332Y-122435727D01*
X105032397Y-122321143D01*
X105219144Y-121797698D01*
X105191362Y-121242632D01*
X105032397Y-120858857D01*
X104835332Y-120744273D01*
X103989605Y-121590000D01*
X103630395Y-121590000D01*
X102784668Y-120744273D01*
X102587603Y-120858857D01*
X102400856Y-121382302D01*
X100431000Y-121382302D01*
X100431000Y-120075332D01*
X102964273Y-120075332D01*
X103078857Y-120272397D01*
X103202344Y-120316453D01*
X103078857Y-120367603D01*
X102964273Y-120564668D01*
X103810000Y-121410395D01*
X104655727Y-120564668D01*
X104541143Y-120367603D01*
X104417656Y-120323547D01*
X104541143Y-120272397D01*
X104655727Y-120075332D01*
X103810000Y-119229605D01*
X102964273Y-120075332D01*
X100431000Y-120075332D01*
X100431000Y-118842302D01*
X102400856Y-118842302D01*
X102428638Y-119397368D01*
X102587603Y-119781143D01*
X102784668Y-119895727D01*
X103630395Y-119050000D01*
X103989605Y-119050000D01*
X104835332Y-119895727D01*
X105032397Y-119781143D01*
X105219144Y-119257698D01*
X105194840Y-118772119D01*
X107493000Y-118772119D01*
X107493000Y-119327881D01*
X107705680Y-119841337D01*
X108098663Y-120234320D01*
X108305513Y-120320000D01*
X108098663Y-120405680D01*
X107705680Y-120798663D01*
X107493000Y-121312119D01*
X107493000Y-121867881D01*
X107705680Y-122381337D01*
X108098663Y-122774320D01*
X108305513Y-122860000D01*
X108098663Y-122945680D01*
X107705680Y-123338663D01*
X107493000Y-123852119D01*
X107493000Y-124407881D01*
X107705680Y-124921337D01*
X108098663Y-125314320D01*
X108305513Y-125400000D01*
X108098663Y-125485680D01*
X107705680Y-125878663D01*
X107493000Y-126392119D01*
X107493000Y-126947881D01*
X107705680Y-127461337D01*
X108098663Y-127854320D01*
X108305513Y-127940000D01*
X108098663Y-128025680D01*
X107705680Y-128418663D01*
X107493000Y-128932119D01*
X107493000Y-129487881D01*
X107705680Y-130001337D01*
X108098663Y-130394320D01*
X108305513Y-130480000D01*
X108098663Y-130565680D01*
X107705680Y-130958663D01*
X107493000Y-131472119D01*
X107493000Y-132027881D01*
X107705680Y-132541337D01*
X108098663Y-132934320D01*
X108305513Y-133020000D01*
X108098663Y-133105680D01*
X107705680Y-133498663D01*
X107493000Y-134012119D01*
X107493000Y-134567881D01*
X107705680Y-135081337D01*
X108098663Y-135474320D01*
X108305513Y-135560000D01*
X108098663Y-135645680D01*
X107705680Y-136038663D01*
X107493000Y-136552119D01*
X107493000Y-137107881D01*
X107705680Y-137621337D01*
X108098663Y-138014320D01*
X108612119Y-138227000D01*
X109167881Y-138227000D01*
X109681337Y-138014320D01*
X110074320Y-137621337D01*
X110112774Y-137528500D01*
X110207226Y-137528500D01*
X110245680Y-137621337D01*
X110638663Y-138014320D01*
X111152119Y-138227000D01*
X111707881Y-138227000D01*
X112221337Y-138014320D01*
X112614320Y-137621337D01*
X112652774Y-137528500D01*
X112747226Y-137528500D01*
X112785680Y-137621337D01*
X113178663Y-138014320D01*
X113692119Y-138227000D01*
X114247881Y-138227000D01*
X114761337Y-138014320D01*
X115154320Y-137621337D01*
X115192774Y-137528500D01*
X115287226Y-137528500D01*
X115325680Y-137621337D01*
X115718663Y-138014320D01*
X116232119Y-138227000D01*
X116787881Y-138227000D01*
X117301337Y-138014320D01*
X117694320Y-137621337D01*
X117907000Y-137107881D01*
X117907000Y-136552119D01*
X117694320Y-136038663D01*
X117301337Y-135645680D01*
X117094487Y-135560000D01*
X117301337Y-135474320D01*
X117694320Y-135081337D01*
X117907000Y-134567881D01*
X117907000Y-134012119D01*
X117694320Y-133498663D01*
X117301337Y-133105680D01*
X117094487Y-133020000D01*
X117301337Y-132934320D01*
X117694320Y-132541337D01*
X117907000Y-132027881D01*
X117907000Y-131472119D01*
X117694320Y-130958663D01*
X117301337Y-130565680D01*
X117094487Y-130480000D01*
X117301337Y-130394320D01*
X117694320Y-130001337D01*
X117907000Y-129487881D01*
X117907000Y-128932119D01*
X117694320Y-128418663D01*
X117301337Y-128025680D01*
X117094487Y-127940000D01*
X117301337Y-127854320D01*
X117694320Y-127461337D01*
X117907000Y-126947881D01*
X117907000Y-126392119D01*
X117694320Y-125878663D01*
X117301337Y-125485680D01*
X117094487Y-125400000D01*
X117301337Y-125314320D01*
X117694320Y-124921337D01*
X117907000Y-124407881D01*
X117907000Y-123852119D01*
X117694320Y-123338663D01*
X117301337Y-122945680D01*
X117094487Y-122860000D01*
X117301337Y-122774320D01*
X117694320Y-122381337D01*
X117907000Y-121867881D01*
X117907000Y-121312119D01*
X117694320Y-120798663D01*
X117301337Y-120405680D01*
X117094487Y-120320000D01*
X117301337Y-120234320D01*
X117694320Y-119841337D01*
X117907000Y-119327881D01*
X117907000Y-118772119D01*
X122733000Y-118772119D01*
X122733000Y-119327881D01*
X122945680Y-119841337D01*
X123338663Y-120234320D01*
X123545513Y-120320000D01*
X123338663Y-120405680D01*
X122945680Y-120798663D01*
X122733000Y-121312119D01*
X122733000Y-121867881D01*
X122945680Y-122381337D01*
X123338663Y-122774320D01*
X123545513Y-122860000D01*
X123338663Y-122945680D01*
X122945680Y-123338663D01*
X122733000Y-123852119D01*
X122733000Y-124407881D01*
X122945680Y-124921337D01*
X123338663Y-125314320D01*
X123545513Y-125400000D01*
X123338663Y-125485680D01*
X122945680Y-125878663D01*
X122733000Y-126392119D01*
X122733000Y-126947881D01*
X122945680Y-127461337D01*
X123338663Y-127854320D01*
X123545513Y-127940000D01*
X123338663Y-128025680D01*
X122945680Y-128418663D01*
X122733000Y-128932119D01*
X122733000Y-129487881D01*
X122945680Y-130001337D01*
X123338663Y-130394320D01*
X123545513Y-130480000D01*
X123338663Y-130565680D01*
X122945680Y-130958663D01*
X122733000Y-131472119D01*
X122733000Y-132027881D01*
X122945680Y-132541337D01*
X123338663Y-132934320D01*
X123545513Y-133020000D01*
X123338663Y-133105680D01*
X122945680Y-133498663D01*
X122733000Y-134012119D01*
X122733000Y-134567881D01*
X122945680Y-135081337D01*
X123338663Y-135474320D01*
X123545513Y-135560000D01*
X123338663Y-135645680D01*
X122945680Y-136038663D01*
X122733000Y-136552119D01*
X122733000Y-137107881D01*
X122945680Y-137621337D01*
X123338663Y-138014320D01*
X123852119Y-138227000D01*
X124407881Y-138227000D01*
X124921337Y-138014320D01*
X125314320Y-137621337D01*
X125352774Y-137528500D01*
X125447226Y-137528500D01*
X125485680Y-137621337D01*
X125878663Y-138014320D01*
X126392119Y-138227000D01*
X126947881Y-138227000D01*
X127461337Y-138014320D01*
X127854320Y-137621337D01*
X127892774Y-137528500D01*
X127987226Y-137528500D01*
X128025680Y-137621337D01*
X128418663Y-138014320D01*
X128932119Y-138227000D01*
X129487881Y-138227000D01*
X130001337Y-138014320D01*
X130394320Y-137621337D01*
X130432774Y-137528500D01*
X130527226Y-137528500D01*
X130565680Y-137621337D01*
X130958663Y-138014320D01*
X131472119Y-138227000D01*
X132027881Y-138227000D01*
X132541337Y-138014320D01*
X132934320Y-137621337D01*
X133147000Y-137107881D01*
X133147000Y-136552119D01*
X132934320Y-136038663D01*
X132541337Y-135645680D01*
X132334487Y-135560000D01*
X132541337Y-135474320D01*
X132934320Y-135081337D01*
X133147000Y-134567881D01*
X133147000Y-134012119D01*
X132934320Y-133498663D01*
X132541337Y-133105680D01*
X132334487Y-133020000D01*
X132541337Y-132934320D01*
X132934320Y-132541337D01*
X133147000Y-132027881D01*
X133147000Y-131472119D01*
X132934320Y-130958663D01*
X132541337Y-130565680D01*
X132334487Y-130480000D01*
X132541337Y-130394320D01*
X132934320Y-130001337D01*
X133147000Y-129487881D01*
X133147000Y-128932119D01*
X132934320Y-128418663D01*
X132541337Y-128025680D01*
X132334487Y-127940000D01*
X132541337Y-127854320D01*
X132934320Y-127461337D01*
X133147000Y-126947881D01*
X133147000Y-126392119D01*
X132934320Y-125878663D01*
X132541337Y-125485680D01*
X132334487Y-125400000D01*
X132541337Y-125314320D01*
X132934320Y-124921337D01*
X133147000Y-124407881D01*
X133147000Y-123852119D01*
X132934320Y-123338663D01*
X132541337Y-122945680D01*
X132334487Y-122860000D01*
X132541337Y-122774320D01*
X132934320Y-122381337D01*
X133147000Y-121867881D01*
X133147000Y-121312119D01*
X132934320Y-120798663D01*
X132541337Y-120405680D01*
X132334487Y-120320000D01*
X132541337Y-120234320D01*
X132934320Y-119841337D01*
X133147000Y-119327881D01*
X133147000Y-118772119D01*
X132934320Y-118258663D01*
X132541337Y-117865680D01*
X132027881Y-117653000D01*
X131472119Y-117653000D01*
X130958663Y-117865680D01*
X130565680Y-118258663D01*
X130527226Y-118351500D01*
X130432774Y-118351500D01*
X130394320Y-118258663D01*
X130001337Y-117865680D01*
X129487881Y-117653000D01*
X128932119Y-117653000D01*
X128418663Y-117865680D01*
X128025680Y-118258663D01*
X127987226Y-118351500D01*
X127892774Y-118351500D01*
X127854320Y-118258663D01*
X127461337Y-117865680D01*
X126947881Y-117653000D01*
X126392119Y-117653000D01*
X125878663Y-117865680D01*
X125485680Y-118258663D01*
X125447226Y-118351500D01*
X125352774Y-118351500D01*
X125314320Y-118258663D01*
X124921337Y-117865680D01*
X124407881Y-117653000D01*
X123852119Y-117653000D01*
X123338663Y-117865680D01*
X122945680Y-118258663D01*
X122733000Y-118772119D01*
X117907000Y-118772119D01*
X117694320Y-118258663D01*
X117301337Y-117865680D01*
X116787881Y-117653000D01*
X116232119Y-117653000D01*
X115718663Y-117865680D01*
X115325680Y-118258663D01*
X115287226Y-118351500D01*
X115192774Y-118351500D01*
X115154320Y-118258663D01*
X114761337Y-117865680D01*
X114247881Y-117653000D01*
X113692119Y-117653000D01*
X113178663Y-117865680D01*
X112785680Y-118258663D01*
X112747226Y-118351500D01*
X112652774Y-118351500D01*
X112614320Y-118258663D01*
X112221337Y-117865680D01*
X111707881Y-117653000D01*
X111152119Y-117653000D01*
X110638663Y-117865680D01*
X110245680Y-118258663D01*
X110207226Y-118351500D01*
X110112774Y-118351500D01*
X110074320Y-118258663D01*
X109681337Y-117865680D01*
X109167881Y-117653000D01*
X108612119Y-117653000D01*
X108098663Y-117865680D01*
X107705680Y-118258663D01*
X107493000Y-118772119D01*
X105194840Y-118772119D01*
X105191362Y-118702632D01*
X105032397Y-118318857D01*
X104835332Y-118204273D01*
X103989605Y-119050000D01*
X103630395Y-119050000D01*
X102784668Y-118204273D01*
X102587603Y-118318857D01*
X102400856Y-118842302D01*
X100431000Y-118842302D01*
X100431000Y-118024668D01*
X102964273Y-118024668D01*
X103810000Y-118870395D01*
X104655727Y-118024668D01*
X104541143Y-117827603D01*
X104017698Y-117640856D01*
X103462632Y-117668638D01*
X103078857Y-117827603D01*
X102964273Y-118024668D01*
X100431000Y-118024668D01*
X100431000Y-112954000D01*
X102557936Y-112954000D01*
X102557936Y-114986000D01*
X102587506Y-115134659D01*
X102671714Y-115260686D01*
X102797741Y-115344894D01*
X102946400Y-115374464D01*
X104673600Y-115374464D01*
X104822259Y-115344894D01*
X104948286Y-115260686D01*
X105032494Y-115134659D01*
X105062064Y-114986000D01*
X105062064Y-113695020D01*
X105105400Y-113695020D01*
X105105400Y-114244981D01*
X105177613Y-114608019D01*
X105452695Y-115019706D01*
X105864382Y-115294787D01*
X106350000Y-115391383D01*
X106835619Y-115294787D01*
X107247306Y-115019706D01*
X107522387Y-114608018D01*
X107594600Y-114244980D01*
X107594600Y-113695019D01*
X107522387Y-113331981D01*
X107247306Y-112920294D01*
X106858000Y-112660168D01*
X106858000Y-109750660D01*
X107210661Y-109398000D01*
X109230760Y-109398000D01*
X108566168Y-110062592D01*
X108523753Y-110090933D01*
X108411475Y-110258969D01*
X108382000Y-110407149D01*
X108382000Y-110407152D01*
X108372049Y-110457180D01*
X108382000Y-110507208D01*
X108382001Y-112660167D01*
X107992694Y-112920294D01*
X107717613Y-113331982D01*
X107645400Y-113695020D01*
X107645400Y-114244981D01*
X107717613Y-114608019D01*
X107992695Y-115019706D01*
X108404382Y-115294787D01*
X108890000Y-115391383D01*
X109375619Y-115294787D01*
X109787306Y-115019706D01*
X110062387Y-114608018D01*
X110134600Y-114244980D01*
X110134600Y-113695019D01*
X110062387Y-113331981D01*
X109787306Y-112920294D01*
X109398000Y-112660168D01*
X109398000Y-110667600D01*
X109905600Y-110160000D01*
X111767839Y-110160000D01*
X111746614Y-110191765D01*
X111106168Y-110832212D01*
X111063753Y-110860553D01*
X110951475Y-111028589D01*
X110922000Y-111176769D01*
X110922000Y-111176772D01*
X110912049Y-111226800D01*
X110922000Y-111276828D01*
X110922001Y-112660167D01*
X110532694Y-112920294D01*
X110257613Y-113331982D01*
X110185400Y-113695020D01*
X110185400Y-114244981D01*
X110257613Y-114608019D01*
X110532695Y-115019706D01*
X110944382Y-115294787D01*
X111430000Y-115391383D01*
X111915619Y-115294787D01*
X112327306Y-115019706D01*
X112602387Y-114608018D01*
X112674600Y-114244980D01*
X112674600Y-113695019D01*
X112602387Y-113331981D01*
X112349828Y-112954000D01*
X115257936Y-112954000D01*
X115257936Y-114986000D01*
X115287506Y-115134659D01*
X115371714Y-115260686D01*
X115497741Y-115344894D01*
X115646400Y-115374464D01*
X117373600Y-115374464D01*
X117522259Y-115344894D01*
X117648286Y-115260686D01*
X117732494Y-115134659D01*
X117762064Y-114986000D01*
X117762064Y-113695020D01*
X117805400Y-113695020D01*
X117805400Y-114244981D01*
X117877613Y-114608019D01*
X118152695Y-115019706D01*
X118564382Y-115294787D01*
X119050000Y-115391383D01*
X119535619Y-115294787D01*
X119947306Y-115019706D01*
X120222387Y-114608018D01*
X120294600Y-114244980D01*
X120294600Y-113695020D01*
X120345400Y-113695020D01*
X120345400Y-114244981D01*
X120417613Y-114608019D01*
X120692695Y-115019706D01*
X121104382Y-115294787D01*
X121590000Y-115391383D01*
X122075619Y-115294787D01*
X122487306Y-115019706D01*
X122762387Y-114608018D01*
X122834600Y-114244980D01*
X122834600Y-113695020D01*
X122885400Y-113695020D01*
X122885400Y-114244981D01*
X122957613Y-114608019D01*
X123232695Y-115019706D01*
X123644382Y-115294787D01*
X124130000Y-115391383D01*
X124615619Y-115294787D01*
X125027306Y-115019706D01*
X125302387Y-114608018D01*
X125374600Y-114244980D01*
X125374600Y-113695019D01*
X125302387Y-113331981D01*
X125027306Y-112920294D01*
X124615618Y-112645213D01*
X124130000Y-112548617D01*
X123644381Y-112645213D01*
X123232694Y-112920294D01*
X122957613Y-113331982D01*
X122885400Y-113695020D01*
X122834600Y-113695020D01*
X122834600Y-113695019D01*
X122762387Y-113331981D01*
X122487306Y-112920294D01*
X122075618Y-112645213D01*
X121590000Y-112548617D01*
X121104381Y-112645213D01*
X120692694Y-112920294D01*
X120417613Y-113331982D01*
X120345400Y-113695020D01*
X120294600Y-113695020D01*
X120294600Y-113695019D01*
X120222387Y-113331981D01*
X119947306Y-112920294D01*
X119535618Y-112645213D01*
X119050000Y-112548617D01*
X118564381Y-112645213D01*
X118152694Y-112920294D01*
X117877613Y-113331982D01*
X117805400Y-113695020D01*
X117762064Y-113695020D01*
X117762064Y-112954000D01*
X117732494Y-112805341D01*
X117648286Y-112679314D01*
X117522259Y-112595106D01*
X117373600Y-112565536D01*
X115646400Y-112565536D01*
X115497741Y-112595106D01*
X115371714Y-112679314D01*
X115287506Y-112805341D01*
X115257936Y-112954000D01*
X112349828Y-112954000D01*
X112327306Y-112920294D01*
X111938000Y-112660168D01*
X111938000Y-111437220D01*
X112351621Y-111023600D01*
X117272772Y-111023600D01*
X117322800Y-111033551D01*
X117372828Y-111023600D01*
X117372832Y-111023600D01*
X117521012Y-110994125D01*
X117689047Y-110881847D01*
X117717388Y-110839432D01*
X118323833Y-110232987D01*
X118366247Y-110204647D01*
X118478525Y-110036612D01*
X118508000Y-109888432D01*
X118508000Y-109888429D01*
X118517951Y-109838401D01*
X118508000Y-109788373D01*
X118508000Y-105851407D01*
X118555692Y-105831652D01*
X118831652Y-105555692D01*
X118981000Y-105195133D01*
X118981000Y-104804867D01*
X119019000Y-104804867D01*
X119019000Y-105195133D01*
X119168348Y-105555692D01*
X119444308Y-105831652D01*
X119804867Y-105981000D01*
X120195133Y-105981000D01*
X120555692Y-105831652D01*
X120831652Y-105555692D01*
X120981000Y-105195133D01*
X120981000Y-104804867D01*
X121019000Y-104804867D01*
X121019000Y-105195133D01*
X121168348Y-105555692D01*
X121444308Y-105831652D01*
X121804867Y-105981000D01*
X122195133Y-105981000D01*
X122555692Y-105831652D01*
X122831652Y-105555692D01*
X122981000Y-105195133D01*
X122981000Y-104804867D01*
X123019000Y-104804867D01*
X123019000Y-105195133D01*
X123168348Y-105555692D01*
X123444308Y-105831652D01*
X123492000Y-105851407D01*
X123492001Y-107668567D01*
X123482049Y-107718600D01*
X123521475Y-107916811D01*
X123605412Y-108042432D01*
X123605415Y-108042435D01*
X123633754Y-108084847D01*
X123676166Y-108113186D01*
X124370412Y-108807432D01*
X124398753Y-108849847D01*
X124566788Y-108962125D01*
X124714968Y-108991600D01*
X124714971Y-108991600D01*
X124764999Y-109001551D01*
X124815027Y-108991600D01*
X128438240Y-108991600D01*
X128702000Y-109255361D01*
X128702001Y-112565536D01*
X128194000Y-112565536D01*
X128045341Y-112595106D01*
X127919314Y-112679314D01*
X127835106Y-112805341D01*
X127805536Y-112954000D01*
X127805536Y-114986000D01*
X127835106Y-115134659D01*
X127919314Y-115260686D01*
X128045341Y-115344894D01*
X128194000Y-115374464D01*
X130226000Y-115374464D01*
X130374659Y-115344894D01*
X130500686Y-115260686D01*
X130584894Y-115134659D01*
X130614464Y-114986000D01*
X130614464Y-114785082D01*
X130742820Y-114977180D01*
X131204918Y-115285944D01*
X131612412Y-115367000D01*
X131887588Y-115367000D01*
X132295082Y-115285944D01*
X132757180Y-114977180D01*
X133065944Y-114515082D01*
X133174368Y-113970000D01*
X133065944Y-113424918D01*
X132757180Y-112962820D01*
X132295082Y-112654056D01*
X132258000Y-112646680D01*
X132258000Y-108890000D01*
X133254096Y-108890000D01*
X133274000Y-108990064D01*
X133274001Y-116409932D01*
X133254096Y-116510000D01*
X133332950Y-116906423D01*
X133557506Y-117242495D01*
X133642338Y-117299178D01*
X135433000Y-119089841D01*
X135433000Y-119327881D01*
X135645680Y-119841337D01*
X135814001Y-120009658D01*
X135814000Y-120630343D01*
X135645680Y-120798663D01*
X135433000Y-121312119D01*
X135433000Y-121867881D01*
X135645680Y-122381337D01*
X135814001Y-122549658D01*
X135814000Y-123170343D01*
X135645680Y-123338663D01*
X135433000Y-123852119D01*
X135433000Y-124407881D01*
X135645680Y-124921337D01*
X135814001Y-125089658D01*
X135814000Y-125710343D01*
X135645680Y-125878663D01*
X135433000Y-126392119D01*
X135433000Y-126947881D01*
X135645680Y-127461337D01*
X135814001Y-127629658D01*
X135814000Y-128250343D01*
X135645680Y-128418663D01*
X135433000Y-128932119D01*
X135433000Y-129487881D01*
X135645680Y-130001337D01*
X135814001Y-130169658D01*
X135814000Y-130790343D01*
X135645680Y-130958663D01*
X135433000Y-131472119D01*
X135433000Y-132027881D01*
X135645680Y-132541337D01*
X135814001Y-132709658D01*
X135814000Y-133330343D01*
X135645680Y-133498663D01*
X135433000Y-134012119D01*
X135433000Y-134567881D01*
X135645680Y-135081337D01*
X135814001Y-135249658D01*
X135814000Y-135870343D01*
X135645680Y-136038663D01*
X135433000Y-136552119D01*
X135433000Y-137107881D01*
X135645680Y-137621337D01*
X136038663Y-138014320D01*
X136552119Y-138227000D01*
X137107881Y-138227000D01*
X137621337Y-138014320D01*
X137780325Y-137855332D01*
X141064273Y-137855332D01*
X141178857Y-138052397D01*
X141702302Y-138239144D01*
X142257368Y-138211362D01*
X142641143Y-138052397D01*
X142755727Y-137855332D01*
X141910000Y-137009605D01*
X141064273Y-137855332D01*
X137780325Y-137855332D01*
X138014320Y-137621337D01*
X138227000Y-137107881D01*
X138227000Y-136622302D01*
X140500856Y-136622302D01*
X140528638Y-137177368D01*
X140687603Y-137561143D01*
X140884668Y-137675727D01*
X141730395Y-136830000D01*
X142089605Y-136830000D01*
X142935332Y-137675727D01*
X143132397Y-137561143D01*
X143319144Y-137037698D01*
X143291362Y-136482632D01*
X143132397Y-136098857D01*
X142935332Y-135984273D01*
X142089605Y-136830000D01*
X141730395Y-136830000D01*
X140884668Y-135984273D01*
X140687603Y-136098857D01*
X140500856Y-136622302D01*
X138227000Y-136622302D01*
X138227000Y-136552119D01*
X138014320Y-136038663D01*
X137846000Y-135870343D01*
X137846000Y-135315332D01*
X141064273Y-135315332D01*
X141178857Y-135512397D01*
X141302344Y-135556453D01*
X141178857Y-135607603D01*
X141064273Y-135804668D01*
X141910000Y-136650395D01*
X142755727Y-135804668D01*
X142641143Y-135607603D01*
X142517656Y-135563547D01*
X142641143Y-135512397D01*
X142755727Y-135315332D01*
X141910000Y-134469605D01*
X141064273Y-135315332D01*
X137846000Y-135315332D01*
X137846000Y-135249657D01*
X138014320Y-135081337D01*
X138227000Y-134567881D01*
X138227000Y-134082302D01*
X140500856Y-134082302D01*
X140528638Y-134637368D01*
X140687603Y-135021143D01*
X140884668Y-135135727D01*
X141730395Y-134290000D01*
X142089605Y-134290000D01*
X142935332Y-135135727D01*
X143132397Y-135021143D01*
X143319144Y-134497698D01*
X143291362Y-133942632D01*
X143132397Y-133558857D01*
X142935332Y-133444273D01*
X142089605Y-134290000D01*
X141730395Y-134290000D01*
X140884668Y-133444273D01*
X140687603Y-133558857D01*
X140500856Y-134082302D01*
X138227000Y-134082302D01*
X138227000Y-134012119D01*
X138014320Y-133498663D01*
X137846000Y-133330343D01*
X137846000Y-132775332D01*
X141064273Y-132775332D01*
X141178857Y-132972397D01*
X141302344Y-133016453D01*
X141178857Y-133067603D01*
X141064273Y-133264668D01*
X141910000Y-134110395D01*
X142755727Y-133264668D01*
X142641143Y-133067603D01*
X142517656Y-133023547D01*
X142641143Y-132972397D01*
X142755727Y-132775332D01*
X141910000Y-131929605D01*
X141064273Y-132775332D01*
X137846000Y-132775332D01*
X137846000Y-132709657D01*
X138014320Y-132541337D01*
X138227000Y-132027881D01*
X138227000Y-131542302D01*
X140500856Y-131542302D01*
X140528638Y-132097368D01*
X140687603Y-132481143D01*
X140884668Y-132595727D01*
X141730395Y-131750000D01*
X142089605Y-131750000D01*
X142935332Y-132595727D01*
X143132397Y-132481143D01*
X143319144Y-131957698D01*
X143291362Y-131402632D01*
X143132397Y-131018857D01*
X142935332Y-130904273D01*
X142089605Y-131750000D01*
X141730395Y-131750000D01*
X140884668Y-130904273D01*
X140687603Y-131018857D01*
X140500856Y-131542302D01*
X138227000Y-131542302D01*
X138227000Y-131472119D01*
X138014320Y-130958663D01*
X137846000Y-130790343D01*
X137846000Y-130235332D01*
X141064273Y-130235332D01*
X141178857Y-130432397D01*
X141302344Y-130476453D01*
X141178857Y-130527603D01*
X141064273Y-130724668D01*
X141910000Y-131570395D01*
X142755727Y-130724668D01*
X142641143Y-130527603D01*
X142517656Y-130483547D01*
X142641143Y-130432397D01*
X142755727Y-130235332D01*
X141910000Y-129389605D01*
X141064273Y-130235332D01*
X137846000Y-130235332D01*
X137846000Y-130169657D01*
X138014320Y-130001337D01*
X138227000Y-129487881D01*
X138227000Y-129002302D01*
X140500856Y-129002302D01*
X140528638Y-129557368D01*
X140687603Y-129941143D01*
X140884668Y-130055727D01*
X141730395Y-129210000D01*
X142089605Y-129210000D01*
X142935332Y-130055727D01*
X143132397Y-129941143D01*
X143319144Y-129417698D01*
X143291362Y-128862632D01*
X143132397Y-128478857D01*
X142935332Y-128364273D01*
X142089605Y-129210000D01*
X141730395Y-129210000D01*
X140884668Y-128364273D01*
X140687603Y-128478857D01*
X140500856Y-129002302D01*
X138227000Y-129002302D01*
X138227000Y-128932119D01*
X138014320Y-128418663D01*
X137846000Y-128250343D01*
X137846000Y-127695332D01*
X141064273Y-127695332D01*
X141178857Y-127892397D01*
X141302344Y-127936453D01*
X141178857Y-127987603D01*
X141064273Y-128184668D01*
X141910000Y-129030395D01*
X142755727Y-128184668D01*
X142641143Y-127987603D01*
X142517656Y-127943547D01*
X142641143Y-127892397D01*
X142755727Y-127695332D01*
X141910000Y-126849605D01*
X141064273Y-127695332D01*
X137846000Y-127695332D01*
X137846000Y-127629657D01*
X138014320Y-127461337D01*
X138227000Y-126947881D01*
X138227000Y-126462302D01*
X140500856Y-126462302D01*
X140528638Y-127017368D01*
X140687603Y-127401143D01*
X140884668Y-127515727D01*
X141730395Y-126670000D01*
X142089605Y-126670000D01*
X142935332Y-127515727D01*
X143132397Y-127401143D01*
X143319144Y-126877698D01*
X143291362Y-126322632D01*
X143132397Y-125938857D01*
X142935332Y-125824273D01*
X142089605Y-126670000D01*
X141730395Y-126670000D01*
X140884668Y-125824273D01*
X140687603Y-125938857D01*
X140500856Y-126462302D01*
X138227000Y-126462302D01*
X138227000Y-126392119D01*
X138014320Y-125878663D01*
X137846000Y-125710343D01*
X137846000Y-125155332D01*
X141064273Y-125155332D01*
X141178857Y-125352397D01*
X141302344Y-125396453D01*
X141178857Y-125447603D01*
X141064273Y-125644668D01*
X141910000Y-126490395D01*
X142755727Y-125644668D01*
X142641143Y-125447603D01*
X142517656Y-125403547D01*
X142641143Y-125352397D01*
X142755727Y-125155332D01*
X141910000Y-124309605D01*
X141064273Y-125155332D01*
X137846000Y-125155332D01*
X137846000Y-125089657D01*
X138014320Y-124921337D01*
X138227000Y-124407881D01*
X138227000Y-123922302D01*
X140500856Y-123922302D01*
X140528638Y-124477368D01*
X140687603Y-124861143D01*
X140884668Y-124975727D01*
X141730395Y-124130000D01*
X142089605Y-124130000D01*
X142935332Y-124975727D01*
X143132397Y-124861143D01*
X143319144Y-124337698D01*
X143291362Y-123782632D01*
X143132397Y-123398857D01*
X142935332Y-123284273D01*
X142089605Y-124130000D01*
X141730395Y-124130000D01*
X140884668Y-123284273D01*
X140687603Y-123398857D01*
X140500856Y-123922302D01*
X138227000Y-123922302D01*
X138227000Y-123852119D01*
X138014320Y-123338663D01*
X137846000Y-123170343D01*
X137846000Y-122615332D01*
X141064273Y-122615332D01*
X141178857Y-122812397D01*
X141302344Y-122856453D01*
X141178857Y-122907603D01*
X141064273Y-123104668D01*
X141910000Y-123950395D01*
X142755727Y-123104668D01*
X142641143Y-122907603D01*
X142517656Y-122863547D01*
X142641143Y-122812397D01*
X142755727Y-122615332D01*
X141910000Y-121769605D01*
X141064273Y-122615332D01*
X137846000Y-122615332D01*
X137846000Y-122549657D01*
X138014320Y-122381337D01*
X138227000Y-121867881D01*
X138227000Y-121382302D01*
X140500856Y-121382302D01*
X140528638Y-121937368D01*
X140687603Y-122321143D01*
X140884668Y-122435727D01*
X141730395Y-121590000D01*
X142089605Y-121590000D01*
X142935332Y-122435727D01*
X143132397Y-122321143D01*
X143319144Y-121797698D01*
X143291362Y-121242632D01*
X143132397Y-120858857D01*
X142935332Y-120744273D01*
X142089605Y-121590000D01*
X141730395Y-121590000D01*
X140884668Y-120744273D01*
X140687603Y-120858857D01*
X140500856Y-121382302D01*
X138227000Y-121382302D01*
X138227000Y-121312119D01*
X138014320Y-120798663D01*
X137846000Y-120630343D01*
X137846000Y-120075332D01*
X141064273Y-120075332D01*
X141178857Y-120272397D01*
X141302344Y-120316453D01*
X141178857Y-120367603D01*
X141064273Y-120564668D01*
X141910000Y-121410395D01*
X142755727Y-120564668D01*
X142641143Y-120367603D01*
X142517656Y-120323547D01*
X142641143Y-120272397D01*
X142755727Y-120075332D01*
X141910000Y-119229605D01*
X141064273Y-120075332D01*
X137846000Y-120075332D01*
X137846000Y-120009657D01*
X138014320Y-119841337D01*
X138227000Y-119327881D01*
X138227000Y-118842302D01*
X140500856Y-118842302D01*
X140528638Y-119397368D01*
X140687603Y-119781143D01*
X140884668Y-119895727D01*
X141730395Y-119050000D01*
X142089605Y-119050000D01*
X142935332Y-119895727D01*
X143132397Y-119781143D01*
X143319144Y-119257698D01*
X143291362Y-118702632D01*
X143132397Y-118318857D01*
X142935332Y-118204273D01*
X142089605Y-119050000D01*
X141730395Y-119050000D01*
X140884668Y-118204273D01*
X140687603Y-118318857D01*
X140500856Y-118842302D01*
X138227000Y-118842302D01*
X138227000Y-118772119D01*
X138014320Y-118258663D01*
X137780325Y-118024668D01*
X141064273Y-118024668D01*
X141910000Y-118870395D01*
X142755727Y-118024668D01*
X142641143Y-117827603D01*
X142117698Y-117640856D01*
X141562632Y-117668638D01*
X141178857Y-117827603D01*
X141064273Y-118024668D01*
X137780325Y-118024668D01*
X137621337Y-117865680D01*
X137107881Y-117653000D01*
X136869841Y-117653000D01*
X135306000Y-116089160D01*
X135306000Y-109310840D01*
X135980841Y-108636000D01*
X143079937Y-108636000D01*
X143180000Y-108655904D01*
X143280063Y-108636000D01*
X143280065Y-108636000D01*
X143576423Y-108577051D01*
X143912495Y-108352495D01*
X143969179Y-108267661D01*
X144647663Y-107589178D01*
X144732495Y-107532495D01*
X144957051Y-107196423D01*
X144984001Y-107060938D01*
X144984001Y-108189158D01*
X144029160Y-109144000D01*
X138200063Y-109144000D01*
X138099999Y-109124096D01*
X137999935Y-109144000D01*
X137703577Y-109202949D01*
X137703576Y-109202950D01*
X137703575Y-109202950D01*
X137687288Y-109213833D01*
X137367505Y-109427505D01*
X137310822Y-109512337D01*
X136182339Y-110640820D01*
X136097505Y-110697505D01*
X135872949Y-111033578D01*
X135834515Y-111226800D01*
X135794096Y-111430000D01*
X135814000Y-111530064D01*
X135814001Y-115139932D01*
X135794096Y-115240000D01*
X135840661Y-115474096D01*
X135872950Y-115636423D01*
X136097506Y-115972495D01*
X136182337Y-116029177D01*
X137310822Y-117157663D01*
X137367505Y-117242495D01*
X137609375Y-117404107D01*
X137703575Y-117467050D01*
X137703576Y-117467050D01*
X137703577Y-117467051D01*
X137999935Y-117526000D01*
X138099999Y-117545904D01*
X138200063Y-117526000D01*
X144029160Y-117526000D01*
X145593000Y-119089841D01*
X145593000Y-119327881D01*
X145805680Y-119841337D01*
X145974001Y-120009658D01*
X145974000Y-120630343D01*
X145805680Y-120798663D01*
X145593000Y-121312119D01*
X145593000Y-121867881D01*
X145805680Y-122381337D01*
X145974001Y-122549658D01*
X145974000Y-123170343D01*
X145805680Y-123338663D01*
X145593000Y-123852119D01*
X145593000Y-124407881D01*
X145805680Y-124921337D01*
X145974001Y-125089658D01*
X145974000Y-125710343D01*
X145805680Y-125878663D01*
X145593000Y-126392119D01*
X145593000Y-126947881D01*
X145805680Y-127461337D01*
X145974001Y-127629658D01*
X145974000Y-128250343D01*
X145805680Y-128418663D01*
X145593000Y-128932119D01*
X145593000Y-129487881D01*
X145805680Y-130001337D01*
X145974001Y-130169658D01*
X145974000Y-130790343D01*
X145805680Y-130958663D01*
X145593000Y-131472119D01*
X145593000Y-132027881D01*
X145805680Y-132541337D01*
X145974001Y-132709658D01*
X145974000Y-133330343D01*
X145805680Y-133498663D01*
X145593000Y-134012119D01*
X145593000Y-134567881D01*
X145805680Y-135081337D01*
X145974001Y-135249658D01*
X145974000Y-135870343D01*
X145805680Y-136038663D01*
X145593000Y-136552119D01*
X145593000Y-137107881D01*
X145805680Y-137621337D01*
X146198663Y-138014320D01*
X146712119Y-138227000D01*
X147267881Y-138227000D01*
X147781337Y-138014320D01*
X148174320Y-137621337D01*
X148387000Y-137107881D01*
X148387000Y-136552119D01*
X148174320Y-136038663D01*
X148006000Y-135870343D01*
X148006000Y-135249657D01*
X148174320Y-135081337D01*
X148387000Y-134567881D01*
X148387000Y-134012119D01*
X148174320Y-133498663D01*
X148006000Y-133330343D01*
X148006000Y-132709657D01*
X148174320Y-132541337D01*
X148387000Y-132027881D01*
X148387000Y-131472119D01*
X148174320Y-130958663D01*
X148006000Y-130790343D01*
X148006000Y-130169657D01*
X148174320Y-130001337D01*
X148387000Y-129487881D01*
X148387000Y-128932119D01*
X148174320Y-128418663D01*
X148006000Y-128250343D01*
X148006000Y-127629657D01*
X148174320Y-127461337D01*
X148387000Y-126947881D01*
X148387000Y-126392119D01*
X148174320Y-125878663D01*
X148006000Y-125710343D01*
X148006000Y-125089657D01*
X148174320Y-124921337D01*
X148387000Y-124407881D01*
X148387000Y-123852119D01*
X148174320Y-123338663D01*
X148006000Y-123170343D01*
X148006000Y-122549657D01*
X148174320Y-122381337D01*
X148387000Y-121867881D01*
X148387000Y-121312119D01*
X148174320Y-120798663D01*
X148006000Y-120630343D01*
X148006000Y-120009657D01*
X148174320Y-119841337D01*
X148387000Y-119327881D01*
X148387000Y-118772119D01*
X150673000Y-118772119D01*
X150673000Y-119327881D01*
X150885680Y-119841337D01*
X151278663Y-120234320D01*
X151485513Y-120320000D01*
X151278663Y-120405680D01*
X150885680Y-120798663D01*
X150673000Y-121312119D01*
X150673000Y-121867881D01*
X150885680Y-122381337D01*
X151278663Y-122774320D01*
X151485513Y-122860000D01*
X151278663Y-122945680D01*
X150885680Y-123338663D01*
X150673000Y-123852119D01*
X150673000Y-124407881D01*
X150885680Y-124921337D01*
X151278663Y-125314320D01*
X151485513Y-125400000D01*
X151278663Y-125485680D01*
X150885680Y-125878663D01*
X150673000Y-126392119D01*
X150673000Y-126947881D01*
X150885680Y-127461337D01*
X151278663Y-127854320D01*
X151485513Y-127940000D01*
X151278663Y-128025680D01*
X150885680Y-128418663D01*
X150673000Y-128932119D01*
X150673000Y-129487881D01*
X150885680Y-130001337D01*
X151278663Y-130394320D01*
X151485513Y-130480000D01*
X151278663Y-130565680D01*
X150885680Y-130958663D01*
X150673000Y-131472119D01*
X150673000Y-132027881D01*
X150885680Y-132541337D01*
X151278663Y-132934320D01*
X151485513Y-133020000D01*
X151278663Y-133105680D01*
X150885680Y-133498663D01*
X150673000Y-134012119D01*
X150673000Y-134567881D01*
X150885680Y-135081337D01*
X151278663Y-135474320D01*
X151485513Y-135560000D01*
X151278663Y-135645680D01*
X150885680Y-136038663D01*
X150673000Y-136552119D01*
X150673000Y-137107881D01*
X150885680Y-137621337D01*
X151278663Y-138014320D01*
X151792119Y-138227000D01*
X152347881Y-138227000D01*
X152861337Y-138014320D01*
X153254320Y-137621337D01*
X153292774Y-137528500D01*
X153387226Y-137528500D01*
X153425680Y-137621337D01*
X153818663Y-138014320D01*
X154332119Y-138227000D01*
X154887881Y-138227000D01*
X155401337Y-138014320D01*
X155794320Y-137621337D01*
X155832774Y-137528500D01*
X155927226Y-137528500D01*
X155965680Y-137621337D01*
X156358663Y-138014320D01*
X156872119Y-138227000D01*
X157427881Y-138227000D01*
X157941337Y-138014320D01*
X158334320Y-137621337D01*
X158372774Y-137528500D01*
X158467226Y-137528500D01*
X158505680Y-137621337D01*
X158898663Y-138014320D01*
X159412119Y-138227000D01*
X159967881Y-138227000D01*
X160481337Y-138014320D01*
X160874320Y-137621337D01*
X161087000Y-137107881D01*
X161087000Y-136552119D01*
X160874320Y-136038663D01*
X160481337Y-135645680D01*
X160274487Y-135560000D01*
X160481337Y-135474320D01*
X160874320Y-135081337D01*
X161087000Y-134567881D01*
X161087000Y-134012119D01*
X160874320Y-133498663D01*
X160481337Y-133105680D01*
X160274487Y-133020000D01*
X160481337Y-132934320D01*
X160874320Y-132541337D01*
X161087000Y-132027881D01*
X161087000Y-131472119D01*
X160874320Y-130958663D01*
X160481337Y-130565680D01*
X160274487Y-130480000D01*
X160481337Y-130394320D01*
X160874320Y-130001337D01*
X161087000Y-129487881D01*
X161087000Y-128932119D01*
X160874320Y-128418663D01*
X160481337Y-128025680D01*
X160274487Y-127940000D01*
X160481337Y-127854320D01*
X160874320Y-127461337D01*
X161087000Y-126947881D01*
X161087000Y-126392119D01*
X160874320Y-125878663D01*
X160481337Y-125485680D01*
X160274487Y-125400000D01*
X160481337Y-125314320D01*
X160874320Y-124921337D01*
X161087000Y-124407881D01*
X161087000Y-123852119D01*
X160874320Y-123338663D01*
X160481337Y-122945680D01*
X160274487Y-122860000D01*
X160481337Y-122774320D01*
X160874320Y-122381337D01*
X161087000Y-121867881D01*
X161087000Y-121312119D01*
X160874320Y-120798663D01*
X160481337Y-120405680D01*
X160274487Y-120320000D01*
X160481337Y-120234320D01*
X160874320Y-119841337D01*
X161087000Y-119327881D01*
X161087000Y-118772119D01*
X165913000Y-118772119D01*
X165913000Y-119327881D01*
X166125680Y-119841337D01*
X166518663Y-120234320D01*
X166725513Y-120320000D01*
X166518663Y-120405680D01*
X166125680Y-120798663D01*
X165913000Y-121312119D01*
X165913000Y-121867881D01*
X166125680Y-122381337D01*
X166518663Y-122774320D01*
X166725513Y-122860000D01*
X166518663Y-122945680D01*
X166125680Y-123338663D01*
X165913000Y-123852119D01*
X165913000Y-124407881D01*
X166125680Y-124921337D01*
X166518663Y-125314320D01*
X166725513Y-125400000D01*
X166518663Y-125485680D01*
X166125680Y-125878663D01*
X165913000Y-126392119D01*
X165913000Y-126947881D01*
X166125680Y-127461337D01*
X166518663Y-127854320D01*
X166725513Y-127940000D01*
X166518663Y-128025680D01*
X166125680Y-128418663D01*
X165913000Y-128932119D01*
X165913000Y-129487881D01*
X166125680Y-130001337D01*
X166518663Y-130394320D01*
X166725513Y-130480000D01*
X166518663Y-130565680D01*
X166125680Y-130958663D01*
X165913000Y-131472119D01*
X165913000Y-132027881D01*
X166125680Y-132541337D01*
X166518663Y-132934320D01*
X166725513Y-133020000D01*
X166518663Y-133105680D01*
X166125680Y-133498663D01*
X165913000Y-134012119D01*
X165913000Y-134567881D01*
X166125680Y-135081337D01*
X166518663Y-135474320D01*
X166725513Y-135560000D01*
X166518663Y-135645680D01*
X166125680Y-136038663D01*
X165913000Y-136552119D01*
X165913000Y-137107881D01*
X166125680Y-137621337D01*
X166518663Y-138014320D01*
X167032119Y-138227000D01*
X167587881Y-138227000D01*
X168101337Y-138014320D01*
X168494320Y-137621337D01*
X168532774Y-137528500D01*
X168627226Y-137528500D01*
X168665680Y-137621337D01*
X169058663Y-138014320D01*
X169572119Y-138227000D01*
X170127881Y-138227000D01*
X170641337Y-138014320D01*
X171034320Y-137621337D01*
X171072774Y-137528500D01*
X171167226Y-137528500D01*
X171205680Y-137621337D01*
X171598663Y-138014320D01*
X172112119Y-138227000D01*
X172667881Y-138227000D01*
X173181337Y-138014320D01*
X173574320Y-137621337D01*
X173612774Y-137528500D01*
X173707226Y-137528500D01*
X173745680Y-137621337D01*
X174138663Y-138014320D01*
X174652119Y-138227000D01*
X175207881Y-138227000D01*
X175721337Y-138014320D01*
X176114320Y-137621337D01*
X176327000Y-137107881D01*
X176327000Y-136552119D01*
X176114320Y-136038663D01*
X175721337Y-135645680D01*
X175514487Y-135560000D01*
X175721337Y-135474320D01*
X176069811Y-135125846D01*
X179119000Y-135125846D01*
X179119000Y-135874154D01*
X179405365Y-136565501D01*
X179934499Y-137094635D01*
X180625846Y-137381000D01*
X181374154Y-137381000D01*
X182065501Y-137094635D01*
X182594635Y-136565501D01*
X182881000Y-135874154D01*
X182881000Y-135125846D01*
X182594635Y-134434499D01*
X182065501Y-133905365D01*
X181374154Y-133619000D01*
X180625846Y-133619000D01*
X179934499Y-133905365D01*
X179405365Y-134434499D01*
X179119000Y-135125846D01*
X176069811Y-135125846D01*
X176114320Y-135081337D01*
X176327000Y-134567881D01*
X176327000Y-134012119D01*
X176114320Y-133498663D01*
X175721337Y-133105680D01*
X175514487Y-133020000D01*
X175721337Y-132934320D01*
X175880325Y-132775332D01*
X179164273Y-132775332D01*
X179278857Y-132972397D01*
X179802302Y-133159144D01*
X180357368Y-133131362D01*
X180741143Y-132972397D01*
X180855727Y-132775332D01*
X180010000Y-131929605D01*
X179164273Y-132775332D01*
X175880325Y-132775332D01*
X176114320Y-132541337D01*
X176327000Y-132027881D01*
X176327000Y-131542302D01*
X178600856Y-131542302D01*
X178628638Y-132097368D01*
X178787603Y-132481143D01*
X178984668Y-132595727D01*
X179830395Y-131750000D01*
X180189605Y-131750000D01*
X181035332Y-132595727D01*
X181232397Y-132481143D01*
X181419144Y-131957698D01*
X181391362Y-131402632D01*
X181232397Y-131018857D01*
X181035332Y-130904273D01*
X180189605Y-131750000D01*
X179830395Y-131750000D01*
X178984668Y-130904273D01*
X178787603Y-131018857D01*
X178600856Y-131542302D01*
X176327000Y-131542302D01*
X176327000Y-131472119D01*
X176114320Y-130958663D01*
X175721337Y-130565680D01*
X175514487Y-130480000D01*
X175721337Y-130394320D01*
X175880325Y-130235332D01*
X179164273Y-130235332D01*
X179278857Y-130432397D01*
X179402344Y-130476453D01*
X179278857Y-130527603D01*
X179164273Y-130724668D01*
X180010000Y-131570395D01*
X180855727Y-130724668D01*
X180741143Y-130527603D01*
X180617656Y-130483547D01*
X180741143Y-130432397D01*
X180855727Y-130235332D01*
X180010000Y-129389605D01*
X179164273Y-130235332D01*
X175880325Y-130235332D01*
X176114320Y-130001337D01*
X176327000Y-129487881D01*
X176327000Y-129002302D01*
X178600856Y-129002302D01*
X178628638Y-129557368D01*
X178787603Y-129941143D01*
X178984668Y-130055727D01*
X179830395Y-129210000D01*
X180189605Y-129210000D01*
X181035332Y-130055727D01*
X181232397Y-129941143D01*
X181419144Y-129417698D01*
X181391362Y-128862632D01*
X181232397Y-128478857D01*
X181035332Y-128364273D01*
X180189605Y-129210000D01*
X179830395Y-129210000D01*
X178984668Y-128364273D01*
X178787603Y-128478857D01*
X178600856Y-129002302D01*
X176327000Y-129002302D01*
X176327000Y-128932119D01*
X176114320Y-128418663D01*
X175721337Y-128025680D01*
X175514487Y-127940000D01*
X175721337Y-127854320D01*
X175880325Y-127695332D01*
X179164273Y-127695332D01*
X179278857Y-127892397D01*
X179402344Y-127936453D01*
X179278857Y-127987603D01*
X179164273Y-128184668D01*
X180010000Y-129030395D01*
X180855727Y-128184668D01*
X180741143Y-127987603D01*
X180617656Y-127943547D01*
X180741143Y-127892397D01*
X180855727Y-127695332D01*
X180010000Y-126849605D01*
X179164273Y-127695332D01*
X175880325Y-127695332D01*
X176114320Y-127461337D01*
X176327000Y-126947881D01*
X176327000Y-126462302D01*
X178600856Y-126462302D01*
X178628638Y-127017368D01*
X178787603Y-127401143D01*
X178984668Y-127515727D01*
X179830395Y-126670000D01*
X180189605Y-126670000D01*
X181035332Y-127515727D01*
X181232397Y-127401143D01*
X181419144Y-126877698D01*
X181391362Y-126322632D01*
X181232397Y-125938857D01*
X181035332Y-125824273D01*
X180189605Y-126670000D01*
X179830395Y-126670000D01*
X178984668Y-125824273D01*
X178787603Y-125938857D01*
X178600856Y-126462302D01*
X176327000Y-126462302D01*
X176327000Y-126392119D01*
X176114320Y-125878663D01*
X175721337Y-125485680D01*
X175514487Y-125400000D01*
X175721337Y-125314320D01*
X175880325Y-125155332D01*
X179164273Y-125155332D01*
X179278857Y-125352397D01*
X179402344Y-125396453D01*
X179278857Y-125447603D01*
X179164273Y-125644668D01*
X180010000Y-126490395D01*
X180855727Y-125644668D01*
X180741143Y-125447603D01*
X180617656Y-125403547D01*
X180741143Y-125352397D01*
X180855727Y-125155332D01*
X180010000Y-124309605D01*
X179164273Y-125155332D01*
X175880325Y-125155332D01*
X176114320Y-124921337D01*
X176327000Y-124407881D01*
X176327000Y-123922302D01*
X178600856Y-123922302D01*
X178628638Y-124477368D01*
X178787603Y-124861143D01*
X178984668Y-124975727D01*
X179830395Y-124130000D01*
X180189605Y-124130000D01*
X181035332Y-124975727D01*
X181232397Y-124861143D01*
X181419144Y-124337698D01*
X181391362Y-123782632D01*
X181232397Y-123398857D01*
X181035332Y-123284273D01*
X180189605Y-124130000D01*
X179830395Y-124130000D01*
X178984668Y-123284273D01*
X178787603Y-123398857D01*
X178600856Y-123922302D01*
X176327000Y-123922302D01*
X176327000Y-123852119D01*
X176114320Y-123338663D01*
X175721337Y-122945680D01*
X175514487Y-122860000D01*
X175721337Y-122774320D01*
X175880325Y-122615332D01*
X179164273Y-122615332D01*
X179278857Y-122812397D01*
X179402344Y-122856453D01*
X179278857Y-122907603D01*
X179164273Y-123104668D01*
X180010000Y-123950395D01*
X180855727Y-123104668D01*
X180741143Y-122907603D01*
X180617656Y-122863547D01*
X180741143Y-122812397D01*
X180855727Y-122615332D01*
X180010000Y-121769605D01*
X179164273Y-122615332D01*
X175880325Y-122615332D01*
X176114320Y-122381337D01*
X176327000Y-121867881D01*
X176327000Y-121382302D01*
X178600856Y-121382302D01*
X178628638Y-121937368D01*
X178787603Y-122321143D01*
X178984668Y-122435727D01*
X179830395Y-121590000D01*
X180189605Y-121590000D01*
X181035332Y-122435727D01*
X181232397Y-122321143D01*
X181419144Y-121797698D01*
X181391362Y-121242632D01*
X181232397Y-120858857D01*
X181035332Y-120744273D01*
X180189605Y-121590000D01*
X179830395Y-121590000D01*
X178984668Y-120744273D01*
X178787603Y-120858857D01*
X178600856Y-121382302D01*
X176327000Y-121382302D01*
X176327000Y-121312119D01*
X176114320Y-120798663D01*
X175721337Y-120405680D01*
X175514487Y-120320000D01*
X175721337Y-120234320D01*
X175880325Y-120075332D01*
X179164273Y-120075332D01*
X179278857Y-120272397D01*
X179402344Y-120316453D01*
X179278857Y-120367603D01*
X179164273Y-120564668D01*
X180010000Y-121410395D01*
X180855727Y-120564668D01*
X180741143Y-120367603D01*
X180617656Y-120323547D01*
X180741143Y-120272397D01*
X180855727Y-120075332D01*
X180010000Y-119229605D01*
X179164273Y-120075332D01*
X175880325Y-120075332D01*
X176114320Y-119841337D01*
X176327000Y-119327881D01*
X176327000Y-118842302D01*
X178600856Y-118842302D01*
X178628638Y-119397368D01*
X178787603Y-119781143D01*
X178984668Y-119895727D01*
X179830395Y-119050000D01*
X180189605Y-119050000D01*
X181035332Y-119895727D01*
X181232397Y-119781143D01*
X181419144Y-119257698D01*
X181391362Y-118702632D01*
X181232397Y-118318857D01*
X181035332Y-118204273D01*
X180189605Y-119050000D01*
X179830395Y-119050000D01*
X178984668Y-118204273D01*
X178787603Y-118318857D01*
X178600856Y-118842302D01*
X176327000Y-118842302D01*
X176327000Y-118772119D01*
X176114320Y-118258663D01*
X175880325Y-118024668D01*
X179164273Y-118024668D01*
X180010000Y-118870395D01*
X180855727Y-118024668D01*
X180741143Y-117827603D01*
X180217698Y-117640856D01*
X179662632Y-117668638D01*
X179278857Y-117827603D01*
X179164273Y-118024668D01*
X175880325Y-118024668D01*
X175721337Y-117865680D01*
X175207881Y-117653000D01*
X174652119Y-117653000D01*
X174138663Y-117865680D01*
X173745680Y-118258663D01*
X173707226Y-118351500D01*
X173612774Y-118351500D01*
X173574320Y-118258663D01*
X173181337Y-117865680D01*
X172667881Y-117653000D01*
X172112119Y-117653000D01*
X171598663Y-117865680D01*
X171205680Y-118258663D01*
X171167226Y-118351500D01*
X171072774Y-118351500D01*
X171034320Y-118258663D01*
X170641337Y-117865680D01*
X170127881Y-117653000D01*
X169572119Y-117653000D01*
X169058663Y-117865680D01*
X168665680Y-118258663D01*
X168627226Y-118351500D01*
X168532774Y-118351500D01*
X168494320Y-118258663D01*
X168101337Y-117865680D01*
X167587881Y-117653000D01*
X167032119Y-117653000D01*
X166518663Y-117865680D01*
X166125680Y-118258663D01*
X165913000Y-118772119D01*
X161087000Y-118772119D01*
X160874320Y-118258663D01*
X160481337Y-117865680D01*
X159967881Y-117653000D01*
X159412119Y-117653000D01*
X158898663Y-117865680D01*
X158505680Y-118258663D01*
X158467226Y-118351500D01*
X158372774Y-118351500D01*
X158334320Y-118258663D01*
X157941337Y-117865680D01*
X157427881Y-117653000D01*
X156872119Y-117653000D01*
X156358663Y-117865680D01*
X155965680Y-118258663D01*
X155927226Y-118351500D01*
X155832774Y-118351500D01*
X155794320Y-118258663D01*
X155401337Y-117865680D01*
X154887881Y-117653000D01*
X154332119Y-117653000D01*
X153818663Y-117865680D01*
X153425680Y-118258663D01*
X153387226Y-118351500D01*
X153292774Y-118351500D01*
X153254320Y-118258663D01*
X152861337Y-117865680D01*
X152347881Y-117653000D01*
X151792119Y-117653000D01*
X151278663Y-117865680D01*
X150885680Y-118258663D01*
X150673000Y-118772119D01*
X148387000Y-118772119D01*
X148174320Y-118258663D01*
X147781337Y-117865680D01*
X147267881Y-117653000D01*
X147029841Y-117653000D01*
X145239180Y-115862340D01*
X145182495Y-115777505D01*
X144846423Y-115552949D01*
X144550065Y-115494000D01*
X144550063Y-115494000D01*
X144450000Y-115474096D01*
X144349937Y-115494000D01*
X138520841Y-115494000D01*
X138375209Y-115348369D01*
X138506400Y-115374464D01*
X140233600Y-115374464D01*
X140382259Y-115344894D01*
X140508286Y-115260686D01*
X140592494Y-115134659D01*
X140622064Y-114986000D01*
X140622064Y-113695020D01*
X140665400Y-113695020D01*
X140665400Y-114244981D01*
X140737613Y-114608019D01*
X141012695Y-115019706D01*
X141424382Y-115294787D01*
X141910000Y-115391383D01*
X142395619Y-115294787D01*
X142807306Y-115019706D01*
X143082387Y-114608018D01*
X143154600Y-114244980D01*
X143154600Y-113695020D01*
X143205400Y-113695020D01*
X143205400Y-114244981D01*
X143277613Y-114608019D01*
X143552695Y-115019706D01*
X143964382Y-115294787D01*
X144450000Y-115391383D01*
X144935619Y-115294787D01*
X145347306Y-115019706D01*
X145622387Y-114608018D01*
X145694600Y-114244980D01*
X145694600Y-113695020D01*
X145745400Y-113695020D01*
X145745400Y-114244981D01*
X145817613Y-114608019D01*
X146092695Y-115019706D01*
X146504382Y-115294787D01*
X146990000Y-115391383D01*
X147475619Y-115294787D01*
X147887306Y-115019706D01*
X148162387Y-114608018D01*
X148234600Y-114244980D01*
X148234600Y-113695020D01*
X148285400Y-113695020D01*
X148285400Y-114244981D01*
X148357613Y-114608019D01*
X148632695Y-115019706D01*
X149044382Y-115294787D01*
X149530000Y-115391383D01*
X150015619Y-115294787D01*
X150427306Y-115019706D01*
X150702387Y-114608018D01*
X150774600Y-114244980D01*
X150774600Y-113695020D01*
X150825400Y-113695020D01*
X150825400Y-114244981D01*
X150897613Y-114608019D01*
X151172695Y-115019706D01*
X151584382Y-115294787D01*
X152070000Y-115391383D01*
X152555619Y-115294787D01*
X152967306Y-115019706D01*
X153242387Y-114608018D01*
X153314600Y-114244980D01*
X153314600Y-113695020D01*
X153365400Y-113695020D01*
X153365400Y-114244981D01*
X153437613Y-114608019D01*
X153712695Y-115019706D01*
X154124382Y-115294787D01*
X154610000Y-115391383D01*
X155095619Y-115294787D01*
X155507306Y-115019706D01*
X155782387Y-114608018D01*
X155854600Y-114244980D01*
X155854600Y-113695020D01*
X155905400Y-113695020D01*
X155905400Y-114244981D01*
X155977613Y-114608019D01*
X156252695Y-115019706D01*
X156664382Y-115294787D01*
X157150000Y-115391383D01*
X157635619Y-115294787D01*
X158047306Y-115019706D01*
X158322387Y-114608018D01*
X158394600Y-114244980D01*
X158394600Y-113695020D01*
X158445400Y-113695020D01*
X158445400Y-114244981D01*
X158517613Y-114608019D01*
X158792695Y-115019706D01*
X159204382Y-115294787D01*
X159690000Y-115391383D01*
X160175619Y-115294787D01*
X160587306Y-115019706D01*
X160862387Y-114608018D01*
X160934600Y-114244980D01*
X160934600Y-113695020D01*
X160985400Y-113695020D01*
X160985400Y-114244981D01*
X161057613Y-114608019D01*
X161332695Y-115019706D01*
X161744382Y-115294787D01*
X162230000Y-115391383D01*
X162715619Y-115294787D01*
X163127306Y-115019706D01*
X163402387Y-114608018D01*
X163474600Y-114244980D01*
X163474600Y-113695020D01*
X163525400Y-113695020D01*
X163525400Y-114244981D01*
X163597613Y-114608019D01*
X163872695Y-115019706D01*
X164284382Y-115294787D01*
X164770000Y-115391383D01*
X165255619Y-115294787D01*
X165667306Y-115019706D01*
X165942387Y-114608018D01*
X166014600Y-114244980D01*
X166014600Y-113695020D01*
X166065400Y-113695020D01*
X166065400Y-114244981D01*
X166137613Y-114608019D01*
X166412695Y-115019706D01*
X166824382Y-115294787D01*
X167310000Y-115391383D01*
X167795619Y-115294787D01*
X168207306Y-115019706D01*
X168482387Y-114608018D01*
X168554600Y-114244980D01*
X168554600Y-113695019D01*
X168482387Y-113331981D01*
X168207306Y-112920294D01*
X167795618Y-112645213D01*
X167310000Y-112548617D01*
X166824381Y-112645213D01*
X166412694Y-112920294D01*
X166137613Y-113331982D01*
X166065400Y-113695020D01*
X166014600Y-113695020D01*
X166014600Y-113695019D01*
X165942387Y-113331981D01*
X165667306Y-112920294D01*
X165255618Y-112645213D01*
X164770000Y-112548617D01*
X164284381Y-112645213D01*
X163872694Y-112920294D01*
X163597613Y-113331982D01*
X163525400Y-113695020D01*
X163474600Y-113695020D01*
X163474600Y-113695019D01*
X163402387Y-113331981D01*
X163127306Y-112920294D01*
X162715618Y-112645213D01*
X162230000Y-112548617D01*
X161744381Y-112645213D01*
X161332694Y-112920294D01*
X161057613Y-113331982D01*
X160985400Y-113695020D01*
X160934600Y-113695020D01*
X160934600Y-113695019D01*
X160862387Y-113331981D01*
X160587306Y-112920294D01*
X160175618Y-112645213D01*
X159690000Y-112548617D01*
X159204381Y-112645213D01*
X158792694Y-112920294D01*
X158517613Y-113331982D01*
X158445400Y-113695020D01*
X158394600Y-113695020D01*
X158394600Y-113695019D01*
X158322387Y-113331981D01*
X158047306Y-112920294D01*
X157635618Y-112645213D01*
X157150000Y-112548617D01*
X156664381Y-112645213D01*
X156252694Y-112920294D01*
X155977613Y-113331982D01*
X155905400Y-113695020D01*
X155854600Y-113695020D01*
X155854600Y-113695019D01*
X155782387Y-113331981D01*
X155507306Y-112920294D01*
X155095618Y-112645213D01*
X154610000Y-112548617D01*
X154124381Y-112645213D01*
X153712694Y-112920294D01*
X153437613Y-113331982D01*
X153365400Y-113695020D01*
X153314600Y-113695020D01*
X153314600Y-113695019D01*
X153242387Y-113331981D01*
X152967306Y-112920294D01*
X152555618Y-112645213D01*
X152070000Y-112548617D01*
X151584381Y-112645213D01*
X151172694Y-112920294D01*
X150897613Y-113331982D01*
X150825400Y-113695020D01*
X150774600Y-113695020D01*
X150774600Y-113695019D01*
X150702387Y-113331981D01*
X150427306Y-112920294D01*
X150015618Y-112645213D01*
X149530000Y-112548617D01*
X149044381Y-112645213D01*
X148632694Y-112920294D01*
X148357613Y-113331982D01*
X148285400Y-113695020D01*
X148234600Y-113695020D01*
X148234600Y-113695019D01*
X148162387Y-113331981D01*
X147887306Y-112920294D01*
X147475618Y-112645213D01*
X146990000Y-112548617D01*
X146504381Y-112645213D01*
X146092694Y-112920294D01*
X145817613Y-113331982D01*
X145745400Y-113695020D01*
X145694600Y-113695020D01*
X145694600Y-113695019D01*
X145622387Y-113331981D01*
X145347306Y-112920294D01*
X144935618Y-112645213D01*
X144450000Y-112548617D01*
X143964381Y-112645213D01*
X143552694Y-112920294D01*
X143277613Y-113331982D01*
X143205400Y-113695020D01*
X143154600Y-113695020D01*
X143154600Y-113695019D01*
X143082387Y-113331981D01*
X142807306Y-112920294D01*
X142395618Y-112645213D01*
X141910000Y-112548617D01*
X141424381Y-112645213D01*
X141012694Y-112920294D01*
X140737613Y-113331982D01*
X140665400Y-113695020D01*
X140622064Y-113695020D01*
X140622064Y-112954000D01*
X140592494Y-112805341D01*
X140508286Y-112679314D01*
X140382259Y-112595106D01*
X140233600Y-112565536D01*
X138506400Y-112565536D01*
X138357741Y-112595106D01*
X138231714Y-112679314D01*
X138147506Y-112805341D01*
X138117936Y-112954000D01*
X138117936Y-114986000D01*
X138144031Y-115117191D01*
X137846000Y-114819160D01*
X137846000Y-111850840D01*
X138520841Y-111176000D01*
X144349937Y-111176000D01*
X144450000Y-111195904D01*
X144550063Y-111176000D01*
X144550065Y-111176000D01*
X144846423Y-111117051D01*
X145182495Y-110892495D01*
X145239180Y-110807661D01*
X146647663Y-109399178D01*
X146732495Y-109342495D01*
X146957051Y-109006423D01*
X147016000Y-108710065D01*
X147016000Y-108710064D01*
X147035904Y-108610001D01*
X147016000Y-108509937D01*
X147016000Y-105723379D01*
X147456226Y-105723379D01*
X147519590Y-105877294D01*
X147891885Y-105994359D01*
X148280639Y-105960042D01*
X148480410Y-105877294D01*
X148543774Y-105723379D01*
X148000000Y-105179605D01*
X147456226Y-105723379D01*
X147016000Y-105723379D01*
X147016000Y-105009235D01*
X147039958Y-105280639D01*
X147122706Y-105480410D01*
X147276621Y-105543774D01*
X147820395Y-105000000D01*
X148179605Y-105000000D01*
X148723379Y-105543774D01*
X148877294Y-105480410D01*
X148994359Y-105108115D01*
X148960042Y-104719361D01*
X148877294Y-104519590D01*
X148723379Y-104456226D01*
X148179605Y-105000000D01*
X147820395Y-105000000D01*
X147276621Y-104456226D01*
X147122706Y-104519590D01*
X147011005Y-104874825D01*
X146957051Y-104603577D01*
X146738587Y-104276621D01*
X147456226Y-104276621D01*
X148000000Y-104820395D01*
X148543774Y-104276621D01*
X148480410Y-104122706D01*
X148108115Y-104005641D01*
X147719361Y-104039958D01*
X147519590Y-104122706D01*
X147456226Y-104276621D01*
X146738587Y-104276621D01*
X146732495Y-104267505D01*
X146396422Y-104042949D01*
X146180502Y-104000000D01*
X146396423Y-103957051D01*
X146732495Y-103732495D01*
X146738586Y-103723379D01*
X147456226Y-103723379D01*
X147519590Y-103877294D01*
X147891885Y-103994359D01*
X148280639Y-103960042D01*
X148480410Y-103877294D01*
X148543774Y-103723379D01*
X148446241Y-103625846D01*
X179119000Y-103625846D01*
X179119000Y-104374154D01*
X179405365Y-105065501D01*
X179934499Y-105594635D01*
X180625846Y-105881000D01*
X181374154Y-105881000D01*
X182065501Y-105594635D01*
X182594635Y-105065501D01*
X182881000Y-104374154D01*
X182881000Y-103625846D01*
X182594635Y-102934499D01*
X182065501Y-102405365D01*
X181374154Y-102119000D01*
X180625846Y-102119000D01*
X179934499Y-102405365D01*
X179405365Y-102934499D01*
X179119000Y-103625846D01*
X148446241Y-103625846D01*
X148000000Y-103179605D01*
X147456226Y-103723379D01*
X146738586Y-103723379D01*
X146957051Y-103396423D01*
X147021553Y-103072146D01*
X147039958Y-103280639D01*
X147122706Y-103480410D01*
X147276621Y-103543774D01*
X147820395Y-103000000D01*
X148179605Y-103000000D01*
X148723379Y-103543774D01*
X148877294Y-103480410D01*
X148994359Y-103108115D01*
X148960042Y-102719361D01*
X148877294Y-102519590D01*
X148723379Y-102456226D01*
X148179605Y-103000000D01*
X147820395Y-103000000D01*
X147276621Y-102456226D01*
X147122706Y-102519590D01*
X147011005Y-102874825D01*
X146957051Y-102603577D01*
X146738587Y-102276621D01*
X147456226Y-102276621D01*
X148000000Y-102820395D01*
X148543774Y-102276621D01*
X148480410Y-102122706D01*
X148108115Y-102005641D01*
X147719361Y-102039958D01*
X147519590Y-102122706D01*
X147456226Y-102276621D01*
X146738587Y-102276621D01*
X146732495Y-102267505D01*
X146396423Y-102042949D01*
X146100065Y-101984000D01*
X143899935Y-101984000D01*
X143603577Y-102042949D01*
X143267505Y-102267505D01*
X143042949Y-102603577D01*
X142981000Y-102915017D01*
X142981000Y-102804867D01*
X142831652Y-102444308D01*
X142555692Y-102168348D01*
X142195133Y-102019000D01*
X141804867Y-102019000D01*
X141444308Y-102168348D01*
X141168348Y-102444308D01*
X141019000Y-102804867D01*
X141019000Y-103195133D01*
X141168348Y-103555692D01*
X141444308Y-103831652D01*
X141804867Y-103981000D01*
X142195133Y-103981000D01*
X142555692Y-103831652D01*
X142831652Y-103555692D01*
X142981000Y-103195133D01*
X142981000Y-103084983D01*
X143042949Y-103396423D01*
X143267505Y-103732495D01*
X143603577Y-103957051D01*
X143819497Y-104000000D01*
X143603577Y-104042949D01*
X143267505Y-104267505D01*
X143042949Y-104603578D01*
X142984000Y-104899936D01*
X142984001Y-106379159D01*
X142759160Y-106604000D01*
X135660063Y-106604000D01*
X135559999Y-106584096D01*
X135459935Y-106604000D01*
X135163577Y-106662949D01*
X135163576Y-106662950D01*
X135163575Y-106662950D01*
X135108014Y-106700075D01*
X134827505Y-106887505D01*
X134770822Y-106972337D01*
X133642339Y-108100820D01*
X133557505Y-108157505D01*
X133332949Y-108493578D01*
X133278329Y-108768171D01*
X133254096Y-108890000D01*
X132258000Y-108890000D01*
X132258000Y-108586968D01*
X132267951Y-108536940D01*
X132258000Y-108486912D01*
X132258000Y-108486908D01*
X132228525Y-108338728D01*
X132168993Y-108249632D01*
X132144588Y-108213107D01*
X132144586Y-108213105D01*
X132116247Y-108170693D01*
X132073835Y-108142355D01*
X131278447Y-107346967D01*
X131250107Y-107304553D01*
X131082072Y-107192275D01*
X130933892Y-107162800D01*
X130933888Y-107162800D01*
X130883860Y-107152849D01*
X130833832Y-107162800D01*
X126702621Y-107162800D01*
X126508000Y-106968180D01*
X126508000Y-105851407D01*
X126555692Y-105831652D01*
X126831652Y-105555692D01*
X126981000Y-105195133D01*
X126981000Y-104804867D01*
X127019000Y-104804867D01*
X127019000Y-105195133D01*
X127168348Y-105555692D01*
X127444308Y-105831652D01*
X127804867Y-105981000D01*
X128195133Y-105981000D01*
X128555692Y-105831652D01*
X128831652Y-105555692D01*
X128981000Y-105195133D01*
X128981000Y-104804867D01*
X129019000Y-104804867D01*
X129019000Y-105195133D01*
X129168348Y-105555692D01*
X129444308Y-105831652D01*
X129804867Y-105981000D01*
X130195133Y-105981000D01*
X130555692Y-105831652D01*
X130831652Y-105555692D01*
X130981000Y-105195133D01*
X130981000Y-104804867D01*
X131019000Y-104804867D01*
X131019000Y-105195133D01*
X131168348Y-105555692D01*
X131444308Y-105831652D01*
X131804867Y-105981000D01*
X132195133Y-105981000D01*
X132555692Y-105831652D01*
X132831652Y-105555692D01*
X132981000Y-105195133D01*
X132981000Y-104804867D01*
X133019000Y-104804867D01*
X133019000Y-105195133D01*
X133168348Y-105555692D01*
X133444308Y-105831652D01*
X133804867Y-105981000D01*
X134195133Y-105981000D01*
X134555692Y-105831652D01*
X134831652Y-105555692D01*
X134981000Y-105195133D01*
X134981000Y-104804867D01*
X135019000Y-104804867D01*
X135019000Y-105195133D01*
X135168348Y-105555692D01*
X135444308Y-105831652D01*
X135804867Y-105981000D01*
X136195133Y-105981000D01*
X136555692Y-105831652D01*
X136831652Y-105555692D01*
X136981000Y-105195133D01*
X136981000Y-104804867D01*
X137019000Y-104804867D01*
X137019000Y-105195133D01*
X137168348Y-105555692D01*
X137444308Y-105831652D01*
X137804867Y-105981000D01*
X138195133Y-105981000D01*
X138555692Y-105831652D01*
X138831652Y-105555692D01*
X138981000Y-105195133D01*
X138981000Y-104804867D01*
X139019000Y-104804867D01*
X139019000Y-105195133D01*
X139168348Y-105555692D01*
X139444308Y-105831652D01*
X139804867Y-105981000D01*
X140195133Y-105981000D01*
X140555692Y-105831652D01*
X140831652Y-105555692D01*
X140981000Y-105195133D01*
X140981000Y-104804867D01*
X141019000Y-104804867D01*
X141019000Y-105195133D01*
X141168348Y-105555692D01*
X141444308Y-105831652D01*
X141804867Y-105981000D01*
X142195133Y-105981000D01*
X142555692Y-105831652D01*
X142831652Y-105555692D01*
X142981000Y-105195133D01*
X142981000Y-104804867D01*
X142831652Y-104444308D01*
X142555692Y-104168348D01*
X142195133Y-104019000D01*
X141804867Y-104019000D01*
X141444308Y-104168348D01*
X141168348Y-104444308D01*
X141019000Y-104804867D01*
X140981000Y-104804867D01*
X140831652Y-104444308D01*
X140555692Y-104168348D01*
X140195133Y-104019000D01*
X139804867Y-104019000D01*
X139444308Y-104168348D01*
X139168348Y-104444308D01*
X139019000Y-104804867D01*
X138981000Y-104804867D01*
X138831652Y-104444308D01*
X138555692Y-104168348D01*
X138195133Y-104019000D01*
X137804867Y-104019000D01*
X137444308Y-104168348D01*
X137168348Y-104444308D01*
X137019000Y-104804867D01*
X136981000Y-104804867D01*
X136831652Y-104444308D01*
X136555692Y-104168348D01*
X136195133Y-104019000D01*
X135804867Y-104019000D01*
X135444308Y-104168348D01*
X135168348Y-104444308D01*
X135019000Y-104804867D01*
X134981000Y-104804867D01*
X134831652Y-104444308D01*
X134555692Y-104168348D01*
X134195133Y-104019000D01*
X133804867Y-104019000D01*
X133444308Y-104168348D01*
X133168348Y-104444308D01*
X133019000Y-104804867D01*
X132981000Y-104804867D01*
X132831652Y-104444308D01*
X132555692Y-104168348D01*
X132195133Y-104019000D01*
X131804867Y-104019000D01*
X131444308Y-104168348D01*
X131168348Y-104444308D01*
X131019000Y-104804867D01*
X130981000Y-104804867D01*
X130831652Y-104444308D01*
X130555692Y-104168348D01*
X130195133Y-104019000D01*
X129804867Y-104019000D01*
X129444308Y-104168348D01*
X129168348Y-104444308D01*
X129019000Y-104804867D01*
X128981000Y-104804867D01*
X128831652Y-104444308D01*
X128555692Y-104168348D01*
X128195133Y-104019000D01*
X127804867Y-104019000D01*
X127444308Y-104168348D01*
X127168348Y-104444308D01*
X127019000Y-104804867D01*
X126981000Y-104804867D01*
X126831652Y-104444308D01*
X126555692Y-104168348D01*
X126195133Y-104019000D01*
X125804867Y-104019000D01*
X125444308Y-104168348D01*
X125168348Y-104444308D01*
X125019000Y-104804867D01*
X125019000Y-105195133D01*
X125168348Y-105555692D01*
X125444308Y-105831652D01*
X125492001Y-105851407D01*
X125492000Y-107128572D01*
X125482049Y-107178600D01*
X125492000Y-107228628D01*
X125492000Y-107228631D01*
X125521475Y-107376811D01*
X125633753Y-107544847D01*
X125676167Y-107573188D01*
X126078579Y-107975600D01*
X124975420Y-107975600D01*
X124508000Y-107508180D01*
X124508000Y-105851407D01*
X124555692Y-105831652D01*
X124831652Y-105555692D01*
X124981000Y-105195133D01*
X124981000Y-104804867D01*
X124831652Y-104444308D01*
X124555692Y-104168348D01*
X124195133Y-104019000D01*
X123804867Y-104019000D01*
X123444308Y-104168348D01*
X123168348Y-104444308D01*
X123019000Y-104804867D01*
X122981000Y-104804867D01*
X122831652Y-104444308D01*
X122555692Y-104168348D01*
X122195133Y-104019000D01*
X121804867Y-104019000D01*
X121444308Y-104168348D01*
X121168348Y-104444308D01*
X121019000Y-104804867D01*
X120981000Y-104804867D01*
X120831652Y-104444308D01*
X120555692Y-104168348D01*
X120195133Y-104019000D01*
X119804867Y-104019000D01*
X119444308Y-104168348D01*
X119168348Y-104444308D01*
X119019000Y-104804867D01*
X118981000Y-104804867D01*
X118831652Y-104444308D01*
X118555692Y-104168348D01*
X118195133Y-104019000D01*
X117804867Y-104019000D01*
X117444308Y-104168348D01*
X117168348Y-104444308D01*
X117019000Y-104804867D01*
X117019000Y-105195133D01*
X117168348Y-105555692D01*
X117444308Y-105831652D01*
X117492001Y-105851407D01*
X117492000Y-109627980D01*
X117112380Y-110007600D01*
X115791161Y-110007600D01*
X115812388Y-109975832D01*
X116325832Y-109462388D01*
X116368247Y-109434047D01*
X116480525Y-109266012D01*
X116510000Y-109117832D01*
X116510000Y-109117828D01*
X116519951Y-109067800D01*
X116510000Y-109017772D01*
X116510000Y-105900555D01*
X116519951Y-105850527D01*
X116519203Y-105846766D01*
X116555692Y-105831652D01*
X116831652Y-105555692D01*
X116981000Y-105195133D01*
X116981000Y-104804867D01*
X116831652Y-104444308D01*
X116555692Y-104168348D01*
X116195133Y-104019000D01*
X115804867Y-104019000D01*
X115444308Y-104168348D01*
X115168348Y-104444308D01*
X115019000Y-104804867D01*
X115019000Y-105195133D01*
X115168348Y-105555692D01*
X115444308Y-105831652D01*
X115482277Y-105847379D01*
X115482049Y-105848528D01*
X115494000Y-105908611D01*
X115494001Y-108857379D01*
X115207380Y-109144000D01*
X113774020Y-109144000D01*
X114323835Y-108594186D01*
X114366247Y-108565847D01*
X114394586Y-108523435D01*
X114394588Y-108523433D01*
X114478525Y-108397812D01*
X114481670Y-108382000D01*
X114508000Y-108249632D01*
X114508000Y-108249629D01*
X114517951Y-108199601D01*
X114508000Y-108149573D01*
X114508000Y-105851407D01*
X114555692Y-105831652D01*
X114831652Y-105555692D01*
X114981000Y-105195133D01*
X114981000Y-104804867D01*
X114831652Y-104444308D01*
X114555692Y-104168348D01*
X114195133Y-104019000D01*
X113804867Y-104019000D01*
X113444308Y-104168348D01*
X113168348Y-104444308D01*
X113019000Y-104804867D01*
X113019000Y-105195133D01*
X113168348Y-105555692D01*
X113444308Y-105831652D01*
X113492000Y-105851407D01*
X113492001Y-107989178D01*
X113099180Y-108382000D01*
X107050267Y-108382000D01*
X107000239Y-108372049D01*
X106950211Y-108382000D01*
X106950208Y-108382000D01*
X106813581Y-108409177D01*
X106802028Y-108411475D01*
X106676407Y-108495412D01*
X106676405Y-108495414D01*
X106633993Y-108523753D01*
X106605654Y-108566165D01*
X106026168Y-109145652D01*
X105983753Y-109173993D01*
X105955413Y-109216407D01*
X105955412Y-109216408D01*
X105922268Y-109266012D01*
X105871475Y-109342029D01*
X105842000Y-109490209D01*
X105842000Y-109490212D01*
X105832049Y-109540240D01*
X105842000Y-109590268D01*
X105842001Y-112660167D01*
X105452694Y-112920294D01*
X105177613Y-113331982D01*
X105105400Y-113695020D01*
X105062064Y-113695020D01*
X105062064Y-112954000D01*
X105032494Y-112805341D01*
X104948286Y-112679314D01*
X104822259Y-112595106D01*
X104673600Y-112565536D01*
X104318000Y-112565536D01*
X104318000Y-108780380D01*
X104970380Y-108128000D01*
X111379972Y-108128000D01*
X111430000Y-108137951D01*
X111480028Y-108128000D01*
X111480032Y-108128000D01*
X111628212Y-108098525D01*
X111796247Y-107986247D01*
X111824588Y-107943832D01*
X112323835Y-107444586D01*
X112366247Y-107416247D01*
X112394586Y-107373835D01*
X112394588Y-107373833D01*
X112478525Y-107248212D01*
X112488826Y-107196424D01*
X112508000Y-107100032D01*
X112508000Y-107100028D01*
X112517951Y-107050000D01*
X112508000Y-106999972D01*
X112508000Y-105851407D01*
X112555692Y-105831652D01*
X112831652Y-105555692D01*
X112981000Y-105195133D01*
X112981000Y-104804867D01*
X112831652Y-104444308D01*
X112555692Y-104168348D01*
X112195133Y-104019000D01*
X111804867Y-104019000D01*
X111444308Y-104168348D01*
X111168348Y-104444308D01*
X111019000Y-104804867D01*
X111019000Y-105195133D01*
X111168348Y-105555692D01*
X111444308Y-105831652D01*
X111492000Y-105851407D01*
X111492001Y-106839578D01*
X111219580Y-107112000D01*
X104809987Y-107112000D01*
X104759959Y-107102049D01*
X104709931Y-107112000D01*
X104709928Y-107112000D01*
X104561748Y-107141475D01*
X104393713Y-107253753D01*
X104365372Y-107296168D01*
X103486168Y-108175372D01*
X103443753Y-108203713D01*
X103415413Y-108246127D01*
X103415412Y-108246128D01*
X103389179Y-108285389D01*
X103331475Y-108371749D01*
X103302000Y-108519929D01*
X103302000Y-108519932D01*
X103292049Y-108569960D01*
X103302000Y-108619988D01*
X103302001Y-112565536D01*
X102946400Y-112565536D01*
X102797741Y-112595106D01*
X102671714Y-112679314D01*
X102587506Y-112805341D01*
X102557936Y-112954000D01*
X100431000Y-112954000D01*
X100431000Y-103625846D01*
X102119000Y-103625846D01*
X102119000Y-104374154D01*
X102405365Y-105065501D01*
X102934499Y-105594635D01*
X103625846Y-105881000D01*
X104374154Y-105881000D01*
X105065501Y-105594635D01*
X105437886Y-105222250D01*
X109019000Y-105222250D01*
X109019000Y-105675786D01*
X109077004Y-105815820D01*
X109184181Y-105922996D01*
X109324215Y-105981000D01*
X109777750Y-105981000D01*
X109873000Y-105885750D01*
X109873000Y-105127000D01*
X110127000Y-105127000D01*
X110127000Y-105885750D01*
X110222250Y-105981000D01*
X110675785Y-105981000D01*
X110815819Y-105922996D01*
X110922996Y-105815820D01*
X110981000Y-105675786D01*
X110981000Y-105222250D01*
X110885750Y-105127000D01*
X110127000Y-105127000D01*
X109873000Y-105127000D01*
X109114250Y-105127000D01*
X109019000Y-105222250D01*
X105437886Y-105222250D01*
X105594635Y-105065501D01*
X105881000Y-104374154D01*
X105881000Y-104324214D01*
X109019000Y-104324214D01*
X109019000Y-104777750D01*
X109114250Y-104873000D01*
X109873000Y-104873000D01*
X109873000Y-104114250D01*
X110127000Y-104114250D01*
X110127000Y-104873000D01*
X110885750Y-104873000D01*
X110981000Y-104777750D01*
X110981000Y-104324214D01*
X110922996Y-104184180D01*
X110815819Y-104077004D01*
X110675785Y-104019000D01*
X110222250Y-104019000D01*
X110127000Y-104114250D01*
X109873000Y-104114250D01*
X109777750Y-104019000D01*
X109324215Y-104019000D01*
X109184181Y-104077004D01*
X109077004Y-104184180D01*
X109019000Y-104324214D01*
X105881000Y-104324214D01*
X105881000Y-103723379D01*
X109456226Y-103723379D01*
X109519590Y-103877294D01*
X109891885Y-103994359D01*
X110280639Y-103960042D01*
X110480410Y-103877294D01*
X110543774Y-103723379D01*
X110000000Y-103179605D01*
X109456226Y-103723379D01*
X105881000Y-103723379D01*
X105881000Y-103625846D01*
X105594635Y-102934499D01*
X105552021Y-102891885D01*
X109005641Y-102891885D01*
X109039958Y-103280639D01*
X109122706Y-103480410D01*
X109276621Y-103543774D01*
X109820395Y-103000000D01*
X110179605Y-103000000D01*
X110723379Y-103543774D01*
X110877294Y-103480410D01*
X110994359Y-103108115D01*
X110967590Y-102804867D01*
X111019000Y-102804867D01*
X111019000Y-103195133D01*
X111168348Y-103555692D01*
X111444308Y-103831652D01*
X111804867Y-103981000D01*
X112195133Y-103981000D01*
X112555692Y-103831652D01*
X112831652Y-103555692D01*
X112981000Y-103195133D01*
X112981000Y-102804867D01*
X113019000Y-102804867D01*
X113019000Y-103195133D01*
X113168348Y-103555692D01*
X113444308Y-103831652D01*
X113804867Y-103981000D01*
X114195133Y-103981000D01*
X114555692Y-103831652D01*
X114831652Y-103555692D01*
X114981000Y-103195133D01*
X114981000Y-102804867D01*
X115019000Y-102804867D01*
X115019000Y-103195133D01*
X115168348Y-103555692D01*
X115444308Y-103831652D01*
X115804867Y-103981000D01*
X116195133Y-103981000D01*
X116555692Y-103831652D01*
X116831652Y-103555692D01*
X116981000Y-103195133D01*
X116981000Y-102804867D01*
X117019000Y-102804867D01*
X117019000Y-103195133D01*
X117168348Y-103555692D01*
X117444308Y-103831652D01*
X117804867Y-103981000D01*
X118195133Y-103981000D01*
X118555692Y-103831652D01*
X118831652Y-103555692D01*
X118981000Y-103195133D01*
X118981000Y-102804867D01*
X119019000Y-102804867D01*
X119019000Y-103195133D01*
X119168348Y-103555692D01*
X119444308Y-103831652D01*
X119804867Y-103981000D01*
X120195133Y-103981000D01*
X120555692Y-103831652D01*
X120831652Y-103555692D01*
X120981000Y-103195133D01*
X120981000Y-102804867D01*
X121019000Y-102804867D01*
X121019000Y-103195133D01*
X121168348Y-103555692D01*
X121444308Y-103831652D01*
X121804867Y-103981000D01*
X122195133Y-103981000D01*
X122555692Y-103831652D01*
X122831652Y-103555692D01*
X122981000Y-103195133D01*
X122981000Y-102804867D01*
X123019000Y-102804867D01*
X123019000Y-103195133D01*
X123168348Y-103555692D01*
X123444308Y-103831652D01*
X123804867Y-103981000D01*
X124195133Y-103981000D01*
X124555692Y-103831652D01*
X124831652Y-103555692D01*
X124981000Y-103195133D01*
X124981000Y-102804867D01*
X125019000Y-102804867D01*
X125019000Y-103195133D01*
X125168348Y-103555692D01*
X125444308Y-103831652D01*
X125804867Y-103981000D01*
X126195133Y-103981000D01*
X126555692Y-103831652D01*
X126831652Y-103555692D01*
X126981000Y-103195133D01*
X126981000Y-102804867D01*
X127019000Y-102804867D01*
X127019000Y-103195133D01*
X127168348Y-103555692D01*
X127444308Y-103831652D01*
X127804867Y-103981000D01*
X128195133Y-103981000D01*
X128555692Y-103831652D01*
X128831652Y-103555692D01*
X128981000Y-103195133D01*
X128981000Y-102804867D01*
X129019000Y-102804867D01*
X129019000Y-103195133D01*
X129168348Y-103555692D01*
X129444308Y-103831652D01*
X129804867Y-103981000D01*
X130195133Y-103981000D01*
X130555692Y-103831652D01*
X130831652Y-103555692D01*
X130981000Y-103195133D01*
X130981000Y-102804867D01*
X131019000Y-102804867D01*
X131019000Y-103195133D01*
X131168348Y-103555692D01*
X131444308Y-103831652D01*
X131804867Y-103981000D01*
X132195133Y-103981000D01*
X132555692Y-103831652D01*
X132831652Y-103555692D01*
X132981000Y-103195133D01*
X132981000Y-102804867D01*
X133019000Y-102804867D01*
X133019000Y-103195133D01*
X133168348Y-103555692D01*
X133444308Y-103831652D01*
X133804867Y-103981000D01*
X134195133Y-103981000D01*
X134555692Y-103831652D01*
X134831652Y-103555692D01*
X134981000Y-103195133D01*
X134981000Y-102804867D01*
X135019000Y-102804867D01*
X135019000Y-103195133D01*
X135168348Y-103555692D01*
X135444308Y-103831652D01*
X135804867Y-103981000D01*
X136195133Y-103981000D01*
X136555692Y-103831652D01*
X136831652Y-103555692D01*
X136981000Y-103195133D01*
X136981000Y-102804867D01*
X137019000Y-102804867D01*
X137019000Y-103195133D01*
X137168348Y-103555692D01*
X137444308Y-103831652D01*
X137804867Y-103981000D01*
X138195133Y-103981000D01*
X138555692Y-103831652D01*
X138831652Y-103555692D01*
X138981000Y-103195133D01*
X138981000Y-102804867D01*
X139019000Y-102804867D01*
X139019000Y-103195133D01*
X139168348Y-103555692D01*
X139444308Y-103831652D01*
X139804867Y-103981000D01*
X140195133Y-103981000D01*
X140555692Y-103831652D01*
X140831652Y-103555692D01*
X140981000Y-103195133D01*
X140981000Y-102804867D01*
X140831652Y-102444308D01*
X140555692Y-102168348D01*
X140195133Y-102019000D01*
X139804867Y-102019000D01*
X139444308Y-102168348D01*
X139168348Y-102444308D01*
X139019000Y-102804867D01*
X138981000Y-102804867D01*
X138831652Y-102444308D01*
X138555692Y-102168348D01*
X138195133Y-102019000D01*
X137804867Y-102019000D01*
X137444308Y-102168348D01*
X137168348Y-102444308D01*
X137019000Y-102804867D01*
X136981000Y-102804867D01*
X136831652Y-102444308D01*
X136555692Y-102168348D01*
X136195133Y-102019000D01*
X135804867Y-102019000D01*
X135444308Y-102168348D01*
X135168348Y-102444308D01*
X135019000Y-102804867D01*
X134981000Y-102804867D01*
X134831652Y-102444308D01*
X134555692Y-102168348D01*
X134195133Y-102019000D01*
X133804867Y-102019000D01*
X133444308Y-102168348D01*
X133168348Y-102444308D01*
X133019000Y-102804867D01*
X132981000Y-102804867D01*
X132831652Y-102444308D01*
X132555692Y-102168348D01*
X132195133Y-102019000D01*
X131804867Y-102019000D01*
X131444308Y-102168348D01*
X131168348Y-102444308D01*
X131019000Y-102804867D01*
X130981000Y-102804867D01*
X130831652Y-102444308D01*
X130555692Y-102168348D01*
X130195133Y-102019000D01*
X129804867Y-102019000D01*
X129444308Y-102168348D01*
X129168348Y-102444308D01*
X129019000Y-102804867D01*
X128981000Y-102804867D01*
X128831652Y-102444308D01*
X128555692Y-102168348D01*
X128195133Y-102019000D01*
X127804867Y-102019000D01*
X127444308Y-102168348D01*
X127168348Y-102444308D01*
X127019000Y-102804867D01*
X126981000Y-102804867D01*
X126831652Y-102444308D01*
X126555692Y-102168348D01*
X126195133Y-102019000D01*
X125804867Y-102019000D01*
X125444308Y-102168348D01*
X125168348Y-102444308D01*
X125019000Y-102804867D01*
X124981000Y-102804867D01*
X124831652Y-102444308D01*
X124555692Y-102168348D01*
X124195133Y-102019000D01*
X123804867Y-102019000D01*
X123444308Y-102168348D01*
X123168348Y-102444308D01*
X123019000Y-102804867D01*
X122981000Y-102804867D01*
X122831652Y-102444308D01*
X122555692Y-102168348D01*
X122195133Y-102019000D01*
X121804867Y-102019000D01*
X121444308Y-102168348D01*
X121168348Y-102444308D01*
X121019000Y-102804867D01*
X120981000Y-102804867D01*
X120831652Y-102444308D01*
X120555692Y-102168348D01*
X120195133Y-102019000D01*
X119804867Y-102019000D01*
X119444308Y-102168348D01*
X119168348Y-102444308D01*
X119019000Y-102804867D01*
X118981000Y-102804867D01*
X118831652Y-102444308D01*
X118555692Y-102168348D01*
X118195133Y-102019000D01*
X117804867Y-102019000D01*
X117444308Y-102168348D01*
X117168348Y-102444308D01*
X117019000Y-102804867D01*
X116981000Y-102804867D01*
X116831652Y-102444308D01*
X116555692Y-102168348D01*
X116195133Y-102019000D01*
X115804867Y-102019000D01*
X115444308Y-102168348D01*
X115168348Y-102444308D01*
X115019000Y-102804867D01*
X114981000Y-102804867D01*
X114831652Y-102444308D01*
X114555692Y-102168348D01*
X114195133Y-102019000D01*
X113804867Y-102019000D01*
X113444308Y-102168348D01*
X113168348Y-102444308D01*
X113019000Y-102804867D01*
X112981000Y-102804867D01*
X112831652Y-102444308D01*
X112555692Y-102168348D01*
X112195133Y-102019000D01*
X111804867Y-102019000D01*
X111444308Y-102168348D01*
X111168348Y-102444308D01*
X111019000Y-102804867D01*
X110967590Y-102804867D01*
X110960042Y-102719361D01*
X110877294Y-102519590D01*
X110723379Y-102456226D01*
X110179605Y-103000000D01*
X109820395Y-103000000D01*
X109276621Y-102456226D01*
X109122706Y-102519590D01*
X109005641Y-102891885D01*
X105552021Y-102891885D01*
X105065501Y-102405365D01*
X104754686Y-102276621D01*
X109456226Y-102276621D01*
X110000000Y-102820395D01*
X110543774Y-102276621D01*
X110480410Y-102122706D01*
X110108115Y-102005641D01*
X109719361Y-102039958D01*
X109519590Y-102122706D01*
X109456226Y-102276621D01*
X104754686Y-102276621D01*
X104374154Y-102119000D01*
X103625846Y-102119000D01*
X102934499Y-102405365D01*
X102405365Y-102934499D01*
X102119000Y-103625846D01*
X100431000Y-103625846D01*
X100431000Y-100431000D01*
X184569000Y-100431000D01*
X184569001Y-141569000D01*
X184569001Y-141569000D01*
G37*
X184569001Y-141569000D02*
X100431000Y-141569000D01*
X100431000Y-135125846D01*
X102119000Y-135125846D01*
X102119000Y-135874154D01*
X102405365Y-136565501D01*
X102934499Y-137094635D01*
X103625846Y-137381000D01*
X104374154Y-137381000D01*
X105065501Y-137094635D01*
X105594635Y-136565501D01*
X105881000Y-135874154D01*
X105881000Y-135125846D01*
X105594635Y-134434499D01*
X105065501Y-133905365D01*
X104374154Y-133619000D01*
X103625846Y-133619000D01*
X102934499Y-133905365D01*
X102405365Y-134434499D01*
X102119000Y-135125846D01*
X100431000Y-135125846D01*
X100431000Y-132775332D01*
X102964273Y-132775332D01*
X103078857Y-132972397D01*
X103602302Y-133159144D01*
X104157368Y-133131362D01*
X104541143Y-132972397D01*
X104655727Y-132775332D01*
X103810000Y-131929605D01*
X102964273Y-132775332D01*
X100431000Y-132775332D01*
X100431000Y-131542302D01*
X102400856Y-131542302D01*
X102428638Y-132097368D01*
X102587603Y-132481143D01*
X102784668Y-132595727D01*
X103630395Y-131750000D01*
X103989605Y-131750000D01*
X104835332Y-132595727D01*
X105032397Y-132481143D01*
X105219144Y-131957698D01*
X105191362Y-131402632D01*
X105032397Y-131018857D01*
X104835332Y-130904273D01*
X103989605Y-131750000D01*
X103630395Y-131750000D01*
X102784668Y-130904273D01*
X102587603Y-131018857D01*
X102400856Y-131542302D01*
X100431000Y-131542302D01*
X100431000Y-130235332D01*
X102964273Y-130235332D01*
X103078857Y-130432397D01*
X103202344Y-130476453D01*
X103078857Y-130527603D01*
X102964273Y-130724668D01*
X103810000Y-131570395D01*
X104655727Y-130724668D01*
X104541143Y-130527603D01*
X104417656Y-130483547D01*
X104541143Y-130432397D01*
X104655727Y-130235332D01*
X103810000Y-129389605D01*
X102964273Y-130235332D01*
X100431000Y-130235332D01*
X100431000Y-129002302D01*
X102400856Y-129002302D01*
X102428638Y-129557368D01*
X102587603Y-129941143D01*
X102784668Y-130055727D01*
X103630395Y-129210000D01*
X103989605Y-129210000D01*
X104835332Y-130055727D01*
X105032397Y-129941143D01*
X105219144Y-129417698D01*
X105191362Y-128862632D01*
X105032397Y-128478857D01*
X104835332Y-128364273D01*
X103989605Y-129210000D01*
X103630395Y-129210000D01*
X102784668Y-128364273D01*
X102587603Y-128478857D01*
X102400856Y-129002302D01*
X100431000Y-129002302D01*
X100431000Y-127695332D01*
X102964273Y-127695332D01*
X103078857Y-127892397D01*
X103202344Y-127936453D01*
X103078857Y-127987603D01*
X102964273Y-128184668D01*
X103810000Y-129030395D01*
X104655727Y-128184668D01*
X104541143Y-127987603D01*
X104417656Y-127943547D01*
X104541143Y-127892397D01*
X104655727Y-127695332D01*
X103810000Y-126849605D01*
X102964273Y-127695332D01*
X100431000Y-127695332D01*
X100431000Y-126462302D01*
X102400856Y-126462302D01*
X102428638Y-127017368D01*
X102587603Y-127401143D01*
X102784668Y-127515727D01*
X103630395Y-126670000D01*
X103989605Y-126670000D01*
X104835332Y-127515727D01*
X105032397Y-127401143D01*
X105219144Y-126877698D01*
X105191362Y-126322632D01*
X105032397Y-125938857D01*
X104835332Y-125824273D01*
X103989605Y-126670000D01*
X103630395Y-126670000D01*
X102784668Y-125824273D01*
X102587603Y-125938857D01*
X102400856Y-126462302D01*
X100431000Y-126462302D01*
X100431000Y-125155332D01*
X102964273Y-125155332D01*
X103078857Y-125352397D01*
X103202344Y-125396453D01*
X103078857Y-125447603D01*
X102964273Y-125644668D01*
X103810000Y-126490395D01*
X104655727Y-125644668D01*
X104541143Y-125447603D01*
X104417656Y-125403547D01*
X104541143Y-125352397D01*
X104655727Y-125155332D01*
X103810000Y-124309605D01*
X102964273Y-125155332D01*
X100431000Y-125155332D01*
X100431000Y-123922302D01*
X102400856Y-123922302D01*
X102428638Y-124477368D01*
X102587603Y-124861143D01*
X102784668Y-124975727D01*
X103630395Y-124130000D01*
X103989605Y-124130000D01*
X104835332Y-124975727D01*
X105032397Y-124861143D01*
X105219144Y-124337698D01*
X105191362Y-123782632D01*
X105032397Y-123398857D01*
X104835332Y-123284273D01*
X103989605Y-124130000D01*
X103630395Y-124130000D01*
X102784668Y-123284273D01*
X102587603Y-123398857D01*
X102400856Y-123922302D01*
X100431000Y-123922302D01*
X100431000Y-122615332D01*
X102964273Y-122615332D01*
X103078857Y-122812397D01*
X103202344Y-122856453D01*
X103078857Y-122907603D01*
X102964273Y-123104668D01*
X103810000Y-123950395D01*
X104655727Y-123104668D01*
X104541143Y-122907603D01*
X104417656Y-122863547D01*
X104541143Y-122812397D01*
X104655727Y-122615332D01*
X103810000Y-121769605D01*
X102964273Y-122615332D01*
X100431000Y-122615332D01*
X100431000Y-121382302D01*
X102400856Y-121382302D01*
X102428638Y-121937368D01*
X102587603Y-122321143D01*
X102784668Y-122435727D01*
X103630395Y-121590000D01*
X103989605Y-121590000D01*
X104835332Y-122435727D01*
X105032397Y-122321143D01*
X105219144Y-121797698D01*
X105191362Y-121242632D01*
X105032397Y-120858857D01*
X104835332Y-120744273D01*
X103989605Y-121590000D01*
X103630395Y-121590000D01*
X102784668Y-120744273D01*
X102587603Y-120858857D01*
X102400856Y-121382302D01*
X100431000Y-121382302D01*
X100431000Y-120075332D01*
X102964273Y-120075332D01*
X103078857Y-120272397D01*
X103202344Y-120316453D01*
X103078857Y-120367603D01*
X102964273Y-120564668D01*
X103810000Y-121410395D01*
X104655727Y-120564668D01*
X104541143Y-120367603D01*
X104417656Y-120323547D01*
X104541143Y-120272397D01*
X104655727Y-120075332D01*
X103810000Y-119229605D01*
X102964273Y-120075332D01*
X100431000Y-120075332D01*
X100431000Y-118842302D01*
X102400856Y-118842302D01*
X102428638Y-119397368D01*
X102587603Y-119781143D01*
X102784668Y-119895727D01*
X103630395Y-119050000D01*
X103989605Y-119050000D01*
X104835332Y-119895727D01*
X105032397Y-119781143D01*
X105219144Y-119257698D01*
X105194840Y-118772119D01*
X107493000Y-118772119D01*
X107493000Y-119327881D01*
X107705680Y-119841337D01*
X108098663Y-120234320D01*
X108305513Y-120320000D01*
X108098663Y-120405680D01*
X107705680Y-120798663D01*
X107493000Y-121312119D01*
X107493000Y-121867881D01*
X107705680Y-122381337D01*
X108098663Y-122774320D01*
X108305513Y-122860000D01*
X108098663Y-122945680D01*
X107705680Y-123338663D01*
X107493000Y-123852119D01*
X107493000Y-124407881D01*
X107705680Y-124921337D01*
X108098663Y-125314320D01*
X108305513Y-125400000D01*
X108098663Y-125485680D01*
X107705680Y-125878663D01*
X107493000Y-126392119D01*
X107493000Y-126947881D01*
X107705680Y-127461337D01*
X108098663Y-127854320D01*
X108305513Y-127940000D01*
X108098663Y-128025680D01*
X107705680Y-128418663D01*
X107493000Y-128932119D01*
X107493000Y-129487881D01*
X107705680Y-130001337D01*
X108098663Y-130394320D01*
X108305513Y-130480000D01*
X108098663Y-130565680D01*
X107705680Y-130958663D01*
X107493000Y-131472119D01*
X107493000Y-132027881D01*
X107705680Y-132541337D01*
X108098663Y-132934320D01*
X108305513Y-133020000D01*
X108098663Y-133105680D01*
X107705680Y-133498663D01*
X107493000Y-134012119D01*
X107493000Y-134567881D01*
X107705680Y-135081337D01*
X108098663Y-135474320D01*
X108305513Y-135560000D01*
X108098663Y-135645680D01*
X107705680Y-136038663D01*
X107493000Y-136552119D01*
X107493000Y-137107881D01*
X107705680Y-137621337D01*
X108098663Y-138014320D01*
X108612119Y-138227000D01*
X109167881Y-138227000D01*
X109681337Y-138014320D01*
X110074320Y-137621337D01*
X110112774Y-137528500D01*
X110207226Y-137528500D01*
X110245680Y-137621337D01*
X110638663Y-138014320D01*
X111152119Y-138227000D01*
X111707881Y-138227000D01*
X112221337Y-138014320D01*
X112614320Y-137621337D01*
X112652774Y-137528500D01*
X112747226Y-137528500D01*
X112785680Y-137621337D01*
X113178663Y-138014320D01*
X113692119Y-138227000D01*
X114247881Y-138227000D01*
X114761337Y-138014320D01*
X115154320Y-137621337D01*
X115192774Y-137528500D01*
X115287226Y-137528500D01*
X115325680Y-137621337D01*
X115718663Y-138014320D01*
X116232119Y-138227000D01*
X116787881Y-138227000D01*
X117301337Y-138014320D01*
X117694320Y-137621337D01*
X117907000Y-137107881D01*
X117907000Y-136552119D01*
X117694320Y-136038663D01*
X117301337Y-135645680D01*
X117094487Y-135560000D01*
X117301337Y-135474320D01*
X117694320Y-135081337D01*
X117907000Y-134567881D01*
X117907000Y-134012119D01*
X117694320Y-133498663D01*
X117301337Y-133105680D01*
X117094487Y-133020000D01*
X117301337Y-132934320D01*
X117694320Y-132541337D01*
X117907000Y-132027881D01*
X117907000Y-131472119D01*
X117694320Y-130958663D01*
X117301337Y-130565680D01*
X117094487Y-130480000D01*
X117301337Y-130394320D01*
X117694320Y-130001337D01*
X117907000Y-129487881D01*
X117907000Y-128932119D01*
X117694320Y-128418663D01*
X117301337Y-128025680D01*
X117094487Y-127940000D01*
X117301337Y-127854320D01*
X117694320Y-127461337D01*
X117907000Y-126947881D01*
X117907000Y-126392119D01*
X117694320Y-125878663D01*
X117301337Y-125485680D01*
X117094487Y-125400000D01*
X117301337Y-125314320D01*
X117694320Y-124921337D01*
X117907000Y-124407881D01*
X117907000Y-123852119D01*
X117694320Y-123338663D01*
X117301337Y-122945680D01*
X117094487Y-122860000D01*
X117301337Y-122774320D01*
X117694320Y-122381337D01*
X117907000Y-121867881D01*
X117907000Y-121312119D01*
X117694320Y-120798663D01*
X117301337Y-120405680D01*
X117094487Y-120320000D01*
X117301337Y-120234320D01*
X117694320Y-119841337D01*
X117907000Y-119327881D01*
X117907000Y-118772119D01*
X122733000Y-118772119D01*
X122733000Y-119327881D01*
X122945680Y-119841337D01*
X123338663Y-120234320D01*
X123545513Y-120320000D01*
X123338663Y-120405680D01*
X122945680Y-120798663D01*
X122733000Y-121312119D01*
X122733000Y-121867881D01*
X122945680Y-122381337D01*
X123338663Y-122774320D01*
X123545513Y-122860000D01*
X123338663Y-122945680D01*
X122945680Y-123338663D01*
X122733000Y-123852119D01*
X122733000Y-124407881D01*
X122945680Y-124921337D01*
X123338663Y-125314320D01*
X123545513Y-125400000D01*
X123338663Y-125485680D01*
X122945680Y-125878663D01*
X122733000Y-126392119D01*
X122733000Y-126947881D01*
X122945680Y-127461337D01*
X123338663Y-127854320D01*
X123545513Y-127940000D01*
X123338663Y-128025680D01*
X122945680Y-128418663D01*
X122733000Y-128932119D01*
X122733000Y-129487881D01*
X122945680Y-130001337D01*
X123338663Y-130394320D01*
X123545513Y-130480000D01*
X123338663Y-130565680D01*
X122945680Y-130958663D01*
X122733000Y-131472119D01*
X122733000Y-132027881D01*
X122945680Y-132541337D01*
X123338663Y-132934320D01*
X123545513Y-133020000D01*
X123338663Y-133105680D01*
X122945680Y-133498663D01*
X122733000Y-134012119D01*
X122733000Y-134567881D01*
X122945680Y-135081337D01*
X123338663Y-135474320D01*
X123545513Y-135560000D01*
X123338663Y-135645680D01*
X122945680Y-136038663D01*
X122733000Y-136552119D01*
X122733000Y-137107881D01*
X122945680Y-137621337D01*
X123338663Y-138014320D01*
X123852119Y-138227000D01*
X124407881Y-138227000D01*
X124921337Y-138014320D01*
X125314320Y-137621337D01*
X125352774Y-137528500D01*
X125447226Y-137528500D01*
X125485680Y-137621337D01*
X125878663Y-138014320D01*
X126392119Y-138227000D01*
X126947881Y-138227000D01*
X127461337Y-138014320D01*
X127854320Y-137621337D01*
X127892774Y-137528500D01*
X127987226Y-137528500D01*
X128025680Y-137621337D01*
X128418663Y-138014320D01*
X128932119Y-138227000D01*
X129487881Y-138227000D01*
X130001337Y-138014320D01*
X130394320Y-137621337D01*
X130432774Y-137528500D01*
X130527226Y-137528500D01*
X130565680Y-137621337D01*
X130958663Y-138014320D01*
X131472119Y-138227000D01*
X132027881Y-138227000D01*
X132541337Y-138014320D01*
X132934320Y-137621337D01*
X133147000Y-137107881D01*
X133147000Y-136552119D01*
X132934320Y-136038663D01*
X132541337Y-135645680D01*
X132334487Y-135560000D01*
X132541337Y-135474320D01*
X132934320Y-135081337D01*
X133147000Y-134567881D01*
X133147000Y-134012119D01*
X132934320Y-133498663D01*
X132541337Y-133105680D01*
X132334487Y-133020000D01*
X132541337Y-132934320D01*
X132934320Y-132541337D01*
X133147000Y-132027881D01*
X133147000Y-131472119D01*
X132934320Y-130958663D01*
X132541337Y-130565680D01*
X132334487Y-130480000D01*
X132541337Y-130394320D01*
X132934320Y-130001337D01*
X133147000Y-129487881D01*
X133147000Y-128932119D01*
X132934320Y-128418663D01*
X132541337Y-128025680D01*
X132334487Y-127940000D01*
X132541337Y-127854320D01*
X132934320Y-127461337D01*
X133147000Y-126947881D01*
X133147000Y-126392119D01*
X132934320Y-125878663D01*
X132541337Y-125485680D01*
X132334487Y-125400000D01*
X132541337Y-125314320D01*
X132934320Y-124921337D01*
X133147000Y-124407881D01*
X133147000Y-123852119D01*
X132934320Y-123338663D01*
X132541337Y-122945680D01*
X132334487Y-122860000D01*
X132541337Y-122774320D01*
X132934320Y-122381337D01*
X133147000Y-121867881D01*
X133147000Y-121312119D01*
X132934320Y-120798663D01*
X132541337Y-120405680D01*
X132334487Y-120320000D01*
X132541337Y-120234320D01*
X132934320Y-119841337D01*
X133147000Y-119327881D01*
X133147000Y-118772119D01*
X132934320Y-118258663D01*
X132541337Y-117865680D01*
X132027881Y-117653000D01*
X131472119Y-117653000D01*
X130958663Y-117865680D01*
X130565680Y-118258663D01*
X130527226Y-118351500D01*
X130432774Y-118351500D01*
X130394320Y-118258663D01*
X130001337Y-117865680D01*
X129487881Y-117653000D01*
X128932119Y-117653000D01*
X128418663Y-117865680D01*
X128025680Y-118258663D01*
X127987226Y-118351500D01*
X127892774Y-118351500D01*
X127854320Y-118258663D01*
X127461337Y-117865680D01*
X126947881Y-117653000D01*
X126392119Y-117653000D01*
X125878663Y-117865680D01*
X125485680Y-118258663D01*
X125447226Y-118351500D01*
X125352774Y-118351500D01*
X125314320Y-118258663D01*
X124921337Y-117865680D01*
X124407881Y-117653000D01*
X123852119Y-117653000D01*
X123338663Y-117865680D01*
X122945680Y-118258663D01*
X122733000Y-118772119D01*
X117907000Y-118772119D01*
X117694320Y-118258663D01*
X117301337Y-117865680D01*
X116787881Y-117653000D01*
X116232119Y-117653000D01*
X115718663Y-117865680D01*
X115325680Y-118258663D01*
X115287226Y-118351500D01*
X115192774Y-118351500D01*
X115154320Y-118258663D01*
X114761337Y-117865680D01*
X114247881Y-117653000D01*
X113692119Y-117653000D01*
X113178663Y-117865680D01*
X112785680Y-118258663D01*
X112747226Y-118351500D01*
X112652774Y-118351500D01*
X112614320Y-118258663D01*
X112221337Y-117865680D01*
X111707881Y-117653000D01*
X111152119Y-117653000D01*
X110638663Y-117865680D01*
X110245680Y-118258663D01*
X110207226Y-118351500D01*
X110112774Y-118351500D01*
X110074320Y-118258663D01*
X109681337Y-117865680D01*
X109167881Y-117653000D01*
X108612119Y-117653000D01*
X108098663Y-117865680D01*
X107705680Y-118258663D01*
X107493000Y-118772119D01*
X105194840Y-118772119D01*
X105191362Y-118702632D01*
X105032397Y-118318857D01*
X104835332Y-118204273D01*
X103989605Y-119050000D01*
X103630395Y-119050000D01*
X102784668Y-118204273D01*
X102587603Y-118318857D01*
X102400856Y-118842302D01*
X100431000Y-118842302D01*
X100431000Y-118024668D01*
X102964273Y-118024668D01*
X103810000Y-118870395D01*
X104655727Y-118024668D01*
X104541143Y-117827603D01*
X104017698Y-117640856D01*
X103462632Y-117668638D01*
X103078857Y-117827603D01*
X102964273Y-118024668D01*
X100431000Y-118024668D01*
X100431000Y-112954000D01*
X102557936Y-112954000D01*
X102557936Y-114986000D01*
X102587506Y-115134659D01*
X102671714Y-115260686D01*
X102797741Y-115344894D01*
X102946400Y-115374464D01*
X104673600Y-115374464D01*
X104822259Y-115344894D01*
X104948286Y-115260686D01*
X105032494Y-115134659D01*
X105062064Y-114986000D01*
X105062064Y-113695020D01*
X105105400Y-113695020D01*
X105105400Y-114244981D01*
X105177613Y-114608019D01*
X105452695Y-115019706D01*
X105864382Y-115294787D01*
X106350000Y-115391383D01*
X106835619Y-115294787D01*
X107247306Y-115019706D01*
X107522387Y-114608018D01*
X107594600Y-114244980D01*
X107594600Y-113695019D01*
X107522387Y-113331981D01*
X107247306Y-112920294D01*
X106858000Y-112660168D01*
X106858000Y-109750660D01*
X107210661Y-109398000D01*
X109230760Y-109398000D01*
X108566168Y-110062592D01*
X108523753Y-110090933D01*
X108411475Y-110258969D01*
X108382000Y-110407149D01*
X108382000Y-110407152D01*
X108372049Y-110457180D01*
X108382000Y-110507208D01*
X108382001Y-112660167D01*
X107992694Y-112920294D01*
X107717613Y-113331982D01*
X107645400Y-113695020D01*
X107645400Y-114244981D01*
X107717613Y-114608019D01*
X107992695Y-115019706D01*
X108404382Y-115294787D01*
X108890000Y-115391383D01*
X109375619Y-115294787D01*
X109787306Y-115019706D01*
X110062387Y-114608018D01*
X110134600Y-114244980D01*
X110134600Y-113695019D01*
X110062387Y-113331981D01*
X109787306Y-112920294D01*
X109398000Y-112660168D01*
X109398000Y-110667600D01*
X109905600Y-110160000D01*
X111767839Y-110160000D01*
X111746614Y-110191765D01*
X111106168Y-110832212D01*
X111063753Y-110860553D01*
X110951475Y-111028589D01*
X110922000Y-111176769D01*
X110922000Y-111176772D01*
X110912049Y-111226800D01*
X110922000Y-111276828D01*
X110922001Y-112660167D01*
X110532694Y-112920294D01*
X110257613Y-113331982D01*
X110185400Y-113695020D01*
X110185400Y-114244981D01*
X110257613Y-114608019D01*
X110532695Y-115019706D01*
X110944382Y-115294787D01*
X111430000Y-115391383D01*
X111915619Y-115294787D01*
X112327306Y-115019706D01*
X112602387Y-114608018D01*
X112674600Y-114244980D01*
X112674600Y-113695019D01*
X112602387Y-113331981D01*
X112349828Y-112954000D01*
X115257936Y-112954000D01*
X115257936Y-114986000D01*
X115287506Y-115134659D01*
X115371714Y-115260686D01*
X115497741Y-115344894D01*
X115646400Y-115374464D01*
X117373600Y-115374464D01*
X117522259Y-115344894D01*
X117648286Y-115260686D01*
X117732494Y-115134659D01*
X117762064Y-114986000D01*
X117762064Y-113695020D01*
X117805400Y-113695020D01*
X117805400Y-114244981D01*
X117877613Y-114608019D01*
X118152695Y-115019706D01*
X118564382Y-115294787D01*
X119050000Y-115391383D01*
X119535619Y-115294787D01*
X119947306Y-115019706D01*
X120222387Y-114608018D01*
X120294600Y-114244980D01*
X120294600Y-113695020D01*
X120345400Y-113695020D01*
X120345400Y-114244981D01*
X120417613Y-114608019D01*
X120692695Y-115019706D01*
X121104382Y-115294787D01*
X121590000Y-115391383D01*
X122075619Y-115294787D01*
X122487306Y-115019706D01*
X122762387Y-114608018D01*
X122834600Y-114244980D01*
X122834600Y-113695020D01*
X122885400Y-113695020D01*
X122885400Y-114244981D01*
X122957613Y-114608019D01*
X123232695Y-115019706D01*
X123644382Y-115294787D01*
X124130000Y-115391383D01*
X124615619Y-115294787D01*
X125027306Y-115019706D01*
X125302387Y-114608018D01*
X125374600Y-114244980D01*
X125374600Y-113695019D01*
X125302387Y-113331981D01*
X125027306Y-112920294D01*
X124615618Y-112645213D01*
X124130000Y-112548617D01*
X123644381Y-112645213D01*
X123232694Y-112920294D01*
X122957613Y-113331982D01*
X122885400Y-113695020D01*
X122834600Y-113695020D01*
X122834600Y-113695019D01*
X122762387Y-113331981D01*
X122487306Y-112920294D01*
X122075618Y-112645213D01*
X121590000Y-112548617D01*
X121104381Y-112645213D01*
X120692694Y-112920294D01*
X120417613Y-113331982D01*
X120345400Y-113695020D01*
X120294600Y-113695020D01*
X120294600Y-113695019D01*
X120222387Y-113331981D01*
X119947306Y-112920294D01*
X119535618Y-112645213D01*
X119050000Y-112548617D01*
X118564381Y-112645213D01*
X118152694Y-112920294D01*
X117877613Y-113331982D01*
X117805400Y-113695020D01*
X117762064Y-113695020D01*
X117762064Y-112954000D01*
X117732494Y-112805341D01*
X117648286Y-112679314D01*
X117522259Y-112595106D01*
X117373600Y-112565536D01*
X115646400Y-112565536D01*
X115497741Y-112595106D01*
X115371714Y-112679314D01*
X115287506Y-112805341D01*
X115257936Y-112954000D01*
X112349828Y-112954000D01*
X112327306Y-112920294D01*
X111938000Y-112660168D01*
X111938000Y-111437220D01*
X112351621Y-111023600D01*
X117272772Y-111023600D01*
X117322800Y-111033551D01*
X117372828Y-111023600D01*
X117372832Y-111023600D01*
X117521012Y-110994125D01*
X117689047Y-110881847D01*
X117717388Y-110839432D01*
X118323833Y-110232987D01*
X118366247Y-110204647D01*
X118478525Y-110036612D01*
X118508000Y-109888432D01*
X118508000Y-109888429D01*
X118517951Y-109838401D01*
X118508000Y-109788373D01*
X118508000Y-105851407D01*
X118555692Y-105831652D01*
X118831652Y-105555692D01*
X118981000Y-105195133D01*
X118981000Y-104804867D01*
X119019000Y-104804867D01*
X119019000Y-105195133D01*
X119168348Y-105555692D01*
X119444308Y-105831652D01*
X119804867Y-105981000D01*
X120195133Y-105981000D01*
X120555692Y-105831652D01*
X120831652Y-105555692D01*
X120981000Y-105195133D01*
X120981000Y-104804867D01*
X121019000Y-104804867D01*
X121019000Y-105195133D01*
X121168348Y-105555692D01*
X121444308Y-105831652D01*
X121804867Y-105981000D01*
X122195133Y-105981000D01*
X122555692Y-105831652D01*
X122831652Y-105555692D01*
X122981000Y-105195133D01*
X122981000Y-104804867D01*
X123019000Y-104804867D01*
X123019000Y-105195133D01*
X123168348Y-105555692D01*
X123444308Y-105831652D01*
X123492000Y-105851407D01*
X123492001Y-107668567D01*
X123482049Y-107718600D01*
X123521475Y-107916811D01*
X123605412Y-108042432D01*
X123605415Y-108042435D01*
X123633754Y-108084847D01*
X123676166Y-108113186D01*
X124370412Y-108807432D01*
X124398753Y-108849847D01*
X124566788Y-108962125D01*
X124714968Y-108991600D01*
X124714971Y-108991600D01*
X124764999Y-109001551D01*
X124815027Y-108991600D01*
X128438240Y-108991600D01*
X128702000Y-109255361D01*
X128702001Y-112565536D01*
X128194000Y-112565536D01*
X128045341Y-112595106D01*
X127919314Y-112679314D01*
X127835106Y-112805341D01*
X127805536Y-112954000D01*
X127805536Y-114986000D01*
X127835106Y-115134659D01*
X127919314Y-115260686D01*
X128045341Y-115344894D01*
X128194000Y-115374464D01*
X130226000Y-115374464D01*
X130374659Y-115344894D01*
X130500686Y-115260686D01*
X130584894Y-115134659D01*
X130614464Y-114986000D01*
X130614464Y-114785082D01*
X130742820Y-114977180D01*
X131204918Y-115285944D01*
X131612412Y-115367000D01*
X131887588Y-115367000D01*
X132295082Y-115285944D01*
X132757180Y-114977180D01*
X133065944Y-114515082D01*
X133174368Y-113970000D01*
X133065944Y-113424918D01*
X132757180Y-112962820D01*
X132295082Y-112654056D01*
X132258000Y-112646680D01*
X132258000Y-108890000D01*
X133254096Y-108890000D01*
X133274000Y-108990064D01*
X133274001Y-116409932D01*
X133254096Y-116510000D01*
X133332950Y-116906423D01*
X133557506Y-117242495D01*
X133642338Y-117299178D01*
X135433000Y-119089841D01*
X135433000Y-119327881D01*
X135645680Y-119841337D01*
X135814001Y-120009658D01*
X135814000Y-120630343D01*
X135645680Y-120798663D01*
X135433000Y-121312119D01*
X135433000Y-121867881D01*
X135645680Y-122381337D01*
X135814001Y-122549658D01*
X135814000Y-123170343D01*
X135645680Y-123338663D01*
X135433000Y-123852119D01*
X135433000Y-124407881D01*
X135645680Y-124921337D01*
X135814001Y-125089658D01*
X135814000Y-125710343D01*
X135645680Y-125878663D01*
X135433000Y-126392119D01*
X135433000Y-126947881D01*
X135645680Y-127461337D01*
X135814001Y-127629658D01*
X135814000Y-128250343D01*
X135645680Y-128418663D01*
X135433000Y-128932119D01*
X135433000Y-129487881D01*
X135645680Y-130001337D01*
X135814001Y-130169658D01*
X135814000Y-130790343D01*
X135645680Y-130958663D01*
X135433000Y-131472119D01*
X135433000Y-132027881D01*
X135645680Y-132541337D01*
X135814001Y-132709658D01*
X135814000Y-133330343D01*
X135645680Y-133498663D01*
X135433000Y-134012119D01*
X135433000Y-134567881D01*
X135645680Y-135081337D01*
X135814001Y-135249658D01*
X135814000Y-135870343D01*
X135645680Y-136038663D01*
X135433000Y-136552119D01*
X135433000Y-137107881D01*
X135645680Y-137621337D01*
X136038663Y-138014320D01*
X136552119Y-138227000D01*
X137107881Y-138227000D01*
X137621337Y-138014320D01*
X137780325Y-137855332D01*
X141064273Y-137855332D01*
X141178857Y-138052397D01*
X141702302Y-138239144D01*
X142257368Y-138211362D01*
X142641143Y-138052397D01*
X142755727Y-137855332D01*
X141910000Y-137009605D01*
X141064273Y-137855332D01*
X137780325Y-137855332D01*
X138014320Y-137621337D01*
X138227000Y-137107881D01*
X138227000Y-136622302D01*
X140500856Y-136622302D01*
X140528638Y-137177368D01*
X140687603Y-137561143D01*
X140884668Y-137675727D01*
X141730395Y-136830000D01*
X142089605Y-136830000D01*
X142935332Y-137675727D01*
X143132397Y-137561143D01*
X143319144Y-137037698D01*
X143291362Y-136482632D01*
X143132397Y-136098857D01*
X142935332Y-135984273D01*
X142089605Y-136830000D01*
X141730395Y-136830000D01*
X140884668Y-135984273D01*
X140687603Y-136098857D01*
X140500856Y-136622302D01*
X138227000Y-136622302D01*
X138227000Y-136552119D01*
X138014320Y-136038663D01*
X137846000Y-135870343D01*
X137846000Y-135315332D01*
X141064273Y-135315332D01*
X141178857Y-135512397D01*
X141302344Y-135556453D01*
X141178857Y-135607603D01*
X141064273Y-135804668D01*
X141910000Y-136650395D01*
X142755727Y-135804668D01*
X142641143Y-135607603D01*
X142517656Y-135563547D01*
X142641143Y-135512397D01*
X142755727Y-135315332D01*
X141910000Y-134469605D01*
X141064273Y-135315332D01*
X137846000Y-135315332D01*
X137846000Y-135249657D01*
X138014320Y-135081337D01*
X138227000Y-134567881D01*
X138227000Y-134082302D01*
X140500856Y-134082302D01*
X140528638Y-134637368D01*
X140687603Y-135021143D01*
X140884668Y-135135727D01*
X141730395Y-134290000D01*
X142089605Y-134290000D01*
X142935332Y-135135727D01*
X143132397Y-135021143D01*
X143319144Y-134497698D01*
X143291362Y-133942632D01*
X143132397Y-133558857D01*
X142935332Y-133444273D01*
X142089605Y-134290000D01*
X141730395Y-134290000D01*
X140884668Y-133444273D01*
X140687603Y-133558857D01*
X140500856Y-134082302D01*
X138227000Y-134082302D01*
X138227000Y-134012119D01*
X138014320Y-133498663D01*
X137846000Y-133330343D01*
X137846000Y-132775332D01*
X141064273Y-132775332D01*
X141178857Y-132972397D01*
X141302344Y-133016453D01*
X141178857Y-133067603D01*
X141064273Y-133264668D01*
X141910000Y-134110395D01*
X142755727Y-133264668D01*
X142641143Y-133067603D01*
X142517656Y-133023547D01*
X142641143Y-132972397D01*
X142755727Y-132775332D01*
X141910000Y-131929605D01*
X141064273Y-132775332D01*
X137846000Y-132775332D01*
X137846000Y-132709657D01*
X138014320Y-132541337D01*
X138227000Y-132027881D01*
X138227000Y-131542302D01*
X140500856Y-131542302D01*
X140528638Y-132097368D01*
X140687603Y-132481143D01*
X140884668Y-132595727D01*
X141730395Y-131750000D01*
X142089605Y-131750000D01*
X142935332Y-132595727D01*
X143132397Y-132481143D01*
X143319144Y-131957698D01*
X143291362Y-131402632D01*
X143132397Y-131018857D01*
X142935332Y-130904273D01*
X142089605Y-131750000D01*
X141730395Y-131750000D01*
X140884668Y-130904273D01*
X140687603Y-131018857D01*
X140500856Y-131542302D01*
X138227000Y-131542302D01*
X138227000Y-131472119D01*
X138014320Y-130958663D01*
X137846000Y-130790343D01*
X137846000Y-130235332D01*
X141064273Y-130235332D01*
X141178857Y-130432397D01*
X141302344Y-130476453D01*
X141178857Y-130527603D01*
X141064273Y-130724668D01*
X141910000Y-131570395D01*
X142755727Y-130724668D01*
X142641143Y-130527603D01*
X142517656Y-130483547D01*
X142641143Y-130432397D01*
X142755727Y-130235332D01*
X141910000Y-129389605D01*
X141064273Y-130235332D01*
X137846000Y-130235332D01*
X137846000Y-130169657D01*
X138014320Y-130001337D01*
X138227000Y-129487881D01*
X138227000Y-129002302D01*
X140500856Y-129002302D01*
X140528638Y-129557368D01*
X140687603Y-129941143D01*
X140884668Y-130055727D01*
X141730395Y-129210000D01*
X142089605Y-129210000D01*
X142935332Y-130055727D01*
X143132397Y-129941143D01*
X143319144Y-129417698D01*
X143291362Y-128862632D01*
X143132397Y-128478857D01*
X142935332Y-128364273D01*
X142089605Y-129210000D01*
X141730395Y-129210000D01*
X140884668Y-128364273D01*
X140687603Y-128478857D01*
X140500856Y-129002302D01*
X138227000Y-129002302D01*
X138227000Y-128932119D01*
X138014320Y-128418663D01*
X137846000Y-128250343D01*
X137846000Y-127695332D01*
X141064273Y-127695332D01*
X141178857Y-127892397D01*
X141302344Y-127936453D01*
X141178857Y-127987603D01*
X141064273Y-128184668D01*
X141910000Y-129030395D01*
X142755727Y-128184668D01*
X142641143Y-127987603D01*
X142517656Y-127943547D01*
X142641143Y-127892397D01*
X142755727Y-127695332D01*
X141910000Y-126849605D01*
X141064273Y-127695332D01*
X137846000Y-127695332D01*
X137846000Y-127629657D01*
X138014320Y-127461337D01*
X138227000Y-126947881D01*
X138227000Y-126462302D01*
X140500856Y-126462302D01*
X140528638Y-127017368D01*
X140687603Y-127401143D01*
X140884668Y-127515727D01*
X141730395Y-126670000D01*
X142089605Y-126670000D01*
X142935332Y-127515727D01*
X143132397Y-127401143D01*
X143319144Y-126877698D01*
X143291362Y-126322632D01*
X143132397Y-125938857D01*
X142935332Y-125824273D01*
X142089605Y-126670000D01*
X141730395Y-126670000D01*
X140884668Y-125824273D01*
X140687603Y-125938857D01*
X140500856Y-126462302D01*
X138227000Y-126462302D01*
X138227000Y-126392119D01*
X138014320Y-125878663D01*
X137846000Y-125710343D01*
X137846000Y-125155332D01*
X141064273Y-125155332D01*
X141178857Y-125352397D01*
X141302344Y-125396453D01*
X141178857Y-125447603D01*
X141064273Y-125644668D01*
X141910000Y-126490395D01*
X142755727Y-125644668D01*
X142641143Y-125447603D01*
X142517656Y-125403547D01*
X142641143Y-125352397D01*
X142755727Y-125155332D01*
X141910000Y-124309605D01*
X141064273Y-125155332D01*
X137846000Y-125155332D01*
X137846000Y-125089657D01*
X138014320Y-124921337D01*
X138227000Y-124407881D01*
X138227000Y-123922302D01*
X140500856Y-123922302D01*
X140528638Y-124477368D01*
X140687603Y-124861143D01*
X140884668Y-124975727D01*
X141730395Y-124130000D01*
X142089605Y-124130000D01*
X142935332Y-124975727D01*
X143132397Y-124861143D01*
X143319144Y-124337698D01*
X143291362Y-123782632D01*
X143132397Y-123398857D01*
X142935332Y-123284273D01*
X142089605Y-124130000D01*
X141730395Y-124130000D01*
X140884668Y-123284273D01*
X140687603Y-123398857D01*
X140500856Y-123922302D01*
X138227000Y-123922302D01*
X138227000Y-123852119D01*
X138014320Y-123338663D01*
X137846000Y-123170343D01*
X137846000Y-122615332D01*
X141064273Y-122615332D01*
X141178857Y-122812397D01*
X141302344Y-122856453D01*
X141178857Y-122907603D01*
X141064273Y-123104668D01*
X141910000Y-123950395D01*
X142755727Y-123104668D01*
X142641143Y-122907603D01*
X142517656Y-122863547D01*
X142641143Y-122812397D01*
X142755727Y-122615332D01*
X141910000Y-121769605D01*
X141064273Y-122615332D01*
X137846000Y-122615332D01*
X137846000Y-122549657D01*
X138014320Y-122381337D01*
X138227000Y-121867881D01*
X138227000Y-121382302D01*
X140500856Y-121382302D01*
X140528638Y-121937368D01*
X140687603Y-122321143D01*
X140884668Y-122435727D01*
X141730395Y-121590000D01*
X142089605Y-121590000D01*
X142935332Y-122435727D01*
X143132397Y-122321143D01*
X143319144Y-121797698D01*
X143291362Y-121242632D01*
X143132397Y-120858857D01*
X142935332Y-120744273D01*
X142089605Y-121590000D01*
X141730395Y-121590000D01*
X140884668Y-120744273D01*
X140687603Y-120858857D01*
X140500856Y-121382302D01*
X138227000Y-121382302D01*
X138227000Y-121312119D01*
X138014320Y-120798663D01*
X137846000Y-120630343D01*
X137846000Y-120075332D01*
X141064273Y-120075332D01*
X141178857Y-120272397D01*
X141302344Y-120316453D01*
X141178857Y-120367603D01*
X141064273Y-120564668D01*
X141910000Y-121410395D01*
X142755727Y-120564668D01*
X142641143Y-120367603D01*
X142517656Y-120323547D01*
X142641143Y-120272397D01*
X142755727Y-120075332D01*
X141910000Y-119229605D01*
X141064273Y-120075332D01*
X137846000Y-120075332D01*
X137846000Y-120009657D01*
X138014320Y-119841337D01*
X138227000Y-119327881D01*
X138227000Y-118842302D01*
X140500856Y-118842302D01*
X140528638Y-119397368D01*
X140687603Y-119781143D01*
X140884668Y-119895727D01*
X141730395Y-119050000D01*
X142089605Y-119050000D01*
X142935332Y-119895727D01*
X143132397Y-119781143D01*
X143319144Y-119257698D01*
X143291362Y-118702632D01*
X143132397Y-118318857D01*
X142935332Y-118204273D01*
X142089605Y-119050000D01*
X141730395Y-119050000D01*
X140884668Y-118204273D01*
X140687603Y-118318857D01*
X140500856Y-118842302D01*
X138227000Y-118842302D01*
X138227000Y-118772119D01*
X138014320Y-118258663D01*
X137780325Y-118024668D01*
X141064273Y-118024668D01*
X141910000Y-118870395D01*
X142755727Y-118024668D01*
X142641143Y-117827603D01*
X142117698Y-117640856D01*
X141562632Y-117668638D01*
X141178857Y-117827603D01*
X141064273Y-118024668D01*
X137780325Y-118024668D01*
X137621337Y-117865680D01*
X137107881Y-117653000D01*
X136869841Y-117653000D01*
X135306000Y-116089160D01*
X135306000Y-109310840D01*
X135980841Y-108636000D01*
X143079937Y-108636000D01*
X143180000Y-108655904D01*
X143280063Y-108636000D01*
X143280065Y-108636000D01*
X143576423Y-108577051D01*
X143912495Y-108352495D01*
X143969179Y-108267661D01*
X144647663Y-107589178D01*
X144732495Y-107532495D01*
X144957051Y-107196423D01*
X144984001Y-107060938D01*
X144984001Y-108189158D01*
X144029160Y-109144000D01*
X138200063Y-109144000D01*
X138099999Y-109124096D01*
X137999935Y-109144000D01*
X137703577Y-109202949D01*
X137703576Y-109202950D01*
X137703575Y-109202950D01*
X137687288Y-109213833D01*
X137367505Y-109427505D01*
X137310822Y-109512337D01*
X136182339Y-110640820D01*
X136097505Y-110697505D01*
X135872949Y-111033578D01*
X135834515Y-111226800D01*
X135794096Y-111430000D01*
X135814000Y-111530064D01*
X135814001Y-115139932D01*
X135794096Y-115240000D01*
X135840661Y-115474096D01*
X135872950Y-115636423D01*
X136097506Y-115972495D01*
X136182337Y-116029177D01*
X137310822Y-117157663D01*
X137367505Y-117242495D01*
X137609375Y-117404107D01*
X137703575Y-117467050D01*
X137703576Y-117467050D01*
X137703577Y-117467051D01*
X137999935Y-117526000D01*
X138099999Y-117545904D01*
X138200063Y-117526000D01*
X144029160Y-117526000D01*
X145593000Y-119089841D01*
X145593000Y-119327881D01*
X145805680Y-119841337D01*
X145974001Y-120009658D01*
X145974000Y-120630343D01*
X145805680Y-120798663D01*
X145593000Y-121312119D01*
X145593000Y-121867881D01*
X145805680Y-122381337D01*
X145974001Y-122549658D01*
X145974000Y-123170343D01*
X145805680Y-123338663D01*
X145593000Y-123852119D01*
X145593000Y-124407881D01*
X145805680Y-124921337D01*
X145974001Y-125089658D01*
X145974000Y-125710343D01*
X145805680Y-125878663D01*
X145593000Y-126392119D01*
X145593000Y-126947881D01*
X145805680Y-127461337D01*
X145974001Y-127629658D01*
X145974000Y-128250343D01*
X145805680Y-128418663D01*
X145593000Y-128932119D01*
X145593000Y-129487881D01*
X145805680Y-130001337D01*
X145974001Y-130169658D01*
X145974000Y-130790343D01*
X145805680Y-130958663D01*
X145593000Y-131472119D01*
X145593000Y-132027881D01*
X145805680Y-132541337D01*
X145974001Y-132709658D01*
X145974000Y-133330343D01*
X145805680Y-133498663D01*
X145593000Y-134012119D01*
X145593000Y-134567881D01*
X145805680Y-135081337D01*
X145974001Y-135249658D01*
X145974000Y-135870343D01*
X145805680Y-136038663D01*
X145593000Y-136552119D01*
X145593000Y-137107881D01*
X145805680Y-137621337D01*
X146198663Y-138014320D01*
X146712119Y-138227000D01*
X147267881Y-138227000D01*
X147781337Y-138014320D01*
X148174320Y-137621337D01*
X148387000Y-137107881D01*
X148387000Y-136552119D01*
X148174320Y-136038663D01*
X148006000Y-135870343D01*
X148006000Y-135249657D01*
X148174320Y-135081337D01*
X148387000Y-134567881D01*
X148387000Y-134012119D01*
X148174320Y-133498663D01*
X148006000Y-133330343D01*
X148006000Y-132709657D01*
X148174320Y-132541337D01*
X148387000Y-132027881D01*
X148387000Y-131472119D01*
X148174320Y-130958663D01*
X148006000Y-130790343D01*
X148006000Y-130169657D01*
X148174320Y-130001337D01*
X148387000Y-129487881D01*
X148387000Y-128932119D01*
X148174320Y-128418663D01*
X148006000Y-128250343D01*
X148006000Y-127629657D01*
X148174320Y-127461337D01*
X148387000Y-126947881D01*
X148387000Y-126392119D01*
X148174320Y-125878663D01*
X148006000Y-125710343D01*
X148006000Y-125089657D01*
X148174320Y-124921337D01*
X148387000Y-124407881D01*
X148387000Y-123852119D01*
X148174320Y-123338663D01*
X148006000Y-123170343D01*
X148006000Y-122549657D01*
X148174320Y-122381337D01*
X148387000Y-121867881D01*
X148387000Y-121312119D01*
X148174320Y-120798663D01*
X148006000Y-120630343D01*
X148006000Y-120009657D01*
X148174320Y-119841337D01*
X148387000Y-119327881D01*
X148387000Y-118772119D01*
X150673000Y-118772119D01*
X150673000Y-119327881D01*
X150885680Y-119841337D01*
X151278663Y-120234320D01*
X151485513Y-120320000D01*
X151278663Y-120405680D01*
X150885680Y-120798663D01*
X150673000Y-121312119D01*
X150673000Y-121867881D01*
X150885680Y-122381337D01*
X151278663Y-122774320D01*
X151485513Y-122860000D01*
X151278663Y-122945680D01*
X150885680Y-123338663D01*
X150673000Y-123852119D01*
X150673000Y-124407881D01*
X150885680Y-124921337D01*
X151278663Y-125314320D01*
X151485513Y-125400000D01*
X151278663Y-125485680D01*
X150885680Y-125878663D01*
X150673000Y-126392119D01*
X150673000Y-126947881D01*
X150885680Y-127461337D01*
X151278663Y-127854320D01*
X151485513Y-127940000D01*
X151278663Y-128025680D01*
X150885680Y-128418663D01*
X150673000Y-128932119D01*
X150673000Y-129487881D01*
X150885680Y-130001337D01*
X151278663Y-130394320D01*
X151485513Y-130480000D01*
X151278663Y-130565680D01*
X150885680Y-130958663D01*
X150673000Y-131472119D01*
X150673000Y-132027881D01*
X150885680Y-132541337D01*
X151278663Y-132934320D01*
X151485513Y-133020000D01*
X151278663Y-133105680D01*
X150885680Y-133498663D01*
X150673000Y-134012119D01*
X150673000Y-134567881D01*
X150885680Y-135081337D01*
X151278663Y-135474320D01*
X151485513Y-135560000D01*
X151278663Y-135645680D01*
X150885680Y-136038663D01*
X150673000Y-136552119D01*
X150673000Y-137107881D01*
X150885680Y-137621337D01*
X151278663Y-138014320D01*
X151792119Y-138227000D01*
X152347881Y-138227000D01*
X152861337Y-138014320D01*
X153254320Y-137621337D01*
X153292774Y-137528500D01*
X153387226Y-137528500D01*
X153425680Y-137621337D01*
X153818663Y-138014320D01*
X154332119Y-138227000D01*
X154887881Y-138227000D01*
X155401337Y-138014320D01*
X155794320Y-137621337D01*
X155832774Y-137528500D01*
X155927226Y-137528500D01*
X155965680Y-137621337D01*
X156358663Y-138014320D01*
X156872119Y-138227000D01*
X157427881Y-138227000D01*
X157941337Y-138014320D01*
X158334320Y-137621337D01*
X158372774Y-137528500D01*
X158467226Y-137528500D01*
X158505680Y-137621337D01*
X158898663Y-138014320D01*
X159412119Y-138227000D01*
X159967881Y-138227000D01*
X160481337Y-138014320D01*
X160874320Y-137621337D01*
X161087000Y-137107881D01*
X161087000Y-136552119D01*
X160874320Y-136038663D01*
X160481337Y-135645680D01*
X160274487Y-135560000D01*
X160481337Y-135474320D01*
X160874320Y-135081337D01*
X161087000Y-134567881D01*
X161087000Y-134012119D01*
X160874320Y-133498663D01*
X160481337Y-133105680D01*
X160274487Y-133020000D01*
X160481337Y-132934320D01*
X160874320Y-132541337D01*
X161087000Y-132027881D01*
X161087000Y-131472119D01*
X160874320Y-130958663D01*
X160481337Y-130565680D01*
X160274487Y-130480000D01*
X160481337Y-130394320D01*
X160874320Y-130001337D01*
X161087000Y-129487881D01*
X161087000Y-128932119D01*
X160874320Y-128418663D01*
X160481337Y-128025680D01*
X160274487Y-127940000D01*
X160481337Y-127854320D01*
X160874320Y-127461337D01*
X161087000Y-126947881D01*
X161087000Y-126392119D01*
X160874320Y-125878663D01*
X160481337Y-125485680D01*
X160274487Y-125400000D01*
X160481337Y-125314320D01*
X160874320Y-124921337D01*
X161087000Y-124407881D01*
X161087000Y-123852119D01*
X160874320Y-123338663D01*
X160481337Y-122945680D01*
X160274487Y-122860000D01*
X160481337Y-122774320D01*
X160874320Y-122381337D01*
X161087000Y-121867881D01*
X161087000Y-121312119D01*
X160874320Y-120798663D01*
X160481337Y-120405680D01*
X160274487Y-120320000D01*
X160481337Y-120234320D01*
X160874320Y-119841337D01*
X161087000Y-119327881D01*
X161087000Y-118772119D01*
X165913000Y-118772119D01*
X165913000Y-119327881D01*
X166125680Y-119841337D01*
X166518663Y-120234320D01*
X166725513Y-120320000D01*
X166518663Y-120405680D01*
X166125680Y-120798663D01*
X165913000Y-121312119D01*
X165913000Y-121867881D01*
X166125680Y-122381337D01*
X166518663Y-122774320D01*
X166725513Y-122860000D01*
X166518663Y-122945680D01*
X166125680Y-123338663D01*
X165913000Y-123852119D01*
X165913000Y-124407881D01*
X166125680Y-124921337D01*
X166518663Y-125314320D01*
X166725513Y-125400000D01*
X166518663Y-125485680D01*
X166125680Y-125878663D01*
X165913000Y-126392119D01*
X165913000Y-126947881D01*
X166125680Y-127461337D01*
X166518663Y-127854320D01*
X166725513Y-127940000D01*
X166518663Y-128025680D01*
X166125680Y-128418663D01*
X165913000Y-128932119D01*
X165913000Y-129487881D01*
X166125680Y-130001337D01*
X166518663Y-130394320D01*
X166725513Y-130480000D01*
X166518663Y-130565680D01*
X166125680Y-130958663D01*
X165913000Y-131472119D01*
X165913000Y-132027881D01*
X166125680Y-132541337D01*
X166518663Y-132934320D01*
X166725513Y-133020000D01*
X166518663Y-133105680D01*
X166125680Y-133498663D01*
X165913000Y-134012119D01*
X165913000Y-134567881D01*
X166125680Y-135081337D01*
X166518663Y-135474320D01*
X166725513Y-135560000D01*
X166518663Y-135645680D01*
X166125680Y-136038663D01*
X165913000Y-136552119D01*
X165913000Y-137107881D01*
X166125680Y-137621337D01*
X166518663Y-138014320D01*
X167032119Y-138227000D01*
X167587881Y-138227000D01*
X168101337Y-138014320D01*
X168494320Y-137621337D01*
X168532774Y-137528500D01*
X168627226Y-137528500D01*
X168665680Y-137621337D01*
X169058663Y-138014320D01*
X169572119Y-138227000D01*
X170127881Y-138227000D01*
X170641337Y-138014320D01*
X171034320Y-137621337D01*
X171072774Y-137528500D01*
X171167226Y-137528500D01*
X171205680Y-137621337D01*
X171598663Y-138014320D01*
X172112119Y-138227000D01*
X172667881Y-138227000D01*
X173181337Y-138014320D01*
X173574320Y-137621337D01*
X173612774Y-137528500D01*
X173707226Y-137528500D01*
X173745680Y-137621337D01*
X174138663Y-138014320D01*
X174652119Y-138227000D01*
X175207881Y-138227000D01*
X175721337Y-138014320D01*
X176114320Y-137621337D01*
X176327000Y-137107881D01*
X176327000Y-136552119D01*
X176114320Y-136038663D01*
X175721337Y-135645680D01*
X175514487Y-135560000D01*
X175721337Y-135474320D01*
X176069811Y-135125846D01*
X179119000Y-135125846D01*
X179119000Y-135874154D01*
X179405365Y-136565501D01*
X179934499Y-137094635D01*
X180625846Y-137381000D01*
X181374154Y-137381000D01*
X182065501Y-137094635D01*
X182594635Y-136565501D01*
X182881000Y-135874154D01*
X182881000Y-135125846D01*
X182594635Y-134434499D01*
X182065501Y-133905365D01*
X181374154Y-133619000D01*
X180625846Y-133619000D01*
X179934499Y-133905365D01*
X179405365Y-134434499D01*
X179119000Y-135125846D01*
X176069811Y-135125846D01*
X176114320Y-135081337D01*
X176327000Y-134567881D01*
X176327000Y-134012119D01*
X176114320Y-133498663D01*
X175721337Y-133105680D01*
X175514487Y-133020000D01*
X175721337Y-132934320D01*
X175880325Y-132775332D01*
X179164273Y-132775332D01*
X179278857Y-132972397D01*
X179802302Y-133159144D01*
X180357368Y-133131362D01*
X180741143Y-132972397D01*
X180855727Y-132775332D01*
X180010000Y-131929605D01*
X179164273Y-132775332D01*
X175880325Y-132775332D01*
X176114320Y-132541337D01*
X176327000Y-132027881D01*
X176327000Y-131542302D01*
X178600856Y-131542302D01*
X178628638Y-132097368D01*
X178787603Y-132481143D01*
X178984668Y-132595727D01*
X179830395Y-131750000D01*
X180189605Y-131750000D01*
X181035332Y-132595727D01*
X181232397Y-132481143D01*
X181419144Y-131957698D01*
X181391362Y-131402632D01*
X181232397Y-131018857D01*
X181035332Y-130904273D01*
X180189605Y-131750000D01*
X179830395Y-131750000D01*
X178984668Y-130904273D01*
X178787603Y-131018857D01*
X178600856Y-131542302D01*
X176327000Y-131542302D01*
X176327000Y-131472119D01*
X176114320Y-130958663D01*
X175721337Y-130565680D01*
X175514487Y-130480000D01*
X175721337Y-130394320D01*
X175880325Y-130235332D01*
X179164273Y-130235332D01*
X179278857Y-130432397D01*
X179402344Y-130476453D01*
X179278857Y-130527603D01*
X179164273Y-130724668D01*
X180010000Y-131570395D01*
X180855727Y-130724668D01*
X180741143Y-130527603D01*
X180617656Y-130483547D01*
X180741143Y-130432397D01*
X180855727Y-130235332D01*
X180010000Y-129389605D01*
X179164273Y-130235332D01*
X175880325Y-130235332D01*
X176114320Y-130001337D01*
X176327000Y-129487881D01*
X176327000Y-129002302D01*
X178600856Y-129002302D01*
X178628638Y-129557368D01*
X178787603Y-129941143D01*
X178984668Y-130055727D01*
X179830395Y-129210000D01*
X180189605Y-129210000D01*
X181035332Y-130055727D01*
X181232397Y-129941143D01*
X181419144Y-129417698D01*
X181391362Y-128862632D01*
X181232397Y-128478857D01*
X181035332Y-128364273D01*
X180189605Y-129210000D01*
X179830395Y-129210000D01*
X178984668Y-128364273D01*
X178787603Y-128478857D01*
X178600856Y-129002302D01*
X176327000Y-129002302D01*
X176327000Y-128932119D01*
X176114320Y-128418663D01*
X175721337Y-128025680D01*
X175514487Y-127940000D01*
X175721337Y-127854320D01*
X175880325Y-127695332D01*
X179164273Y-127695332D01*
X179278857Y-127892397D01*
X179402344Y-127936453D01*
X179278857Y-127987603D01*
X179164273Y-128184668D01*
X180010000Y-129030395D01*
X180855727Y-128184668D01*
X180741143Y-127987603D01*
X180617656Y-127943547D01*
X180741143Y-127892397D01*
X180855727Y-127695332D01*
X180010000Y-126849605D01*
X179164273Y-127695332D01*
X175880325Y-127695332D01*
X176114320Y-127461337D01*
X176327000Y-126947881D01*
X176327000Y-126462302D01*
X178600856Y-126462302D01*
X178628638Y-127017368D01*
X178787603Y-127401143D01*
X178984668Y-127515727D01*
X179830395Y-126670000D01*
X180189605Y-126670000D01*
X181035332Y-127515727D01*
X181232397Y-127401143D01*
X181419144Y-126877698D01*
X181391362Y-126322632D01*
X181232397Y-125938857D01*
X181035332Y-125824273D01*
X180189605Y-126670000D01*
X179830395Y-126670000D01*
X178984668Y-125824273D01*
X178787603Y-125938857D01*
X178600856Y-126462302D01*
X176327000Y-126462302D01*
X176327000Y-126392119D01*
X176114320Y-125878663D01*
X175721337Y-125485680D01*
X175514487Y-125400000D01*
X175721337Y-125314320D01*
X175880325Y-125155332D01*
X179164273Y-125155332D01*
X179278857Y-125352397D01*
X179402344Y-125396453D01*
X179278857Y-125447603D01*
X179164273Y-125644668D01*
X180010000Y-126490395D01*
X180855727Y-125644668D01*
X180741143Y-125447603D01*
X180617656Y-125403547D01*
X180741143Y-125352397D01*
X180855727Y-125155332D01*
X180010000Y-124309605D01*
X179164273Y-125155332D01*
X175880325Y-125155332D01*
X176114320Y-124921337D01*
X176327000Y-124407881D01*
X176327000Y-123922302D01*
X178600856Y-123922302D01*
X178628638Y-124477368D01*
X178787603Y-124861143D01*
X178984668Y-124975727D01*
X179830395Y-124130000D01*
X180189605Y-124130000D01*
X181035332Y-124975727D01*
X181232397Y-124861143D01*
X181419144Y-124337698D01*
X181391362Y-123782632D01*
X181232397Y-123398857D01*
X181035332Y-123284273D01*
X180189605Y-124130000D01*
X179830395Y-124130000D01*
X178984668Y-123284273D01*
X178787603Y-123398857D01*
X178600856Y-123922302D01*
X176327000Y-123922302D01*
X176327000Y-123852119D01*
X176114320Y-123338663D01*
X175721337Y-122945680D01*
X175514487Y-122860000D01*
X175721337Y-122774320D01*
X175880325Y-122615332D01*
X179164273Y-122615332D01*
X179278857Y-122812397D01*
X179402344Y-122856453D01*
X179278857Y-122907603D01*
X179164273Y-123104668D01*
X180010000Y-123950395D01*
X180855727Y-123104668D01*
X180741143Y-122907603D01*
X180617656Y-122863547D01*
X180741143Y-122812397D01*
X180855727Y-122615332D01*
X180010000Y-121769605D01*
X179164273Y-122615332D01*
X175880325Y-122615332D01*
X176114320Y-122381337D01*
X176327000Y-121867881D01*
X176327000Y-121382302D01*
X178600856Y-121382302D01*
X178628638Y-121937368D01*
X178787603Y-122321143D01*
X178984668Y-122435727D01*
X179830395Y-121590000D01*
X180189605Y-121590000D01*
X181035332Y-122435727D01*
X181232397Y-122321143D01*
X181419144Y-121797698D01*
X181391362Y-121242632D01*
X181232397Y-120858857D01*
X181035332Y-120744273D01*
X180189605Y-121590000D01*
X179830395Y-121590000D01*
X178984668Y-120744273D01*
X178787603Y-120858857D01*
X178600856Y-121382302D01*
X176327000Y-121382302D01*
X176327000Y-121312119D01*
X176114320Y-120798663D01*
X175721337Y-120405680D01*
X175514487Y-120320000D01*
X175721337Y-120234320D01*
X175880325Y-120075332D01*
X179164273Y-120075332D01*
X179278857Y-120272397D01*
X179402344Y-120316453D01*
X179278857Y-120367603D01*
X179164273Y-120564668D01*
X180010000Y-121410395D01*
X180855727Y-120564668D01*
X180741143Y-120367603D01*
X180617656Y-120323547D01*
X180741143Y-120272397D01*
X180855727Y-120075332D01*
X180010000Y-119229605D01*
X179164273Y-120075332D01*
X175880325Y-120075332D01*
X176114320Y-119841337D01*
X176327000Y-119327881D01*
X176327000Y-118842302D01*
X178600856Y-118842302D01*
X178628638Y-119397368D01*
X178787603Y-119781143D01*
X178984668Y-119895727D01*
X179830395Y-119050000D01*
X180189605Y-119050000D01*
X181035332Y-119895727D01*
X181232397Y-119781143D01*
X181419144Y-119257698D01*
X181391362Y-118702632D01*
X181232397Y-118318857D01*
X181035332Y-118204273D01*
X180189605Y-119050000D01*
X179830395Y-119050000D01*
X178984668Y-118204273D01*
X178787603Y-118318857D01*
X178600856Y-118842302D01*
X176327000Y-118842302D01*
X176327000Y-118772119D01*
X176114320Y-118258663D01*
X175880325Y-118024668D01*
X179164273Y-118024668D01*
X180010000Y-118870395D01*
X180855727Y-118024668D01*
X180741143Y-117827603D01*
X180217698Y-117640856D01*
X179662632Y-117668638D01*
X179278857Y-117827603D01*
X179164273Y-118024668D01*
X175880325Y-118024668D01*
X175721337Y-117865680D01*
X175207881Y-117653000D01*
X174652119Y-117653000D01*
X174138663Y-117865680D01*
X173745680Y-118258663D01*
X173707226Y-118351500D01*
X173612774Y-118351500D01*
X173574320Y-118258663D01*
X173181337Y-117865680D01*
X172667881Y-117653000D01*
X172112119Y-117653000D01*
X171598663Y-117865680D01*
X171205680Y-118258663D01*
X171167226Y-118351500D01*
X171072774Y-118351500D01*
X171034320Y-118258663D01*
X170641337Y-117865680D01*
X170127881Y-117653000D01*
X169572119Y-117653000D01*
X169058663Y-117865680D01*
X168665680Y-118258663D01*
X168627226Y-118351500D01*
X168532774Y-118351500D01*
X168494320Y-118258663D01*
X168101337Y-117865680D01*
X167587881Y-117653000D01*
X167032119Y-117653000D01*
X166518663Y-117865680D01*
X166125680Y-118258663D01*
X165913000Y-118772119D01*
X161087000Y-118772119D01*
X160874320Y-118258663D01*
X160481337Y-117865680D01*
X159967881Y-117653000D01*
X159412119Y-117653000D01*
X158898663Y-117865680D01*
X158505680Y-118258663D01*
X158467226Y-118351500D01*
X158372774Y-118351500D01*
X158334320Y-118258663D01*
X157941337Y-117865680D01*
X157427881Y-117653000D01*
X156872119Y-117653000D01*
X156358663Y-117865680D01*
X155965680Y-118258663D01*
X155927226Y-118351500D01*
X155832774Y-118351500D01*
X155794320Y-118258663D01*
X155401337Y-117865680D01*
X154887881Y-117653000D01*
X154332119Y-117653000D01*
X153818663Y-117865680D01*
X153425680Y-118258663D01*
X153387226Y-118351500D01*
X153292774Y-118351500D01*
X153254320Y-118258663D01*
X152861337Y-117865680D01*
X152347881Y-117653000D01*
X151792119Y-117653000D01*
X151278663Y-117865680D01*
X150885680Y-118258663D01*
X150673000Y-118772119D01*
X148387000Y-118772119D01*
X148174320Y-118258663D01*
X147781337Y-117865680D01*
X147267881Y-117653000D01*
X147029841Y-117653000D01*
X145239180Y-115862340D01*
X145182495Y-115777505D01*
X144846423Y-115552949D01*
X144550065Y-115494000D01*
X144550063Y-115494000D01*
X144450000Y-115474096D01*
X144349937Y-115494000D01*
X138520841Y-115494000D01*
X138375209Y-115348369D01*
X138506400Y-115374464D01*
X140233600Y-115374464D01*
X140382259Y-115344894D01*
X140508286Y-115260686D01*
X140592494Y-115134659D01*
X140622064Y-114986000D01*
X140622064Y-113695020D01*
X140665400Y-113695020D01*
X140665400Y-114244981D01*
X140737613Y-114608019D01*
X141012695Y-115019706D01*
X141424382Y-115294787D01*
X141910000Y-115391383D01*
X142395619Y-115294787D01*
X142807306Y-115019706D01*
X143082387Y-114608018D01*
X143154600Y-114244980D01*
X143154600Y-113695020D01*
X143205400Y-113695020D01*
X143205400Y-114244981D01*
X143277613Y-114608019D01*
X143552695Y-115019706D01*
X143964382Y-115294787D01*
X144450000Y-115391383D01*
X144935619Y-115294787D01*
X145347306Y-115019706D01*
X145622387Y-114608018D01*
X145694600Y-114244980D01*
X145694600Y-113695020D01*
X145745400Y-113695020D01*
X145745400Y-114244981D01*
X145817613Y-114608019D01*
X146092695Y-115019706D01*
X146504382Y-115294787D01*
X146990000Y-115391383D01*
X147475619Y-115294787D01*
X147887306Y-115019706D01*
X148162387Y-114608018D01*
X148234600Y-114244980D01*
X148234600Y-113695020D01*
X148285400Y-113695020D01*
X148285400Y-114244981D01*
X148357613Y-114608019D01*
X148632695Y-115019706D01*
X149044382Y-115294787D01*
X149530000Y-115391383D01*
X150015619Y-115294787D01*
X150427306Y-115019706D01*
X150702387Y-114608018D01*
X150774600Y-114244980D01*
X150774600Y-113695020D01*
X150825400Y-113695020D01*
X150825400Y-114244981D01*
X150897613Y-114608019D01*
X151172695Y-115019706D01*
X151584382Y-115294787D01*
X152070000Y-115391383D01*
X152555619Y-115294787D01*
X152967306Y-115019706D01*
X153242387Y-114608018D01*
X153314600Y-114244980D01*
X153314600Y-113695020D01*
X153365400Y-113695020D01*
X153365400Y-114244981D01*
X153437613Y-114608019D01*
X153712695Y-115019706D01*
X154124382Y-115294787D01*
X154610000Y-115391383D01*
X155095619Y-115294787D01*
X155507306Y-115019706D01*
X155782387Y-114608018D01*
X155854600Y-114244980D01*
X155854600Y-113695020D01*
X155905400Y-113695020D01*
X155905400Y-114244981D01*
X155977613Y-114608019D01*
X156252695Y-115019706D01*
X156664382Y-115294787D01*
X157150000Y-115391383D01*
X157635619Y-115294787D01*
X158047306Y-115019706D01*
X158322387Y-114608018D01*
X158394600Y-114244980D01*
X158394600Y-113695020D01*
X158445400Y-113695020D01*
X158445400Y-114244981D01*
X158517613Y-114608019D01*
X158792695Y-115019706D01*
X159204382Y-115294787D01*
X159690000Y-115391383D01*
X160175619Y-115294787D01*
X160587306Y-115019706D01*
X160862387Y-114608018D01*
X160934600Y-114244980D01*
X160934600Y-113695020D01*
X160985400Y-113695020D01*
X160985400Y-114244981D01*
X161057613Y-114608019D01*
X161332695Y-115019706D01*
X161744382Y-115294787D01*
X162230000Y-115391383D01*
X162715619Y-115294787D01*
X163127306Y-115019706D01*
X163402387Y-114608018D01*
X163474600Y-114244980D01*
X163474600Y-113695020D01*
X163525400Y-113695020D01*
X163525400Y-114244981D01*
X163597613Y-114608019D01*
X163872695Y-115019706D01*
X164284382Y-115294787D01*
X164770000Y-115391383D01*
X165255619Y-115294787D01*
X165667306Y-115019706D01*
X165942387Y-114608018D01*
X166014600Y-114244980D01*
X166014600Y-113695020D01*
X166065400Y-113695020D01*
X166065400Y-114244981D01*
X166137613Y-114608019D01*
X166412695Y-115019706D01*
X166824382Y-115294787D01*
X167310000Y-115391383D01*
X167795619Y-115294787D01*
X168207306Y-115019706D01*
X168482387Y-114608018D01*
X168554600Y-114244980D01*
X168554600Y-113695019D01*
X168482387Y-113331981D01*
X168207306Y-112920294D01*
X167795618Y-112645213D01*
X167310000Y-112548617D01*
X166824381Y-112645213D01*
X166412694Y-112920294D01*
X166137613Y-113331982D01*
X166065400Y-113695020D01*
X166014600Y-113695020D01*
X166014600Y-113695019D01*
X165942387Y-113331981D01*
X165667306Y-112920294D01*
X165255618Y-112645213D01*
X164770000Y-112548617D01*
X164284381Y-112645213D01*
X163872694Y-112920294D01*
X163597613Y-113331982D01*
X163525400Y-113695020D01*
X163474600Y-113695020D01*
X163474600Y-113695019D01*
X163402387Y-113331981D01*
X163127306Y-112920294D01*
X162715618Y-112645213D01*
X162230000Y-112548617D01*
X161744381Y-112645213D01*
X161332694Y-112920294D01*
X161057613Y-113331982D01*
X160985400Y-113695020D01*
X160934600Y-113695020D01*
X160934600Y-113695019D01*
X160862387Y-113331981D01*
X160587306Y-112920294D01*
X160175618Y-112645213D01*
X159690000Y-112548617D01*
X159204381Y-112645213D01*
X158792694Y-112920294D01*
X158517613Y-113331982D01*
X158445400Y-113695020D01*
X158394600Y-113695020D01*
X158394600Y-113695019D01*
X158322387Y-113331981D01*
X158047306Y-112920294D01*
X157635618Y-112645213D01*
X157150000Y-112548617D01*
X156664381Y-112645213D01*
X156252694Y-112920294D01*
X155977613Y-113331982D01*
X155905400Y-113695020D01*
X155854600Y-113695020D01*
X155854600Y-113695019D01*
X155782387Y-113331981D01*
X155507306Y-112920294D01*
X155095618Y-112645213D01*
X154610000Y-112548617D01*
X154124381Y-112645213D01*
X153712694Y-112920294D01*
X153437613Y-113331982D01*
X153365400Y-113695020D01*
X153314600Y-113695020D01*
X153314600Y-113695019D01*
X153242387Y-113331981D01*
X152967306Y-112920294D01*
X152555618Y-112645213D01*
X152070000Y-112548617D01*
X151584381Y-112645213D01*
X151172694Y-112920294D01*
X150897613Y-113331982D01*
X150825400Y-113695020D01*
X150774600Y-113695020D01*
X150774600Y-113695019D01*
X150702387Y-113331981D01*
X150427306Y-112920294D01*
X150015618Y-112645213D01*
X149530000Y-112548617D01*
X149044381Y-112645213D01*
X148632694Y-112920294D01*
X148357613Y-113331982D01*
X148285400Y-113695020D01*
X148234600Y-113695020D01*
X148234600Y-113695019D01*
X148162387Y-113331981D01*
X147887306Y-112920294D01*
X147475618Y-112645213D01*
X146990000Y-112548617D01*
X146504381Y-112645213D01*
X146092694Y-112920294D01*
X145817613Y-113331982D01*
X145745400Y-113695020D01*
X145694600Y-113695020D01*
X145694600Y-113695019D01*
X145622387Y-113331981D01*
X145347306Y-112920294D01*
X144935618Y-112645213D01*
X144450000Y-112548617D01*
X143964381Y-112645213D01*
X143552694Y-112920294D01*
X143277613Y-113331982D01*
X143205400Y-113695020D01*
X143154600Y-113695020D01*
X143154600Y-113695019D01*
X143082387Y-113331981D01*
X142807306Y-112920294D01*
X142395618Y-112645213D01*
X141910000Y-112548617D01*
X141424381Y-112645213D01*
X141012694Y-112920294D01*
X140737613Y-113331982D01*
X140665400Y-113695020D01*
X140622064Y-113695020D01*
X140622064Y-112954000D01*
X140592494Y-112805341D01*
X140508286Y-112679314D01*
X140382259Y-112595106D01*
X140233600Y-112565536D01*
X138506400Y-112565536D01*
X138357741Y-112595106D01*
X138231714Y-112679314D01*
X138147506Y-112805341D01*
X138117936Y-112954000D01*
X138117936Y-114986000D01*
X138144031Y-115117191D01*
X137846000Y-114819160D01*
X137846000Y-111850840D01*
X138520841Y-111176000D01*
X144349937Y-111176000D01*
X144450000Y-111195904D01*
X144550063Y-111176000D01*
X144550065Y-111176000D01*
X144846423Y-111117051D01*
X145182495Y-110892495D01*
X145239180Y-110807661D01*
X146647663Y-109399178D01*
X146732495Y-109342495D01*
X146957051Y-109006423D01*
X147016000Y-108710065D01*
X147016000Y-108710064D01*
X147035904Y-108610001D01*
X147016000Y-108509937D01*
X147016000Y-105723379D01*
X147456226Y-105723379D01*
X147519590Y-105877294D01*
X147891885Y-105994359D01*
X148280639Y-105960042D01*
X148480410Y-105877294D01*
X148543774Y-105723379D01*
X148000000Y-105179605D01*
X147456226Y-105723379D01*
X147016000Y-105723379D01*
X147016000Y-105009235D01*
X147039958Y-105280639D01*
X147122706Y-105480410D01*
X147276621Y-105543774D01*
X147820395Y-105000000D01*
X148179605Y-105000000D01*
X148723379Y-105543774D01*
X148877294Y-105480410D01*
X148994359Y-105108115D01*
X148960042Y-104719361D01*
X148877294Y-104519590D01*
X148723379Y-104456226D01*
X148179605Y-105000000D01*
X147820395Y-105000000D01*
X147276621Y-104456226D01*
X147122706Y-104519590D01*
X147011005Y-104874825D01*
X146957051Y-104603577D01*
X146738587Y-104276621D01*
X147456226Y-104276621D01*
X148000000Y-104820395D01*
X148543774Y-104276621D01*
X148480410Y-104122706D01*
X148108115Y-104005641D01*
X147719361Y-104039958D01*
X147519590Y-104122706D01*
X147456226Y-104276621D01*
X146738587Y-104276621D01*
X146732495Y-104267505D01*
X146396422Y-104042949D01*
X146180502Y-104000000D01*
X146396423Y-103957051D01*
X146732495Y-103732495D01*
X146738586Y-103723379D01*
X147456226Y-103723379D01*
X147519590Y-103877294D01*
X147891885Y-103994359D01*
X148280639Y-103960042D01*
X148480410Y-103877294D01*
X148543774Y-103723379D01*
X148446241Y-103625846D01*
X179119000Y-103625846D01*
X179119000Y-104374154D01*
X179405365Y-105065501D01*
X179934499Y-105594635D01*
X180625846Y-105881000D01*
X181374154Y-105881000D01*
X182065501Y-105594635D01*
X182594635Y-105065501D01*
X182881000Y-104374154D01*
X182881000Y-103625846D01*
X182594635Y-102934499D01*
X182065501Y-102405365D01*
X181374154Y-102119000D01*
X180625846Y-102119000D01*
X179934499Y-102405365D01*
X179405365Y-102934499D01*
X179119000Y-103625846D01*
X148446241Y-103625846D01*
X148000000Y-103179605D01*
X147456226Y-103723379D01*
X146738586Y-103723379D01*
X146957051Y-103396423D01*
X147021553Y-103072146D01*
X147039958Y-103280639D01*
X147122706Y-103480410D01*
X147276621Y-103543774D01*
X147820395Y-103000000D01*
X148179605Y-103000000D01*
X148723379Y-103543774D01*
X148877294Y-103480410D01*
X148994359Y-103108115D01*
X148960042Y-102719361D01*
X148877294Y-102519590D01*
X148723379Y-102456226D01*
X148179605Y-103000000D01*
X147820395Y-103000000D01*
X147276621Y-102456226D01*
X147122706Y-102519590D01*
X147011005Y-102874825D01*
X146957051Y-102603577D01*
X146738587Y-102276621D01*
X147456226Y-102276621D01*
X148000000Y-102820395D01*
X148543774Y-102276621D01*
X148480410Y-102122706D01*
X148108115Y-102005641D01*
X147719361Y-102039958D01*
X147519590Y-102122706D01*
X147456226Y-102276621D01*
X146738587Y-102276621D01*
X146732495Y-102267505D01*
X146396423Y-102042949D01*
X146100065Y-101984000D01*
X143899935Y-101984000D01*
X143603577Y-102042949D01*
X143267505Y-102267505D01*
X143042949Y-102603577D01*
X142981000Y-102915017D01*
X142981000Y-102804867D01*
X142831652Y-102444308D01*
X142555692Y-102168348D01*
X142195133Y-102019000D01*
X141804867Y-102019000D01*
X141444308Y-102168348D01*
X141168348Y-102444308D01*
X141019000Y-102804867D01*
X141019000Y-103195133D01*
X141168348Y-103555692D01*
X141444308Y-103831652D01*
X141804867Y-103981000D01*
X142195133Y-103981000D01*
X142555692Y-103831652D01*
X142831652Y-103555692D01*
X142981000Y-103195133D01*
X142981000Y-103084983D01*
X143042949Y-103396423D01*
X143267505Y-103732495D01*
X143603577Y-103957051D01*
X143819497Y-104000000D01*
X143603577Y-104042949D01*
X143267505Y-104267505D01*
X143042949Y-104603578D01*
X142984000Y-104899936D01*
X142984001Y-106379159D01*
X142759160Y-106604000D01*
X135660063Y-106604000D01*
X135559999Y-106584096D01*
X135459935Y-106604000D01*
X135163577Y-106662949D01*
X135163576Y-106662950D01*
X135163575Y-106662950D01*
X135108014Y-106700075D01*
X134827505Y-106887505D01*
X134770822Y-106972337D01*
X133642339Y-108100820D01*
X133557505Y-108157505D01*
X133332949Y-108493578D01*
X133278329Y-108768171D01*
X133254096Y-108890000D01*
X132258000Y-108890000D01*
X132258000Y-108586968D01*
X132267951Y-108536940D01*
X132258000Y-108486912D01*
X132258000Y-108486908D01*
X132228525Y-108338728D01*
X132168993Y-108249632D01*
X132144588Y-108213107D01*
X132144586Y-108213105D01*
X132116247Y-108170693D01*
X132073835Y-108142355D01*
X131278447Y-107346967D01*
X131250107Y-107304553D01*
X131082072Y-107192275D01*
X130933892Y-107162800D01*
X130933888Y-107162800D01*
X130883860Y-107152849D01*
X130833832Y-107162800D01*
X126702621Y-107162800D01*
X126508000Y-106968180D01*
X126508000Y-105851407D01*
X126555692Y-105831652D01*
X126831652Y-105555692D01*
X126981000Y-105195133D01*
X126981000Y-104804867D01*
X127019000Y-104804867D01*
X127019000Y-105195133D01*
X127168348Y-105555692D01*
X127444308Y-105831652D01*
X127804867Y-105981000D01*
X128195133Y-105981000D01*
X128555692Y-105831652D01*
X128831652Y-105555692D01*
X128981000Y-105195133D01*
X128981000Y-104804867D01*
X129019000Y-104804867D01*
X129019000Y-105195133D01*
X129168348Y-105555692D01*
X129444308Y-105831652D01*
X129804867Y-105981000D01*
X130195133Y-105981000D01*
X130555692Y-105831652D01*
X130831652Y-105555692D01*
X130981000Y-105195133D01*
X130981000Y-104804867D01*
X131019000Y-104804867D01*
X131019000Y-105195133D01*
X131168348Y-105555692D01*
X131444308Y-105831652D01*
X131804867Y-105981000D01*
X132195133Y-105981000D01*
X132555692Y-105831652D01*
X132831652Y-105555692D01*
X132981000Y-105195133D01*
X132981000Y-104804867D01*
X133019000Y-104804867D01*
X133019000Y-105195133D01*
X133168348Y-105555692D01*
X133444308Y-105831652D01*
X133804867Y-105981000D01*
X134195133Y-105981000D01*
X134555692Y-105831652D01*
X134831652Y-105555692D01*
X134981000Y-105195133D01*
X134981000Y-104804867D01*
X135019000Y-104804867D01*
X135019000Y-105195133D01*
X135168348Y-105555692D01*
X135444308Y-105831652D01*
X135804867Y-105981000D01*
X136195133Y-105981000D01*
X136555692Y-105831652D01*
X136831652Y-105555692D01*
X136981000Y-105195133D01*
X136981000Y-104804867D01*
X137019000Y-104804867D01*
X137019000Y-105195133D01*
X137168348Y-105555692D01*
X137444308Y-105831652D01*
X137804867Y-105981000D01*
X138195133Y-105981000D01*
X138555692Y-105831652D01*
X138831652Y-105555692D01*
X138981000Y-105195133D01*
X138981000Y-104804867D01*
X139019000Y-104804867D01*
X139019000Y-105195133D01*
X139168348Y-105555692D01*
X139444308Y-105831652D01*
X139804867Y-105981000D01*
X140195133Y-105981000D01*
X140555692Y-105831652D01*
X140831652Y-105555692D01*
X140981000Y-105195133D01*
X140981000Y-104804867D01*
X141019000Y-104804867D01*
X141019000Y-105195133D01*
X141168348Y-105555692D01*
X141444308Y-105831652D01*
X141804867Y-105981000D01*
X142195133Y-105981000D01*
X142555692Y-105831652D01*
X142831652Y-105555692D01*
X142981000Y-105195133D01*
X142981000Y-104804867D01*
X142831652Y-104444308D01*
X142555692Y-104168348D01*
X142195133Y-104019000D01*
X141804867Y-104019000D01*
X141444308Y-104168348D01*
X141168348Y-104444308D01*
X141019000Y-104804867D01*
X140981000Y-104804867D01*
X140831652Y-104444308D01*
X140555692Y-104168348D01*
X140195133Y-104019000D01*
X139804867Y-104019000D01*
X139444308Y-104168348D01*
X139168348Y-104444308D01*
X139019000Y-104804867D01*
X138981000Y-104804867D01*
X138831652Y-104444308D01*
X138555692Y-104168348D01*
X138195133Y-104019000D01*
X137804867Y-104019000D01*
X137444308Y-104168348D01*
X137168348Y-104444308D01*
X137019000Y-104804867D01*
X136981000Y-104804867D01*
X136831652Y-104444308D01*
X136555692Y-104168348D01*
X136195133Y-104019000D01*
X135804867Y-104019000D01*
X135444308Y-104168348D01*
X135168348Y-104444308D01*
X135019000Y-104804867D01*
X134981000Y-104804867D01*
X134831652Y-104444308D01*
X134555692Y-104168348D01*
X134195133Y-104019000D01*
X133804867Y-104019000D01*
X133444308Y-104168348D01*
X133168348Y-104444308D01*
X133019000Y-104804867D01*
X132981000Y-104804867D01*
X132831652Y-104444308D01*
X132555692Y-104168348D01*
X132195133Y-104019000D01*
X131804867Y-104019000D01*
X131444308Y-104168348D01*
X131168348Y-104444308D01*
X131019000Y-104804867D01*
X130981000Y-104804867D01*
X130831652Y-104444308D01*
X130555692Y-104168348D01*
X130195133Y-104019000D01*
X129804867Y-104019000D01*
X129444308Y-104168348D01*
X129168348Y-104444308D01*
X129019000Y-104804867D01*
X128981000Y-104804867D01*
X128831652Y-104444308D01*
X128555692Y-104168348D01*
X128195133Y-104019000D01*
X127804867Y-104019000D01*
X127444308Y-104168348D01*
X127168348Y-104444308D01*
X127019000Y-104804867D01*
X126981000Y-104804867D01*
X126831652Y-104444308D01*
X126555692Y-104168348D01*
X126195133Y-104019000D01*
X125804867Y-104019000D01*
X125444308Y-104168348D01*
X125168348Y-104444308D01*
X125019000Y-104804867D01*
X125019000Y-105195133D01*
X125168348Y-105555692D01*
X125444308Y-105831652D01*
X125492001Y-105851407D01*
X125492000Y-107128572D01*
X125482049Y-107178600D01*
X125492000Y-107228628D01*
X125492000Y-107228631D01*
X125521475Y-107376811D01*
X125633753Y-107544847D01*
X125676167Y-107573188D01*
X126078579Y-107975600D01*
X124975420Y-107975600D01*
X124508000Y-107508180D01*
X124508000Y-105851407D01*
X124555692Y-105831652D01*
X124831652Y-105555692D01*
X124981000Y-105195133D01*
X124981000Y-104804867D01*
X124831652Y-104444308D01*
X124555692Y-104168348D01*
X124195133Y-104019000D01*
X123804867Y-104019000D01*
X123444308Y-104168348D01*
X123168348Y-104444308D01*
X123019000Y-104804867D01*
X122981000Y-104804867D01*
X122831652Y-104444308D01*
X122555692Y-104168348D01*
X122195133Y-104019000D01*
X121804867Y-104019000D01*
X121444308Y-104168348D01*
X121168348Y-104444308D01*
X121019000Y-104804867D01*
X120981000Y-104804867D01*
X120831652Y-104444308D01*
X120555692Y-104168348D01*
X120195133Y-104019000D01*
X119804867Y-104019000D01*
X119444308Y-104168348D01*
X119168348Y-104444308D01*
X119019000Y-104804867D01*
X118981000Y-104804867D01*
X118831652Y-104444308D01*
X118555692Y-104168348D01*
X118195133Y-104019000D01*
X117804867Y-104019000D01*
X117444308Y-104168348D01*
X117168348Y-104444308D01*
X117019000Y-104804867D01*
X117019000Y-105195133D01*
X117168348Y-105555692D01*
X117444308Y-105831652D01*
X117492001Y-105851407D01*
X117492000Y-109627980D01*
X117112380Y-110007600D01*
X115791161Y-110007600D01*
X115812388Y-109975832D01*
X116325832Y-109462388D01*
X116368247Y-109434047D01*
X116480525Y-109266012D01*
X116510000Y-109117832D01*
X116510000Y-109117828D01*
X116519951Y-109067800D01*
X116510000Y-109017772D01*
X116510000Y-105900555D01*
X116519951Y-105850527D01*
X116519203Y-105846766D01*
X116555692Y-105831652D01*
X116831652Y-105555692D01*
X116981000Y-105195133D01*
X116981000Y-104804867D01*
X116831652Y-104444308D01*
X116555692Y-104168348D01*
X116195133Y-104019000D01*
X115804867Y-104019000D01*
X115444308Y-104168348D01*
X115168348Y-104444308D01*
X115019000Y-104804867D01*
X115019000Y-105195133D01*
X115168348Y-105555692D01*
X115444308Y-105831652D01*
X115482277Y-105847379D01*
X115482049Y-105848528D01*
X115494000Y-105908611D01*
X115494001Y-108857379D01*
X115207380Y-109144000D01*
X113774020Y-109144000D01*
X114323835Y-108594186D01*
X114366247Y-108565847D01*
X114394586Y-108523435D01*
X114394588Y-108523433D01*
X114478525Y-108397812D01*
X114481670Y-108382000D01*
X114508000Y-108249632D01*
X114508000Y-108249629D01*
X114517951Y-108199601D01*
X114508000Y-108149573D01*
X114508000Y-105851407D01*
X114555692Y-105831652D01*
X114831652Y-105555692D01*
X114981000Y-105195133D01*
X114981000Y-104804867D01*
X114831652Y-104444308D01*
X114555692Y-104168348D01*
X114195133Y-104019000D01*
X113804867Y-104019000D01*
X113444308Y-104168348D01*
X113168348Y-104444308D01*
X113019000Y-104804867D01*
X113019000Y-105195133D01*
X113168348Y-105555692D01*
X113444308Y-105831652D01*
X113492000Y-105851407D01*
X113492001Y-107989178D01*
X113099180Y-108382000D01*
X107050267Y-108382000D01*
X107000239Y-108372049D01*
X106950211Y-108382000D01*
X106950208Y-108382000D01*
X106813581Y-108409177D01*
X106802028Y-108411475D01*
X106676407Y-108495412D01*
X106676405Y-108495414D01*
X106633993Y-108523753D01*
X106605654Y-108566165D01*
X106026168Y-109145652D01*
X105983753Y-109173993D01*
X105955413Y-109216407D01*
X105955412Y-109216408D01*
X105922268Y-109266012D01*
X105871475Y-109342029D01*
X105842000Y-109490209D01*
X105842000Y-109490212D01*
X105832049Y-109540240D01*
X105842000Y-109590268D01*
X105842001Y-112660167D01*
X105452694Y-112920294D01*
X105177613Y-113331982D01*
X105105400Y-113695020D01*
X105062064Y-113695020D01*
X105062064Y-112954000D01*
X105032494Y-112805341D01*
X104948286Y-112679314D01*
X104822259Y-112595106D01*
X104673600Y-112565536D01*
X104318000Y-112565536D01*
X104318000Y-108780380D01*
X104970380Y-108128000D01*
X111379972Y-108128000D01*
X111430000Y-108137951D01*
X111480028Y-108128000D01*
X111480032Y-108128000D01*
X111628212Y-108098525D01*
X111796247Y-107986247D01*
X111824588Y-107943832D01*
X112323835Y-107444586D01*
X112366247Y-107416247D01*
X112394586Y-107373835D01*
X112394588Y-107373833D01*
X112478525Y-107248212D01*
X112488826Y-107196424D01*
X112508000Y-107100032D01*
X112508000Y-107100028D01*
X112517951Y-107050000D01*
X112508000Y-106999972D01*
X112508000Y-105851407D01*
X112555692Y-105831652D01*
X112831652Y-105555692D01*
X112981000Y-105195133D01*
X112981000Y-104804867D01*
X112831652Y-104444308D01*
X112555692Y-104168348D01*
X112195133Y-104019000D01*
X111804867Y-104019000D01*
X111444308Y-104168348D01*
X111168348Y-104444308D01*
X111019000Y-104804867D01*
X111019000Y-105195133D01*
X111168348Y-105555692D01*
X111444308Y-105831652D01*
X111492000Y-105851407D01*
X111492001Y-106839578D01*
X111219580Y-107112000D01*
X104809987Y-107112000D01*
X104759959Y-107102049D01*
X104709931Y-107112000D01*
X104709928Y-107112000D01*
X104561748Y-107141475D01*
X104393713Y-107253753D01*
X104365372Y-107296168D01*
X103486168Y-108175372D01*
X103443753Y-108203713D01*
X103415413Y-108246127D01*
X103415412Y-108246128D01*
X103389179Y-108285389D01*
X103331475Y-108371749D01*
X103302000Y-108519929D01*
X103302000Y-108519932D01*
X103292049Y-108569960D01*
X103302000Y-108619988D01*
X103302001Y-112565536D01*
X102946400Y-112565536D01*
X102797741Y-112595106D01*
X102671714Y-112679314D01*
X102587506Y-112805341D01*
X102557936Y-112954000D01*
X100431000Y-112954000D01*
X100431000Y-103625846D01*
X102119000Y-103625846D01*
X102119000Y-104374154D01*
X102405365Y-105065501D01*
X102934499Y-105594635D01*
X103625846Y-105881000D01*
X104374154Y-105881000D01*
X105065501Y-105594635D01*
X105437886Y-105222250D01*
X109019000Y-105222250D01*
X109019000Y-105675786D01*
X109077004Y-105815820D01*
X109184181Y-105922996D01*
X109324215Y-105981000D01*
X109777750Y-105981000D01*
X109873000Y-105885750D01*
X109873000Y-105127000D01*
X110127000Y-105127000D01*
X110127000Y-105885750D01*
X110222250Y-105981000D01*
X110675785Y-105981000D01*
X110815819Y-105922996D01*
X110922996Y-105815820D01*
X110981000Y-105675786D01*
X110981000Y-105222250D01*
X110885750Y-105127000D01*
X110127000Y-105127000D01*
X109873000Y-105127000D01*
X109114250Y-105127000D01*
X109019000Y-105222250D01*
X105437886Y-105222250D01*
X105594635Y-105065501D01*
X105881000Y-104374154D01*
X105881000Y-104324214D01*
X109019000Y-104324214D01*
X109019000Y-104777750D01*
X109114250Y-104873000D01*
X109873000Y-104873000D01*
X109873000Y-104114250D01*
X110127000Y-104114250D01*
X110127000Y-104873000D01*
X110885750Y-104873000D01*
X110981000Y-104777750D01*
X110981000Y-104324214D01*
X110922996Y-104184180D01*
X110815819Y-104077004D01*
X110675785Y-104019000D01*
X110222250Y-104019000D01*
X110127000Y-104114250D01*
X109873000Y-104114250D01*
X109777750Y-104019000D01*
X109324215Y-104019000D01*
X109184181Y-104077004D01*
X109077004Y-104184180D01*
X109019000Y-104324214D01*
X105881000Y-104324214D01*
X105881000Y-103723379D01*
X109456226Y-103723379D01*
X109519590Y-103877294D01*
X109891885Y-103994359D01*
X110280639Y-103960042D01*
X110480410Y-103877294D01*
X110543774Y-103723379D01*
X110000000Y-103179605D01*
X109456226Y-103723379D01*
X105881000Y-103723379D01*
X105881000Y-103625846D01*
X105594635Y-102934499D01*
X105552021Y-102891885D01*
X109005641Y-102891885D01*
X109039958Y-103280639D01*
X109122706Y-103480410D01*
X109276621Y-103543774D01*
X109820395Y-103000000D01*
X110179605Y-103000000D01*
X110723379Y-103543774D01*
X110877294Y-103480410D01*
X110994359Y-103108115D01*
X110967590Y-102804867D01*
X111019000Y-102804867D01*
X111019000Y-103195133D01*
X111168348Y-103555692D01*
X111444308Y-103831652D01*
X111804867Y-103981000D01*
X112195133Y-103981000D01*
X112555692Y-103831652D01*
X112831652Y-103555692D01*
X112981000Y-103195133D01*
X112981000Y-102804867D01*
X113019000Y-102804867D01*
X113019000Y-103195133D01*
X113168348Y-103555692D01*
X113444308Y-103831652D01*
X113804867Y-103981000D01*
X114195133Y-103981000D01*
X114555692Y-103831652D01*
X114831652Y-103555692D01*
X114981000Y-103195133D01*
X114981000Y-102804867D01*
X115019000Y-102804867D01*
X115019000Y-103195133D01*
X115168348Y-103555692D01*
X115444308Y-103831652D01*
X115804867Y-103981000D01*
X116195133Y-103981000D01*
X116555692Y-103831652D01*
X116831652Y-103555692D01*
X116981000Y-103195133D01*
X116981000Y-102804867D01*
X117019000Y-102804867D01*
X117019000Y-103195133D01*
X117168348Y-103555692D01*
X117444308Y-103831652D01*
X117804867Y-103981000D01*
X118195133Y-103981000D01*
X118555692Y-103831652D01*
X118831652Y-103555692D01*
X118981000Y-103195133D01*
X118981000Y-102804867D01*
X119019000Y-102804867D01*
X119019000Y-103195133D01*
X119168348Y-103555692D01*
X119444308Y-103831652D01*
X119804867Y-103981000D01*
X120195133Y-103981000D01*
X120555692Y-103831652D01*
X120831652Y-103555692D01*
X120981000Y-103195133D01*
X120981000Y-102804867D01*
X121019000Y-102804867D01*
X121019000Y-103195133D01*
X121168348Y-103555692D01*
X121444308Y-103831652D01*
X121804867Y-103981000D01*
X122195133Y-103981000D01*
X122555692Y-103831652D01*
X122831652Y-103555692D01*
X122981000Y-103195133D01*
X122981000Y-102804867D01*
X123019000Y-102804867D01*
X123019000Y-103195133D01*
X123168348Y-103555692D01*
X123444308Y-103831652D01*
X123804867Y-103981000D01*
X124195133Y-103981000D01*
X124555692Y-103831652D01*
X124831652Y-103555692D01*
X124981000Y-103195133D01*
X124981000Y-102804867D01*
X125019000Y-102804867D01*
X125019000Y-103195133D01*
X125168348Y-103555692D01*
X125444308Y-103831652D01*
X125804867Y-103981000D01*
X126195133Y-103981000D01*
X126555692Y-103831652D01*
X126831652Y-103555692D01*
X126981000Y-103195133D01*
X126981000Y-102804867D01*
X127019000Y-102804867D01*
X127019000Y-103195133D01*
X127168348Y-103555692D01*
X127444308Y-103831652D01*
X127804867Y-103981000D01*
X128195133Y-103981000D01*
X128555692Y-103831652D01*
X128831652Y-103555692D01*
X128981000Y-103195133D01*
X128981000Y-102804867D01*
X129019000Y-102804867D01*
X129019000Y-103195133D01*
X129168348Y-103555692D01*
X129444308Y-103831652D01*
X129804867Y-103981000D01*
X130195133Y-103981000D01*
X130555692Y-103831652D01*
X130831652Y-103555692D01*
X130981000Y-103195133D01*
X130981000Y-102804867D01*
X131019000Y-102804867D01*
X131019000Y-103195133D01*
X131168348Y-103555692D01*
X131444308Y-103831652D01*
X131804867Y-103981000D01*
X132195133Y-103981000D01*
X132555692Y-103831652D01*
X132831652Y-103555692D01*
X132981000Y-103195133D01*
X132981000Y-102804867D01*
X133019000Y-102804867D01*
X133019000Y-103195133D01*
X133168348Y-103555692D01*
X133444308Y-103831652D01*
X133804867Y-103981000D01*
X134195133Y-103981000D01*
X134555692Y-103831652D01*
X134831652Y-103555692D01*
X134981000Y-103195133D01*
X134981000Y-102804867D01*
X135019000Y-102804867D01*
X135019000Y-103195133D01*
X135168348Y-103555692D01*
X135444308Y-103831652D01*
X135804867Y-103981000D01*
X136195133Y-103981000D01*
X136555692Y-103831652D01*
X136831652Y-103555692D01*
X136981000Y-103195133D01*
X136981000Y-102804867D01*
X137019000Y-102804867D01*
X137019000Y-103195133D01*
X137168348Y-103555692D01*
X137444308Y-103831652D01*
X137804867Y-103981000D01*
X138195133Y-103981000D01*
X138555692Y-103831652D01*
X138831652Y-103555692D01*
X138981000Y-103195133D01*
X138981000Y-102804867D01*
X139019000Y-102804867D01*
X139019000Y-103195133D01*
X139168348Y-103555692D01*
X139444308Y-103831652D01*
X139804867Y-103981000D01*
X140195133Y-103981000D01*
X140555692Y-103831652D01*
X140831652Y-103555692D01*
X140981000Y-103195133D01*
X140981000Y-102804867D01*
X140831652Y-102444308D01*
X140555692Y-102168348D01*
X140195133Y-102019000D01*
X139804867Y-102019000D01*
X139444308Y-102168348D01*
X139168348Y-102444308D01*
X139019000Y-102804867D01*
X138981000Y-102804867D01*
X138831652Y-102444308D01*
X138555692Y-102168348D01*
X138195133Y-102019000D01*
X137804867Y-102019000D01*
X137444308Y-102168348D01*
X137168348Y-102444308D01*
X137019000Y-102804867D01*
X136981000Y-102804867D01*
X136831652Y-102444308D01*
X136555692Y-102168348D01*
X136195133Y-102019000D01*
X135804867Y-102019000D01*
X135444308Y-102168348D01*
X135168348Y-102444308D01*
X135019000Y-102804867D01*
X134981000Y-102804867D01*
X134831652Y-102444308D01*
X134555692Y-102168348D01*
X134195133Y-102019000D01*
X133804867Y-102019000D01*
X133444308Y-102168348D01*
X133168348Y-102444308D01*
X133019000Y-102804867D01*
X132981000Y-102804867D01*
X132831652Y-102444308D01*
X132555692Y-102168348D01*
X132195133Y-102019000D01*
X131804867Y-102019000D01*
X131444308Y-102168348D01*
X131168348Y-102444308D01*
X131019000Y-102804867D01*
X130981000Y-102804867D01*
X130831652Y-102444308D01*
X130555692Y-102168348D01*
X130195133Y-102019000D01*
X129804867Y-102019000D01*
X129444308Y-102168348D01*
X129168348Y-102444308D01*
X129019000Y-102804867D01*
X128981000Y-102804867D01*
X128831652Y-102444308D01*
X128555692Y-102168348D01*
X128195133Y-102019000D01*
X127804867Y-102019000D01*
X127444308Y-102168348D01*
X127168348Y-102444308D01*
X127019000Y-102804867D01*
X126981000Y-102804867D01*
X126831652Y-102444308D01*
X126555692Y-102168348D01*
X126195133Y-102019000D01*
X125804867Y-102019000D01*
X125444308Y-102168348D01*
X125168348Y-102444308D01*
X125019000Y-102804867D01*
X124981000Y-102804867D01*
X124831652Y-102444308D01*
X124555692Y-102168348D01*
X124195133Y-102019000D01*
X123804867Y-102019000D01*
X123444308Y-102168348D01*
X123168348Y-102444308D01*
X123019000Y-102804867D01*
X122981000Y-102804867D01*
X122831652Y-102444308D01*
X122555692Y-102168348D01*
X122195133Y-102019000D01*
X121804867Y-102019000D01*
X121444308Y-102168348D01*
X121168348Y-102444308D01*
X121019000Y-102804867D01*
X120981000Y-102804867D01*
X120831652Y-102444308D01*
X120555692Y-102168348D01*
X120195133Y-102019000D01*
X119804867Y-102019000D01*
X119444308Y-102168348D01*
X119168348Y-102444308D01*
X119019000Y-102804867D01*
X118981000Y-102804867D01*
X118831652Y-102444308D01*
X118555692Y-102168348D01*
X118195133Y-102019000D01*
X117804867Y-102019000D01*
X117444308Y-102168348D01*
X117168348Y-102444308D01*
X117019000Y-102804867D01*
X116981000Y-102804867D01*
X116831652Y-102444308D01*
X116555692Y-102168348D01*
X116195133Y-102019000D01*
X115804867Y-102019000D01*
X115444308Y-102168348D01*
X115168348Y-102444308D01*
X115019000Y-102804867D01*
X114981000Y-102804867D01*
X114831652Y-102444308D01*
X114555692Y-102168348D01*
X114195133Y-102019000D01*
X113804867Y-102019000D01*
X113444308Y-102168348D01*
X113168348Y-102444308D01*
X113019000Y-102804867D01*
X112981000Y-102804867D01*
X112831652Y-102444308D01*
X112555692Y-102168348D01*
X112195133Y-102019000D01*
X111804867Y-102019000D01*
X111444308Y-102168348D01*
X111168348Y-102444308D01*
X111019000Y-102804867D01*
X110967590Y-102804867D01*
X110960042Y-102719361D01*
X110877294Y-102519590D01*
X110723379Y-102456226D01*
X110179605Y-103000000D01*
X109820395Y-103000000D01*
X109276621Y-102456226D01*
X109122706Y-102519590D01*
X109005641Y-102891885D01*
X105552021Y-102891885D01*
X105065501Y-102405365D01*
X104754686Y-102276621D01*
X109456226Y-102276621D01*
X110000000Y-102820395D01*
X110543774Y-102276621D01*
X110480410Y-102122706D01*
X110108115Y-102005641D01*
X109719361Y-102039958D01*
X109519590Y-102122706D01*
X109456226Y-102276621D01*
X104754686Y-102276621D01*
X104374154Y-102119000D01*
X103625846Y-102119000D01*
X102934499Y-102405365D01*
X102405365Y-102934499D01*
X102119000Y-103625846D01*
X100431000Y-103625846D01*
X100431000Y-100431000D01*
X184569000Y-100431000D01*
X184569001Y-141569000D01*
G04 #@! TD*
M02*
