%FSTAX24Y24*%
%MOMM*%
%SFA1B1*%

%IPPOS*%
%ADD38C,0.250000*%
%ADD43C,0.130000*%
%ADD75C,0.100000*%
%LNgateway-1*%
%LPD*%
G54D38*
X015499Y015499D02*
X865499D01*
Y555499*
X015499D02*
X865499D01*
X015499Y015499D02*
Y555499D01*
G54D43*
X575699Y233699D02*
Y271299D01*
X555299Y233699D02*
X575699D01*
X555299D02*
Y271299D01*
X575699*
G54D75*
X455499Y252099D02*
Y315099D01*
X418499Y252099D02*
X455499D01*
X418499Y315099D02*
X455499D01*
X418499Y252099D02*
Y315099D01*
X630299Y115199D02*
X644799D01*
X630299Y084299D02*
X644799D01*
X630299D02*
Y115199D01*
X644799Y084299D02*
Y115199D01*
X295499Y371499D02*
Y385999D01*
X326499Y371499D02*
Y385999D01*
X295499D02*
X326499D01*
X295499Y371499D02*
X326499D01*
Y389999D02*
Y404499D01*
X295499Y389999D02*
Y404499D01*
Y389999D02*
X326499D01*
X295499Y404499D02*
X326499D01*
X296199Y322799D02*
Y337199D01*
X327199Y322799D02*
Y337199D01*
X296199D02*
X327199D01*
X296199Y322799D02*
X327199D01*
X326999Y341999D02*
Y356499D01*
X295999Y341999D02*
Y356499D01*
Y341999D02*
X326999D01*
X295999Y356499D02*
X326999D01*
X132499Y392499D02*
Y406999D01*
X101499Y392499D02*
Y406999D01*
Y392499D02*
X132499D01*
X101499Y406999D02*
X132499D01*
X101499Y367199D02*
Y381699D01*
X132499Y367199D02*
Y381699D01*
X101499D02*
X132499D01*
X101499Y367199D02*
X132499D01*
X407999Y431199D02*
Y462199D01*
X422499Y431199D02*
Y462199D01*
X407999Y431199D02*
X422499D01*
X407999Y462199D02*
X422499D01*
X579499Y116199D02*
X593999D01*
X579499Y085199D02*
X593999D01*
Y116199*
X579499Y085199D02*
Y116199D01*
X553999D02*
X568499D01*
X553999Y085199D02*
X568499D01*
Y116199*
X553999Y085199D02*
Y116199D01*
X855299Y031499D02*
Y045999D01*
X824299Y031499D02*
Y045999D01*
Y031499D02*
X855299D01*
X824299Y045999D02*
X855299D01*
X828899Y065299D02*
Y096199D01*
X843299Y065299D02*
Y096199D01*
X828899Y065299D02*
X843299D01*
X828899Y096199D02*
X843299D01*
X388499Y431199D02*
Y462199D01*
X402999Y431199D02*
Y462199D01*
X388499Y431199D02*
X402999D01*
X388499Y462199D02*
X402999D01*
X842799Y451199D02*
Y482199D01*
X828199Y451199D02*
Y482199D01*
X842799*
X828199Y451199D02*
X842799D01*
X101999Y342799D02*
Y357199D01*
X132999Y342799D02*
Y357199D01*
X101999D02*
X132999D01*
X101999Y342799D02*
X132999D01*
X503299Y216999D02*
Y231499D01*
X534199Y216999D02*
Y231499D01*
X503299D02*
X534199D01*
X503299Y216999D02*
X534199D01*
X503999Y269199D02*
X518499D01*
X503999Y238299D02*
X518499D01*
Y269199*
X503999Y238299D02*
Y269199D01*
X530499Y238799D02*
X544999D01*
X530499Y269799D02*
X544999D01*
X530499Y238799D02*
Y269799D01*
X544999Y238799D02*
Y269799D01*
X535299Y437199D02*
Y451699D01*
X504199Y437199D02*
Y451699D01*
Y437199D02*
X535299D01*
X504199Y451699D02*
X535299D01*
X518799Y406699D02*
Y421199D01*
X487799Y406699D02*
Y421199D01*
Y406699D02*
X518799D01*
X487799Y421199D02*
X518799D01*
X817199Y451499D02*
Y465999D01*
X786199Y451499D02*
Y465999D01*
Y451499D02*
X817199D01*
X786199Y465999D02*
X817199D01*
X584999Y337199D02*
Y369999D01*
X569499Y337199D02*
X584999D01*
X569499D02*
Y369999D01*
X584999*
X709299Y237499D02*
X741999D01*
X709299D02*
Y252999D01*
X741999*
Y237499D02*
Y252999D01*
X709299Y275499D02*
X741999D01*
X709299D02*
Y290999D01*
X741999*
Y275499D02*
Y290999D01*
X284299Y114799D02*
X298799D01*
X284299Y083799D02*
X298799D01*
X284299D02*
Y114799D01*
X298799Y083799D02*
Y114799D01*
X258999D02*
X273499D01*
X258999Y083799D02*
X273499D01*
X258999D02*
Y114799D01*
X273499Y083799D02*
Y114799D01*
X233999Y114499D02*
X248499D01*
X233999Y083499D02*
X248499D01*
X233999D02*
Y114499D01*
X248499Y083499D02*
Y114499D01*
X081199Y108999D02*
X095699D01*
X081199Y077999D02*
X095699D01*
Y108999*
X081199Y077999D02*
Y108999D01*
X055499Y108499D02*
X069999D01*
X055499Y077499D02*
X069999D01*
Y108499*
X055499Y077499D02*
Y108499D01*
X426999Y115199D02*
X441499D01*
X426999Y084299D02*
X441499D01*
Y115199*
X426999Y084299D02*
Y115199D01*
M02*