%FSTAX24Y24*%
%MOMM*%
%SFA1B1*%

%IPPOS*%
%ADD10R,2.199996X1.199998*%
%ADD11R,2.199996X3.499993*%
%ADD12R,1.699997X1.099998*%
%ADD13R,0.999998X0.949998*%
%ADD14R,0.949998X0.999998*%
%ADD15R,1.149998X0.599999*%
%ADD16O,1.699997X0.349999*%
%ADD17R,1.599997X1.269997*%
%ADD18R,1.649997X1.099998*%
%ADD19R,1.099998X1.649997*%
%ADD20R,1.199998X1.999996*%
%ADD21R,2.299995X2.299995*%
%LNgateway-1*%
%LPD*%
G54D10*
X467999Y260999D03*
Y283999D03*
Y306999D03*
G54D11*
X405999Y283999D03*
G54D12*
X732499Y346499D03*
Y319499D03*
G54D13*
X318999Y378799D03*
X302999D03*
Y397199D03*
X318999D03*
X319799Y329999D03*
X303799D03*
X303499Y349199D03*
X319499D03*
X108999Y399699D03*
X124999D03*
Y374499D03*
X108999D03*
X831799Y038799D03*
X847799D03*
X125499Y349999D03*
X109499D03*
X526699Y224199D03*
X510799D03*
X511699Y4445D03*
X527799D03*
X4953Y413999D03*
X511199D03*
X793799Y458799D03*
X809699D03*
G54D14*
X415299Y454699D03*
Y438799D03*
X586699Y092699D03*
Y108799D03*
X561199Y092699D03*
Y108799D03*
X836099Y088799D03*
Y072799D03*
X395799Y454699D03*
Y438799D03*
X835499Y458799D03*
Y474699D03*
X511199Y245799D03*
Y261699D03*
X537799Y262299D03*
Y246199D03*
X088499Y085499D03*
Y101499D03*
X062799Y084999D03*
Y100999D03*
X434199Y091799D03*
Y107699D03*
G54D15*
X567499Y414199D03*
X589999Y423799D03*
Y404699D03*
G54D16*
X242299Y345999D03*
Y352499D03*
Y358999D03*
Y365499D03*
Y371999D03*
Y378499D03*
Y384999D03*
X185199Y345999D03*
Y352499D03*
Y358999D03*
Y365499D03*
Y371999D03*
Y378499D03*
Y384999D03*
G54D17*
X565499Y242299D03*
Y262699D03*
G54D18*
X577199Y370299D03*
Y337199D03*
G54D19*
X742199Y245199D03*
X709299D03*
X742199Y283299D03*
X709299D03*
G54D20*
X684399Y459799D03*
Y384699D03*
X658299Y459799D03*
Y384699D03*
G54D21*
X571999Y465299D03*
Y510299D03*
M02*