%FSTAX24Y24*%
%MOMM*%
%SFA1B1*%

%IPPOS*%
%ADD53R,1.049998X1.099998*%
%ADD61C,1.979996*%
%ADD62R,1.979996X1.979996*%
%ADD63R,1.499997X1.499997*%
%ADD64C,1.499997*%
%ADD65R,1.599997X1.599997*%
%ADD66C,1.629997*%
%ADD67C,1.599997*%
%ADD68R,1.629997X1.629997*%
%ADD69R,1.599997X1.599997*%
%ADD70C,2.599995*%
%ADD71C,4.099992*%
%ADD72C,0.100000*%
%ADD73C,1.699997*%
%ADD74R,1.699997X1.699997*%
%LNgateway-1*%
%LPD*%
G54D53*
X637499Y091799D03*
Y107699D03*
X291499Y091199D03*
Y107299D03*
X266299Y091199D03*
Y107299D03*
X2413Y090999D03*
Y106999D03*
G54D61*
X316999Y038799D03*
X291699D03*
X266199D03*
X240799D03*
X215499D03*
X189999D03*
X164699D03*
X139299D03*
X113899D03*
X088499D03*
X062999D03*
G54D62*
X037699Y038799D03*
G54D63*
X115499Y505499D03*
G54D64*
X115499Y525499D03*
X135499Y505499D03*
Y525499D03*
X155499Y505499D03*
Y525499D03*
X175499Y505499D03*
Y525499D03*
X195499Y505499D03*
Y525499D03*
X215499Y505499D03*
Y525499D03*
X235499Y505499D03*
Y525499D03*
X255499Y505499D03*
Y525499D03*
X275499Y505499D03*
Y525499D03*
X295499Y505499D03*
Y525499D03*
X315499Y505499D03*
Y525499D03*
X335499Y505499D03*
Y525499D03*
X355499Y505499D03*
Y525499D03*
X375499Y505499D03*
Y525499D03*
X395499Y505499D03*
Y525499D03*
X415499Y505499D03*
Y525499D03*
X435499Y505499D03*
Y525499D03*
X455499Y505499D03*
Y525499D03*
X475499Y505499D03*
Y525499D03*
X495499Y505499D03*
Y525499D03*
G54D65*
X763899Y040499D03*
X358099Y041199D03*
G54D66*
X763899Y065899D03*
X761599Y142299D03*
X762799Y510299D03*
G54D67*
X789299Y040499D03*
Y065899D03*
X611699Y336499D03*
Y304499D03*
Y282499D03*
Y260499D03*
X662499D03*
Y282499D03*
Y304499D03*
Y336499D03*
X062499Y400099D03*
Y374699D03*
Y349199D03*
X713699Y041199D03*
X688299D03*
X662899D03*
X637499D03*
X612099D03*
X586699D03*
X561299D03*
X535899D03*
X510499D03*
X485099D03*
X459699D03*
X434299D03*
X408899D03*
X383499D03*
X613799Y450299D03*
X037799Y476199D03*
X682799Y183999D03*
X668499Y104299D03*
X489999Y117499D03*
X255199Y227999D03*
X187999Y227699D03*
X109499Y482999D03*
X340799Y393499D03*
Y349199D03*
X606699Y527199D03*
X055499Y243799D03*
X282999Y447199D03*
X759499Y371999D03*
X763799Y296499D03*
G54D68*
X786999Y142299D03*
X788199Y510299D03*
G54D69*
X062499Y323799D03*
G54D70*
X817799Y247499D03*
Y298299D03*
Y399799D03*
Y348999D03*
G54D71*
X055499Y515499D03*
Y200499D03*
G54D72*
X8255Y515499D03*
Y200499D03*
G54D73*
X756799Y459699D03*
Y434399D03*
G54D74*
X756799Y408999D03*
M02*