%FSTAX24Y24*%
%MOMM*%
%SFA1B1*%

%IPPOS*%
%ADD49R,2.299995X1.299997*%
%ADD50R,2.299995X3.599993*%
%ADD51R,1.799996X1.199998*%
%ADD52R,1.099998X1.049998*%
%ADD53R,1.049998X1.099998*%
%ADD54R,1.249998X0.699999*%
%ADD55O,1.799996X0.449999*%
%ADD56R,1.699997X1.369997*%
%ADD57R,1.749997X1.199998*%
%ADD58R,1.199998X1.749997*%
%ADD59R,1.299997X2.099996*%
%ADD60R,2.399995X2.399995*%
%ADD61C,1.979996*%
%ADD62R,1.979996X1.979996*%
%ADD63R,1.499997X1.499997*%
%ADD64C,1.499997*%
%ADD65R,1.599997X1.599997*%
%ADD66C,1.629997*%
%ADD67C,1.599997*%
%ADD68R,1.629997X1.629997*%
%ADD69R,1.599997X1.599997*%
%ADD70C,2.599995*%
%ADD71C,4.099992*%
%ADD72C,0.100000*%
%ADD73C,1.699997*%
%ADD74R,1.699997X1.699997*%
%LNgateway-1*%
%LPD*%
G54D49*
X467999Y260999D03*
Y283999D03*
Y306999D03*
G54D50*
X405999Y283999D03*
G54D51*
X732499Y346499D03*
Y319499D03*
G54D52*
X318999Y378799D03*
X302999D03*
Y397199D03*
X318999D03*
X319799Y329999D03*
X303799D03*
X303499Y349199D03*
X319499D03*
X108999Y399699D03*
X124999D03*
Y374499D03*
X108999D03*
X831799Y038799D03*
X847799D03*
X125499Y349999D03*
X109499D03*
X526699Y224199D03*
X510799D03*
X511699Y4445D03*
X527799D03*
X4953Y413999D03*
X511199D03*
X793799Y458799D03*
X809699D03*
G54D53*
X415299Y454699D03*
Y438799D03*
X586699Y092699D03*
Y108799D03*
X561199Y092699D03*
Y108799D03*
X836099Y088799D03*
Y072799D03*
X395799Y454699D03*
Y438799D03*
X835499Y458799D03*
Y474699D03*
X511199Y245799D03*
Y261699D03*
X537799Y262299D03*
Y246199D03*
X088499Y085499D03*
Y101499D03*
X062799Y084999D03*
Y100999D03*
X434199Y091799D03*
Y107699D03*
G54D54*
X567499Y414199D03*
X589999Y423799D03*
Y404699D03*
G54D55*
X242299Y345999D03*
Y352499D03*
Y358999D03*
Y365499D03*
Y371999D03*
Y378499D03*
Y384999D03*
X185199Y345999D03*
Y352499D03*
Y358999D03*
Y365499D03*
Y371999D03*
Y378499D03*
Y384999D03*
G54D56*
X565499Y242299D03*
Y262699D03*
G54D57*
X577199Y370299D03*
Y337199D03*
G54D58*
X742199Y245199D03*
X709299D03*
X742199Y283299D03*
X709299D03*
G54D59*
X684399Y459799D03*
Y384699D03*
X658299Y459799D03*
Y384699D03*
G54D60*
X571999Y465299D03*
Y510299D03*
G54D61*
X316999Y038799D03*
X291699D03*
X266199D03*
X240799D03*
X215499D03*
X189999D03*
X164699D03*
X139299D03*
X113899D03*
X088499D03*
X062999D03*
G54D62*
X037699Y038799D03*
G54D63*
X115499Y505499D03*
G54D64*
X115499Y525499D03*
X135499Y505499D03*
Y525499D03*
X155499Y505499D03*
Y525499D03*
X175499Y505499D03*
Y525499D03*
X195499Y505499D03*
Y525499D03*
X215499Y505499D03*
Y525499D03*
X235499Y505499D03*
Y525499D03*
X255499Y505499D03*
Y525499D03*
X275499Y505499D03*
Y525499D03*
X295499Y505499D03*
Y525499D03*
X315499Y505499D03*
Y525499D03*
X335499Y505499D03*
Y525499D03*
X355499Y505499D03*
Y525499D03*
X375499Y505499D03*
Y525499D03*
X395499Y505499D03*
Y525499D03*
X415499Y505499D03*
Y525499D03*
X435499Y505499D03*
Y525499D03*
X455499Y505499D03*
Y525499D03*
X475499Y505499D03*
Y525499D03*
X495499Y505499D03*
Y525499D03*
G54D65*
X763899Y040499D03*
X358099Y041199D03*
G54D66*
X763899Y065899D03*
X761599Y142299D03*
X762799Y510299D03*
G54D67*
X789299Y040499D03*
Y065899D03*
X611699Y336499D03*
Y304499D03*
Y282499D03*
Y260499D03*
X662499D03*
Y282499D03*
Y304499D03*
Y336499D03*
X062499Y400099D03*
Y374699D03*
Y349199D03*
X713699Y041199D03*
X688299D03*
X662899D03*
X637499D03*
X612099D03*
X586699D03*
X561299D03*
X535899D03*
X510499D03*
X485099D03*
X459699D03*
X434299D03*
X408899D03*
X383499D03*
X613799Y450299D03*
X037799Y476199D03*
X682799Y183999D03*
X668499Y104299D03*
X489999Y117499D03*
X255199Y227999D03*
X187999Y227699D03*
X109499Y482999D03*
X340799Y393499D03*
Y349199D03*
X606699Y527199D03*
X055499Y243799D03*
X282999Y447199D03*
X759499Y371999D03*
X763799Y296499D03*
G54D68*
X786999Y142299D03*
X788199Y510299D03*
G54D69*
X062499Y323799D03*
G54D70*
X817799Y247499D03*
Y298299D03*
Y399799D03*
Y348999D03*
G54D71*
X055499Y515499D03*
Y200499D03*
G54D72*
X8255Y515499D03*
Y200499D03*
G54D73*
X756799Y459699D03*
Y434399D03*
G54D74*
X756799Y408999D03*
M02*