%FSTAX24Y24*%
%MOMM*%
%SFA1B1*%

%IPPOS*%
%ADD16R,0.499999X1.999996*%
%ADD17R,0.999998X2.999994*%
%LNio-testing-mezzanine-1*%
%LPD*%
G54D16*
X543499Y276499D03*
X535499D03*
X527499D03*
X519499D03*
X511499D03*
X503499D03*
X495499D03*
X487499D03*
X479499D03*
X471499D03*
X463499D03*
X455499D03*
X447499D03*
X439499D03*
X431499D03*
X423499D03*
X415499D03*
X407499D03*
X399499D03*
X391499D03*
X383499D03*
X375499D03*
X367499D03*
X359499D03*
X351499D03*
X343499D03*
X335499D03*
X327499D03*
X319499D03*
X311499Y232499D03*
X543499D03*
X535499D03*
X527499D03*
X519499D03*
X511499D03*
X503499D03*
X495499D03*
X487499D03*
X479499D03*
X471499D03*
X463499D03*
X455499D03*
X447499D03*
X439499D03*
X431499D03*
X423499D03*
X415499D03*
X407499D03*
X399499D03*
X391499D03*
X383499D03*
X375499D03*
X367499D03*
X359499D03*
X351499D03*
X343499D03*
X335499D03*
X327499D03*
X319499D03*
X311499Y276499D03*
G54D17*
X579999Y577499D03*
Y622499D03*
X559999Y577499D03*
Y622499D03*
X539999Y577499D03*
Y622499D03*
X519999Y577499D03*
Y622499D03*
X499999Y577499D03*
Y622499D03*
X479999Y577499D03*
Y622499D03*
X459999Y577499D03*
Y622499D03*
X439999Y577499D03*
Y622499D03*
X419999Y577499D03*
Y622499D03*
X399999Y577499D03*
Y622499D03*
X379999Y577499D03*
Y622499D03*
X359999Y577499D03*
Y622499D03*
X339999Y577499D03*
Y622499D03*
X319999Y577499D03*
Y622499D03*
X299999Y577499D03*
Y622499D03*
X279999Y577499D03*
Y622499D03*
X259999Y577499D03*
Y622499D03*
X239999Y577499D03*
Y622499D03*
X219999Y577499D03*
Y622499D03*
X199999Y577499D03*
Y622499D03*
M02*