%FSTAX24Y24*%
%MOMM*%
%SFA1B1*%

%IPPOS*%
%ADD38C,0.100000*%
%LNio-testing-mezzanine-1*%
%LPD*%
G54D38*
X625999Y254999D02*
X740299D01*
X625799Y099999D02*
Y254199D01*
X740099Y099999D02*
Y254199D01*
X902799Y150299D02*
Y159799D01*
X916999Y150299D02*
Y159799D01*
X902799D02*
X920299D01*
X902799Y150299D02*
X920299D01*
Y159799*
X905999Y150299D02*
Y159799D01*
X859999Y177599D02*
Y186599D01*
X876999Y177599D02*
Y186599D01*
X859999D02*
X876999D01*
X859999Y177599D02*
X876999D01*
X901799Y176399D02*
Y185799D01*
X915999Y176399D02*
Y185799D01*
X901799D02*
X919299D01*
X901799Y176399D02*
X919299D01*
Y185799*
X904999Y176399D02*
Y185799D01*
X879999Y328799D02*
Y338299D01*
X894199Y328799D02*
Y338299D01*
X879999D02*
X897499D01*
X879999Y328799D02*
X897499D01*
Y338299*
X883199Y328799D02*
Y338299D01*
X860999Y200599D02*
Y209599D01*
X877999Y200599D02*
Y209599D01*
X860999D02*
X877999D01*
X860999Y200599D02*
X877999D01*
X901799Y200299D02*
Y209799D01*
X915999Y200299D02*
Y209799D01*
X901799D02*
X919299D01*
X901799Y200299D02*
X919299D01*
Y209799*
X904999Y200299D02*
Y209799D01*
X905399Y427099D02*
Y436499D01*
X919599Y427099D02*
Y436499D01*
X905399D02*
X922899D01*
X905399Y427099D02*
X922899D01*
Y436499*
X908599Y427099D02*
Y436499D01*
X860999Y227599D02*
Y236599D01*
X877999Y227599D02*
Y236599D01*
X860999D02*
X877999D01*
X860999Y227599D02*
X877999D01*
X901799Y226399D02*
Y235799D01*
X915999Y226399D02*
Y235799D01*
X901799D02*
X919299D01*
X901799Y226399D02*
X919299D01*
Y235799*
X904999Y226399D02*
Y235799D01*
X843199Y330099D02*
Y339099D01*
X860199Y330099D02*
Y339099D01*
X843199D02*
X860199D01*
X843199Y330099D02*
X860199D01*
X859999Y150599D02*
X876999D01*
X859999Y159599D02*
X876999D01*
Y150599D02*
Y159599D01*
X859999Y150599D02*
Y159599D01*
X904299Y363999D02*
Y373499D01*
X918599Y363999D02*
Y373499D01*
X904299D02*
X921799D01*
X904299Y363999D02*
X921799D01*
Y373499*
X907599Y363999D02*
Y373499D01*
X905399Y485999D02*
Y495599D01*
X919599Y485999D02*
Y495599D01*
X905399D02*
X922899D01*
X905399Y485999D02*
X922899D01*
Y495599*
X908599Y485999D02*
Y495599D01*
X876999Y350499D02*
Y391099D01*
X791899Y350499D02*
Y391099D01*
Y350499D02*
X876999D01*
X791899Y391099D02*
X876999D01*
X875999Y410499D02*
Y451099D01*
X790899Y410499D02*
Y451099D01*
Y410499D02*
X875999D01*
X790899Y451099D02*
X875999D01*
Y528499D02*
Y569099D01*
X790899Y528499D02*
Y569099D01*
Y528499D02*
X875999D01*
X790899Y569099D02*
X875999D01*
X903299Y543099D02*
Y552599D01*
X917599Y543099D02*
Y552599D01*
X903299D02*
X920799D01*
X903299Y543099D02*
X920799D01*
Y552599*
X906599Y543099D02*
Y552599D01*
X875999Y469499D02*
Y510099D01*
X790899Y469499D02*
Y510099D01*
Y469499D02*
X875999D01*
X790899Y510099D02*
X875999D01*
M02*