%FSTAX24Y24*%
%MOMM*%
%SFA1B1*%

%IPPOS*%
%ADD26C,1.499997*%
%ADD40R,1.399997X2.699995*%
%ADD41R,1.099998X2.999994*%
%ADD42R,2.699995X5.199990*%
%ADD43R,1.199998X1.149998*%
%ADD44R,0.999998X0.999998*%
%ADD45R,1.199998X1.599997*%
%ADD46R,0.699999X2.199996*%
%ADD47R,1.199998X3.199994*%
%ADD48C,1.999996*%
%ADD49R,1.699997X1.699997*%
%ADD50C,1.699997*%
%ADD51C,0.999998*%
%ADD52C,1.399997*%
%ADD53C,5.199990*%
%ADD54C,4.199992*%
%LNio-testing-mezzanine-1*%
%LPD*%
G54D26*
X707999Y200499D03*
X657999D03*
G54D40*
X682599Y419999D03*
Y472599D03*
X657199Y419999D03*
Y472599D03*
X631799Y419999D03*
Y472599D03*
X606399Y419999D03*
Y472599D03*
X580999Y419999D03*
Y472599D03*
X555599Y419999D03*
Y472599D03*
X530199Y419999D03*
Y472599D03*
X504799Y419999D03*
Y472599D03*
X479399Y419999D03*
Y472599D03*
X453999Y419999D03*
Y472599D03*
X428599Y419999D03*
Y472599D03*
X403199Y419999D03*
Y472599D03*
X377799Y419999D03*
Y472599D03*
X352399Y419999D03*
Y472599D03*
X326999Y419999D03*
Y472599D03*
X301599Y419999D03*
Y472599D03*
X276199Y419999D03*
Y472599D03*
X250799Y419999D03*
Y472599D03*
X225399Y419999D03*
Y472599D03*
X199999Y419999D03*
Y472599D03*
G54D41*
X717999Y238999D03*
X692999D03*
X672999D03*
X647999D03*
G54D42*
X610499Y216499D03*
X755499D03*
G54D43*
X903499Y155099D03*
X919499D03*
X902499Y181099D03*
X918499D03*
X880699Y333599D03*
X896699D03*
X902499Y204999D03*
X918499D03*
X906099Y4318D03*
X922099D03*
X902499Y231099D03*
X918499D03*
X905099Y368799D03*
X921099D03*
X906099Y490799D03*
X922099D03*
X904099Y547799D03*
X920099D03*
G54D44*
X860499Y182099D03*
X876499D03*
X861499Y205099D03*
X877499D03*
X861499Y232099D03*
X877499D03*
X843699Y334599D03*
X859699D03*
X876499Y155099D03*
X860499D03*
G54D45*
X870099Y370799D03*
X8001D03*
X869099Y430799D03*
X799099D03*
X869099Y548799D03*
X799099D03*
X869099Y489799D03*
X799099D03*
G54D46*
X311499Y276499D03*
X319499Y232499D03*
X327499D03*
X335499D03*
X343499D03*
X351499D03*
X359499D03*
X367499D03*
X375499D03*
X383499D03*
X391499D03*
X399499D03*
X407499D03*
X415499D03*
X423499D03*
X431499D03*
X439499D03*
X447499D03*
X455499D03*
X463499D03*
X471499D03*
X479499D03*
X487499D03*
X495499D03*
X503499D03*
X511499D03*
X519499D03*
X527499D03*
X535499D03*
X543499D03*
X311499D03*
X319499Y276499D03*
X327499D03*
X335499D03*
X343499D03*
X351499D03*
X359499D03*
X367499D03*
X375499D03*
X383499D03*
X391499D03*
X399499D03*
X407499D03*
X415499D03*
X423499D03*
X431499D03*
X439499D03*
X447499D03*
X455499D03*
X463499D03*
X471499D03*
X479499D03*
X487499D03*
X495499D03*
X503499D03*
X511499D03*
X519499D03*
X527499D03*
X535499D03*
X543499D03*
G54D47*
X579999Y577499D03*
Y622499D03*
X559999Y577499D03*
Y622499D03*
X539999Y577499D03*
Y622499D03*
X519999Y577499D03*
Y622499D03*
X499999Y577499D03*
Y622499D03*
X479999Y577499D03*
Y622499D03*
X459999Y577499D03*
Y622499D03*
X439999Y577499D03*
Y622499D03*
X419999Y577499D03*
Y622499D03*
X399999Y577499D03*
Y622499D03*
X379999Y577499D03*
Y622499D03*
X359999Y577499D03*
Y622499D03*
X339999Y577499D03*
Y622499D03*
X319999Y577499D03*
Y622499D03*
X299999Y577499D03*
Y622499D03*
X279999Y577499D03*
Y622499D03*
X259999Y577499D03*
Y622499D03*
X239999Y577499D03*
Y622499D03*
X219999Y577499D03*
Y622499D03*
X199999Y577499D03*
Y622499D03*
G54D48*
X212699Y446299D03*
X669899Y446099D03*
G54D49*
X327599Y370399D03*
G54D50*
X302199Y370399D03*
X276799D03*
X251399D03*
X225999D03*
X200599D03*
G54D51*
X286499Y254499D03*
X568499D03*
G54D52*
X568499Y254499D03*
X286499D03*
G54D53*
X139999Y599999D03*
X909999Y284999D03*
X139999D03*
G54D54*
X909999Y599999D03*
M02*