%FSTAX24Y24*%
%MOMM*%
%SFA1B1*%

%IPPOS*%
%ADD19C,0.250000*%
%ADD34C,0.200000*%
%ADD39C,0.200000*%
%LNio-testing-mezzanine-1*%
%LPD*%
G54D19*
X465499Y138199D02*
X460399D01*
X462899*
Y122899*
X465499*
X460399*
X445099Y138199D02*
X450199D01*
X452799Y135599*
Y125499*
X450199Y122899*
X445099*
X442599Y125499*
Y135599*
X445099Y138199*
X437499Y130499D02*
X427399D01*
X422299Y138199D02*
X412099D01*
X417199*
Y122899*
X399399D02*
X404499D01*
X407099Y125499*
Y130499*
X404499Y133099*
X399399*
X396899Y130499*
Y127999*
X407099*
X391799Y122899D02*
X384199D01*
X381699Y125499*
X384199Y127999*
X389299*
X391799Y130499*
X389299Y133099*
X381699*
X373999Y135599D02*
Y133099D01*
X376599*
X371499*
X373999*
Y125499*
X371499Y122899*
X363899D02*
X358799D01*
X361399*
Y133099*
X363899*
X351199Y122899D02*
Y133099D01*
X343599*
X340999Y130499*
Y122899*
X330899Y117799D02*
X328299D01*
X325799Y120399*
Y133099*
X333399*
X335999Y130499*
Y125499*
X333399Y122899*
X325799*
X320699Y130499D02*
X310599D01*
X305499Y122899D02*
Y138199D01*
X300399Y133099*
X295299Y138199*
Y122899*
X282599D02*
X287699D01*
X290299Y125499*
Y130499*
X287699Y133099*
X282599*
X280099Y130499*
Y127999*
X290299*
X274999Y133099D02*
X264899D01*
X274999Y122899*
X264899*
X259799Y133099D02*
X249599D01*
X259799Y122899*
X249599*
X241999Y133099D02*
X236899D01*
X234399Y130499*
Y122899*
X241999*
X244599Y125499*
X241999Y127999*
X234399*
X229299Y122899D02*
Y133099D01*
X221699*
X219199Y130499*
Y122899*
X214099D02*
X208999D01*
X211499*
Y133099*
X214099*
X201399Y122899D02*
Y133099D01*
X193799*
X191199Y130499*
Y122899*
X178499D02*
X183599D01*
X186199Y125499*
Y130499*
X183599Y133099*
X178499*
X175999Y130499*
Y127999*
X186199*
X170899Y130499D02*
X160799D01*
X155699Y133099D02*
X150599Y122899D01*
X145499Y133099*
X140399Y135599D02*
X137899Y138199D01*
X132799*
X130299Y135599*
Y125499*
X132799Y122899*
X137899*
X140399Y125499*
Y135599*
X115099Y122899D02*
X125199D01*
X115099Y133099*
Y135599*
X117599Y138199*
X122699*
X125199Y135599*
X582999Y263999D02*
X598199D01*
Y271599*
X595699Y274199*
X590599*
X588099Y271599*
Y263999*
X582999Y289399D02*
Y279199D01*
X593199Y289399*
X595699*
X598199Y286899*
Y281799*
X595699Y279199*
X165799Y567699D02*
Y552499D01*
X173399*
X175999Y554999*
Y560099*
X173399Y562599*
X165799*
X180999Y567699D02*
X186099D01*
X183599*
Y552499*
X180999Y554999*
G54D34*
X276399Y217699D02*
Y291299D01*
X578599*
Y217699D02*
Y291299D01*
X276399Y217699D02*
X578599D01*
X182199Y574399D02*
Y625199D01*
X597499Y574399D02*
Y625199D01*
X182199Y574399D02*
X192399D01*
X182199Y625199D02*
X192399D01*
X587399D02*
X597499D01*
X587399Y574399D02*
X597499D01*
G54D39*
X304299Y212599D02*
X308499D01*
X306399*
Y199899*
X304299Y201999*
X546499Y199899D02*
X537999D01*
Y206199*
X542199Y204099*
X544299*
X546499Y206199*
Y210499*
X544299Y212599*
X540099*
X537999Y210499*
X550699D02*
X552799Y212599D01*
X556999*
X559099Y210499*
Y201999*
X556999Y199899*
X552799*
X550699Y201999*
Y204099*
X552799Y206199*
X559099*
X545099Y296299D02*
X540799Y298399D01*
X536599Y302699*
Y306899*
X538699Y308999*
X542999*
X545099Y306899*
Y3048*
X542999Y302699*
X536599*
X549299Y298399D02*
X551399Y296299D01*
X555699*
X557799Y298399*
Y306899*
X555699Y308999*
X551399*
X549299Y306899*
Y298399*
X313999Y307799D02*
X305599D01*
X313999Y299399*
Y297299*
X311899Y295099*
X307699*
X305599Y297299*
X177999Y617599D02*
X169499D01*
X177999Y609199*
Y606999*
X175899Y604899*
X171599*
X169499Y606999*
X610199Y617599D02*
Y604899D01*
X603899Y611299*
X612299*
X616599Y606999D02*
X618699Y604899D01*
X622899*
X624999Y606999*
Y615499*
X622899Y617599*
X618699*
X616599Y615499*
Y606999*
X603899Y581599D02*
X605999Y579499D01*
X610199*
X612299Y581599*
Y583799*
X610199Y585899*
X608099*
X610199*
X612299Y587999*
Y590099*
X610199Y592199*
X605999*
X603899Y590099*
X616599D02*
X618699Y592199D01*
X622899*
X624999Y590099*
Y581599*
X622899Y579499*
X618699*
X616599Y581599*
Y583799*
X618699Y585899*
X624999*
X169499Y592199D02*
X173799D01*
X171599*
Y579499*
X169499Y581599*
M02*