%FSTAX24Y24*%
%MOMM*%
%SFA1B1*%

%IPPOS*%
%ADD16R,0.499999X1.999996*%
%ADD17R,0.999998X2.999994*%
%ADD23C,1.799996*%
%ADD24C,1.299997*%
%ADD25R,1.499997X1.499997*%
%ADD26C,1.499997*%
%ADD27C,0.799998*%
%ADD28C,1.199998*%
%ADD29C,4.999990*%
%ADD30C,3.999992*%
%LNio-testing-mezzanine-1*%
%LPD*%
G54D16*
X543499Y276499D03*
X535499D03*
X527499D03*
X519499D03*
X511499D03*
X503499D03*
X495499D03*
X487499D03*
X479499D03*
X471499D03*
X463499D03*
X455499D03*
X447499D03*
X439499D03*
X431499D03*
X423499D03*
X415499D03*
X407499D03*
X399499D03*
X391499D03*
X383499D03*
X375499D03*
X367499D03*
X359499D03*
X351499D03*
X343499D03*
X335499D03*
X327499D03*
X319499D03*
X311499Y232499D03*
X543499D03*
X535499D03*
X527499D03*
X519499D03*
X511499D03*
X503499D03*
X495499D03*
X487499D03*
X479499D03*
X471499D03*
X463499D03*
X455499D03*
X447499D03*
X439499D03*
X431499D03*
X423499D03*
X415499D03*
X407499D03*
X399499D03*
X391499D03*
X383499D03*
X375499D03*
X367499D03*
X359499D03*
X351499D03*
X343499D03*
X335499D03*
X327499D03*
X319499D03*
X311499Y276499D03*
G54D17*
X579999Y577499D03*
Y622499D03*
X559999Y577499D03*
Y622499D03*
X539999Y577499D03*
Y622499D03*
X519999Y577499D03*
Y622499D03*
X499999Y577499D03*
Y622499D03*
X479999Y577499D03*
Y622499D03*
X459999Y577499D03*
Y622499D03*
X439999Y577499D03*
Y622499D03*
X419999Y577499D03*
Y622499D03*
X399999Y577499D03*
Y622499D03*
X379999Y577499D03*
Y622499D03*
X359999Y577499D03*
Y622499D03*
X339999Y577499D03*
Y622499D03*
X319999Y577499D03*
Y622499D03*
X299999Y577499D03*
Y622499D03*
X279999Y577499D03*
Y622499D03*
X259999Y577499D03*
Y622499D03*
X239999Y577499D03*
Y622499D03*
X219999Y577499D03*
Y622499D03*
X199999Y577499D03*
Y622499D03*
G54D23*
X212699Y446299D03*
X669899Y446099D03*
G54D24*
X707999Y200499D03*
X657999D03*
G54D25*
X327599Y370399D03*
G54D26*
X302199Y370399D03*
X276799D03*
X251399D03*
X225999D03*
X200599D03*
G54D27*
X286499Y254499D03*
X568499D03*
G54D28*
X568499Y254499D03*
X286499D03*
G54D29*
X139999Y599999D03*
X909999Y284999D03*
X139999D03*
G54D30*
X909999Y599999D03*
M02*