%FSTAX24Y24*%
%MOMM*%
%SFA1B1*%

%IPPOS*%
%ADD79C,0.050000*%
%LNgateway-1*%
%LPD*%
G54D79*
X312499Y038799D02*
X321499D01*
X316999Y034199D02*
Y043199D01*
X287199Y038799D02*
X296099D01*
X291699Y034199D02*
Y043199D01*
X261699Y038799D02*
X270799D01*
X266199Y034199D02*
Y043199D01*
X236399Y038799D02*
X245299D01*
X240799Y034199D02*
Y043199D01*
X210899Y038799D02*
X219999D01*
X215499Y034199D02*
Y043199D01*
X185599Y038799D02*
X194499D01*
X189999Y034199D02*
Y043199D01*
X160099Y038799D02*
X169199D01*
X164699Y034199D02*
Y043199D01*
X134799Y038799D02*
X143799D01*
X139299Y034199D02*
Y043199D01*
X109399Y038799D02*
X118399D01*
X113899Y034199D02*
Y043199D01*
X083999Y038799D02*
X092999D01*
X088499Y034199D02*
Y043199D01*
X058599Y038799D02*
X067599D01*
X062999Y034199D02*
Y043199D01*
X033199Y038799D02*
X042199D01*
X037699Y034199D02*
Y043199D01*
X111499Y505499D02*
X119499D01*
X115499Y501499D02*
Y509499D01*
X111499Y525499D02*
X119499D01*
X115499Y521499D02*
Y529499D01*
X131499Y505499D02*
X139499D01*
X135499Y501499D02*
Y509499D01*
X131499Y525499D02*
X139499D01*
X135499Y521499D02*
Y529499D01*
X151499Y505499D02*
X159499D01*
X155499Y501499D02*
Y509499D01*
X151499Y525499D02*
X159499D01*
X155499Y521499D02*
Y529499D01*
X171499Y505499D02*
X179499D01*
X175499Y501499D02*
Y509499D01*
X171499Y525499D02*
X179499D01*
X175499Y521499D02*
Y529499D01*
X191499Y505499D02*
X199499D01*
X195499Y501499D02*
Y509499D01*
X191499Y525499D02*
X199499D01*
X195499Y521499D02*
Y529499D01*
X211499Y505499D02*
X219499D01*
X215499Y501499D02*
Y509499D01*
X211499Y525499D02*
X219499D01*
X215499Y521499D02*
Y529499D01*
X231499Y505499D02*
X239499D01*
X235499Y501499D02*
Y509499D01*
X231499Y525499D02*
X239499D01*
X235499Y521499D02*
Y529499D01*
X251499Y505499D02*
X259499D01*
X255499Y501499D02*
Y509499D01*
X251499Y525499D02*
X259499D01*
X255499Y521499D02*
Y529499D01*
X271499Y505499D02*
X279499D01*
X275499Y501499D02*
Y509499D01*
X271499Y525499D02*
X279499D01*
X275499Y521499D02*
Y529499D01*
X291499Y505499D02*
X299499D01*
X295499Y501499D02*
Y509499D01*
X291499Y525499D02*
X299499D01*
X295499Y521499D02*
Y529499D01*
X311499Y505499D02*
X319499D01*
X315499Y501499D02*
Y509499D01*
X311499Y525499D02*
X319499D01*
X315499Y521499D02*
Y529499D01*
X331499Y505499D02*
X339499D01*
X335499Y501499D02*
Y509499D01*
X331499Y525499D02*
X339499D01*
X335499Y521499D02*
Y529499D01*
X351499Y505499D02*
X359499D01*
X355499Y501499D02*
Y509499D01*
X351499Y525499D02*
X359499D01*
X355499Y521499D02*
Y529499D01*
X371499Y505499D02*
X379499D01*
X375499Y501499D02*
Y509499D01*
X371499Y525499D02*
X379499D01*
X375499Y521499D02*
Y529499D01*
X391499Y505499D02*
X399499D01*
X395499Y501499D02*
Y509499D01*
X391499Y525499D02*
X399499D01*
X395499Y521499D02*
Y529499D01*
X411499Y505499D02*
X419499D01*
X415499Y501499D02*
Y509499D01*
X411499Y525499D02*
X419499D01*
X415499Y521499D02*
Y529499D01*
X431499Y505499D02*
X439499D01*
X435499Y501499D02*
Y509499D01*
X431499Y525499D02*
X439499D01*
X435499Y521499D02*
Y529499D01*
X451499Y505499D02*
X459499D01*
X455499Y501499D02*
Y509499D01*
X451499Y525499D02*
X459499D01*
X455499Y521499D02*
Y529499D01*
X471499Y505499D02*
X479499D01*
X475499Y501499D02*
Y509499D01*
X471499Y525499D02*
X479499D01*
X475499Y521499D02*
Y529499D01*
X491499Y505499D02*
X499499D01*
X495499Y501499D02*
Y509499D01*
X491499Y525499D02*
X499499D01*
X495499Y521499D02*
Y529499D01*
X759299Y040499D02*
X768299D01*
X763899Y035999D02*
Y044999D01*
X759999Y065899D02*
X767699D01*
X763899Y062099D02*
Y069699D01*
X784699Y040499D02*
X793799D01*
X789299Y035999D02*
Y044999D01*
X784699Y065899D02*
X793799D01*
X789299Y061399D02*
Y070399D01*
X757299Y142299D02*
X765899D01*
X761599Y137899D02*
Y146599D01*
X782699Y142299D02*
X791299D01*
X786999Y137899D02*
Y146599D01*
X608799Y336499D02*
X614599D01*
X611699Y333599D02*
Y339399D01*
X608799Y304499D02*
X614599D01*
X611699Y301599D02*
Y307399D01*
X608799Y282499D02*
X614599D01*
X611699Y279599D02*
Y285399D01*
X608799Y260499D02*
X614599D01*
X611699Y257599D02*
Y263399D01*
X659599Y260499D02*
X665399D01*
X662499Y257599D02*
Y263399D01*
X659599Y282499D02*
X665399D01*
X662499Y279599D02*
Y285399D01*
X659599Y304499D02*
X665399D01*
X662499Y301599D02*
Y307399D01*
X659599Y336499D02*
X665399D01*
X662499Y333599D02*
Y339399D01*
X057999Y400099D02*
X066999D01*
X062499Y395599D02*
Y404599D01*
X057999Y374699D02*
X066999D01*
X062499Y370099D02*
Y379199D01*
X057999Y349199D02*
X066999D01*
X062499Y344699D02*
Y353799D01*
X057999Y323799D02*
X066999D01*
X062499Y319299D02*
Y328299D01*
X811299Y247499D02*
X824199D01*
X817799Y240999D02*
Y253899D01*
X811299Y298299D02*
X824199D01*
X817799Y291799D02*
Y304699D01*
X811299Y399799D02*
X824199D01*
X817799Y393299D02*
Y406299D01*
X811299Y348999D02*
X824199D01*
X817799Y342499D02*
Y355499D01*
X042999Y515499D02*
X067999D01*
X055499Y502999D02*
Y527999D01*
X042999Y200499D02*
X067999D01*
X055499Y187999D02*
Y212999D01*
X812999Y515499D02*
X837999D01*
X8255Y502999D02*
Y527999D01*
X812999Y200499D02*
X837999D01*
X8255Y187999D02*
Y212999D01*
X709699Y041199D02*
X717699D01*
X713699Y037199D02*
Y045299D01*
X684299Y041199D02*
X692299D01*
X688299Y037199D02*
Y045299D01*
X658899Y041199D02*
X666899D01*
X662899Y037199D02*
Y045299D01*
X633499Y041199D02*
X641499D01*
X637499Y037199D02*
Y045299D01*
X608099Y041199D02*
X616099D01*
X612099Y037199D02*
Y045299D01*
X582699Y041199D02*
X590699D01*
X586699Y037199D02*
Y045299D01*
X557299Y041199D02*
X565299D01*
X561299Y037199D02*
Y045299D01*
X531899Y041199D02*
X539899D01*
X535899Y037199D02*
Y045299D01*
X506499Y041199D02*
X514499D01*
X510499Y037199D02*
Y045299D01*
X481099Y041199D02*
X489099D01*
X485099Y037199D02*
Y045299D01*
X455699Y041199D02*
X463699D01*
X459699Y037199D02*
Y045299D01*
X430299Y041199D02*
X438299D01*
X434299Y037199D02*
Y045299D01*
X404899Y041199D02*
X412899D01*
X408899Y037199D02*
Y045299D01*
X379499Y041199D02*
X387499D01*
X383499Y037199D02*
Y045299D01*
X354099Y041199D02*
X362099D01*
X358099Y037199D02*
Y045299D01*
X758499Y510299D02*
X767099D01*
X762799Y505899D02*
Y514599D01*
X783899Y510299D02*
X792499D01*
X788199Y505899D02*
Y514599D01*
X752199Y459699D02*
X761199D01*
X756799Y455299D02*
Y464199D01*
X752199Y434399D02*
X761199D01*
X756799Y429899D02*
Y438799D01*
X752199Y408999D02*
X761199D01*
X756799Y404399D02*
Y413499D01*
X487699Y283999D02*
X490299D01*
X488999Y282699D02*
Y285299D01*
X404699Y283999D02*
X407299D01*
X405999Y282699D02*
Y285299D01*
X610299Y450299D02*
X617199D01*
X613799Y446699D02*
Y453799D01*
X034199Y476199D02*
X041199D01*
X037799Y472799D02*
Y479699D01*
X679299Y183999D02*
X686199D01*
X682799Y180499D02*
Y187499D01*
X664999Y104299D02*
X671999D01*
X668499Y100699D02*
Y107699D01*
X486499Y117499D02*
X493499D01*
X489999Y113999D02*
Y120999D01*
X251699Y227999D02*
X258799D01*
X255199Y224499D02*
Y231499D01*
X184499Y227699D02*
X191499D01*
X187999Y224199D02*
Y231199D01*
X105999Y482999D02*
X112999D01*
X109499Y479499D02*
Y486499D01*
X337199Y393499D02*
X344199D01*
X340799Y389999D02*
Y396999D01*
X337199Y349199D02*
X344199D01*
X340799Y345799D02*
Y352799D01*
X603299Y527199D02*
X610299D01*
X606699Y523799D02*
Y530799D01*
X051999Y243799D02*
X058999D01*
X055499Y240199D02*
Y247299D01*
X279499Y447199D02*
X286499D01*
X282999Y443799D02*
Y450799D01*
X755999Y371999D02*
X762999D01*
X759499Y368499D02*
Y375499D01*
X760299Y296499D02*
X767199D01*
X763799Y292999D02*
Y299999D01*
M02*