M48
;Layer_Color=9474304
;FILE_FORMAT=4:2
METRIC,LZ
;TYPE=PLATED
T4F00S00C0.31
T5F00S00C0.71
T6F00S00C0.90
T7F00S00C1.30
T8F00S00C3.00
%
T04
X001088Y001081
X002847Y002041
X002862Y00279
X004515Y003871
X004633Y003807
X006473Y003729
X006539Y003647
X00651Y003869
X006871Y00353
X007113Y002978
X007373Y002713
X007834Y003256
X007604Y003831
X006475Y002959
X006316Y002734
X006083Y002743
X005962Y00301
X005675Y002836
X005696Y002071
X005194Y002124
X00511Y002174
X008049Y003098
X008327Y003718
X009367Y001117
X009402Y004579
X008353Y004831
X00834Y004274
X008359Y005476
X007793Y004526
X007416Y004822
X007101Y004457
X006503Y004511
X006476Y004388
X006307Y004398
X00606
X00575Y004403
X005504Y004394
X005273Y004396
X005022Y004388
X00479Y004402
X004537Y004391
X004292Y004417
X004023Y004398
X003999Y005577
X004211Y005569
X004393Y005568
X004591
X004812Y005573
X005001Y005579
X005195Y005573
X005406
X005596
X005803Y005571
X005793Y00602
X005596Y006022
X005398
X005195Y006024
X004995Y006026
X004796Y006024
X004593Y006026
X004401Y006024
X004202Y006022
X004004Y006024
X006584Y006197
X006597Y005681
X006399Y003986
X003885Y004442
X003763Y004398
X003524Y004405
X00326Y004398
X00301Y004388
X00275Y004398
X002493Y004377
X002316Y004408
X002401Y005569
X002204Y005575
X002001Y005573
Y006015
X002202Y006019
X0024Y006024
X002597Y006022
X002806Y006024
X002994
X003201Y006026
X003395
X003598
X003797Y006022
X003788Y005573
X003606
X003396Y005566
X003187Y005575
X002986Y005579
X0028
X002603Y005577
X001115Y004331
T05
X009107Y003336
T06
X002006Y003704
X00226
X002514
X002768
X003022
X003276
T07
X006412Y002005
X006912
T08
X0014Y00285
X0091
Y006
X0014
M30
