G04 Layer_Color=32768*
%FSLAX42Y42*%
%MOMM*%
G71*
G01*
G75*
%ADD40C,0.10*%
D40*
X8341Y4853D02*
Y4943D01*
X8296Y4898D02*
X8386D01*
X7909Y5101D02*
X8760D01*
X7909Y4695D02*
X8760D01*
X7909D02*
Y5101D01*
X8760Y4695D02*
Y5101D01*
X9121Y5431D02*
Y5526D01*
X9074Y5478D02*
X9168D01*
X8966Y5406D02*
X9276D01*
X8966Y5551D02*
X9276D01*
Y5406D02*
Y5551D01*
X8966Y5406D02*
Y5551D01*
X8341Y5443D02*
Y5533D01*
X8296Y5488D02*
X8386D01*
X7909Y5691D02*
X8760D01*
X7909Y5285D02*
X8760D01*
X7909D02*
Y5691D01*
X8760Y5285D02*
Y5691D01*
X8341Y4263D02*
Y4353D01*
X8296Y4308D02*
X8386D01*
X7909Y4511D02*
X8760D01*
X7909Y4105D02*
X8760D01*
X7909D02*
Y4511D01*
X8760Y4105D02*
Y4511D01*
X8351Y3663D02*
Y3753D01*
X8306Y3708D02*
X8396D01*
X7919Y3911D02*
X8770D01*
X7919Y3505D02*
X8770D01*
X7919D02*
Y3911D01*
X8770Y3505D02*
Y3911D01*
X9141Y4860D02*
Y4956D01*
X9093Y4908D02*
X9189D01*
X8986Y4835D02*
X9296D01*
X8986Y4981D02*
X9296D01*
Y4835D02*
Y4981D01*
X8986Y4835D02*
Y4981D01*
X9131Y3640D02*
Y3735D01*
X9083Y3688D02*
X9179D01*
X8976Y3615D02*
X9286D01*
X8976Y3760D02*
X9286D01*
Y3615D02*
Y3760D01*
X8976Y3615D02*
Y3760D01*
X8520Y1486D02*
Y1616D01*
X8838Y1486D02*
Y1616D01*
X8520D02*
X8838D01*
X8520Y1486D02*
X8838D01*
X8640Y1551D02*
X8730D01*
X8685Y1506D02*
Y1596D01*
X8517Y3301D02*
Y3391D01*
X8472Y3346D02*
X8562D01*
X8352Y3281D02*
X8669D01*
X8352Y3411D02*
X8669D01*
Y3281D02*
Y3411D01*
X8352Y3281D02*
Y3411D01*
X9105Y2264D02*
Y2358D01*
X9057Y2311D02*
X9153D01*
X8950Y2239D02*
X9260D01*
X8950Y2383D02*
X9260D01*
Y2239D02*
Y2383D01*
X8950Y2239D02*
Y2383D01*
X8695Y2276D02*
Y2366D01*
X8650Y2321D02*
X8740D01*
X8530Y2256D02*
X8847D01*
X8530Y2386D02*
X8847D01*
Y2256D02*
Y2386D01*
X8530Y2256D02*
Y2386D01*
X9141Y4271D02*
Y4365D01*
X9093Y4318D02*
X9189D01*
X8986Y4246D02*
X9296D01*
X8986Y4390D02*
X9296D01*
Y4246D02*
Y4390D01*
X8986Y4246D02*
Y4390D01*
X9105Y2003D02*
Y2098D01*
X9057Y2050D02*
X9153D01*
X8950Y1978D02*
X9260D01*
X8950Y2123D02*
X9260D01*
Y1978D02*
Y2123D01*
X8950Y1978D02*
Y2123D01*
X8695Y2006D02*
Y2096D01*
X8650Y2051D02*
X8740D01*
X8530Y1986D02*
X8847D01*
X8530Y2116D02*
X8847D01*
Y1986D02*
Y2116D01*
X8530Y1986D02*
Y2116D01*
X8887Y3288D02*
Y3383D01*
X8839Y3336D02*
X8935D01*
X8732Y3263D02*
X9042D01*
X8732Y3408D02*
X9042D01*
Y3263D02*
Y3408D01*
X8732Y3263D02*
Y3408D01*
X9105Y1764D02*
Y1858D01*
X9057Y1811D02*
X9153D01*
X8950Y1739D02*
X9260D01*
X8950Y1883D02*
X9260D01*
Y1739D02*
Y1883D01*
X8950Y1739D02*
Y1883D01*
X8685Y1776D02*
Y1866D01*
X8640Y1821D02*
X8730D01*
X8520Y1756D02*
X8838D01*
X8520Y1886D02*
X8838D01*
Y1756D02*
Y1886D01*
X8520Y1756D02*
Y1886D01*
X9107Y1502D02*
Y1598D01*
X9060Y1550D02*
X9154D01*
X8952Y1477D02*
X9262D01*
X8952Y1623D02*
X9262D01*
Y1477D02*
Y1623D01*
X8952Y1477D02*
Y1623D01*
X7233Y1000D02*
Y2542D01*
X6090Y1000D02*
Y2542D01*
X6092Y2550D02*
X7235D01*
X6617Y2390D02*
X6707D01*
X6662Y2345D02*
Y2435D01*
M02*
