G04 Layer_Physical_Order=2*
G04 Layer_Color=16711680*
%FSLAX42Y42*%
%MOMM*%
G71*
G01*
G75*
%ADD14R,1.00X3.00*%
%ADD19C,0.31*%
%ADD20C,0.25*%
%ADD21C,0.70*%
%ADD22C,0.50*%
%ADD23C,5.00*%
%ADD24C,4.00*%
%ADD25C,1.20*%
%ADD26C,0.80*%
%ADD27C,1.50*%
%ADD28R,1.50X1.50*%
%ADD29C,1.30*%
%ADD30C,1.80*%
%ADD31C,0.60*%
%ADD32C,0.51*%
%ADD33C,1.27*%
%ADD34R,0.50X2.00*%
%ADD35C,0.30*%
G36*
X9500Y1000D02*
X1000D01*
Y6400D01*
X1945D01*
X1940Y6399D01*
X1932Y6393D01*
X1926Y6385D01*
X1924Y6375D01*
Y6238D01*
X2076D01*
Y6375D01*
X2074Y6385D01*
X2068Y6393D01*
X2060Y6399D01*
X2055Y6400D01*
X2145D01*
X2140Y6399D01*
X2132Y6393D01*
X2126Y6385D01*
X2124Y6375D01*
Y6075D01*
X2126Y6065D01*
X2132Y6057D01*
X2140Y6051D01*
X2150Y6049D01*
X2161D01*
X2154Y6039D01*
X2150Y6019D01*
X2154Y5999D01*
X2165Y5982D01*
X2182Y5971D01*
X2202Y5967D01*
X2222Y5971D01*
X2239Y5982D01*
X2250Y5999D01*
X2254Y6019D01*
X2250Y6039D01*
X2243Y6049D01*
X2250D01*
X2260Y6051D01*
X2268Y6057D01*
X2274Y6065D01*
X2276Y6075D01*
Y6375D01*
X2274Y6385D01*
X2268Y6393D01*
X2260Y6399D01*
X2255Y6400D01*
X2345D01*
X2340Y6399D01*
X2332Y6393D01*
X2326Y6385D01*
X2324Y6375D01*
Y6075D01*
X2326Y6065D01*
X2332Y6057D01*
X2340Y6051D01*
X2350Y6049D01*
X2356D01*
X2352Y6044D01*
X2348Y6024D01*
X2352Y6004D01*
X2363Y5987D01*
X2380Y5976D01*
X2400Y5972D01*
X2420Y5976D01*
X2437Y5987D01*
X2448Y6004D01*
X2452Y6024D01*
X2448Y6044D01*
X2444Y6049D01*
X2450D01*
X2460Y6051D01*
X2468Y6057D01*
X2474Y6065D01*
X2476Y6075D01*
Y6375D01*
X2474Y6385D01*
X2468Y6393D01*
X2460Y6399D01*
X2455Y6400D01*
X2545D01*
X2540Y6399D01*
X2532Y6393D01*
X2526Y6385D01*
X2524Y6375D01*
Y6075D01*
X2526Y6065D01*
X2532Y6057D01*
X2540Y6051D01*
X2550Y6049D01*
X2554D01*
X2549Y6042D01*
X2545Y6022D01*
X2549Y6002D01*
X2560Y5985D01*
X2577Y5974D01*
X2597Y5970D01*
X2617Y5974D01*
X2634Y5985D01*
X2645Y6002D01*
X2649Y6022D01*
X2645Y6042D01*
X2640Y6049D01*
X2650D01*
X2660Y6051D01*
X2668Y6057D01*
X2674Y6065D01*
X2676Y6075D01*
Y6375D01*
X2674Y6385D01*
X2668Y6393D01*
X2660Y6399D01*
X2655Y6400D01*
X2745D01*
X2740Y6399D01*
X2732Y6393D01*
X2726Y6385D01*
X2724Y6375D01*
Y6075D01*
X2726Y6065D01*
X2732Y6057D01*
X2740Y6051D01*
X2750Y6049D01*
X2762D01*
X2758Y6044D01*
X2754Y6024D01*
X2758Y6004D01*
X2769Y5987D01*
X2786Y5976D01*
X2806Y5972D01*
X2826Y5976D01*
X2843Y5987D01*
X2854Y6004D01*
X2858Y6024D01*
X2854Y6044D01*
X2850Y6049D01*
X2860Y6051D01*
X2868Y6057D01*
X2874Y6065D01*
X2876Y6075D01*
Y6375D01*
X2874Y6385D01*
X2868Y6393D01*
X2860Y6399D01*
X2855Y6400D01*
X2945D01*
X2940Y6399D01*
X2932Y6393D01*
X2926Y6385D01*
X2924Y6375D01*
Y6075D01*
X2926Y6065D01*
X2932Y6057D01*
X2940Y6051D01*
X2950Y6049D01*
X2946Y6044D01*
X2942Y6024D01*
X2946Y6004D01*
X2957Y5987D01*
X2974Y5976D01*
X2994Y5972D01*
X3014Y5976D01*
X3031Y5987D01*
X3042Y6004D01*
X3046Y6024D01*
X3042Y6044D01*
X3038Y6049D01*
X3050D01*
X3060Y6051D01*
X3068Y6057D01*
X3074Y6065D01*
X3076Y6075D01*
Y6375D01*
X3074Y6385D01*
X3068Y6393D01*
X3060Y6399D01*
X3055Y6400D01*
X3145D01*
X3140Y6399D01*
X3132Y6393D01*
X3126Y6385D01*
X3124Y6375D01*
Y6075D01*
X3126Y6065D01*
X3132Y6057D01*
X3140Y6051D01*
X3150Y6049D01*
X3155D01*
X3153Y6046D01*
X3149Y6026D01*
X3153Y6006D01*
X3164Y5989D01*
X3181Y5978D01*
X3201Y5974D01*
X3221Y5978D01*
X3238Y5989D01*
X3249Y6006D01*
X3253Y6026D01*
X3249Y6046D01*
X3247Y6049D01*
X3250D01*
X3260Y6051D01*
X3268Y6057D01*
X3274Y6065D01*
X3276Y6075D01*
Y6375D01*
X3274Y6385D01*
X3268Y6393D01*
X3260Y6399D01*
X3255Y6400D01*
X3345D01*
X3340Y6399D01*
X3332Y6393D01*
X3326Y6385D01*
X3324Y6375D01*
Y6075D01*
X3326Y6065D01*
X3332Y6057D01*
X3340Y6051D01*
X3349Y6049D01*
X3347Y6046D01*
X3343Y6026D01*
X3347Y6006D01*
X3358Y5989D01*
X3375Y5978D01*
X3395Y5974D01*
X3415Y5978D01*
X3432Y5989D01*
X3443Y6006D01*
X3447Y6026D01*
X3443Y6046D01*
X3441Y6049D01*
X3450D01*
X3460Y6051D01*
X3468Y6057D01*
X3474Y6065D01*
X3476Y6075D01*
Y6375D01*
X3474Y6385D01*
X3468Y6393D01*
X3460Y6399D01*
X3455Y6400D01*
X3545D01*
X3540Y6399D01*
X3532Y6393D01*
X3526Y6385D01*
X3524Y6375D01*
Y6075D01*
X3526Y6065D01*
X3532Y6057D01*
X3540Y6051D01*
X3550Y6049D01*
X3552D01*
X3550Y6046D01*
X3546Y6026D01*
X3550Y6006D01*
X3561Y5989D01*
X3578Y5978D01*
X3598Y5974D01*
X3618Y5978D01*
X3635Y5989D01*
X3646Y6006D01*
X3650Y6026D01*
X3646Y6046D01*
X3644Y6049D01*
X3650D01*
X3660Y6051D01*
X3668Y6057D01*
X3674Y6065D01*
X3676Y6075D01*
Y6375D01*
X3674Y6385D01*
X3668Y6393D01*
X3660Y6399D01*
X3655Y6400D01*
X3745D01*
X3740Y6399D01*
X3732Y6393D01*
X3726Y6385D01*
X3724Y6375D01*
Y6075D01*
X3726Y6065D01*
X3732Y6057D01*
X3740Y6051D01*
X3750Y6049D01*
X3754D01*
X3749Y6042D01*
X3745Y6022D01*
X3749Y6002D01*
X3760Y5985D01*
X3777Y5974D01*
X3797Y5970D01*
X3817Y5974D01*
X3834Y5985D01*
X3845Y6002D01*
X3849Y6022D01*
X3845Y6042D01*
X3840Y6049D01*
X3850D01*
X3860Y6051D01*
X3868Y6057D01*
X3874Y6065D01*
X3876Y6075D01*
Y6375D01*
X3874Y6385D01*
X3868Y6393D01*
X3860Y6399D01*
X3855Y6400D01*
X3945D01*
X3940Y6399D01*
X3932Y6393D01*
X3926Y6385D01*
X3924Y6375D01*
Y6075D01*
X3926Y6065D01*
X3932Y6057D01*
X3940Y6051D01*
X3950Y6049D01*
X3960D01*
X3956Y6044D01*
X3952Y6024D01*
X3956Y6004D01*
X3967Y5987D01*
X3984Y5976D01*
X4004Y5972D01*
X4024Y5976D01*
X4041Y5987D01*
X4052Y6004D01*
X4056Y6024D01*
X4052Y6044D01*
X4048Y6049D01*
X4050D01*
X4060Y6051D01*
X4068Y6057D01*
X4074Y6065D01*
X4076Y6075D01*
Y6375D01*
X4074Y6385D01*
X4068Y6393D01*
X4060Y6399D01*
X4055Y6400D01*
X4145D01*
X4140Y6399D01*
X4132Y6393D01*
X4126Y6385D01*
X4124Y6375D01*
Y6075D01*
X4126Y6065D01*
X4132Y6057D01*
X4140Y6051D01*
X4150Y6049D01*
X4159D01*
X4154Y6042D01*
X4150Y6022D01*
X4154Y6002D01*
X4165Y5985D01*
X4182Y5974D01*
X4202Y5970D01*
X4222Y5974D01*
X4239Y5985D01*
X4250Y6002D01*
X4254Y6022D01*
X4250Y6042D01*
X4245Y6049D01*
X4250D01*
X4260Y6051D01*
X4268Y6057D01*
X4274Y6065D01*
X4276Y6075D01*
Y6375D01*
X4274Y6385D01*
X4268Y6393D01*
X4260Y6399D01*
X4255Y6400D01*
X4345D01*
X4340Y6399D01*
X4332Y6393D01*
X4326Y6385D01*
X4324Y6375D01*
Y6075D01*
X4326Y6065D01*
X4332Y6057D01*
X4340Y6051D01*
X4350Y6049D01*
X4357D01*
X4353Y6044D01*
X4349Y6024D01*
X4353Y6004D01*
X4364Y5987D01*
X4381Y5976D01*
X4401Y5972D01*
X4421Y5976D01*
X4438Y5987D01*
X4449Y6004D01*
X4453Y6024D01*
X4449Y6044D01*
X4445Y6049D01*
X4450D01*
X4460Y6051D01*
X4468Y6057D01*
X4474Y6065D01*
X4476Y6075D01*
Y6375D01*
X4474Y6385D01*
X4468Y6393D01*
X4460Y6399D01*
X4455Y6400D01*
X4545D01*
X4540Y6399D01*
X4532Y6393D01*
X4526Y6385D01*
X4524Y6375D01*
Y6075D01*
X4526Y6065D01*
X4532Y6057D01*
X4540Y6051D01*
X4548Y6050D01*
X4545Y6046D01*
X4541Y6026D01*
X4545Y6006D01*
X4556Y5989D01*
X4573Y5978D01*
X4593Y5974D01*
X4613Y5978D01*
X4630Y5989D01*
X4641Y6006D01*
X4645Y6026D01*
X4641Y6046D01*
X4639Y6049D01*
X4650D01*
X4660Y6051D01*
X4668Y6057D01*
X4674Y6065D01*
X4676Y6075D01*
Y6375D01*
X4674Y6385D01*
X4668Y6393D01*
X4660Y6399D01*
X4655Y6400D01*
X4745D01*
X4740Y6399D01*
X4732Y6393D01*
X4726Y6385D01*
X4724Y6375D01*
Y6075D01*
X4726Y6065D01*
X4732Y6057D01*
X4740Y6051D01*
X4750Y6049D01*
X4752D01*
X4748Y6044D01*
X4744Y6024D01*
X4748Y6004D01*
X4759Y5987D01*
X4776Y5976D01*
X4796Y5972D01*
X4816Y5976D01*
X4833Y5987D01*
X4844Y6004D01*
X4848Y6024D01*
X4844Y6044D01*
X4840Y6049D01*
X4850D01*
X4860Y6051D01*
X4868Y6057D01*
X4874Y6065D01*
X4876Y6075D01*
Y6375D01*
X4874Y6385D01*
X4868Y6393D01*
X4860Y6399D01*
X4855Y6400D01*
X4945D01*
X4940Y6399D01*
X4932Y6393D01*
X4926Y6385D01*
X4924Y6375D01*
Y6075D01*
X4926Y6065D01*
X4932Y6057D01*
X4940Y6051D01*
X4949Y6049D01*
X4947Y6046D01*
X4943Y6026D01*
X4947Y6006D01*
X4958Y5989D01*
X4975Y5978D01*
X4995Y5974D01*
X5015Y5978D01*
X5032Y5989D01*
X5043Y6006D01*
X5047Y6026D01*
X5043Y6046D01*
X5041Y6049D01*
X5050D01*
X5060Y6051D01*
X5068Y6057D01*
X5074Y6065D01*
X5076Y6075D01*
Y6375D01*
X5074Y6385D01*
X5068Y6393D01*
X5060Y6399D01*
X5055Y6400D01*
X5145D01*
X5140Y6399D01*
X5132Y6393D01*
X5126Y6385D01*
X5124Y6375D01*
Y6075D01*
X5126Y6065D01*
X5132Y6057D01*
X5140Y6051D01*
X5150Y6049D01*
X5151D01*
X5147Y6044D01*
X5143Y6024D01*
X5147Y6004D01*
X5158Y5987D01*
X5175Y5976D01*
X5195Y5972D01*
X5215Y5976D01*
X5232Y5987D01*
X5243Y6004D01*
X5247Y6024D01*
X5243Y6044D01*
X5239Y6049D01*
X5250D01*
X5260Y6051D01*
X5268Y6057D01*
X5274Y6065D01*
X5276Y6075D01*
Y6375D01*
X5274Y6385D01*
X5268Y6393D01*
X5260Y6399D01*
X5255Y6400D01*
X5345D01*
X5340Y6399D01*
X5332Y6393D01*
X5326Y6385D01*
X5324Y6375D01*
Y6075D01*
X5326Y6065D01*
X5332Y6057D01*
X5340Y6051D01*
X5350Y6049D01*
X5355D01*
X5350Y6042D01*
X5346Y6022D01*
X5350Y6002D01*
X5361Y5985D01*
X5378Y5974D01*
X5398Y5970D01*
X5418Y5974D01*
X5435Y5985D01*
X5446Y6002D01*
X5450Y6022D01*
X5446Y6042D01*
X5441Y6049D01*
X5450D01*
X5460Y6051D01*
X5468Y6057D01*
X5474Y6065D01*
X5476Y6075D01*
Y6375D01*
X5474Y6385D01*
X5468Y6393D01*
X5460Y6399D01*
X5455Y6400D01*
X5545D01*
X5540Y6399D01*
X5532Y6393D01*
X5526Y6385D01*
X5524Y6375D01*
Y6075D01*
X5526Y6065D01*
X5532Y6057D01*
X5540Y6051D01*
X5550Y6049D01*
X5553D01*
X5548Y6042D01*
X5544Y6022D01*
X5548Y6002D01*
X5559Y5985D01*
X5576Y5974D01*
X5596Y5970D01*
X5616Y5974D01*
X5633Y5985D01*
X5644Y6002D01*
X5648Y6022D01*
X5644Y6042D01*
X5639Y6049D01*
X5650D01*
X5660Y6051D01*
X5668Y6057D01*
X5674Y6065D01*
X5676Y6075D01*
Y6375D01*
X5674Y6385D01*
X5668Y6393D01*
X5660Y6399D01*
X5655Y6400D01*
X5745D01*
X5740Y6399D01*
X5732Y6393D01*
X5726Y6385D01*
X5724Y6375D01*
Y6238D01*
X5876D01*
Y6375D01*
X5874Y6385D01*
X5868Y6393D01*
X5860Y6399D01*
X5855Y6400D01*
X9500D01*
Y1000D01*
D02*
G37*
%LPC*%
G36*
X7100Y2965D02*
X7059D01*
X7061Y2956D01*
X7073Y2938D01*
X7091Y2926D01*
X7100Y2924D01*
Y2965D01*
D02*
G37*
G36*
X7167D02*
X7126D01*
Y2924D01*
X7135Y2926D01*
X7153Y2938D01*
X7165Y2956D01*
X7167Y2965D01*
D02*
G37*
G36*
X5949Y2997D02*
X5908D01*
X5910Y2988D01*
X5922Y2970D01*
X5940Y2958D01*
X5949Y2956D01*
Y2997D01*
D02*
G37*
G36*
X5460Y2891D02*
X5410D01*
X5400Y2889D01*
X5395Y2886D01*
X5390Y2889D01*
X5380Y2891D01*
X5368D01*
Y2765D01*
Y2639D01*
X5380D01*
X5390Y2641D01*
X5395Y2644D01*
X5400Y2641D01*
X5410Y2639D01*
X5460D01*
X5470Y2641D01*
X5478Y2647D01*
X5484Y2655D01*
X5486Y2665D01*
Y2865D01*
X5484Y2875D01*
X5478Y2883D01*
X5470Y2889D01*
X5460Y2891D01*
D02*
G37*
G36*
X6462Y2946D02*
X6421D01*
X6423Y2937D01*
X6435Y2919D01*
X6453Y2907D01*
X6462Y2905D01*
Y2946D01*
D02*
G37*
G36*
X6529D02*
X6488D01*
Y2905D01*
X6497Y2907D01*
X6515Y2919D01*
X6527Y2937D01*
X6529Y2946D01*
D02*
G37*
G36*
X7100Y3032D02*
X7091Y3030D01*
X7073Y3018D01*
X7061Y3000D01*
X7059Y2991D01*
X7100D01*
Y3032D01*
D02*
G37*
G36*
X7126D02*
Y2991D01*
X7167D01*
X7165Y3000D01*
X7153Y3018D01*
X7135Y3030D01*
X7126Y3032D01*
D02*
G37*
G36*
X5949Y3064D02*
X5940Y3062D01*
X5922Y3050D01*
X5910Y3032D01*
X5908Y3023D01*
X5949D01*
Y3064D01*
D02*
G37*
G36*
X6016Y2997D02*
X5975D01*
Y2956D01*
X5984Y2958D01*
X6002Y2970D01*
X6014Y2988D01*
X6016Y2997D01*
D02*
G37*
G36*
X6462Y3013D02*
X6453Y3011D01*
X6435Y2999D01*
X6423Y2981D01*
X6421Y2972D01*
X6462D01*
Y3013D01*
D02*
G37*
G36*
X6488D02*
Y2972D01*
X6529D01*
X6527Y2981D01*
X6515Y2999D01*
X6497Y3011D01*
X6488Y3013D01*
D02*
G37*
G36*
X9113Y3125D02*
Y2863D01*
X9375D01*
X9373Y2893D01*
X9363Y2935D01*
X9346Y2975D01*
X9323Y3012D01*
X9295Y3045D01*
X9262Y3073D01*
X9225Y3096D01*
X9185Y3113D01*
X9143Y3123D01*
X9113Y3125D01*
D02*
G37*
G36*
X3502Y2891D02*
X3490D01*
X3480Y2889D01*
X3475Y2886D01*
X3470Y2889D01*
X3460Y2891D01*
X3410D01*
X3400Y2889D01*
X3395Y2886D01*
X3390Y2889D01*
X3380Y2891D01*
X3330D01*
X3320Y2889D01*
X3315Y2886D01*
X3310Y2889D01*
X3300Y2891D01*
X3288D01*
Y2765D01*
Y2639D01*
X3300D01*
X3310Y2641D01*
X3315Y2644D01*
X3320Y2641D01*
X3330Y2639D01*
X3380D01*
X3390Y2641D01*
X3395Y2644D01*
X3400Y2641D01*
X3410Y2639D01*
X3460D01*
X3470Y2641D01*
X3475Y2644D01*
X3480Y2641D01*
X3490Y2639D01*
X3502D01*
Y2765D01*
Y2891D01*
D02*
G37*
G36*
X3982D02*
X3970D01*
X3960Y2889D01*
X3955Y2886D01*
X3950Y2889D01*
X3940Y2891D01*
X3890D01*
X3880Y2889D01*
X3875Y2886D01*
X3870Y2889D01*
X3860Y2891D01*
X3810D01*
X3800Y2889D01*
X3795Y2886D01*
X3790Y2889D01*
X3780Y2891D01*
X3768D01*
Y2765D01*
Y2639D01*
X3780D01*
X3790Y2641D01*
X3795Y2644D01*
X3800Y2641D01*
X3810Y2639D01*
X3860D01*
X3870Y2641D01*
X3875Y2644D01*
X3880Y2641D01*
X3890Y2639D01*
X3940D01*
X3950Y2641D01*
X3955Y2644D01*
X3960Y2641D01*
X3970Y2639D01*
X3982D01*
Y2765D01*
Y2891D01*
D02*
G37*
G36*
X1387Y3125D02*
X1357Y3123D01*
X1315Y3113D01*
X1275Y3096D01*
X1238Y3073D01*
X1205Y3045D01*
X1177Y3012D01*
X1154Y2975D01*
X1137Y2935D01*
X1127Y2893D01*
X1125Y2863D01*
X1387D01*
Y3125D01*
D02*
G37*
G36*
X1413D02*
Y2863D01*
X1675D01*
X1673Y2893D01*
X1663Y2935D01*
X1646Y2975D01*
X1623Y3012D01*
X1595Y3045D01*
X1562Y3073D01*
X1525Y3096D01*
X1485Y3113D01*
X1443Y3123D01*
X1413Y3125D01*
D02*
G37*
G36*
X9087D02*
X9057Y3123D01*
X9015Y3113D01*
X8975Y3096D01*
X8938Y3073D01*
X8905Y3045D01*
X8877Y3012D01*
X8854Y2975D01*
X8837Y2935D01*
X8827Y2893D01*
X8825Y2863D01*
X9087D01*
Y3125D01*
D02*
G37*
G36*
X5102Y2891D02*
X5090D01*
X5080Y2889D01*
X5075Y2886D01*
X5070Y2889D01*
X5060Y2891D01*
X5010D01*
X5000Y2889D01*
X4995Y2886D01*
X4990Y2889D01*
X4980Y2891D01*
X4930D01*
X4920Y2889D01*
X4915Y2886D01*
X4910Y2889D01*
X4900Y2891D01*
X4888D01*
Y2765D01*
Y2639D01*
X4900D01*
X4910Y2641D01*
X4915Y2644D01*
X4920Y2641D01*
X4930Y2639D01*
X4980D01*
X4990Y2641D01*
X4995Y2644D01*
X5000Y2641D01*
X5010Y2639D01*
X5060D01*
X5070Y2641D01*
X5075Y2644D01*
X5080Y2641D01*
X5090Y2639D01*
X5102D01*
Y2765D01*
Y2891D01*
D02*
G37*
G36*
X5342D02*
X5330D01*
X5320Y2889D01*
X5315Y2886D01*
X5310Y2889D01*
X5300Y2891D01*
X5250D01*
X5240Y2889D01*
X5235Y2886D01*
X5230Y2889D01*
X5220Y2891D01*
X5170D01*
X5160Y2889D01*
X5155Y2886D01*
X5150Y2889D01*
X5140Y2891D01*
X5128D01*
Y2765D01*
Y2639D01*
X5140D01*
X5150Y2641D01*
X5155Y2644D01*
X5160Y2641D01*
X5170Y2639D01*
X5220D01*
X5230Y2641D01*
X5235Y2644D01*
X5240Y2641D01*
X5250Y2639D01*
X5300D01*
X5310Y2641D01*
X5315Y2644D01*
X5320Y2641D01*
X5330Y2639D01*
X5342D01*
Y2765D01*
Y2891D01*
D02*
G37*
G36*
X3262D02*
X3250D01*
X3240Y2889D01*
X3235Y2886D01*
X3230Y2889D01*
X3220Y2891D01*
X3170D01*
X3160Y2889D01*
X3155Y2886D01*
X3150Y2889D01*
X3140Y2891D01*
X3090D01*
X3080Y2889D01*
X3072Y2883D01*
X3066Y2875D01*
X3064Y2865D01*
Y2665D01*
X3066Y2655D01*
X3072Y2647D01*
X3080Y2641D01*
X3090Y2639D01*
X3140D01*
X3150Y2641D01*
X3155Y2644D01*
X3160Y2641D01*
X3170Y2639D01*
X3220D01*
X3230Y2641D01*
X3235Y2644D01*
X3240Y2641D01*
X3250Y2639D01*
X3262D01*
Y2765D01*
Y2891D01*
D02*
G37*
G36*
X3742D02*
X3730D01*
X3720Y2889D01*
X3715Y2886D01*
X3710Y2889D01*
X3700Y2891D01*
X3650D01*
X3640Y2889D01*
X3635Y2886D01*
X3630Y2889D01*
X3620Y2891D01*
X3570D01*
X3560Y2889D01*
X3555Y2886D01*
X3550Y2889D01*
X3540Y2891D01*
X3528D01*
Y2765D01*
Y2639D01*
X3540D01*
X3550Y2641D01*
X3555Y2644D01*
X3560Y2641D01*
X3570Y2639D01*
X3620D01*
X3630Y2641D01*
X3635Y2644D01*
X3640Y2641D01*
X3650Y2639D01*
X3700D01*
X3710Y2641D01*
X3715Y2644D01*
X3720Y2641D01*
X3730Y2639D01*
X3742D01*
Y2765D01*
Y2891D01*
D02*
G37*
G36*
X4222D02*
X4210D01*
X4200Y2889D01*
X4195Y2886D01*
X4190Y2889D01*
X4180Y2891D01*
X4130D01*
X4120Y2889D01*
X4115Y2886D01*
X4110Y2889D01*
X4100Y2891D01*
X4050D01*
X4040Y2889D01*
X4035Y2886D01*
X4030Y2889D01*
X4020Y2891D01*
X4008D01*
Y2765D01*
Y2639D01*
X4020D01*
X4030Y2641D01*
X4035Y2644D01*
X4040Y2641D01*
X4050Y2639D01*
X4100D01*
X4110Y2641D01*
X4115Y2644D01*
X4120Y2641D01*
X4130Y2639D01*
X4180D01*
X4190Y2641D01*
X4195Y2644D01*
X4200Y2641D01*
X4210Y2639D01*
X4222D01*
Y2765D01*
Y2891D01*
D02*
G37*
G36*
X4862D02*
X4850D01*
X4840Y2889D01*
X4835Y2886D01*
X4830Y2889D01*
X4820Y2891D01*
X4770D01*
X4760Y2889D01*
X4755Y2886D01*
X4750Y2889D01*
X4740Y2891D01*
X4690D01*
X4680Y2889D01*
X4675Y2886D01*
X4670Y2889D01*
X4660Y2891D01*
X4648D01*
Y2765D01*
Y2639D01*
X4660D01*
X4670Y2641D01*
X4675Y2644D01*
X4680Y2641D01*
X4690Y2639D01*
X4740D01*
X4750Y2641D01*
X4755Y2644D01*
X4760Y2641D01*
X4770Y2639D01*
X4820D01*
X4830Y2641D01*
X4835Y2644D01*
X4840Y2641D01*
X4850Y2639D01*
X4862D01*
Y2765D01*
Y2891D01*
D02*
G37*
G36*
X2106Y3691D02*
X2019D01*
Y3604D01*
X2032Y3606D01*
X2057Y3616D01*
X2078Y3632D01*
X2094Y3653D01*
X2104Y3678D01*
X2106Y3691D01*
D02*
G37*
G36*
X8314Y3705D02*
X8273D01*
X8275Y3696D01*
X8287Y3678D01*
X8305Y3666D01*
X8314Y3664D01*
Y3705D01*
D02*
G37*
G36*
X8381D02*
X8340D01*
Y3664D01*
X8349Y3666D01*
X8367Y3678D01*
X8379Y3696D01*
X8381Y3705D01*
D02*
G37*
G36*
X6858Y3584D02*
X6849Y3582D01*
X6831Y3570D01*
X6819Y3552D01*
X6817Y3543D01*
X6858D01*
Y3584D01*
D02*
G37*
G36*
X6884D02*
Y3543D01*
X6925D01*
X6923Y3552D01*
X6911Y3570D01*
X6893Y3582D01*
X6884Y3584D01*
D02*
G37*
G36*
X1993Y3691D02*
X1906D01*
X1908Y3678D01*
X1918Y3653D01*
X1934Y3632D01*
X1955Y3616D01*
X1980Y3606D01*
X1993Y3604D01*
Y3691D01*
D02*
G37*
G36*
X8340Y3772D02*
Y3731D01*
X8381D01*
X8379Y3740D01*
X8367Y3758D01*
X8349Y3770D01*
X8340Y3772D01*
D02*
G37*
G36*
X4620Y3794D02*
X4579D01*
X4581Y3785D01*
X4593Y3767D01*
X4611Y3755D01*
X4620Y3753D01*
Y3794D01*
D02*
G37*
G36*
X4687D02*
X4646D01*
Y3753D01*
X4655Y3755D01*
X4673Y3767D01*
X4685Y3785D01*
X4687Y3794D01*
D02*
G37*
G36*
X1993Y3804D02*
X1980Y3802D01*
X1955Y3792D01*
X1934Y3776D01*
X1918Y3755D01*
X1908Y3730D01*
X1906Y3717D01*
X1993D01*
Y3804D01*
D02*
G37*
G36*
X2019D02*
Y3717D01*
X2106D01*
X2104Y3730D01*
X2094Y3755D01*
X2078Y3776D01*
X2057Y3792D01*
X2032Y3802D01*
X2019Y3804D01*
D02*
G37*
G36*
X8314Y3772D02*
X8305Y3770D01*
X8287Y3758D01*
X8275Y3740D01*
X8273Y3731D01*
X8314D01*
Y3772D01*
D02*
G37*
G36*
X8036Y3152D02*
X8027Y3150D01*
X8009Y3138D01*
X7997Y3120D01*
X7995Y3111D01*
X8036D01*
Y3152D01*
D02*
G37*
G36*
X8062D02*
Y3111D01*
X8103D01*
X8101Y3120D01*
X8089Y3138D01*
X8071Y3150D01*
X8062Y3152D01*
D02*
G37*
G36*
X3022Y3805D02*
X2996Y3802D01*
X2971Y3792D01*
X2950Y3776D01*
X2934Y3755D01*
X2924Y3730D01*
X2921Y3704D01*
X2924Y3678D01*
X2934Y3653D01*
X2950Y3632D01*
X2971Y3616D01*
X2994Y3607D01*
X3379Y3222D01*
X3392Y3213D01*
X3408Y3210D01*
X4198D01*
X4253Y3155D01*
X3375D01*
X2862Y3668D01*
X2866Y3678D01*
X2869Y3704D01*
X2866Y3730D01*
X2856Y3755D01*
X2840Y3776D01*
X2819Y3792D01*
X2794Y3802D01*
X2768Y3805D01*
X2742Y3802D01*
X2717Y3792D01*
X2696Y3776D01*
X2680Y3755D01*
X2670Y3730D01*
X2667Y3704D01*
X2670Y3678D01*
X2680Y3653D01*
X2696Y3632D01*
X2717Y3616D01*
X2742Y3606D01*
X2768Y3603D01*
X2794Y3606D01*
X2804Y3610D01*
X3329Y3085D01*
X3342Y3076D01*
X3344Y3076D01*
X3201D01*
X2608Y3668D01*
X2612Y3678D01*
X2615Y3704D01*
X2612Y3730D01*
X2602Y3755D01*
X2586Y3776D01*
X2565Y3792D01*
X2540Y3802D01*
X2514Y3805D01*
X2488Y3802D01*
X2463Y3792D01*
X2442Y3776D01*
X2426Y3755D01*
X2416Y3730D01*
X2413Y3704D01*
X2416Y3678D01*
X2426Y3653D01*
X2442Y3632D01*
X2463Y3616D01*
X2488Y3606D01*
X2514Y3603D01*
X2540Y3606D01*
X2550Y3610D01*
X3140Y3020D01*
X3002D01*
X2354Y3668D01*
X2358Y3678D01*
X2361Y3704D01*
X2358Y3730D01*
X2348Y3755D01*
X2332Y3776D01*
X2311Y3792D01*
X2286Y3802D01*
X2260Y3805D01*
X2234Y3802D01*
X2209Y3792D01*
X2188Y3776D01*
X2172Y3755D01*
X2162Y3730D01*
X2159Y3704D01*
X2162Y3678D01*
X2172Y3653D01*
X2188Y3632D01*
X2209Y3616D01*
X2234Y3606D01*
X2260Y3603D01*
X2286Y3606D01*
X2296Y3610D01*
X2956Y2950D01*
X2969Y2941D01*
X2985Y2938D01*
X4210D01*
X4257Y2891D01*
X4248D01*
Y2765D01*
Y2639D01*
X4260D01*
X4270Y2641D01*
X4275Y2644D01*
X4280Y2641D01*
X4290Y2639D01*
X4340D01*
X4350Y2641D01*
X4355Y2644D01*
X4360Y2641D01*
X4370Y2639D01*
X4420D01*
X4430Y2641D01*
X4435Y2644D01*
X4440Y2641D01*
X4450Y2639D01*
X4500D01*
X4510Y2641D01*
X4515Y2644D01*
X4520Y2641D01*
X4530Y2639D01*
X4580D01*
X4590Y2641D01*
X4595Y2644D01*
X4600Y2641D01*
X4610Y2639D01*
X4622D01*
Y2765D01*
Y2891D01*
X4610D01*
X4600Y2889D01*
X4596Y2886D01*
Y2911D01*
X4593Y2927D01*
X4584Y2940D01*
X4244Y3280D01*
X4231Y3289D01*
X4215Y3292D01*
X3425D01*
X3089Y3629D01*
X3094Y3632D01*
X3110Y3653D01*
X3120Y3678D01*
X3123Y3704D01*
X3120Y3730D01*
X3110Y3755D01*
X3094Y3776D01*
X3073Y3792D01*
X3048Y3802D01*
X3022Y3805D01*
D02*
G37*
G36*
X5975Y3064D02*
Y3023D01*
X6016D01*
X6014Y3032D01*
X6002Y3050D01*
X5984Y3062D01*
X5975Y3064D01*
D02*
G37*
G36*
X8036Y3085D02*
X7995D01*
X7997Y3076D01*
X8009Y3058D01*
X8027Y3046D01*
X8036Y3044D01*
Y3085D01*
D02*
G37*
G36*
X8103D02*
X8062D01*
Y3044D01*
X8071Y3046D01*
X8089Y3058D01*
X8101Y3076D01*
X8103Y3085D01*
D02*
G37*
G36*
X7847Y3310D02*
Y3269D01*
X7888D01*
X7886Y3278D01*
X7874Y3296D01*
X7856Y3308D01*
X7847Y3310D01*
D02*
G37*
G36*
X6858Y3517D02*
X6817D01*
X6819Y3508D01*
X6831Y3490D01*
X6849Y3478D01*
X6858Y3476D01*
Y3517D01*
D02*
G37*
G36*
X6925D02*
X6884D01*
Y3476D01*
X6893Y3478D01*
X6911Y3490D01*
X6923Y3508D01*
X6925Y3517D01*
D02*
G37*
G36*
X7821Y3243D02*
X7780D01*
X7782Y3234D01*
X7794Y3216D01*
X7812Y3204D01*
X7821Y3202D01*
Y3243D01*
D02*
G37*
G36*
X7888D02*
X7847D01*
Y3202D01*
X7856Y3204D01*
X7874Y3216D01*
X7886Y3234D01*
X7888Y3243D01*
D02*
G37*
G36*
X7821Y3310D02*
X7812Y3308D01*
X7794Y3296D01*
X7782Y3278D01*
X7780Y3269D01*
X7821D01*
Y3310D01*
D02*
G37*
G36*
X5688Y2890D02*
Y2849D01*
X5729D01*
X5727Y2858D01*
X5715Y2876D01*
X5697Y2888D01*
X5688Y2890D01*
D02*
G37*
G36*
X5709Y2125D02*
Y2084D01*
X5750D01*
X5748Y2093D01*
X5736Y2111D01*
X5718Y2123D01*
X5709Y2125D01*
D02*
G37*
G36*
X6412Y2096D02*
X6410Y2096D01*
X6409Y2096D01*
X6392Y2094D01*
X6389Y2093D01*
X6388Y2093D01*
X6388Y2093D01*
X6385Y2092D01*
X6369Y2086D01*
X6367Y2084D01*
X6366Y2084D01*
X6366Y2083D01*
X6363Y2082D01*
X6350Y2072D01*
X6348Y2070D01*
X6348Y2069D01*
X6347Y2069D01*
X6345Y2067D01*
X6335Y2054D01*
X6334Y2051D01*
X6333Y2051D01*
X6333Y2050D01*
X6331Y2048D01*
X6325Y2032D01*
X6324Y2029D01*
X6324Y2029D01*
X6324Y2028D01*
X6323Y2025D01*
X6321Y2008D01*
X6321Y2006D01*
X6321Y2005D01*
X6321Y2004D01*
X6321Y2002D01*
X6323Y1985D01*
X6324Y1982D01*
X6324Y1981D01*
X6324Y1981D01*
X6325Y1978D01*
X6331Y1962D01*
X6333Y1960D01*
X6333Y1959D01*
X6334Y1959D01*
X6335Y1956D01*
X6345Y1943D01*
X6347Y1941D01*
X6348Y1941D01*
X6348Y1940D01*
X6350Y1938D01*
X6363Y1928D01*
X6366Y1927D01*
X6366Y1926D01*
X6367Y1926D01*
X6369Y1924D01*
X6385Y1918D01*
X6388Y1917D01*
X6388Y1917D01*
X6389Y1917D01*
X6392Y1916D01*
X6409Y1914D01*
X6410Y1914D01*
X6412Y1914D01*
X6414Y1914D01*
X6415Y1914D01*
X6432Y1916D01*
X6435Y1917D01*
X6436Y1917D01*
X6436Y1917D01*
X6439Y1918D01*
X6455Y1924D01*
X6457Y1926D01*
X6458Y1926D01*
X6458Y1927D01*
X6461Y1928D01*
X6474Y1938D01*
X6476Y1940D01*
X6476Y1941D01*
X6477Y1941D01*
X6479Y1943D01*
X6489Y1956D01*
X6490Y1959D01*
X6491Y1959D01*
X6491Y1960D01*
X6493Y1962D01*
X6499Y1978D01*
X6500Y1981D01*
X6500Y1981D01*
X6500Y1982D01*
X6501Y1985D01*
X6503Y2002D01*
X6503Y2004D01*
X6503Y2005D01*
X6503Y2006D01*
X6503Y2008D01*
X6501Y2025D01*
X6500Y2028D01*
X6500Y2029D01*
X6500Y2029D01*
X6499Y2032D01*
X6493Y2048D01*
X6491Y2050D01*
X6491Y2051D01*
X6490Y2051D01*
X6489Y2054D01*
X6479Y2067D01*
X6477Y2069D01*
X6476Y2069D01*
X6476Y2070D01*
X6474Y2072D01*
X6461Y2082D01*
X6458Y2083D01*
X6458Y2084D01*
X6457Y2084D01*
X6455Y2086D01*
X6439Y2092D01*
X6436Y2093D01*
X6436Y2093D01*
X6435Y2093D01*
X6432Y2094D01*
X6415Y2096D01*
X6414Y2096D01*
X6412Y2096D01*
D02*
G37*
G36*
X6912D02*
X6910Y2096D01*
X6909Y2096D01*
X6892Y2094D01*
X6889Y2093D01*
X6888Y2093D01*
X6888Y2093D01*
X6885Y2092D01*
X6869Y2086D01*
X6867Y2084D01*
X6866Y2084D01*
X6866Y2083D01*
X6863Y2082D01*
X6850Y2072D01*
X6848Y2070D01*
X6848Y2069D01*
X6847Y2069D01*
X6845Y2067D01*
X6835Y2054D01*
X6834Y2051D01*
X6833Y2051D01*
X6833Y2050D01*
X6831Y2048D01*
X6825Y2032D01*
X6824Y2029D01*
X6824Y2029D01*
X6824Y2028D01*
X6823Y2025D01*
X6821Y2008D01*
X6821Y2006D01*
X6821Y2005D01*
X6821Y2004D01*
X6821Y2002D01*
X6823Y1985D01*
X6824Y1982D01*
X6824Y1981D01*
X6824Y1981D01*
X6825Y1978D01*
X6831Y1962D01*
X6833Y1960D01*
X6833Y1959D01*
X6834Y1959D01*
X6835Y1956D01*
X6845Y1943D01*
X6847Y1941D01*
X6848Y1941D01*
X6848Y1940D01*
X6850Y1938D01*
X6863Y1928D01*
X6866Y1927D01*
X6866Y1926D01*
X6867Y1926D01*
X6869Y1924D01*
X6885Y1918D01*
X6888Y1917D01*
X6888Y1917D01*
X6889Y1917D01*
X6892Y1916D01*
X6909Y1914D01*
X6910Y1914D01*
X6912Y1914D01*
X6914Y1914D01*
X6915Y1914D01*
X6932Y1916D01*
X6935Y1917D01*
X6936Y1917D01*
X6936Y1917D01*
X6939Y1918D01*
X6955Y1924D01*
X6957Y1926D01*
X6958Y1926D01*
X6958Y1927D01*
X6961Y1928D01*
X6974Y1938D01*
X6976Y1940D01*
X6976Y1941D01*
X6977Y1941D01*
X6979Y1943D01*
X6989Y1956D01*
X6990Y1959D01*
X6991Y1959D01*
X6991Y1960D01*
X6993Y1962D01*
X6999Y1978D01*
X7000Y1981D01*
X7000Y1981D01*
X7000Y1982D01*
X7001Y1985D01*
X7003Y2002D01*
X7003Y2004D01*
X7003Y2005D01*
X7003Y2006D01*
X7003Y2008D01*
X7001Y2025D01*
X7000Y2028D01*
X7000Y2029D01*
X7000Y2029D01*
X6999Y2032D01*
X6993Y2048D01*
X6991Y2050D01*
X6991Y2051D01*
X6990Y2051D01*
X6989Y2054D01*
X6979Y2067D01*
X6977Y2069D01*
X6976Y2069D01*
X6976Y2070D01*
X6974Y2072D01*
X6961Y2082D01*
X6958Y2083D01*
X6958Y2084D01*
X6957Y2084D01*
X6955Y2086D01*
X6939Y2092D01*
X6936Y2093D01*
X6936Y2093D01*
X6935Y2093D01*
X6932Y2094D01*
X6915Y2096D01*
X6914Y2096D01*
X6912Y2096D01*
D02*
G37*
G36*
X2834Y2095D02*
X2825Y2093D01*
X2807Y2081D01*
X2795Y2063D01*
X2793Y2054D01*
X2834D01*
Y2095D01*
D02*
G37*
G36*
X2860D02*
Y2054D01*
X2901D01*
X2899Y2063D01*
X2887Y2081D01*
X2869Y2093D01*
X2860Y2095D01*
D02*
G37*
G36*
X5683Y2125D02*
X5674Y2123D01*
X5656Y2111D01*
X5644Y2093D01*
X5642Y2084D01*
X5683D01*
Y2125D01*
D02*
G37*
G36*
X4062Y2451D02*
X4050D01*
X4040Y2449D01*
X4035Y2446D01*
X4030Y2449D01*
X4020Y2451D01*
X3970D01*
X3960Y2449D01*
X3955Y2446D01*
X3950Y2449D01*
X3940Y2451D01*
X3890D01*
X3880Y2449D01*
X3875Y2446D01*
X3870Y2449D01*
X3860Y2451D01*
X3848D01*
Y2325D01*
Y2199D01*
X3860D01*
X3870Y2201D01*
X3875Y2204D01*
X3880Y2201D01*
X3890Y2199D01*
X3940D01*
X3950Y2201D01*
X3955Y2204D01*
X3960Y2201D01*
X3970Y2199D01*
X4020D01*
X4030Y2201D01*
X4035Y2204D01*
X4040Y2201D01*
X4050Y2199D01*
X4062D01*
Y2325D01*
Y2451D01*
D02*
G37*
G36*
X4302D02*
X4290D01*
X4280Y2449D01*
X4275Y2446D01*
X4270Y2449D01*
X4260Y2451D01*
X4210D01*
X4200Y2449D01*
X4195Y2446D01*
X4190Y2449D01*
X4180Y2451D01*
X4130D01*
X4120Y2449D01*
X4115Y2446D01*
X4110Y2449D01*
X4100Y2451D01*
X4088D01*
Y2325D01*
Y2199D01*
X4100D01*
X4110Y2201D01*
X4115Y2204D01*
X4120Y2201D01*
X4130Y2199D01*
X4180D01*
X4190Y2201D01*
X4195Y2204D01*
X4200Y2201D01*
X4210Y2199D01*
X4260D01*
X4270Y2201D01*
X4275Y2204D01*
X4280Y2201D01*
X4290Y2199D01*
X4302D01*
Y2325D01*
Y2451D01*
D02*
G37*
G36*
X4782D02*
X4770D01*
X4760Y2449D01*
X4755Y2446D01*
X4750Y2449D01*
X4740Y2451D01*
X4690D01*
X4680Y2449D01*
X4675Y2446D01*
X4670Y2449D01*
X4660Y2451D01*
X4610D01*
X4600Y2449D01*
X4595Y2446D01*
X4590Y2449D01*
X4580Y2451D01*
X4568D01*
Y2325D01*
Y2199D01*
X4580D01*
X4590Y2201D01*
X4595Y2204D01*
X4600Y2201D01*
X4610Y2199D01*
X4660D01*
X4670Y2201D01*
X4675Y2204D01*
X4680Y2201D01*
X4690Y2199D01*
X4740D01*
X4750Y2201D01*
X4755Y2204D01*
X4760Y2201D01*
X4770Y2199D01*
X4782D01*
Y2325D01*
Y2451D01*
D02*
G37*
G36*
X4542D02*
X4530D01*
X4520Y2449D01*
X4515Y2446D01*
X4510Y2449D01*
X4500Y2451D01*
X4450D01*
X4440Y2449D01*
X4435Y2446D01*
X4430Y2449D01*
X4420Y2451D01*
X4370D01*
X4360Y2449D01*
X4355Y2446D01*
X4350Y2449D01*
X4340Y2451D01*
X4328D01*
Y2325D01*
Y2199D01*
X4340D01*
X4350Y2201D01*
X4355Y2204D01*
X4360Y2201D01*
X4370Y2199D01*
X4420D01*
X4430Y2201D01*
X4435Y2204D01*
X4440Y2201D01*
X4450Y2199D01*
X4500D01*
X4510Y2201D01*
X4515Y2204D01*
X4520Y2201D01*
X4530Y2199D01*
X4542D01*
Y2325D01*
Y2451D01*
D02*
G37*
G36*
X3582D02*
X3570D01*
X3560Y2449D01*
X3555Y2446D01*
X3550Y2449D01*
X3540Y2451D01*
X3490D01*
X3480Y2449D01*
X3475Y2446D01*
X3470Y2449D01*
X3460Y2451D01*
X3410D01*
X3400Y2449D01*
X3395Y2446D01*
X3390Y2449D01*
X3380Y2451D01*
X3330D01*
X3320Y2449D01*
X3315Y2446D01*
X3310Y2449D01*
X3300Y2451D01*
X3250D01*
X3240Y2449D01*
X3235Y2446D01*
X3230Y2449D01*
X3220Y2451D01*
X3170D01*
X3160Y2449D01*
X3155Y2446D01*
X3150Y2449D01*
X3140Y2451D01*
X3090D01*
X3080Y2449D01*
X3072Y2443D01*
X3066Y2435D01*
X3064Y2425D01*
Y2225D01*
X3066Y2215D01*
X3072Y2207D01*
X3080Y2201D01*
X3090Y2199D01*
X3140D01*
X3150Y2201D01*
X3155Y2204D01*
X3160Y2201D01*
X3170Y2199D01*
X3220D01*
X3230Y2201D01*
X3235Y2204D01*
X3240Y2201D01*
X3250Y2199D01*
X3300D01*
X3310Y2201D01*
X3315Y2204D01*
X3320Y2201D01*
X3330Y2199D01*
X3380D01*
X3390Y2201D01*
X3395Y2204D01*
X3400Y2201D01*
X3410Y2199D01*
X3460D01*
X3470Y2201D01*
X3475Y2204D01*
X3480Y2201D01*
X3490Y2199D01*
X3540D01*
X3550Y2201D01*
X3555Y2204D01*
X3560Y2201D01*
X3570Y2199D01*
X3582D01*
Y2325D01*
Y2451D01*
D02*
G37*
G36*
X3822D02*
X3810D01*
X3800Y2449D01*
X3795Y2446D01*
X3790Y2449D01*
X3780Y2451D01*
X3730D01*
X3720Y2449D01*
X3715Y2446D01*
X3710Y2449D01*
X3700Y2451D01*
X3650D01*
X3640Y2449D01*
X3635Y2446D01*
X3630Y2449D01*
X3620Y2451D01*
X3608D01*
Y2325D01*
Y2199D01*
X3620D01*
X3630Y2201D01*
X3635Y2204D01*
X3640Y2201D01*
X3650Y2199D01*
X3700D01*
X3710Y2201D01*
X3715Y2204D01*
X3720Y2201D01*
X3730Y2199D01*
X3780D01*
X3790Y2201D01*
X3795Y2204D01*
X3800Y2201D01*
X3810Y2199D01*
X3822D01*
Y2325D01*
Y2451D01*
D02*
G37*
G36*
X9421Y1104D02*
X9380D01*
Y1063D01*
X9389Y1065D01*
X9407Y1077D01*
X9420Y1095D01*
X9421Y1104D01*
D02*
G37*
G36*
X1075Y1135D02*
X1066Y1133D01*
X1048Y1121D01*
X1036Y1103D01*
X1034Y1094D01*
X1075D01*
Y1135D01*
D02*
G37*
G36*
X1101D02*
Y1094D01*
X1142D01*
X1140Y1103D01*
X1128Y1121D01*
X1110Y1133D01*
X1101Y1135D01*
D02*
G37*
G36*
X1075Y1068D02*
X1034D01*
X1036Y1059D01*
X1048Y1041D01*
X1066Y1029D01*
X1075Y1027D01*
Y1068D01*
D02*
G37*
G36*
X1142D02*
X1101D01*
Y1027D01*
X1110Y1029D01*
X1128Y1041D01*
X1140Y1059D01*
X1142Y1068D01*
D02*
G37*
G36*
X9355Y1104D02*
X9314D01*
X9315Y1095D01*
X9328Y1077D01*
X9346Y1065D01*
X9355Y1063D01*
Y1104D01*
D02*
G37*
G36*
X2901Y2028D02*
X2860D01*
Y1987D01*
X2869Y1989D01*
X2887Y2001D01*
X2899Y2019D01*
X2901Y2028D01*
D02*
G37*
G36*
X5683Y2058D02*
X5642D01*
X5644Y2049D01*
X5656Y2031D01*
X5674Y2019D01*
X5683Y2017D01*
Y2058D01*
D02*
G37*
G36*
X5750D02*
X5709D01*
Y2017D01*
X5718Y2019D01*
X5736Y2031D01*
X5748Y2049D01*
X5750Y2058D01*
D02*
G37*
G36*
X9355Y1171D02*
X9346Y1169D01*
X9328Y1157D01*
X9315Y1139D01*
X9314Y1130D01*
X9355D01*
Y1171D01*
D02*
G37*
G36*
X9380D02*
Y1130D01*
X9421D01*
X9420Y1139D01*
X9407Y1157D01*
X9389Y1169D01*
X9380Y1171D01*
D02*
G37*
G36*
X2834Y2028D02*
X2793D01*
X2795Y2019D01*
X2807Y2001D01*
X2825Y1989D01*
X2834Y1987D01*
Y2028D01*
D02*
G37*
G36*
X2849Y2777D02*
X2808D01*
X2810Y2768D01*
X2822Y2750D01*
X2840Y2738D01*
X2849Y2736D01*
Y2777D01*
D02*
G37*
G36*
X2916D02*
X2875D01*
Y2736D01*
X2884Y2738D01*
X2902Y2750D01*
X2914Y2768D01*
X2916Y2777D01*
D02*
G37*
G36*
X6070Y2797D02*
X6061Y2795D01*
X6043Y2783D01*
X6031Y2765D01*
X6029Y2756D01*
X6070D01*
Y2797D01*
D02*
G37*
G36*
X6137Y2730D02*
X6096D01*
Y2689D01*
X6105Y2691D01*
X6123Y2703D01*
X6135Y2721D01*
X6137Y2730D01*
D02*
G37*
G36*
X7360Y2767D02*
X7351Y2765D01*
X7333Y2753D01*
X7321Y2734D01*
X7319Y2726D01*
X7360D01*
Y2767D01*
D02*
G37*
G36*
X7386D02*
Y2726D01*
X7427D01*
X7425Y2734D01*
X7413Y2753D01*
X7395Y2765D01*
X7386Y2767D01*
D02*
G37*
G36*
X2849Y2844D02*
X2840Y2842D01*
X2822Y2830D01*
X2810Y2812D01*
X2808Y2803D01*
X2849D01*
Y2844D01*
D02*
G37*
G36*
X2875D02*
Y2803D01*
X2916D01*
X2914Y2812D01*
X2902Y2830D01*
X2884Y2842D01*
X2875Y2844D01*
D02*
G37*
G36*
X5662Y2890D02*
X5653Y2888D01*
X5635Y2876D01*
X5623Y2858D01*
X5621Y2849D01*
X5662D01*
Y2890D01*
D02*
G37*
G36*
X6096Y2797D02*
Y2756D01*
X6137D01*
X6135Y2765D01*
X6123Y2783D01*
X6105Y2795D01*
X6096Y2797D01*
D02*
G37*
G36*
X5662Y2823D02*
X5621D01*
X5623Y2814D01*
X5635Y2796D01*
X5653Y2784D01*
X5662Y2782D01*
Y2823D01*
D02*
G37*
G36*
X5729D02*
X5688D01*
Y2782D01*
X5697Y2784D01*
X5715Y2796D01*
X5727Y2814D01*
X5729Y2823D01*
D02*
G37*
G36*
X5685Y2632D02*
X5682Y2632D01*
X5680D01*
X5680D01*
X5664Y2628D01*
X5663Y2628D01*
X5662Y2628D01*
X5657Y2627D01*
X5657D01*
X5653Y2625D01*
X5647Y2623D01*
X5647Y2623D01*
X5642Y2620D01*
X5642Y2620D01*
X5641Y2619D01*
X5627Y2610D01*
X5627Y2610D01*
X5627Y2610D01*
X5620Y2603D01*
X5620Y2603D01*
X5620Y2603D01*
X5611Y2589D01*
X5610Y2588D01*
X5610Y2588D01*
X5607Y2583D01*
X5607Y2583D01*
X5605Y2577D01*
X5603Y2573D01*
Y2573D01*
X5602Y2568D01*
X5602Y2567D01*
X5602Y2566D01*
X5598Y2550D01*
X5598Y2550D01*
Y2550D01*
Y2540D01*
Y2540D01*
Y2540D01*
X5602Y2524D01*
X5602Y2523D01*
X5602Y2522D01*
X5603Y2517D01*
Y2517D01*
X5605Y2513D01*
X5607Y2507D01*
X5607Y2507D01*
X5610Y2502D01*
X5610Y2502D01*
X5611Y2501D01*
X5620Y2487D01*
X5620Y2487D01*
X5620Y2487D01*
X5627Y2480D01*
X5627Y2480D01*
X5627Y2480D01*
X5641Y2471D01*
X5642Y2470D01*
X5642Y2470D01*
X5647Y2467D01*
X5647Y2467D01*
X5653Y2465D01*
X5657Y2463D01*
X5657D01*
X5662Y2462D01*
X5663Y2462D01*
X5664Y2462D01*
X5680Y2458D01*
X5680Y2458D01*
X5682D01*
X5685Y2458D01*
X5688Y2458D01*
X5690D01*
X5690D01*
X5706Y2462D01*
X5707Y2462D01*
X5708Y2462D01*
X5713Y2463D01*
X5713D01*
X5717Y2465D01*
X5723Y2467D01*
X5723Y2467D01*
X5728Y2470D01*
X5728Y2470D01*
X5729Y2471D01*
X5743Y2480D01*
X5743Y2480D01*
X5750Y2487D01*
X5750Y2487D01*
X5750Y2487D01*
X5759Y2501D01*
X5760Y2502D01*
X5760Y2502D01*
X5763Y2507D01*
X5763Y2507D01*
X5765Y2513D01*
X5767Y2517D01*
Y2517D01*
X5768Y2522D01*
X5768Y2523D01*
X5768Y2524D01*
X5772Y2540D01*
X5772Y2540D01*
Y2550D01*
Y2550D01*
Y2550D01*
X5768Y2566D01*
X5768Y2567D01*
X5768Y2568D01*
X5767Y2573D01*
Y2573D01*
X5765Y2577D01*
X5763Y2583D01*
X5763Y2583D01*
X5760Y2588D01*
X5760Y2588D01*
X5759Y2589D01*
X5750Y2603D01*
X5750Y2603D01*
X5743Y2610D01*
X5743Y2610D01*
X5743Y2610D01*
X5729Y2619D01*
X5728Y2620D01*
X5728Y2620D01*
X5723Y2623D01*
X5723Y2623D01*
X5717Y2625D01*
X5713Y2627D01*
X5713D01*
X5708Y2628D01*
X5707Y2628D01*
X5706Y2628D01*
X5690Y2632D01*
X5690Y2632D01*
X5688D01*
X5685Y2632D01*
D02*
G37*
G36*
X2865Y2612D02*
X2862Y2611D01*
X2860D01*
X2860D01*
X2844Y2608D01*
X2835Y2604D01*
X2822Y2595D01*
X2822Y2595D01*
X2818Y2592D01*
X2815Y2588D01*
X2815Y2588D01*
X2806Y2575D01*
X2802Y2566D01*
X2799Y2550D01*
X2799Y2550D01*
Y2550D01*
Y2540D01*
Y2540D01*
Y2540D01*
X2802Y2524D01*
X2806Y2515D01*
X2815Y2502D01*
X2815Y2502D01*
X2818Y2498D01*
X2822Y2495D01*
X2822Y2495D01*
X2835Y2486D01*
X2844Y2482D01*
X2860Y2479D01*
X2860Y2479D01*
X2862D01*
X2865Y2478D01*
X2868Y2479D01*
X2870D01*
X2870D01*
X2886Y2482D01*
X2895Y2486D01*
X2908Y2495D01*
X2908Y2495D01*
X2912Y2498D01*
X2915Y2502D01*
X2915Y2502D01*
X2924Y2515D01*
X2928Y2524D01*
X2931Y2540D01*
X2931Y2540D01*
Y2550D01*
Y2550D01*
Y2550D01*
X2928Y2566D01*
X2924Y2575D01*
X2915Y2588D01*
X2915Y2588D01*
X2912Y2592D01*
X2908Y2595D01*
X2908Y2595D01*
X2895Y2604D01*
X2886Y2608D01*
X2870Y2611D01*
X2870Y2611D01*
X2868D01*
X2865Y2612D01*
D02*
G37*
G36*
X1387Y2837D02*
X1125D01*
X1127Y2807D01*
X1137Y2765D01*
X1154Y2725D01*
X1177Y2688D01*
X1205Y2655D01*
X1238Y2627D01*
X1275Y2604D01*
X1315Y2587D01*
X1357Y2577D01*
X1387Y2575D01*
Y2837D01*
D02*
G37*
G36*
X5022Y2451D02*
X5010D01*
X5000Y2449D01*
X4995Y2446D01*
X4990Y2449D01*
X4980Y2451D01*
X4930D01*
X4920Y2449D01*
X4915Y2446D01*
X4910Y2449D01*
X4900Y2451D01*
X4850D01*
X4840Y2449D01*
X4835Y2446D01*
X4830Y2449D01*
X4820Y2451D01*
X4808D01*
Y2325D01*
Y2199D01*
X4820D01*
X4830Y2201D01*
X4835Y2204D01*
X4840Y2201D01*
X4850Y2199D01*
X4900D01*
X4910Y2201D01*
X4915Y2204D01*
X4920Y2201D01*
X4930Y2199D01*
X4980D01*
X4990Y2201D01*
X4995Y2204D01*
X5000Y2201D01*
X5010Y2199D01*
X5022D01*
Y2325D01*
Y2451D01*
D02*
G37*
G36*
X5262D02*
X5250D01*
X5240Y2449D01*
X5235Y2446D01*
X5230Y2449D01*
X5220Y2451D01*
X5170D01*
X5160Y2449D01*
X5155Y2446D01*
X5150Y2449D01*
X5140Y2451D01*
X5090D01*
X5080Y2449D01*
X5075Y2446D01*
X5070Y2449D01*
X5060Y2451D01*
X5048D01*
Y2325D01*
Y2199D01*
X5060D01*
X5060Y2199D01*
X5058Y2196D01*
X5054Y2174D01*
X5058Y2152D01*
X5070Y2134D01*
X5088Y2122D01*
X5110Y2118D01*
X5132Y2122D01*
X5138Y2126D01*
X5138Y2124D01*
X5142Y2102D01*
X5154Y2084D01*
X5172Y2072D01*
X5194Y2068D01*
X5216Y2072D01*
X5234Y2084D01*
X5246Y2102D01*
X5250Y2124D01*
X5246Y2145D01*
Y2200D01*
X5250Y2199D01*
X5262D01*
Y2325D01*
Y2451D01*
D02*
G37*
G36*
X5460D02*
X5410D01*
X5400Y2449D01*
X5395Y2446D01*
X5390Y2449D01*
X5380Y2451D01*
X5330D01*
X5320Y2449D01*
X5315Y2446D01*
X5310Y2449D01*
X5300Y2451D01*
X5288D01*
Y2325D01*
Y2199D01*
X5300D01*
X5310Y2201D01*
X5315Y2204D01*
X5320Y2201D01*
X5330Y2199D01*
X5380D01*
X5390Y2201D01*
X5395Y2204D01*
X5400Y2201D01*
X5410Y2199D01*
X5460D01*
X5470Y2201D01*
X5478Y2207D01*
X5484Y2215D01*
X5486Y2225D01*
Y2425D01*
X5484Y2435D01*
X5478Y2443D01*
X5470Y2449D01*
X5460Y2451D01*
D02*
G37*
G36*
X7360Y2700D02*
X7319D01*
X7321Y2691D01*
X7333Y2673D01*
X7351Y2661D01*
X7360Y2659D01*
Y2700D01*
D02*
G37*
G36*
X7427D02*
X7386D01*
Y2659D01*
X7395Y2661D01*
X7413Y2673D01*
X7425Y2691D01*
X7427Y2700D01*
D02*
G37*
G36*
X6070Y2730D02*
X6029D01*
X6031Y2721D01*
X6043Y2703D01*
X6061Y2691D01*
X6070Y2689D01*
Y2730D01*
D02*
G37*
G36*
X1675Y2837D02*
X1413D01*
Y2575D01*
X1443Y2577D01*
X1485Y2587D01*
X1525Y2604D01*
X1562Y2627D01*
X1595Y2655D01*
X1623Y2688D01*
X1646Y2725D01*
X1663Y2765D01*
X1673Y2807D01*
X1675Y2837D01*
D02*
G37*
G36*
X9087D02*
X8825D01*
X8827Y2807D01*
X8837Y2765D01*
X8854Y2725D01*
X8877Y2688D01*
X8905Y2655D01*
X8938Y2627D01*
X8975Y2604D01*
X9015Y2587D01*
X9057Y2577D01*
X9087Y2575D01*
Y2837D01*
D02*
G37*
G36*
X9375D02*
X9113D01*
Y2575D01*
X9143Y2577D01*
X9185Y2587D01*
X9225Y2604D01*
X9262Y2627D01*
X9295Y2655D01*
X9323Y2688D01*
X9346Y2725D01*
X9363Y2765D01*
X9373Y2807D01*
X9375Y2837D01*
D02*
G37*
G36*
X7591Y3818D02*
X7550D01*
X7552Y3809D01*
X7564Y3791D01*
X7582Y3779D01*
X7591Y3777D01*
Y3818D01*
D02*
G37*
G36*
X8346Y5530D02*
X8337Y5528D01*
X8319Y5516D01*
X8307Y5498D01*
X8305Y5489D01*
X8346D01*
Y5530D01*
D02*
G37*
G36*
X8372D02*
Y5489D01*
X8413D01*
X8411Y5498D01*
X8399Y5516D01*
X8381Y5528D01*
X8372Y5530D01*
D02*
G37*
G36*
X5790Y5558D02*
X5754D01*
X5755Y5551D01*
X5766Y5534D01*
X5783Y5523D01*
X5790Y5522D01*
Y5558D01*
D02*
G37*
G36*
X8366Y4885D02*
Y4844D01*
X8407D01*
X8405Y4853D01*
X8393Y4871D01*
X8375Y4883D01*
X8366Y4885D01*
D02*
G37*
G36*
X8346Y5463D02*
X8305D01*
X8307Y5454D01*
X8319Y5436D01*
X8337Y5424D01*
X8346Y5422D01*
Y5463D01*
D02*
G37*
G36*
X8413D02*
X8372D01*
Y5422D01*
X8381Y5424D01*
X8399Y5436D01*
X8411Y5454D01*
X8413Y5463D01*
D02*
G37*
G36*
X5876Y5762D02*
X5724D01*
Y5625D01*
X5726Y5615D01*
X5732Y5607D01*
X5740Y5601D01*
X5750Y5599D01*
X5761D01*
X5755Y5591D01*
X5754Y5584D01*
X5852D01*
X5851Y5591D01*
X5845Y5599D01*
X5850D01*
X5860Y5601D01*
X5868Y5607D01*
X5874Y5615D01*
X5876Y5625D01*
Y5762D01*
D02*
G37*
G36*
X2076D02*
X1924D01*
Y5625D01*
X1926Y5615D01*
X1932Y5607D01*
X1940Y5601D01*
X1950Y5599D01*
X1957D01*
X1953Y5593D01*
X1952Y5586D01*
X2050D01*
X2049Y5593D01*
X2045Y5599D01*
X2050D01*
X2060Y5601D01*
X2068Y5607D01*
X2074Y5615D01*
X2076Y5625D01*
Y5762D01*
D02*
G37*
G36*
X6584Y5668D02*
X6543D01*
X6545Y5659D01*
X6557Y5641D01*
X6575Y5629D01*
X6584Y5627D01*
Y5668D01*
D02*
G37*
G36*
X5852Y5558D02*
X5816D01*
Y5522D01*
X5823Y5523D01*
X5840Y5534D01*
X5851Y5551D01*
X5852Y5558D01*
D02*
G37*
G36*
X1988Y5560D02*
X1952D01*
X1953Y5553D01*
X1964Y5536D01*
X1981Y5525D01*
X1988Y5524D01*
Y5560D01*
D02*
G37*
G36*
X2050D02*
X2014D01*
Y5524D01*
X2021Y5525D01*
X2038Y5536D01*
X2049Y5553D01*
X2050Y5560D01*
D02*
G37*
G36*
X9389Y4633D02*
X9380Y4631D01*
X9362Y4619D01*
X9350Y4601D01*
X9348Y4592D01*
X9389D01*
Y4633D01*
D02*
G37*
G36*
X9415D02*
Y4592D01*
X9456D01*
X9454Y4601D01*
X9442Y4619D01*
X9424Y4631D01*
X9415Y4633D01*
D02*
G37*
G36*
X7403Y4809D02*
X7362D01*
X7364Y4800D01*
X7376Y4782D01*
X7394Y4770D01*
X7403Y4768D01*
Y4809D01*
D02*
G37*
G36*
X7780Y4580D02*
X7771Y4578D01*
X7753Y4566D01*
X7741Y4548D01*
X7739Y4539D01*
X7780D01*
Y4580D01*
D02*
G37*
G36*
X7806D02*
Y4539D01*
X7847D01*
X7845Y4548D01*
X7833Y4566D01*
X7815Y4578D01*
X7806Y4580D01*
D02*
G37*
G36*
X6699Y4578D02*
X6697Y4577D01*
X6696Y4577D01*
X6672Y4574D01*
X6670Y4574D01*
X6669Y4573D01*
X6668Y4573D01*
X6666Y4573D01*
X6644Y4564D01*
X6642Y4562D01*
X6641Y4562D01*
X6640Y4561D01*
X6638Y4560D01*
X6619Y4546D01*
X6617Y4544D01*
X6617Y4543D01*
X6616Y4543D01*
X6614Y4541D01*
X6600Y4522D01*
X6599Y4520D01*
X6598Y4519D01*
X6598Y4518D01*
X6596Y4516D01*
X6587Y4494D01*
X6587Y4492D01*
X6587Y4491D01*
X6586Y4490D01*
X6586Y4488D01*
X6583Y4464D01*
X6583Y4462D01*
X6583Y4461D01*
X6583Y4460D01*
X6583Y4458D01*
X6586Y4434D01*
X6586Y4432D01*
X6587Y4431D01*
X6587Y4430D01*
X6587Y4428D01*
X6596Y4406D01*
X6598Y4404D01*
X6598Y4403D01*
X6599Y4402D01*
X6600Y4400D01*
X6614Y4381D01*
X6616Y4379D01*
X6617Y4379D01*
X6617Y4378D01*
X6619Y4376D01*
X6638Y4362D01*
X6640Y4361D01*
X6641Y4360D01*
X6642Y4360D01*
X6644Y4358D01*
X6666Y4349D01*
X6668Y4349D01*
X6669Y4349D01*
X6670Y4348D01*
X6672Y4348D01*
X6696Y4345D01*
X6697Y4345D01*
X6699Y4344D01*
X6701Y4345D01*
X6702Y4345D01*
X6726Y4348D01*
X6728Y4348D01*
X6729Y4349D01*
X6730Y4349D01*
X6732Y4349D01*
X6754Y4358D01*
X6756Y4360D01*
X6757Y4360D01*
X6758Y4361D01*
X6760Y4362D01*
X6779Y4376D01*
X6781Y4378D01*
X6781Y4379D01*
X6782Y4379D01*
X6784Y4381D01*
X6798Y4400D01*
X6799Y4402D01*
X6800Y4403D01*
X6800Y4404D01*
X6802Y4406D01*
X6811Y4428D01*
X6811Y4430D01*
X6811Y4431D01*
X6812Y4432D01*
X6812Y4434D01*
X6815Y4458D01*
X6815Y4460D01*
X6815Y4461D01*
X6815Y4462D01*
X6815Y4464D01*
X6812Y4488D01*
X6812Y4490D01*
X6811Y4491D01*
X6811Y4492D01*
X6811Y4494D01*
X6802Y4516D01*
X6800Y4518D01*
X6800Y4519D01*
X6799Y4520D01*
X6798Y4522D01*
X6784Y4541D01*
X6782Y4543D01*
X6781Y4543D01*
X6781Y4544D01*
X6779Y4546D01*
X6760Y4560D01*
X6758Y4561D01*
X6757Y4562D01*
X6756Y4562D01*
X6754Y4564D01*
X6732Y4573D01*
X6730Y4573D01*
X6729Y4573D01*
X6728Y4574D01*
X6726Y4574D01*
X6702Y4577D01*
X6701Y4577D01*
X6699Y4578D01*
D02*
G37*
G36*
X7403Y4876D02*
X7394Y4874D01*
X7376Y4862D01*
X7364Y4844D01*
X7362Y4835D01*
X7403D01*
Y4876D01*
D02*
G37*
G36*
X7429D02*
Y4835D01*
X7470D01*
X7468Y4844D01*
X7456Y4862D01*
X7438Y4874D01*
X7429Y4876D01*
D02*
G37*
G36*
X8340Y4885D02*
X8331Y4883D01*
X8313Y4871D01*
X8301Y4853D01*
X8299Y4844D01*
X8340D01*
Y4885D01*
D02*
G37*
G36*
X7470Y4809D02*
X7429D01*
Y4768D01*
X7438Y4770D01*
X7456Y4782D01*
X7468Y4800D01*
X7470Y4809D01*
D02*
G37*
G36*
X8340Y4818D02*
X8299D01*
X8301Y4809D01*
X8313Y4791D01*
X8331Y4779D01*
X8340Y4777D01*
Y4818D01*
D02*
G37*
G36*
X8407D02*
X8366D01*
Y4777D01*
X8375Y4779D01*
X8393Y4791D01*
X8405Y4809D01*
X8407Y4818D01*
D02*
G37*
G36*
X6651Y5668D02*
X6610D01*
Y5627D01*
X6619Y5629D01*
X6637Y5641D01*
X6649Y5659D01*
X6651Y5668D01*
D02*
G37*
G36*
X1413Y6275D02*
Y6013D01*
X1675D01*
X1673Y6043D01*
X1663Y6085D01*
X1646Y6125D01*
X1623Y6162D01*
X1595Y6195D01*
X1562Y6223D01*
X1525Y6246D01*
X1485Y6263D01*
X1443Y6273D01*
X1413Y6275D01*
D02*
G37*
G36*
X9087Y6225D02*
X9056Y6222D01*
X9013Y6209D01*
X8974Y6188D01*
X8940Y6160D01*
X8912Y6126D01*
X8891Y6087D01*
X8878Y6044D01*
X8875Y6013D01*
X9087D01*
Y6225D01*
D02*
G37*
G36*
X9113D02*
Y6013D01*
X9325D01*
X9322Y6044D01*
X9309Y6087D01*
X9288Y6126D01*
X9260Y6160D01*
X9226Y6188D01*
X9187Y6209D01*
X9144Y6222D01*
X9113Y6225D01*
D02*
G37*
G36*
X5780Y6007D02*
X5744D01*
X5745Y6000D01*
X5756Y5983D01*
X5773Y5972D01*
X5780Y5971D01*
Y6007D01*
D02*
G37*
G36*
X5842D02*
X5806D01*
Y5971D01*
X5813Y5972D01*
X5830Y5983D01*
X5841Y6000D01*
X5842Y6007D01*
D02*
G37*
G36*
X1387Y6275D02*
X1357Y6273D01*
X1315Y6263D01*
X1275Y6246D01*
X1238Y6223D01*
X1205Y6195D01*
X1177Y6162D01*
X1154Y6125D01*
X1137Y6085D01*
X1127Y6043D01*
X1125Y6013D01*
X1387D01*
Y6275D01*
D02*
G37*
G36*
X6638Y6184D02*
X6597D01*
Y6143D01*
X6606Y6145D01*
X6624Y6157D01*
X6636Y6175D01*
X6638Y6184D01*
D02*
G37*
G36*
X6571Y6251D02*
X6562Y6249D01*
X6544Y6237D01*
X6532Y6219D01*
X6530Y6210D01*
X6571D01*
Y6251D01*
D02*
G37*
G36*
X6597D02*
Y6210D01*
X6638D01*
X6636Y6219D01*
X6624Y6237D01*
X6606Y6249D01*
X6597Y6251D01*
D02*
G37*
G36*
X2076Y6212D02*
X1924D01*
Y6075D01*
X1926Y6065D01*
X1932Y6057D01*
X1940Y6051D01*
X1950Y6049D01*
X1963D01*
X1953Y6035D01*
X1952Y6028D01*
X2050D01*
X2049Y6035D01*
X2039Y6049D01*
X2050D01*
X2060Y6051D01*
X2068Y6057D01*
X2074Y6065D01*
X2076Y6075D01*
Y6212D01*
D02*
G37*
G36*
X5876D02*
X5724D01*
Y6075D01*
X5726Y6065D01*
X5732Y6057D01*
X5740Y6051D01*
X5750Y6049D01*
X5751D01*
X5745Y6040D01*
X5744Y6033D01*
X5842D01*
X5841Y6040D01*
X5835Y6049D01*
X5850D01*
X5860Y6051D01*
X5868Y6057D01*
X5874Y6065D01*
X5876Y6075D01*
Y6212D01*
D02*
G37*
G36*
X6571Y6184D02*
X6530D01*
X6532Y6175D01*
X6544Y6157D01*
X6562Y6145D01*
X6571Y6143D01*
Y6184D01*
D02*
G37*
G36*
X1675Y5987D02*
X1413D01*
Y5725D01*
X1443Y5727D01*
X1485Y5737D01*
X1525Y5754D01*
X1562Y5777D01*
X1595Y5805D01*
X1623Y5838D01*
X1646Y5875D01*
X1663Y5915D01*
X1673Y5957D01*
X1675Y5987D01*
D02*
G37*
G36*
X9087D02*
X8875D01*
X8878Y5956D01*
X8891Y5913D01*
X8912Y5874D01*
X8940Y5840D01*
X8974Y5812D01*
X9013Y5791D01*
X9056Y5778D01*
X9087Y5775D01*
Y5987D01*
D02*
G37*
G36*
X9325D02*
X9113D01*
Y5775D01*
X9144Y5778D01*
X9187Y5791D01*
X9226Y5812D01*
X9260Y5840D01*
X9288Y5874D01*
X9309Y5913D01*
X9322Y5956D01*
X9325Y5987D01*
D02*
G37*
G36*
X6584Y5735D02*
X6575Y5733D01*
X6557Y5721D01*
X6545Y5703D01*
X6543Y5694D01*
X6584D01*
Y5735D01*
D02*
G37*
G36*
X6610D02*
Y5694D01*
X6651D01*
X6649Y5703D01*
X6637Y5721D01*
X6619Y5733D01*
X6610Y5735D01*
D02*
G37*
G36*
X1387Y5987D02*
X1125D01*
X1127Y5957D01*
X1137Y5915D01*
X1154Y5875D01*
X1177Y5838D01*
X1205Y5805D01*
X1238Y5777D01*
X1275Y5754D01*
X1315Y5737D01*
X1357Y5727D01*
X1387Y5725D01*
Y5987D01*
D02*
G37*
G36*
X5850Y5951D02*
X5813D01*
Y5788D01*
X5876D01*
Y5925D01*
X5874Y5935D01*
X5868Y5943D01*
X5860Y5949D01*
X5850Y5951D01*
D02*
G37*
G36*
X1988Y6002D02*
X1952D01*
X1953Y5995D01*
X1964Y5978D01*
X1981Y5967D01*
X1988Y5966D01*
Y6002D01*
D02*
G37*
G36*
X2050D02*
X2014D01*
Y5966D01*
X2021Y5967D01*
X2038Y5978D01*
X2049Y5995D01*
X2050Y6002D01*
D02*
G37*
G36*
X1987Y5951D02*
X1950D01*
X1940Y5949D01*
X1932Y5943D01*
X1926Y5935D01*
X1924Y5925D01*
Y5788D01*
X1987D01*
Y5951D01*
D02*
G37*
G36*
X2050D02*
X2013D01*
Y5788D01*
X2076D01*
Y5925D01*
X2074Y5935D01*
X2068Y5943D01*
X2060Y5949D01*
X2050Y5951D01*
D02*
G37*
G36*
X5787D02*
X5750D01*
X5740Y5949D01*
X5732Y5943D01*
X5726Y5935D01*
X5724Y5925D01*
Y5788D01*
X5787D01*
Y5951D01*
D02*
G37*
G36*
X8327Y4328D02*
X8318Y4326D01*
X8300Y4314D01*
X8288Y4296D01*
X8286Y4287D01*
X8327D01*
Y4328D01*
D02*
G37*
G36*
X8353D02*
Y4287D01*
X8394D01*
X8392Y4296D01*
X8380Y4314D01*
X8362Y4326D01*
X8353Y4328D01*
D02*
G37*
G36*
X2450Y5951D02*
X2350D01*
X2340Y5949D01*
X2332Y5943D01*
X2326Y5935D01*
X2324Y5925D01*
Y5625D01*
X2326Y5615D01*
X2332Y5607D01*
X2340Y5601D01*
X2350Y5599D01*
X2358D01*
Y5597D01*
X2353Y5589D01*
X2349Y5569D01*
X2353Y5549D01*
X2358Y5541D01*
Y4470D01*
X2361Y4457D01*
X2361Y4454D01*
X2371Y4441D01*
X2437Y4374D01*
X2441Y4355D01*
X2453Y4337D01*
X2471Y4325D01*
X2493Y4321D01*
X2515Y4325D01*
X2533Y4337D01*
X2545Y4355D01*
X2549Y4377D01*
X2545Y4399D01*
X2533Y4417D01*
X2515Y4429D01*
X2496Y4433D01*
X2442Y4487D01*
Y5538D01*
X2449Y5549D01*
X2453Y5569D01*
X2449Y5589D01*
X2442Y5599D01*
X2450D01*
X2460Y5601D01*
X2468Y5607D01*
X2474Y5615D01*
X2476Y5625D01*
Y5925D01*
X2474Y5935D01*
X2468Y5943D01*
X2460Y5949D01*
X2450Y5951D01*
D02*
G37*
G36*
X8394Y4261D02*
X8353D01*
Y4220D01*
X8362Y4222D01*
X8380Y4234D01*
X8392Y4252D01*
X8394Y4261D01*
D02*
G37*
G36*
X1102Y4318D02*
X1061D01*
X1063Y4309D01*
X1075Y4291D01*
X1093Y4279D01*
X1102Y4277D01*
Y4318D01*
D02*
G37*
G36*
X1169D02*
X1128D01*
Y4277D01*
X1137Y4279D01*
X1155Y4291D01*
X1167Y4309D01*
X1169Y4318D01*
D02*
G37*
G36*
X3050Y5951D02*
X2950D01*
X2940Y5949D01*
X2932Y5943D01*
X2926Y5935D01*
X2924Y5925D01*
Y5625D01*
X2926Y5615D01*
X2932Y5607D01*
X2940Y5601D01*
X2938Y5599D01*
X2934Y5579D01*
X2938Y5559D01*
X2943Y5551D01*
Y4673D01*
X2946Y4660D01*
X2946Y4657D01*
X2956Y4644D01*
X3204Y4395D01*
X3208Y4376D01*
X3220Y4358D01*
X3238Y4346D01*
X3260Y4342D01*
X3282Y4346D01*
X3300Y4358D01*
X3312Y4376D01*
X3316Y4398D01*
X3312Y4420D01*
X3300Y4438D01*
X3282Y4450D01*
X3263Y4454D01*
X3027Y4690D01*
Y5548D01*
X3034Y5559D01*
X3038Y5579D01*
X3034Y5599D01*
X3034Y5599D01*
X3050D01*
X3060Y5601D01*
X3068Y5607D01*
X3074Y5615D01*
X3076Y5625D01*
Y5925D01*
X3074Y5935D01*
X3068Y5943D01*
X3060Y5949D01*
X3050Y5951D01*
D02*
G37*
G36*
X3450D02*
X3350D01*
X3340Y5949D01*
X3332Y5943D01*
X3326Y5935D01*
X3324Y5925D01*
Y5625D01*
X3326Y5615D01*
X3332Y5607D01*
X3340Y5601D01*
X3350Y5599D01*
X3353D01*
Y5594D01*
X3348Y5586D01*
X3344Y5566D01*
X3348Y5546D01*
X3353Y5538D01*
Y4767D01*
X3356Y4754D01*
X3356Y4751D01*
X3366Y4738D01*
X3707Y4396D01*
X3711Y4376D01*
X3723Y4358D01*
X3741Y4346D01*
X3763Y4342D01*
X3785Y4346D01*
X3803Y4358D01*
X3815Y4376D01*
X3819Y4398D01*
X3815Y4420D01*
X3803Y4438D01*
X3785Y4450D01*
X3767Y4454D01*
X3437Y4784D01*
Y5535D01*
X3444Y5546D01*
X3448Y5566D01*
X3444Y5586D01*
X3437Y5597D01*
Y5599D01*
X3450D01*
X3460Y5601D01*
X3468Y5607D01*
X3474Y5615D01*
X3476Y5625D01*
Y5925D01*
X3474Y5935D01*
X3468Y5943D01*
X3460Y5949D01*
X3450Y5951D01*
D02*
G37*
G36*
X3650D02*
X3550D01*
X3540Y5949D01*
X3532Y5943D01*
X3526Y5935D01*
X3524Y5925D01*
Y5625D01*
X3526Y5615D01*
X3532Y5607D01*
X3540Y5601D01*
X3550Y5599D01*
X3562D01*
X3558Y5593D01*
X3554Y5573D01*
X3558Y5553D01*
X3563Y5545D01*
Y4895D01*
X3566Y4882D01*
X3566Y4879D01*
X3576Y4866D01*
X3986Y4455D01*
Y4440D01*
X3983Y4438D01*
X3971Y4420D01*
X3967Y4398D01*
X3971Y4376D01*
X3983Y4358D01*
X4001Y4346D01*
X4023Y4342D01*
X4045Y4346D01*
X4063Y4358D01*
X4075Y4376D01*
X4079Y4398D01*
X4075Y4420D01*
X4070Y4428D01*
Y4472D01*
X4067Y4488D01*
X4057Y4501D01*
X3647Y4912D01*
Y5542D01*
X3654Y5553D01*
X3658Y5573D01*
X3654Y5593D01*
X3650Y5599D01*
X3650D01*
X3660Y5601D01*
X3668Y5607D01*
X3674Y5615D01*
X3676Y5625D01*
Y5925D01*
X3674Y5935D01*
X3668Y5943D01*
X3660Y5949D01*
X3650Y5951D01*
D02*
G37*
G36*
X2850D02*
X2750D01*
X2740Y5949D01*
X2732Y5943D01*
X2726Y5935D01*
X2724Y5925D01*
Y5625D01*
X2726Y5615D01*
X2732Y5607D01*
X2740Y5601D01*
X2750Y5599D01*
X2752D01*
X2752Y5599D01*
X2748Y5579D01*
X2752Y5559D01*
X2757Y5551D01*
Y4599D01*
X2760Y4586D01*
X2760Y4583D01*
X2770Y4570D01*
X2954Y4385D01*
X2958Y4366D01*
X2970Y4348D01*
X2988Y4336D01*
X3010Y4332D01*
X3032Y4336D01*
X3050Y4348D01*
X3062Y4366D01*
X3066Y4388D01*
X3062Y4410D01*
X3050Y4428D01*
X3032Y4440D01*
X3013Y4444D01*
X2841Y4616D01*
Y5548D01*
X2848Y5559D01*
X2852Y5579D01*
X2848Y5599D01*
X2848Y5599D01*
X2850D01*
X2860Y5601D01*
X2868Y5607D01*
X2874Y5615D01*
X2876Y5625D01*
Y5925D01*
X2874Y5935D01*
X2868Y5943D01*
X2860Y5949D01*
X2850Y5951D01*
D02*
G37*
G36*
X4050D02*
X3950D01*
X3940Y5949D01*
X3932Y5943D01*
X3926Y5935D01*
X3924Y5925D01*
Y5625D01*
X3926Y5615D01*
X3932Y5607D01*
X3940Y5601D01*
X3950Y5599D01*
X3953D01*
X3951Y5597D01*
X3947Y5577D01*
X3951Y5557D01*
X3956Y5549D01*
Y5015D01*
X3959Y5002D01*
X3959Y4999D01*
X3969Y4986D01*
X4500Y4454D01*
Y4433D01*
X4497Y4431D01*
X4485Y4413D01*
X4481Y4391D01*
X4485Y4369D01*
X4497Y4351D01*
X4515Y4339D01*
X4537Y4335D01*
X4559Y4339D01*
X4577Y4351D01*
X4589Y4369D01*
X4593Y4391D01*
X4589Y4413D01*
X4584Y4421D01*
Y4471D01*
X4581Y4487D01*
X4571Y4500D01*
X4040Y5032D01*
Y5546D01*
X4047Y5557D01*
X4051Y5577D01*
X4047Y5597D01*
X4045Y5599D01*
X4050D01*
X4060Y5601D01*
X4068Y5607D01*
X4074Y5615D01*
X4076Y5625D01*
Y5925D01*
X4074Y5935D01*
X4068Y5943D01*
X4060Y5949D01*
X4050Y5951D01*
D02*
G37*
G36*
X2650D02*
X2550D01*
X2540Y5949D01*
X2532Y5943D01*
X2526Y5935D01*
X2524Y5925D01*
Y5625D01*
X2526Y5615D01*
X2532Y5607D01*
X2540Y5601D01*
X2550Y5599D01*
X2557D01*
X2555Y5597D01*
X2551Y5577D01*
X2555Y5557D01*
X2560Y5549D01*
Y4546D01*
X2563Y4533D01*
X2563Y4530D01*
X2573Y4517D01*
X2694Y4395D01*
X2698Y4376D01*
X2710Y4358D01*
X2728Y4346D01*
X2750Y4342D01*
X2772Y4346D01*
X2790Y4358D01*
X2802Y4376D01*
X2806Y4398D01*
X2802Y4420D01*
X2790Y4438D01*
X2772Y4450D01*
X2753Y4454D01*
X2644Y4563D01*
Y5546D01*
X2651Y5557D01*
X2655Y5577D01*
X2651Y5597D01*
X2649Y5599D01*
X2650D01*
X2660Y5601D01*
X2668Y5607D01*
X2674Y5615D01*
X2676Y5625D01*
Y5925D01*
X2674Y5935D01*
X2668Y5943D01*
X2660Y5949D01*
X2650Y5951D01*
D02*
G37*
G36*
X4569Y3858D02*
X4528D01*
Y3817D01*
X4537Y3819D01*
X4555Y3831D01*
X4567Y3849D01*
X4569Y3858D01*
D02*
G37*
G36*
X4620Y3861D02*
X4611Y3859D01*
X4593Y3847D01*
X4581Y3829D01*
X4579Y3820D01*
X4620D01*
Y3861D01*
D02*
G37*
G36*
X4646D02*
Y3820D01*
X4687D01*
X4685Y3829D01*
X4673Y3847D01*
X4655Y3859D01*
X4646Y3861D01*
D02*
G37*
G36*
X7658Y3818D02*
X7617D01*
Y3777D01*
X7626Y3779D01*
X7644Y3791D01*
X7656Y3809D01*
X7658Y3818D01*
D02*
G37*
G36*
X4650Y5951D02*
X4550D01*
X4540Y5949D01*
X4532Y5943D01*
X4526Y5935D01*
X4524Y5925D01*
Y5625D01*
X4526Y5615D01*
X4532Y5607D01*
X4540Y5601D01*
X4548Y5599D01*
Y5596D01*
X4543Y5588D01*
X4539Y5568D01*
X4543Y5548D01*
X4548Y5540D01*
Y5064D01*
X4551Y5051D01*
X4551Y5048D01*
X4561Y5035D01*
X5221Y4374D01*
X5233Y4356D01*
X5251Y4344D01*
X5270Y4340D01*
X5771Y3840D01*
X5784Y3830D01*
X5787Y3830D01*
X5800Y3827D01*
X6473D01*
X6488Y3817D01*
X6510Y3813D01*
X6532Y3817D01*
X6550Y3829D01*
X6562Y3847D01*
X6566Y3869D01*
X6562Y3891D01*
X6550Y3909D01*
X6532Y3921D01*
X6510Y3925D01*
X6488Y3921D01*
X6473Y3911D01*
X5817D01*
X5329Y4399D01*
X5325Y4418D01*
X5313Y4436D01*
X5295Y4448D01*
X5273Y4452D01*
X5263Y4450D01*
X4632Y5081D01*
Y5537D01*
X4639Y5548D01*
X4643Y5568D01*
X4639Y5588D01*
X4633Y5597D01*
Y5599D01*
X4650D01*
X4660Y5601D01*
X4668Y5607D01*
X4674Y5615D01*
X4676Y5625D01*
Y5925D01*
X4674Y5935D01*
X4668Y5943D01*
X4660Y5949D01*
X4650Y5951D01*
D02*
G37*
G36*
X4502Y3858D02*
X4461D01*
X4463Y3849D01*
X4475Y3831D01*
X4493Y3819D01*
X4502Y3817D01*
Y3858D01*
D02*
G37*
G36*
X4528Y3925D02*
Y3884D01*
X4569D01*
X4567Y3893D01*
X4555Y3911D01*
X4537Y3923D01*
X4528Y3925D01*
D02*
G37*
G36*
X4850Y5951D02*
X4750D01*
X4740Y5949D01*
X4732Y5943D01*
X4726Y5935D01*
X4724Y5925D01*
Y5625D01*
X4726Y5615D01*
X4732Y5607D01*
X4740Y5601D01*
X4750Y5599D01*
X4768D01*
X4764Y5593D01*
X4760Y5573D01*
X4764Y5553D01*
X4769Y5545D01*
Y5033D01*
X4772Y5020D01*
X4772Y5017D01*
X4782Y5004D01*
X5365Y4421D01*
X5374Y4414D01*
X5378Y4411D01*
X5394Y4408D01*
X5431D01*
X5448Y4391D01*
X5452Y4372D01*
X5464Y4354D01*
X5482Y4342D01*
X5501Y4338D01*
X5883Y3957D01*
X5896Y3947D01*
X5899Y3947D01*
X5912Y3944D01*
X6362D01*
X6377Y3934D01*
X6399Y3930D01*
X6421Y3934D01*
X6439Y3946D01*
X6451Y3964D01*
X6455Y3986D01*
X6451Y4008D01*
X6439Y4026D01*
X6421Y4038D01*
X6399Y4042D01*
X6377Y4038D01*
X6362Y4028D01*
X5929D01*
X5560Y4397D01*
X5556Y4416D01*
X5544Y4434D01*
X5526Y4446D01*
X5507Y4450D01*
X5477Y4479D01*
X5464Y4489D01*
X5461Y4489D01*
X5448Y4492D01*
X5411D01*
X4853Y5050D01*
Y5542D01*
X4860Y5553D01*
X4864Y5573D01*
X4860Y5593D01*
X4855Y5600D01*
X4860Y5601D01*
X4868Y5607D01*
X4874Y5615D01*
X4876Y5625D01*
Y5925D01*
X4874Y5935D01*
X4868Y5943D01*
X4860Y5949D01*
X4850Y5951D01*
D02*
G37*
G36*
X8327Y4261D02*
X8286D01*
X8288Y4252D01*
X8300Y4234D01*
X8318Y4222D01*
X8327Y4220D01*
Y4261D01*
D02*
G37*
G36*
X7591Y3885D02*
X7582Y3883D01*
X7564Y3871D01*
X7552Y3853D01*
X7550Y3844D01*
X7591D01*
Y3885D01*
D02*
G37*
G36*
X7617D02*
Y3844D01*
X7658D01*
X7656Y3853D01*
X7644Y3871D01*
X7626Y3883D01*
X7617Y3885D01*
D02*
G37*
G36*
X4502Y3925D02*
X4493Y3923D01*
X4475Y3911D01*
X4463Y3893D01*
X4461Y3884D01*
X4502D01*
Y3925D01*
D02*
G37*
G36*
X5250Y5951D02*
X5150D01*
X5140Y5949D01*
X5132Y5943D01*
X5126Y5935D01*
X5124Y5925D01*
Y5625D01*
X5126Y5615D01*
X5132Y5607D01*
X5140Y5601D01*
X5150Y5599D01*
X5151D01*
X5147Y5593D01*
X5143Y5573D01*
X5147Y5553D01*
X5152Y5545D01*
Y5156D01*
X5155Y5143D01*
X5155Y5140D01*
X5165Y5127D01*
X5837Y4455D01*
X5846Y4448D01*
X5850Y4445D01*
X5866Y4442D01*
X5957D01*
X6004Y4395D01*
X6008Y4376D01*
X6020Y4358D01*
X6038Y4346D01*
X6060Y4342D01*
X6082Y4346D01*
X6100Y4358D01*
X6112Y4376D01*
X6116Y4398D01*
X6112Y4420D01*
X6100Y4438D01*
X6082Y4450D01*
X6063Y4454D01*
X6003Y4513D01*
X5990Y4523D01*
X5987Y4523D01*
X5974Y4526D01*
X5883D01*
X5236Y5173D01*
Y5542D01*
X5243Y5553D01*
X5247Y5573D01*
X5243Y5593D01*
X5239Y5599D01*
X5250D01*
X5260Y5601D01*
X5268Y5607D01*
X5274Y5615D01*
X5276Y5625D01*
Y5925D01*
X5274Y5935D01*
X5268Y5943D01*
X5260Y5949D01*
X5250Y5951D01*
D02*
G37*
G36*
X7114Y4511D02*
Y4470D01*
X7155D01*
X7153Y4479D01*
X7141Y4497D01*
X7123Y4509D01*
X7114Y4511D01*
D02*
G37*
G36*
X7780Y4513D02*
X7739D01*
X7741Y4504D01*
X7753Y4486D01*
X7771Y4474D01*
X7780Y4472D01*
Y4513D01*
D02*
G37*
G36*
X7847D02*
X7806D01*
Y4472D01*
X7815Y4474D01*
X7833Y4486D01*
X7845Y4504D01*
X7847Y4513D01*
D02*
G37*
G36*
X6490Y4498D02*
X6449D01*
X6451Y4489D01*
X6463Y4471D01*
X6481Y4459D01*
X6490Y4457D01*
Y4498D01*
D02*
G37*
G36*
X6557D02*
X6516D01*
Y4457D01*
X6525Y4459D01*
X6543Y4471D01*
X6555Y4489D01*
X6557Y4498D01*
D02*
G37*
G36*
X7088Y4511D02*
X7079Y4509D01*
X7061Y4497D01*
X7049Y4479D01*
X7047Y4470D01*
X7088D01*
Y4511D01*
D02*
G37*
G36*
X9389Y4566D02*
X9348D01*
X9350Y4557D01*
X9362Y4539D01*
X9380Y4527D01*
X9389Y4525D01*
Y4566D01*
D02*
G37*
G36*
X9456D02*
X9415D01*
Y4525D01*
X9424Y4527D01*
X9442Y4539D01*
X9454Y4557D01*
X9456Y4566D01*
D02*
G37*
G36*
X2250Y5951D02*
X2150D01*
X2140Y5949D01*
X2132Y5943D01*
X2126Y5935D01*
X2124Y5925D01*
Y5625D01*
X2126Y5615D01*
X2132Y5607D01*
X2140Y5601D01*
X2150Y5599D01*
X2159D01*
X2156Y5595D01*
X2152Y5575D01*
X2156Y5555D01*
X2167Y5538D01*
X2184Y5527D01*
X2195Y5525D01*
X2216Y5504D01*
Y4537D01*
X2212Y4543D01*
X2210Y4545D01*
X2209Y4545D01*
X2209Y4546D01*
X2207Y4548D01*
X2188Y4562D01*
X2186Y4563D01*
X2185Y4564D01*
X2184Y4564D01*
X2182Y4566D01*
X2160Y4575D01*
X2158Y4575D01*
X2157Y4575D01*
X2156Y4576D01*
X2154Y4576D01*
X2130Y4579D01*
X2129Y4579D01*
X2127Y4580D01*
X2125Y4579D01*
X2124Y4579D01*
X2100Y4576D01*
X2098Y4576D01*
X2097Y4575D01*
X2096Y4575D01*
X2094Y4575D01*
X2072Y4566D01*
X2070Y4564D01*
X2069Y4564D01*
X2068Y4563D01*
X2066Y4562D01*
X2047Y4548D01*
X2045Y4546D01*
X2045Y4545D01*
X2044Y4545D01*
X2042Y4543D01*
X2028Y4524D01*
X2027Y4522D01*
X2026Y4521D01*
X2026Y4520D01*
X2024Y4518D01*
X2015Y4496D01*
X2015Y4494D01*
X2015Y4493D01*
X2014Y4492D01*
X2014Y4490D01*
X2011Y4466D01*
X2011Y4464D01*
X2011Y4463D01*
X2011Y4462D01*
X2011Y4460D01*
X2014Y4436D01*
X2014Y4434D01*
X2015Y4433D01*
X2015Y4432D01*
X2015Y4430D01*
X2024Y4408D01*
X2026Y4406D01*
X2026Y4405D01*
X2027Y4404D01*
X2028Y4402D01*
X2042Y4383D01*
X2044Y4381D01*
X2045Y4381D01*
X2045Y4380D01*
X2047Y4378D01*
X2066Y4364D01*
X2068Y4363D01*
X2069Y4362D01*
X2070Y4362D01*
X2072Y4360D01*
X2094Y4351D01*
X2096Y4351D01*
X2097Y4351D01*
X2098Y4350D01*
X2100Y4350D01*
X2124Y4347D01*
X2125Y4347D01*
X2127Y4346D01*
X2129Y4347D01*
X2130Y4347D01*
X2154Y4350D01*
X2156Y4350D01*
X2157Y4351D01*
X2158Y4351D01*
X2160Y4351D01*
X2182Y4360D01*
X2184Y4362D01*
X2185Y4362D01*
X2186Y4363D01*
X2188Y4364D01*
X2207Y4378D01*
X2209Y4380D01*
X2209Y4381D01*
X2210Y4381D01*
X2212Y4383D01*
X2226Y4402D01*
X2227Y4404D01*
X2228Y4405D01*
X2228Y4406D01*
X2230Y4408D01*
X2238Y4427D01*
X2260Y4405D01*
X2264Y4386D01*
X2276Y4368D01*
X2294Y4356D01*
X2316Y4352D01*
X2338Y4356D01*
X2356Y4368D01*
X2368Y4386D01*
X2372Y4408D01*
X2368Y4430D01*
X2356Y4448D01*
X2338Y4460D01*
X2319Y4464D01*
X2300Y4483D01*
Y5521D01*
X2296Y5537D01*
X2287Y5551D01*
X2254Y5584D01*
X2252Y5595D01*
X2249Y5599D01*
X2250D01*
X2260Y5601D01*
X2268Y5607D01*
X2274Y5615D01*
X2276Y5625D01*
Y5925D01*
X2274Y5935D01*
X2268Y5943D01*
X2260Y5949D01*
X2250Y5951D01*
D02*
G37*
G36*
X5650D02*
X5550D01*
X5540Y5949D01*
X5532Y5943D01*
X5526Y5935D01*
X5524Y5925D01*
Y5625D01*
X5526Y5615D01*
X5532Y5607D01*
X5533Y5606D01*
Y5248D01*
X5538Y5224D01*
X5551Y5204D01*
X6249Y4507D01*
X6249Y4507D01*
X6234Y4510D01*
X6142D01*
X5444Y5208D01*
Y5538D01*
X5454Y5553D01*
X5458Y5573D01*
X5454Y5593D01*
X5450Y5599D01*
X5450D01*
X5460Y5601D01*
X5468Y5607D01*
X5474Y5615D01*
X5476Y5625D01*
Y5925D01*
X5474Y5935D01*
X5468Y5943D01*
X5460Y5949D01*
X5450Y5951D01*
X5350D01*
X5340Y5949D01*
X5332Y5943D01*
X5326Y5935D01*
X5324Y5925D01*
Y5625D01*
X5326Y5615D01*
X5332Y5607D01*
X5340Y5601D01*
X5350Y5599D01*
X5362D01*
X5358Y5593D01*
X5354Y5573D01*
X5358Y5553D01*
X5366Y5541D01*
Y5192D01*
X5369Y5177D01*
X5378Y5165D01*
X6099Y4444D01*
X6111Y4435D01*
X6126Y4432D01*
X6218D01*
X6251Y4399D01*
X6251Y4398D01*
X6255Y4376D01*
X6267Y4358D01*
X6285Y4346D01*
X6307Y4342D01*
X6329Y4346D01*
X6347Y4358D01*
X6359Y4376D01*
X6363Y4393D01*
X6521Y4234D01*
X6579Y4177D01*
Y3687D01*
X6561Y3699D01*
X6539Y3703D01*
X6520Y3700D01*
X6525Y3707D01*
X6529Y3729D01*
X6525Y3751D01*
X6513Y3769D01*
X6495Y3781D01*
X6473Y3785D01*
X6451Y3781D01*
X6436Y3771D01*
X5632D01*
X5064Y4339D01*
Y4351D01*
X5074Y4366D01*
X5078Y4388D01*
X5074Y4410D01*
X5062Y4428D01*
X5044Y4440D01*
X5030Y4443D01*
X4434Y5039D01*
Y5537D01*
X4441Y5548D01*
X4445Y5568D01*
X4441Y5588D01*
X4434Y5599D01*
Y5599D01*
X4450D01*
X4460Y5601D01*
X4468Y5607D01*
X4474Y5615D01*
X4476Y5625D01*
Y5925D01*
X4474Y5935D01*
X4468Y5943D01*
X4460Y5949D01*
X4450Y5951D01*
X4350D01*
X4340Y5949D01*
X4332Y5943D01*
X4326Y5935D01*
X4324Y5925D01*
Y5625D01*
X4326Y5615D01*
X4332Y5607D01*
X4340Y5601D01*
X4350Y5599D01*
X4350D01*
Y5596D01*
X4345Y5588D01*
X4341Y5568D01*
X4345Y5548D01*
X4350Y5540D01*
Y5022D01*
X4353Y5009D01*
X4353Y5006D01*
X4363Y4993D01*
X4966Y4389D01*
X4966Y4388D01*
X4970Y4366D01*
X4980Y4351D01*
Y4322D01*
X4983Y4309D01*
X4983Y4306D01*
X4993Y4293D01*
X5586Y3700D01*
X5599Y3690D01*
X5602Y3690D01*
X5615Y3687D01*
X6436D01*
X6438Y3686D01*
X5457D01*
X4837Y4306D01*
Y4372D01*
X4842Y4380D01*
X4846Y4402D01*
X4842Y4424D01*
X4830Y4442D01*
X4812Y4454D01*
X4790Y4458D01*
X4787Y4458D01*
X4252Y4993D01*
Y5538D01*
X4259Y5549D01*
X4263Y5569D01*
X4259Y5589D01*
X4252Y5599D01*
X4260Y5601D01*
X4268Y5607D01*
X4274Y5615D01*
X4276Y5625D01*
Y5925D01*
X4274Y5935D01*
X4268Y5943D01*
X4260Y5949D01*
X4250Y5951D01*
X4150D01*
X4140Y5949D01*
X4132Y5943D01*
X4126Y5935D01*
X4124Y5925D01*
Y5625D01*
X4126Y5615D01*
X4132Y5607D01*
X4140Y5601D01*
X4150Y5599D01*
X4168D01*
Y5597D01*
X4163Y5589D01*
X4159Y5569D01*
X4163Y5549D01*
X4168Y5541D01*
Y4976D01*
X4171Y4963D01*
X4171Y4960D01*
X4181Y4947D01*
X4736Y4391D01*
X4738Y4380D01*
X4750Y4362D01*
X4753Y4360D01*
Y4289D01*
X4756Y4276D01*
X4756Y4273D01*
X4766Y4260D01*
X5411Y3615D01*
X5420Y3608D01*
X5424Y3605D01*
X5440Y3602D01*
X6506D01*
X6517Y3595D01*
X6539Y3591D01*
X6561Y3595D01*
X6579Y3607D01*
Y2924D01*
X6451Y2796D01*
X6378D01*
Y2908D01*
X6378Y2908D01*
X6373Y2932D01*
X6360Y2952D01*
X5905Y3407D01*
X5885Y3420D01*
X5861Y3425D01*
X3643D01*
X3377Y3690D01*
Y3779D01*
X3375Y3789D01*
X3369Y3797D01*
X3361Y3803D01*
X3351Y3805D01*
X3201D01*
X3191Y3803D01*
X3183Y3797D01*
X3177Y3789D01*
X3175Y3779D01*
Y3629D01*
X3177Y3619D01*
X3183Y3611D01*
X3191Y3605D01*
X3201Y3603D01*
X3290D01*
X3573Y3319D01*
X3593Y3306D01*
X3617Y3301D01*
X5835D01*
X6254Y2883D01*
Y2734D01*
X6259Y2711D01*
X6272Y2691D01*
X6292Y2678D01*
X6316Y2673D01*
X6476D01*
X6500Y2678D01*
X6520Y2691D01*
X6684Y2855D01*
X6697Y2875D01*
X6702Y2898D01*
Y4203D01*
X6699Y4216D01*
X8139D01*
X9018Y3338D01*
X9017Y3336D01*
X9020Y3313D01*
X9029Y3291D01*
X9044Y3273D01*
X9062Y3258D01*
X9084Y3249D01*
X9107Y3246D01*
X9130Y3249D01*
X9152Y3258D01*
X9170Y3273D01*
X9185Y3291D01*
X9194Y3313D01*
X9197Y3336D01*
X9194Y3359D01*
X9185Y3381D01*
X9170Y3399D01*
X9152Y3414D01*
X9130Y3423D01*
X9107Y3426D01*
X9105Y3425D01*
X8209Y4322D01*
X8189Y4335D01*
X8165Y4340D01*
X6591D01*
X6530Y4400D01*
X6528Y4410D01*
X6516Y4428D01*
X6498Y4440D01*
X6488Y4442D01*
X5657Y5274D01*
Y5600D01*
X5660Y5601D01*
X5668Y5607D01*
X5674Y5615D01*
X5676Y5625D01*
Y5925D01*
X5674Y5935D01*
X5668Y5943D01*
X5660Y5949D01*
X5650Y5951D01*
D02*
G37*
G36*
X6490Y4565D02*
X6481Y4563D01*
X6463Y4551D01*
X6451Y4533D01*
X6449Y4524D01*
X6490D01*
Y4565D01*
D02*
G37*
G36*
X6516D02*
Y4524D01*
X6557D01*
X6555Y4533D01*
X6543Y4551D01*
X6525Y4563D01*
X6516Y4565D01*
D02*
G37*
G36*
X3250Y5951D02*
X3150D01*
X3140Y5949D01*
X3132Y5943D01*
X3126Y5935D01*
X3124Y5925D01*
Y5625D01*
X3126Y5615D01*
X3132Y5607D01*
X3140Y5601D01*
X3143Y5601D01*
X3139Y5595D01*
X3135Y5575D01*
X3139Y5555D01*
X3144Y5547D01*
Y4743D01*
X3147Y4730D01*
X3147Y4727D01*
X3157Y4714D01*
X3468Y4402D01*
X3472Y4383D01*
X3484Y4365D01*
X3502Y4353D01*
X3524Y4349D01*
X3546Y4353D01*
X3564Y4365D01*
X3576Y4383D01*
X3580Y4405D01*
X3576Y4427D01*
X3564Y4445D01*
X3546Y4457D01*
X3527Y4461D01*
X3228Y4760D01*
Y5544D01*
X3235Y5555D01*
X3239Y5575D01*
X3235Y5595D01*
X3232Y5599D01*
X3250D01*
X3260Y5601D01*
X3268Y5607D01*
X3274Y5615D01*
X3276Y5625D01*
Y5925D01*
X3274Y5935D01*
X3268Y5943D01*
X3260Y5949D01*
X3250Y5951D01*
D02*
G37*
G36*
X3850D02*
X3750D01*
X3740Y5949D01*
X3732Y5943D01*
X3726Y5935D01*
X3724Y5925D01*
Y5625D01*
X3726Y5615D01*
X3732Y5607D01*
X3740Y5601D01*
X3745Y5600D01*
X3740Y5593D01*
X3736Y5573D01*
X3740Y5553D01*
X3745Y5545D01*
Y4988D01*
X3748Y4975D01*
X3748Y4972D01*
X3758Y4959D01*
X4250Y4466D01*
Y4454D01*
X4240Y4439D01*
X4236Y4417D01*
X4240Y4395D01*
X4252Y4377D01*
X4270Y4365D01*
X4292Y4361D01*
X4314Y4365D01*
X4332Y4377D01*
X4344Y4395D01*
X4348Y4417D01*
X4344Y4439D01*
X4334Y4454D01*
Y4483D01*
X4331Y4499D01*
X4321Y4512D01*
X3829Y5005D01*
Y5542D01*
X3836Y5553D01*
X3840Y5573D01*
X3836Y5593D01*
X3832Y5599D01*
X3850D01*
X3860Y5601D01*
X3868Y5607D01*
X3874Y5615D01*
X3876Y5625D01*
Y5925D01*
X3874Y5935D01*
X3868Y5943D01*
X3860Y5949D01*
X3850Y5951D01*
D02*
G37*
G36*
X3872Y4429D02*
X3831D01*
X3833Y4420D01*
X3845Y4402D01*
X3863Y4390D01*
X3872Y4388D01*
Y4429D01*
D02*
G37*
G36*
X1102Y4385D02*
X1093Y4383D01*
X1075Y4371D01*
X1063Y4353D01*
X1061Y4344D01*
X1102D01*
Y4385D01*
D02*
G37*
G36*
X1128D02*
Y4344D01*
X1169D01*
X1167Y4353D01*
X1155Y4371D01*
X1137Y4383D01*
X1128Y4385D01*
D02*
G37*
G36*
X5050Y5951D02*
X4950D01*
X4940Y5949D01*
X4932Y5943D01*
X4926Y5935D01*
X4924Y5925D01*
Y5625D01*
X4926Y5615D01*
X4932Y5607D01*
X4940Y5601D01*
X4950Y5599D01*
X4953D01*
X4953Y5599D01*
X4949Y5579D01*
X4953Y5559D01*
X4958Y5551D01*
Y5094D01*
X4961Y5081D01*
X4961Y5078D01*
X4971Y5065D01*
X5603Y4433D01*
X5616Y4423D01*
X5619Y4423D01*
X5632Y4420D01*
X5674D01*
X5694Y4400D01*
X5698Y4381D01*
X5710Y4363D01*
X5728Y4351D01*
X5750Y4347D01*
X5772Y4351D01*
X5790Y4363D01*
X5802Y4381D01*
X5806Y4403D01*
X5802Y4425D01*
X5790Y4443D01*
X5772Y4455D01*
X5753Y4459D01*
X5720Y4491D01*
X5707Y4501D01*
X5704Y4501D01*
X5691Y4504D01*
X5649D01*
X5042Y5111D01*
Y5548D01*
X5049Y5559D01*
X5053Y5579D01*
X5049Y5599D01*
X5049Y5599D01*
X5050D01*
X5060Y5601D01*
X5068Y5607D01*
X5074Y5615D01*
X5076Y5625D01*
Y5925D01*
X5074Y5935D01*
X5068Y5943D01*
X5060Y5949D01*
X5050Y5951D01*
D02*
G37*
G36*
X3872Y4496D02*
X3863Y4494D01*
X3845Y4482D01*
X3833Y4464D01*
X3831Y4455D01*
X3872D01*
Y4496D01*
D02*
G37*
G36*
X3898D02*
Y4455D01*
X3939D01*
X3937Y4464D01*
X3925Y4482D01*
X3907Y4494D01*
X3898Y4496D01*
D02*
G37*
G36*
X7155Y4444D02*
X7114D01*
Y4403D01*
X7123Y4405D01*
X7141Y4417D01*
X7153Y4435D01*
X7155Y4444D01*
D02*
G37*
G36*
X3939Y4429D02*
X3898D01*
Y4388D01*
X3907Y4390D01*
X3925Y4402D01*
X3937Y4420D01*
X3939Y4429D01*
D02*
G37*
G36*
X7088Y4444D02*
X7047D01*
X7049Y4435D01*
X7061Y4417D01*
X7079Y4405D01*
X7088Y4403D01*
Y4444D01*
D02*
G37*
%LPD*%
G36*
X4434Y2894D02*
Y2886D01*
X4432Y2888D01*
Y2896D01*
X4434Y2894D01*
D02*
G37*
D14*
X2000Y6225D02*
D03*
Y5775D02*
D03*
X2200Y6225D02*
D03*
Y5775D02*
D03*
X2400Y6225D02*
D03*
Y5775D02*
D03*
X2600Y6225D02*
D03*
Y5775D02*
D03*
X2800Y6225D02*
D03*
Y5775D02*
D03*
X3000Y6225D02*
D03*
Y5775D02*
D03*
X3200Y6225D02*
D03*
Y5775D02*
D03*
X3400Y6225D02*
D03*
Y5775D02*
D03*
X3600Y6225D02*
D03*
Y5775D02*
D03*
X3800Y6225D02*
D03*
Y5775D02*
D03*
X4000Y6225D02*
D03*
Y5775D02*
D03*
X4200Y6225D02*
D03*
Y5775D02*
D03*
X4400Y6225D02*
D03*
Y5775D02*
D03*
X4600Y6225D02*
D03*
Y5775D02*
D03*
X4800Y6225D02*
D03*
Y5775D02*
D03*
X5000Y6225D02*
D03*
Y5775D02*
D03*
X5200Y6225D02*
D03*
Y5775D02*
D03*
X5400Y6225D02*
D03*
Y5775D02*
D03*
X5600Y6225D02*
D03*
Y5775D02*
D03*
X5800Y6225D02*
D03*
Y5775D02*
D03*
D19*
X4811Y5033D02*
Y5693D01*
X4590Y5064D02*
Y5688D01*
Y5064D02*
X5265Y4388D01*
X4210Y4976D02*
X4795Y4391D01*
X4210Y4976D02*
Y5689D01*
X4392Y5022D02*
Y5688D01*
Y5022D02*
X5026Y4388D01*
X4591Y5568D02*
Y5703D01*
X4812Y5573D02*
Y5724D01*
X4795Y4289D02*
Y4391D01*
X3998Y5015D02*
X4542Y4471D01*
X3605Y4895D02*
X4028Y4472D01*
X3260Y4398D02*
Y4408D01*
X2400Y6024D02*
Y6208D01*
X4995Y6026D02*
Y6203D01*
X5398Y6022D02*
Y6206D01*
X5596Y6022D02*
Y6204D01*
X2204Y5575D02*
X2258Y5521D01*
Y4466D02*
Y5521D01*
X2204Y5575D02*
Y5771D01*
X4292Y4417D02*
Y4483D01*
X3787Y4988D02*
X4292Y4483D01*
X2602Y4546D02*
X2750Y4398D01*
X2400Y4470D02*
X2493Y4377D01*
X2258Y4466D02*
X2316Y4408D01*
X3395Y4767D02*
X3768Y4394D01*
X4028Y4398D02*
Y4472D01*
X4542Y4391D02*
Y4471D01*
X5022Y4388D02*
X5026D01*
X5022Y4322D02*
Y4388D01*
X5194Y5156D02*
X5866Y4484D01*
X5974D01*
X6060Y4398D01*
X5000Y5094D02*
X5632Y4462D01*
X5691D01*
X5750Y4403D01*
X4811Y5033D02*
X5394Y4450D01*
X5448D01*
X5504Y4394D01*
X3186Y4743D02*
X3524Y4405D01*
X2985Y4673D02*
X3260Y4398D01*
X2799Y4599D02*
X3010Y4388D01*
X4795Y4289D02*
X5440Y3644D01*
X6536D02*
X6539Y3647D01*
X5440Y3644D02*
X6536D01*
X5615Y3729D02*
X6473D01*
X5022Y4322D02*
X5615Y3729D01*
X5273Y4396D02*
X5800Y3869D01*
X6510D01*
X5504Y4394D02*
X5912Y3986D01*
X6399D01*
X2400Y4470D02*
Y5689D01*
X2602Y4546D02*
Y5697D01*
X2799Y4599D02*
Y5699D01*
X2985Y4673D02*
Y5699D01*
X3186Y4743D02*
Y5695D01*
X3395Y4767D02*
Y5686D01*
X3605Y4895D02*
Y5693D01*
X3787Y4988D02*
Y5693D01*
X3998Y5015D02*
Y5697D01*
X5000Y5094D02*
Y5699D01*
X5194Y5156D02*
Y5693D01*
D20*
X5405Y5192D02*
Y5693D01*
X2202Y6019D02*
Y6210D01*
X2597Y6022D02*
Y6205D01*
X2806Y6024D02*
Y6214D01*
X2994Y6024D02*
Y6202D01*
X3201Y6026D02*
Y6209D01*
X3395Y6026D02*
Y6203D01*
X3598Y6026D02*
Y6206D01*
X3797Y6022D02*
Y6205D01*
X4004Y6024D02*
Y6212D01*
X4202Y6022D02*
Y6210D01*
X4401Y6024D02*
Y6209D01*
X4593Y6026D02*
Y6201D01*
X4796Y6024D02*
Y6204D01*
X5195Y6024D02*
Y6203D01*
X5405Y5192D02*
X6126Y4471D01*
X6234D01*
X6307Y4398D01*
D21*
X5595Y5248D02*
X6565Y4278D01*
X5595Y5248D02*
Y5693D01*
X5861Y3363D02*
X6316Y2908D01*
Y2734D02*
X6476D01*
X6316D02*
Y2908D01*
X6476Y2734D02*
X6640Y2898D01*
Y4203D01*
X6565Y4278D02*
X6640Y4203D01*
X8165Y4278D02*
X9107Y3336D01*
X6565Y4278D02*
X8165D01*
X3276Y3704D02*
X3617Y3363D01*
X5861D01*
D22*
X5115Y2174D02*
Y2325D01*
X5194Y2124D02*
X5195Y2125D01*
Y2325D01*
D23*
X1400Y2850D02*
D03*
X9100D02*
D03*
X1400Y6000D02*
D03*
D24*
X9100D02*
D03*
D25*
X5685Y2545D02*
D03*
D26*
X2865D02*
D03*
D27*
X2006Y3704D02*
D03*
X2260D02*
D03*
X2514D02*
D03*
X2768D02*
D03*
X3022D02*
D03*
D28*
X3276D02*
D03*
D29*
X6412Y2005D02*
D03*
X6912D02*
D03*
D30*
X6699Y4461D02*
D03*
X2127Y4463D02*
D03*
D31*
X6316Y2734D02*
D03*
X6871Y3530D02*
D03*
X6503Y4511D02*
D03*
X6597Y5681D02*
D03*
X6584Y6197D02*
D03*
X3885Y4442D02*
D03*
X4633Y3807D02*
D03*
X4515Y3871D02*
D03*
X5675Y2836D02*
D03*
X5696Y2071D02*
D03*
X2847Y2041D02*
D03*
X2862Y2790D02*
D03*
X5962Y3010D02*
D03*
X6083Y2743D02*
D03*
X6475Y2959D02*
D03*
X8049Y3098D02*
D03*
X7373Y2713D02*
D03*
X7113Y2978D02*
D03*
X7834Y3256D02*
D03*
X8327Y3718D02*
D03*
X8359Y5476D02*
D03*
X8353Y4831D02*
D03*
X8340Y4274D02*
D03*
X9402Y4579D02*
D03*
X1115Y4331D02*
D03*
X9367Y1117D02*
D03*
X1088Y1081D02*
D03*
X6476Y4388D02*
D03*
X6307Y4398D02*
D03*
X6060D02*
D03*
X5750Y4403D02*
D03*
X4790Y4402D02*
D03*
X4537Y4391D02*
D03*
X4023Y4398D02*
D03*
X3763D02*
D03*
X3524Y4405D02*
D03*
X3260Y4398D02*
D03*
X3010Y4388D02*
D03*
X2750Y4398D02*
D03*
X2493Y4377D02*
D03*
X4292Y4417D02*
D03*
X2316Y4408D02*
D03*
X5022Y4388D02*
D03*
X5273Y4396D02*
D03*
X5504Y4394D02*
D03*
X6539Y3647D02*
D03*
X6473Y3729D02*
D03*
X6510Y3869D02*
D03*
X6399Y3986D02*
D03*
X7604Y3831D02*
D03*
X7793Y4526D02*
D03*
X7416Y4822D02*
D03*
X7101Y4457D02*
D03*
X5110Y2174D02*
D03*
X5194Y2124D02*
D03*
D32*
X2603Y5577D02*
D03*
X2800Y5579D02*
D03*
X3187Y5575D02*
D03*
X3396Y5566D02*
D03*
X3606Y5573D02*
D03*
X3788D02*
D03*
X3999Y5577D02*
D03*
X4211Y5569D02*
D03*
X4393Y5568D02*
D03*
X4591D02*
D03*
X4812Y5573D02*
D03*
X5001Y5579D02*
D03*
X5195Y5573D02*
D03*
X5406D02*
D03*
X5596D02*
D03*
X5803Y5571D02*
D03*
X5793Y6020D02*
D03*
X5596Y6022D02*
D03*
X5398D02*
D03*
X5195Y6024D02*
D03*
X4995Y6026D02*
D03*
X4796Y6024D02*
D03*
X4593Y6026D02*
D03*
X4401Y6024D02*
D03*
X4202Y6022D02*
D03*
X4004Y6024D02*
D03*
X3797Y6022D02*
D03*
X3598Y6026D02*
D03*
X3395D02*
D03*
X3201D02*
D03*
X2994Y6024D02*
D03*
X2806D02*
D03*
X2597Y6022D02*
D03*
X2001Y6015D02*
D03*
Y5573D02*
D03*
X2400Y6024D02*
D03*
X2202Y6019D02*
D03*
X2986Y5579D02*
D03*
X2204Y5575D02*
D03*
X2401Y5569D02*
D03*
D33*
X9107Y3336D02*
D03*
D34*
X3115Y2765D02*
D03*
X3195Y2325D02*
D03*
X3275D02*
D03*
X3355D02*
D03*
X3435D02*
D03*
X3515D02*
D03*
X3595D02*
D03*
X3675D02*
D03*
X3755D02*
D03*
X3835D02*
D03*
X3915D02*
D03*
X3995D02*
D03*
X4075D02*
D03*
X4155D02*
D03*
X4235D02*
D03*
X4315D02*
D03*
X4395D02*
D03*
X4475D02*
D03*
X4555D02*
D03*
X4635D02*
D03*
X4715D02*
D03*
X4795D02*
D03*
X4875D02*
D03*
X4955D02*
D03*
X5035D02*
D03*
X5115D02*
D03*
X5195D02*
D03*
X5275D02*
D03*
X5355D02*
D03*
X5435D02*
D03*
X3115D02*
D03*
X3195Y2765D02*
D03*
X3275D02*
D03*
X3355D02*
D03*
X3435D02*
D03*
X3515D02*
D03*
X3595D02*
D03*
X3675D02*
D03*
X3755D02*
D03*
X3835D02*
D03*
X3915D02*
D03*
X3995D02*
D03*
X4075D02*
D03*
X4155D02*
D03*
X4235D02*
D03*
X4315D02*
D03*
X4395D02*
D03*
X4475D02*
D03*
X4555D02*
D03*
X4635D02*
D03*
X4715D02*
D03*
X4795D02*
D03*
X4875D02*
D03*
X4955D02*
D03*
X5035D02*
D03*
X5115D02*
D03*
X5195D02*
D03*
X5275D02*
D03*
X5355D02*
D03*
X5435D02*
D03*
D35*
X3022Y3637D02*
Y3704D01*
Y3637D02*
X3408Y3251D01*
X4215D01*
X2768Y3704D02*
X3358Y3114D01*
X4272D01*
X4475Y2911D01*
Y2765D02*
Y2911D01*
X2514Y3704D02*
X3184Y3034D01*
X4272D01*
X4390Y2916D01*
X2260Y3704D02*
X2985Y2979D01*
X4227D01*
X4315Y2891D01*
Y2765D02*
Y2891D01*
X4390Y2765D02*
Y2916D01*
X4215Y3251D02*
X4555Y2911D01*
Y2765D02*
Y2911D01*
M02*
