G04 Layer_Color=32896*
%FSLAX42Y42*%
%MOMM*%
G71*
G01*
G75*
%ADD20C,0.25*%
%ADD36C,0.20*%
%ADD41C,0.20*%
D20*
X1211Y1214D02*
X1262D01*
X1237D01*
Y1367D01*
X1211D01*
X1262D01*
X1415Y1214D02*
X1364D01*
X1338Y1240D01*
Y1341D01*
X1364Y1367D01*
X1415D01*
X1440Y1341D01*
Y1240D01*
X1415Y1214D01*
X1491Y1291D02*
X1592D01*
X1643Y1214D02*
X1745D01*
X1694D01*
Y1367D01*
X1872D02*
X1821D01*
X1795Y1341D01*
Y1291D01*
X1821Y1265D01*
X1872D01*
X1897Y1291D01*
Y1316D01*
X1795D01*
X1948Y1367D02*
X2024D01*
X2049Y1341D01*
X2024Y1316D01*
X1973D01*
X1948Y1291D01*
X1973Y1265D01*
X2049D01*
X2126Y1240D02*
Y1265D01*
X2100D01*
X2151D01*
X2126D01*
Y1341D01*
X2151Y1367D01*
X2227D02*
X2278D01*
X2252D01*
Y1265D01*
X2227D01*
X2354Y1367D02*
Y1265D01*
X2430D01*
X2456Y1291D01*
Y1367D01*
X2557Y1418D02*
X2583D01*
X2608Y1392D01*
Y1265D01*
X2532D01*
X2506Y1291D01*
Y1341D01*
X2532Y1367D01*
X2608D01*
X2659Y1291D02*
X2760D01*
X2811Y1367D02*
Y1214D01*
X2862Y1265D01*
X2913Y1214D01*
Y1367D01*
X3040D02*
X2989D01*
X2963Y1341D01*
Y1291D01*
X2989Y1265D01*
X3040D01*
X3065Y1291D01*
Y1316D01*
X2963D01*
X3116Y1265D02*
X3217D01*
X3116Y1367D01*
X3217D01*
X3268Y1265D02*
X3370D01*
X3268Y1367D01*
X3370D01*
X3446Y1265D02*
X3497D01*
X3522Y1291D01*
Y1367D01*
X3446D01*
X3420Y1341D01*
X3446Y1316D01*
X3522D01*
X3573Y1367D02*
Y1265D01*
X3649D01*
X3674Y1291D01*
Y1367D01*
X3725D02*
X3776D01*
X3751D01*
Y1265D01*
X3725D01*
X3852Y1367D02*
Y1265D01*
X3928D01*
X3954Y1291D01*
Y1367D01*
X4081D02*
X4030D01*
X4004Y1341D01*
Y1291D01*
X4030Y1265D01*
X4081D01*
X4106Y1291D01*
Y1316D01*
X4004D01*
X4157Y1291D02*
X4258D01*
X4309Y1265D02*
X4360Y1367D01*
X4411Y1265D01*
X4462Y1240D02*
X4487Y1214D01*
X4538D01*
X4563Y1240D01*
Y1341D01*
X4538Y1367D01*
X4487D01*
X4462Y1341D01*
Y1240D01*
X4715Y1367D02*
X4614D01*
X4715Y1265D01*
Y1240D01*
X4690Y1214D01*
X4639D01*
X4614Y1240D01*
X1673Y5591D02*
Y5439D01*
X1749D01*
X1775Y5464D01*
Y5515D01*
X1749Y5540D01*
X1673D01*
X1825Y5591D02*
X1876D01*
X1851D01*
Y5439D01*
X1825Y5464D01*
X5864Y2640D02*
Y2488D01*
X5940D01*
X5966Y2513D01*
Y2564D01*
X5940Y2589D01*
X5864D01*
X6118Y2640D02*
X6016D01*
X6118Y2538D01*
Y2513D01*
X6093Y2488D01*
X6042D01*
X6016Y2513D01*
D36*
X5874Y5744D02*
X5975D01*
X5874Y6252D02*
X5975D01*
X1822D02*
X1924D01*
X1822Y5744D02*
X1924D01*
X5975D02*
Y6252D01*
X1822Y5744D02*
Y6252D01*
X2764Y2177D02*
X5786D01*
Y2913D01*
X2764D02*
X5786D01*
X2764Y2177D02*
Y2913D01*
D41*
X1742Y5836D02*
X1784D01*
X1763D01*
Y5709D01*
X1742Y5730D01*
X6014Y5717D02*
X6035Y5696D01*
X6077D01*
X6099Y5717D01*
Y5738D01*
X6077Y5760D01*
X6056D01*
X6077D01*
X6099Y5781D01*
Y5802D01*
X6077Y5823D01*
X6035D01*
X6014Y5802D01*
X6141D02*
X6162Y5823D01*
X6204D01*
X6226Y5802D01*
Y5717D01*
X6204Y5696D01*
X6162D01*
X6141Y5717D01*
Y5738D01*
X6162Y5760D01*
X6226D01*
X6080Y6306D02*
Y6179D01*
X6017Y6243D01*
X6102D01*
X6144Y6200D02*
X6165Y6179D01*
X6207D01*
X6229Y6200D01*
Y6285D01*
X6207Y6306D01*
X6165D01*
X6144Y6285D01*
Y6200D01*
X1774Y6272D02*
X1689D01*
X1774Y6187D01*
Y6166D01*
X1752Y6145D01*
X1710D01*
X1689Y6166D01*
X3140Y3078D02*
X3056D01*
X3140Y2994D01*
Y2973D01*
X3119Y2951D01*
X3077D01*
X3056Y2973D01*
X5451Y2963D02*
X5408Y2984D01*
X5366Y3027D01*
Y3069D01*
X5387Y3090D01*
X5430D01*
X5451Y3069D01*
Y3048D01*
X5430Y3027D01*
X5366D01*
X5493Y2984D02*
X5514Y2963D01*
X5557D01*
X5578Y2984D01*
Y3069D01*
X5557Y3090D01*
X5514D01*
X5493Y3069D01*
Y2984D01*
X5465Y1999D02*
X5380D01*
Y2062D01*
X5422Y2041D01*
X5443D01*
X5465Y2062D01*
Y2105D01*
X5443Y2126D01*
X5401D01*
X5380Y2105D01*
X5507D02*
X5528Y2126D01*
X5570D01*
X5591Y2105D01*
Y2020D01*
X5570Y1999D01*
X5528D01*
X5507Y2020D01*
Y2041D01*
X5528Y2062D01*
X5591D01*
X3043Y2126D02*
X3085D01*
X3064D01*
Y1999D01*
X3043Y2020D01*
M02*
