%FSTAX24Y24*%
%MOMM*%
%SFA1B1*%

%IPPOS*%
%ADD12R,0.999998X2.999994*%
%ADD21C,4.999990*%
%ADD22C,3.999992*%
%ADD23C,1.199998*%
%ADD24C,0.799998*%
%ADD25C,1.499997*%
%ADD26R,1.499997X1.499997*%
%ADD27C,1.299997*%
%ADD28C,1.799996*%
%ADD32R,0.499999X1.999996*%
%LNio-testing-mezzanine-1*%
%LPD*%
G54D12*
X199999Y622499D03*
Y577499D03*
X219999Y622499D03*
Y577499D03*
X239999Y622499D03*
Y577499D03*
X259999Y622499D03*
Y577499D03*
X279999Y622499D03*
Y577499D03*
X299999Y622499D03*
Y577499D03*
X319999Y622499D03*
Y577499D03*
X339999Y622499D03*
Y577499D03*
X359999Y622499D03*
Y577499D03*
X379999Y622499D03*
Y577499D03*
X399999Y622499D03*
Y577499D03*
X419999Y622499D03*
Y577499D03*
X439999Y622499D03*
Y577499D03*
X459999Y622499D03*
Y577499D03*
X479999Y622499D03*
Y577499D03*
X499999Y622499D03*
Y577499D03*
X519999Y622499D03*
Y577499D03*
X539999Y622499D03*
Y577499D03*
X559999Y622499D03*
Y577499D03*
X579999Y622499D03*
Y577499D03*
G54D21*
X139999Y284999D03*
X909999D03*
X139999Y599999D03*
G54D22*
X909999Y599999D03*
G54D23*
X568499Y254499D03*
G54D24*
X286499Y254499D03*
G54D25*
X200599Y370399D03*
X225999D03*
X251399D03*
X276799D03*
X302199D03*
G54D26*
X327599Y370399D03*
G54D27*
X657999Y200499D03*
X707999D03*
G54D28*
X669899Y446099D03*
X212699Y446299D03*
G54D32*
X311499Y276499D03*
X319499Y232499D03*
X327499D03*
X335499D03*
X343499D03*
X351499D03*
X359499D03*
X367499D03*
X375499D03*
X383499D03*
X391499D03*
X399499D03*
X407499D03*
X415499D03*
X423499D03*
X431499D03*
X439499D03*
X447499D03*
X455499D03*
X463499D03*
X471499D03*
X479499D03*
X487499D03*
X495499D03*
X503499D03*
X511499D03*
X519499D03*
X527499D03*
X535499D03*
X543499D03*
X311499D03*
X319499Y276499D03*
X327499D03*
X335499D03*
X343499D03*
X351499D03*
X359499D03*
X367499D03*
X375499D03*
X383499D03*
X391499D03*
X399499D03*
X407499D03*
X415499D03*
X423499D03*
X431499D03*
X439499D03*
X447499D03*
X455499D03*
X463499D03*
X471499D03*
X479499D03*
X487499D03*
X495499D03*
X503499D03*
X511499D03*
X519499D03*
X527499D03*
X535499D03*
X543499D03*
M02*