G04 Layer_Physical_Order=1*
G04 Layer_Color=255*
%FSLAX42Y42*%
%MOMM*%
G71*
G01*
G75*
%ADD10R,0.37X0.50*%
%ADD11R,0.47X0.50*%
%ADD12R,1.00X1.40*%
%ADD13R,1.00X0.95*%
%ADD14R,1.00X3.00*%
%ADD15R,0.80X0.80*%
%ADD16R,2.50X5.00*%
%ADD17R,0.90X2.80*%
%ADD18R,1.20X2.50*%
%ADD19C,0.31*%
%ADD20C,0.25*%
%ADD21C,0.70*%
%ADD22C,0.50*%
%ADD23C,5.00*%
%ADD24C,4.00*%
%ADD25C,1.20*%
%ADD26C,0.80*%
%ADD27C,1.50*%
%ADD28R,1.50X1.50*%
%ADD29C,1.30*%
%ADD30C,1.80*%
%ADD31C,0.60*%
%ADD32C,0.51*%
%ADD33C,1.27*%
G36*
X5467Y5408D02*
X5470Y5395D01*
X5471Y5392D01*
X5480Y5379D01*
X5582Y5277D01*
X5591Y5270D01*
X5593Y5269D01*
X5466D01*
X5349Y5386D01*
Y5599D01*
X5350Y5599D01*
X5362D01*
X5358Y5593D01*
X5354Y5573D01*
X5358Y5553D01*
X5369Y5536D01*
X5386Y5525D01*
X5406Y5521D01*
X5426Y5525D01*
X5443Y5536D01*
X5454Y5553D01*
X5458Y5573D01*
X5454Y5593D01*
X5450Y5599D01*
X5450D01*
X5460Y5601D01*
X5467Y5606D01*
Y5408D01*
D02*
G37*
G36*
X5265Y5369D02*
X5268Y5356D01*
X5268Y5353D01*
X5278Y5340D01*
X5406Y5211D01*
X5365D01*
X5147Y5429D01*
Y5555D01*
X5147Y5553D01*
X5158Y5536D01*
X5175Y5525D01*
X5195Y5521D01*
X5215Y5525D01*
X5232Y5536D01*
X5243Y5553D01*
X5247Y5573D01*
X5243Y5593D01*
X5239Y5599D01*
X5250D01*
X5260Y5601D01*
X5265Y5605D01*
Y5369D01*
D02*
G37*
G36*
X2267Y4925D02*
X2270Y4912D01*
X2271Y4909D01*
X2280Y4895D01*
X2298Y4877D01*
X2194D01*
X2184Y4875D01*
X2176Y4869D01*
X2172Y4863D01*
X2151Y4884D01*
X2150Y5599D01*
X2159D01*
X2156Y5595D01*
X2152Y5575D01*
X2156Y5555D01*
X2167Y5538D01*
X2184Y5527D01*
X2204Y5523D01*
X2224Y5527D01*
X2241Y5538D01*
X2252Y5555D01*
X2256Y5575D01*
X2252Y5595D01*
X2249Y5599D01*
X2250D01*
X2260Y5601D01*
X2267Y5606D01*
Y4925D01*
D02*
G37*
G36*
X2667Y5033D02*
X2670Y5020D01*
X2671Y5017D01*
X2680Y5003D01*
X2806Y4877D01*
X2702D01*
X2692Y4875D01*
X2684Y4869D01*
X2681Y4866D01*
X2551Y4996D01*
Y5599D01*
X2557D01*
X2555Y5597D01*
X2551Y5577D01*
X2555Y5557D01*
X2566Y5540D01*
X2583Y5529D01*
X2603Y5525D01*
X2623Y5529D01*
X2640Y5540D01*
X2651Y5557D01*
X2655Y5577D01*
X2651Y5597D01*
X2649Y5599D01*
X2650D01*
X2660Y5601D01*
X2667Y5606D01*
Y5033D01*
D02*
G37*
G36*
X3267Y5195D02*
X3270Y5182D01*
X3271Y5179D01*
X3280Y5165D01*
X3568Y4877D01*
X3464D01*
X3454Y4875D01*
X3446Y4869D01*
X3443Y4866D01*
X3151Y5158D01*
Y5538D01*
X3167Y5527D01*
X3187Y5523D01*
X3207Y5527D01*
X3224Y5538D01*
X3235Y5555D01*
X3239Y5575D01*
X3235Y5595D01*
X3232Y5599D01*
X3250D01*
X3260Y5601D01*
X3267Y5606D01*
Y5195D01*
D02*
G37*
G36*
X4867Y5352D02*
X4870Y5339D01*
X4871Y5336D01*
X4880Y5322D01*
X5108Y5094D01*
X5029D01*
X4749Y5374D01*
Y5599D01*
X4750Y5599D01*
X4768D01*
X4764Y5593D01*
X4760Y5573D01*
X4764Y5553D01*
X4775Y5536D01*
X4792Y5525D01*
X4812Y5521D01*
X4832Y5525D01*
X4849Y5536D01*
X4860Y5553D01*
X4864Y5573D01*
X4860Y5593D01*
X4855Y5600D01*
X4860Y5601D01*
X4867Y5606D01*
Y5352D01*
D02*
G37*
G36*
X2467Y4979D02*
X2470Y4966D01*
X2471Y4963D01*
X2480Y4949D01*
X2552Y4877D01*
X2448D01*
X2438Y4875D01*
X2430Y4869D01*
X2427Y4866D01*
X2351Y4942D01*
Y5561D01*
X2353Y5549D01*
X2364Y5532D01*
X2381Y5521D01*
X2401Y5517D01*
X2421Y5521D01*
X2438Y5532D01*
X2449Y5549D01*
X2453Y5569D01*
X2449Y5589D01*
X2443Y5598D01*
Y5599D01*
X2450D01*
X2460Y5601D01*
X2467Y5606D01*
Y4979D01*
D02*
G37*
G36*
X4665Y5357D02*
X4668Y5344D01*
X4668Y5341D01*
X4678Y5328D01*
X4983Y5023D01*
X4988Y5019D01*
X4859D01*
X4540Y5338D01*
Y5565D01*
X4543Y5548D01*
X4554Y5531D01*
X4571Y5520D01*
X4591Y5516D01*
X4611Y5520D01*
X4628Y5531D01*
X4639Y5548D01*
X4643Y5568D01*
X4639Y5588D01*
X4633Y5597D01*
Y5599D01*
X4650D01*
X4660Y5601D01*
X4665Y5605D01*
Y5357D01*
D02*
G37*
G36*
X4267Y5370D02*
X4270Y5357D01*
X4271Y5354D01*
X4280Y5341D01*
X4733Y4888D01*
X4746Y4878D01*
X4754Y4877D01*
X4734D01*
X4724Y4875D01*
X4716Y4869D01*
X4712Y4863D01*
X4151Y5424D01*
Y5599D01*
X4169D01*
Y5598D01*
X4163Y5589D01*
X4159Y5569D01*
X4163Y5549D01*
X4174Y5532D01*
X4191Y5521D01*
X4211Y5517D01*
X4231Y5521D01*
X4248Y5532D01*
X4259Y5549D01*
X4263Y5569D01*
X4259Y5589D01*
X4253Y5598D01*
Y5600D01*
X4260Y5601D01*
X4267Y5606D01*
Y5370D01*
D02*
G37*
G36*
X3867Y5366D02*
X3871Y5350D01*
X3880Y5337D01*
X3882Y5335D01*
X4340Y4877D01*
X4226D01*
X4216Y4875D01*
X4208Y4869D01*
X4204Y4863D01*
X3751Y5316D01*
Y5537D01*
X3751Y5536D01*
X3768Y5525D01*
X3788Y5521D01*
X3808Y5525D01*
X3825Y5536D01*
X3836Y5553D01*
X3840Y5573D01*
X3836Y5593D01*
X3832Y5599D01*
X3850D01*
X3860Y5601D01*
X3867Y5606D01*
Y5366D01*
D02*
G37*
G36*
X3673Y5300D02*
X3676Y5285D01*
X3684Y5273D01*
X4080Y4877D01*
X3972D01*
X3962Y4875D01*
X3954Y4869D01*
X3951Y4866D01*
X3542Y5275D01*
Y5601D01*
X3550Y5599D01*
X3562D01*
X3558Y5593D01*
X3554Y5573D01*
X3558Y5553D01*
X3569Y5536D01*
X3586Y5525D01*
X3606Y5521D01*
X3626Y5525D01*
X3643Y5536D01*
X3654Y5553D01*
X3658Y5573D01*
X3654Y5593D01*
X3650Y5599D01*
X3650D01*
X3660Y5601D01*
X3668Y5607D01*
X3673Y5614D01*
Y5300D01*
D02*
G37*
G36*
X3354Y5595D02*
X3351Y5590D01*
Y5599D01*
X3354D01*
Y5595D01*
D02*
G37*
G36*
X4953Y5599D02*
X4951Y5587D01*
Y5599D01*
X4953D01*
X4953Y5599D01*
D02*
G37*
G36*
X5150Y5599D02*
X5151D01*
X5147Y5593D01*
X5147Y5591D01*
Y5600D01*
X5150Y5599D01*
D02*
G37*
G36*
X3951Y5597D02*
X3951Y5595D01*
Y5599D01*
X3953D01*
X3951Y5597D01*
D02*
G37*
G36*
X2752Y5599D02*
X2751Y5592D01*
Y5599D01*
X2752D01*
X2752Y5599D01*
D02*
G37*
G36*
X2359Y5598D02*
X2353Y5589D01*
X2351Y5577D01*
Y5599D01*
X2359D01*
Y5598D01*
D02*
G37*
G36*
X2867Y5087D02*
X2870Y5074D01*
X2871Y5071D01*
X2880Y5057D01*
X3060Y4877D01*
X2956D01*
X2946Y4875D01*
X2938Y4869D01*
X2935Y4866D01*
X2751Y5050D01*
Y5566D01*
X2752Y5559D01*
X2763Y5542D01*
X2780Y5531D01*
X2800Y5527D01*
X2820Y5531D01*
X2837Y5542D01*
X2848Y5559D01*
X2852Y5579D01*
X2848Y5599D01*
X2848Y5599D01*
X2850D01*
X2860Y5601D01*
X2867Y5606D01*
Y5087D01*
D02*
G37*
G36*
X4073Y5408D02*
X4076Y5393D01*
X4084Y5381D01*
X4588Y4877D01*
X4480D01*
X4470Y4875D01*
X4464Y4871D01*
X3951Y5384D01*
Y5559D01*
X3951Y5557D01*
X3962Y5540D01*
X3979Y5529D01*
X3999Y5525D01*
X4019Y5529D01*
X4036Y5540D01*
X4047Y5557D01*
X4051Y5577D01*
X4047Y5597D01*
X4045Y5599D01*
X4050D01*
X4060Y5601D01*
X4068Y5607D01*
X4073Y5614D01*
Y5408D01*
D02*
G37*
G36*
X3067Y5141D02*
X3070Y5128D01*
X3071Y5125D01*
X3080Y5111D01*
X3314Y4877D01*
X3210D01*
X3200Y4875D01*
X3192Y4869D01*
X3189Y4866D01*
X2951Y5104D01*
Y5541D01*
X2966Y5531D01*
X2986Y5527D01*
X3006Y5531D01*
X3023Y5542D01*
X3034Y5559D01*
X3038Y5579D01*
X3034Y5599D01*
X3034Y5599D01*
X3050D01*
X3060Y5601D01*
X3067Y5606D01*
Y5141D01*
D02*
G37*
G36*
X4540Y5601D02*
X4549Y5599D01*
Y5597D01*
X4543Y5588D01*
X4540Y5571D01*
Y5601D01*
X4540Y5601D01*
D02*
G37*
G36*
X5063Y5412D02*
X5066Y5399D01*
X5066Y5396D01*
X5076Y5383D01*
X5308Y5150D01*
X5170D01*
X4951Y5369D01*
Y5571D01*
X4953Y5559D01*
X4964Y5542D01*
X4981Y5531D01*
X5001Y5527D01*
X5021Y5531D01*
X5038Y5542D01*
X5049Y5559D01*
X5053Y5579D01*
X5049Y5599D01*
X5049Y5599D01*
X5050D01*
X5060Y5601D01*
X5063Y5603D01*
Y5412D01*
D02*
G37*
G36*
X4462Y5322D02*
X4465Y5307D01*
X4474Y5295D01*
X4809Y4959D01*
X4779D01*
X4351Y5387D01*
Y5540D01*
X4356Y5531D01*
X4373Y5520D01*
X4393Y5516D01*
X4413Y5520D01*
X4430Y5531D01*
X4441Y5548D01*
X4445Y5568D01*
X4441Y5588D01*
X4435Y5597D01*
Y5599D01*
X4450D01*
X4460Y5601D01*
X4462Y5603D01*
Y5322D01*
D02*
G37*
G36*
X5624Y4349D02*
X5616Y4351D01*
X5591D01*
X5589Y4361D01*
X5589Y4364D01*
X5579Y4377D01*
X5560Y4397D01*
X5556Y4416D01*
X5554Y4419D01*
X5624Y4349D01*
D02*
G37*
G36*
X5116D02*
X5108Y4351D01*
X5064D01*
X5074Y4366D01*
X5078Y4387D01*
X5116Y4349D01*
D02*
G37*
G36*
X5873Y4350D02*
X5870Y4351D01*
X5850D01*
X5849Y4359D01*
X5839Y4372D01*
X5806Y4406D01*
X5803Y4420D01*
X5873Y4350D01*
D02*
G37*
G36*
X5529Y4444D02*
X5526Y4446D01*
X5504Y4450D01*
X5482Y4446D01*
X5464Y4434D01*
X5452Y4416D01*
X5448Y4394D01*
X5448Y4390D01*
X5263Y4575D01*
X5362D01*
X5372Y4577D01*
X5380Y4583D01*
X5384Y4589D01*
X5529Y4444D01*
D02*
G37*
G36*
X5387Y4071D02*
X5397Y4058D01*
X6157Y3297D01*
X6021D01*
X5269Y4049D01*
X5362D01*
X5372Y4051D01*
X5380Y4057D01*
X5386Y4065D01*
X5387Y4072D01*
X5387Y4071D01*
D02*
G37*
G36*
X5371Y4349D02*
X5362Y4351D01*
X5315D01*
Y4359D01*
X5325Y4374D01*
X5329Y4392D01*
X5371Y4349D01*
D02*
G37*
G36*
X5921Y4302D02*
Y4058D01*
X5924Y4045D01*
X5925Y4042D01*
X5934Y4029D01*
X6558Y3404D01*
X6422D01*
X5777Y4049D01*
X5870D01*
X5880Y4051D01*
X5888Y4057D01*
X5894Y4065D01*
X5896Y4075D01*
Y4325D01*
X5895Y4328D01*
X5921Y4302D01*
D02*
G37*
G36*
X5479Y4344D02*
X5478Y4343D01*
X5472Y4335D01*
X5470Y4325D01*
Y4102D01*
X5468Y4104D01*
Y4352D01*
X5479Y4344D01*
D02*
G37*
G36*
X5673Y4300D02*
Y4059D01*
X5676Y4044D01*
X5684Y4032D01*
X6363Y3354D01*
X6219D01*
X5523Y4049D01*
X5616D01*
X5626Y4051D01*
X5634Y4057D01*
X5640Y4065D01*
X5642Y4075D01*
Y4325D01*
X5640Y4333D01*
X5673Y4300D01*
D02*
G37*
G36*
X5740Y4349D02*
X5736Y4346D01*
X5733Y4350D01*
X5740Y4349D01*
D02*
G37*
G36*
X5269Y4452D02*
X5251Y4448D01*
X5233Y4436D01*
X5221Y4418D01*
X5217Y4396D01*
X5221Y4374D01*
X5231Y4359D01*
Y4348D01*
X5228Y4346D01*
X5000Y4575D01*
X5108D01*
X5118Y4577D01*
X5126Y4583D01*
X5131Y4589D01*
X5269Y4452D01*
D02*
G37*
G36*
X6362Y4877D02*
X6258D01*
X6248Y4875D01*
X6245Y4873D01*
X5861Y5256D01*
X5850Y5264D01*
X5975D01*
X6362Y4877D01*
D02*
G37*
G36*
X5600D02*
X5496D01*
X5486Y4875D01*
X5478Y4869D01*
X5475Y4866D01*
X5275Y5066D01*
X5411D01*
X5600Y4877D01*
D02*
G37*
G36*
X5096D02*
X4988D01*
X4978Y4875D01*
X4976Y4874D01*
X4909Y4941D01*
X5032D01*
X5096Y4877D01*
D02*
G37*
G36*
X3458Y5258D02*
X3461Y5245D01*
X3461Y5242D01*
X3471Y5229D01*
X3822Y4877D01*
X3718D01*
X3708Y4875D01*
X3700Y4869D01*
X3697Y4866D01*
X3351Y5212D01*
Y5542D01*
X3359Y5529D01*
X3376Y5518D01*
X3396Y5514D01*
X3416Y5518D01*
X3433Y5529D01*
X3444Y5546D01*
X3448Y5566D01*
X3444Y5586D01*
X3438Y5595D01*
Y5599D01*
X3450D01*
X3458Y5601D01*
Y5258D01*
D02*
G37*
G36*
X6123Y4877D02*
X6016D01*
X5708Y5185D01*
X5815D01*
X6123Y4877D01*
D02*
G37*
G36*
X5130Y5010D02*
X5213D01*
X5346Y4877D01*
X5242D01*
X5232Y4875D01*
X5224Y4869D01*
X5220Y4863D01*
X5075Y5007D01*
X5071Y5010D01*
X5128D01*
X5130Y5010D01*
D02*
G37*
G36*
X4962Y4770D02*
Y4613D01*
X4880Y4695D01*
Y4851D01*
X4880Y4852D01*
X4962Y4770D01*
D02*
G37*
G36*
X5767Y4456D02*
X5750Y4459D01*
X5728Y4455D01*
X5710Y4443D01*
X5698Y4425D01*
X5694Y4403D01*
X5697Y4386D01*
X5508Y4575D01*
X5616D01*
X5626Y4577D01*
X5634Y4583D01*
X5637Y4586D01*
X5767Y4456D01*
D02*
G37*
G36*
X5470Y4753D02*
Y4613D01*
X5388Y4695D01*
Y4835D01*
X5470Y4753D01*
D02*
G37*
G36*
X5216Y4757D02*
Y4622D01*
X5134Y4704D01*
Y4839D01*
X5216Y4757D01*
D02*
G37*
G36*
X5724Y4753D02*
Y4617D01*
X5642Y4699D01*
Y4835D01*
X5724Y4753D01*
D02*
G37*
G36*
X4740Y6399D02*
X4732Y6393D01*
X4726Y6385D01*
X4724Y6375D01*
Y6075D01*
X4726Y6065D01*
X4732Y6057D01*
X4740Y6051D01*
X4750Y6049D01*
X4752D01*
X4748Y6044D01*
X4747Y6039D01*
X4678Y5969D01*
X4668Y5956D01*
X4668Y5953D01*
X4666Y5945D01*
X4660Y5949D01*
X4650Y5951D01*
X4573D01*
X4597Y5975D01*
X4613Y5978D01*
X4630Y5989D01*
X4641Y6006D01*
X4645Y6026D01*
X4641Y6046D01*
X4639Y6049D01*
X4650D01*
X4660Y6051D01*
X4668Y6057D01*
X4674Y6065D01*
X4676Y6075D01*
Y6375D01*
X4674Y6385D01*
X4668Y6393D01*
X4660Y6399D01*
X4655Y6400D01*
X4745D01*
X4740Y6399D01*
D02*
G37*
G36*
X5340D02*
X5332Y6393D01*
X5326Y6385D01*
X5324Y6375D01*
Y6075D01*
X5326Y6065D01*
X5332Y6057D01*
X5340Y6051D01*
X5350Y6049D01*
X5355D01*
X5350Y6042D01*
X5278Y5969D01*
X5268Y5956D01*
X5268Y5953D01*
X5266Y5945D01*
X5260Y5949D01*
X5250Y5951D01*
X5177D01*
X5199Y5973D01*
X5215Y5976D01*
X5232Y5987D01*
X5243Y6004D01*
X5247Y6024D01*
X5243Y6044D01*
X5239Y6049D01*
X5250D01*
X5260Y6051D01*
X5268Y6057D01*
X5274Y6065D01*
X5276Y6075D01*
Y6375D01*
X5274Y6385D01*
X5268Y6393D01*
X5260Y6399D01*
X5255Y6400D01*
X5345D01*
X5340Y6399D01*
D02*
G37*
G36*
X3540D02*
X3532Y6393D01*
X3526Y6385D01*
X3524Y6375D01*
Y6075D01*
X3526Y6065D01*
X3532Y6057D01*
X3540Y6051D01*
X3550Y6049D01*
X3552D01*
X3550Y6046D01*
X3549Y6041D01*
X3471Y5962D01*
X3461Y5949D01*
X3461Y5948D01*
X3460Y5949D01*
X3450Y5951D01*
X3377D01*
X3402Y5976D01*
X3415Y5978D01*
X3432Y5989D01*
X3443Y6006D01*
X3447Y6026D01*
X3443Y6046D01*
X3441Y6049D01*
X3450D01*
X3460Y6051D01*
X3468Y6057D01*
X3474Y6065D01*
X3476Y6075D01*
Y6375D01*
X3474Y6385D01*
X3468Y6393D01*
X3460Y6399D01*
X3455Y6400D01*
X3545D01*
X3540Y6399D01*
D02*
G37*
G36*
X5140D02*
X5132Y6393D01*
X5126Y6385D01*
X5124Y6375D01*
Y6075D01*
X5126Y6065D01*
X5132Y6057D01*
X5140Y6051D01*
X5150Y6049D01*
X5151D01*
X5147Y6044D01*
X5146Y6038D01*
X5076Y5967D01*
X5066Y5954D01*
X5066Y5951D01*
X5065Y5946D01*
X5060Y5949D01*
X5050Y5951D01*
X4977D01*
X5002Y5976D01*
X5015Y5978D01*
X5032Y5989D01*
X5043Y6006D01*
X5047Y6026D01*
X5043Y6046D01*
X5041Y6049D01*
X5050D01*
X5060Y6051D01*
X5068Y6057D01*
X5074Y6065D01*
X5076Y6075D01*
Y6375D01*
X5074Y6385D01*
X5068Y6393D01*
X5060Y6399D01*
X5055Y6400D01*
X5145D01*
X5140Y6399D01*
D02*
G37*
G36*
X4140D02*
X4132Y6393D01*
X4126Y6385D01*
X4124Y6375D01*
Y6075D01*
X4126Y6065D01*
X4132Y6057D01*
X4140Y6051D01*
X4150Y6049D01*
X4159D01*
X4157Y6046D01*
X4084Y5973D01*
X4076Y5961D01*
X4073Y5946D01*
Y5936D01*
X4068Y5943D01*
X4060Y5949D01*
X4050Y5951D01*
X3977D01*
X3999Y5973D01*
X4004Y5972D01*
X4024Y5976D01*
X4041Y5987D01*
X4052Y6004D01*
X4056Y6024D01*
X4052Y6044D01*
X4048Y6049D01*
X4050D01*
X4060Y6051D01*
X4068Y6057D01*
X4074Y6065D01*
X4076Y6075D01*
Y6375D01*
X4074Y6385D01*
X4068Y6393D01*
X4060Y6399D01*
X4055Y6400D01*
X4145D01*
X4140Y6399D01*
D02*
G37*
G36*
X3140D02*
X3132Y6393D01*
X3126Y6385D01*
X3124Y6375D01*
Y6075D01*
X3126Y6065D01*
X3132Y6057D01*
X3140Y6051D01*
X3150Y6049D01*
X3155D01*
X3153Y6046D01*
X3153Y6045D01*
X3080Y5971D01*
X3071Y5958D01*
X3070Y5955D01*
X3068Y5944D01*
X3060Y5949D01*
X3050Y5951D01*
X2977D01*
X2999Y5973D01*
X3014Y5976D01*
X3031Y5987D01*
X3042Y6004D01*
X3046Y6024D01*
X3042Y6044D01*
X3038Y6049D01*
X3050D01*
X3060Y6051D01*
X3068Y6057D01*
X3074Y6065D01*
X3076Y6075D01*
Y6375D01*
X3074Y6385D01*
X3068Y6393D01*
X3060Y6399D01*
X3055Y6400D01*
X3145D01*
X3140Y6399D01*
D02*
G37*
G36*
X4940D02*
X4932Y6393D01*
X4926Y6385D01*
X4924Y6375D01*
Y6075D01*
X4926Y6065D01*
X4932Y6057D01*
X4940Y6051D01*
X4949Y6049D01*
X4947Y6046D01*
X4945Y6037D01*
X4880Y5971D01*
X4871Y5958D01*
X4870Y5955D01*
X4868Y5944D01*
X4860Y5949D01*
X4850Y5951D01*
X4777D01*
X4799Y5973D01*
X4816Y5976D01*
X4833Y5987D01*
X4844Y6004D01*
X4848Y6024D01*
X4844Y6044D01*
X4840Y6049D01*
X4850D01*
X4860Y6051D01*
X4868Y6057D01*
X4874Y6065D01*
X4876Y6075D01*
Y6375D01*
X4874Y6385D01*
X4868Y6393D01*
X4860Y6399D01*
X4855Y6400D01*
X4945D01*
X4940Y6399D01*
D02*
G37*
G36*
X2940D02*
X2932Y6393D01*
X2926Y6385D01*
X2924Y6375D01*
Y6075D01*
X2926Y6065D01*
X2932Y6057D01*
X2940Y6051D01*
X2950Y6049D01*
X2946Y6044D01*
X2945Y6037D01*
X2880Y5971D01*
X2871Y5958D01*
X2870Y5955D01*
X2868Y5944D01*
X2860Y5949D01*
X2850Y5951D01*
X2777D01*
X2800Y5973D01*
X2806Y5972D01*
X2826Y5976D01*
X2843Y5987D01*
X2854Y6004D01*
X2858Y6024D01*
X2854Y6044D01*
X2850Y6049D01*
X2860Y6051D01*
X2868Y6057D01*
X2874Y6065D01*
X2876Y6075D01*
Y6375D01*
X2874Y6385D01*
X2868Y6393D01*
X2860Y6399D01*
X2855Y6400D01*
X2945D01*
X2940Y6399D01*
D02*
G37*
G36*
X4340D02*
X4332Y6393D01*
X4326Y6385D01*
X4324Y6375D01*
Y6075D01*
X4326Y6065D01*
X4332Y6057D01*
X4340Y6051D01*
X4350Y6049D01*
X4356D01*
X4280Y5973D01*
X4271Y5959D01*
X4270Y5956D01*
X4268Y5944D01*
X4260Y5949D01*
X4250Y5951D01*
X4172D01*
X4193Y5972D01*
X4202Y5970D01*
X4222Y5974D01*
X4239Y5985D01*
X4250Y6002D01*
X4254Y6022D01*
X4250Y6042D01*
X4245Y6049D01*
X4250D01*
X4260Y6051D01*
X4268Y6057D01*
X4274Y6065D01*
X4276Y6075D01*
Y6375D01*
X4274Y6385D01*
X4268Y6393D01*
X4260Y6399D01*
X4255Y6400D01*
X4345D01*
X4340Y6399D01*
D02*
G37*
G36*
X5540D02*
X5532Y6393D01*
X5526Y6385D01*
X5524Y6375D01*
Y6075D01*
X5526Y6065D01*
X5527Y6064D01*
X5473D01*
X5474Y6065D01*
X5476Y6075D01*
Y6375D01*
X5474Y6385D01*
X5468Y6393D01*
X5460Y6399D01*
X5455Y6400D01*
X5545D01*
X5540Y6399D01*
D02*
G37*
G36*
X2540D02*
X2532Y6393D01*
X2526Y6385D01*
X2524Y6375D01*
Y6075D01*
X2526Y6065D01*
X2532Y6057D01*
X2540Y6051D01*
X2550Y6049D01*
X2554D01*
X2549Y6042D01*
X2549Y6041D01*
X2480Y5971D01*
X2471Y5958D01*
X2470Y5955D01*
X2468Y5944D01*
X2460Y5949D01*
X2450Y5951D01*
X2377D01*
X2399Y5972D01*
X2400Y5972D01*
X2420Y5976D01*
X2437Y5987D01*
X2448Y6004D01*
X2452Y6024D01*
X2448Y6044D01*
X2444Y6049D01*
X2450D01*
X2460Y6051D01*
X2468Y6057D01*
X2474Y6065D01*
X2476Y6075D01*
Y6375D01*
X2474Y6385D01*
X2468Y6393D01*
X2460Y6399D01*
X2455Y6400D01*
X2545D01*
X2540Y6399D01*
D02*
G37*
G36*
X5480Y5971D02*
X5471Y5958D01*
X5470Y5955D01*
X5468Y5944D01*
X5460Y5949D01*
X5450Y5951D01*
X5377D01*
X5397Y5970D01*
X5398Y5970D01*
X5418Y5974D01*
X5427Y5980D01*
X5488D01*
X5480Y5971D01*
D02*
G37*
G36*
X2740Y6399D02*
X2732Y6393D01*
X2726Y6385D01*
X2724Y6375D01*
Y6075D01*
X2726Y6065D01*
X2732Y6057D01*
X2740Y6051D01*
X2750Y6049D01*
X2757D01*
X2680Y5971D01*
X2671Y5958D01*
X2670Y5955D01*
X2668Y5944D01*
X2660Y5949D01*
X2650Y5951D01*
X2577D01*
X2596Y5970D01*
X2597Y5970D01*
X2617Y5974D01*
X2634Y5985D01*
X2645Y6002D01*
X2649Y6022D01*
X2645Y6042D01*
X2640Y6049D01*
X2650D01*
X2660Y6051D01*
X2668Y6057D01*
X2674Y6065D01*
X2676Y6075D01*
Y6375D01*
X2674Y6385D01*
X2668Y6393D01*
X2660Y6399D01*
X2655Y6400D01*
X2745D01*
X2740Y6399D01*
D02*
G37*
G36*
X2340D02*
X2332Y6393D01*
X2326Y6385D01*
X2324Y6375D01*
Y6075D01*
X2326Y6065D01*
X2332Y6057D01*
X2340Y6051D01*
X2350Y6049D01*
X2356D01*
X2352Y6044D01*
X2280Y5971D01*
X2271Y5958D01*
X2270Y5955D01*
X2268Y5944D01*
X2260Y5949D01*
X2250Y5951D01*
X2170D01*
X2189Y5970D01*
X2202Y5967D01*
X2222Y5971D01*
X2239Y5982D01*
X2250Y5999D01*
X2254Y6019D01*
X2250Y6039D01*
X2243Y6049D01*
X2250D01*
X2260Y6051D01*
X2268Y6057D01*
X2274Y6065D01*
X2276Y6075D01*
Y6375D01*
X2274Y6385D01*
X2268Y6393D01*
X2260Y6399D01*
X2255Y6400D01*
X2345D01*
X2340Y6399D01*
D02*
G37*
G36*
X9500Y1000D02*
X1000D01*
Y6400D01*
X1945D01*
X1940Y6399D01*
X1932Y6393D01*
X1926Y6385D01*
X1924Y6375D01*
Y6238D01*
X2076D01*
Y6375D01*
X2074Y6385D01*
X2068Y6393D01*
X2060Y6399D01*
X2055Y6400D01*
X2145D01*
X2140Y6399D01*
X2132Y6393D01*
X2126Y6385D01*
X2124Y6375D01*
Y6075D01*
X2126Y6065D01*
X2132Y6057D01*
X2140Y6051D01*
X2150Y6049D01*
X2159D01*
X2156Y6046D01*
X2084Y5974D01*
X2084Y5974D01*
X2084Y5974D01*
X2079Y5968D01*
X2075Y5962D01*
X2075Y5962D01*
X2075Y5962D01*
X2074Y5954D01*
X2072Y5947D01*
X2072Y5947D01*
X2072Y5947D01*
X2072Y5938D01*
X2068Y5943D01*
X2060Y5949D01*
X2050Y5951D01*
X2013D01*
Y5775D01*
X2000D01*
Y5762D01*
X1924D01*
Y5625D01*
X1926Y5615D01*
X1932Y5607D01*
X1940Y5601D01*
X1950Y5599D01*
X1957D01*
X1953Y5593D01*
X1952Y5586D01*
X2050D01*
X2049Y5593D01*
X2045Y5599D01*
X2050D01*
X2060Y5601D01*
X2068Y5607D01*
X2072Y5613D01*
X2073Y4873D01*
X2070Y4875D01*
X2060Y4877D01*
X2013D01*
Y4739D01*
X2086D01*
Y4839D01*
X2168Y4757D01*
Y4601D01*
X2170Y4591D01*
X2176Y4583D01*
X2184Y4577D01*
X2194Y4575D01*
X2314D01*
X2324Y4577D01*
X2332Y4583D01*
X2338Y4591D01*
X2340Y4601D01*
Y4835D01*
X2422Y4753D01*
Y4601D01*
X2424Y4591D01*
X2430Y4583D01*
X2438Y4577D01*
X2448Y4575D01*
X2568D01*
X2578Y4577D01*
X2586Y4583D01*
X2592Y4591D01*
X2594Y4601D01*
Y4835D01*
X2676Y4753D01*
Y4601D01*
X2678Y4591D01*
X2684Y4583D01*
X2692Y4577D01*
X2702Y4575D01*
X2822D01*
X2832Y4577D01*
X2840Y4583D01*
X2846Y4591D01*
X2848Y4601D01*
Y4835D01*
X2930Y4753D01*
Y4601D01*
X2932Y4591D01*
X2938Y4583D01*
X2946Y4577D01*
X2956Y4575D01*
X3076D01*
X3086Y4577D01*
X3094Y4583D01*
X3100Y4591D01*
X3102Y4601D01*
Y4835D01*
X3184Y4753D01*
Y4601D01*
X3186Y4591D01*
X3192Y4583D01*
X3200Y4577D01*
X3210Y4575D01*
X3330D01*
X3340Y4577D01*
X3348Y4583D01*
X3354Y4591D01*
X3356Y4601D01*
Y4835D01*
X3438Y4753D01*
Y4601D01*
X3440Y4591D01*
X3446Y4583D01*
X3454Y4577D01*
X3464Y4575D01*
X3584D01*
X3594Y4577D01*
X3602Y4583D01*
X3608Y4591D01*
X3610Y4601D01*
Y4835D01*
X3692Y4753D01*
Y4601D01*
X3694Y4591D01*
X3700Y4583D01*
X3708Y4577D01*
X3718Y4575D01*
X3838D01*
X3848Y4577D01*
X3856Y4583D01*
X3862Y4591D01*
X3864Y4601D01*
Y4835D01*
X3946Y4753D01*
Y4601D01*
X3948Y4591D01*
X3954Y4583D01*
X3962Y4577D01*
X3972Y4575D01*
X4092D01*
X4102Y4577D01*
X4110Y4583D01*
X4116Y4591D01*
X4118Y4601D01*
Y4839D01*
X4200Y4757D01*
Y4601D01*
X4202Y4591D01*
X4208Y4583D01*
X4216Y4577D01*
X4226Y4575D01*
X4346D01*
X4356Y4577D01*
X4364Y4583D01*
X4370Y4591D01*
X4372Y4601D01*
Y4845D01*
X4454Y4763D01*
Y4601D01*
X4456Y4591D01*
X4462Y4583D01*
X4470Y4577D01*
X4480Y4575D01*
X4600D01*
X4610Y4577D01*
X4618Y4583D01*
X4624Y4591D01*
X4626Y4601D01*
Y4839D01*
X4708Y4757D01*
Y4601D01*
X4710Y4591D01*
X4716Y4583D01*
X4724Y4577D01*
X4734Y4575D01*
X4854D01*
X4864Y4577D01*
X4872Y4583D01*
X4876Y4589D01*
X5021Y4444D01*
X5000Y4440D01*
X4982Y4428D01*
X4970Y4410D01*
X4966Y4388D01*
X4970Y4366D01*
X4980Y4351D01*
Y4349D01*
X4978Y4349D01*
X4970Y4343D01*
X4964Y4335D01*
X4962Y4325D01*
Y4075D01*
X4964Y4065D01*
X4970Y4057D01*
X4978Y4051D01*
X4988Y4049D01*
X5108D01*
X5118Y4051D01*
X5126Y4057D01*
X5132Y4065D01*
X5134Y4075D01*
Y4325D01*
X5132Y4333D01*
X5165Y4300D01*
Y4059D01*
X5168Y4044D01*
X5176Y4032D01*
X5977Y3231D01*
X5990Y3222D01*
X6005Y3219D01*
X7043D01*
X7689Y2574D01*
Y1610D01*
X7692Y1595D01*
X7700Y1583D01*
X7803Y1480D01*
X7815Y1472D01*
X7830Y1469D01*
X8151D01*
X8154Y1464D01*
X8162Y1459D01*
X8172Y1457D01*
X8209D01*
X8219Y1459D01*
X8227Y1464D01*
X8231Y1469D01*
X8234Y1464D01*
X8242Y1459D01*
X8252Y1457D01*
X8258D01*
Y1507D01*
X8271D01*
Y1520D01*
X8315D01*
Y1532D01*
X8313Y1542D01*
X8309Y1549D01*
X8539D01*
Y1511D01*
X8541Y1501D01*
X8547Y1493D01*
X8555Y1487D01*
X8565Y1485D01*
X8645D01*
X8655Y1487D01*
X8663Y1493D01*
X8669Y1501D01*
X8671Y1511D01*
Y1591D01*
X8669Y1601D01*
X8663Y1609D01*
X8655Y1615D01*
X8645Y1617D01*
X8593D01*
X8583Y1623D01*
X8568Y1626D01*
X8275D01*
X8272Y1631D01*
X8264Y1636D01*
X8254Y1638D01*
X8207D01*
X8197Y1636D01*
X8189Y1631D01*
X8183Y1622D01*
X8181Y1612D01*
Y1562D01*
X8182Y1558D01*
X8172D01*
X8162Y1556D01*
X8154Y1551D01*
X8151Y1546D01*
X7846D01*
X7766Y1626D01*
Y2590D01*
X7763Y2605D01*
X7755Y2617D01*
X7102Y3270D01*
X7162D01*
X7780Y2653D01*
Y1946D01*
X7782Y1933D01*
X7783Y1930D01*
X7792Y1917D01*
X7957Y1752D01*
X7971Y1742D01*
X7986Y1739D01*
X8153D01*
X8154Y1738D01*
X8162Y1732D01*
X8172Y1730D01*
X8209D01*
X8219Y1732D01*
X8227Y1738D01*
X8231Y1742D01*
X8234Y1738D01*
X8242Y1732D01*
X8252Y1730D01*
X8258D01*
Y1781D01*
X8271D01*
Y1794D01*
X8315D01*
Y1806D01*
X8313Y1816D01*
X8309Y1822D01*
X8539D01*
Y1781D01*
X8541Y1771D01*
X8547Y1763D01*
X8555Y1757D01*
X8565Y1755D01*
X8645D01*
X8655Y1757D01*
X8663Y1763D01*
X8669Y1771D01*
X8671Y1781D01*
Y1861D01*
X8669Y1871D01*
X8663Y1879D01*
X8655Y1885D01*
X8645Y1887D01*
X8594D01*
X8592Y1888D01*
X8580Y1897D01*
X8565Y1900D01*
X8275D01*
X8272Y1904D01*
X8264Y1910D01*
X8254Y1912D01*
X8207D01*
X8197Y1910D01*
X8189Y1904D01*
X8183Y1896D01*
X8181Y1886D01*
Y1836D01*
X8182Y1832D01*
X8172D01*
X8162Y1830D01*
X8154Y1824D01*
X8153Y1823D01*
X8004D01*
X7863Y1963D01*
Y2670D01*
X7860Y2686D01*
X7851Y2700D01*
X7224Y3327D01*
X7285D01*
X7878Y2733D01*
Y2178D01*
X7881Y2163D01*
X7890Y2150D01*
X8040Y2000D01*
X8053Y1992D01*
X8068Y1989D01*
X8151D01*
X8154Y1984D01*
X8162Y1979D01*
X8172Y1977D01*
X8209D01*
X8219Y1979D01*
X8227Y1984D01*
X8231Y1989D01*
X8234Y1984D01*
X8242Y1979D01*
X8252Y1977D01*
X8258D01*
Y2027D01*
X8271D01*
Y2040D01*
X8315D01*
Y2052D01*
X8313Y2062D01*
X8309Y2069D01*
X8542D01*
X8549Y2062D01*
Y2011D01*
X8551Y2001D01*
X8557Y1993D01*
X8565Y1987D01*
X8575Y1985D01*
X8655D01*
X8665Y1987D01*
X8673Y1993D01*
X8679Y2001D01*
X8681Y2011D01*
Y2091D01*
X8679Y2101D01*
X8673Y2109D01*
X8665Y2115D01*
X8655Y2117D01*
X8604D01*
X8586Y2135D01*
X8573Y2143D01*
X8558Y2146D01*
X8275D01*
X8272Y2151D01*
X8264Y2156D01*
X8254Y2158D01*
X8207D01*
X8197Y2156D01*
X8189Y2151D01*
X8183Y2142D01*
X8181Y2133D01*
Y2083D01*
X8182Y2078D01*
X8172D01*
X8162Y2076D01*
X8154Y2071D01*
X8151Y2066D01*
X8084D01*
X7956Y2194D01*
Y2749D01*
X7953Y2761D01*
X7953Y2764D01*
X7945Y2776D01*
X7344Y3377D01*
X7398D01*
X8001Y2775D01*
Y2345D01*
X8003Y2332D01*
X8004Y2329D01*
X8013Y2316D01*
X8076Y2253D01*
X8089Y2244D01*
X8092Y2243D01*
X8105Y2241D01*
X8153D01*
X8154Y2239D01*
X8162Y2234D01*
X8172Y2232D01*
X8209D01*
X8219Y2234D01*
X8227Y2239D01*
X8231Y2244D01*
X8234Y2239D01*
X8242Y2234D01*
X8252Y2232D01*
X8258D01*
Y2283D01*
X8271D01*
Y2295D01*
X8315D01*
Y2308D01*
X8313Y2317D01*
X8309Y2324D01*
X8549D01*
Y2281D01*
X8551Y2271D01*
X8557Y2263D01*
X8565Y2257D01*
X8575Y2255D01*
X8655D01*
X8665Y2257D01*
X8673Y2263D01*
X8679Y2271D01*
X8681Y2281D01*
Y2361D01*
X8679Y2371D01*
X8673Y2379D01*
X8665Y2385D01*
X8655Y2387D01*
X8604D01*
X8601Y2390D01*
X8588Y2398D01*
X8573Y2401D01*
X8275D01*
X8272Y2406D01*
X8264Y2411D01*
X8254Y2413D01*
X8207D01*
X8197Y2411D01*
X8189Y2406D01*
X8183Y2397D01*
X8181Y2388D01*
Y2338D01*
X8182Y2333D01*
X8172D01*
X8162Y2331D01*
X8154Y2326D01*
X8153Y2324D01*
X8122D01*
X8084Y2362D01*
Y2792D01*
X8082Y2805D01*
X8081Y2808D01*
X8072Y2821D01*
X7445Y3448D01*
X7431Y3458D01*
X7429Y3458D01*
X7415Y3461D01*
X6619D01*
X6031Y4049D01*
X6124D01*
X6134Y4051D01*
X6142Y4057D01*
X6148Y4065D01*
X6150Y4075D01*
Y4325D01*
X6148Y4335D01*
X6142Y4343D01*
X6134Y4349D01*
X6124Y4351D01*
X6102D01*
Y4361D01*
X6112Y4376D01*
X6116Y4398D01*
X6112Y4420D01*
X6100Y4438D01*
X6082Y4450D01*
X6060Y4454D01*
X6038Y4450D01*
X6020Y4438D01*
X6008Y4420D01*
X6004Y4398D01*
X6008Y4376D01*
X6018Y4361D01*
Y4351D01*
X6004D01*
X5994Y4349D01*
X5993Y4348D01*
X5993Y4348D01*
X5766Y4575D01*
X5870D01*
X5880Y4577D01*
X5888Y4583D01*
X5894Y4591D01*
X5896Y4601D01*
Y4851D01*
X5894Y4861D01*
X5888Y4869D01*
X5880Y4875D01*
X5870Y4877D01*
X5750D01*
X5740Y4875D01*
X5732Y4869D01*
X5729Y4866D01*
X5468Y5127D01*
X5648D01*
X5978Y4797D01*
Y4601D01*
X5980Y4591D01*
X5986Y4583D01*
X5994Y4577D01*
X6004Y4575D01*
X6124D01*
X6134Y4577D01*
X6142Y4583D01*
X6148Y4591D01*
X6150Y4601D01*
Y4850D01*
X6232Y4768D01*
Y4601D01*
X6234Y4591D01*
X6240Y4583D01*
X6248Y4577D01*
X6258Y4575D01*
X6378D01*
X6388Y4577D01*
X6396Y4583D01*
X6402Y4591D01*
X6404Y4601D01*
Y4835D01*
X6486Y4753D01*
Y4601D01*
X6488Y4591D01*
X6494Y4583D01*
X6502Y4577D01*
X6512Y4575D01*
X6632D01*
X6642Y4577D01*
X6650Y4583D01*
X6656Y4591D01*
X6658Y4601D01*
Y4851D01*
X6656Y4861D01*
X6650Y4869D01*
X6642Y4875D01*
X6632Y4877D01*
X6512D01*
X6502Y4875D01*
X6494Y4869D01*
X6491Y4866D01*
X6021Y5335D01*
X6008Y5345D01*
X6005Y5345D01*
X5992Y5348D01*
X5628D01*
X5551Y5425D01*
Y5532D01*
X5552Y5529D01*
X5572Y5516D01*
X5596Y5511D01*
X5620Y5516D01*
X5640Y5529D01*
X5653Y5549D01*
X5658Y5573D01*
Y5601D01*
X5660Y5601D01*
X5668Y5607D01*
X5674Y5615D01*
X5676Y5625D01*
Y5925D01*
X5674Y5935D01*
X5668Y5943D01*
X5660Y5949D01*
X5650Y5951D01*
X5577D01*
X5596Y5970D01*
X5616Y5974D01*
X5633Y5985D01*
X5644Y6002D01*
X5648Y6022D01*
X5644Y6042D01*
X5639Y6049D01*
X5650D01*
X5660Y6051D01*
X5668Y6057D01*
X5674Y6065D01*
X5676Y6075D01*
Y6375D01*
X5674Y6385D01*
X5668Y6393D01*
X5660Y6399D01*
X5655Y6400D01*
X5745D01*
X5740Y6399D01*
X5732Y6393D01*
X5726Y6385D01*
X5724Y6375D01*
Y6238D01*
X5876D01*
Y6375D01*
X5874Y6385D01*
X5868Y6393D01*
X5860Y6399D01*
X5855Y6400D01*
X9500D01*
Y1000D01*
D02*
G37*
G36*
X3940Y6399D02*
X3932Y6393D01*
X3926Y6385D01*
X3924Y6375D01*
Y6075D01*
X3926Y6065D01*
X3932Y6057D01*
X3940Y6051D01*
X3950Y6049D01*
X3957D01*
X3880Y5971D01*
X3871Y5958D01*
X3870Y5955D01*
X3868Y5944D01*
X3860Y5949D01*
X3850Y5951D01*
X3777D01*
X3796Y5970D01*
X3797Y5970D01*
X3817Y5974D01*
X3834Y5985D01*
X3845Y6002D01*
X3849Y6022D01*
X3845Y6042D01*
X3840Y6049D01*
X3850D01*
X3860Y6051D01*
X3868Y6057D01*
X3874Y6065D01*
X3876Y6075D01*
Y6375D01*
X3874Y6385D01*
X3868Y6393D01*
X3860Y6399D01*
X3855Y6400D01*
X3945D01*
X3940Y6399D01*
D02*
G37*
G36*
X3340D02*
X3332Y6393D01*
X3326Y6385D01*
X3324Y6375D01*
Y6075D01*
X3326Y6065D01*
X3332Y6057D01*
X3340Y6051D01*
X3349Y6049D01*
X3347Y6046D01*
X3345Y6037D01*
X3280Y5971D01*
X3271Y5958D01*
X3270Y5955D01*
X3268Y5944D01*
X3260Y5949D01*
X3250Y5951D01*
X3177D01*
X3200Y5974D01*
X3201Y5974D01*
X3221Y5978D01*
X3238Y5989D01*
X3249Y6006D01*
X3253Y6026D01*
X3249Y6046D01*
X3247Y6049D01*
X3250D01*
X3260Y6051D01*
X3268Y6057D01*
X3274Y6065D01*
X3276Y6075D01*
Y6375D01*
X3274Y6385D01*
X3268Y6393D01*
X3260Y6399D01*
X3255Y6400D01*
X3345D01*
X3340Y6399D01*
D02*
G37*
G36*
X4351Y5597D02*
X4351Y5596D01*
Y5599D01*
X4351D01*
Y5597D01*
D02*
G37*
G36*
X3740Y6399D02*
X3732Y6393D01*
X3726Y6385D01*
X3724Y6375D01*
Y6075D01*
X3726Y6065D01*
X3732Y6057D01*
X3740Y6051D01*
X3750Y6049D01*
X3754D01*
X3749Y6042D01*
X3747Y6031D01*
X3684Y5968D01*
X3676Y5956D01*
X3673Y5941D01*
Y5936D01*
X3668Y5943D01*
X3660Y5949D01*
X3650Y5951D01*
X3577D01*
X3601Y5975D01*
X3618Y5978D01*
X3635Y5989D01*
X3646Y6006D01*
X3650Y6026D01*
X3646Y6046D01*
X3644Y6049D01*
X3650D01*
X3660Y6051D01*
X3668Y6057D01*
X3674Y6065D01*
X3676Y6075D01*
Y6375D01*
X3674Y6385D01*
X3668Y6393D01*
X3660Y6399D01*
X3655Y6400D01*
X3745D01*
X3740Y6399D01*
D02*
G37*
G36*
X4540D02*
X4532Y6393D01*
X4526Y6385D01*
X4524Y6375D01*
Y6075D01*
X4526Y6065D01*
X4532Y6057D01*
X4540Y6051D01*
X4548Y6050D01*
X4545Y6046D01*
X4542Y6030D01*
X4474Y5961D01*
X4465Y5949D01*
X4465Y5946D01*
X4460Y5949D01*
X4450Y5951D01*
X4376D01*
X4398Y5973D01*
X4401Y5972D01*
X4421Y5976D01*
X4438Y5987D01*
X4449Y6004D01*
X4453Y6024D01*
X4449Y6044D01*
X4445Y6049D01*
X4450D01*
X4460Y6051D01*
X4468Y6057D01*
X4474Y6065D01*
X4476Y6075D01*
Y6375D01*
X4474Y6385D01*
X4468Y6393D01*
X4460Y6399D01*
X4455Y6400D01*
X4545D01*
X4540Y6399D01*
D02*
G37*
%LPC*%
G36*
X8315Y1495D02*
X8283D01*
Y1457D01*
X8289D01*
X8299Y1459D01*
X8307Y1464D01*
X8313Y1473D01*
X8315Y1482D01*
Y1495D01*
D02*
G37*
G36*
X9380Y1171D02*
Y1130D01*
X9421D01*
X9420Y1139D01*
X9407Y1157D01*
X9389Y1169D01*
X9380Y1171D01*
D02*
G37*
G36*
X9077Y1623D02*
X8977D01*
X8967Y1621D01*
X8959Y1616D01*
X8953Y1607D01*
X8951Y1598D01*
Y1590D01*
X8831D01*
Y1591D01*
X8829Y1601D01*
X8823Y1609D01*
X8815Y1615D01*
X8805Y1617D01*
X8725D01*
X8715Y1615D01*
X8707Y1609D01*
X8701Y1601D01*
X8699Y1591D01*
Y1511D01*
X8701Y1501D01*
X8707Y1493D01*
X8715Y1487D01*
X8725Y1485D01*
X8805D01*
X8815Y1487D01*
X8823Y1493D01*
X8829Y1501D01*
X8831Y1511D01*
Y1512D01*
X8951D01*
Y1502D01*
X8953Y1493D01*
X8959Y1484D01*
X8967Y1479D01*
X8977Y1477D01*
X9077D01*
X9087Y1479D01*
X9095Y1484D01*
X9101Y1493D01*
X9103Y1502D01*
Y1598D01*
X9101Y1607D01*
X9095Y1616D01*
X9087Y1621D01*
X9077Y1623D01*
D02*
G37*
G36*
X8315Y1768D02*
X8283D01*
Y1730D01*
X8289D01*
X8299Y1732D01*
X8307Y1738D01*
X8313Y1746D01*
X8315Y1756D01*
Y1768D01*
D02*
G37*
G36*
X8103Y3085D02*
X8062D01*
Y3044D01*
X8071Y3046D01*
X8089Y3058D01*
X8101Y3076D01*
X8103Y3085D01*
D02*
G37*
G36*
X8424Y3412D02*
X8397D01*
X8387Y3410D01*
X8379Y3404D01*
X8373Y3396D01*
X8371Y3386D01*
Y3359D01*
X8424D01*
Y3412D01*
D02*
G37*
G36*
X9107Y3426D02*
X9084Y3423D01*
X9062Y3414D01*
X9044Y3399D01*
X9040Y3395D01*
X9035Y3402D01*
X9027Y3407D01*
X9017Y3409D01*
X8917D01*
X8907Y3407D01*
X8899Y3402D01*
X8893Y3393D01*
X8891Y3383D01*
Y3324D01*
X8883Y3316D01*
Y3383D01*
X8881Y3393D01*
X8875Y3402D01*
X8867Y3407D01*
X8857Y3409D01*
X8757D01*
X8747Y3407D01*
X8739Y3402D01*
X8733Y3393D01*
X8731Y3385D01*
X8663D01*
Y3386D01*
X8661Y3396D01*
X8655Y3404D01*
X8647Y3410D01*
X8637Y3412D01*
X8557D01*
X8547Y3410D01*
X8539Y3404D01*
X8533Y3396D01*
X8531Y3386D01*
Y3306D01*
X8533Y3296D01*
X8539Y3288D01*
X8547Y3282D01*
X8557Y3280D01*
X8637D01*
X8647Y3282D01*
X8655Y3288D01*
X8661Y3296D01*
X8663Y3306D01*
Y3307D01*
X8731D01*
Y3288D01*
X8733Y3279D01*
X8739Y3270D01*
X8747Y3265D01*
X8757Y3263D01*
X8830D01*
X8587Y3019D01*
X8578Y3007D01*
X8575Y2992D01*
Y2594D01*
X8578Y2579D01*
X8587Y2567D01*
X8702Y2452D01*
X8714Y2443D01*
X8729Y2440D01*
X9127D01*
X9156Y2411D01*
Y2384D01*
X9135D01*
X9125Y2382D01*
X9117Y2377D01*
X9111Y2368D01*
X9109Y2358D01*
Y2264D01*
X9111Y2254D01*
X9117Y2245D01*
X9125Y2240D01*
X9135Y2238D01*
X9156D01*
Y2124D01*
X9135D01*
X9125Y2122D01*
X9117Y2116D01*
X9111Y2108D01*
X9109Y2098D01*
Y2003D01*
X9111Y1993D01*
X9117Y1984D01*
X9125Y1979D01*
X9135Y1977D01*
X9156D01*
Y1884D01*
X9135D01*
X9125Y1882D01*
X9117Y1877D01*
X9111Y1868D01*
X9109Y1858D01*
Y1764D01*
X9111Y1754D01*
X9117Y1745D01*
X9125Y1740D01*
X9135Y1738D01*
X9156D01*
Y1623D01*
X9137D01*
X9127Y1621D01*
X9119Y1616D01*
X9113Y1607D01*
X9111Y1598D01*
Y1502D01*
X9113Y1493D01*
X9119Y1484D01*
X9127Y1479D01*
X9137Y1477D01*
X9237D01*
X9247Y1479D01*
X9255Y1484D01*
X9261Y1493D01*
X9263Y1502D01*
Y1598D01*
X9261Y1607D01*
X9255Y1616D01*
X9247Y1621D01*
X9237Y1623D01*
X9234D01*
Y1738D01*
X9235D01*
X9245Y1740D01*
X9253Y1745D01*
X9259Y1754D01*
X9261Y1764D01*
Y1858D01*
X9259Y1868D01*
X9253Y1877D01*
X9245Y1882D01*
X9235Y1884D01*
X9234D01*
Y1977D01*
X9235D01*
X9245Y1979D01*
X9253Y1984D01*
X9259Y1993D01*
X9261Y2003D01*
Y2098D01*
X9259Y2108D01*
X9253Y2116D01*
X9245Y2122D01*
X9235Y2124D01*
X9234D01*
Y2238D01*
X9235D01*
X9245Y2240D01*
X9253Y2245D01*
X9259Y2254D01*
X9261Y2264D01*
Y2358D01*
X9259Y2368D01*
X9253Y2377D01*
X9245Y2382D01*
X9235Y2384D01*
X9234D01*
Y2427D01*
X9231Y2439D01*
X9231Y2442D01*
X9222Y2454D01*
X9170Y2506D01*
X9158Y2515D01*
X9143Y2518D01*
X8745D01*
X8653Y2610D01*
Y2976D01*
X8899Y3222D01*
X8900Y3223D01*
X8923Y3245D01*
X8923Y3246D01*
X8940Y3263D01*
X9017D01*
X9027Y3265D01*
X9035Y3270D01*
X9040Y3277D01*
X9044Y3273D01*
X9062Y3258D01*
X9084Y3249D01*
X9107Y3246D01*
X9130Y3249D01*
X9152Y3258D01*
X9170Y3273D01*
X9185Y3291D01*
X9194Y3313D01*
X9197Y3336D01*
X9194Y3359D01*
X9185Y3381D01*
X9170Y3399D01*
X9152Y3414D01*
X9130Y3423D01*
X9107Y3426D01*
D02*
G37*
G36*
X9355Y1171D02*
X9346Y1169D01*
X9328Y1157D01*
X9315Y1139D01*
X9314Y1130D01*
X9355D01*
Y1171D01*
D02*
G37*
G36*
X5975Y3064D02*
Y3023D01*
X6016D01*
X6014Y3032D01*
X6002Y3050D01*
X5984Y3062D01*
X5975Y3064D01*
D02*
G37*
G36*
X8477Y3412D02*
X8450D01*
Y3359D01*
X8503D01*
Y3386D01*
X8501Y3396D01*
X8495Y3404D01*
X8487Y3410D01*
X8477Y3412D01*
D02*
G37*
G36*
X8036Y3085D02*
X7995D01*
X7997Y3076D01*
X8009Y3058D01*
X8027Y3046D01*
X8036Y3044D01*
Y3085D01*
D02*
G37*
G36*
X8805Y1887D02*
X8725D01*
X8715Y1885D01*
X8707Y1879D01*
X8701Y1871D01*
X8699Y1861D01*
Y1781D01*
X8701Y1771D01*
X8707Y1763D01*
X8715Y1757D01*
X8725Y1755D01*
X8805D01*
X8815Y1757D01*
X8823Y1763D01*
X8829Y1771D01*
X8829Y1772D01*
X8949D01*
Y1764D01*
X8951Y1754D01*
X8957Y1745D01*
X8965Y1740D01*
X8975Y1738D01*
X9075D01*
X9085Y1740D01*
X9093Y1745D01*
X9099Y1754D01*
X9101Y1764D01*
Y1858D01*
X9099Y1868D01*
X9093Y1877D01*
X9085Y1882D01*
X9075Y1884D01*
X8975D01*
X8965Y1882D01*
X8957Y1877D01*
X8951Y1868D01*
X8949Y1858D01*
Y1850D01*
X8831D01*
Y1861D01*
X8829Y1871D01*
X8823Y1879D01*
X8815Y1885D01*
X8805Y1887D01*
D02*
G37*
G36*
X8315Y2015D02*
X8283D01*
Y1977D01*
X8289D01*
X8299Y1979D01*
X8307Y1984D01*
X8313Y1993D01*
X8315Y2002D01*
Y2015D01*
D02*
G37*
G36*
X7888Y3243D02*
X7847D01*
Y3202D01*
X7856Y3204D01*
X7874Y3216D01*
X7886Y3234D01*
X7888Y3243D01*
D02*
G37*
G36*
X8503Y3333D02*
X8450D01*
Y3280D01*
X8477D01*
X8487Y3282D01*
X8495Y3288D01*
X8501Y3296D01*
X8503Y3306D01*
Y3333D01*
D02*
G37*
G36*
X8424D02*
X8371D01*
Y3306D01*
X8373Y3296D01*
X8379Y3288D01*
X8387Y3282D01*
X8397Y3280D01*
X8424D01*
Y3333D01*
D02*
G37*
G36*
X7847Y3310D02*
Y3269D01*
X7888D01*
X7886Y3278D01*
X7874Y3296D01*
X7856Y3308D01*
X7847Y3310D01*
D02*
G37*
G36*
X7821D02*
X7812Y3308D01*
X7794Y3296D01*
X7782Y3278D01*
X7780Y3269D01*
X7821D01*
Y3310D01*
D02*
G37*
G36*
X8062Y3152D02*
Y3111D01*
X8103D01*
X8101Y3120D01*
X8089Y3138D01*
X8071Y3150D01*
X8062Y3152D01*
D02*
G37*
G36*
X7374Y2152D02*
X7236D01*
Y1915D01*
X7238Y1905D01*
X7244Y1897D01*
X7252Y1891D01*
X7262Y1889D01*
X7374D01*
Y2152D01*
D02*
G37*
G36*
X8036Y3152D02*
X8027Y3150D01*
X8009Y3138D01*
X7997Y3120D01*
X7995Y3111D01*
X8036D01*
Y3152D01*
D02*
G37*
G36*
X7538Y2152D02*
X7400D01*
Y1889D01*
X7512D01*
X7522Y1891D01*
X7530Y1897D01*
X7536Y1905D01*
X7538Y1915D01*
Y2152D01*
D02*
G37*
G36*
X7821Y3243D02*
X7780D01*
X7782Y3234D01*
X7794Y3216D01*
X7812Y3204D01*
X7821Y3202D01*
Y3243D01*
D02*
G37*
G36*
X2834Y2028D02*
X2793D01*
X2795Y2019D01*
X2807Y2001D01*
X2825Y1989D01*
X2834Y1987D01*
Y2028D01*
D02*
G37*
G36*
X8314Y3772D02*
X8305Y3770D01*
X8287Y3758D01*
X8275Y3740D01*
X8273Y3731D01*
X8314D01*
Y3772D01*
D02*
G37*
G36*
X8340D02*
Y3731D01*
X8381D01*
X8379Y3740D01*
X8367Y3758D01*
X8349Y3770D01*
X8340Y3772D01*
D02*
G37*
G36*
X4620Y3794D02*
X4579D01*
X4581Y3785D01*
X4593Y3767D01*
X4611Y3755D01*
X4620Y3753D01*
Y3794D01*
D02*
G37*
G36*
X8051Y3804D02*
X8014D01*
Y3721D01*
X8077D01*
Y3778D01*
X8075Y3788D01*
X8069Y3796D01*
X8061Y3802D01*
X8051Y3804D01*
D02*
G37*
G36*
X1993Y3804D02*
X1980Y3802D01*
X1955Y3792D01*
X1934Y3776D01*
X1918Y3755D01*
X1908Y3730D01*
X1906Y3717D01*
X1993D01*
Y3804D01*
D02*
G37*
G36*
X2019D02*
Y3717D01*
X2106D01*
X2104Y3730D01*
X2094Y3755D01*
X2078Y3776D01*
X2057Y3792D01*
X2032Y3802D01*
X2019Y3804D01*
D02*
G37*
G36*
X7988Y3804D02*
X7951D01*
X7941Y3802D01*
X7933Y3796D01*
X7927Y3788D01*
X7925Y3778D01*
Y3721D01*
X7988D01*
Y3804D01*
D02*
G37*
G36*
X4569Y3858D02*
X4528D01*
Y3817D01*
X4537Y3819D01*
X4555Y3831D01*
X4567Y3849D01*
X4569Y3858D01*
D02*
G37*
G36*
X4620Y3861D02*
X4611Y3859D01*
X4593Y3847D01*
X4581Y3829D01*
X4579Y3820D01*
X4620D01*
Y3861D01*
D02*
G37*
G36*
X4646D02*
Y3820D01*
X4687D01*
X4685Y3829D01*
X4673Y3847D01*
X4655Y3859D01*
X4646Y3861D01*
D02*
G37*
G36*
X4502Y3858D02*
X4461D01*
X4463Y3849D01*
X4475Y3831D01*
X4493Y3819D01*
X4502Y3817D01*
Y3858D01*
D02*
G37*
G36*
X4687Y3794D02*
X4646D01*
Y3753D01*
X4655Y3755D01*
X4673Y3767D01*
X4685Y3785D01*
X4687Y3794D01*
D02*
G37*
G36*
X7591Y3818D02*
X7550D01*
X7552Y3809D01*
X7564Y3791D01*
X7582Y3779D01*
X7591Y3777D01*
Y3818D01*
D02*
G37*
G36*
X7658D02*
X7617D01*
Y3777D01*
X7626Y3779D01*
X7644Y3791D01*
X7656Y3809D01*
X7658Y3818D01*
D02*
G37*
G36*
X8381Y3705D02*
X8340D01*
Y3664D01*
X8349Y3666D01*
X8367Y3678D01*
X8379Y3696D01*
X8381Y3705D01*
D02*
G37*
G36*
X2260Y3805D02*
X2234Y3802D01*
X2209Y3792D01*
X2188Y3776D01*
X2172Y3755D01*
X2162Y3730D01*
X2159Y3704D01*
X2162Y3678D01*
X2172Y3653D01*
X2188Y3632D01*
X2209Y3616D01*
X2234Y3606D01*
X2260Y3603D01*
X2286Y3606D01*
X2311Y3616D01*
X2332Y3632D01*
X2348Y3653D01*
X2358Y3678D01*
X2361Y3704D01*
X2358Y3730D01*
X2348Y3755D01*
X2332Y3776D01*
X2311Y3792D01*
X2286Y3802D01*
X2260Y3805D01*
D02*
G37*
G36*
X2514D02*
X2488Y3802D01*
X2463Y3792D01*
X2442Y3776D01*
X2426Y3755D01*
X2416Y3730D01*
X2413Y3704D01*
X2416Y3678D01*
X2426Y3653D01*
X2442Y3632D01*
X2463Y3616D01*
X2488Y3606D01*
X2514Y3603D01*
X2540Y3606D01*
X2565Y3616D01*
X2586Y3632D01*
X2602Y3653D01*
X2612Y3678D01*
X2615Y3704D01*
X2612Y3730D01*
X2602Y3755D01*
X2586Y3776D01*
X2565Y3792D01*
X2540Y3802D01*
X2514Y3805D01*
D02*
G37*
G36*
X2768D02*
X2742Y3802D01*
X2717Y3792D01*
X2696Y3776D01*
X2680Y3755D01*
X2670Y3730D01*
X2667Y3704D01*
X2670Y3678D01*
X2680Y3653D01*
X2696Y3632D01*
X2717Y3616D01*
X2742Y3606D01*
X2768Y3603D01*
X2794Y3606D01*
X2819Y3616D01*
X2840Y3632D01*
X2856Y3653D01*
X2866Y3678D01*
X2869Y3704D01*
X2866Y3730D01*
X2856Y3755D01*
X2840Y3776D01*
X2819Y3792D01*
X2794Y3802D01*
X2768Y3805D01*
D02*
G37*
G36*
X6884Y3584D02*
Y3543D01*
X6925D01*
X6923Y3552D01*
X6911Y3570D01*
X6893Y3582D01*
X6884Y3584D01*
D02*
G37*
G36*
X6858Y3517D02*
X6817D01*
X6819Y3508D01*
X6831Y3490D01*
X6849Y3478D01*
X6858Y3476D01*
Y3517D01*
D02*
G37*
G36*
X6925D02*
X6884D01*
Y3476D01*
X6893Y3478D01*
X6911Y3490D01*
X6923Y3508D01*
X6925Y3517D01*
D02*
G37*
G36*
X6858Y3584D02*
X6849Y3582D01*
X6831Y3570D01*
X6819Y3552D01*
X6817Y3543D01*
X6858D01*
Y3584D01*
D02*
G37*
G36*
X7988Y3695D02*
X7925D01*
Y3638D01*
X7927Y3628D01*
X7933Y3620D01*
X7941Y3614D01*
X7951Y3612D01*
X7988D01*
Y3695D01*
D02*
G37*
G36*
X8077D02*
X8014D01*
Y3612D01*
X8051D01*
X8061Y3614D01*
X8069Y3620D01*
X8075Y3628D01*
X8077Y3638D01*
Y3695D01*
D02*
G37*
G36*
X8314Y3705D02*
X8273D01*
X8275Y3696D01*
X8287Y3678D01*
X8305Y3666D01*
X8314Y3664D01*
Y3705D01*
D02*
G37*
G36*
X2106Y3691D02*
X2019D01*
Y3604D01*
X2032Y3606D01*
X2057Y3616D01*
X2078Y3632D01*
X2094Y3653D01*
X2104Y3678D01*
X2106Y3691D01*
D02*
G37*
G36*
X3022Y3805D02*
X2996Y3802D01*
X2971Y3792D01*
X2950Y3776D01*
X2934Y3755D01*
X2924Y3730D01*
X2921Y3704D01*
X2924Y3678D01*
X2934Y3653D01*
X2950Y3632D01*
X2971Y3616D01*
X2996Y3606D01*
X3022Y3603D01*
X3048Y3606D01*
X3073Y3616D01*
X3094Y3632D01*
X3110Y3653D01*
X3120Y3678D01*
X3123Y3704D01*
X3120Y3730D01*
X3110Y3755D01*
X3094Y3776D01*
X3073Y3792D01*
X3048Y3802D01*
X3022Y3805D01*
D02*
G37*
G36*
X3351Y3805D02*
X3201D01*
X3191Y3803D01*
X3183Y3797D01*
X3177Y3789D01*
X3175Y3779D01*
Y3629D01*
X3177Y3619D01*
X3183Y3611D01*
X3191Y3605D01*
X3201Y3603D01*
X3351D01*
X3361Y3605D01*
X3369Y3611D01*
X3375Y3619D01*
X3377Y3629D01*
Y3779D01*
X3375Y3789D01*
X3369Y3797D01*
X3361Y3803D01*
X3351Y3805D01*
D02*
G37*
G36*
X1993Y3691D02*
X1906D01*
X1908Y3678D01*
X1918Y3653D01*
X1934Y3632D01*
X1955Y3616D01*
X1980Y3606D01*
X1993Y3604D01*
Y3691D01*
D02*
G37*
G36*
X5949Y3064D02*
X5940Y3062D01*
X5922Y3050D01*
X5910Y3032D01*
X5908Y3023D01*
X5949D01*
Y3064D01*
D02*
G37*
G36*
X5683Y2058D02*
X5642D01*
X5644Y2049D01*
X5656Y2031D01*
X5674Y2019D01*
X5683Y2017D01*
Y2058D01*
D02*
G37*
G36*
X2865Y2612D02*
X2862Y2611D01*
X2860D01*
X2860D01*
X2844Y2608D01*
X2835Y2604D01*
X2822Y2595D01*
X2822Y2595D01*
X2818Y2592D01*
X2815Y2588D01*
X2815Y2588D01*
X2806Y2575D01*
X2802Y2566D01*
X2799Y2550D01*
X2799Y2550D01*
Y2550D01*
Y2540D01*
Y2540D01*
Y2540D01*
X2802Y2524D01*
X2806Y2515D01*
X2815Y2502D01*
X2815Y2502D01*
X2818Y2498D01*
X2822Y2495D01*
X2822Y2495D01*
X2835Y2486D01*
X2844Y2482D01*
X2860Y2479D01*
X2860Y2479D01*
X2862D01*
X2865Y2478D01*
X2868Y2479D01*
X2870D01*
X2870D01*
X2886Y2482D01*
X2895Y2486D01*
X2908Y2495D01*
X2908Y2495D01*
X2912Y2498D01*
X2915Y2502D01*
X2915Y2502D01*
X2924Y2515D01*
X2928Y2524D01*
X2931Y2540D01*
X2931Y2540D01*
Y2550D01*
Y2550D01*
Y2550D01*
X2928Y2566D01*
X2924Y2575D01*
X2915Y2588D01*
X2915Y2588D01*
X2912Y2592D01*
X2908Y2595D01*
X2908Y2595D01*
X2895Y2604D01*
X2886Y2608D01*
X2870Y2611D01*
X2870Y2611D01*
X2868D01*
X2865Y2612D01*
D02*
G37*
G36*
X1387Y2837D02*
X1125D01*
X1127Y2807D01*
X1137Y2765D01*
X1154Y2725D01*
X1177Y2688D01*
X1205Y2655D01*
X1238Y2627D01*
X1275Y2604D01*
X1315Y2587D01*
X1357Y2577D01*
X1387Y2575D01*
Y2837D01*
D02*
G37*
G36*
X7057Y2556D02*
X7025D01*
Y2403D01*
X7083D01*
Y2530D01*
X7081Y2540D01*
X7075Y2548D01*
X7067Y2554D01*
X7057Y2556D01*
D02*
G37*
G36*
X5685Y2632D02*
X5682Y2632D01*
X5680D01*
X5680D01*
X5664Y2628D01*
X5663Y2628D01*
X5662Y2628D01*
X5657Y2627D01*
X5657D01*
X5653Y2625D01*
X5647Y2623D01*
X5647Y2623D01*
X5642Y2620D01*
X5642Y2620D01*
X5641Y2619D01*
X5627Y2610D01*
X5627Y2610D01*
X5627Y2610D01*
X5620Y2603D01*
X5620Y2603D01*
X5620Y2603D01*
X5611Y2589D01*
X5610Y2588D01*
X5610Y2588D01*
X5607Y2583D01*
X5607Y2583D01*
X5605Y2577D01*
X5603Y2573D01*
Y2573D01*
X5602Y2568D01*
X5602Y2567D01*
X5602Y2566D01*
X5598Y2550D01*
X5598Y2550D01*
Y2550D01*
Y2540D01*
Y2540D01*
Y2540D01*
X5602Y2524D01*
X5602Y2523D01*
X5602Y2522D01*
X5603Y2517D01*
Y2517D01*
X5605Y2513D01*
X5607Y2507D01*
X5607Y2507D01*
X5610Y2502D01*
X5610Y2502D01*
X5611Y2501D01*
X5620Y2487D01*
X5620Y2487D01*
X5620Y2487D01*
X5627Y2480D01*
X5627Y2480D01*
X5627Y2480D01*
X5641Y2471D01*
X5642Y2470D01*
X5642Y2470D01*
X5647Y2467D01*
X5647Y2467D01*
X5653Y2465D01*
X5657Y2463D01*
X5657D01*
X5662Y2462D01*
X5663Y2462D01*
X5664Y2462D01*
X5680Y2458D01*
X5680Y2458D01*
X5682D01*
X5685Y2458D01*
X5688Y2458D01*
X5690D01*
X5690D01*
X5706Y2462D01*
X5707Y2462D01*
X5708Y2462D01*
X5713Y2463D01*
X5713D01*
X5717Y2465D01*
X5723Y2467D01*
X5723Y2467D01*
X5728Y2470D01*
X5728Y2470D01*
X5729Y2471D01*
X5743Y2480D01*
X5743Y2480D01*
X5750Y2487D01*
X5750Y2487D01*
X5750Y2487D01*
X5759Y2501D01*
X5760Y2502D01*
X5760Y2502D01*
X5763Y2507D01*
X5763Y2507D01*
X5765Y2513D01*
X5767Y2517D01*
Y2517D01*
X5768Y2522D01*
X5768Y2523D01*
X5768Y2524D01*
X5772Y2540D01*
X5772Y2540D01*
Y2550D01*
Y2550D01*
Y2550D01*
X5768Y2566D01*
X5768Y2567D01*
X5768Y2568D01*
X5767Y2573D01*
Y2573D01*
X5765Y2577D01*
X5763Y2583D01*
X5763Y2583D01*
X5760Y2588D01*
X5760Y2588D01*
X5759Y2589D01*
X5750Y2603D01*
X5750Y2603D01*
X5743Y2610D01*
X5743Y2610D01*
X5743Y2610D01*
X5729Y2619D01*
X5728Y2620D01*
X5728Y2620D01*
X5723Y2623D01*
X5723Y2623D01*
X5717Y2625D01*
X5713Y2627D01*
X5713D01*
X5708Y2628D01*
X5707Y2628D01*
X5706Y2628D01*
X5690Y2632D01*
X5690Y2632D01*
X5688D01*
X5685Y2632D01*
D02*
G37*
G36*
X5750Y2058D02*
X5709D01*
Y2017D01*
X5718Y2019D01*
X5736Y2031D01*
X5748Y2049D01*
X5750Y2058D01*
D02*
G37*
G36*
X1675Y2837D02*
X1413D01*
Y2575D01*
X1443Y2577D01*
X1485Y2587D01*
X1525Y2604D01*
X1562Y2627D01*
X1595Y2655D01*
X1623Y2688D01*
X1646Y2725D01*
X1663Y2765D01*
X1673Y2807D01*
X1675Y2837D01*
D02*
G37*
G36*
X7427Y2700D02*
X7386D01*
Y2659D01*
X7395Y2661D01*
X7413Y2673D01*
X7425Y2691D01*
X7427Y2700D01*
D02*
G37*
G36*
X6070Y2730D02*
X6029D01*
X6031Y2721D01*
X6043Y2703D01*
X6061Y2691D01*
X6070Y2689D01*
Y2730D01*
D02*
G37*
G36*
X6137D02*
X6096D01*
Y2689D01*
X6105Y2691D01*
X6123Y2703D01*
X6135Y2721D01*
X6137Y2730D01*
D02*
G37*
G36*
X9087Y2837D02*
X8825D01*
X8827Y2807D01*
X8837Y2765D01*
X8854Y2725D01*
X8877Y2688D01*
X8905Y2655D01*
X8938Y2627D01*
X8975Y2604D01*
X9015Y2587D01*
X9057Y2577D01*
X9087Y2575D01*
Y2837D01*
D02*
G37*
G36*
X9375D02*
X9113D01*
Y2575D01*
X9143Y2577D01*
X9185Y2587D01*
X9225Y2604D01*
X9262Y2627D01*
X9295Y2655D01*
X9323Y2688D01*
X9346Y2725D01*
X9363Y2765D01*
X9373Y2807D01*
X9375Y2837D01*
D02*
G37*
G36*
X7360Y2700D02*
X7319D01*
X7321Y2691D01*
X7333Y2673D01*
X7351Y2661D01*
X7360Y2659D01*
Y2700D01*
D02*
G37*
G36*
X6999Y2556D02*
X6967D01*
X6957Y2554D01*
X6949Y2548D01*
X6943Y2540D01*
X6941Y2530D01*
Y2403D01*
X6999D01*
Y2556D01*
D02*
G37*
G36*
X7512Y2441D02*
X7400D01*
Y2178D01*
X7538D01*
Y2415D01*
X7536Y2425D01*
X7530Y2433D01*
X7522Y2439D01*
X7512Y2441D01*
D02*
G37*
G36*
X8315Y2270D02*
X8283D01*
Y2232D01*
X8289D01*
X8299Y2234D01*
X8307Y2239D01*
X8313Y2248D01*
X8315Y2258D01*
Y2270D01*
D02*
G37*
G36*
X7374Y2441D02*
X7262D01*
X7252Y2439D01*
X7244Y2433D01*
X7238Y2425D01*
X7236Y2415D01*
Y2178D01*
X7374D01*
Y2441D01*
D02*
G37*
G36*
X7083Y2377D02*
X7025D01*
Y2224D01*
X7057D01*
X7067Y2226D01*
X7075Y2232D01*
X7081Y2240D01*
X7083Y2250D01*
Y2377D01*
D02*
G37*
G36*
X6999D02*
X6941D01*
Y2250D01*
X6943Y2240D01*
X6949Y2232D01*
X6957Y2226D01*
X6967Y2224D01*
X6999D01*
Y2377D01*
D02*
G37*
G36*
X6316Y2796D02*
X6292Y2791D01*
X6272Y2778D01*
X6259Y2758D01*
X6254Y2734D01*
Y2552D01*
X6249Y2548D01*
X6243Y2540D01*
X6241Y2530D01*
Y2250D01*
X6243Y2240D01*
X6249Y2232D01*
X6257Y2226D01*
X6267Y2224D01*
X6357D01*
X6367Y2226D01*
X6375Y2232D01*
X6381Y2240D01*
X6383Y2250D01*
Y2530D01*
X6381Y2540D01*
X6378Y2545D01*
Y2734D01*
X6373Y2758D01*
X6360Y2778D01*
X6340Y2791D01*
X6316Y2796D01*
D02*
G37*
G36*
X6912Y2096D02*
X6910Y2096D01*
X6909Y2096D01*
X6892Y2094D01*
X6889Y2093D01*
X6888Y2093D01*
X6888Y2093D01*
X6885Y2092D01*
X6869Y2086D01*
X6867Y2084D01*
X6866Y2084D01*
X6866Y2083D01*
X6863Y2082D01*
X6850Y2072D01*
X6848Y2070D01*
X6848Y2069D01*
X6847Y2069D01*
X6845Y2067D01*
X6835Y2054D01*
X6834Y2051D01*
X6833Y2051D01*
X6833Y2050D01*
X6831Y2048D01*
X6825Y2032D01*
X6824Y2029D01*
X6824Y2029D01*
X6824Y2028D01*
X6823Y2025D01*
X6821Y2008D01*
X6821Y2006D01*
X6821Y2005D01*
X6821Y2004D01*
X6821Y2002D01*
X6823Y1985D01*
X6824Y1982D01*
X6824Y1981D01*
X6824Y1981D01*
X6825Y1978D01*
X6831Y1962D01*
X6833Y1960D01*
X6833Y1959D01*
X6834Y1959D01*
X6835Y1956D01*
X6845Y1943D01*
X6847Y1941D01*
X6848Y1941D01*
X6848Y1940D01*
X6850Y1938D01*
X6863Y1928D01*
X6866Y1927D01*
X6866Y1926D01*
X6867Y1926D01*
X6869Y1924D01*
X6885Y1918D01*
X6888Y1917D01*
X6888Y1917D01*
X6889Y1917D01*
X6892Y1916D01*
X6909Y1914D01*
X6910Y1914D01*
X6912Y1914D01*
X6914Y1914D01*
X6915Y1914D01*
X6932Y1916D01*
X6935Y1917D01*
X6936Y1917D01*
X6936Y1917D01*
X6939Y1918D01*
X6955Y1924D01*
X6957Y1926D01*
X6958Y1926D01*
X6958Y1927D01*
X6961Y1928D01*
X6974Y1938D01*
X6976Y1940D01*
X6976Y1941D01*
X6977Y1941D01*
X6979Y1943D01*
X6989Y1956D01*
X6990Y1959D01*
X6991Y1959D01*
X6991Y1960D01*
X6993Y1962D01*
X6999Y1978D01*
X7000Y1981D01*
X7000Y1981D01*
X7000Y1982D01*
X7001Y1985D01*
X7003Y2002D01*
X7003Y2004D01*
X7003Y2005D01*
X7003Y2006D01*
X7003Y2008D01*
X7001Y2025D01*
X7000Y2028D01*
X7000Y2029D01*
X7000Y2029D01*
X6999Y2032D01*
X6993Y2048D01*
X6991Y2050D01*
X6991Y2051D01*
X6990Y2051D01*
X6989Y2054D01*
X6979Y2067D01*
X6977Y2069D01*
X6976Y2069D01*
X6976Y2070D01*
X6974Y2072D01*
X6961Y2082D01*
X6958Y2083D01*
X6958Y2084D01*
X6957Y2084D01*
X6955Y2086D01*
X6939Y2092D01*
X6936Y2093D01*
X6936Y2093D01*
X6935Y2093D01*
X6932Y2094D01*
X6915Y2096D01*
X6914Y2096D01*
X6912Y2096D01*
D02*
G37*
G36*
X2860Y2095D02*
Y2054D01*
X2901D01*
X2899Y2063D01*
X2887Y2081D01*
X2869Y2093D01*
X2860Y2095D01*
D02*
G37*
G36*
X2834D02*
X2825Y2093D01*
X2807Y2081D01*
X2795Y2063D01*
X2793Y2054D01*
X2834D01*
Y2095D01*
D02*
G37*
G36*
X8815Y2387D02*
X8735D01*
X8725Y2385D01*
X8717Y2379D01*
X8711Y2371D01*
X8709Y2361D01*
Y2281D01*
X8711Y2271D01*
X8717Y2263D01*
X8725Y2257D01*
X8735Y2255D01*
X8815D01*
X8825Y2257D01*
X8833Y2263D01*
X8839Y2271D01*
X8839Y2272D01*
X8949D01*
Y2264D01*
X8951Y2254D01*
X8957Y2245D01*
X8965Y2240D01*
X8975Y2238D01*
X9075D01*
X9085Y2240D01*
X9093Y2245D01*
X9099Y2254D01*
X9101Y2264D01*
Y2358D01*
X9099Y2368D01*
X9093Y2377D01*
X9085Y2382D01*
X9075Y2384D01*
X8975D01*
X8965Y2382D01*
X8957Y2377D01*
X8951Y2368D01*
X8949Y2358D01*
Y2350D01*
X8841D01*
Y2361D01*
X8839Y2371D01*
X8833Y2379D01*
X8825Y2385D01*
X8815Y2387D01*
D02*
G37*
G36*
X9075Y2124D02*
X8975D01*
X8965Y2122D01*
X8957Y2116D01*
X8951Y2108D01*
X8949Y2098D01*
Y2090D01*
X8841D01*
Y2091D01*
X8839Y2101D01*
X8833Y2109D01*
X8825Y2115D01*
X8815Y2117D01*
X8735D01*
X8725Y2115D01*
X8717Y2109D01*
X8711Y2101D01*
X8709Y2091D01*
Y2011D01*
X8711Y2001D01*
X8717Y1993D01*
X8725Y1987D01*
X8735Y1985D01*
X8815D01*
X8825Y1987D01*
X8833Y1993D01*
X8839Y2001D01*
X8841Y2011D01*
Y2012D01*
X8949D01*
Y2003D01*
X8951Y1993D01*
X8957Y1984D01*
X8965Y1979D01*
X8975Y1977D01*
X9075D01*
X9085Y1979D01*
X9093Y1984D01*
X9099Y1993D01*
X9101Y2003D01*
Y2098D01*
X9099Y2108D01*
X9093Y2116D01*
X9085Y2122D01*
X9075Y2124D01*
D02*
G37*
G36*
X5709Y2125D02*
Y2084D01*
X5750D01*
X5748Y2093D01*
X5736Y2111D01*
X5718Y2123D01*
X5709Y2125D01*
D02*
G37*
G36*
X5683D02*
X5674Y2123D01*
X5656Y2111D01*
X5644Y2093D01*
X5642Y2084D01*
X5683D01*
Y2125D01*
D02*
G37*
G36*
X7360Y2767D02*
X7351Y2765D01*
X7333Y2753D01*
X7321Y2734D01*
X7319Y2726D01*
X7360D01*
Y2767D01*
D02*
G37*
G36*
X6462Y2946D02*
X6421D01*
X6423Y2937D01*
X6435Y2919D01*
X6453Y2907D01*
X6462Y2905D01*
Y2946D01*
D02*
G37*
G36*
X6529D02*
X6488D01*
Y2905D01*
X6497Y2907D01*
X6515Y2919D01*
X6527Y2937D01*
X6529Y2946D01*
D02*
G37*
G36*
X7100Y2965D02*
X7059D01*
X7061Y2956D01*
X7073Y2938D01*
X7091Y2926D01*
X7100Y2924D01*
Y2965D01*
D02*
G37*
G36*
X1413Y3125D02*
Y2863D01*
X1675D01*
X1673Y2893D01*
X1663Y2935D01*
X1646Y2975D01*
X1623Y3012D01*
X1595Y3045D01*
X1562Y3073D01*
X1525Y3096D01*
X1485Y3113D01*
X1443Y3123D01*
X1413Y3125D01*
D02*
G37*
G36*
X9087D02*
X9057Y3123D01*
X9015Y3113D01*
X8975Y3096D01*
X8938Y3073D01*
X8905Y3045D01*
X8877Y3012D01*
X8854Y2975D01*
X8837Y2935D01*
X8827Y2893D01*
X8825Y2863D01*
X9087D01*
Y3125D01*
D02*
G37*
G36*
X9113D02*
Y2863D01*
X9375D01*
X9373Y2893D01*
X9363Y2935D01*
X9346Y2975D01*
X9323Y3012D01*
X9295Y3045D01*
X9262Y3073D01*
X9225Y3096D01*
X9185Y3113D01*
X9143Y3123D01*
X9113Y3125D01*
D02*
G37*
G36*
X7167Y2965D02*
X7126D01*
Y2924D01*
X7135Y2926D01*
X7153Y2938D01*
X7165Y2956D01*
X7167Y2965D01*
D02*
G37*
G36*
X6488Y3013D02*
Y2972D01*
X6529D01*
X6527Y2981D01*
X6515Y2999D01*
X6497Y3011D01*
X6488Y3013D01*
D02*
G37*
G36*
X7100Y3032D02*
X7091Y3030D01*
X7073Y3018D01*
X7061Y3000D01*
X7059Y2991D01*
X7100D01*
Y3032D01*
D02*
G37*
G36*
X7126D02*
Y2991D01*
X7167D01*
X7165Y3000D01*
X7153Y3018D01*
X7135Y3030D01*
X7126Y3032D01*
D02*
G37*
G36*
X5949Y2997D02*
X5908D01*
X5910Y2988D01*
X5922Y2970D01*
X5940Y2958D01*
X5949Y2956D01*
Y2997D01*
D02*
G37*
G36*
X6016D02*
X5975D01*
Y2956D01*
X5984Y2958D01*
X6002Y2970D01*
X6014Y2988D01*
X6016Y2997D01*
D02*
G37*
G36*
X6462Y3013D02*
X6453Y3011D01*
X6435Y2999D01*
X6423Y2981D01*
X6421Y2972D01*
X6462D01*
Y3013D01*
D02*
G37*
G36*
X1387Y3125D02*
X1357Y3123D01*
X1315Y3113D01*
X1275Y3096D01*
X1238Y3073D01*
X1205Y3045D01*
X1177Y3012D01*
X1154Y2975D01*
X1137Y2935D01*
X1127Y2893D01*
X1125Y2863D01*
X1387D01*
Y3125D01*
D02*
G37*
G36*
X2849Y2777D02*
X2808D01*
X2810Y2768D01*
X2822Y2750D01*
X2840Y2738D01*
X2849Y2736D01*
Y2777D01*
D02*
G37*
G36*
X2916D02*
X2875D01*
Y2736D01*
X2884Y2738D01*
X2902Y2750D01*
X2914Y2768D01*
X2916Y2777D01*
D02*
G37*
G36*
X6070Y2797D02*
X6061Y2795D01*
X6043Y2783D01*
X6031Y2765D01*
X6029Y2756D01*
X6070D01*
Y2797D01*
D02*
G37*
G36*
X6807Y2556D02*
X6717D01*
X6707Y2554D01*
X6699Y2548D01*
X6693Y2540D01*
X6691Y2530D01*
Y2250D01*
X6693Y2240D01*
X6699Y2232D01*
X6707Y2226D01*
X6711Y2225D01*
Y2106D01*
X6620Y2016D01*
Y2228D01*
X6625Y2232D01*
X6631Y2240D01*
X6633Y2250D01*
Y2530D01*
X6631Y2540D01*
X6625Y2548D01*
X6617Y2554D01*
X6607Y2556D01*
X6517D01*
X6507Y2554D01*
X6499Y2548D01*
X6493Y2540D01*
X6491Y2530D01*
Y2250D01*
X6493Y2240D01*
X6499Y2232D01*
X6507Y2226D01*
X6517Y2224D01*
X6517D01*
Y2019D01*
X6503Y2006D01*
X6503Y2006D01*
X6503Y2008D01*
X6501Y2025D01*
X6500Y2028D01*
X6500Y2029D01*
X6500Y2029D01*
X6499Y2032D01*
X6493Y2048D01*
X6491Y2050D01*
X6491Y2051D01*
X6490Y2051D01*
X6489Y2054D01*
X6479Y2067D01*
X6477Y2069D01*
X6476Y2069D01*
X6476Y2070D01*
X6474Y2072D01*
X6461Y2082D01*
X6458Y2083D01*
X6458Y2084D01*
X6457Y2084D01*
X6455Y2086D01*
X6439Y2092D01*
X6436Y2093D01*
X6436Y2093D01*
X6435Y2093D01*
X6432Y2094D01*
X6415Y2096D01*
X6414Y2096D01*
X6412Y2096D01*
X6410Y2096D01*
X6409Y2096D01*
X6392Y2094D01*
X6389Y2093D01*
X6388Y2093D01*
X6388Y2093D01*
X6385Y2092D01*
X6369Y2086D01*
X6367Y2084D01*
X6366Y2084D01*
X6366Y2083D01*
X6363Y2082D01*
X6350Y2072D01*
X6348Y2070D01*
X6348Y2069D01*
X6347Y2069D01*
X6345Y2067D01*
X6335Y2054D01*
X6334Y2051D01*
X6333Y2051D01*
X6333Y2050D01*
X6331Y2048D01*
X6325Y2032D01*
X6324Y2029D01*
X6324Y2029D01*
X6324Y2028D01*
X6323Y2025D01*
X6321Y2008D01*
X6321Y2006D01*
X6321Y2005D01*
X6321Y2004D01*
X6321Y2002D01*
X6323Y1985D01*
X6324Y1982D01*
X6324Y1981D01*
X6324Y1981D01*
X6325Y1978D01*
X6331Y1962D01*
X6333Y1960D01*
X6333Y1959D01*
X6334Y1959D01*
X6335Y1956D01*
X6345Y1943D01*
X6347Y1941D01*
X6348Y1941D01*
X6348Y1940D01*
X6350Y1938D01*
X6363Y1928D01*
X6366Y1927D01*
X6366Y1926D01*
X6367Y1926D01*
X6369Y1924D01*
X6385Y1918D01*
X6388Y1917D01*
X6388Y1917D01*
X6389Y1917D01*
X6392Y1916D01*
X6392Y1916D01*
X6088D01*
Y2415D01*
X6086Y2425D01*
X6080Y2433D01*
X6072Y2439D01*
X6062Y2441D01*
X5812D01*
X5802Y2439D01*
X5794Y2433D01*
X5788Y2425D01*
X5786Y2415D01*
Y1916D01*
X5360D01*
X5246Y2030D01*
Y2103D01*
X5250Y2124D01*
X5246Y2146D01*
X5234Y2164D01*
X5216Y2176D01*
X5194Y2180D01*
X5172Y2176D01*
X5166Y2172D01*
Y2174D01*
X5166Y2174D01*
X5162Y2196D01*
X5150Y2214D01*
X5132Y2226D01*
X5110Y2230D01*
X5088Y2226D01*
X5070Y2214D01*
X5058Y2196D01*
X5054Y2174D01*
X5058Y2152D01*
X5062Y2146D01*
Y2091D01*
X5064Y2084D01*
Y1982D01*
X5068Y1962D01*
X5079Y1946D01*
X5272Y1753D01*
X5288Y1742D01*
X5308Y1738D01*
X6466D01*
X6486Y1742D01*
X6502Y1753D01*
X6798Y2049D01*
X6809Y2066D01*
X6813Y2085D01*
Y2225D01*
X6817Y2226D01*
X6825Y2232D01*
X6831Y2240D01*
X6833Y2250D01*
Y2530D01*
X6831Y2540D01*
X6825Y2548D01*
X6817Y2554D01*
X6807Y2556D01*
D02*
G37*
G36*
X2901Y2028D02*
X2860D01*
Y1987D01*
X2869Y1989D01*
X2887Y2001D01*
X2899Y2019D01*
X2901Y2028D01*
D02*
G37*
G36*
X7386Y2767D02*
Y2726D01*
X7427D01*
X7425Y2734D01*
X7413Y2753D01*
X7395Y2765D01*
X7386Y2767D01*
D02*
G37*
G36*
X6096Y2797D02*
Y2756D01*
X6137D01*
X6135Y2765D01*
X6123Y2783D01*
X6105Y2795D01*
X6096Y2797D01*
D02*
G37*
G36*
X2875Y2844D02*
Y2803D01*
X2916D01*
X2914Y2812D01*
X2902Y2830D01*
X2884Y2842D01*
X2875Y2844D01*
D02*
G37*
G36*
X5662Y2890D02*
X5653Y2888D01*
X5635Y2876D01*
X5623Y2858D01*
X5621Y2849D01*
X5662D01*
Y2890D01*
D02*
G37*
G36*
X5688D02*
Y2849D01*
X5729D01*
X5727Y2858D01*
X5715Y2876D01*
X5697Y2888D01*
X5688Y2890D01*
D02*
G37*
G36*
X5662Y2823D02*
X5621D01*
X5623Y2814D01*
X5635Y2796D01*
X5653Y2784D01*
X5662Y2782D01*
Y2823D01*
D02*
G37*
G36*
X5729D02*
X5688D01*
Y2782D01*
X5697Y2784D01*
X5715Y2796D01*
X5727Y2814D01*
X5729Y2823D01*
D02*
G37*
G36*
X2849Y2844D02*
X2840Y2842D01*
X2822Y2830D01*
X2810Y2812D01*
X2808Y2803D01*
X2849D01*
Y2844D01*
D02*
G37*
G36*
X7591Y3885D02*
X7582Y3883D01*
X7564Y3871D01*
X7552Y3853D01*
X7550Y3844D01*
X7591D01*
Y3885D01*
D02*
G37*
G36*
X7978Y5475D02*
X7915D01*
Y5418D01*
X7917Y5408D01*
X7923Y5400D01*
X7931Y5394D01*
X7941Y5392D01*
X7978D01*
Y5475D01*
D02*
G37*
G36*
X8067D02*
X8004D01*
Y5392D01*
X8041D01*
X8051Y5394D01*
X8059Y5400D01*
X8065Y5408D01*
X8067Y5418D01*
Y5475D01*
D02*
G37*
G36*
X8346Y5463D02*
X8305D01*
X8307Y5454D01*
X8319Y5436D01*
X8337Y5424D01*
X8346Y5422D01*
Y5463D01*
D02*
G37*
G36*
X8041Y4994D02*
X8004D01*
Y4911D01*
X8067D01*
Y4968D01*
X8065Y4978D01*
X8059Y4986D01*
X8051Y4992D01*
X8041Y4994D01*
D02*
G37*
G36*
X8340Y4885D02*
X8331Y4883D01*
X8313Y4871D01*
X8301Y4853D01*
X8299Y4844D01*
X8340D01*
Y4885D01*
D02*
G37*
G36*
X8366D02*
Y4844D01*
X8407D01*
X8405Y4853D01*
X8393Y4871D01*
X8375Y4883D01*
X8366Y4885D01*
D02*
G37*
G36*
X7978Y4994D02*
X7941D01*
X7931Y4992D01*
X7923Y4986D01*
X7917Y4978D01*
X7915Y4968D01*
Y4911D01*
X7978D01*
Y4994D01*
D02*
G37*
G36*
X8041Y5584D02*
X8004D01*
Y5501D01*
X8067D01*
Y5558D01*
X8065Y5568D01*
X8059Y5576D01*
X8051Y5582D01*
X8041Y5584D01*
D02*
G37*
G36*
X5790Y5558D02*
X5754D01*
X5755Y5551D01*
X5766Y5534D01*
X5783Y5523D01*
X5790Y5522D01*
Y5558D01*
D02*
G37*
G36*
X5852D02*
X5816D01*
Y5522D01*
X5823Y5523D01*
X5840Y5534D01*
X5851Y5551D01*
X5852Y5558D01*
D02*
G37*
G36*
X7978Y5584D02*
X7941D01*
X7931Y5582D01*
X7923Y5576D01*
X7917Y5568D01*
X7915Y5558D01*
Y5501D01*
X7978D01*
Y5584D01*
D02*
G37*
G36*
X8413Y5463D02*
X8372D01*
Y5422D01*
X8381Y5424D01*
X8399Y5436D01*
X8411Y5454D01*
X8413Y5463D01*
D02*
G37*
G36*
X8346Y5530D02*
X8337Y5528D01*
X8319Y5516D01*
X8307Y5498D01*
X8305Y5489D01*
X8346D01*
Y5530D01*
D02*
G37*
G36*
X8372D02*
Y5489D01*
X8413D01*
X8411Y5498D01*
X8399Y5516D01*
X8381Y5528D01*
X8372Y5530D01*
D02*
G37*
G36*
X6813Y4877D02*
X6766D01*
X6756Y4875D01*
X6748Y4869D01*
X6742Y4861D01*
X6740Y4851D01*
Y4739D01*
X6813D01*
Y4877D01*
D02*
G37*
G36*
X6886D02*
X6839D01*
Y4739D01*
X6912D01*
Y4851D01*
X6910Y4861D01*
X6904Y4869D01*
X6896Y4875D01*
X6886Y4877D01*
D02*
G37*
G36*
X7403Y4809D02*
X7362D01*
X7364Y4800D01*
X7376Y4782D01*
X7394Y4770D01*
X7403Y4768D01*
Y4809D01*
D02*
G37*
G36*
X1987Y4877D02*
X1940D01*
X1930Y4875D01*
X1922Y4869D01*
X1916Y4861D01*
X1914Y4851D01*
Y4739D01*
X1987D01*
Y4877D01*
D02*
G37*
G36*
X2127Y4580D02*
X2125Y4579D01*
X2124Y4579D01*
X2100Y4576D01*
X2098Y4576D01*
X2097Y4575D01*
X2096Y4575D01*
X2094Y4575D01*
X2072Y4566D01*
X2070Y4564D01*
X2069Y4564D01*
X2068Y4563D01*
X2066Y4562D01*
X2047Y4548D01*
X2045Y4546D01*
X2045Y4545D01*
X2044Y4545D01*
X2042Y4543D01*
X2028Y4524D01*
X2027Y4522D01*
X2026Y4521D01*
X2026Y4520D01*
X2024Y4518D01*
X2015Y4496D01*
X2015Y4494D01*
X2015Y4493D01*
X2014Y4492D01*
X2014Y4490D01*
X2011Y4466D01*
X2011Y4464D01*
X2011Y4463D01*
X2011Y4462D01*
X2011Y4460D01*
X2014Y4436D01*
X2014Y4434D01*
X2015Y4433D01*
X2015Y4432D01*
X2015Y4430D01*
X2024Y4408D01*
X2026Y4406D01*
X2026Y4405D01*
X2027Y4404D01*
X2028Y4402D01*
X2042Y4383D01*
X2044Y4381D01*
X2045Y4381D01*
X2045Y4380D01*
X2047Y4378D01*
X2066Y4364D01*
X2068Y4363D01*
X2069Y4362D01*
X2070Y4362D01*
X2072Y4360D01*
X2094Y4351D01*
X2096Y4351D01*
X2097Y4351D01*
X2098Y4350D01*
X2100Y4350D01*
X2124Y4347D01*
X2125Y4347D01*
X2127Y4346D01*
X2129Y4347D01*
X2130Y4347D01*
X2154Y4350D01*
X2156Y4350D01*
X2157Y4351D01*
X2158Y4351D01*
X2160Y4351D01*
X2182Y4360D01*
X2184Y4362D01*
X2185Y4362D01*
X2186Y4363D01*
X2188Y4364D01*
X2207Y4378D01*
X2209Y4380D01*
X2209Y4381D01*
X2210Y4381D01*
X2212Y4383D01*
X2220Y4394D01*
X2217Y4381D01*
Y4351D01*
X2194D01*
X2184Y4349D01*
X2176Y4343D01*
X2170Y4335D01*
X2168Y4325D01*
Y4075D01*
X2170Y4065D01*
X2176Y4057D01*
X2184Y4051D01*
X2194Y4049D01*
X2314D01*
X2324Y4051D01*
X2332Y4057D01*
X2338Y4065D01*
X2340Y4075D01*
Y4325D01*
X2338Y4335D01*
X2332Y4343D01*
X2324Y4349D01*
X2314Y4351D01*
X2301D01*
Y4355D01*
X2316Y4352D01*
X2338Y4356D01*
X2356Y4368D01*
X2368Y4386D01*
X2372Y4408D01*
X2368Y4430D01*
X2356Y4448D01*
X2338Y4460D01*
X2316Y4464D01*
X2294Y4460D01*
X2276Y4448D01*
X2276Y4448D01*
X2270Y4447D01*
X2257Y4437D01*
X2232Y4413D01*
X2239Y4430D01*
X2239Y4432D01*
X2239Y4433D01*
X2240Y4434D01*
X2240Y4436D01*
X2243Y4460D01*
X2243Y4462D01*
X2243Y4463D01*
X2243Y4464D01*
X2243Y4466D01*
X2240Y4490D01*
X2240Y4492D01*
X2239Y4493D01*
X2239Y4494D01*
X2239Y4496D01*
X2230Y4518D01*
X2228Y4520D01*
X2228Y4521D01*
X2227Y4522D01*
X2226Y4524D01*
X2212Y4543D01*
X2210Y4545D01*
X2209Y4545D01*
X2209Y4546D01*
X2207Y4548D01*
X2188Y4562D01*
X2186Y4563D01*
X2185Y4564D01*
X2184Y4564D01*
X2182Y4566D01*
X2160Y4575D01*
X2158Y4575D01*
X2157Y4575D01*
X2156Y4576D01*
X2154Y4576D01*
X2130Y4579D01*
X2129Y4579D01*
X2127Y4580D01*
D02*
G37*
G36*
X9389Y4633D02*
X9380Y4631D01*
X9362Y4619D01*
X9350Y4601D01*
X9348Y4592D01*
X9389D01*
Y4633D01*
D02*
G37*
G36*
X9415D02*
Y4592D01*
X9456D01*
X9454Y4601D01*
X9442Y4619D01*
X9424Y4631D01*
X9415Y4633D01*
D02*
G37*
G36*
X8067Y4885D02*
X8004D01*
Y4802D01*
X8041D01*
X8051Y4804D01*
X8059Y4810D01*
X8065Y4818D01*
X8067Y4828D01*
Y4885D01*
D02*
G37*
G36*
X7403Y4876D02*
X7394Y4874D01*
X7376Y4862D01*
X7364Y4844D01*
X7362Y4835D01*
X7403D01*
Y4876D01*
D02*
G37*
G36*
X7429D02*
Y4835D01*
X7470D01*
X7468Y4844D01*
X7456Y4862D01*
X7438Y4874D01*
X7429Y4876D01*
D02*
G37*
G36*
X7978Y4885D02*
X7915D01*
Y4828D01*
X7917Y4818D01*
X7923Y4810D01*
X7931Y4804D01*
X7941Y4802D01*
X7978D01*
Y4885D01*
D02*
G37*
G36*
X7470Y4809D02*
X7429D01*
Y4768D01*
X7438Y4770D01*
X7456Y4782D01*
X7468Y4800D01*
X7470Y4809D01*
D02*
G37*
G36*
X8340Y4818D02*
X8299D01*
X8301Y4809D01*
X8313Y4791D01*
X8331Y4779D01*
X8340Y4777D01*
Y4818D01*
D02*
G37*
G36*
X8407D02*
X8366D01*
Y4777D01*
X8375Y4779D01*
X8393Y4791D01*
X8405Y4809D01*
X8407Y4818D01*
D02*
G37*
G36*
X1387Y6275D02*
X1357Y6273D01*
X1315Y6263D01*
X1275Y6246D01*
X1238Y6223D01*
X1205Y6195D01*
X1177Y6162D01*
X1154Y6125D01*
X1137Y6085D01*
X1127Y6043D01*
X1125Y6013D01*
X1387D01*
Y6275D01*
D02*
G37*
G36*
X1413D02*
Y6013D01*
X1675D01*
X1673Y6043D01*
X1663Y6085D01*
X1646Y6125D01*
X1623Y6162D01*
X1595Y6195D01*
X1562Y6223D01*
X1525Y6246D01*
X1485Y6263D01*
X1443Y6273D01*
X1413Y6275D01*
D02*
G37*
G36*
X9087Y6225D02*
X9056Y6222D01*
X9013Y6209D01*
X8974Y6188D01*
X8940Y6160D01*
X8912Y6126D01*
X8891Y6087D01*
X8878Y6044D01*
X8875Y6013D01*
X9087D01*
Y6225D01*
D02*
G37*
G36*
X5842Y6007D02*
X5806D01*
Y5971D01*
X5813Y5972D01*
X5830Y5983D01*
X5841Y6000D01*
X5842Y6007D01*
D02*
G37*
G36*
X1988Y6002D02*
X1952D01*
X1953Y5995D01*
X1964Y5978D01*
X1981Y5967D01*
X1988Y5966D01*
Y6002D01*
D02*
G37*
G36*
X2050D02*
X2014D01*
Y5966D01*
X2021Y5967D01*
X2038Y5978D01*
X2049Y5995D01*
X2050Y6002D01*
D02*
G37*
G36*
X5780Y6007D02*
X5744D01*
X5745Y6000D01*
X5756Y5983D01*
X5773Y5972D01*
X5780Y5971D01*
Y6007D01*
D02*
G37*
G36*
X6638Y6184D02*
X6597D01*
Y6143D01*
X6606Y6145D01*
X6624Y6157D01*
X6636Y6175D01*
X6638Y6184D01*
D02*
G37*
G36*
X6571Y6251D02*
X6562Y6249D01*
X6544Y6237D01*
X6532Y6219D01*
X6530Y6210D01*
X6571D01*
Y6251D01*
D02*
G37*
G36*
X6597D02*
Y6210D01*
X6638D01*
X6636Y6219D01*
X6624Y6237D01*
X6606Y6249D01*
X6597Y6251D01*
D02*
G37*
G36*
X6571Y6184D02*
X6530D01*
X6532Y6175D01*
X6544Y6157D01*
X6562Y6145D01*
X6571Y6143D01*
Y6184D01*
D02*
G37*
G36*
X9113Y6225D02*
Y6013D01*
X9325D01*
X9322Y6044D01*
X9309Y6087D01*
X9288Y6126D01*
X9260Y6160D01*
X9226Y6188D01*
X9187Y6209D01*
X9144Y6222D01*
X9113Y6225D01*
D02*
G37*
G36*
X2076Y6212D02*
X1924D01*
Y6075D01*
X1926Y6065D01*
X1932Y6057D01*
X1940Y6051D01*
X1950Y6049D01*
X1963D01*
X1953Y6035D01*
X1952Y6028D01*
X2050D01*
X2049Y6035D01*
X2039Y6049D01*
X2050D01*
X2060Y6051D01*
X2068Y6057D01*
X2074Y6065D01*
X2076Y6075D01*
Y6212D01*
D02*
G37*
G36*
X5876D02*
X5724D01*
Y6075D01*
X5726Y6065D01*
X5732Y6057D01*
X5740Y6051D01*
X5750Y6049D01*
X5751D01*
X5745Y6040D01*
X5744Y6033D01*
X5842D01*
X5841Y6040D01*
X5835Y6049D01*
X5850D01*
X5860Y6051D01*
X5868Y6057D01*
X5874Y6065D01*
X5876Y6075D01*
Y6212D01*
D02*
G37*
G36*
X6651Y5668D02*
X6610D01*
Y5627D01*
X6619Y5629D01*
X6637Y5641D01*
X6649Y5659D01*
X6651Y5668D01*
D02*
G37*
G36*
X6584Y5735D02*
X6575Y5733D01*
X6557Y5721D01*
X6545Y5703D01*
X6543Y5694D01*
X6584D01*
Y5735D01*
D02*
G37*
G36*
X6610D02*
Y5694D01*
X6651D01*
X6649Y5703D01*
X6637Y5721D01*
X6619Y5733D01*
X6610Y5735D01*
D02*
G37*
G36*
X6584Y5668D02*
X6543D01*
X6545Y5659D01*
X6557Y5641D01*
X6575Y5629D01*
X6584Y5627D01*
Y5668D01*
D02*
G37*
G36*
X1988Y5560D02*
X1952D01*
X1953Y5553D01*
X1964Y5536D01*
X1981Y5525D01*
X1988Y5524D01*
Y5560D01*
D02*
G37*
G36*
X2050D02*
X2014D01*
Y5524D01*
X2021Y5525D01*
X2038Y5536D01*
X2049Y5553D01*
X2050Y5560D01*
D02*
G37*
G36*
X5876Y5762D02*
X5724D01*
Y5625D01*
X5726Y5615D01*
X5732Y5607D01*
X5740Y5601D01*
X5750Y5599D01*
X5761D01*
X5755Y5591D01*
X5754Y5584D01*
X5852D01*
X5851Y5591D01*
X5845Y5599D01*
X5850D01*
X5860Y5601D01*
X5868Y5607D01*
X5874Y5615D01*
X5876Y5625D01*
Y5762D01*
D02*
G37*
G36*
X1987Y5951D02*
X1950D01*
X1940Y5949D01*
X1932Y5943D01*
X1926Y5935D01*
X1924Y5925D01*
Y5788D01*
X1987D01*
Y5951D01*
D02*
G37*
G36*
X5787D02*
X5750D01*
X5740Y5949D01*
X5732Y5943D01*
X5726Y5935D01*
X5724Y5925D01*
Y5788D01*
X5787D01*
Y5951D01*
D02*
G37*
G36*
X5850D02*
X5813D01*
Y5788D01*
X5876D01*
Y5925D01*
X5874Y5935D01*
X5868Y5943D01*
X5860Y5949D01*
X5850Y5951D01*
D02*
G37*
G36*
X9325Y5987D02*
X9113D01*
Y5775D01*
X9144Y5778D01*
X9187Y5791D01*
X9226Y5812D01*
X9260Y5840D01*
X9288Y5874D01*
X9309Y5913D01*
X9322Y5956D01*
X9325Y5987D01*
D02*
G37*
G36*
X1387D02*
X1125D01*
X1127Y5957D01*
X1137Y5915D01*
X1154Y5875D01*
X1177Y5838D01*
X1205Y5805D01*
X1238Y5777D01*
X1275Y5754D01*
X1315Y5737D01*
X1357Y5727D01*
X1387Y5725D01*
Y5987D01*
D02*
G37*
G36*
X1675D02*
X1413D01*
Y5725D01*
X1443Y5727D01*
X1485Y5737D01*
X1525Y5754D01*
X1562Y5777D01*
X1595Y5805D01*
X1623Y5838D01*
X1646Y5875D01*
X1663Y5915D01*
X1673Y5957D01*
X1675Y5987D01*
D02*
G37*
G36*
X9087D02*
X8875D01*
X8878Y5956D01*
X8891Y5913D01*
X8912Y5874D01*
X8940Y5840D01*
X8974Y5812D01*
X9013Y5791D01*
X9056Y5778D01*
X9087Y5775D01*
Y5987D01*
D02*
G37*
G36*
X6912Y4187D02*
X6839D01*
Y4049D01*
X6886D01*
X6896Y4051D01*
X6904Y4057D01*
X6910Y4065D01*
X6912Y4075D01*
Y4187D01*
D02*
G37*
G36*
X1101Y1135D02*
Y1094D01*
X1142D01*
X1140Y1103D01*
X1128Y1121D01*
X1110Y1133D01*
X1101Y1135D01*
D02*
G37*
G36*
X1075D02*
X1066Y1133D01*
X1048Y1121D01*
X1036Y1103D01*
X1034Y1094D01*
X1075D01*
Y1135D01*
D02*
G37*
G36*
X6813Y4187D02*
X6740D01*
Y4075D01*
X6742Y4065D01*
X6748Y4057D01*
X6756Y4051D01*
X6766Y4049D01*
X6813D01*
Y4187D01*
D02*
G37*
G36*
X4537Y4447D02*
X4515Y4443D01*
X4497Y4431D01*
X4485Y4413D01*
X4481Y4391D01*
X4485Y4369D01*
X4495Y4354D01*
Y4351D01*
X4480D01*
X4470Y4349D01*
X4462Y4343D01*
X4456Y4335D01*
X4454Y4325D01*
Y4075D01*
X4456Y4065D01*
X4462Y4057D01*
X4470Y4051D01*
X4480Y4049D01*
X4600D01*
X4610Y4051D01*
X4618Y4057D01*
X4624Y4065D01*
X4626Y4075D01*
Y4325D01*
X4624Y4335D01*
X4618Y4343D01*
X4610Y4349D01*
X4600Y4351D01*
X4579D01*
Y4354D01*
X4589Y4369D01*
X4593Y4391D01*
X4589Y4413D01*
X4577Y4431D01*
X4559Y4443D01*
X4537Y4447D01*
D02*
G37*
G36*
X4790Y4458D02*
X4768Y4454D01*
X4750Y4442D01*
X4738Y4424D01*
X4734Y4402D01*
X4738Y4380D01*
X4748Y4365D01*
Y4351D01*
X4734D01*
X4724Y4349D01*
X4716Y4343D01*
X4710Y4335D01*
X4708Y4325D01*
Y4075D01*
X4710Y4065D01*
X4716Y4057D01*
X4724Y4051D01*
X4734Y4049D01*
X4854D01*
X4864Y4051D01*
X4872Y4057D01*
X4878Y4065D01*
X4880Y4075D01*
Y4325D01*
X4878Y4335D01*
X4872Y4343D01*
X4864Y4349D01*
X4854Y4351D01*
X4832D01*
Y4365D01*
X4842Y4380D01*
X4846Y4402D01*
X4842Y4424D01*
X4830Y4442D01*
X4812Y4454D01*
X4790Y4458D01*
D02*
G37*
G36*
X6476Y4450D02*
X6452Y4445D01*
X6432Y4432D01*
X6419Y4412D01*
X6414Y4388D01*
X6419Y4364D01*
X6432Y4344D01*
X6486Y4291D01*
Y4075D01*
X6488Y4065D01*
X6494Y4057D01*
X6502Y4051D01*
X6512Y4049D01*
X6632D01*
X6642Y4051D01*
X6650Y4057D01*
X6656Y4065D01*
X6658Y4075D01*
Y4325D01*
X6656Y4335D01*
X6650Y4343D01*
X6642Y4349D01*
X6632Y4351D01*
X6600D01*
X6520Y4432D01*
X6500Y4445D01*
X6476Y4450D01*
D02*
G37*
G36*
X9421Y1104D02*
X9380D01*
Y1063D01*
X9389Y1065D01*
X9407Y1077D01*
X9420Y1095D01*
X9421Y1104D01*
D02*
G37*
G36*
X9355D02*
X9314D01*
X9315Y1095D01*
X9328Y1077D01*
X9346Y1065D01*
X9355Y1063D01*
Y1104D01*
D02*
G37*
G36*
X1102Y4318D02*
X1061D01*
X1063Y4309D01*
X1075Y4291D01*
X1093Y4279D01*
X1102Y4277D01*
Y4318D01*
D02*
G37*
G36*
X6886Y4351D02*
X6839D01*
Y4213D01*
X6912D01*
Y4325D01*
X6910Y4335D01*
X6904Y4343D01*
X6896Y4349D01*
X6886Y4351D01*
D02*
G37*
G36*
X1987D02*
X1940D01*
X1930Y4349D01*
X1922Y4343D01*
X1916Y4335D01*
X1914Y4325D01*
Y4213D01*
X1987D01*
Y4351D01*
D02*
G37*
G36*
X2060D02*
X2013D01*
Y4213D01*
X2086D01*
Y4325D01*
X2084Y4335D01*
X2078Y4343D01*
X2070Y4349D01*
X2060Y4351D01*
D02*
G37*
G36*
X6813D02*
X6766D01*
X6756Y4349D01*
X6748Y4343D01*
X6742Y4335D01*
X6740Y4325D01*
Y4213D01*
X6813D01*
Y4351D01*
D02*
G37*
G36*
X1987Y4187D02*
X1914D01*
Y4075D01*
X1916Y4065D01*
X1922Y4057D01*
X1930Y4051D01*
X1940Y4049D01*
X1987D01*
Y4187D01*
D02*
G37*
G36*
X2086D02*
X2013D01*
Y4049D01*
X2060D01*
X2070Y4051D01*
X2078Y4057D01*
X2084Y4065D01*
X2086Y4075D01*
Y4187D01*
D02*
G37*
G36*
X2493Y4433D02*
X2471Y4429D01*
X2453Y4417D01*
X2441Y4399D01*
X2437Y4377D01*
X2441Y4355D01*
X2444Y4350D01*
X2438Y4349D01*
X2430Y4343D01*
X2424Y4335D01*
X2422Y4325D01*
Y4075D01*
X2424Y4065D01*
X2430Y4057D01*
X2438Y4051D01*
X2448Y4049D01*
X2568D01*
X2578Y4051D01*
X2586Y4057D01*
X2592Y4065D01*
X2594Y4075D01*
Y4325D01*
X2592Y4335D01*
X2586Y4343D01*
X2578Y4349D01*
X2568Y4351D01*
X2542D01*
X2545Y4355D01*
X2549Y4377D01*
X2545Y4399D01*
X2533Y4417D01*
X2515Y4429D01*
X2493Y4433D01*
D02*
G37*
G36*
X8741Y5584D02*
X8641D01*
X8631Y5582D01*
X8623Y5576D01*
X8617Y5568D01*
X8615Y5558D01*
Y5418D01*
X8617Y5408D01*
X8623Y5400D01*
X8631Y5394D01*
X8641Y5392D01*
X8649D01*
Y5283D01*
X8614Y5248D01*
X7863D01*
X7849Y5245D01*
X7847Y5245D01*
X7833Y5235D01*
X7786Y5188D01*
X7776Y5174D01*
X7776Y5172D01*
X7773Y5158D01*
Y4923D01*
X6878Y4028D01*
X6436D01*
X6421Y4038D01*
X6399Y4042D01*
X6377Y4038D01*
X6359Y4026D01*
X6347Y4008D01*
X6346Y4003D01*
Y4049D01*
X6378D01*
X6388Y4051D01*
X6396Y4057D01*
X6402Y4065D01*
X6404Y4075D01*
Y4301D01*
X6406Y4310D01*
X6404Y4319D01*
Y4325D01*
X6402Y4335D01*
X6396Y4343D01*
X6388Y4349D01*
X6378Y4351D01*
X6346D01*
Y4357D01*
X6347Y4358D01*
X6359Y4376D01*
X6363Y4398D01*
X6359Y4420D01*
X6347Y4438D01*
X6329Y4450D01*
X6307Y4454D01*
X6285Y4450D01*
X6267Y4438D01*
X6255Y4420D01*
X6251Y4398D01*
X6255Y4376D01*
X6267Y4358D01*
X6268Y4357D01*
Y4351D01*
X6258D01*
X6248Y4349D01*
X6240Y4343D01*
X6234Y4335D01*
X6232Y4325D01*
Y4075D01*
X6234Y4065D01*
X6240Y4057D01*
X6248Y4051D01*
X6258Y4049D01*
X6268D01*
Y3926D01*
X6271Y3911D01*
X6280Y3899D01*
X6408Y3770D01*
X6421Y3761D01*
X6427Y3760D01*
X6421Y3751D01*
X6417Y3729D01*
X6421Y3707D01*
X6433Y3689D01*
X6451Y3677D01*
X6473Y3673D01*
X6492Y3676D01*
X6487Y3669D01*
X6483Y3647D01*
X6487Y3625D01*
X6499Y3607D01*
X6517Y3595D01*
X6539Y3591D01*
X6561Y3595D01*
X6576Y3605D01*
X7215D01*
X7319Y3502D01*
X7328Y3495D01*
X7332Y3492D01*
X7348Y3489D01*
X8662D01*
X8675Y3492D01*
X8678Y3492D01*
X8691Y3502D01*
X8730Y3541D01*
X8740Y3554D01*
X8740Y3557D01*
X8743Y3570D01*
Y3612D01*
X8751D01*
X8761Y3614D01*
X8769Y3620D01*
X8775Y3628D01*
X8777Y3638D01*
Y3669D01*
X8975D01*
Y3640D01*
X8977Y3631D01*
X8983Y3622D01*
X8991Y3617D01*
X9001Y3615D01*
X9101D01*
X9111Y3617D01*
X9119Y3622D01*
X9125Y3631D01*
X9127Y3640D01*
Y3735D01*
X9125Y3745D01*
X9119Y3754D01*
X9111Y3759D01*
X9101Y3761D01*
X9001D01*
X8991Y3759D01*
X8983Y3754D01*
X8978Y3747D01*
X8777D01*
Y3778D01*
X8775Y3788D01*
X8769Y3796D01*
X8761Y3802D01*
X8751Y3804D01*
X8651D01*
X8641Y3802D01*
X8633Y3796D01*
X8627Y3788D01*
X8625Y3778D01*
Y3638D01*
X8627Y3628D01*
X8633Y3620D01*
X8641Y3614D01*
X8651Y3612D01*
X8659D01*
Y3587D01*
X8645Y3573D01*
X7365D01*
X7261Y3676D01*
X7248Y3686D01*
X7245Y3686D01*
X7232Y3689D01*
X7169D01*
X7175Y3690D01*
X7178Y3690D01*
X7191Y3700D01*
X7524Y4032D01*
X8607D01*
X8620Y4034D01*
X8622Y4035D01*
X8636Y4044D01*
X8720Y4129D01*
X8730Y4142D01*
X8733Y4158D01*
Y4212D01*
X8741D01*
X8751Y4214D01*
X8759Y4220D01*
X8765Y4228D01*
X8767Y4238D01*
Y4279D01*
X8985D01*
Y4271D01*
X8987Y4261D01*
X8993Y4252D01*
X9001Y4247D01*
X9011Y4245D01*
X9111D01*
X9121Y4247D01*
X9129Y4252D01*
X9135Y4261D01*
X9137Y4271D01*
Y4347D01*
X9145Y4339D01*
Y4271D01*
X9147Y4261D01*
X9153Y4252D01*
X9161Y4247D01*
X9171Y4245D01*
X9172D01*
Y3761D01*
X9161D01*
X9151Y3759D01*
X9143Y3754D01*
X9137Y3745D01*
X9135Y3735D01*
Y3640D01*
X9137Y3631D01*
X9143Y3622D01*
X9151Y3617D01*
X9161Y3615D01*
X9261D01*
X9271Y3617D01*
X9279Y3622D01*
X9285Y3631D01*
X9287Y3640D01*
Y3735D01*
X9285Y3745D01*
X9279Y3754D01*
X9271Y3759D01*
X9261Y3761D01*
X9250D01*
Y4245D01*
X9271D01*
X9281Y4247D01*
X9289Y4252D01*
X9295Y4261D01*
X9297Y4271D01*
Y4365D01*
X9295Y4375D01*
X9289Y4384D01*
X9281Y4389D01*
X9271Y4391D01*
X9250D01*
Y4835D01*
X9271D01*
X9281Y4837D01*
X9289Y4842D01*
X9295Y4851D01*
X9297Y4860D01*
Y4956D01*
X9295Y4965D01*
X9289Y4974D01*
X9281Y4979D01*
X9271Y4981D01*
X9250D01*
Y5405D01*
X9251D01*
X9261Y5407D01*
X9269Y5412D01*
X9275Y5421D01*
X9277Y5431D01*
Y5526D01*
X9275Y5535D01*
X9269Y5544D01*
X9261Y5549D01*
X9251Y5551D01*
X9151D01*
X9141Y5549D01*
X9133Y5544D01*
X9127Y5535D01*
X9125Y5526D01*
Y5431D01*
X9127Y5421D01*
X9133Y5412D01*
X9141Y5407D01*
X9151Y5405D01*
X9172D01*
Y4981D01*
X9171D01*
X9161Y4979D01*
X9153Y4974D01*
X9147Y4965D01*
X9145Y4956D01*
Y4860D01*
X9147Y4851D01*
X9153Y4842D01*
X9161Y4837D01*
X9171Y4835D01*
X9172D01*
Y4422D01*
X9126Y4467D01*
X9114Y4476D01*
X9099Y4479D01*
X7822D01*
X7833Y4486D01*
X7845Y4504D01*
X7847Y4513D01*
X7739D01*
X7741Y4504D01*
X7753Y4486D01*
X7764Y4479D01*
X7715D01*
X7700Y4476D01*
X7688Y4467D01*
X7056Y3836D01*
X6986D01*
X6991Y3840D01*
X7768Y4616D01*
X8606D01*
X8619Y4619D01*
X8622Y4619D01*
X8635Y4629D01*
X8720Y4714D01*
X8727Y4723D01*
X8730Y4727D01*
X8733Y4743D01*
Y4802D01*
X8741D01*
X8751Y4804D01*
X8759Y4810D01*
X8765Y4818D01*
X8767Y4828D01*
Y4859D01*
X8985D01*
X8987Y4851D01*
X8993Y4842D01*
X9001Y4837D01*
X9011Y4835D01*
X9111D01*
X9121Y4837D01*
X9129Y4842D01*
X9135Y4851D01*
X9137Y4860D01*
Y4956D01*
X9135Y4965D01*
X9129Y4974D01*
X9121Y4979D01*
X9111Y4981D01*
X9011D01*
X9001Y4979D01*
X8993Y4974D01*
X8987Y4965D01*
X8985Y4956D01*
Y4937D01*
X8767D01*
Y4968D01*
X8765Y4978D01*
X8759Y4986D01*
X8751Y4992D01*
X8741Y4994D01*
X8641D01*
X8631Y4992D01*
X8623Y4986D01*
X8617Y4978D01*
X8615Y4968D01*
Y4828D01*
X8617Y4818D01*
X8623Y4810D01*
X8631Y4804D01*
X8641Y4802D01*
X8649D01*
Y4760D01*
X8589Y4700D01*
X7751D01*
X7735Y4697D01*
X7722Y4687D01*
X6945Y3911D01*
X6547D01*
X6532Y3921D01*
X6510Y3925D01*
X6488Y3921D01*
X6470Y3909D01*
X6458Y3891D01*
X6454Y3869D01*
X6458Y3847D01*
X6465Y3836D01*
X6452D01*
X6346Y3942D01*
Y3969D01*
X6347Y3964D01*
X6359Y3946D01*
X6377Y3934D01*
X6399Y3930D01*
X6421Y3934D01*
X6436Y3944D01*
X6895D01*
X6908Y3947D01*
X6911Y3947D01*
X6924Y3957D01*
X7844Y4877D01*
X7851Y4886D01*
X7854Y4890D01*
X7857Y4906D01*
Y5141D01*
X7880Y5164D01*
X8631D01*
X8644Y5167D01*
X8647Y5167D01*
X8660Y5177D01*
X8720Y5237D01*
X8730Y5250D01*
X8733Y5266D01*
Y5392D01*
X8741D01*
X8751Y5394D01*
X8759Y5400D01*
X8765Y5408D01*
X8767Y5418D01*
Y5449D01*
X8965D01*
Y5431D01*
X8967Y5421D01*
X8973Y5412D01*
X8981Y5407D01*
X8991Y5405D01*
X9091D01*
X9101Y5407D01*
X9109Y5412D01*
X9115Y5421D01*
X9117Y5431D01*
Y5526D01*
X9115Y5535D01*
X9109Y5544D01*
X9101Y5549D01*
X9091Y5551D01*
X8991D01*
X8981Y5549D01*
X8973Y5544D01*
X8967Y5535D01*
X8965Y5527D01*
X8767D01*
Y5558D01*
X8765Y5568D01*
X8759Y5576D01*
X8751Y5582D01*
X8741Y5584D01*
D02*
G37*
G36*
X7617Y3885D02*
Y3844D01*
X7658D01*
X7656Y3853D01*
X7644Y3871D01*
X7626Y3883D01*
X7617Y3885D01*
D02*
G37*
G36*
X4502Y3925D02*
X4493Y3923D01*
X4475Y3911D01*
X4463Y3893D01*
X4461Y3884D01*
X4502D01*
Y3925D01*
D02*
G37*
G36*
X4528D02*
Y3884D01*
X4569D01*
X4567Y3893D01*
X4555Y3911D01*
X4537Y3923D01*
X4528Y3925D01*
D02*
G37*
G36*
X3763Y4454D02*
X3741Y4450D01*
X3723Y4438D01*
X3711Y4420D01*
X3707Y4398D01*
X3711Y4376D01*
X3721Y4361D01*
Y4351D01*
X3718D01*
X3708Y4349D01*
X3700Y4343D01*
X3694Y4335D01*
X3692Y4325D01*
Y4075D01*
X3694Y4065D01*
X3700Y4057D01*
X3708Y4051D01*
X3718Y4049D01*
X3838D01*
X3848Y4051D01*
X3856Y4057D01*
X3862Y4065D01*
X3864Y4075D01*
Y4325D01*
X3862Y4335D01*
X3856Y4343D01*
X3848Y4349D01*
X3838Y4351D01*
X3805D01*
Y4361D01*
X3815Y4376D01*
X3819Y4398D01*
X3815Y4420D01*
X3803Y4438D01*
X3785Y4450D01*
X3763Y4454D01*
D02*
G37*
G36*
X4023D02*
X4001Y4450D01*
X3983Y4438D01*
X3971Y4420D01*
X3967Y4398D01*
X3971Y4376D01*
X3981Y4361D01*
Y4351D01*
X3972D01*
X3962Y4349D01*
X3954Y4343D01*
X3948Y4335D01*
X3946Y4325D01*
Y4075D01*
X3948Y4065D01*
X3954Y4057D01*
X3962Y4051D01*
X3972Y4049D01*
X4092D01*
X4102Y4051D01*
X4110Y4057D01*
X4116Y4065D01*
X4118Y4075D01*
Y4325D01*
X4116Y4335D01*
X4110Y4343D01*
X4102Y4349D01*
X4092Y4351D01*
X4065D01*
Y4361D01*
X4075Y4376D01*
X4079Y4398D01*
X4075Y4420D01*
X4063Y4438D01*
X4045Y4450D01*
X4023Y4454D01*
D02*
G37*
G36*
X4292Y4473D02*
X4270Y4469D01*
X4252Y4457D01*
X4240Y4439D01*
X4236Y4417D01*
X4240Y4395D01*
X4250Y4380D01*
Y4351D01*
X4226D01*
X4216Y4349D01*
X4208Y4343D01*
X4202Y4335D01*
X4200Y4325D01*
Y4075D01*
X4202Y4065D01*
X4208Y4057D01*
X4216Y4051D01*
X4226Y4049D01*
X4346D01*
X4356Y4051D01*
X4364Y4057D01*
X4370Y4065D01*
X4372Y4075D01*
Y4325D01*
X4370Y4335D01*
X4364Y4343D01*
X4356Y4349D01*
X4346Y4351D01*
X4334D01*
Y4380D01*
X4344Y4395D01*
X4348Y4417D01*
X4344Y4439D01*
X4332Y4457D01*
X4314Y4469D01*
X4292Y4473D01*
D02*
G37*
G36*
X3524Y4461D02*
X3502Y4457D01*
X3484Y4445D01*
X3472Y4427D01*
X3468Y4405D01*
X3472Y4383D01*
X3482Y4368D01*
Y4351D01*
X3464D01*
X3454Y4349D01*
X3446Y4343D01*
X3440Y4335D01*
X3438Y4325D01*
Y4075D01*
X3440Y4065D01*
X3446Y4057D01*
X3454Y4051D01*
X3464Y4049D01*
X3584D01*
X3594Y4051D01*
X3602Y4057D01*
X3608Y4065D01*
X3610Y4075D01*
Y4325D01*
X3608Y4335D01*
X3602Y4343D01*
X3594Y4349D01*
X3584Y4351D01*
X3566D01*
Y4368D01*
X3576Y4383D01*
X3580Y4405D01*
X3576Y4427D01*
X3564Y4445D01*
X3546Y4457D01*
X3524Y4461D01*
D02*
G37*
G36*
X2750Y4454D02*
X2728Y4450D01*
X2710Y4438D01*
X2698Y4420D01*
X2694Y4398D01*
X2698Y4376D01*
X2708Y4361D01*
Y4351D01*
X2702D01*
X2692Y4349D01*
X2684Y4343D01*
X2678Y4335D01*
X2676Y4325D01*
Y4075D01*
X2678Y4065D01*
X2684Y4057D01*
X2692Y4051D01*
X2702Y4049D01*
X2822D01*
X2832Y4051D01*
X2840Y4057D01*
X2846Y4065D01*
X2848Y4075D01*
Y4325D01*
X2846Y4335D01*
X2840Y4343D01*
X2832Y4349D01*
X2822Y4351D01*
X2792D01*
Y4361D01*
X2802Y4376D01*
X2806Y4398D01*
X2802Y4420D01*
X2790Y4438D01*
X2772Y4450D01*
X2750Y4454D01*
D02*
G37*
G36*
X3010Y4444D02*
X2988Y4440D01*
X2970Y4428D01*
X2958Y4410D01*
X2954Y4388D01*
X2958Y4366D01*
X2968Y4351D01*
X2956D01*
X2946Y4349D01*
X2938Y4343D01*
X2932Y4335D01*
X2930Y4325D01*
Y4075D01*
X2932Y4065D01*
X2938Y4057D01*
X2946Y4051D01*
X2956Y4049D01*
X3076D01*
X3086Y4051D01*
X3094Y4057D01*
X3100Y4065D01*
X3102Y4075D01*
Y4325D01*
X3100Y4335D01*
X3094Y4343D01*
X3086Y4349D01*
X3076Y4351D01*
X3052D01*
X3062Y4366D01*
X3066Y4388D01*
X3062Y4410D01*
X3050Y4428D01*
X3032Y4440D01*
X3010Y4444D01*
D02*
G37*
G36*
X3260Y4454D02*
X3238Y4450D01*
X3220Y4438D01*
X3208Y4420D01*
X3204Y4398D01*
X3208Y4376D01*
X3218Y4361D01*
Y4351D01*
X3210D01*
X3200Y4349D01*
X3192Y4343D01*
X3186Y4335D01*
X3184Y4325D01*
Y4075D01*
X3186Y4065D01*
X3192Y4057D01*
X3200Y4051D01*
X3210Y4049D01*
X3330D01*
X3340Y4051D01*
X3348Y4057D01*
X3354Y4065D01*
X3356Y4075D01*
Y4325D01*
X3354Y4335D01*
X3348Y4343D01*
X3340Y4349D01*
X3330Y4351D01*
X3302D01*
Y4361D01*
X3312Y4376D01*
X3316Y4398D01*
X3312Y4420D01*
X3300Y4438D01*
X3282Y4450D01*
X3260Y4454D01*
D02*
G37*
G36*
X6516Y4565D02*
Y4524D01*
X6557D01*
X6555Y4533D01*
X6543Y4551D01*
X6525Y4563D01*
X6516Y4565D01*
D02*
G37*
G36*
X9389Y4566D02*
X9348D01*
X9350Y4557D01*
X9362Y4539D01*
X9380Y4527D01*
X9389Y4525D01*
Y4566D01*
D02*
G37*
G36*
X9456D02*
X9415D01*
Y4525D01*
X9424Y4527D01*
X9442Y4539D01*
X9454Y4557D01*
X9456Y4566D01*
D02*
G37*
G36*
X6490Y4565D02*
X6481Y4563D01*
X6463Y4551D01*
X6451Y4533D01*
X6449Y4524D01*
X6490D01*
Y4565D01*
D02*
G37*
G36*
X6557Y4498D02*
X6516D01*
Y4457D01*
X6525Y4459D01*
X6543Y4471D01*
X6555Y4489D01*
X6557Y4498D01*
D02*
G37*
G36*
X7088Y4511D02*
X7079Y4509D01*
X7061Y4497D01*
X7049Y4479D01*
X7047Y4470D01*
X7088D01*
Y4511D01*
D02*
G37*
G36*
X7114D02*
Y4470D01*
X7155D01*
X7153Y4479D01*
X7141Y4497D01*
X7123Y4509D01*
X7114Y4511D01*
D02*
G37*
G36*
X6813Y4713D02*
X6740D01*
Y4601D01*
X6742Y4591D01*
X6748Y4583D01*
X6756Y4577D01*
X6766Y4575D01*
X6813D01*
Y4713D01*
D02*
G37*
G36*
X6912D02*
X6839D01*
Y4575D01*
X6886D01*
X6896Y4577D01*
X6904Y4583D01*
X6910Y4591D01*
X6912Y4601D01*
Y4713D01*
D02*
G37*
G36*
X6699Y4578D02*
X6697Y4577D01*
X6696Y4577D01*
X6672Y4574D01*
X6670Y4574D01*
X6669Y4573D01*
X6668Y4573D01*
X6666Y4573D01*
X6644Y4564D01*
X6642Y4562D01*
X6641Y4562D01*
X6640Y4561D01*
X6638Y4560D01*
X6619Y4546D01*
X6617Y4544D01*
X6617Y4543D01*
X6616Y4543D01*
X6614Y4541D01*
X6600Y4522D01*
X6599Y4520D01*
X6598Y4519D01*
X6598Y4518D01*
X6596Y4516D01*
X6587Y4494D01*
X6587Y4492D01*
X6587Y4491D01*
X6586Y4490D01*
X6586Y4488D01*
X6583Y4464D01*
X6583Y4462D01*
X6583Y4461D01*
X6583Y4460D01*
X6583Y4458D01*
X6586Y4434D01*
X6586Y4432D01*
X6587Y4431D01*
X6587Y4430D01*
X6587Y4428D01*
X6596Y4406D01*
X6598Y4404D01*
X6598Y4403D01*
X6599Y4402D01*
X6600Y4400D01*
X6614Y4381D01*
X6616Y4379D01*
X6617Y4379D01*
X6617Y4378D01*
X6619Y4376D01*
X6638Y4362D01*
X6640Y4361D01*
X6641Y4360D01*
X6642Y4360D01*
X6644Y4358D01*
X6666Y4349D01*
X6668Y4349D01*
X6669Y4349D01*
X6670Y4348D01*
X6672Y4348D01*
X6696Y4345D01*
X6697Y4345D01*
X6699Y4344D01*
X6701Y4345D01*
X6702Y4345D01*
X6726Y4348D01*
X6728Y4348D01*
X6729Y4349D01*
X6730Y4349D01*
X6732Y4349D01*
X6754Y4358D01*
X6756Y4360D01*
X6757Y4360D01*
X6758Y4361D01*
X6760Y4362D01*
X6779Y4376D01*
X6781Y4378D01*
X6781Y4379D01*
X6782Y4379D01*
X6784Y4381D01*
X6798Y4400D01*
X6799Y4402D01*
X6800Y4403D01*
X6800Y4404D01*
X6802Y4406D01*
X6811Y4428D01*
X6811Y4430D01*
X6811Y4431D01*
X6812Y4432D01*
X6812Y4434D01*
X6815Y4458D01*
X6815Y4460D01*
X6815Y4461D01*
X6815Y4462D01*
X6815Y4464D01*
X6812Y4488D01*
X6812Y4490D01*
X6811Y4491D01*
X6811Y4492D01*
X6811Y4494D01*
X6802Y4516D01*
X6800Y4518D01*
X6800Y4519D01*
X6799Y4520D01*
X6798Y4522D01*
X6784Y4541D01*
X6782Y4543D01*
X6781Y4543D01*
X6781Y4544D01*
X6779Y4546D01*
X6760Y4560D01*
X6758Y4561D01*
X6757Y4562D01*
X6756Y4562D01*
X6754Y4564D01*
X6732Y4573D01*
X6730Y4573D01*
X6729Y4573D01*
X6728Y4574D01*
X6726Y4574D01*
X6702Y4577D01*
X6701Y4577D01*
X6699Y4578D01*
D02*
G37*
G36*
X2086Y4713D02*
X2013D01*
Y4575D01*
X2060D01*
X2070Y4577D01*
X2078Y4583D01*
X2084Y4591D01*
X2086Y4601D01*
Y4713D01*
D02*
G37*
G36*
X7780Y4580D02*
X7771Y4578D01*
X7753Y4566D01*
X7741Y4548D01*
X7739Y4539D01*
X7780D01*
Y4580D01*
D02*
G37*
G36*
X7806D02*
Y4539D01*
X7847D01*
X7845Y4548D01*
X7833Y4566D01*
X7815Y4578D01*
X7806Y4580D01*
D02*
G37*
G36*
X1987Y4713D02*
X1914D01*
Y4601D01*
X1916Y4591D01*
X1922Y4583D01*
X1930Y4577D01*
X1940Y4575D01*
X1987D01*
Y4713D01*
D02*
G37*
G36*
X1102Y4385D02*
X1093Y4383D01*
X1075Y4371D01*
X1063Y4353D01*
X1061Y4344D01*
X1102D01*
Y4385D01*
D02*
G37*
G36*
X1128D02*
Y4344D01*
X1169D01*
X1167Y4353D01*
X1155Y4371D01*
X1137Y4383D01*
X1128Y4385D01*
D02*
G37*
G36*
X3872Y4429D02*
X3831D01*
X3833Y4420D01*
X3845Y4402D01*
X3863Y4390D01*
X3872Y4388D01*
Y4429D01*
D02*
G37*
G36*
X1169Y4318D02*
X1128D01*
Y4277D01*
X1137Y4279D01*
X1155Y4291D01*
X1167Y4309D01*
X1169Y4318D01*
D02*
G37*
G36*
X1142Y1068D02*
X1101D01*
Y1027D01*
X1110Y1029D01*
X1128Y1041D01*
X1140Y1059D01*
X1142Y1068D01*
D02*
G37*
G36*
X1075D02*
X1034D01*
X1036Y1059D01*
X1048Y1041D01*
X1066Y1029D01*
X1075Y1027D01*
Y1068D01*
D02*
G37*
G36*
X3872Y4496D02*
X3863Y4494D01*
X3845Y4482D01*
X3833Y4464D01*
X3831Y4455D01*
X3872D01*
Y4496D01*
D02*
G37*
G36*
X3898D02*
Y4455D01*
X3939D01*
X3937Y4464D01*
X3925Y4482D01*
X3907Y4494D01*
X3898Y4496D01*
D02*
G37*
G36*
X6490Y4498D02*
X6449D01*
X6451Y4489D01*
X6463Y4471D01*
X6481Y4459D01*
X6490Y4457D01*
Y4498D01*
D02*
G37*
G36*
X7155Y4444D02*
X7114D01*
Y4403D01*
X7123Y4405D01*
X7141Y4417D01*
X7153Y4435D01*
X7155Y4444D01*
D02*
G37*
G36*
X3939Y4429D02*
X3898D01*
Y4388D01*
X3907Y4390D01*
X3925Y4402D01*
X3937Y4420D01*
X3939Y4429D01*
D02*
G37*
G36*
X7088Y4444D02*
X7047D01*
X7049Y4435D01*
X7061Y4417D01*
X7079Y4405D01*
X7088Y4403D01*
Y4444D01*
D02*
G37*
%LPD*%
G36*
X8623Y4396D02*
X8617Y4388D01*
X8615Y4378D01*
Y4238D01*
X8617Y4228D01*
X8623Y4220D01*
X8631Y4214D01*
X8641Y4212D01*
X8649D01*
Y4175D01*
X8589Y4115D01*
X7507D01*
X7491Y4112D01*
X7486Y4109D01*
X7477Y4103D01*
X7145Y3771D01*
X7101D01*
X7731Y4401D01*
X7930D01*
X7923Y4396D01*
X7917Y4388D01*
X7915Y4378D01*
Y4321D01*
X8067D01*
Y4378D01*
X8065Y4388D01*
X8059Y4396D01*
X8052Y4401D01*
X8630D01*
X8623Y4396D01*
D02*
G37*
G36*
X9093Y4391D02*
X9011D01*
X9001Y4389D01*
X8993Y4384D01*
X8987Y4375D01*
X8985Y4365D01*
Y4357D01*
X8767D01*
Y4378D01*
X8765Y4388D01*
X8759Y4396D01*
X8752Y4401D01*
X9083D01*
X9093Y4391D01*
D02*
G37*
%LPC*%
G36*
X8394Y4261D02*
X8353D01*
Y4220D01*
X8362Y4222D01*
X8380Y4234D01*
X8392Y4252D01*
X8394Y4261D01*
D02*
G37*
G36*
X8327Y4328D02*
X8318Y4326D01*
X8300Y4314D01*
X8288Y4296D01*
X8286Y4287D01*
X8327D01*
Y4328D01*
D02*
G37*
G36*
X8353D02*
Y4287D01*
X8394D01*
X8392Y4296D01*
X8380Y4314D01*
X8362Y4326D01*
X8353Y4328D01*
D02*
G37*
G36*
X7978Y4295D02*
X7915D01*
Y4238D01*
X7917Y4228D01*
X7923Y4220D01*
X7931Y4214D01*
X7941Y4212D01*
X7978D01*
Y4295D01*
D02*
G37*
G36*
X8067D02*
X8004D01*
Y4212D01*
X8041D01*
X8051Y4214D01*
X8059Y4220D01*
X8065Y4228D01*
X8067Y4238D01*
Y4295D01*
D02*
G37*
G36*
X8327Y4261D02*
X8286D01*
X8288Y4252D01*
X8300Y4234D01*
X8318Y4222D01*
X8327Y4220D01*
Y4261D01*
D02*
G37*
%LPD*%
D10*
X8271Y1507D02*
D03*
X8191D02*
D03*
Y1781D02*
D03*
X8271D02*
D03*
Y2027D02*
D03*
X8191D02*
D03*
Y2283D02*
D03*
X8271D02*
D03*
D11*
X8231Y1588D02*
D03*
Y1861D02*
D03*
Y2108D02*
D03*
Y2362D02*
D03*
D12*
X7991Y4898D02*
D03*
X8691D02*
D03*
X7991Y5488D02*
D03*
X8691D02*
D03*
X7991Y4308D02*
D03*
X8691D02*
D03*
X8001Y3708D02*
D03*
X8701D02*
D03*
D13*
X9201Y5478D02*
D03*
X9041D02*
D03*
X9221Y4908D02*
D03*
X9061D02*
D03*
X9211Y3688D02*
D03*
X9051D02*
D03*
X9185Y2311D02*
D03*
X9025D02*
D03*
X9221Y4318D02*
D03*
X9061D02*
D03*
X9185Y2050D02*
D03*
X9025D02*
D03*
X8967Y3336D02*
D03*
X8807D02*
D03*
X9185Y1811D02*
D03*
X9025D02*
D03*
X9187Y1550D02*
D03*
X9027D02*
D03*
D14*
X2000Y6225D02*
D03*
Y5775D02*
D03*
X2200Y6225D02*
D03*
Y5775D02*
D03*
X2400Y6225D02*
D03*
Y5775D02*
D03*
X2600Y6225D02*
D03*
Y5775D02*
D03*
X2800Y6225D02*
D03*
Y5775D02*
D03*
X3000Y6225D02*
D03*
Y5775D02*
D03*
X3200Y6225D02*
D03*
Y5775D02*
D03*
X3400Y6225D02*
D03*
Y5775D02*
D03*
X3600Y6225D02*
D03*
Y5775D02*
D03*
X3800Y6225D02*
D03*
Y5775D02*
D03*
X4000Y6225D02*
D03*
Y5775D02*
D03*
X4200Y6225D02*
D03*
Y5775D02*
D03*
X4400Y6225D02*
D03*
Y5775D02*
D03*
X4600Y6225D02*
D03*
Y5775D02*
D03*
X4800Y6225D02*
D03*
Y5775D02*
D03*
X5000Y6225D02*
D03*
Y5775D02*
D03*
X5200Y6225D02*
D03*
Y5775D02*
D03*
X5400Y6225D02*
D03*
Y5775D02*
D03*
X5600Y6225D02*
D03*
Y5775D02*
D03*
X5800Y6225D02*
D03*
Y5775D02*
D03*
D15*
X8605Y1551D02*
D03*
X8765D02*
D03*
X8597Y3346D02*
D03*
X8437D02*
D03*
X8775Y2321D02*
D03*
X8615D02*
D03*
X8775Y2051D02*
D03*
X8615D02*
D03*
X8765Y1821D02*
D03*
X8605D02*
D03*
D16*
X7387Y2165D02*
D03*
X5937D02*
D03*
D17*
X6312Y2390D02*
D03*
X6562D02*
D03*
X6762D02*
D03*
X7012D02*
D03*
D18*
X2000Y4726D02*
D03*
Y4200D02*
D03*
X2254Y4726D02*
D03*
Y4200D02*
D03*
X2508Y4726D02*
D03*
Y4200D02*
D03*
X2762Y4726D02*
D03*
Y4200D02*
D03*
X3016Y4726D02*
D03*
Y4200D02*
D03*
X3270Y4726D02*
D03*
Y4200D02*
D03*
X3524Y4726D02*
D03*
Y4200D02*
D03*
X3778Y4726D02*
D03*
Y4200D02*
D03*
X4032Y4726D02*
D03*
Y4200D02*
D03*
X4286Y4726D02*
D03*
Y4200D02*
D03*
X4540Y4726D02*
D03*
Y4200D02*
D03*
X4794Y4726D02*
D03*
Y4200D02*
D03*
X5048Y4726D02*
D03*
Y4200D02*
D03*
X5302Y4726D02*
D03*
Y4200D02*
D03*
X5556Y4726D02*
D03*
Y4200D02*
D03*
X5810Y4726D02*
D03*
Y4200D02*
D03*
X6064Y4726D02*
D03*
Y4200D02*
D03*
X6318Y4726D02*
D03*
Y4200D02*
D03*
X6572Y4726D02*
D03*
Y4200D02*
D03*
X6826Y4726D02*
D03*
Y4200D02*
D03*
D19*
X8043Y2345D02*
Y2792D01*
X7415Y3419D02*
X8043Y2792D01*
X6602Y3419D02*
X7415D01*
X7821Y1946D02*
Y2670D01*
X7180Y3312D02*
X7821Y2670D01*
X6201Y3312D02*
X7180D01*
X7821Y1946D02*
X7986Y1781D01*
X8105Y2283D02*
X8191D01*
X8043Y2345D02*
X8105Y2283D01*
X7986Y1781D02*
X8191D01*
X7815Y4906D02*
Y5158D01*
X6895Y3986D02*
X7815Y4906D01*
X6399Y3986D02*
X6895D01*
X5992Y5306D02*
X6572Y4726D01*
X5611Y5306D02*
X5992D01*
X5832Y5227D02*
X6318Y4741D01*
X5449Y5227D02*
X5832D01*
X5665Y5169D02*
X6064Y4770D01*
X5348Y5169D02*
X5665D01*
X6064Y4726D02*
Y4770D01*
X5428Y5108D02*
X5810Y4726D01*
X5153Y5108D02*
X5428D01*
X5230Y5052D02*
X5556Y4726D01*
X5130Y5052D02*
X5230D01*
X4874Y4917D02*
X5048Y4743D01*
X4762Y4917D02*
X4874D01*
X5048Y4726D02*
Y4743D01*
X8691Y5266D02*
Y5488D01*
X8631Y5206D02*
X8691Y5266D01*
X7863Y5206D02*
X8631D01*
X7815Y5158D02*
X7863Y5206D01*
X8691Y4743D02*
Y4898D01*
X8606Y4658D02*
X8691Y4743D01*
X7751Y4658D02*
X8606D01*
X6962Y3869D02*
X7751Y4658D01*
X6539Y3647D02*
X7232D01*
X8701Y3570D02*
Y3708D01*
X8662Y3531D02*
X8701Y3570D01*
X7348Y3531D02*
X8662D01*
X7232Y3647D02*
X7348Y3531D01*
X7162Y3729D02*
X7507Y4074D01*
X8691Y4158D02*
Y4308D01*
X8607Y4074D02*
X8691Y4158D01*
X7507Y4074D02*
X8607D01*
X5048Y4726D02*
X5053D01*
X5963Y4058D02*
X6602Y3419D01*
X5556Y4726D02*
X5963Y4319D01*
Y4058D02*
Y4319D01*
X3010Y4388D02*
X3011Y4387D01*
X2493Y4377D02*
X2503Y4367D01*
X5012Y5052D02*
X5129D01*
X4707Y5357D02*
X5012Y5052D01*
X4309Y5370D02*
X4762Y4917D01*
X5509Y5408D02*
X5611Y5306D01*
X5105Y5412D02*
X5348Y5169D01*
X5307Y5369D02*
X5449Y5227D01*
X5129Y5052D02*
X5130Y5052D01*
X4909Y5352D02*
X5153Y5108D01*
X3909Y5366D02*
X3910D01*
X4540Y4736D01*
Y4726D02*
Y4736D01*
X3500Y5258D02*
X4032Y4726D01*
X3309Y5195D02*
X3778Y4726D01*
X3109Y5141D02*
X3524Y4726D01*
X2709Y5033D02*
X3016Y4726D01*
X2509Y4979D02*
X2762Y4726D01*
X2309Y4925D02*
X2508Y4726D01*
X2909Y5087D02*
X3270Y4726D01*
X2309Y4925D02*
Y5942D01*
X2391Y6024D01*
X2400D01*
X2509Y4979D02*
Y5942D01*
X2589Y6022D01*
X2597D01*
X2709Y5033D02*
Y5942D01*
X2791Y6024D01*
X2806D01*
X2909Y5087D02*
Y5942D01*
X2991Y6024D01*
X3109Y5141D02*
Y5942D01*
X3193Y6026D01*
X3309Y5195D02*
Y5942D01*
X3393Y6026D01*
X3395D01*
X3500Y5258D02*
Y5933D01*
X3593Y6026D01*
X3909Y5366D02*
Y5942D01*
X3991Y6024D01*
X4309Y5370D02*
Y5943D01*
X4390Y6024D01*
X4707Y5357D02*
Y5940D01*
X4791Y6024D01*
X4796D01*
X4909Y5352D02*
Y5942D01*
X4993Y6026D01*
X5105Y5412D02*
Y5938D01*
X5191Y6024D01*
X5307Y5369D02*
Y5940D01*
X5389Y6022D01*
X5509Y5408D02*
Y5942D01*
X5589Y6022D01*
X2259Y4381D02*
X2286Y4408D01*
X2316D01*
X2259Y4273D02*
Y4381D01*
X2493Y4215D02*
Y4377D01*
X2750Y4232D02*
Y4398D01*
X2755Y4227D02*
X2772Y4210D01*
X3010Y4206D02*
Y4388D01*
X3260Y4210D02*
Y4398D01*
X3524Y4232D02*
Y4405D01*
X3529Y4205D02*
Y4292D01*
X3763Y4215D02*
Y4398D01*
X4023Y4209D02*
Y4398D01*
X4292Y4206D02*
Y4417D01*
X4537Y4203D02*
Y4391D01*
X4790Y4204D02*
Y4402D01*
X5022Y4226D02*
Y4388D01*
X5273Y4229D02*
X5293Y4209D01*
X5273Y4229D02*
Y4396D01*
X5426Y4087D02*
X6201Y3312D01*
X5426Y4087D02*
Y4353D01*
X5053Y4726D02*
X5426Y4353D01*
X5550Y4206D02*
Y4348D01*
X5504Y4394D02*
X5550Y4348D01*
X5750Y4403D02*
X5810Y4343D01*
Y4200D02*
Y4343D01*
X6060Y4204D02*
Y4398D01*
X6473Y3729D02*
X7162D01*
X6510Y3869D02*
X6962D01*
X2204Y5575D02*
Y5771D01*
X2401Y5569D02*
Y5774D01*
X2603Y5577D02*
Y5772D01*
X2800Y5579D02*
Y5775D01*
X2986Y5579D02*
Y5761D01*
X3187Y5575D02*
Y5762D01*
X3396Y5566D02*
Y5771D01*
X3606Y5573D02*
Y5769D01*
X3788Y5573D02*
Y5763D01*
X3999Y5577D02*
Y5774D01*
X4211Y5569D02*
Y5764D01*
X4393Y5568D02*
Y5768D01*
X4591Y5568D02*
Y5766D01*
X4812Y5573D02*
Y5763D01*
X5001Y5579D02*
Y5774D01*
X5195Y5573D02*
Y5770D01*
X5398Y6022D02*
Y6223D01*
X5195Y6024D02*
Y6220D01*
X4995Y6026D02*
Y6220D01*
X4796Y6024D02*
Y6221D01*
X4401Y6024D02*
Y6224D01*
X4004Y6024D02*
Y6221D01*
X3598Y6026D02*
Y6223D01*
X3395Y6026D02*
Y6220D01*
X3201Y6026D02*
Y6224D01*
X2994Y6024D02*
Y6219D01*
X2806Y6024D02*
Y6219D01*
X2597Y6022D02*
Y6222D01*
X2400Y6024D02*
Y6225D01*
X5398Y6022D02*
X5589D01*
X5596D02*
Y6221D01*
D20*
X7059Y3258D02*
X7728Y2590D01*
Y1610D02*
Y2590D01*
Y1610D02*
X7830Y1507D01*
X7301Y3365D02*
X7917Y2749D01*
Y2178D02*
Y2749D01*
Y2178D02*
X8068Y2027D01*
X8191D01*
X7830Y1507D02*
X8191D01*
X6005Y3258D02*
X7059D01*
X8568Y1588D02*
X8605Y1551D01*
X8231Y1588D02*
X8568D01*
X8565Y1861D02*
X8605Y1821D01*
X8231Y1861D02*
X8565D01*
X8558Y2108D02*
X8615Y2051D01*
X8231Y2108D02*
X8558D01*
X8573Y2362D02*
X8615Y2321D01*
X8231Y2362D02*
X8573D01*
X9211Y4328D02*
Y5468D01*
Y3688D02*
Y4328D01*
X6350Y4200D02*
Y4293D01*
X6307Y3926D02*
Y4250D01*
X7715Y4440D02*
X9099D01*
X7072Y3797D02*
X7715Y4440D01*
X6436Y3797D02*
X7072D01*
X9195Y1550D02*
Y2427D01*
X6350Y4293D02*
X6367Y4310D01*
X6307Y4250D02*
X6350Y4293D01*
X6307Y4250D02*
Y4398D01*
X9099Y4440D02*
X9211Y4328D01*
X5048Y4980D02*
X5302Y4726D01*
X4843Y4980D02*
X5048D01*
X8729Y2479D02*
X9143D01*
X8614Y2594D02*
X8729Y2479D01*
X8614Y2594D02*
Y2992D01*
X9143Y2479D02*
X9195Y2427D01*
X8765Y1551D02*
X9028D01*
X8958Y3336D02*
X8967D01*
X8895Y3273D02*
X8958Y3336D01*
X8895Y3273D02*
Y3273D01*
X8873Y3250D02*
X8895Y3273D01*
X8872Y3250D02*
X8873D01*
X8614Y2992D02*
X8872Y3250D01*
X9211Y4328D02*
X9221Y4318D01*
X6318Y4200D02*
X6350D01*
X4794Y4726D02*
X5204Y4316D01*
Y4059D02*
Y4316D01*
Y4059D02*
X6005Y3258D01*
X6406Y3365D02*
X7301D01*
X5302Y4726D02*
X5712Y4316D01*
Y4059D02*
Y4316D01*
Y4059D02*
X6406Y3365D01*
X9201Y5478D02*
X9211Y5468D01*
X4501Y5322D02*
X4843Y4980D01*
X4112Y5408D02*
X4794Y4726D01*
X3712Y5300D02*
X4286Y4726D01*
X8691Y5488D02*
X9031D01*
X8691Y4898D02*
X9051D01*
X8701Y4318D02*
X9061D01*
X8701Y3708D02*
X9031D01*
X8967Y3336D02*
X9107D01*
X8775Y1811D02*
X9025D01*
X8775Y2051D02*
X9024D01*
X8785Y2311D02*
X9025D01*
X8597Y3346D02*
X8797D01*
X2183Y6019D02*
X2202D01*
X2111Y5947D02*
X2112Y4868D01*
X2254Y4726D01*
X2111Y5947D02*
X2183Y6019D01*
X3712Y5300D02*
Y5941D01*
X3793Y6022D01*
X4112Y5408D02*
Y5946D01*
X4188Y6022D01*
X4501Y5322D02*
Y5934D01*
X4593Y6026D01*
X6307Y3926D02*
X6436Y3797D01*
X5406Y5573D02*
Y5769D01*
X5803Y5571D02*
Y5772D01*
X5793Y6020D02*
Y6218D01*
X4593Y6026D02*
Y6218D01*
X4202Y6022D02*
Y6223D01*
X3797Y6022D02*
Y6222D01*
X2202Y6019D02*
Y6223D01*
X2001Y6015D02*
Y6224D01*
Y5573D02*
Y5774D01*
D21*
X6312Y2390D02*
X6316Y2394D01*
Y2734D01*
X6476Y4388D02*
X6572Y4292D01*
X5596Y5573D02*
Y5771D01*
D22*
X5115Y2159D02*
Y2174D01*
X6762Y2085D02*
Y2390D01*
X6466Y1789D02*
X6762Y2085D01*
X5308Y1789D02*
X6466D01*
X6568Y1998D02*
Y2393D01*
X5195Y2009D02*
Y2124D01*
X6435Y1865D02*
X6568Y1998D01*
X5339Y1865D02*
X6435D01*
X5195Y2009D02*
X5339Y1865D01*
X5115Y1982D02*
X5308Y1789D01*
X5115Y1982D02*
Y2089D01*
X5114Y2091D02*
X5115Y2089D01*
X5114Y2091D02*
Y2157D01*
X5115Y2159D01*
D23*
X1400Y2850D02*
D03*
X9100D02*
D03*
X1400Y6000D02*
D03*
D24*
X9100D02*
D03*
D25*
X5685Y2545D02*
D03*
D26*
X2865D02*
D03*
D27*
X2006Y3704D02*
D03*
X2260D02*
D03*
X2514D02*
D03*
X2768D02*
D03*
X3022D02*
D03*
D28*
X3276D02*
D03*
D29*
X6412Y2005D02*
D03*
X6912D02*
D03*
D30*
X6699Y4461D02*
D03*
X2127Y4463D02*
D03*
D31*
X6316Y2734D02*
D03*
X6871Y3530D02*
D03*
X6503Y4511D02*
D03*
X6597Y5681D02*
D03*
X6584Y6197D02*
D03*
X3885Y4442D02*
D03*
X4633Y3807D02*
D03*
X4515Y3871D02*
D03*
X5675Y2836D02*
D03*
X5696Y2071D02*
D03*
X2847Y2041D02*
D03*
X2862Y2790D02*
D03*
X5962Y3010D02*
D03*
X6083Y2743D02*
D03*
X6475Y2959D02*
D03*
X8049Y3098D02*
D03*
X7373Y2713D02*
D03*
X7113Y2978D02*
D03*
X7834Y3256D02*
D03*
X8327Y3718D02*
D03*
X8359Y5476D02*
D03*
X8353Y4831D02*
D03*
X8340Y4274D02*
D03*
X9402Y4579D02*
D03*
X1115Y4331D02*
D03*
X9367Y1117D02*
D03*
X1088Y1081D02*
D03*
X6476Y4388D02*
D03*
X6307Y4398D02*
D03*
X6060D02*
D03*
X5750Y4403D02*
D03*
X4790Y4402D02*
D03*
X4537Y4391D02*
D03*
X4023Y4398D02*
D03*
X3763D02*
D03*
X3524Y4405D02*
D03*
X3260Y4398D02*
D03*
X3010Y4388D02*
D03*
X2750Y4398D02*
D03*
X2493Y4377D02*
D03*
X4292Y4417D02*
D03*
X2316Y4408D02*
D03*
X5022Y4388D02*
D03*
X5273Y4396D02*
D03*
X5504Y4394D02*
D03*
X6539Y3647D02*
D03*
X6473Y3729D02*
D03*
X6510Y3869D02*
D03*
X6399Y3986D02*
D03*
X7604Y3831D02*
D03*
X7793Y4526D02*
D03*
X7416Y4822D02*
D03*
X7101Y4457D02*
D03*
X5110Y2174D02*
D03*
X5194Y2124D02*
D03*
D32*
X2603Y5577D02*
D03*
X2800Y5579D02*
D03*
X3187Y5575D02*
D03*
X3396Y5566D02*
D03*
X3606Y5573D02*
D03*
X3788D02*
D03*
X3999Y5577D02*
D03*
X4211Y5569D02*
D03*
X4393Y5568D02*
D03*
X4591D02*
D03*
X4812Y5573D02*
D03*
X5001Y5579D02*
D03*
X5195Y5573D02*
D03*
X5406D02*
D03*
X5596D02*
D03*
X5803Y5571D02*
D03*
X5793Y6020D02*
D03*
X5596Y6022D02*
D03*
X5398D02*
D03*
X5195Y6024D02*
D03*
X4995Y6026D02*
D03*
X4796Y6024D02*
D03*
X4593Y6026D02*
D03*
X4401Y6024D02*
D03*
X4202Y6022D02*
D03*
X4004Y6024D02*
D03*
X3797Y6022D02*
D03*
X3598Y6026D02*
D03*
X3395D02*
D03*
X3201D02*
D03*
X2994Y6024D02*
D03*
X2806D02*
D03*
X2597Y6022D02*
D03*
X2001Y6015D02*
D03*
Y5573D02*
D03*
X2400Y6024D02*
D03*
X2202Y6019D02*
D03*
X2986Y5579D02*
D03*
X2204Y5575D02*
D03*
X2401Y5569D02*
D03*
D33*
X9107Y3336D02*
D03*
M02*
