%FSTAX24Y24*%
%MOMM*%
%SFA1B1*%

%IPPOS*%
%ADD25C,1.499997*%
%ADD40R,1.199998X1.599997*%
%ADD41R,1.199998X1.149998*%
%ADD42R,1.199998X3.199994*%
%ADD43R,0.999998X0.999998*%
%ADD44R,2.699995X5.199990*%
%ADD45R,1.099998X2.999994*%
%ADD46R,1.399997X2.699995*%
%ADD47C,5.199990*%
%ADD48C,4.199992*%
%ADD49C,1.399997*%
%ADD50C,0.999998*%
%ADD51C,1.699997*%
%ADD52R,1.699997X1.699997*%
%ADD53C,1.999996*%
%LNio-testing-mezzanine-1*%
%LPD*%
G54D25*
X657999Y200499D03*
X707999D03*
G54D40*
X799099Y489799D03*
X869099D03*
X799099Y548799D03*
X869099D03*
X799099Y430799D03*
X869099D03*
X8001Y370799D03*
X870099D03*
G54D41*
X920099Y547799D03*
X904099D03*
X922099Y490799D03*
X906099D03*
X921099Y368799D03*
X905099D03*
X918499Y231099D03*
X902499D03*
X922099Y4318D03*
X906099D03*
X918499Y204999D03*
X902499D03*
X896699Y333599D03*
X880699D03*
X918499Y181099D03*
X902499D03*
X919499Y155099D03*
X903499D03*
G54D42*
X199999Y622499D03*
Y577499D03*
X219999Y622499D03*
Y577499D03*
X239999Y622499D03*
Y577499D03*
X259999Y622499D03*
Y577499D03*
X279999Y622499D03*
Y577499D03*
X299999Y622499D03*
Y577499D03*
X319999Y622499D03*
Y577499D03*
X339999Y622499D03*
Y577499D03*
X359999Y622499D03*
Y577499D03*
X379999Y622499D03*
Y577499D03*
X399999Y622499D03*
Y577499D03*
X419999Y622499D03*
Y577499D03*
X439999Y622499D03*
Y577499D03*
X459999Y622499D03*
Y577499D03*
X479999Y622499D03*
Y577499D03*
X499999Y622499D03*
Y577499D03*
X519999Y622499D03*
Y577499D03*
X539999Y622499D03*
Y577499D03*
X559999Y622499D03*
Y577499D03*
X579999Y622499D03*
Y577499D03*
G54D43*
X860499Y155099D03*
X876499D03*
X859699Y334599D03*
X843699D03*
X877499Y232099D03*
X861499D03*
X877499Y205099D03*
X861499D03*
X876499Y182099D03*
X860499D03*
G54D44*
X755499Y216499D03*
X610499D03*
G54D45*
X647999Y238999D03*
X672999D03*
X692999D03*
X717999D03*
G54D46*
X199999Y472599D03*
Y419999D03*
X225399Y472599D03*
Y419999D03*
X250799Y472599D03*
Y419999D03*
X276199Y472599D03*
Y419999D03*
X301599Y472599D03*
Y419999D03*
X326999Y472599D03*
Y419999D03*
X352399Y472599D03*
Y419999D03*
X377799Y472599D03*
Y419999D03*
X403199Y472599D03*
Y419999D03*
X428599Y472599D03*
Y419999D03*
X453999Y472599D03*
Y419999D03*
X479399Y472599D03*
Y419999D03*
X504799Y472599D03*
Y419999D03*
X530199Y472599D03*
Y419999D03*
X555599Y472599D03*
Y419999D03*
X580999Y472599D03*
Y419999D03*
X606399Y472599D03*
Y419999D03*
X631799Y472599D03*
Y419999D03*
X657199Y472599D03*
Y419999D03*
X682599Y472599D03*
Y419999D03*
G54D47*
X139999Y284999D03*
X909999D03*
X139999Y599999D03*
G54D48*
X909999Y599999D03*
G54D49*
X568499Y254499D03*
G54D50*
X286499Y254499D03*
G54D51*
X200599Y370399D03*
X225999D03*
X251399D03*
X276799D03*
X302199D03*
G54D52*
X327599Y370399D03*
G54D53*
X669899Y446099D03*
X212699Y446299D03*
M02*