%FSTAX24Y24*%
%MOMM*%
%SFA1B1*%

%IPPOS*%
%ADD19C,0.250000*%
%ADD36C,0.200000*%
%ADD39C,0.200000*%
%LNio-testing-mezzanine-1*%
%LPD*%
G54D19*
X406499Y139899D02*
X401399D01*
X403899*
Y124599*
X406499*
X401399*
X386099Y139899D02*
X391199D01*
X393799Y137299*
Y127199*
X391199Y124599*
X386099*
X383599Y127199*
Y137299*
X386099Y139899*
X378499Y132199D02*
X368399D01*
X363299Y139899D02*
X353099D01*
X358199*
Y124599*
X340399D02*
X345499D01*
X348099Y127199*
Y132199*
X345499Y134799*
X340399*
X337899Y132199*
Y129699*
X348099*
X332799Y124599D02*
X325199D01*
X322699Y127199*
X325199Y129699*
X330299*
X332799Y132199*
X330299Y134799*
X322699*
X314999Y137299D02*
Y134799D01*
X317599*
X312499*
X314999*
Y127199*
X312499Y124599*
X304899D02*
X299799D01*
X302399*
Y134799*
X304899*
X292199Y124599D02*
Y134799D01*
X284599*
X281999Y132199*
Y124599*
X271899Y119499D02*
X269299D01*
X266799Y122099*
Y134799*
X274399*
X276999Y132199*
Y127199*
X274399Y124599*
X266799*
X261699Y132199D02*
X251599D01*
X246499Y124599D02*
Y139899D01*
X241399Y134799*
X236299Y139899*
Y124599*
X223599D02*
X228699D01*
X231299Y127199*
Y132199*
X228699Y134799*
X223599*
X221099Y132199*
Y129699*
X231299*
X215999Y134799D02*
X205899D01*
X215999Y124599*
X205899*
X200799Y134799D02*
X190599D01*
X200799Y124599*
X190599*
X182999Y134799D02*
X177899D01*
X175399Y132199*
Y124599*
X182999*
X185599Y127199*
X182999Y129699*
X175399*
X170299Y124599D02*
Y134799D01*
X162699*
X160199Y132199*
Y124599*
X155099D02*
X149999D01*
X152499*
Y134799*
X155099*
X142399Y124599D02*
Y134799D01*
X134799*
X132199Y132199*
Y124599*
X119499D02*
X124599D01*
X127199Y127199*
Y132199*
X124599Y134799*
X119499*
X116999Y132199*
Y129699*
X127199*
X165799Y567699D02*
Y552499D01*
X173399*
X175999Y554999*
Y560099*
X173399Y562599*
X165799*
X180999Y567699D02*
X186099D01*
X183599*
Y552499*
X180999Y554999*
X582999Y263999D02*
X598199D01*
Y271599*
X595699Y274199*
X590599*
X588099Y271599*
Y263999*
X582999Y289399D02*
Y279199D01*
X593199Y289399*
X595699*
X598199Y286899*
Y281799*
X595699Y279199*
G54D36*
X587399Y574399D02*
X597499D01*
X587399Y625199D02*
X597499D01*
X182199D02*
X192399D01*
X182199Y574399D02*
X192399D01*
X597499D02*
Y625199D01*
X182199Y574399D02*
Y625199D01*
X276399Y217699D02*
X578599D01*
Y291299*
X276399D02*
X578599D01*
X276399Y217699D02*
Y291299D01*
G54D39*
X169499Y592199D02*
X173799D01*
X171599*
Y579499*
X169499Y581599*
X603899D02*
X605999Y579499D01*
X610199*
X612299Y581599*
Y583799*
X610199Y585899*
X608099*
X610199*
X612299Y587999*
Y590099*
X610199Y592199*
X605999*
X603899Y590099*
X616599D02*
X618699Y592199D01*
X622899*
X624999Y590099*
Y581599*
X622899Y579499*
X618699*
X616599Y581599*
Y583799*
X618699Y585899*
X624999*
X610199Y617599D02*
Y604899D01*
X603899Y611299*
X612299*
X616599Y606999D02*
X618699Y604899D01*
X622899*
X624999Y606999*
Y615499*
X622899Y617599*
X618699*
X616599Y615499*
Y606999*
X177999Y617599D02*
X169499D01*
X177999Y609199*
Y606999*
X175899Y604899*
X171599*
X169499Y606999*
X313999Y307799D02*
X305599D01*
X313999Y299399*
Y297299*
X311899Y295099*
X307699*
X305599Y297299*
X545099Y296299D02*
X540799Y298399D01*
X536599Y302699*
Y306899*
X538699Y308999*
X542999*
X545099Y306899*
Y3048*
X542999Y302699*
X536599*
X549299Y298399D02*
X551399Y296299D01*
X555699*
X557799Y298399*
Y306899*
X555699Y308999*
X551399*
X549299Y306899*
Y298399*
X546499Y199899D02*
X537999D01*
Y206199*
X542199Y204099*
X544299*
X546499Y206199*
Y210499*
X544299Y212599*
X540099*
X537999Y210499*
X550699D02*
X552799Y212599D01*
X556999*
X559099Y210499*
Y201999*
X556999Y199899*
X552799*
X550699Y201999*
Y204099*
X552799Y206199*
X559099*
X304299Y212599D02*
X308499D01*
X306399*
Y199899*
X304299Y201999*
M02*