%FSTAX24Y24*%
%MOMM*%
%SFA1B1*%

%IPPOS*%
%ADD10R,0.999998X1.399997*%
%ADD11R,0.999998X0.949998*%
%ADD12R,0.999998X2.999994*%
%ADD13R,0.499999X1.999996*%
%ADD14R,0.799998X0.799998*%
%ADD15R,2.499995X4.999990*%
%ADD16R,0.899998X2.799994*%
%ADD17R,1.199998X2.499995*%
%LNio-testing-mezzanine-1*%
%LPD*%
G54D10*
X799099Y489799D03*
X869099D03*
X799099Y548799D03*
X869099D03*
X799099Y430799D03*
X869099D03*
X8001Y370799D03*
X870099D03*
G54D11*
X920099Y547799D03*
X904099D03*
X922099Y490799D03*
X906099D03*
X921099Y368799D03*
X905099D03*
X918499Y231099D03*
X902499D03*
X922099Y4318D03*
X906099D03*
X918499Y204999D03*
X902499D03*
X896699Y333599D03*
X880699D03*
X918499Y181099D03*
X902499D03*
X919499Y155099D03*
X903499D03*
G54D12*
X199999Y602499D03*
Y557499D03*
X219999Y602499D03*
Y557499D03*
X239999Y602499D03*
Y557499D03*
X259999Y602499D03*
Y557499D03*
X279999Y602499D03*
Y557499D03*
X299999Y602499D03*
Y557499D03*
X319999Y602499D03*
Y557499D03*
X339999Y602499D03*
Y557499D03*
X359999Y602499D03*
Y557499D03*
X379999Y602499D03*
Y557499D03*
X399999Y602499D03*
Y557499D03*
X419999Y602499D03*
Y557499D03*
X439999Y602499D03*
Y557499D03*
X459999Y602499D03*
Y557499D03*
X479999Y602499D03*
Y557499D03*
X499999Y602499D03*
Y557499D03*
X519999Y602499D03*
Y557499D03*
X539999Y602499D03*
Y557499D03*
X559999Y602499D03*
Y557499D03*
X579999Y602499D03*
Y557499D03*
G54D13*
X543499Y256499D03*
X535499D03*
X527499D03*
X519499D03*
X511499D03*
X503499D03*
X495499D03*
X487499D03*
X479499D03*
X471499D03*
X463499D03*
X455499D03*
X447499D03*
X439499D03*
X431499D03*
X423499D03*
X415499D03*
X407499D03*
X399499D03*
X391499D03*
X383499D03*
X375499D03*
X367499D03*
X359499D03*
X351499D03*
X343499D03*
X335499D03*
X327499D03*
X319499D03*
X311499Y212499D03*
X543499D03*
X535499D03*
X527499D03*
X519499D03*
X511499D03*
X503499D03*
X495499D03*
X487499D03*
X479499D03*
X471499D03*
X463499D03*
X455499D03*
X447499D03*
X439499D03*
X431499D03*
X423499D03*
X415499D03*
X407499D03*
X399499D03*
X391499D03*
X383499D03*
X375499D03*
X367499D03*
X359499D03*
X351499D03*
X343499D03*
X335499D03*
X327499D03*
X319499D03*
X311499Y256499D03*
G54D14*
X860499Y155099D03*
X876499D03*
X859699Y334599D03*
X843699D03*
X877499Y232099D03*
X861499D03*
X877499Y205099D03*
X861499D03*
X876499Y182099D03*
X860499D03*
G54D15*
X755499Y216499D03*
X610499D03*
G54D16*
X647999Y238999D03*
X672999D03*
X692999D03*
X717999D03*
G54D17*
X199999Y472599D03*
Y419999D03*
X225399Y472599D03*
Y419999D03*
X250799Y472599D03*
Y419999D03*
X276199Y472599D03*
Y419999D03*
X301599Y472599D03*
Y419999D03*
X326999Y472599D03*
Y419999D03*
X352399Y472599D03*
Y419999D03*
X377799Y472599D03*
Y419999D03*
X403199Y472599D03*
Y419999D03*
X428599Y472599D03*
Y419999D03*
X453999Y472599D03*
Y419999D03*
X479399Y472599D03*
Y419999D03*
X504799Y472599D03*
Y419999D03*
X530199Y472599D03*
Y419999D03*
X555599Y472599D03*
Y419999D03*
X580999Y472599D03*
Y419999D03*
X606399Y472599D03*
Y419999D03*
X631799Y472599D03*
Y419999D03*
X657199Y472599D03*
Y419999D03*
X682599Y472599D03*
Y419999D03*
M02*