%FSTAX24Y24*%
%MOMM*%
%SFA1B1*%

%IPPOS*%
%ADD18C,0.250000*%
%ADD36C,0.200000*%
%ADD39C,0.200000*%
%LNio-testing-mezzanine-1*%
%LPD*%
G54D18*
X455999Y140099D02*
X450899D01*
X453399*
Y124799*
X455999*
X450899*
X435599Y140099D02*
X440699D01*
X443299Y137499*
Y127399*
X440699Y124799*
X435599*
X433099Y127399*
Y137499*
X435599Y140099*
X427999Y132399D02*
X417899D01*
X412799Y140099D02*
X402599D01*
X407699*
Y124799*
X389899D02*
X394999D01*
X397599Y127399*
Y132399*
X394999Y134999*
X389899*
X387399Y132399*
Y129899*
X397599*
X382299Y124799D02*
X374699D01*
X372199Y127399*
X374699Y129899*
X379799*
X382299Y132399*
X379799Y134999*
X372199*
X364499Y137499D02*
Y134999D01*
X367099*
X361999*
X364499*
Y127399*
X361999Y124799*
X354399D02*
X349299D01*
X351899*
Y134999*
X354399*
X341699Y124799D02*
Y134999D01*
X334099*
X331499Y132399*
Y124799*
X321399Y119699D02*
X318799D01*
X316299Y122299*
Y134999*
X323899*
X326499Y132399*
Y127399*
X323899Y124799*
X316299*
X311199Y132399D02*
X301099D01*
X295999Y124799D02*
Y140099D01*
X290899Y134999*
X285799Y140099*
Y124799*
X273099D02*
X278199D01*
X280799Y127399*
Y132399*
X278199Y134999*
X273099*
X270599Y132399*
Y129899*
X280799*
X265499Y134999D02*
X255399D01*
X265499Y124799*
X255399*
X250299Y134999D02*
X240099D01*
X250299Y124799*
X240099*
X232499Y134999D02*
X227399D01*
X224899Y132399*
Y124799*
X232499*
X235099Y127399*
X232499Y129899*
X224899*
X219799Y124799D02*
Y134999D01*
X212199*
X209699Y132399*
Y124799*
X204599D02*
X199499D01*
X201999*
Y134999*
X204599*
X191899Y124799D02*
Y134999D01*
X184299*
X181699Y132399*
Y124799*
X168999D02*
X174099D01*
X176699Y127399*
Y132399*
X174099Y134999*
X168999*
X166499Y132399*
Y129899*
X176699*
X161399Y132399D02*
X151299D01*
X146199Y134999D02*
X141099Y124799D01*
X135999Y134999*
X130899Y137499D02*
X128399Y140099D01*
X123299*
X120799Y137499*
Y127399*
X123299Y124799*
X128399*
X130899Y127399*
Y137499*
X115699Y124799D02*
X110599D01*
X113199*
Y140099*
X115699Y137499*
X165799Y567699D02*
Y552499D01*
X173399*
X175999Y554999*
Y560099*
X173399Y562599*
X165799*
X180999Y567699D02*
X186099D01*
X183599*
Y552499*
X180999Y554999*
X582999Y263999D02*
X598199D01*
Y271599*
X595699Y274199*
X590599*
X588099Y271599*
Y263999*
X582999Y289399D02*
Y279199D01*
X593199Y289399*
X595699*
X598199Y286899*
Y281799*
X595699Y279199*
G54D36*
X587399Y574399D02*
X597499D01*
X587399Y625199D02*
X597499D01*
X182199D02*
X192399D01*
X182199Y574399D02*
X192399D01*
X597499D02*
Y625199D01*
X182199Y574399D02*
Y625199D01*
X276399Y217699D02*
X578599D01*
Y291299*
X276399D02*
X578599D01*
X276399Y217699D02*
Y291299D01*
G54D39*
X169499Y592199D02*
X173799D01*
X171599*
Y579499*
X169499Y581599*
X603899D02*
X605999Y579499D01*
X610199*
X612299Y581599*
Y583799*
X610199Y585899*
X608099*
X610199*
X612299Y587999*
Y590099*
X610199Y592199*
X605999*
X603899Y590099*
X616599D02*
X618699Y592199D01*
X622899*
X624999Y590099*
Y581599*
X622899Y579499*
X618699*
X616599Y581599*
Y583799*
X618699Y585899*
X624999*
X610199Y617599D02*
Y604899D01*
X603899Y611299*
X612299*
X616599Y606999D02*
X618699Y604899D01*
X622899*
X624999Y606999*
Y615499*
X622899Y617599*
X618699*
X616599Y615499*
Y606999*
X177999Y617599D02*
X169499D01*
X177999Y609199*
Y606999*
X175899Y604899*
X171599*
X169499Y606999*
X313999Y307799D02*
X305599D01*
X313999Y299399*
Y297299*
X311899Y295099*
X307699*
X305599Y297299*
X545099Y296299D02*
X540799Y298399D01*
X536599Y302699*
Y306899*
X538699Y308999*
X542999*
X545099Y306899*
Y3048*
X542999Y302699*
X536599*
X549299Y298399D02*
X551399Y296299D01*
X555699*
X557799Y298399*
Y306899*
X555699Y308999*
X551399*
X549299Y306899*
Y298399*
X546499Y199899D02*
X537999D01*
Y206199*
X542199Y204099*
X544299*
X546499Y206199*
Y210499*
X544299Y212599*
X540099*
X537999Y210499*
X550699D02*
X552799Y212599D01*
X556999*
X559099Y210499*
Y201999*
X556999Y199899*
X552799*
X550699Y201999*
Y204099*
X552799Y206199*
X559099*
X304299Y212599D02*
X308499D01*
X306399*
Y199899*
X304299Y201999*
M02*