%FSTAX24Y24*%
%MOMM*%
%SFA1B1*%

%IPPOS*%
%ADD9500C,0.309999*%
%ADD9501C,0.709999*%
%ADD9502C,0.899998*%
%ADD9503C,1.299997*%
%ADD9504C,2.999994*%
%LNio-testing-mezzanine-plated-1*%
%LPD*%
G54D9500*
X108799Y108099D03*
X284699Y204099D03*
X311499Y222499D03*
X319599D03*
X327499Y222399D03*
X335599D03*
X343699Y222499D03*
X351599Y222599D03*
X359499Y222399D03*
X367599Y222499D03*
X375599D03*
X383699D03*
X391399Y222299D03*
X391499Y266499D03*
X383499D03*
X375499Y2667D03*
X367499D03*
X359499Y266399D03*
X351499D03*
X343599Y266499D03*
X335499D03*
X327599Y266599D03*
X319299D03*
X311399Y266499D03*
X286199Y278999D03*
X399599Y266599D03*
X407499Y266499D03*
X415699Y266599D03*
X423399Y266499D03*
X431499D03*
X439499Y266299D03*
X447499Y266499D03*
X455499D03*
X463499Y266599D03*
X471499Y266499D03*
X479599D03*
X487499Y266399D03*
X495499Y266499D03*
X503399D03*
X511499Y266399D03*
X519399Y266499D03*
X527599Y266599D03*
X535499Y266499D03*
X543599Y266599D03*
X567499Y283599D03*
X596199Y300999D03*
X625999Y274399D03*
X648299Y274099D03*
X647499Y295899D03*
X711299Y297799D03*
X737299Y271299D03*
X783399Y325599D03*
X650199Y368099D03*
X643499Y386399D03*
X654999Y393799D03*
X451499Y387099D03*
X455399Y353199D03*
Y222599D03*
X447499Y222499D03*
X439599Y222599D03*
X431599Y222499D03*
X423499D03*
X415499Y222599D03*
X407499Y222499D03*
X399399D03*
X463499Y222699D03*
X471399Y222599D03*
X479499Y222499D03*
X487399D03*
X495499D03*
X503399Y222299D03*
X511399Y222599D03*
X519399D03*
X527499Y222399D03*
X535499Y222499D03*
X543299D03*
X569599Y207099D03*
X804899Y309799D03*
X832699Y371799D03*
X936699Y111699D03*
X940199Y457899D03*
X835299Y483099D03*
X816199Y506599D03*
X835899Y547599D03*
X833999Y427399D03*
X782099Y549999D03*
X659699Y568099D03*
X658399Y619699D03*
X579199Y613999D03*
X559499Y614199D03*
X539699D03*
X519399Y614399D03*
X499399Y614599D03*
X479499Y614399D03*
X459199Y614599D03*
X439999Y614399D03*
X420099Y614199D03*
X400299Y614399D03*
X399799Y569699D03*
X420999Y568899D03*
X439199Y568799D03*
X458999D03*
X481099Y569299D03*
X499999Y569899D03*
X519399Y569299D03*
X540499D03*
X559499D03*
X580199Y569099D03*
X580499Y428899D03*
X555499D03*
X529799Y428499D03*
X504099Y430299D03*
X479499Y428899D03*
X454199Y427799D03*
X428899Y429899D03*
X402799Y428499D03*
X606499D03*
X631199D03*
X656499Y427799D03*
X649599Y448499D03*
X388499Y444199D03*
X376799Y428499D03*
X352899Y429199D03*
X326499Y428499D03*
X301499Y427499D03*
X275499Y428499D03*
X249799Y426399D03*
X222199Y428999D03*
X111499Y433099D03*
X199999Y569299D03*
X220299Y569499D03*
X239999Y568899D03*
X260199Y569699D03*
X279899Y569899D03*
X298499D03*
X318599Y569499D03*
X339499Y568599D03*
X360499Y569299D03*
X378699D03*
X379599Y614199D03*
X359699Y614599D03*
X339399D03*
X319999D03*
X299299Y614399D03*
X280499D03*
X259599Y614199D03*
X239899Y614399D03*
X220099Y613899D03*
X199999Y613499D03*
G54D9501*
X910699Y333599D03*
G54D9502*
X200599Y370399D03*
X225999D03*
X251399D03*
X276799D03*
X302199D03*
X327599D03*
G54D9503*
X657999Y200499D03*
X707999D03*
G54D9504*
X139999Y284999D03*
X909999D03*
Y599999D03*
X139999D03*
M02*