%FSTAX24Y24*%
%MOMM*%
%SFA1B1*%

%IPPOS*%
%ADD10R,0.999998X1.399997*%
%ADD11R,0.999998X0.949998*%
%ADD12R,0.999998X2.999994*%
%ADD13R,0.499999X1.999996*%
%ADD14R,0.799998X0.799998*%
%ADD15R,2.499995X4.999990*%
%ADD16R,0.899998X2.799994*%
%ADD17R,1.199998X2.499995*%
%ADD18C,0.309999*%
%ADD19C,0.250000*%
%ADD20C,0.699999*%
%ADD21C,0.499999*%
%ADD22C,0.799998*%
%ADD23C,1.199998*%
%ADD24C,4.999990*%
%ADD25C,3.999992*%
%ADD26C,1.499997*%
%ADD27R,1.499997X1.499997*%
%ADD28C,1.299997*%
%ADD29C,1.799996*%
%ADD30C,0.599999*%
%ADD31C,0.509999*%
%ADD32C,1.269997*%
%LNio-testing-mezzanine-1*%
%LPD*%
G36*
X949999Y099999D02*
X099999D01*
Y639999*
X949999*
Y099999*
G37*
%LNio-testing-mezzanine-2*%
%LPC*%
G36*
X659699Y625099D02*
Y620999D01*
X663799*
X663599Y621899*
X662399Y623699*
X660599Y624899*
X659699Y625099*
G37*
G36*
X657099D02*
X656199Y624899D01*
X654399Y623699*
X653199Y621899*
X652999Y620999*
X657099*
Y625099*
G37*
G36*
X663799Y618399D02*
X659699D01*
Y614299*
X660599Y614499*
X662399Y615699*
X663599Y617499*
X663799Y618399*
G37*
G36*
X657099D02*
X652999D01*
X653199Y617499*
X654399Y615699*
X656199Y614499*
X657099Y614299*
Y618399*
G37*
G36*
X567499Y619999D02*
X552499D01*
Y608699*
X547499*
Y619999*
X532499*
Y600899*
X527799Y596099*
X527499Y595799*
Y619999*
X512499*
Y600899*
X507599Y595899*
X507499*
Y619999*
X492499*
Y600899*
X487999Y596399*
X487499Y595699*
Y619999*
X472499*
Y600899*
X467799Y596099*
X467499Y595799*
Y619999*
X452499*
Y600499*
X447499Y595499*
Y619999*
X432499*
Y600899*
X427999Y596399*
X427499Y595699*
Y619999*
X412499*
Y600499*
X408399Y596399*
X407599Y595199*
X407499Y594899*
Y619999*
X392499*
Y600899*
X387999Y596399*
X387499Y595699*
Y619999*
X372499*
Y600499*
X368399Y596399*
X367599Y595199*
X367499Y594899*
Y619999*
X352499*
Y600899*
X347499Y595899*
Y619999*
X332499*
Y600899*
X327999Y596399*
X327499Y595699*
Y619999*
X312499*
Y600899*
X307999Y596399*
X307499Y595699*
Y619999*
X292499*
Y600899*
X287999Y596399*
X287499Y595699*
Y619999*
X272499*
Y600899*
X267999Y596399*
X267499Y595699*
Y619999*
X252499*
Y600899*
X247999Y596399*
X247499Y595699*
Y619999*
X232499*
Y600899*
X227999Y596399*
X227499Y595699*
Y619999*
X212499*
Y600499*
X208399Y596399*
X207599Y595199*
X207499Y594899*
Y601199*
X201299*
Y584999*
X207299*
Y574999*
X201299*
Y557499*
Y539999*
X207299*
Y487599*
X201299*
Y473899*
X208499*
Y483999*
X216899Y475599*
Y457599*
X233899*
Y483599*
X242299Y475199*
Y457599*
X259299*
Y483599*
X267699Y475199*
Y457599*
X284699*
Y483599*
X293099Y475199*
Y457599*
X310099*
Y483599*
X318499Y475199*
Y457599*
X335499*
Y483599*
X343899Y475199*
Y457599*
X360899*
Y483599*
X369299Y475199*
Y457599*
X386299*
Y483599*
X394699Y475199*
Y457599*
X411699*
Y483999*
X420099Y475599*
Y457599*
X437099*
Y484599*
X445499Y476199*
Y457599*
X462499*
Y483999*
X470899Y475599*
Y457599*
X487899*
Y458599*
X511499Y434999*
X506999*
X506299Y435499*
X504099Y435899*
X501899Y435499*
X501199Y434999*
X496299*
Y404999*
X513299*
Y433199*
X516499Y429999*
Y405899*
X516799Y404399*
X517599Y403199*
X597699Y323099*
X598999Y322199*
X600499Y321899*
X694999*
X714699Y302199*
X713499Y302999*
X712599Y303199*
Y299099*
X716699*
X716499Y299999*
X715699Y301199*
X855299Y161599*
X853999*
Y148599*
X866999*
Y161599*
X864399*
Y161899*
X864099Y163399*
X863199Y164599*
X700899Y326999*
X709699*
X853999Y182699*
Y175599*
X866999*
Y188599*
X859899*
X715799Y332699*
X728499*
X854999Y206099*
Y198599*
X867999*
Y211599*
X860499*
X734399Y337699*
X749999*
X854999Y232699*
Y225599*
X867999*
Y238599*
X860899*
X754599Y344799*
X753299Y345799*
X752999*
X751699Y346099*
X661899*
X603099Y404999*
X614899*
Y434999*
X599099*
X576499Y457599*
X589499*
Y487599*
X572499*
Y486999*
X546799Y512699*
X564799*
X597899Y479599*
Y457599*
X614899*
Y485099*
X623299Y476699*
Y457599*
X640299*
Y483599*
X648699Y475199*
Y457599*
X665699*
Y487599*
X648699*
Y486999*
X602099Y533499*
X600799Y534499*
X600499*
X599199Y534799*
X562799*
X557699Y539999*
X567499*
Y574999*
X555099*
Y584999*
X567499*
Y619999*
G37*
G36*
X587499D02*
X581299D01*
Y603799*
X587499*
Y619999*
G37*
G36*
X578699D02*
X572499D01*
Y603799*
X578699*
Y619999*
G37*
G36*
X207499D02*
X201299D01*
Y603799*
X207499*
Y619999*
G37*
G36*
X198699D02*
X192499D01*
Y603799*
X198699*
Y619999*
G37*
G36*
X911299Y622499D02*
Y601299D01*
X932499*
X932199Y604399*
X930899Y608699*
X928799Y612599*
X925999Y615999*
X922599Y618799*
X918699Y620899*
X9144Y622199*
X911299Y622499*
G37*
G36*
X908699D02*
X905599Y622199D01*
X901299Y620899*
X897399Y618799*
X893999Y615999*
X891199Y612599*
X889099Y608699*
X887799Y604399*
X887499Y601299*
X908699*
Y622499*
G37*
G36*
X141299Y627499D02*
Y601299D01*
X167499*
X167299Y604299*
X166299Y608499*
X164599Y612499*
X162299Y616199*
X159499Y619499*
X156199Y6223*
X152499Y624599*
X148499Y626299*
X144299Y627299*
X141299Y627499*
G37*
G36*
X138699D02*
X135699Y627299D01*
X131499Y626299*
X127499Y624599*
X123799Y6223*
X120499Y619499*
X117699Y616199*
X115399Y612499*
X113699Y608499*
X112699Y604299*
X112499Y601299*
X138699*
Y627499*
G37*
G36*
X587499Y601199D02*
X581299D01*
Y584999*
X587499*
Y601199*
G37*
G36*
X578699D02*
X572499D01*
Y584999*
X578699*
Y601199*
G37*
G36*
X198699D02*
X192499D01*
Y584999*
X198699*
Y601199*
G37*
G36*
X932499Y598699D02*
X911299D01*
Y577499*
X9144Y577799*
X918699Y579099*
X922599Y581199*
X925999Y583999*
X928799Y587399*
X930899Y591299*
X932199Y595599*
X932499Y598699*
G37*
G36*
X908699D02*
X887499D01*
X887799Y595599*
X889099Y591299*
X891199Y587399*
X893999Y583999*
X897399Y581199*
X901299Y579099*
X905599Y577799*
X908699Y577499*
Y598699*
G37*
G36*
X167499D02*
X141299D01*
Y572499*
X144299Y572699*
X148499Y573699*
X152499Y575399*
X156199Y577699*
X159499Y580499*
X162299Y583799*
X164599Y587499*
X166299Y591499*
X167299Y595699*
X167499Y598699*
G37*
G36*
X138699D02*
X112499D01*
X112699Y595699*
X113699Y591499*
X115399Y587499*
X117699Y583799*
X120499Y580499*
X123799Y577699*
X127499Y575399*
X131499Y573699*
X135699Y572699*
X138699Y572499*
Y598699*
G37*
G36*
X660999Y573499D02*
Y569399D01*
X665099*
X664899Y570299*
X663699Y572099*
X661899Y573299*
X660999Y573499*
G37*
G36*
X658399D02*
X657499Y573299D01*
X655699Y572099*
X654499Y570299*
X654299Y569399*
X658399*
Y573499*
G37*
G36*
X665099Y566799D02*
X660999D01*
Y562699*
X661899Y562899*
X663699Y564099*
X664899Y565899*
X665099Y566799*
G37*
G36*
X658399D02*
X654299D01*
X654499Y565899*
X655699Y564099*
X657499Y562899*
X658399Y562699*
Y566799*
G37*
G36*
X587499Y574999D02*
X581299D01*
Y5588*
X587499*
Y574999*
G37*
G36*
X578699D02*
X572499D01*
Y5588*
X578699*
Y574999*
G37*
G36*
X198699D02*
X192499D01*
Y5588*
X198699*
Y574999*
G37*
G36*
X806599Y558299D02*
X791599D01*
Y554199*
X785799*
X784299Y555199*
X782099Y555599*
X779899Y555199*
X778099Y553999*
X776899Y552199*
X776499Y549999*
X776899Y547799*
X778099Y545999*
X779899Y544799*
X782099Y544399*
X784299Y544799*
X785799Y545799*
X791599*
Y539299*
X806599*
Y558299*
G37*
G36*
X837199Y552999D02*
Y548899D01*
X841299*
X841099Y549799*
X839899Y551599*
X838099Y552799*
X837199Y552999*
G37*
G36*
X834599D02*
X833699Y552799D01*
X831899Y551599*
X830699Y549799*
X830499Y548899*
X834599*
Y552999*
G37*
G36*
X841299Y546299D02*
X837199D01*
Y542199*
X838099Y542399*
X839899Y543599*
X841099Y545399*
X841299Y546299*
G37*
G36*
X834599D02*
X830499D01*
X830699Y545399*
X831899Y543599*
X833699Y542399*
X834599Y542199*
Y546299*
G37*
G36*
X876599Y558299D02*
X861599D01*
Y539299*
X876599*
Y544899*
X896599*
Y540499*
X911599*
Y555099*
X896599*
Y552699*
X876599*
Y558299*
G37*
G36*
X587499Y556199D02*
X581299D01*
Y539999*
X587499*
Y556199*
G37*
G36*
X578699D02*
X572499D01*
Y539999*
X578699*
Y556199*
G37*
G36*
X198699D02*
X192499D01*
Y539999*
X198699*
Y556199*
G37*
G36*
X816199Y512199D02*
X813999Y511799D01*
X812199Y510599*
X810999Y508799*
X810699Y507299*
X802699Y499299*
X791599*
Y480299*
X806599*
Y491399*
X816199Y500999*
X818399Y501399*
X820199Y502599*
X821399Y504399*
X821799Y506599*
X821399Y508799*
X820199Y510599*
X818399Y511799*
X816199Y512199*
G37*
G36*
X836599Y488499D02*
Y484399D01*
X840699*
X840499Y485299*
X839299Y487099*
X837499Y488299*
X836599Y488499*
G37*
G36*
X833999D02*
X833099Y488299D01*
X831299Y487099*
X830099Y485299*
X829899Y484399*
X833999*
Y488499*
G37*
G36*
X876599Y499299D02*
X861599D01*
Y480299*
X876599*
Y485899*
X898599*
Y483499*
X913599*
Y498099*
X898599*
Y493699*
X876599*
Y499299*
G37*
G36*
X840699Y481799D02*
X836599D01*
Y477699*
X837499Y477899*
X839299Y479099*
X840499Y480899*
X840699Y481799*
G37*
G36*
X833999D02*
X829899D01*
X830099Y480899*
X831299Y479099*
X833099Y477899*
X833999Y477699*
Y481799*
G37*
G36*
X691099Y487599D02*
X683899D01*
Y473899*
X691099*
Y487599*
G37*
G36*
X681299D02*
X674099D01*
Y473899*
X681299*
Y487599*
G37*
G36*
X198699D02*
X191499D01*
Y473899*
X198699*
Y487599*
G37*
G36*
X941499Y463299D02*
Y459199D01*
X945599*
X945399Y460099*
X944199Y461899*
X942399Y463099*
X941499Y463299*
G37*
G36*
X938899D02*
X937999Y463099D01*
X936199Y461899*
X934999Y460099*
X934799Y459199*
X938899*
Y463299*
G37*
G36*
X691099Y471299D02*
X683899D01*
Y457599*
X691099*
Y471299*
G37*
G36*
X681299D02*
X674099D01*
Y457599*
X681299*
Y471299*
G37*
G36*
X208499D02*
X201299D01*
Y457599*
X208499*
Y471299*
G37*
G36*
X198699D02*
X191499D01*
Y457599*
X198699*
Y471299*
G37*
G36*
X945599Y456599D02*
X941499D01*
Y452499*
X942399Y452699*
X944199Y453899*
X945399Y455699*
X945599Y456599*
G37*
G36*
X938899D02*
X934799D01*
X934999Y455699*
X936199Y453899*
X937999Y452699*
X938899Y452499*
Y456599*
G37*
G36*
X650899Y453899D02*
Y449799D01*
X654999*
X654799Y450699*
X653599Y452499*
X651799Y453699*
X650899Y453899*
G37*
G36*
X648299D02*
X647399Y453699D01*
X645599Y452499*
X644399Y450699*
X644199Y449799*
X648299*
Y453899*
G37*
G36*
X389799Y449599D02*
Y445499D01*
X393899*
X3937Y446399*
X392499Y448199*
X390699Y449399*
X389799Y449599*
G37*
G36*
X387199D02*
X386299Y449399D01*
X384499Y448199*
X383299Y446399*
X383099Y445499*
X387199*
Y449599*
G37*
G36*
X654999Y447199D02*
X650899D01*
Y443099*
X651799Y443299*
X653599Y4445*
X654799Y446299*
X654999Y447199*
G37*
G36*
X648299D02*
X644199D01*
X644399Y446299*
X645599Y4445*
X647399Y443299*
X648299Y443099*
Y447199*
G37*
G36*
X927599Y555099D02*
X912599D01*
Y540499*
X917199*
Y498099*
X914599*
Y483499*
X917199*
Y442199*
X914999Y444399*
X913799Y445199*
X912299Y445499*
X755799*
X754299Y445199*
X752999Y444399*
X714199Y405599*
X691099*
Y418699*
X674099*
Y405599*
X665699*
Y434999*
X648699*
Y405599*
X647099*
X640599Y412099*
Y430999*
X640299Y432199*
Y434999*
X623299*
Y404999*
X636699*
X642799Y398999*
X643999Y398099*
X645499Y397799*
X650999*
X649799Y395999*
X649399Y393799*
X649799Y391599*
X650499Y390599*
X647199*
X645699Y391599*
X643499Y391999*
X641299Y391599*
X639499Y390399*
X638299Y388599*
X637899Y386399*
X638299Y384199*
X639499Y382399*
X641299Y381199*
X643499Y380799*
X645699Y381199*
X647199Y382199*
X782799*
X792599Y372399*
Y361299*
X807599*
Y380299*
X796499*
X7874Y389299*
X786099Y390299*
X785799*
X784499Y390599*
X739599*
X739999Y390899*
X775799Y426599*
X791599*
Y421299*
X806599*
Y437699*
X861599*
Y421299*
X876599*
Y427899*
X898599*
Y424499*
X913599*
Y434799*
X914599Y433799*
Y424499*
X917199*
Y376099*
X913599*
Y361499*
X928599*
Y376099*
X924999*
Y424499*
X929599*
Y439099*
X924999*
Y483499*
X929599*
Y498099*
X924999*
Y540499*
X927599*
Y555099*
G37*
G36*
X393899Y442899D02*
X389799D01*
Y438799*
X390699Y438999*
X392499Y440199*
X3937Y441999*
X393899Y442899*
G37*
G36*
X387199D02*
X383099D01*
X383299Y441999*
X384499Y440199*
X386299Y438999*
X387199Y438799*
Y442899*
G37*
G36*
X212699Y457899D02*
X209699Y457499D01*
X206899Y456399*
X204499Y454499*
X202599Y452099*
X201499Y449299*
X201099Y446299*
X201499Y443299*
X202599Y440499*
X204499Y438099*
X206899Y436199*
X209699Y435099*
X212699Y434699*
X215699Y435099*
X218499Y436199*
X220899Y438099*
X222799Y440499*
X223899Y443299*
X224299Y446299*
X223899Y449299*
X222799Y452099*
X220899Y454499*
X218499Y456399*
X215699Y457499*
X212699Y457899*
G37*
G36*
X669899Y457699D02*
X666899Y457299D01*
X664099Y456199*
X661699Y454299*
X659799Y451899*
X658699Y449099*
X658299Y446099*
X658699Y443099*
X659799Y440299*
X661699Y437899*
X664099Y435999*
X666899Y434899*
X669899Y434499*
X672899Y434899*
X675699Y435999*
X678099Y437899*
X679999Y440299*
X681099Y443099*
X681499Y446099*
X681099Y449099*
X679999Y451899*
X678099Y454299*
X675699Y456199*
X672899Y457299*
X669899Y457699*
G37*
G36*
X112799Y438499D02*
Y434399D01*
X116899*
X116699Y435299*
X115499Y437099*
X113699Y438299*
X112799Y438499*
G37*
G36*
X110199D02*
X109299Y438299D01*
X107499Y437099*
X106299Y435299*
X106099Y434399*
X110199*
Y438499*
G37*
G36*
X835299Y432799D02*
Y428699D01*
X839399*
X839199Y429599*
X837999Y431399*
X836199Y432599*
X835299Y432799*
G37*
G36*
X832699D02*
X831799Y432599D01*
X829999Y431399*
X828799Y429599*
X828599Y428699*
X832699*
Y432799*
G37*
G36*
X116899Y4318D02*
X112799D01*
Y427699*
X113699Y427899*
X115499Y429099*
X116699Y430899*
X116899Y4318*
G37*
G36*
X110199D02*
X106099D01*
X106299Y430899*
X107499Y429099*
X109299Y427899*
X110199Y427699*
Y4318*
G37*
G36*
X839399Y426099D02*
X835299D01*
Y421999*
X836199Y422199*
X837999Y423399*
X839199Y425199*
X839399Y426099*
G37*
G36*
X832699D02*
X828599D01*
X828799Y425199*
X829999Y423399*
X831799Y422199*
X832699Y421999*
Y426099*
G37*
G36*
X691099Y434999D02*
X683899D01*
Y421299*
X691099*
Y434999*
G37*
G36*
X681299D02*
X674099D01*
Y421299*
X681299*
Y434999*
G37*
G36*
X208499D02*
X201299D01*
Y421299*
X208499*
Y434999*
G37*
G36*
X198699D02*
X191499D01*
Y421299*
X198699*
Y434999*
G37*
G36*
X487899D02*
X470899D01*
Y404999*
X487899*
Y434999*
G37*
G36*
X462499D02*
X445499D01*
Y404999*
X462499*
Y434999*
G37*
G36*
X428899Y435499D02*
X426699Y435099D01*
X426599Y434999*
X420099*
Y404999*
X437099*
Y434999*
X431199*
X431099Y435099*
X428899Y435499*
G37*
G36*
X411699Y434999D02*
X394699D01*
Y404999*
X411699*
Y434999*
G37*
G36*
X386299D02*
X369299D01*
Y404999*
X386299*
Y434999*
G37*
G36*
X360899D02*
X343899D01*
Y404999*
X360899*
Y434999*
G37*
G36*
X335499D02*
X318499D01*
Y404999*
X335499*
Y434999*
G37*
G36*
X310099D02*
X293099D01*
Y404999*
X310099*
Y434999*
G37*
G36*
X284699D02*
X267699D01*
Y404999*
X284699*
Y434999*
G37*
G36*
X259299D02*
X242299D01*
Y404999*
X259299*
Y434999*
G37*
G36*
X233899D02*
X216899D01*
Y430799*
X216499Y428999*
X216899Y427299*
Y404999*
X233899*
Y434999*
G37*
G36*
X208499Y418699D02*
X201299D01*
Y404999*
X208499*
Y418699*
G37*
G36*
X198699D02*
X191499D01*
Y404999*
X198699*
Y418699*
G37*
G36*
X452799Y392499D02*
Y388399D01*
X456899*
X456699Y389299*
X455499Y391099*
X453699Y392299*
X452799Y392499*
G37*
G36*
X450199D02*
X449299Y392299D01*
X447499Y391099*
X446299Y389299*
X446099Y388399*
X450199*
Y392499*
G37*
G36*
X456899Y385799D02*
X452799D01*
Y381699*
X453699Y381899*
X455499Y383099*
X456699Y384899*
X456899Y385799*
G37*
G36*
X450199D02*
X446099D01*
X446299Y384899*
X447499Y383099*
X449299Y381899*
X450199Y381699*
Y385799*
G37*
G36*
X833999Y377199D02*
Y373099D01*
X838099*
X837899Y373999*
X836699Y375799*
X834899Y376999*
X833999Y377199*
G37*
G36*
X831399D02*
X830499Y376999D01*
X828699Y375799*
X827499Y373999*
X827299Y373099*
X831399*
Y377199*
G37*
G36*
X201899Y380399D02*
Y371699D01*
X210599*
X210399Y372999*
X209399Y375499*
X207799Y377599*
X205699Y379199*
X2032Y380199*
X201899Y380399*
G37*
G36*
X199299D02*
X197999Y380199D01*
X195499Y379199*
X193399Y377599*
X191799Y375499*
X190799Y372999*
X190599Y371699*
X199299*
Y380399*
G37*
G36*
X651499Y373499D02*
Y369399D01*
X655599*
X655399Y370299*
X654199Y372099*
X652399Y373299*
X651499Y373499*
G37*
G36*
X648899D02*
X647999Y373299D01*
X646199Y372099*
X644999Y370299*
X644799Y369399*
X648899*
Y373499*
G37*
G36*
X838099Y370499D02*
X833999D01*
Y366399*
X834899Y366599*
X836699Y367799*
X837899Y369599*
X838099Y370499*
G37*
G36*
X831399D02*
X827299D01*
X827499Y369599*
X828699Y367799*
X830499Y366599*
X831399Y366399*
Y370499*
G37*
G36*
X655599Y366799D02*
X651499D01*
Y362699*
X652399Y362899*
X654199Y364099*
X655399Y365899*
X655599Y366799*
G37*
G36*
X648899D02*
X644799D01*
X644999Y365899*
X646199Y364099*
X647999Y362899*
X648899Y362699*
Y366799*
G37*
G36*
X877599Y380299D02*
X862599D01*
Y361299*
X877599*
Y366899*
X897599*
Y361499*
X912599*
Y376099*
X897599*
Y374699*
X877599*
Y380299*
G37*
G36*
X210599Y369099D02*
X201899D01*
Y360399*
X2032Y360599*
X205699Y361599*
X207799Y363199*
X209399Y365299*
X210399Y367799*
X210599Y369099*
G37*
G36*
X199299D02*
X190599D01*
X190799Y367799*
X191799Y365299*
X193399Y363199*
X195499Y361599*
X197999Y360599*
X199299Y360399*
Y369099*
G37*
G36*
X337599Y380399D02*
X317599D01*
Y360399*
X337599*
Y380399*
G37*
G36*
X302199Y380499D02*
X299599Y380199D01*
X297099Y379199*
X294999Y377599*
X293399Y375499*
X292399Y372999*
X2921Y370399*
X292399Y367799*
X293399Y365299*
X294999Y363199*
X297099Y361599*
X299599Y360599*
X302199Y360299*
X3048Y360599*
X307299Y361599*
X309399Y363199*
X310999Y365299*
X311999Y367799*
X312299Y370399*
X311999Y372999*
X310999Y375499*
X309399Y377599*
X307299Y379199*
X3048Y380199*
X302199Y380499*
G37*
G36*
X276799D02*
X274199Y380199D01*
X271699Y379199*
X269599Y377599*
X267999Y375499*
X266999Y372999*
X2667Y370399*
X266999Y367799*
X267999Y365299*
X269599Y363199*
X271699Y361599*
X274199Y360599*
X276799Y360299*
X2794Y360599*
X281899Y361599*
X283999Y363199*
X285599Y365299*
X286599Y367799*
X286899Y370399*
X286599Y372999*
X285599Y375499*
X283999Y377599*
X281899Y379199*
X2794Y380199*
X276799Y380499*
G37*
G36*
X251399D02*
X248799Y380199D01*
X246299Y379199*
X244199Y377599*
X242599Y375499*
X241599Y372999*
X2413Y370399*
X241599Y367799*
X242599Y365299*
X244199Y363199*
X246299Y361599*
X248799Y360599*
X251399Y360299*
X254Y360599*
X256499Y361599*
X258599Y363199*
X260199Y365299*
X261199Y367799*
X261499Y370399*
X261199Y372999*
X260199Y375499*
X258599Y377599*
X256499Y379199*
X254Y380199*
X251399Y380499*
G37*
G36*
X225999D02*
X223399Y380199D01*
X220899Y379199*
X218799Y377599*
X217199Y375499*
X216199Y372999*
X2159Y370399*
X216199Y367799*
X217199Y365299*
X218799Y363199*
X220899Y361599*
X223399Y360599*
X225999Y360299*
X2286Y360599*
X231099Y361599*
X233199Y363199*
X234799Y365299*
X235799Y367799*
X236099Y370399*
X235799Y372999*
X234799Y375499*
X233199Y377599*
X231099Y379199*
X2286Y380199*
X225999Y380499*
G37*
G36*
X456699Y358599D02*
Y354499D01*
X460799*
X460599Y355399*
X459399Y357199*
X457599Y358399*
X456699Y358599*
G37*
G36*
X454099D02*
X453199Y358399D01*
X451399Y357199*
X450199Y355399*
X449999Y354499*
X454099*
Y358599*
G37*
G36*
X460799Y351899D02*
X456699D01*
Y347799*
X457599Y347999*
X459399Y349199*
X460599Y350999*
X460799Y351899*
G37*
G36*
X454099D02*
X449999D01*
X450199Y350999*
X451399Y349199*
X453199Y347999*
X454099Y347799*
Y351899*
G37*
G36*
X910699Y342599D02*
X908399Y342299D01*
X906199Y341399*
X904399Y339899*
X904199Y339799*
Y340899*
X889199*
Y332499*
X888199Y331499*
Y340899*
X873199*
Y338499*
X866199*
Y341099*
X853199*
Y328099*
X866199*
Y330699*
X873199*
Y326299*
X882999*
X858699Y301899*
X857799Y300699*
X857499Y299199*
Y267399*
X857799Y265899*
X858699Y264699*
X886399Y236899*
X887699Y236099*
X889099Y235799*
X894999*
Y234999*
X883999*
Y238599*
X870999*
Y225599*
X883999*
Y227199*
X894999*
Y223799*
X909999*
Y233199*
X910999Y232299*
Y223799*
X915599*
Y212299*
X910999*
Y197699*
X915599*
Y188399*
X910999*
Y173799*
X915599*
Y162399*
X911999*
Y147799*
X926999*
Y162399*
X923399*
Y173799*
X925999*
Y188399*
X923399*
Y197699*
X925999*
Y212299*
X923399*
Y223799*
X925999*
Y238399*
X915799*
X911799Y242399*
X910599Y243199*
X909099Y243499*
X890699*
X865299Y268999*
Y297599*
X889899Y322199*
X889999Y322299*
X892299Y324499*
Y324599*
X893999Y326299*
X904199*
Y327399*
X904399Y327299*
X906199Y325799*
X908399Y324899*
X910699Y324599*
X912999Y324899*
X915199Y325799*
X916999Y327299*
X918499Y329099*
X919399Y331299*
X919699Y333599*
X919399Y335899*
X918499Y338099*
X916999Y339899*
X915199Y341399*
X912999Y342299*
X910699Y342599*
G37*
G36*
X850199Y341099D02*
X844999D01*
Y335899*
X850199*
Y341099*
G37*
G36*
X842399D02*
X837199D01*
Y335899*
X842399*
Y341099*
G37*
G36*
X850199Y333299D02*
X844999D01*
Y328099*
X850199*
Y333299*
G37*
G36*
X842399D02*
X837199D01*
Y328099*
X842399*
Y333299*
G37*
G36*
X784699Y330999D02*
Y326899D01*
X788799*
X788599Y327799*
X7874Y329599*
X785599Y330799*
X784699Y330999*
G37*
G36*
X782099D02*
X781199Y330799D01*
X779399Y329599*
X778199Y327799*
X777999Y326899*
X782099*
Y330999*
G37*
G36*
X788799Y324299D02*
X784699D01*
Y320199*
X785599Y320399*
X7874Y321599*
X788599Y323399*
X788799Y324299*
G37*
G36*
X782099D02*
X777999D01*
X778199Y323399*
X779399Y321599*
X781199Y320399*
X782099Y320199*
Y324299*
G37*
G36*
X806199Y315199D02*
Y311099D01*
X810299*
X810099Y311999*
X808899Y313799*
X807099Y314999*
X806199Y315199*
G37*
G36*
X803599D02*
X802699Y314999D01*
X800899Y313799*
X799699Y311999*
X799499Y311099*
X803599*
Y315199*
G37*
G36*
X810299Y308499D02*
X806199D01*
Y304399*
X807099Y304599*
X808899Y305799*
X810099Y307599*
X810299Y308499*
G37*
G36*
X803599D02*
X799499D01*
X799699Y307599*
X800899Y305799*
X802699Y304599*
X803599Y304399*
Y308499*
G37*
G36*
X597499Y306399D02*
Y302299D01*
X601599*
X601399Y303199*
X600199Y304999*
X598399Y306199*
X597499Y306399*
G37*
G36*
X594899D02*
X593999Y306199D01*
X592199Y304999*
X590999Y303199*
X590799Y302299*
X594899*
Y306399*
G37*
G36*
X709999Y303199D02*
X709099Y302999D01*
X707299Y301799*
X706099Y299999*
X705899Y299099*
X709999*
Y303199*
G37*
G36*
X648799Y301299D02*
Y297199D01*
X652899*
X652699Y298099*
X651499Y299899*
X649699Y301099*
X648799Y301299*
G37*
G36*
X646199D02*
X645299Y301099D01*
X643499Y299899*
X642299Y298099*
X642099Y297199*
X646199*
Y301299*
G37*
G36*
X601599Y299699D02*
X597499D01*
Y295599*
X598399Y295799*
X600199Y296999*
X601399Y298799*
X601599Y299699*
G37*
G36*
X594899D02*
X590799D01*
X590999Y298799*
X592199Y296999*
X593999Y295799*
X594899Y295599*
Y299699*
G37*
G36*
X716699Y296499D02*
X712599D01*
Y292399*
X713499Y292599*
X715299Y293799*
X716499Y295599*
X716699Y296499*
G37*
G36*
X709999D02*
X705899D01*
X706099Y295599*
X707299Y293799*
X709099Y292599*
X709999Y292399*
Y296499*
G37*
G36*
X652899Y294599D02*
X648799D01*
Y290499*
X649699Y290699*
X651499Y291899*
X652699Y293699*
X652899Y294599*
G37*
G36*
X646199D02*
X642099D01*
X642299Y293699*
X643499Y291899*
X645299Y290699*
X646199Y290499*
Y294599*
G37*
G36*
X911299Y312499D02*
Y286299D01*
X937499*
X937299Y289299*
X936299Y293499*
X934599Y297499*
X932299Y301199*
X929499Y304499*
X926199Y307299*
X922499Y309599*
X918499Y311299*
X914299Y312299*
X911299Y312499*
G37*
G36*
X908699D02*
X905699Y312299D01*
X901499Y311299*
X897499Y309599*
X893799Y307299*
X890499Y304499*
X887699Y301199*
X885399Y297499*
X883699Y293499*
X882699Y289299*
X882499Y286299*
X908699*
Y312499*
G37*
G36*
X141299D02*
Y286299D01*
X167499*
X167299Y289299*
X166299Y293499*
X164599Y297499*
X162299Y301199*
X159499Y304499*
X156199Y307299*
X152499Y309599*
X148499Y311299*
X144299Y312299*
X141299Y312499*
G37*
G36*
X138699D02*
X135699Y312299D01*
X131499Y311299*
X127499Y309599*
X123799Y307299*
X120499Y304499*
X117699Y301199*
X115399Y297499*
X113699Y293499*
X112699Y289299*
X112499Y286299*
X138699*
Y312499*
G37*
G36*
X568799Y288999D02*
Y284899D01*
X572899*
X572699Y285799*
X5715Y287599*
X569699Y288799*
X568799Y288999*
G37*
G36*
X566199D02*
X565299Y288799D01*
X563499Y287599*
X562299Y285799*
X562099Y284899*
X566199*
Y288999*
G37*
G36*
X287499Y284399D02*
Y280299D01*
X291599*
X291399Y281199*
X290199Y282999*
X288399Y284199*
X287499Y284399*
G37*
G36*
X284899D02*
X283999Y284199D01*
X282199Y282999*
X280999Y281199*
X280799Y280299*
X284899*
Y284399*
G37*
G36*
X572899Y282299D02*
X568799D01*
Y278199*
X569699Y278399*
X5715Y279599*
X572699Y281399*
X572899Y282299*
G37*
G36*
X566199D02*
X562099D01*
X562299Y281399*
X563499Y279599*
X565299Y278399*
X566199Y278199*
Y282299*
G37*
G36*
X627299Y279799D02*
Y275699D01*
X631399*
X631199Y276599*
X629999Y278399*
X628099Y279599*
X627299Y279799*
G37*
G36*
X624699D02*
X623799Y279599D01*
X621999Y278399*
X620799Y276599*
X620599Y275699*
X624699*
Y279799*
G37*
G36*
X291599Y277699D02*
X287499D01*
Y273599*
X288399Y273799*
X290199Y274999*
X291399Y276799*
X291599Y277699*
G37*
G36*
X284899D02*
X280799D01*
X280999Y276799*
X282199Y274999*
X283999Y273799*
X284899Y273599*
Y277699*
G37*
G36*
X738599Y276699D02*
Y272599D01*
X742699*
X742499Y273399*
X741299Y275299*
X739499Y276499*
X738599Y276699*
G37*
G36*
X735999D02*
X735099Y276499D01*
X733299Y275299*
X732099Y273399*
X731899Y272599*
X735999*
Y276699*
G37*
G36*
X367499Y271899D02*
X365499Y271499D01*
X363799Y270399*
X363399Y269699*
X363199Y270099*
X361499Y271199*
X359499Y271599*
X357499Y271199*
X355799Y270099*
X355499Y269599*
X355199Y270099*
X353499Y271199*
X352799Y271299*
Y266399*
X350199*
Y271299*
X349499Y271199*
X347799Y270099*
X347599Y269699*
X347299Y270199*
X345599Y271299*
X343599Y271699*
X341599Y271299*
X339899Y270199*
X339599Y269599*
X339199Y270199*
X337499Y271299*
X335499Y271699*
X333499Y271299*
X331799Y270199*
X331599Y269799*
X331299Y270299*
X329599Y271399*
X328899Y271499*
Y266599*
X326299*
Y271499*
X325599Y271399*
X323899Y270299*
X323499Y269499*
X322999Y270299*
X321299Y271399*
X319299Y271799*
X317299Y271399*
X315599Y270299*
X315299Y269799*
X315099Y270199*
X313399Y271299*
X311399Y271699*
X309399Y271299*
X307699Y270199*
X306999Y268999*
X306499*
Y267699*
X306199Y266499*
X306499Y265299*
Y243999*
X326199*
Y256499*
X328799*
Y243999*
X350199*
Y256499*
X352799*
Y243999*
X374199*
Y256499*
X376799*
Y243999*
X398199*
Y256499*
X400799*
Y243999*
X422199*
Y256499*
X424799*
Y243999*
X462199*
Y256499*
X464799*
Y243999*
X486199*
Y256499*
X488799*
Y243999*
X510199*
Y256499*
X512799*
Y243999*
X534199*
Y256499*
X536799*
Y243999*
X548499*
Y265399*
X548799Y266599*
X548499Y267799*
Y268999*
X548099*
X547299Y270299*
X545599Y271399*
X543599Y271799*
X541599Y271399*
X539899Y270299*
X539499Y269599*
X539199Y270199*
X537499Y271299*
X536799Y271399*
Y266499*
X534199*
Y271399*
X533499Y271299*
X531799Y270199*
X531599Y269799*
X531299Y270299*
X529599Y271399*
X527599Y271799*
X525599Y271399*
X523899Y270299*
X523499Y269599*
X523099Y270199*
X521399Y271299*
X519399Y271699*
X517399Y271299*
X515699Y270199*
X515399Y269699*
X515199Y270099*
X513499Y271199*
X512799Y271299*
Y266399*
X510199*
Y271299*
X509499Y271199*
X507799Y270099*
X507499Y269499*
X507099Y270199*
X505399Y271299*
X503399Y271699*
X501399Y271299*
X499699Y270199*
X499399Y269699*
X499199Y270199*
X497499Y271299*
X495499Y271699*
X493499Y271299*
X491799Y270199*
X491499Y269599*
X491199Y270099*
X489499Y271199*
X488799Y271299*
Y266399*
X486199*
Y271299*
X485499Y271199*
X483799Y270099*
X483599Y269699*
X483299Y270199*
X481599Y271299*
X479599Y271699*
X477599Y271299*
X475899Y270199*
X475599Y269599*
X475199Y270199*
X473499Y271299*
X471499Y271699*
X469499Y271299*
X467799Y270199*
X467499Y269699*
X467199Y270299*
X465499Y271399*
X464799Y271499*
Y266599*
X462199*
Y271499*
X461499Y271399*
X459799Y270299*
X459499Y269699*
X459199Y270199*
X457499Y271299*
X455499Y271699*
X453499Y271299*
X451799Y270199*
X451499Y269699*
X451199Y270199*
X449499Y271299*
X447499Y271699*
X445499Y271299*
X443799Y270199*
X443399Y269599*
X443199Y269999*
X441499Y271099*
X439499Y271499*
X437499Y271099*
X435799Y269999*
X435599Y269599*
X435199Y270199*
X433499Y271299*
X431499Y271699*
X429499Y271299*
X427799Y270199*
X427399Y269599*
X427099Y270199*
X425399Y271299*
X424699Y271399*
Y266499*
X422099*
Y271399*
X421399Y271299*
X419699Y270199*
X419599Y269899*
X419399Y270299*
X417699Y271399*
X415699Y271799*
X413699Y271399*
X411999Y270299*
X411599Y269599*
X411199Y270199*
X409499Y271299*
X407499Y271699*
X405499Y271299*
X403799Y270199*
X403599Y269799*
X403299Y270299*
X401599Y271399*
X400899Y271499*
Y266599*
X398299*
Y271499*
X397599Y271399*
X395899Y270299*
X395499Y269599*
X395199Y270199*
X393499Y271299*
X391499Y271699*
X389499Y271299*
X387799Y270199*
X387499Y269699*
X387199Y270199*
X385499Y271299*
X383499Y271699*
X381499Y271299*
X379799Y270199*
X379599Y269799*
X379199Y270399*
X377499Y271499*
X376799Y271599*
Y2667*
X374199*
Y271599*
X373499Y271499*
X371799Y270399*
X371499Y269899*
X371199Y270399*
X369499Y271499*
X367499Y271899*
G37*
G36*
X631399Y273099D02*
X627299D01*
Y268999*
X628099Y269199*
X629999Y270399*
X631199Y272199*
X631399Y273099*
G37*
G36*
X624699D02*
X620599D01*
X620799Y272199*
X621999Y270399*
X623799Y269199*
X624699Y268999*
Y273099*
G37*
G36*
X742699Y269999D02*
X738599D01*
Y265899*
X739499Y266099*
X741299Y267299*
X742499Y269099*
X742699Y269999*
G37*
G36*
X735999D02*
X731899D01*
X732099Y269099*
X733299Y267299*
X735099Y266099*
X735999Y265899*
Y269999*
G37*
G36*
X937499Y283699D02*
X911299D01*
Y257499*
X914299Y257699*
X918499Y258699*
X922499Y260399*
X926199Y262699*
X929499Y265499*
X932299Y268799*
X934599Y272499*
X936299Y276499*
X937299Y280699*
X937499Y283699*
G37*
G36*
X908699D02*
X882499D01*
X882699Y280699*
X883699Y276499*
X885399Y272499*
X887699Y268799*
X890499Y265499*
X893799Y262699*
X897499Y260399*
X901499Y258699*
X905699Y257699*
X908699Y257499*
Y283699*
G37*
G36*
X167499D02*
X141299D01*
Y257499*
X144299Y257699*
X148499Y258699*
X152499Y260399*
X156199Y262699*
X159499Y265499*
X162299Y268799*
X164599Y272499*
X166299Y276499*
X167299Y280699*
X167499Y283699*
G37*
G36*
X138699D02*
X112499D01*
X112699Y280699*
X113699Y276499*
X115399Y272499*
X117699Y268799*
X120499Y265499*
X123799Y262699*
X127499Y260399*
X131499Y258699*
X135699Y257699*
X138699Y257499*
Y283699*
G37*
G36*
X286499Y261099D02*
X284799Y260899D01*
X283199Y260199*
X281799Y259199*
X280799Y257799*
X280099Y256199*
X279899Y254499*
X280099Y252799*
X280799Y251199*
X281799Y249799*
X283199Y248799*
X284799Y248099*
X286499Y247899*
X288199Y248099*
X289799Y248799*
X291199Y249799*
X292199Y251199*
X292899Y252799*
X293099Y254499*
X292899Y256199*
X292199Y257799*
X291199Y259199*
X289799Y260199*
X288199Y260899*
X286499Y261099*
G37*
G36*
X568499Y263099D02*
X566299Y262799D01*
X564199Y261999*
X562399Y260599*
X560999Y258799*
X560199Y256699*
X559899Y254499*
X560199Y252299*
X560999Y250199*
X562399Y248399*
X564199Y246999*
X566299Y246199*
X568499Y245899*
X570699Y246199*
X572799Y246999*
X574599Y248399*
X575999Y250199*
X576799Y252299*
X577099Y254499*
X576799Y256699*
X575999Y258799*
X574599Y260599*
X572799Y261999*
X570699Y262799*
X568499Y263099*
G37*
G36*
X724999Y255499D02*
X719299D01*
Y240299*
X724999*
Y255499*
G37*
G36*
X716699D02*
X710999D01*
Y240299*
X716699*
Y255499*
G37*
G36*
X568499Y241099D02*
X566799Y240899D01*
X565199Y240199*
X563799Y239199*
X562799Y237799*
X562099Y236199*
X561899Y234499*
X562099Y232799*
X562799Y231199*
X563799Y229799*
X565199Y228799*
X566799Y228099*
X568499Y227899*
X570199Y228099*
X571799Y228799*
X573199Y229799*
X574199Y231199*
X574899Y232799*
X575099Y234499*
X574899Y236199*
X574199Y237799*
X573199Y239199*
X571799Y240199*
X570199Y240899*
X568499Y241099*
G37*
G36*
X286499Y243099D02*
X284299Y242799D01*
X282199Y241999*
X280399Y240599*
X278999Y238799*
X278199Y236699*
X277899Y234499*
X278199Y232299*
X278999Y230199*
X280399Y228399*
X282199Y226999*
X284299Y226199*
X286499Y225899*
X288699Y226199*
X290799Y226999*
X292599Y228399*
X293999Y230199*
X294799Y232299*
X295099Y234499*
X294799Y236699*
X293999Y238799*
X292599Y240599*
X290799Y241999*
X288699Y242799*
X286499Y243099*
G37*
G36*
X724999Y237699D02*
X719299D01*
Y222499*
X724999*
Y237699*
G37*
G36*
X716699D02*
X710999D01*
Y222499*
X716699*
Y237699*
G37*
G36*
X648299Y280299D02*
X645899Y279799D01*
X643899Y278499*
X642599Y276499*
X642099Y274099*
Y255499*
X640999*
Y222499*
X654999*
Y255499*
X654499*
Y274099*
X653999Y276499*
X652699Y278499*
X650699Y279799*
X648299Y280299*
G37*
G36*
X770499Y243999D02*
X756799D01*
Y217799*
X770499*
Y243999*
G37*
G36*
X754199D02*
X740499D01*
Y217799*
X754199*
Y243999*
G37*
G36*
X909999Y212299D02*
X894999D01*
Y208999*
X883999*
Y211599*
X870999*
Y198599*
X883999*
Y201199*
X894999*
Y197699*
X909999*
Y212299*
G37*
G36*
X570899Y212499D02*
Y208399D01*
X574999*
X574799Y209299*
X573599Y211099*
X571799Y212299*
X570899Y212499*
G37*
G36*
X568299D02*
X567399Y212299D01*
X565599Y211099*
X564399Y209299*
X564199Y208399*
X568299*
Y212499*
G37*
G36*
X285999Y209499D02*
Y205399D01*
X290099*
X289899Y206299*
X288699Y208099*
X286899Y209299*
X285999Y209499*
G37*
G36*
X283399D02*
X282499Y209299D01*
X280699Y208099*
X279499Y206299*
X279299Y205399*
X283399*
Y209499*
G37*
G36*
X574999Y205799D02*
X570899D01*
Y201699*
X571799Y201899*
X573599Y203099*
X574799Y204899*
X574999Y205799*
G37*
G36*
X568299D02*
X564199D01*
X564399Y204899*
X565599Y203099*
X567399Y201899*
X568299Y201699*
Y205799*
G37*
G36*
X699999Y255499D02*
X685999D01*
Y222499*
X687899*
Y210599*
X678099Y200899*
Y222499*
X679999*
Y255499*
X665999*
Y222499*
X667899*
Y201299*
X667099Y200599*
X666799Y202899*
X665899Y205099*
X664399Y206899*
X662599Y208399*
X6604Y209299*
X657999Y209599*
X655599Y209299*
X653399Y208399*
X651599Y206899*
X650099Y205099*
X649199Y202899*
X648899Y200499*
X649199Y198099*
X650099Y195899*
X651599Y194099*
X653399Y192599*
X655599Y191699*
X656399Y191599*
X625499*
Y243999*
X595499*
Y191599*
X535999*
X527699Y199999*
X548499*
Y224999*
X547699*
X546999Y226199*
X545299Y227299*
X543299Y227699*
X541299Y227299*
X539599Y226199*
X539399Y225799*
X539199Y226199*
X537499Y227299*
X535499Y227699*
X533499Y227299*
X531799Y226199*
X531499Y225599*
X531199Y226099*
X529499Y227199*
X528799Y227299*
Y222399*
X526199*
Y227299*
X525499Y227199*
X523799Y226099*
X523499Y225599*
X523099Y226299*
X521399Y227399*
X519399Y227799*
X517399Y227399*
X515699Y226299*
X515399Y225799*
X515099Y226299*
X513399Y227399*
X511399Y227799*
X509399Y227399*
X507699Y226299*
X507299Y225599*
X507099Y225999*
X505399Y227099*
X504699Y227199*
Y222299*
X502099*
Y227199*
X501399Y227099*
X499699Y225999*
X499499Y225599*
X499199Y226199*
X497499Y227299*
X495499Y227699*
X493499Y227299*
X491799Y226199*
X491499Y225599*
X491099Y226199*
X489399Y227299*
X487399Y227699*
X485399Y227299*
X483699Y226199*
X483499Y225699*
X483199Y226199*
X481499Y227299*
X480799Y227399*
Y222499*
X478199*
Y227399*
X477499Y227299*
X475799Y226199*
X475499Y225599*
X475099Y226299*
X473399Y227399*
X471399Y227799*
X469399Y227399*
X467699Y226299*
X467499Y225899*
X467199Y226399*
X465499Y227499*
X463499Y227899*
X461499Y227499*
X459799Y226399*
X459399Y225699*
X459099Y226299*
X457399Y227399*
X456699Y227499*
Y222599*
X454099*
Y227499*
X453399Y227399*
X451699Y226299*
X451399Y225799*
X451199Y226199*
X449499Y227299*
X447499Y227699*
X445499Y227299*
X443799Y226199*
X443599Y225799*
X443299Y226299*
X441599Y227399*
X439599Y227799*
X437599Y227399*
X435899Y226299*
X435599Y225699*
X435299Y226199*
X433599Y227299*
X432899Y227399*
Y222499*
X430299*
Y227399*
X429599Y227299*
X427899Y226199*
X427599Y225599*
X427199Y226199*
X425499Y227299*
X423499Y227699*
X421499Y227299*
X419799Y226199*
X419499Y225699*
X419199Y226299*
X417499Y227399*
X415499Y227799*
X413499Y227399*
X411799Y226299*
X411499Y225699*
X411199Y226199*
X409499Y227299*
X408799Y227399*
Y222499*
X406199*
Y227399*
X405499Y227299*
X403799Y226199*
X403499Y225599*
X403099Y226199*
X401399Y227299*
X399399Y227699*
X397399Y227299*
X395699Y226199*
X395299Y225599*
X395099Y225999*
X393399Y227099*
X391399Y227499*
X389399Y227099*
X387699Y225999*
X387599Y225799*
X387399Y226199*
X385699Y227299*
X384999Y227399*
Y222499*
X382399*
Y227399*
X381699Y227299*
X379999Y226199*
X379699Y225599*
X379299Y226199*
X377599Y227299*
X375599Y227699*
X373599Y227299*
X371899Y226199*
X371599Y225699*
X371299Y226199*
X369599Y227299*
X367599Y227699*
X365599Y227299*
X363899Y226199*
X363499Y225499*
X363199Y226099*
X361499Y227199*
X360799Y227299*
Y222399*
X358199*
Y227299*
X357499Y227199*
X355799Y226099*
X3556Y225699*
X355299Y226299*
X353599Y227399*
X351599Y227799*
X349599Y227399*
X347899Y226299*
X347599Y225799*
X347399Y226199*
X345699Y227299*
X343699Y227699*
X341699Y227299*
X339999Y226199*
X339599Y225499*
X339299Y226099*
X337599Y227199*
X335599Y227599*
X333599Y227199*
X331899Y226099*
X331499Y225499*
X331199Y226099*
X329499Y227199*
X327499Y227599*
X325499Y227199*
X323799Y226099*
X323599Y225699*
X323299Y226199*
X321599Y227299*
X319599Y227699*
X317599Y227299*
X315899Y226199*
X315599Y225599*
X315199Y226199*
X313499Y227299*
X311499Y227699*
X309499Y227299*
X307799Y226199*
X307099Y224999*
X306499*
Y223199*
X306299Y222499*
X306499Y221799*
Y199999*
X358199*
Y212499*
X360799*
Y199999*
X382199*
Y212499*
X384799*
Y199999*
X406199*
Y212499*
X408799*
Y199999*
X430199*
Y212499*
X432799*
Y199999*
X454199*
Y212499*
X456799*
Y199999*
X478199*
Y212499*
X480799*
Y199999*
X502199*
Y212499*
X504799*
Y199999*
X506399*
Y198199*
X506799Y196199*
X507899Y194599*
X527199Y175299*
X528799Y174199*
X530799Y173799*
X663399*
X665399Y174199*
X666999Y175299*
X696599Y204899*
X697699Y206599*
X698099Y208499*
Y222499*
X699999*
Y255499*
G37*
G36*
X290099Y202799D02*
X285999D01*
Y198699*
X286899Y198899*
X288699Y200099*
X289899Y201899*
X290099Y202799*
G37*
G36*
X283399D02*
X279299D01*
X279499Y201899*
X280699Y200099*
X282499Y198899*
X283399Y198699*
Y202799*
G37*
G36*
X707999Y209599D02*
X705599Y209299D01*
X703399Y208399*
X701599Y206899*
X700099Y205099*
X699199Y202899*
X698899Y200499*
X699199Y198099*
X700099Y195899*
X701599Y194099*
X703399Y192599*
X705599Y191699*
X707999Y191399*
X710399Y191699*
X712599Y192599*
X714399Y194099*
X715899Y195899*
X716799Y198099*
X717099Y200499*
X716799Y202899*
X715899Y205099*
X714399Y206899*
X712599Y208399*
X710399Y209299*
X707999Y209599*
G37*
G36*
X770499Y215199D02*
X756799D01*
Y188999*
X770499*
Y215199*
G37*
G36*
X754199D02*
X740499D01*
Y188999*
X754199*
Y215199*
G37*
G36*
X882999Y188599D02*
X869999D01*
Y175599*
X882999*
Y177199*
X894999*
Y173799*
X909999*
Y188399*
X894999*
Y184999*
X882999*
Y188599*
G37*
G36*
X910999Y162399D02*
X895999D01*
Y158999*
X882999*
Y161599*
X869999*
Y148599*
X882999*
Y151199*
X895999*
Y147799*
X910999*
Y162399*
G37*
G36*
X937999Y117099D02*
Y112999D01*
X942099*
X941999Y113899*
X940699Y115699*
X938899Y116899*
X937999Y117099*
G37*
G36*
X935499D02*
X934599Y116899D01*
X932799Y115699*
X931499Y113899*
X931399Y112999*
X935499*
Y117099*
G37*
G36*
X110099Y113499D02*
Y109399D01*
X114199*
X113999Y110299*
X112799Y112099*
X110999Y113299*
X110099Y113499*
G37*
G36*
X107499D02*
X106599Y113299D01*
X104799Y112099*
X103599Y110299*
X103399Y109399*
X107499*
Y113499*
G37*
G36*
X942099Y110399D02*
X937999D01*
Y106299*
X938899Y106499*
X940699Y107699*
X941999Y109499*
X942099Y110399*
G37*
G36*
X935499D02*
X931399D01*
X931499Y109499*
X932799Y107699*
X934599Y106499*
X935499Y106299*
Y110399*
G37*
G36*
X114199Y106799D02*
X110099D01*
Y102699*
X110999Y102899*
X112799Y104099*
X113999Y105899*
X114199Y106799*
G37*
G36*
X107499D02*
X103399D01*
X103599Y105899*
X104799Y104099*
X106599Y102899*
X107499Y102699*
Y106799*
G37*
%LNio-testing-mezzanine-3*%
%LPD*%
G36*
X547499Y595699D02*
Y596299D01*
X547899*
X547499Y595699*
G37*
G36*
X546699Y574999D02*
X534899D01*
Y584999*
X546699*
Y574999*
G37*
G36*
X526499D02*
X514699D01*
Y584999*
X526499*
Y574999*
G37*
G36*
X506299D02*
X500199D01*
X499999Y575099*
X499799Y574999*
X495099*
Y584999*
X506299*
Y574999*
G37*
G36*
X486699D02*
X474899D01*
Y584999*
X486699*
Y574999*
G37*
G36*
X466499D02*
X453999D01*
Y584999*
X466499*
Y574999*
G37*
G36*
X446199D02*
X435099D01*
Y584999*
X446199*
Y574999*
G37*
G36*
X426699D02*
X415099D01*
Y584999*
X426699*
Y574999*
G37*
G36*
X407299D02*
X395099D01*
Y584999*
X407299*
Y574999*
G37*
G36*
X386699D02*
X375099D01*
Y584999*
X386699*
Y574999*
G37*
G36*
X367299D02*
X354199D01*
Y584999*
X367299*
Y574999*
G37*
G36*
X345799D02*
X335099D01*
Y584999*
X345799*
Y574999*
G37*
G36*
X326699D02*
X315099D01*
Y584999*
X326699*
Y574999*
G37*
G36*
X306699D02*
X298699D01*
X298499Y575099*
X298299Y574999*
X295099*
Y584999*
X306699*
Y574999*
G37*
G36*
X286699D02*
X280099D01*
X279899Y575099*
X279699Y574999*
X275099*
Y584999*
X286699*
Y574999*
G37*
G36*
X2667D02*
X255099D01*
Y584999*
X2667*
Y574999*
G37*
G36*
X246699D02*
X235099D01*
Y584999*
X246699*
Y574999*
G37*
G36*
X226699D02*
X215099D01*
Y584999*
X226699*
Y574999*
G37*
G36*
X546999Y539499D02*
X547099Y539199D01*
X547999Y537899*
X558199Y527699*
X559099Y526999*
X559299Y526899*
X546599*
X534899Y538599*
Y539999*
X546899*
X546999Y539499*
G37*
G36*
X526499Y536899D02*
X526799Y535599D01*
Y535299*
X527799Y533999*
X540599Y521099*
X536499*
X517699Y539999*
X526499*
Y536899*
G37*
G36*
X506599Y539899D02*
Y539599D01*
X507599Y538299*
X530799Y514999*
X516999*
X495099Y536899*
Y539999*
X506599*
Y539899*
G37*
G36*
X486699Y535199D02*
X486999Y533899D01*
X487099Y533599*
X487999Y532199*
X510799Y509399*
X502899*
X474899Y537399*
Y539999*
X486699*
Y535199*
G37*
G36*
X466499Y535699D02*
X466799Y534399D01*
Y534099*
X467799Y532799*
X498299Y502299*
X498799Y501899*
X485899*
X453999Y533799*
Y539999*
X466499*
Y535699*
G37*
G36*
X446199Y532199D02*
X446499Y530699D01*
X447399Y529499*
X480899Y495899*
X477899*
X435099Y538699*
Y539999*
X446199*
Y532199*
G37*
G36*
X636299Y487599D02*
X624199D01*
X586099Y525599*
X584999Y526399*
X597499*
X636299Y487599*
G37*
G36*
X612399D02*
X601699D01*
X570799Y518499*
X581499*
X612399Y487599*
G37*
G36*
X509699D02*
X497399D01*
X490899Y494099*
X503199*
X509699Y487599*
G37*
G36*
X407599Y539299D02*
X408399Y538099D01*
X458899Y487599*
X445899*
X395099Y538399*
Y539999*
X407499*
X407599Y539299*
G37*
G36*
X367299Y529999D02*
X367599Y528499D01*
X368399Y527299*
X408099Y487599*
X394699*
Y486999*
X354199Y527499*
Y539999*
X367299*
Y529999*
G37*
G36*
X345799Y525799D02*
X346099Y524499D01*
Y524199*
X347099Y522899*
X382299Y487599*
X369299*
Y486999*
X335099Y521199*
Y539999*
X345799*
Y525799*
G37*
G36*
X326699Y519499D02*
X326999Y518199D01*
X327099Y517899*
X327999Y516499*
X356899Y487599*
X343899*
Y486999*
X315099Y515799*
Y539999*
X326699*
Y519499*
G37*
G36*
X306699Y514099D02*
X306999Y512799D01*
X307099Y512499*
X307999Y511099*
X331499Y487599*
X318499*
Y486999*
X295099Y510399*
Y539999*
X306699*
Y514099*
G37*
G36*
X560099Y487599D02*
X547099D01*
Y486999*
X527499Y506599*
X541099*
X560099Y487599*
G37*
G36*
X286699Y508699D02*
X286999Y507399D01*
X287099Y507099*
X287999Y505699*
X306099Y487599*
X293099*
Y486999*
X275099Y504999*
Y539999*
X286699*
Y508699*
G37*
G36*
X2667Y503299D02*
X266999Y501999D01*
X267099Y501699*
X267999Y500299*
X280699Y487599*
X267699*
Y486999*
X255099Y499599*
Y539999*
X2667*
Y503299*
G37*
G36*
X246699Y497899D02*
X246999Y496599D01*
X247099Y496299*
X247999Y494899*
X255299Y487599*
X242299*
Y486999*
X235099Y494199*
Y539999*
X246699*
Y497899*
G37*
G36*
X512999Y500999D02*
X521299D01*
X534699Y487599*
X521699*
Y486599*
X507499Y500699*
X507099Y500999*
X512799*
X512999*
G37*
G36*
X426699Y536999D02*
X426999Y535699D01*
X427099Y535399*
X427999Y534099*
X473299Y488799*
X474599Y487799*
X475699Y487599*
X470899*
Y486599*
X417499Y539999*
X426699*
Y536999*
G37*
G36*
X386699Y536599D02*
X387099Y534999D01*
X387999Y533699*
X388199Y533499*
X434099Y487599*
X420099*
Y486599*
X375099Y531599*
Y539999*
X386699*
Y536599*
G37*
G36*
X226699Y492499D02*
X226999Y491199D01*
X227099Y490899*
X227999Y489499*
X229899Y487599*
X216899*
Y486599*
X215099Y488399*
Y539999*
X226699*
Y492499*
G37*
G36*
X521699Y475599D02*
Y462099D01*
X513299Y470499*
Y483999*
X521699Y475599*
G37*
G36*
X572499Y475199D02*
Y461599D01*
X564099Y469999*
Y483599*
X572499Y475199*
G37*
G36*
X547099D02*
Y461199D01*
X538699Y469599*
Y483599*
X547099Y475199*
G37*
G36*
X496299Y476899D02*
Y461199D01*
X487899Y469599*
Y485299*
X496299Y476899*
G37*
G36*
X587299Y434999D02*
X573299D01*
X550699Y457599*
X564099*
Y458199*
X587299Y434999*
G37*
G36*
X562299D02*
X548699D01*
X548499Y435299*
X526199Y457599*
X538699*
Y458599*
X562299Y434999*
G37*
G36*
X536999D02*
X522499D01*
X499899Y457599*
X513299*
Y458699*
X536999Y434999*
G37*
G36*
X592099Y430199D02*
Y405799D01*
X592399Y404499*
X592499Y404199*
X593399Y402899*
X655799Y340399*
X642199*
X577599Y404999*
X589499*
Y432799*
X592099Y430199*
G37*
G36*
X567299Y429999D02*
Y405899D01*
X567599Y404399*
X568399Y403199*
X636299Y335399*
X621899*
X552299Y404999*
X564099*
Y433199*
X567299Y429999*
G37*
G36*
X541299Y430699D02*
Y405799D01*
X541599Y404499*
X541699Y404199*
X542599Y402899*
X615699Y329699*
X602099*
X526799Y404999*
X538699*
Y433299*
X541299Y430699*
G37*
G36*
X898599Y435699D02*
X876599D01*
Y437699*
X898599*
Y435699*
G37*
G36*
X791599Y434999D02*
X774099D01*
X772499Y434699*
X772099Y434399*
X771199Y433699*
X735399Y397999*
X716599*
X717299Y398099*
X718599Y398999*
X757399Y437699*
X791599*
Y434999*
G37*
G54D10*
X799099Y489799D03*
X869099D03*
X799099Y548799D03*
X869099D03*
X799099Y430799D03*
X869099D03*
X8001Y370799D03*
X870099D03*
G54D11*
X920099Y547799D03*
X904099D03*
X922099Y490799D03*
X906099D03*
X921099Y368799D03*
X905099D03*
X918499Y231099D03*
X902499D03*
X922099Y4318D03*
X906099D03*
X918499Y204999D03*
X902499D03*
X896699Y333599D03*
X880699D03*
X918499Y181099D03*
X902499D03*
X919499Y155099D03*
X903499D03*
G54D12*
X199999Y602499D03*
Y557499D03*
X219999Y602499D03*
Y557499D03*
X239999Y602499D03*
Y557499D03*
X259999Y602499D03*
Y557499D03*
X279999Y602499D03*
Y557499D03*
X299999Y602499D03*
Y557499D03*
X319999Y602499D03*
Y557499D03*
X339999Y602499D03*
Y557499D03*
X359999Y602499D03*
Y557499D03*
X379999Y602499D03*
Y557499D03*
X399999Y602499D03*
Y557499D03*
X419999Y602499D03*
Y557499D03*
X439999Y602499D03*
Y557499D03*
X459999Y602499D03*
Y557499D03*
X479999Y602499D03*
Y557499D03*
X499999Y602499D03*
Y557499D03*
X519999Y602499D03*
Y557499D03*
X539999Y602499D03*
Y557499D03*
X559999Y602499D03*
Y557499D03*
X579999Y602499D03*
Y557499D03*
G54D13*
X543499Y256499D03*
X535499D03*
X527499D03*
X519499D03*
X511499D03*
X503499D03*
X495499D03*
X487499D03*
X479499D03*
X471499D03*
X463499D03*
X455499D03*
X447499D03*
X439499D03*
X431499D03*
X423499D03*
X415499D03*
X407499D03*
X399499D03*
X391499D03*
X383499D03*
X375499D03*
X367499D03*
X359499D03*
X351499D03*
X343499D03*
X335499D03*
X327499D03*
X319499D03*
X311499Y212499D03*
X543499D03*
X535499D03*
X527499D03*
X519499D03*
X511499D03*
X503499D03*
X495499D03*
X487499D03*
X479499D03*
X471499D03*
X463499D03*
X455499D03*
X447499D03*
X439499D03*
X431499D03*
X423499D03*
X415499D03*
X407499D03*
X399499D03*
X391499D03*
X383499D03*
X375499D03*
X367499D03*
X359499D03*
X351499D03*
X343499D03*
X335499D03*
X327499D03*
X319499D03*
X311499Y256499D03*
G54D14*
X860499Y155099D03*
X876499D03*
X859699Y334599D03*
X843699D03*
X877499Y232099D03*
X861499D03*
X877499Y205099D03*
X861499D03*
X876499Y182099D03*
X860499D03*
G54D15*
X755499Y216499D03*
X610499D03*
G54D16*
X647999Y238999D03*
X672999D03*
X692999D03*
X717999D03*
G54D17*
X199999Y472599D03*
Y419999D03*
X225399Y472599D03*
Y419999D03*
X250799Y472599D03*
Y419999D03*
X276199Y472599D03*
Y419999D03*
X301599Y472599D03*
Y419999D03*
X326999Y472599D03*
Y419999D03*
X352399Y472599D03*
Y419999D03*
X377799Y472599D03*
Y419999D03*
X403199Y472599D03*
Y419999D03*
X428599Y472599D03*
Y419999D03*
X453999Y472599D03*
Y419999D03*
X479399Y472599D03*
Y419999D03*
X504799Y472599D03*
Y419999D03*
X530199Y472599D03*
Y419999D03*
X555599Y472599D03*
Y419999D03*
X580999Y472599D03*
Y419999D03*
X606399Y472599D03*
Y419999D03*
X631799Y472599D03*
Y419999D03*
X657199Y472599D03*
Y419999D03*
X682599Y472599D03*
Y419999D03*
G54D18*
X784499Y386399D02*
X8001Y370799D01*
X774099Y430799D02*
X799099D01*
X654999Y393799D02*
X737099D01*
X774099Y430799*
X643499Y386399D02*
X784499D01*
X711399Y331199D02*
X860499Y182099D01*
X620099Y331199D02*
X711399D01*
X751699Y341899D02*
X861499Y232099D01*
X660199Y341899D02*
X751699D01*
X504799Y472599D02*
X505299D01*
X545499Y432399*
Y405799D02*
Y432399D01*
Y405799D02*
X620099Y331199D01*
X596299Y405799D02*
X660199Y341899D01*
X555599Y472599D02*
X596299Y431899D01*
Y405799D02*
Y431899D01*
X799099Y489799D02*
X815899Y506599D01*
X816199*
X782099Y549999D02*
X797899D01*
X352899Y420499D02*
Y429199D01*
X301499Y427499D02*
X301599Y427399D01*
X275499Y422699D02*
Y428499D01*
Y422699D02*
X277199Y420999D01*
X249799Y426399D02*
X250799Y425399D01*
X222199Y428999D02*
X225399Y425799D01*
X501199Y505199D02*
X512899D01*
X470699Y535699D02*
X501199Y505199D01*
X470699Y535699D02*
Y593199D01*
X487399Y491699D02*
X504799Y474299D01*
X476199Y491699D02*
X487399D01*
X430899Y536999D02*
X476199Y491699D01*
X599199Y530599D02*
X657199Y472599D01*
X561099Y530599D02*
X599199D01*
X550899Y540799D02*
X561099Y530599D01*
X550899Y540799D02*
Y593399D01*
X559999Y602499*
X542799Y510799D02*
X580999Y472599D01*
X566499Y516899D02*
X606399Y476999D01*
X534799Y516899D02*
X566499D01*
X510499Y541199D02*
X534799Y516899D01*
X583199Y522699D02*
X631799Y474099D01*
X544899Y522699D02*
X583199D01*
X530699Y536899D02*
X544899Y522699D01*
X530699Y536899D02*
Y593199D01*
X510499Y541199D02*
Y592999D01*
X515299Y510799D02*
X542799D01*
X522999Y505199D02*
X555599Y472599D01*
X512999Y505199D02*
X522999D01*
X512899D02*
X512999D01*
X490899Y535199D02*
X515299Y510799D01*
X530699Y593199D02*
X539999Y602499D01*
X606399Y472599D02*
Y476999D01*
X510499Y592999D02*
X519999Y602499D01*
X490899Y535199D02*
Y593399D01*
X499999Y602499*
X470699Y593199D02*
X479999Y602499D01*
X504799Y472599D02*
Y474299D01*
X430899Y536999D02*
Y593399D01*
X439999Y602499*
X390899Y536599D02*
Y593399D01*
Y536599D02*
X390999D01*
X453999Y473599*
Y472599D02*
Y473599D01*
X390899Y593399D02*
X399999Y602499D01*
X349999Y525799D02*
X403199Y472599D01*
X349999Y525799D02*
Y592499D01*
X359999Y602499*
X330899Y519499D02*
X377799Y472599D01*
X330899Y519499D02*
Y593399D01*
X339999Y602499*
X310899Y514099D02*
X352399Y472599D01*
X310899Y514099D02*
Y593399D01*
X319999Y602499*
X290899Y508699D02*
X326999Y472599D01*
X290899Y508699D02*
Y593399D01*
X299999Y602499*
X270899Y503299D02*
X301599Y472599D01*
X270899Y503299D02*
Y593399D01*
X279999Y602499*
X250899Y497899D02*
X276199Y472599D01*
X250899Y497899D02*
Y593399D01*
X259999Y602499*
X230899Y492499D02*
X250799Y472599D01*
X230899Y492499D02*
Y593399D01*
X239999Y602499*
G54D19*
X755799Y441599D02*
X766599D01*
X889499Y327299D02*
X895799Y333599D01*
X889499Y327299D02*
D01*
X887299Y324999D02*
X889499Y327299D01*
X887199Y324999D02*
X887299D01*
X861399Y299199D02*
X887199Y324999D01*
X895799Y333599D02*
X910699D01*
X861399Y267399D02*
Y299199D01*
X889099Y239699D02*
X909099D01*
X861399Y267399D02*
X889099Y239699D01*
X919499Y155099D02*
Y229199D01*
X909099Y239699D02*
X919499Y229199D01*
X715799Y401699D02*
X755799Y441599D01*
X645499Y401699D02*
X715799D01*
X636699Y410499D02*
X645499Y401699D01*
X636699Y410499D02*
Y430999D01*
X921099Y432799D02*
Y546799D01*
Y368799D02*
Y432799D01*
X922099Y4318*
X912299Y441599D02*
X921099Y432799D01*
X635Y419999D02*
Y429299D01*
X766599Y441599D02*
X912299D01*
X635Y429299D02*
X636699Y430999D01*
X631799Y419999D02*
X635D01*
X860499Y155099D02*
Y161899D01*
X696599Y325799D02*
X860499Y161899D01*
X600499Y325799D02*
X696599D01*
X479399Y472599D02*
X520399Y431599D01*
Y405899D02*
Y431599D01*
Y405899D02*
X600499Y325799D01*
X730099Y336499D02*
X861499Y205099D01*
X640599Y336499D02*
X730099D01*
X530199Y472599D02*
X571199Y431599D01*
Y405899D02*
Y431599D01*
Y405899D02*
X640599Y336499D01*
X920099Y547799D02*
X921099Y546799D01*
X504799Y497999D02*
X530199Y472599D01*
X484299Y497999D02*
X504799D01*
X450099Y532199D02*
X484299Y497999D01*
X450099Y532199D02*
Y592599D01*
X459999Y602499*
X411199Y540799D02*
Y593699D01*
Y540799D02*
X479399Y472599D01*
X411199Y593699D02*
X419999Y602499D01*
X371199Y529999D02*
X428599Y472599D01*
X371199Y529999D02*
Y593699D01*
X379999Y602499*
X211199Y486799D02*
X225399Y472599D01*
X211199Y486799D02*
Y593699D01*
X219999Y602499*
X869099Y548799D02*
X903099D01*
X869099Y489799D02*
X905099D01*
X870099Y4318D02*
X906099D01*
X870099Y370799D02*
X903099D01*
X896699Y333599D02*
X910699D01*
X876499Y155099D02*
X903499D01*
X877499Y181099D02*
X902499D01*
X877499Y205099D02*
X902399D01*
X878499Y231099D02*
X902499D01*
X859699Y334599D02*
X879699D01*
G54D20*
X539999Y602499D02*
X559999D01*
X648299Y239299D02*
Y274099D01*
G54D21*
X511499Y198199D02*
Y212499D01*
Y198199D02*
X530799Y178899D01*
X663399*
X519499Y200899D02*
Y212499D01*
Y200899D02*
X533899Y186499D01*
X660299*
X672999Y199199D02*
Y238999D01*
X660299Y186499D02*
X672999Y199199D01*
X663399Y178899D02*
X692999Y208499D01*
Y238999*
G54D22*
X568499Y234499D03*
X286499Y254499D03*
G54D23*
X286499Y234499D03*
X568499Y254499D03*
G54D24*
X139999Y284999D03*
X909999D03*
X139999Y599999D03*
G54D25*
X909999Y599999D03*
G54D26*
X200599Y370399D03*
X225999D03*
X251399D03*
X276799D03*
X302199D03*
G54D27*
X327599Y370399D03*
G54D28*
X657999Y200499D03*
X707999D03*
G54D29*
X669899Y446099D03*
X212699Y446299D03*
G54D30*
X650199Y368099D03*
X649599Y448499D03*
X659699Y568099D03*
X658399Y619699D03*
X388499Y444199D03*
X455399Y353199D03*
X451499Y387099D03*
X567499Y283599D03*
X569599Y207099D03*
X284699Y204099D03*
X286199Y278999D03*
X596199Y300999D03*
X625999Y274399D03*
X647499Y295899D03*
X804899Y309799D03*
X737299Y271299D03*
X711299Y297799D03*
X783399Y325599D03*
X832699Y371799D03*
X835899Y547599D03*
X835299Y483099D03*
X833999Y427399D03*
X940199Y457899D03*
X111499Y433099D03*
X936699Y111699D03*
X108799Y108099D03*
X648299Y274099D03*
X654999Y393799D03*
X643499Y386399D03*
X816199Y506599D03*
X782099Y549999D03*
X656499Y427799D03*
X631199Y428499D03*
X606499D03*
X580499Y428899D03*
X555499D03*
X529799Y428499D03*
X504099Y430299D03*
X479499Y428899D03*
X454199Y427799D03*
X428899Y429899D03*
X402799Y428499D03*
X376799D03*
X352899Y429199D03*
X326499Y428499D03*
X301499Y427499D03*
X275499Y428499D03*
X249799Y426399D03*
X222199Y428999D03*
G54D31*
X535499Y222499D03*
X391499Y266499D03*
X383499D03*
X511399Y222599D03*
X503399Y222299D03*
X495499Y222499D03*
X487399D03*
X479499D03*
X471399Y222599D03*
X463499Y222699D03*
X455399Y222599D03*
X447499Y222499D03*
X439599Y222599D03*
X431599Y222499D03*
X423499D03*
X415499Y222599D03*
X407499Y222499D03*
X399399D03*
X391399Y222299D03*
X383699Y222499D03*
X375599D03*
X367599D03*
X359499Y222399D03*
X351599Y222599D03*
X343699Y222499D03*
X335599Y222399D03*
X327499D03*
X319599Y222499D03*
X311499D03*
X519399Y222599D03*
X527499Y222399D03*
X543299Y222499D03*
X543599Y266599D03*
X535499Y266499D03*
X527599Y266599D03*
X519399Y266499D03*
X511499Y266399D03*
X503399Y266499D03*
X495499D03*
X487499Y266399D03*
X479599Y266499D03*
X471499D03*
X463499Y266599D03*
X455499Y266499D03*
X447499D03*
X439499Y266299D03*
X431499Y266499D03*
X423399D03*
X415699Y266599D03*
X407499Y266499D03*
X399599Y266599D03*
X375499Y2667D03*
X367499D03*
X359499Y266399D03*
X351499D03*
X343599Y266499D03*
X335499D03*
X327599Y266599D03*
X319299D03*
X311399Y266499D03*
X199999Y569299D03*
X220299Y569499D03*
X239999Y568899D03*
X260199Y569699D03*
X279899Y569899D03*
X298499D03*
X318599Y569499D03*
X339499Y568599D03*
X360499Y569299D03*
X378699D03*
X399799Y569699D03*
X420999Y568899D03*
X439199Y568799D03*
X458999D03*
X481099Y569299D03*
X499999Y569899D03*
X519399Y569299D03*
X540499D03*
X559499D03*
X580199Y569099D03*
X579199Y613999D03*
X559499Y614199D03*
X539699D03*
X519399Y614399D03*
X499399Y614599D03*
X479499Y614399D03*
X459199Y614599D03*
X439999Y614399D03*
X420099Y614199D03*
X400299Y614399D03*
X379599Y614199D03*
X359699Y614599D03*
X339399D03*
X319999D03*
X299299Y614399D03*
X280499D03*
X259599Y614199D03*
X239899Y614399D03*
X220099Y613899D03*
X199999Y613499D03*
G54D32*
X910699Y333599D03*
M02*