%FSTAX24Y24*%
%MOMM*%
%SFA1B1*%

%IPPOS*%
%ADD18C,0.250000*%
%ADD34C,0.130000*%
%ADD35C,0.180000*%
%ADD36C,0.200000*%
%ADD37C,0.150000*%
%ADD38C,0.100000*%
%ADD39C,0.200000*%
%LNio-testing-mezzanine-1*%
%LPD*%
G54D18*
X119399Y138399D02*
X124499D01*
X121899*
Y123199*
X119399*
X124499*
X1397Y138399D02*
X134599D01*
X132099Y135899*
Y125699*
X134599Y123199*
X1397*
X142199Y125699*
Y135899*
X1397Y138399*
X147299Y130799D02*
X157499D01*
X162499Y138399D02*
X172699D01*
X167599*
Y123199*
X185399D02*
X180299D01*
X1778Y125699*
Y130799*
X180299Y133299*
X185399*
X187899Y130799*
Y128299*
X1778*
X192999Y123199D02*
X200599D01*
X2032Y125699*
X200599Y128299*
X195599*
X192999Y130799*
X195599Y133299*
X2032*
X210799Y135899D02*
Y133299D01*
X208299*
X213299*
X210799*
Y125699*
X213299Y123199*
X220899D02*
X225999D01*
X223499*
Y133299*
X220899*
X233599Y123199D02*
Y133299D01*
X2413*
X243799Y130799*
Y123199*
X254Y118099D02*
X256499D01*
X258999Y120699*
Y133299*
X251399*
X248899Y130799*
Y125699*
X251399Y123199*
X258999*
X264099Y130799D02*
X274299D01*
X279299Y123199D02*
Y138399D01*
X284399Y133299*
X289499Y138399*
Y123199*
X302199D02*
X297099D01*
X294599Y125699*
Y130799*
X297099Y133299*
X302199*
X304699Y130799*
Y128299*
X294599*
X309799Y133299D02*
X319999D01*
X309799Y123199*
X319999*
X325099Y133299D02*
X335199D01*
X325099Y123199*
X335199*
X342799Y133299D02*
X347899D01*
X350399Y130799*
Y123199*
X342799*
X340299Y125699*
X342799Y128299*
X350399*
X355499Y123199D02*
Y133299D01*
X363099*
X365699Y130799*
Y123199*
X370799D02*
X375799D01*
X373299*
Y133299*
X370799*
X383499Y123199D02*
Y133299D01*
X391099*
X393599Y130799*
Y123199*
X406299D02*
X401199D01*
X398699Y125699*
Y130799*
X401199Y133299*
X406299*
X408799Y130799*
Y128299*
X398699*
X413899Y130799D02*
X424099D01*
X429199Y133299D02*
X434199Y123199D01*
X439299Y133299*
X444399Y135899D02*
X446899Y138399D01*
X451999*
X454599Y135899*
Y125699*
X451999Y123199*
X446899*
X444399Y125699*
Y135899*
X459599Y123199D02*
X464699D01*
X462199*
Y138399*
X459599Y135899*
X892599Y501599D02*
X894299Y503199D01*
Y506499*
X892599Y508199*
X890899*
X889299Y506499*
Y503199*
X887599Y501599*
X885899*
X884299Y503199*
Y506499*
X885899Y508199*
X892599Y498199D02*
X894299Y496599D01*
Y493199*
X892599Y491599*
X890899*
X889299Y493199*
Y494899*
Y493199*
X887599Y491599*
X885899*
X884299Y493199*
Y496599*
X885899Y498199*
X632699Y635799D02*
X647899D01*
Y628199*
X645399Y625699*
X640299*
X637799Y628199*
Y635799*
X647899Y610499D02*
Y620599D01*
X640299*
X642799Y615499*
Y612999*
X640299Y610499*
X635199*
X632699Y612999*
Y618099*
X635199Y620599*
X892399Y566099D02*
X894099Y567799D01*
Y571099*
X892399Y572799*
X890799*
X889099Y571099*
Y567799*
X887399Y566099*
X885799*
X884099Y567799*
Y571099*
X885799Y572799*
X884099Y557799D02*
X894099D01*
X889099Y562799*
Y556099*
X892599Y442599D02*
X894299Y444199D01*
Y447499*
X892599Y449199*
X890899*
X889299Y447499*
Y444199*
X887599Y442599*
X885899*
X884299Y444199*
Y447499*
X885899Y449199*
X884299Y432599D02*
Y439199D01*
X890899Y432599*
X892599*
X894299Y434199*
Y437599*
X892599Y439199*
X892899Y382699D02*
X894599Y384399D01*
Y387699*
X892899Y389399*
X891299*
X889599Y387699*
Y384399*
X887899Y382699*
X886299*
X884599Y384399*
Y387699*
X886299Y389399*
X884599Y379399D02*
Y376099D01*
Y377699*
X894599*
X892899Y379399*
X162999Y421999D02*
X147799D01*
Y429599*
X150299Y432199*
X155399*
X157899Y429599*
Y421999*
X150299Y437199D02*
X147799Y439799D01*
Y444899*
X150299Y447399*
X152799*
X155399Y444899*
Y442299*
Y444899*
X157899Y447399*
X160499*
X162999Y444899*
Y439799*
X160499Y437199*
X833999Y321899D02*
Y306699D01*
X844099*
X859399Y321899D02*
X849199D01*
Y314299*
X854299Y316899*
X856799*
X859399Y314299*
Y309199*
X856799Y306699*
X851699*
X849199Y309199*
X921699Y341599D02*
X936899D01*
Y333999*
X934399Y331399*
X929299*
X926799Y333999*
Y341599*
Y336499D02*
X921699Y331399D01*
X936899Y316199D02*
Y326399D01*
X929299*
X931899Y321299*
Y318699*
X929299Y316199*
X924199*
X921699Y318699*
Y323799*
X924199Y326399*
X179399Y359399D02*
X164199D01*
Y366999*
X166699Y369499*
X171799*
X174299Y366999*
Y359399*
X164199Y384699D02*
X166699Y379699D01*
X171799Y374599*
X176899*
X179399Y377099*
Y382199*
X176899Y384699*
X174299*
X171799Y382199*
Y374599*
X667099Y278199D02*
Y265499D01*
X669599Y262999*
X674699*
X677299Y265499*
Y278199*
X692499Y275699D02*
X689999Y278199D01*
X684899*
X682299Y275699*
Y273199*
X684899Y270599*
X689999*
X692499Y268099*
Y265499*
X689999Y262999*
X684899*
X682299Y265499*
X697599Y278199D02*
Y262999D01*
X705199*
X707699Y265499*
Y268099*
X705199Y270599*
X697599*
X705199*
X707699Y273199*
Y275699*
X705199Y278199*
X697599*
X712799Y262999D02*
X717899D01*
X715299*
Y278199*
X712799Y275699*
G54D34*
X790899Y469499D02*
X875999D01*
X790899Y510099D02*
X875999D01*
Y469499D02*
Y510099D01*
X790899Y469499D02*
Y510099D01*
Y528499D02*
X875999D01*
X790899Y569099D02*
X875999D01*
Y528499D02*
Y569099D01*
X790899Y528499D02*
Y569099D01*
Y410499D02*
X875999D01*
X790899Y451099D02*
X875999D01*
Y410499D02*
Y451099D01*
X790899Y410499D02*
Y451099D01*
X791899Y350499D02*
X876999D01*
X791899Y391099D02*
X876999D01*
Y350499D02*
Y391099D01*
X791899Y350499D02*
Y391099D01*
X883699Y148799D02*
Y161499D01*
X851999Y158899D02*
X854499Y161499D01*
X851999Y151299D02*
X854499Y148799D01*
X851999Y151299D02*
Y158899D01*
X854499Y148799D02*
X864699D01*
X872299D02*
X883699D01*
X854499Y161499D02*
X864699D01*
X872299D02*
X883699D01*
X855499Y340999D02*
X866899D01*
X837699D02*
X847899D01*
X855499Y328299D02*
X866899D01*
X837699D02*
X847899D01*
X835199Y330799D02*
Y338399D01*
Y330799D02*
X837699Y328299D01*
X835199Y338399D02*
X837699Y340999D01*
X866899Y328299D02*
Y340999D01*
X873299Y238399D02*
X884699D01*
X855499D02*
X865699D01*
X873299Y225799D02*
X884699D01*
X855499D02*
X865699D01*
X852999Y228299D02*
Y235899D01*
Y228299D02*
X855499Y225799D01*
X852999Y235899D02*
X855499Y238399D01*
X884699Y225799D02*
Y238399D01*
X873299Y211499D02*
X884699D01*
X855499D02*
X865699D01*
X873299Y198799D02*
X884699D01*
X855499D02*
X865699D01*
X852999Y201299D02*
Y208899D01*
Y201299D02*
X855499Y198799D01*
X852999Y208899D02*
X855499Y211499D01*
X884699Y198799D02*
Y211499D01*
X872299Y188399D02*
X883699D01*
X854499D02*
X864699D01*
X872299Y175799D02*
X883699D01*
X854499D02*
X864699D01*
X851999Y178299D02*
Y185899D01*
Y178299D02*
X854499Y175799D01*
X851999Y185899D02*
X854499Y188399D01*
X883699Y175799D02*
Y188399D01*
X625799Y099999D02*
Y254199D01*
X740099Y099999D02*
Y254199D01*
X625999Y254999D02*
X740299D01*
G54D35*
X920699Y554699D02*
X927299D01*
Y540899D02*
Y554699D01*
X920699Y540899D02*
X927299D01*
X896899D02*
X903499D01*
X896899D02*
Y554699D01*
X903499*
X922699Y497699D02*
X929299D01*
Y483899D02*
Y497699D01*
X922699Y483899D02*
X929299D01*
X898899D02*
X905499D01*
X898899D02*
Y497699D01*
X905499*
X921699Y375699D02*
X928299D01*
Y361899D02*
Y375699D01*
X921699Y361899D02*
X928299D01*
X897899D02*
X904499D01*
X897899D02*
Y375699D01*
X904499*
X919099Y237999D02*
X925699D01*
Y224199D02*
Y237999D01*
X919099Y224199D02*
X925699D01*
X895299D02*
X901899D01*
X895299D02*
Y237999D01*
X901899*
X922699Y438699D02*
X929299D01*
Y424899D02*
Y438699D01*
X922699Y424899D02*
X929299D01*
X898899D02*
X905499D01*
X898899D02*
Y438699D01*
X905499*
X919099Y211899D02*
X925699D01*
Y198099D02*
Y211899D01*
X919099Y198099D02*
X925699D01*
X895299D02*
X901899D01*
X895299D02*
Y211899D01*
X901899*
X897299Y340499D02*
X903899D01*
Y326699D02*
Y340499D01*
X897299Y326699D02*
X903899D01*
X873499D02*
X880099D01*
X873499D02*
Y340499D01*
X880099*
X919099Y187999D02*
X925699D01*
Y174199D02*
Y187999D01*
X919099Y174199D02*
X925699D01*
X895299D02*
X901899D01*
X895299D02*
Y187999D01*
X901899*
X920099Y161999D02*
X926699D01*
Y148199D02*
Y161999D01*
X920099Y148199D02*
X926699D01*
X896299D02*
X902899D01*
X896299D02*
Y161999D01*
X902899*
G54D36*
X587399Y625599D02*
X597499D01*
X587399Y574799D02*
X597499D01*
X182199D02*
X192399D01*
X182199Y625599D02*
X192399D01*
X597499Y574799D02*
Y625599D01*
X182199Y574799D02*
Y625599D01*
X187899Y383099D02*
X340299D01*
X187899Y357699D02*
X340299D01*
Y383099*
X187899Y357699D02*
Y383099D01*
X690899Y471799D02*
X700399D01*
X690899Y420999D02*
X700399D01*
X182199D02*
X191299D01*
X182199Y471799D02*
X190799D01*
X700399Y420999D02*
Y471799D01*
X182199Y420999D02*
Y471799D01*
G54D37*
X204599Y348699D02*
X204999Y350299D01*
X203699Y352299*
X202099Y352699*
X198199Y350199*
X197799Y348599*
X198999Y346599*
X200599Y346299*
X202599Y347499*
X201399Y349499*
X200899Y343699D02*
X206799Y347399D01*
X203299Y339699*
X209299Y343399*
X210499Y341399D02*
X204499Y337699D01*
X206399Y334699*
X207999Y334399*
X211999Y336799*
X212299Y338399*
X210499Y341399*
X334099Y352499D02*
X336599Y348499D01*
X337399Y351699D02*
X333399Y349199D01*
X343299Y344399D02*
X340799Y348399D01*
X337799Y346499*
X339999Y345099*
X340699Y344199*
X340299Y342499*
X338299Y341299*
X336699Y341699*
X335499Y343699*
X335799Y345299*
X344499Y342399D02*
X340499Y339899D01*
X339799Y336699*
X342999Y335999*
X346899Y338399*
X309599Y352899D02*
X310799Y350899D01*
X310199Y351899*
X304199Y348199*
X303599Y349199*
X3048Y347199*
X309099Y340299D02*
X306699Y344299D01*
X313099Y342799*
X314099Y343399*
X314499Y344999*
X313299Y346999*
X311599Y347299*
X317799Y337399D02*
X318199Y338999D01*
X316899Y340999*
X315299Y341399*
X311399Y338899*
X310999Y337299*
X312199Y335399*
X313799Y334999*
X318999Y335399D02*
X320599Y335099D01*
X321899Y333099*
X321499Y331499*
X320499Y330899*
X318899Y331199*
X318299Y332199*
X318899Y331199*
X318499Y329599*
X3175Y328999*
X315899Y329399*
X314699Y331399*
X315099Y332999*
X316799Y325799D02*
X319199Y321799D01*
X328799Y319599D02*
X329199Y321199D01*
X327999Y323199*
X326399Y323599*
X325399Y322899*
X324999Y321299*
X326299Y319299*
X325899Y317699*
X324899Y317099*
X323299Y3175*
X321999Y319499*
X322399Y321099*
X331099Y318199D02*
X325099Y314499D01*
X326999Y311599*
X328599Y311199*
X332499Y313599*
X332899Y315199*
X331099Y318199*
X328799Y308599D02*
X332799Y310999D01*
X335999Y310299*
X335199Y307099*
X331299Y304599*
X334199Y306499*
X331799Y310399*
X285299Y353999D02*
X286499Y351999D01*
X285899Y352999*
X279999Y349299*
X2794Y350299*
X280599Y348299*
X284899Y341399D02*
X282399Y345399D01*
X288899Y343899*
X289799Y344499*
X290199Y346099*
X288999Y348099*
X287399Y348399*
X293499Y338499D02*
X293899Y340099D01*
X292699Y342099*
X291099Y342499*
X287099Y339999*
X286699Y338399*
X287999Y336499*
X289599Y336099*
X294799Y336499D02*
X296399Y336199D01*
X297599Y334199*
X297199Y332599*
X296199Y331999*
X294599Y332299*
X293999Y333299*
X294599Y332299*
X294199Y330699*
X293299Y330099*
X291599Y330499*
X290399Y332499*
X290799Y334099*
X292499Y326899D02*
X294999Y322899D01*
X304599Y320699D02*
X304999Y322299D01*
X303699Y324299*
X302099Y324699*
X301099Y323999*
X300799Y322399*
X301999Y320399*
X301599Y318799*
X300599Y318199*
X298999Y318599*
X297799Y320599*
X298199Y322199*
X308299Y314699D02*
X308699Y316299D01*
X307399Y318299*
X305799Y318699*
X301899Y316199*
X301499Y314599*
X302699Y312699*
X304299Y312299*
X310499Y313399D02*
X304499Y309699D01*
X306999Y305699*
X260699Y352399D02*
X261899Y350399D01*
X261299Y351399*
X255399Y347699*
X254799Y348699*
X255999Y346699*
X260299Y339799D02*
X257799Y343799D01*
X264299Y342299*
X265199Y3429*
X265599Y344499*
X264399Y346499*
X262799Y346799*
X268899Y336899D02*
X269299Y338499D01*
X268099Y340499*
X266499Y340899*
X262499Y338399*
X262099Y336799*
X263399Y334899*
X264999Y334499*
X267699Y327899D02*
X265199Y331899D01*
X271599Y330399*
X272599Y330999*
X272999Y332599*
X271799Y334599*
X270199Y334899*
X267899Y325299D02*
X270399Y321299D01*
X279999Y319099D02*
X280399Y320699D01*
X279099Y322699*
X277499Y323099*
X276499Y322399*
X276199Y320799*
X277399Y318799*
X276999Y317199*
X275999Y316599*
X274399Y316999*
X273199Y318999*
X273599Y320599*
X282199Y317699D02*
X276299Y313999D01*
X278099Y311099*
X279699Y310699*
X283699Y313099*
X284099Y314699*
X282199Y317699*
X279899Y308099D02*
X283899Y310499D01*
X287099Y309799*
X286399Y306599*
X282399Y304099*
X285399Y305999*
X282899Y309899*
X232299Y353399D02*
X233499Y351399D01*
X232899Y352399*
X226999Y348699*
X226399Y349699*
X227599Y347699*
X231899Y340799D02*
X229399Y344799D01*
X235899Y343299*
X236799Y343899*
X237199Y345499*
X235999Y347499*
X234399Y347799*
X240499Y337899D02*
X240899Y339499D01*
X239699Y341499*
X238099Y341899*
X234099Y339399*
X233699Y337799*
X234999Y335899*
X236599Y335499*
X239299Y328899D02*
X236799Y332899D01*
X243199Y331399*
X244199Y331999*
X244599Y333599*
X243399Y335599*
X241799Y335899*
X239499Y326299D02*
X241999Y322299D01*
X251599Y320099D02*
X251999Y321699D01*
X250699Y323699*
X249099Y324099*
X248099Y323399*
X247799Y321799*
X248999Y319799*
X248599Y318199*
X247599Y317599*
X245999Y317999*
X244799Y319999*
X245199Y321599*
X255299Y314099D02*
X255699Y315699D01*
X254399Y317699*
X252799Y318099*
X248899Y315599*
X248499Y313999*
X249699Y312099*
X251299Y311699*
X257499Y312799D02*
X251499Y309099D01*
X254Y305099*
G54D38*
X935799Y552999D02*
X941799D01*
Y549999*
X940799Y548999*
X938799*
X937799Y549999*
Y552999*
Y550999D02*
X935799Y548999D01*
X936799Y546999D02*
X935799Y545999D01*
Y543999*
X936799Y542999*
X940799*
X941799Y543999*
Y545999*
X940799Y546999*
X9398*
X938799Y545999*
Y542999*
X937799Y495999D02*
X943799D01*
Y492999*
X942799Y491999*
X940799*
X9398Y492999*
Y495999*
Y493999D02*
X937799Y491999D01*
X942799Y489999D02*
X943799Y488999D01*
Y486999*
X942799Y485999*
X941799*
X940799Y486999*
X9398Y485999*
X938799*
X937799Y486999*
Y488999*
X938799Y489999*
X9398*
X940799Y488999*
X941799Y489999*
X942799*
X940799Y488999D02*
Y486999D01*
X936799Y373999D02*
X942799D01*
Y370999*
X941799Y369999*
X9398*
X938799Y370999*
Y373999*
Y371999D02*
X936799Y369999D01*
X942799Y363999D02*
X941799Y365999D01*
X9398Y367999*
X937799*
X936799Y366999*
Y364999*
X937799Y363999*
X938799*
X9398Y364999*
Y367999*
X845499Y152099D02*
Y158099D01*
X841499*
X839499D02*
X837499D01*
X838499*
Y152099*
X839499Y153099*
X846499Y180099D02*
Y186099D01*
X842499*
X836499D02*
X840499D01*
X836499Y182099*
Y181099*
X837499Y180099*
X839499*
X840499Y181099*
X849499Y202099D02*
Y208099D01*
X845499*
X843499Y203099D02*
X842499Y202099D01*
X840499*
X839499Y203099*
Y204099*
X840499Y205099*
X841499*
X840499*
X839499Y206099*
Y207099*
X840499Y208099*
X842499*
X843499Y207099*
X847499Y228099D02*
Y234099D01*
X843499*
X838499D02*
Y228099D01*
X841499Y231099*
X837499*
X935199Y160299D02*
X941199D01*
Y157299*
X940199Y156299*
X938199*
X937199Y157299*
Y160299*
Y158299D02*
X935199Y156299D01*
Y154299D02*
Y152299D01*
Y153299*
X941199*
X940199Y154299*
X934199Y186299D02*
X940199D01*
Y183299*
X939199Y182299*
X937199*
X936199Y183299*
Y186299*
Y184299D02*
X934199Y182299D01*
Y176299D02*
Y180299D01*
X938199Y176299*
X939199*
X940199Y177299*
Y179299*
X939199Y180299*
X934199Y210199D02*
X940199D01*
Y207199*
X939199Y206199*
X937199*
X936199Y207199*
Y210199*
Y208199D02*
X934199Y206199D01*
X939199Y204199D02*
X940199Y2032D01*
Y201199*
X939199Y200199*
X938199*
X937199Y201199*
Y202199*
Y201199*
X936199Y200199*
X935199*
X934199Y201199*
Y2032*
X935199Y204199*
X937799Y436999D02*
X943799D01*
Y433999*
X942799Y432999*
X940799*
X9398Y433999*
Y436999*
Y434999D02*
X937799Y432999D01*
X943799Y430999D02*
Y426999D01*
X942799*
X938799Y430999*
X937799*
X934199Y236299D02*
X940199D01*
Y233299*
X939199Y232299*
X937199*
X936199Y233299*
Y236299*
Y234299D02*
X934199Y232299D01*
Y227299D02*
X940199D01*
X937199Y230299*
Y226299*
G54D39*
X174199Y570899D02*
X178399D01*
X176299*
Y583599*
X174199Y581499*
X601499Y580099D02*
X603599Y582199D01*
X607799*
X609999Y580099*
Y577999*
X607799Y575799*
X605699*
X607799*
X609999Y573699*
Y571599*
X607799Y569499*
X603599*
X601499Y571599*
X614199D02*
X616299Y569499D01*
X620499*
X622699Y571599*
Y580099*
X620499Y582199*
X616299*
X614199Y580099*
Y577999*
X616299Y575799*
X622699*
X608099Y617699D02*
Y630399D01*
X601799Y623999*
X610299*
X614499Y628299D02*
X616599Y630399D01*
X620799*
X622999Y628299*
Y619799*
X620799Y617699*
X616599*
X614499Y619799*
Y628299*
X177399Y614899D02*
X168899D01*
X177399Y623399*
Y625499*
X175199Y627599*
X170999*
X168899Y625499*
X173299Y419799D02*
X177599D01*
X175399*
Y432499*
X173299Y430299*
X706699Y425299D02*
X708799Y427399D01*
X713099*
X715199Y425299*
Y423099*
X713099Y420999*
X710999*
X713099*
X715199Y418899*
Y416799*
X713099Y414699*
X708799*
X706699Y416799*
X719399D02*
X721499Y414699D01*
X725799*
X727899Y416799*
Y425299*
X725799Y427399*
X721499*
X719399Y425299*
Y423099*
X721499Y420999*
X727899*
X713099Y464199D02*
Y476899D01*
X706699Y470599*
X715199*
X719399Y474799D02*
X721499Y476899D01*
X725799*
X727899Y474799*
Y466299*
X725799Y464199*
X721499*
X719399Y466299*
Y474799*
X177999Y467999D02*
X169499D01*
X177999Y476499*
Y478599*
X175899Y480699*
X171599*
X169499Y478599*
M02*