G04 Layer_Color=8421504*
%FSLAX42Y42*%
%MOMM*%
G71*
G01*
G75*
%ADD10R,0.37X0.50*%
%ADD11R,0.47X0.50*%
%ADD12R,1.00X1.40*%
%ADD13R,1.00X0.95*%
%ADD14R,1.00X3.00*%
%ADD15R,0.80X0.80*%
%ADD16R,2.50X5.00*%
%ADD17R,0.90X2.80*%
%ADD18R,1.20X2.50*%
D10*
X8271Y1507D02*
D03*
X8191D02*
D03*
Y1781D02*
D03*
X8271D02*
D03*
Y2027D02*
D03*
X8191D02*
D03*
Y2283D02*
D03*
X8271D02*
D03*
D11*
X8231Y1588D02*
D03*
Y1861D02*
D03*
Y2108D02*
D03*
Y2362D02*
D03*
D12*
X7991Y4898D02*
D03*
X8691D02*
D03*
X7991Y5488D02*
D03*
X8691D02*
D03*
X7991Y4308D02*
D03*
X8691D02*
D03*
X8001Y3708D02*
D03*
X8701D02*
D03*
D13*
X9201Y5478D02*
D03*
X9041D02*
D03*
X9221Y4908D02*
D03*
X9061D02*
D03*
X9211Y3688D02*
D03*
X9051D02*
D03*
X9185Y2311D02*
D03*
X9025D02*
D03*
X9221Y4318D02*
D03*
X9061D02*
D03*
X9185Y2050D02*
D03*
X9025D02*
D03*
X8967Y3336D02*
D03*
X8807D02*
D03*
X9185Y1811D02*
D03*
X9025D02*
D03*
X9187Y1550D02*
D03*
X9027D02*
D03*
D14*
X2000Y6225D02*
D03*
Y5775D02*
D03*
X2200Y6225D02*
D03*
Y5775D02*
D03*
X2400Y6225D02*
D03*
Y5775D02*
D03*
X2600Y6225D02*
D03*
Y5775D02*
D03*
X2800Y6225D02*
D03*
Y5775D02*
D03*
X3000Y6225D02*
D03*
Y5775D02*
D03*
X3200Y6225D02*
D03*
Y5775D02*
D03*
X3400Y6225D02*
D03*
Y5775D02*
D03*
X3600Y6225D02*
D03*
Y5775D02*
D03*
X3800Y6225D02*
D03*
Y5775D02*
D03*
X4000Y6225D02*
D03*
Y5775D02*
D03*
X4200Y6225D02*
D03*
Y5775D02*
D03*
X4400Y6225D02*
D03*
Y5775D02*
D03*
X4600Y6225D02*
D03*
Y5775D02*
D03*
X4800Y6225D02*
D03*
Y5775D02*
D03*
X5000Y6225D02*
D03*
Y5775D02*
D03*
X5200Y6225D02*
D03*
Y5775D02*
D03*
X5400Y6225D02*
D03*
Y5775D02*
D03*
X5600Y6225D02*
D03*
Y5775D02*
D03*
X5800Y6225D02*
D03*
Y5775D02*
D03*
D15*
X8605Y1551D02*
D03*
X8765D02*
D03*
X8597Y3346D02*
D03*
X8437D02*
D03*
X8775Y2321D02*
D03*
X8615D02*
D03*
X8775Y2051D02*
D03*
X8615D02*
D03*
X8765Y1821D02*
D03*
X8605D02*
D03*
D16*
X7387Y2165D02*
D03*
X5937D02*
D03*
D17*
X6312Y2390D02*
D03*
X6562D02*
D03*
X6762D02*
D03*
X7012D02*
D03*
D18*
X2000Y4726D02*
D03*
Y4200D02*
D03*
X2254Y4726D02*
D03*
Y4200D02*
D03*
X2508Y4726D02*
D03*
Y4200D02*
D03*
X2762Y4726D02*
D03*
Y4200D02*
D03*
X3016Y4726D02*
D03*
Y4200D02*
D03*
X3270Y4726D02*
D03*
Y4200D02*
D03*
X3524Y4726D02*
D03*
Y4200D02*
D03*
X3778Y4726D02*
D03*
Y4200D02*
D03*
X4032Y4726D02*
D03*
Y4200D02*
D03*
X4286Y4726D02*
D03*
Y4200D02*
D03*
X4540Y4726D02*
D03*
Y4200D02*
D03*
X4794Y4726D02*
D03*
Y4200D02*
D03*
X5048Y4726D02*
D03*
Y4200D02*
D03*
X5302Y4726D02*
D03*
Y4200D02*
D03*
X5556Y4726D02*
D03*
Y4200D02*
D03*
X5810Y4726D02*
D03*
Y4200D02*
D03*
X6064Y4726D02*
D03*
Y4200D02*
D03*
X6318Y4726D02*
D03*
Y4200D02*
D03*
X6572Y4726D02*
D03*
Y4200D02*
D03*
X6826Y4726D02*
D03*
Y4200D02*
D03*
M02*
