G04 start of page 12 for group -3984 idx -3984 *
G04 Title: 96Boards CE I2S Mezzanine, fab *
G04 Creator: pcb 20140316 *
G04 CreationDate: Mon 17 Sep 2018 12:34:06 PM GMT UTC *
G04 For: adam *
G04 Format: Gerber/RS-274X *
G04 PCB-Dimensions (mm): 85.00 54.00 *
G04 PCB-Coordinate-Origin: lower left *
%MOMM*%
%FSLAX43Y43*%
%LNFAB*%
%ADD128C,0.254*%
%ADD127C,0.191*%
%ADD126C,0.152*%
%ADD125R,0.203X0.203*%
%ADD124C,0.002*%
G54D124*G36*
X3390Y36253D02*X4753Y34890D01*
X4610Y34747D01*
X3247Y36110D01*
X3390Y36253D01*
G37*
G36*
X3247Y34890D02*X4610Y36253D01*
X4753Y36110D01*
X3390Y34747D01*
X3247Y34890D01*
G37*
G54D125*X3594Y35906D02*X4406D01*
X3594D02*Y35094D01*
X4406D01*
Y35906D02*Y35094D01*
G54D124*G36*
X3390Y4753D02*X4753Y3390D01*
X4610Y3247D01*
X3247Y4610D01*
X3390Y4753D01*
G37*
G36*
X3247Y3390D02*X4610Y4753D01*
X4753Y4610D01*
X3390Y3247D01*
X3247Y3390D01*
G37*
G54D125*X3594Y4406D02*X4406D01*
X3594D02*Y3594D01*
X4406D01*
Y4406D02*Y3594D01*
G54D124*G36*
X80390Y4753D02*X81753Y3390D01*
X81610Y3247D01*
X80247Y4610D01*
X80390Y4753D01*
G37*
G36*
X80247Y3390D02*X81610Y4753D01*
X81753Y4610D01*
X80390Y3247D01*
X80247Y3390D01*
G37*
G54D125*X80594Y4406D02*X81406D01*
X80594D02*Y3594D01*
X81406D01*
Y4406D02*Y3594D01*
G54D124*G36*
X80390Y36253D02*X81753Y34890D01*
X81610Y34747D01*
X80247Y36110D01*
X80390Y36253D01*
G37*
G36*
X80247Y34890D02*X81610Y36253D01*
X81753Y36110D01*
X80390Y34747D01*
X80247Y34890D01*
G37*
G54D125*X80594Y35906D02*X81406D01*
X80594D02*Y35094D01*
X81406D01*
Y35906D02*Y35094D01*
G54D124*G36*
X3200Y57611D02*X4563Y56248D01*
X4420Y56104D01*
X3057Y57467D01*
X3200Y57611D01*
G37*
G36*
X3057Y56248D02*X4420Y57611D01*
X4563Y57467D01*
X3200Y56104D01*
X3057Y56248D01*
G37*
G54D125*X3404Y57264D02*X4216D01*
X3404D02*Y56451D01*
X4216D01*
Y57264D02*Y56451D01*
G54D126*X34290Y57429D02*X34671Y56667D01*
X35052Y57429D01*
X34671Y56667D02*Y55905D01*
X35509Y56743D02*X36081D01*
X35509Y55905D02*X36271D01*
X35509Y57429D02*Y55905D01*
Y57429D02*X36271D01*
X37490D02*X37681Y57238D01*
X36919Y57429D02*X37490D01*
X36728Y57238D02*X36919Y57429D01*
X36728Y57238D02*Y56858D01*
X36919Y56667D01*
X37490D01*
X37681Y56476D01*
Y56096D01*
X37490Y55905D02*X37681Y56096D01*
X36919Y55905D02*X37490D01*
X36728Y56096D02*X36919Y55905D01*
X24892Y56476D02*X25654Y57429D01*
X24892Y56476D02*X25844D01*
X25654Y57429D02*Y55905D01*
X11430Y56096D02*X11620Y55905D01*
X11430Y57238D02*Y56096D01*
Y57238D02*X11620Y57429D01*
X12002D01*
X12192Y57238D01*
Y56096D01*
X12002Y55905D02*X12192Y56096D01*
X11620Y55905D02*X12002D01*
X11430Y56286D02*X12192Y57048D01*
X12649Y55905D02*X12840D01*
X13297Y56096D02*X13487Y55905D01*
X13297Y57238D02*Y56096D01*
Y57238D02*X13487Y57429D01*
X13868D01*
X14059Y57238D01*
Y56096D01*
X13868Y55905D02*X14059Y56096D01*
X13487Y55905D02*X13868D01*
X13297Y56286D02*X14059Y57048D01*
X14707Y55905D02*X15278Y56667D01*
Y57238D02*Y56667D01*
X15088Y57429D02*X15278Y57238D01*
X14707Y57429D02*X15088D01*
X14516Y57238D02*X14707Y57429D01*
X14516Y57238D02*Y56858D01*
X14707Y56667D01*
X15278D01*
X15926Y55905D02*X16497Y56667D01*
Y57238D02*Y56667D01*
X16307Y57429D02*X16497Y57238D01*
X15926Y57429D02*X16307D01*
X15735Y57238D02*X15926Y57429D01*
X15735Y57238D02*Y56858D01*
X15926Y56667D01*
X16497D01*
X20950Y43313D02*Y41687D01*
X20137Y42500D02*X21763D01*
X20544Y42906D02*X21356D01*
X20544D02*Y42094D01*
X21356D01*
Y42906D02*Y42094D01*
X20950Y50313D02*Y48687D01*
X20137Y49500D02*X21763D01*
X20544Y49906D02*X21356D01*
X20544D02*Y49094D01*
X21356D01*
Y49906D02*Y49094D01*
X73500Y17313D02*Y15687D01*
X72687Y16500D02*X74313D01*
X73094Y16906D02*X73906D01*
X73094D02*Y16094D01*
X73906D01*
Y16906D02*Y16094D01*
X80500Y17313D02*Y15687D01*
X79687Y16500D02*X81313D01*
X80094Y16906D02*X80906D01*
X80094D02*Y16094D01*
X80906D01*
Y16906D02*Y16094D01*
X73500Y28113D02*Y26487D01*
X72687Y27300D02*X74313D01*
X73094Y27706D02*X73906D01*
X73094D02*Y26894D01*
X73906D01*
Y27706D02*Y26894D01*
X80500Y28113D02*Y26487D01*
X79687Y27300D02*X81313D01*
X80094Y27706D02*X80906D01*
X80094D02*Y26894D01*
X80906D01*
Y27706D02*Y26894D01*
X74900Y43313D02*Y41687D01*
X74087Y42500D02*X75713D01*
X74494Y42906D02*X75306D01*
X74494D02*Y42094D01*
X75306D01*
Y42906D02*Y42094D01*
X74900Y50313D02*Y48687D01*
X74087Y49500D02*X75713D01*
X74494Y49906D02*X75306D01*
X74494D02*Y49094D01*
X75306D01*
Y49906D02*Y49094D01*
X31850Y43313D02*Y41687D01*
X31037Y42500D02*X32663D01*
X31444Y42906D02*X32256D01*
X31444D02*Y42094D01*
X32256D01*
Y42906D02*Y42094D01*
X31850Y50313D02*Y48687D01*
X31037Y49500D02*X32663D01*
X31444Y49906D02*X32256D01*
X31444D02*Y49094D01*
X32256D01*
Y49906D02*Y49094D01*
X11500Y28413D02*Y26787D01*
X10687Y27600D02*X12313D01*
X11094Y28006D02*X11906D01*
X11094D02*Y27194D01*
X11906D01*
Y28006D02*Y27194D01*
X4500Y28413D02*Y26787D01*
X3687Y27600D02*X5313D01*
X4094Y28006D02*X4906D01*
X4094D02*Y27194D01*
X4906D01*
Y28006D02*Y27194D01*
X10000Y43313D02*Y41687D01*
X9187Y42500D02*X10813D01*
X9594Y42906D02*X10406D01*
X9594D02*Y42094D01*
X10406D01*
Y42906D02*Y42094D01*
X10000Y50313D02*Y48687D01*
X9187Y49500D02*X10813D01*
X9594Y49906D02*X10406D01*
X9594D02*Y49094D01*
X10406D01*
Y49906D02*Y49094D01*
X3810Y61480D02*Y59855D01*
X2997Y60668D02*X4623D01*
X3404Y61074D02*X4216D01*
X3404D02*Y60261D01*
X4216D01*
Y61074D02*Y60261D01*
X35560Y61239D02*Y59715D01*
Y61239D02*X36512Y59715D01*
Y61239D02*Y59715D01*
X36970Y61048D02*Y59906D01*
Y61048D02*X37160Y61239D01*
X37541D01*
X37732Y61048D01*
Y59906D01*
X37541Y59715D02*X37732Y59906D01*
X37160Y59715D02*X37541D01*
X36970Y59906D02*X37160Y59715D01*
X24892Y60934D02*X25197Y61239D01*
Y59715D01*
X24892D02*X25464D01*
X25921Y60286D02*X26683Y61239D01*
X25921Y60286D02*X26873D01*
X26683Y61239D02*Y59715D01*
X11430Y59906D02*X11620Y59715D01*
X11430Y61048D02*Y59906D01*
Y61048D02*X11620Y61239D01*
X12002D01*
X12192Y61048D01*
Y59906D01*
X12002Y59715D02*X12192Y59906D01*
X11620Y59715D02*X12002D01*
X11430Y60096D02*X12192Y60858D01*
X12649Y59715D02*X12840D01*
X13297Y59906D02*X13487Y59715D01*
X13297Y61048D02*Y59906D01*
Y61048D02*X13487Y61239D01*
X13868D01*
X14059Y61048D01*
Y59906D01*
X13868Y59715D02*X14059Y59906D01*
X13487Y59715D02*X13868D01*
X13297Y60096D02*X14059Y60858D01*
X14516Y61239D02*X15278D01*
X14516D02*Y60477D01*
X14707Y60668D01*
X15088D01*
X15278Y60477D01*
Y59906D01*
X15088Y59715D02*X15278Y59906D01*
X14707Y59715D02*X15088D01*
X14516Y59906D02*X14707Y59715D01*
X15926D02*X16497Y60477D01*
Y61048D02*Y60477D01*
X16307Y61239D02*X16497Y61048D01*
X15926Y61239D02*X16307D01*
X15735Y61048D02*X15926Y61239D01*
X15735Y61048D02*Y60668D01*
X15926Y60477D01*
X16497D01*
X38150Y38550D02*Y37737D01*
Y38550D02*X38854Y38956D01*
X38150Y38550D02*X37446Y38956D01*
X37744Y38550D02*G75*G03X38556Y38550I406J0D01*G01*
G75*G03X37744Y38550I-406J0D01*G01*
X38150D02*Y37737D01*
Y38550D02*X38854Y38956D01*
X38150Y38550D02*X37446Y38956D01*
X37744Y38550D02*G75*G03X38556Y38550I406J0D01*G01*
G75*G03X37744Y38550I-406J0D01*G01*
X3810Y64478D02*Y63665D01*
Y64478D02*X4514Y64884D01*
X3810Y64478D02*X3106Y64884D01*
X3404Y64478D02*G75*G03X4216Y64478I406J0D01*G01*
G75*G03X3404Y64478I-406J0D01*G01*
X35560Y65049D02*Y63525D01*
Y65049D02*X36512Y63525D01*
Y65049D02*Y63525D01*
X36970Y64859D02*Y63716D01*
Y64859D02*X37160Y65049D01*
X37541D01*
X37732Y64859D01*
Y63716D01*
X37541Y63525D02*X37732Y63716D01*
X37160Y63525D02*X37541D01*
X36970Y63716D02*X37160Y63525D01*
X24892Y64859D02*X25082Y65049D01*
X25654D01*
X25844Y64859D01*
Y64478D01*
X24892Y63525D02*X25844Y64478D01*
X24892Y63525D02*X25844D01*
X11430Y63716D02*X11620Y63525D01*
X11430Y64859D02*Y63716D01*
Y64859D02*X11620Y65049D01*
X12002D01*
X12192Y64859D01*
Y63716D01*
X12002Y63525D02*X12192Y63716D01*
X11620Y63525D02*X12002D01*
X11430Y63906D02*X12192Y64668D01*
X12649Y63525D02*X12840D01*
X13297Y63716D02*X13487Y63525D01*
X13297Y64859D02*Y63716D01*
Y64859D02*X13487Y65049D01*
X13868D01*
X14059Y64859D01*
Y63716D01*
X13868Y63525D02*X14059Y63716D01*
X13487Y63525D02*X13868D01*
X13297Y63906D02*X14059Y64668D01*
X14516Y64097D02*X15278Y65049D01*
X14516Y64097D02*X15469D01*
X15278Y65049D02*Y63525D01*
X16116D02*X16878Y65049D01*
X15926D02*X16878D01*
X39994Y9506D02*X40806D01*
X39994D02*Y8694D01*
X40806D01*
Y9506D02*Y8694D01*
X37454Y9506D02*X38266D01*
X37454D02*Y8694D01*
X38266D01*
Y9506D02*Y8694D01*
X34914Y9506D02*X35726D01*
X34914D02*Y8694D01*
X35726D01*
Y9506D02*Y8694D01*
X3404Y68694D02*X4216D01*
X3404D02*Y67881D01*
X4216D01*
Y68694D02*Y67881D01*
X34290Y68859D02*X34671Y68097D01*
X35052Y68859D01*
X34671Y68097D02*Y67335D01*
X35509Y68173D02*X36081D01*
X35509Y67335D02*X36271D01*
X35509Y68859D02*Y67335D01*
Y68859D02*X36271D01*
X37490D02*X37681Y68668D01*
X36919Y68859D02*X37490D01*
X36728Y68668D02*X36919Y68859D01*
X36728Y68668D02*Y68288D01*
X36919Y68097D01*
X37490D01*
X37681Y67906D01*
Y67526D01*
X37490Y67335D02*X37681Y67526D01*
X36919Y67335D02*X37490D01*
X36728Y67526D02*X36919Y67335D01*
X24892Y68668D02*X25082Y68859D01*
X25464D01*
X25654Y68668D01*
X25464Y67335D02*X25654Y67526D01*
X25082Y67335D02*X25464D01*
X24892Y67526D02*X25082Y67335D01*
Y68173D02*X25464D01*
X25654Y68668D02*Y68364D01*
Y67983D02*Y67526D01*
Y67983D02*X25464Y68173D01*
X25654Y68364D02*X25464Y68173D01*
X11430Y67526D02*X11620Y67335D01*
X11430Y68668D02*Y67526D01*
Y68668D02*X11620Y68859D01*
X12002D01*
X12192Y68668D01*
Y67526D01*
X12002Y67335D02*X12192Y67526D01*
X11620Y67335D02*X12002D01*
X11430Y67716D02*X12192Y68478D01*
X12649Y67335D02*X12840D01*
X13297Y67526D02*X13487Y67335D01*
X13297Y68668D02*Y67526D01*
Y68668D02*X13487Y68859D01*
X13868D01*
X14059Y68668D01*
Y67526D01*
X13868Y67335D02*X14059Y67526D01*
X13487Y67335D02*X13868D01*
X13297Y67716D02*X14059Y68478D01*
X14516Y68668D02*X14707Y68859D01*
X15088D01*
X15278Y68668D01*
X15088Y67335D02*X15278Y67526D01*
X14707Y67335D02*X15088D01*
X14516Y67526D02*X14707Y67335D01*
Y68173D02*X15088D01*
X15278Y68668D02*Y68364D01*
Y67983D02*Y67526D01*
Y67983D02*X15088Y68173D01*
X15278Y68364D02*X15088Y68173D01*
X15735Y67526D02*X15926Y67335D01*
X15735Y67830D02*Y67526D01*
Y67830D02*X16002Y68097D01*
X16231D01*
X16497Y67830D01*
Y67526D01*
X16307Y67335D02*X16497Y67526D01*
X15926Y67335D02*X16307D01*
X15735Y68364D02*X16002Y68097D01*
X15735Y68668D02*Y68364D01*
Y68668D02*X15926Y68859D01*
X16307D01*
X16497Y68668D01*
Y68364D01*
X16231Y68097D02*X16497Y68364D01*
X27797Y28310D02*G75*G03X28203Y28310I203J0D01*G01*
G75*G03X27797Y28310I-203J0D01*G01*
X3607Y72098D02*G75*G03X4013Y72098I203J0D01*G01*
G75*G03X3607Y72098I-203J0D01*G01*
X34290Y72669D02*X34671Y71907D01*
X35052Y72669D01*
X34671Y71907D02*Y71145D01*
X35509Y71983D02*X36081D01*
X35509Y71145D02*X36271D01*
X35509Y72669D02*Y71145D01*
Y72669D02*X36271D01*
X37490D02*X37681Y72478D01*
X36919Y72669D02*X37490D01*
X36728Y72478D02*X36919Y72669D01*
X36728Y72478D02*Y72098D01*
X36919Y71907D01*
X37490D01*
X37681Y71716D01*
Y71336D01*
X37490Y71145D02*X37681Y71336D01*
X36919Y71145D02*X37490D01*
X36728Y71336D02*X36919Y71145D01*
X24892Y72364D02*X25197Y72669D01*
Y71145D01*
X24892D02*X25464D01*
X11430Y71336D02*X11620Y71145D01*
X11430Y72478D02*Y71336D01*
Y72478D02*X11620Y72669D01*
X12002D01*
X12192Y72478D01*
Y71336D01*
X12002Y71145D02*X12192Y71336D01*
X11620Y71145D02*X12002D01*
X11430Y71526D02*X12192Y72288D01*
X12649Y71145D02*X12840D01*
X13297Y71336D02*X13487Y71145D01*
X13297Y72478D02*Y71336D01*
Y72478D02*X13487Y72669D01*
X13868D01*
X14059Y72478D01*
Y71336D01*
X13868Y71145D02*X14059Y71336D01*
X13487Y71145D02*X13868D01*
X13297Y71526D02*X14059Y72288D01*
X14516Y72478D02*X14707Y72669D01*
X15088D01*
X15278Y72478D01*
X15088Y71145D02*X15278Y71336D01*
X14707Y71145D02*X15088D01*
X14516Y71336D02*X14707Y71145D01*
Y71983D02*X15088D01*
X15278Y72478D02*Y72174D01*
Y71793D02*Y71336D01*
Y71793D02*X15088Y71983D01*
X15278Y72174D02*X15088Y71983D01*
X15735Y72669D02*X16497D01*
X15735D02*Y71907D01*
X15926Y72098D01*
X16307D01*
X16497Y71907D01*
Y71336D01*
X16307Y71145D02*X16497Y71336D01*
X15926Y71145D02*X16307D01*
X15735Y71336D02*X15926Y71145D01*
X66045Y38855D02*X66655Y38245D01*
X66045D02*X66655Y38855D01*
X66045D02*X66655Y38245D01*
X66045D02*X66655Y38855D01*
X3505Y76212D02*X4115Y75603D01*
X3505D02*X4115Y76212D01*
X35560Y76479D02*Y74955D01*
Y76479D02*X36512Y74955D01*
Y76479D02*Y74955D01*
X36970Y76288D02*Y75146D01*
Y76288D02*X37160Y76479D01*
X37541D01*
X37732Y76288D01*
Y75146D01*
X37541Y74955D02*X37732Y75146D01*
X37160Y74955D02*X37541D01*
X36970Y75146D02*X37160Y74955D01*
X24892Y76288D02*X25082Y76479D01*
X25654D01*
X25844Y76288D01*
Y75908D01*
X24892Y74955D02*X25844Y75908D01*
X24892Y74955D02*X25844D01*
X11430Y75146D02*X11620Y74955D01*
X11430Y76288D02*Y75146D01*
Y76288D02*X11620Y76479D01*
X12002D01*
X12192Y76288D01*
Y75146D01*
X12002Y74955D02*X12192Y75146D01*
X11620Y74955D02*X12002D01*
X11430Y75336D02*X12192Y76098D01*
X12649Y74955D02*X12840D01*
X13297Y75146D02*X13487Y74955D01*
X13297Y76288D02*Y75146D01*
Y76288D02*X13487Y76479D01*
X13868D01*
X14059Y76288D01*
Y75146D01*
X13868Y74955D02*X14059Y75146D01*
X13487Y74955D02*X13868D01*
X13297Y75336D02*X14059Y76098D01*
X14516Y76288D02*X14707Y76479D01*
X15088D01*
X15278Y76288D01*
X15088Y74955D02*X15278Y75146D01*
X14707Y74955D02*X15088D01*
X14516Y75146D02*X14707Y74955D01*
Y75793D02*X15088D01*
X15278Y76288D02*Y75984D01*
Y75603D02*Y75146D01*
Y75603D02*X15088Y75793D01*
X15278Y75984D02*X15088Y75793D01*
X15735Y76174D02*X16040Y76479D01*
Y74955D01*
X15735D02*X16307D01*
X46700Y18356D02*Y17544D01*
X46294Y17950D02*X47106D01*
X47450Y17456D02*Y16644D01*
X47044Y17050D02*X47856D01*
X23520Y7486D02*Y6674D01*
X23114Y7080D02*X23926D01*
X15460Y14856D02*Y14044D01*
X15054Y14450D02*X15866D01*
X18960Y20536D02*Y19724D01*
X18554Y20130D02*X19366D01*
X18970Y17156D02*Y16344D01*
X18564Y16750D02*X19376D01*
X28390Y20536D02*Y19724D01*
X27984Y20130D02*X28796D01*
X29500Y25796D02*Y24984D01*
X29094Y25390D02*X29906D01*
X30270Y31056D02*Y30244D01*
X29864Y30650D02*X30676D01*
X23560Y26056D02*Y25244D01*
X23154Y25650D02*X23966D01*
X30710Y26706D02*Y25894D01*
X30304Y26300D02*X31116D01*
X54950Y24176D02*Y23364D01*
X54544Y23770D02*X55356D01*
X53910Y30206D02*Y29394D01*
X53504Y29800D02*X54316D01*
X51940Y18146D02*Y17334D01*
X51534Y17740D02*X52346D01*
X62420Y18146D02*Y17334D01*
X62014Y17740D02*X62826D01*
X48720Y23516D02*Y22704D01*
X48314Y23110D02*X49126D01*
X49690Y22596D02*Y21784D01*
X49284Y22190D02*X50096D01*
X47720Y21906D02*Y21094D01*
X47314Y21500D02*X48126D01*
X45930Y21616D02*Y20804D01*
X45524Y21210D02*X46336D01*
X45910Y24056D02*Y23244D01*
X45504Y23650D02*X46316D01*
X36500Y18216D02*Y17404D01*
X36094Y17810D02*X36906D01*
X28580Y26616D02*Y25804D01*
X28174Y26210D02*X28986D01*
X25970Y32026D02*Y31214D01*
X25564Y31620D02*X26376D01*
X51990Y13166D02*Y12354D01*
X51584Y12760D02*X52396D01*
X48260Y10736D02*Y9924D01*
X47854Y10330D02*X48666D01*
X17450Y11386D02*Y10574D01*
X17044Y10980D02*X17856D01*
X17630Y10096D02*Y9284D01*
X17224Y9690D02*X18036D01*
X56670Y10766D02*Y9954D01*
X56264Y10360D02*X57076D01*
X54900Y11786D02*Y10974D01*
X54494Y11380D02*X55306D01*
X49420Y10636D02*Y9824D01*
X49014Y10230D02*X49826D01*
X26680Y19476D02*Y18664D01*
X26274Y19070D02*X27086D01*
X24470Y18326D02*Y17514D01*
X24064Y17920D02*X24876D01*
X3810Y80124D02*Y79311D01*
X3404Y79718D02*X4216D01*
X34290Y80289D02*X34671Y79527D01*
X35052Y80289D01*
X34671Y79527D02*Y78765D01*
X35509Y79603D02*X36081D01*
X35509Y78765D02*X36271D01*
X35509Y80289D02*Y78765D01*
Y80289D02*X36271D01*
X37490D02*X37681Y80098D01*
X36919Y80289D02*X37490D01*
X36728Y80098D02*X36919Y80289D01*
X36728Y80098D02*Y79718D01*
X36919Y79527D01*
X37490D01*
X37681Y79336D01*
Y78956D01*
X37490Y78765D02*X37681Y78956D01*
X36919Y78765D02*X37490D01*
X36728Y78956D02*X36919Y78765D01*
X24892Y80098D02*X25082Y80289D01*
X25464D01*
X25654Y80098D01*
X25464Y78765D02*X25654Y78956D01*
X25082Y78765D02*X25464D01*
X24892Y78956D02*X25082Y78765D01*
Y79603D02*X25464D01*
X25654Y80098D02*Y79794D01*
Y79413D02*Y78956D01*
Y79413D02*X25464Y79603D01*
X25654Y79794D02*X25464Y79603D01*
X26111Y80098D02*X26302Y80289D01*
X26873D01*
X27064Y80098D01*
Y79718D01*
X26111Y78765D02*X27064Y79718D01*
X26111Y78765D02*X27064D01*
X11430Y78956D02*X11620Y78765D01*
X11430Y80098D02*Y78956D01*
Y80098D02*X11620Y80289D01*
X12002D01*
X12192Y80098D01*
Y78956D01*
X12002Y78765D02*X12192Y78956D01*
X11620Y78765D02*X12002D01*
X11430Y79146D02*X12192Y79908D01*
X12649Y78765D02*X12840D01*
X13297Y78956D02*X13487Y78765D01*
X13297Y80098D02*Y78956D01*
Y80098D02*X13487Y80289D01*
X13868D01*
X14059Y80098D01*
Y78956D01*
X13868Y78765D02*X14059Y78956D01*
X13487Y78765D02*X13868D01*
X13297Y79146D02*X14059Y79908D01*
X14516Y80098D02*X14707Y80289D01*
X15278D01*
X15469Y80098D01*
Y79718D01*
X14516Y78765D02*X15469Y79718D01*
X14516Y78765D02*X15469D01*
X15926Y78956D02*X16116Y78765D01*
X15926Y80098D02*Y78956D01*
Y80098D02*X16116Y80289D01*
X16497D01*
X16688Y80098D01*
Y78956D01*
X16497Y78765D02*X16688Y78956D01*
X16116Y78765D02*X16497D01*
X15926Y79146D02*X16688Y79908D01*
X5580Y7170D02*Y6764D01*
Y7170D02*X5932Y7373D01*
X5580Y7170D02*X5228Y7373D01*
X7990Y3810D02*Y3404D01*
Y3810D02*X8342Y4013D01*
X7990Y3810D02*X7638Y4013D01*
X24830Y1280D02*Y874D01*
Y1280D02*X25182Y1483D01*
X24830Y1280D02*X24478Y1483D01*
X23530Y1870D02*Y1464D01*
Y1870D02*X23882Y2073D01*
X23530Y1870D02*X23178Y2073D01*
X40600Y39400D02*Y38994D01*
Y39400D02*X40952Y39603D01*
X40600Y39400D02*X40248Y39603D01*
X41500Y39400D02*Y38994D01*
Y39400D02*X41852Y39603D01*
X41500Y39400D02*X41148Y39603D01*
X43000Y39400D02*Y38994D01*
Y39400D02*X43352Y39603D01*
X43000Y39400D02*X42648Y39603D01*
X43900Y39400D02*Y38994D01*
Y39400D02*X44252Y39603D01*
X43900Y39400D02*X43548Y39603D01*
X45400Y39400D02*Y38994D01*
Y39400D02*X45752Y39603D01*
X45400Y39400D02*X45048Y39603D01*
X46300Y39400D02*Y38994D01*
Y39400D02*X46652Y39603D01*
X46300Y39400D02*X45948Y39603D01*
X47800Y39400D02*Y38994D01*
Y39400D02*X48152Y39603D01*
X47800Y39400D02*X47448Y39603D01*
X48700Y39400D02*Y38994D01*
Y39400D02*X49052Y39603D01*
X48700Y39400D02*X48348Y39603D01*
X50200Y39400D02*Y38994D01*
Y39400D02*X50552Y39603D01*
X50200Y39400D02*X49848Y39603D01*
X51100Y39400D02*Y38994D01*
Y39400D02*X51452Y39603D01*
X51100Y39400D02*X50748Y39603D01*
X52600Y39400D02*Y38994D01*
Y39400D02*X52952Y39603D01*
X52600Y39400D02*X52248Y39603D01*
X53500Y39400D02*Y38994D01*
Y39400D02*X53852Y39603D01*
X53500Y39400D02*X53148Y39603D01*
X55000Y39400D02*Y38994D01*
Y39400D02*X55352Y39603D01*
X55000Y39400D02*X54648Y39603D01*
X55900Y39400D02*Y38994D01*
Y39400D02*X56252Y39603D01*
X55900Y39400D02*X55548Y39603D01*
X57400Y39400D02*Y38994D01*
Y39400D02*X57752Y39603D01*
X57400Y39400D02*X57048Y39603D01*
X58300Y39400D02*Y38994D01*
Y39400D02*X58652Y39603D01*
X58300Y39400D02*X57948Y39603D01*
X59700Y39400D02*Y38994D01*
Y39400D02*X60052Y39603D01*
X59700Y39400D02*X59348Y39603D01*
X60700Y39400D02*Y38994D01*
Y39400D02*X61052Y39603D01*
X60700Y39400D02*X60348Y39603D01*
X61500Y39000D02*Y38594D01*
Y39000D02*X61852Y39203D01*
X61500Y39000D02*X61148Y39203D01*
X62300Y39400D02*Y38994D01*
Y39400D02*X62652Y39603D01*
X62300Y39400D02*X61948Y39603D01*
X63100Y39000D02*Y38594D01*
Y39000D02*X63452Y39203D01*
X63100Y39000D02*X62748Y39203D01*
X63900Y39400D02*Y38994D01*
Y39400D02*X64252Y39603D01*
X63900Y39400D02*X63548Y39603D01*
X40600Y37700D02*Y37294D01*
Y37700D02*X40952Y37903D01*
X40600Y37700D02*X40248Y37903D01*
X42200Y37700D02*Y37294D01*
Y37700D02*X42552Y37903D01*
X42200Y37700D02*X41848Y37903D01*
X43100Y37700D02*Y37294D01*
Y37700D02*X43452Y37903D01*
X43100Y37700D02*X42748Y37903D01*
X44600Y37700D02*Y37294D01*
Y37700D02*X44952Y37903D01*
X44600Y37700D02*X44248Y37903D01*
X45500Y37700D02*Y37294D01*
Y37700D02*X45852Y37903D01*
X45500Y37700D02*X45148Y37903D01*
X47000Y37700D02*Y37294D01*
Y37700D02*X47352Y37903D01*
X47000Y37700D02*X46648Y37903D01*
X47900Y37700D02*Y37294D01*
Y37700D02*X48252Y37903D01*
X47900Y37700D02*X47548Y37903D01*
X49400Y37700D02*Y37294D01*
Y37700D02*X49752Y37903D01*
X49400Y37700D02*X49048Y37903D01*
X50300Y37700D02*Y37294D01*
Y37700D02*X50652Y37903D01*
X50300Y37700D02*X49948Y37903D01*
X51100Y38200D02*Y37794D01*
Y38200D02*X51452Y38403D01*
X51100Y38200D02*X50748Y38403D01*
X51900Y37700D02*Y37294D01*
Y37700D02*X52252Y37903D01*
X51900Y37700D02*X51548Y37903D01*
X53400Y37700D02*Y37294D01*
Y37700D02*X53752Y37903D01*
X53400Y37700D02*X53048Y37903D01*
X54300Y37700D02*Y37294D01*
Y37700D02*X54652Y37903D01*
X54300Y37700D02*X53948Y37903D01*
X55800Y37700D02*Y37294D01*
Y37700D02*X56152Y37903D01*
X55800Y37700D02*X55448Y37903D01*
X56700Y37700D02*Y37294D01*
Y37700D02*X57052Y37903D01*
X56700Y37700D02*X56348Y37903D01*
X58200Y37700D02*Y37294D01*
Y37700D02*X58552Y37903D01*
X58200Y37700D02*X57848Y37903D01*
X59100Y37700D02*Y37294D01*
Y37700D02*X59452Y37903D01*
X59100Y37700D02*X58748Y37903D01*
X60600Y37700D02*Y37294D01*
Y37700D02*X60952Y37903D01*
X60600Y37700D02*X60248Y37903D01*
X61500Y37700D02*Y37294D01*
Y37700D02*X61852Y37903D01*
X61500Y37700D02*X61148Y37903D01*
X63000Y37700D02*Y37294D01*
Y37700D02*X63352Y37903D01*
X63000Y37700D02*X62648Y37903D01*
X63900Y37700D02*Y37294D01*
Y37700D02*X64252Y37903D01*
X63900Y37700D02*X63548Y37903D01*
X6220Y9340D02*Y8934D01*
Y9340D02*X6572Y9543D01*
X6220Y9340D02*X5868Y9543D01*
X8850Y14950D02*Y14544D01*
Y14950D02*X9202Y15153D01*
X8850Y14950D02*X8498Y15153D01*
X26780Y9450D02*Y9044D01*
Y9450D02*X27132Y9653D01*
X26780Y9450D02*X26428Y9653D01*
X24180Y3850D02*Y3444D01*
Y3850D02*X24532Y4053D01*
X24180Y3850D02*X23828Y4053D01*
X36980Y5110D02*Y4704D01*
Y5110D02*X37332Y5313D01*
X36980Y5110D02*X36628Y5313D01*
X39000Y5110D02*Y4704D01*
Y5110D02*X39352Y5313D01*
X39000Y5110D02*X38648Y5313D01*
X41000Y5110D02*Y4704D01*
Y5110D02*X41352Y5313D01*
X41000Y5110D02*X40648Y5313D01*
X42990Y5110D02*Y4704D01*
Y5110D02*X43342Y5313D01*
X42990Y5110D02*X42638Y5313D01*
X44990Y5110D02*Y4704D01*
Y5110D02*X45342Y5313D01*
X44990Y5110D02*X44638Y5313D01*
X46990Y5110D02*Y4704D01*
Y5110D02*X47342Y5313D01*
X46990Y5110D02*X46638Y5313D01*
X49000Y5110D02*Y4704D01*
Y5110D02*X49352Y5313D01*
X49000Y5110D02*X48648Y5313D01*
X50990Y5110D02*Y4704D01*
Y5110D02*X51342Y5313D01*
X50990Y5110D02*X50638Y5313D01*
X53010Y5110D02*Y4704D01*
Y5110D02*X53362Y5313D01*
X53010Y5110D02*X52658Y5313D01*
X55000Y5110D02*Y4704D01*
Y5110D02*X55352Y5313D01*
X55000Y5110D02*X54648Y5313D01*
X56990Y5110D02*Y4704D01*
Y5110D02*X57342Y5313D01*
X56990Y5110D02*X56638Y5313D01*
X58990Y5110D02*Y4704D01*
Y5110D02*X59342Y5313D01*
X58990Y5110D02*X58638Y5313D01*
X60990Y5110D02*Y4704D01*
Y5110D02*X61342Y5313D01*
X60990Y5110D02*X60638Y5313D01*
X63000Y5110D02*Y4704D01*
Y5110D02*X63352Y5313D01*
X63000Y5110D02*X62648Y5313D01*
X64990Y5110D02*Y4704D01*
Y5110D02*X65342Y5313D01*
X64990Y5110D02*X64638Y5313D01*
X66990Y5120D02*Y4714D01*
Y5120D02*X67342Y5323D01*
X66990Y5120D02*X66638Y5323D01*
X69000Y5110D02*Y4704D01*
Y5110D02*X69352Y5313D01*
X69000Y5110D02*X68648Y5313D01*
X71000Y5110D02*Y4704D01*
Y5110D02*X71352Y5313D01*
X71000Y5110D02*X70648Y5313D01*
X73000Y5120D02*Y4714D01*
Y5120D02*X73352Y5323D01*
X73000Y5120D02*X72648Y5323D01*
X75010Y5110D02*Y4704D01*
Y5110D02*X75362Y5313D01*
X75010Y5110D02*X74658Y5313D01*
X75010Y2890D02*Y2484D01*
Y2890D02*X75362Y3093D01*
X75010Y2890D02*X74658Y3093D01*
X73000Y2890D02*Y2484D01*
Y2890D02*X73352Y3093D01*
X73000Y2890D02*X72648Y3093D01*
X70990Y2880D02*Y2474D01*
Y2880D02*X71342Y3083D01*
X70990Y2880D02*X70638Y3083D01*
X69010Y2890D02*Y2484D01*
Y2890D02*X69362Y3093D01*
X69010Y2890D02*X68658Y3093D01*
X67000Y2890D02*Y2484D01*
Y2890D02*X67352Y3093D01*
X67000Y2890D02*X66648Y3093D01*
X64990Y2880D02*Y2474D01*
Y2880D02*X65342Y3083D01*
X64990Y2880D02*X64638Y3083D01*
X63000Y2880D02*Y2474D01*
Y2880D02*X63352Y3083D01*
X63000Y2880D02*X62648Y3083D01*
X61010Y2890D02*Y2484D01*
Y2890D02*X61362Y3093D01*
X61010Y2890D02*X60658Y3093D01*
X59000Y2890D02*Y2484D01*
Y2890D02*X59352Y3093D01*
X59000Y2890D02*X58648Y3093D01*
X57000Y2890D02*Y2484D01*
Y2890D02*X57352Y3093D01*
X57000Y2890D02*X56648Y3093D01*
X54990Y2880D02*Y2474D01*
Y2880D02*X55342Y3083D01*
X54990Y2880D02*X54638Y3083D01*
X53000Y2880D02*Y2474D01*
Y2880D02*X53352Y3083D01*
X53000Y2880D02*X52648Y3083D01*
X51000Y2880D02*Y2474D01*
Y2880D02*X51352Y3083D01*
X51000Y2880D02*X50648Y3083D01*
X49000Y2880D02*Y2474D01*
Y2880D02*X49352Y3083D01*
X49000Y2880D02*X48648Y3083D01*
X47010Y2880D02*Y2474D01*
Y2880D02*X47362Y3083D01*
X47010Y2880D02*X46658Y3083D01*
X45000Y2890D02*Y2484D01*
Y2890D02*X45352Y3093D01*
X45000Y2890D02*X44648Y3093D01*
X43010Y2880D02*Y2474D01*
Y2880D02*X43362Y3083D01*
X43010Y2880D02*X42658Y3083D01*
X41020Y2880D02*Y2474D01*
Y2880D02*X41372Y3083D01*
X41020Y2880D02*X40668Y3083D01*
X38980Y2880D02*Y2474D01*
Y2880D02*X39332Y3083D01*
X38980Y2880D02*X38628Y3083D01*
X36990Y2890D02*Y2484D01*
Y2890D02*X37342Y3093D01*
X36990Y2890D02*X36638Y3093D01*
X55340Y3760D02*Y3354D01*
Y3760D02*X55692Y3963D01*
X55340Y3760D02*X54988Y3963D01*
X56920Y3760D02*Y3354D01*
Y3760D02*X57272Y3963D01*
X56920Y3760D02*X56568Y3963D01*
X4920Y9350D02*Y8944D01*
Y9350D02*X5272Y9553D01*
X4920Y9350D02*X4568Y9553D01*
X22860Y4660D02*Y4254D01*
Y4660D02*X23212Y4863D01*
X22860Y4660D02*X22508Y4863D01*
X3810Y83528D02*Y83121D01*
Y83528D02*X4162Y83731D01*
X3810Y83528D02*X3458Y83731D01*
X34290Y84099D02*X34671Y83337D01*
X35052Y84099D01*
X34671Y83337D02*Y82575D01*
X35509Y83413D02*X36081D01*
X35509Y82575D02*X36271D01*
X35509Y84099D02*Y82575D01*
Y84099D02*X36271D01*
X37490D02*X37681Y83908D01*
X36919Y84099D02*X37490D01*
X36728Y83908D02*X36919Y84099D01*
X36728Y83908D02*Y83528D01*
X36919Y83337D01*
X37490D01*
X37681Y83146D01*
Y82766D01*
X37490Y82575D02*X37681Y82766D01*
X36919Y82575D02*X37490D01*
X36728Y82766D02*X36919Y82575D01*
X25082D02*X25654Y83337D01*
Y83908D02*Y83337D01*
X25464Y84099D02*X25654Y83908D01*
X25082Y84099D02*X25464D01*
X24892Y83908D02*X25082Y84099D01*
X24892Y83908D02*Y83528D01*
X25082Y83337D01*
X25654D01*
X26111Y84099D02*X26873D01*
X26111D02*Y83337D01*
X26302Y83528D01*
X26683D01*
X26873Y83337D01*
Y82766D01*
X26683Y82575D02*X26873Y82766D01*
X26302Y82575D02*X26683D01*
X26111Y82766D02*X26302Y82575D01*
X11430Y82766D02*X11620Y82575D01*
X11430Y83908D02*Y82766D01*
Y83908D02*X11620Y84099D01*
X12002D01*
X12192Y83908D01*
Y82766D01*
X12002Y82575D02*X12192Y82766D01*
X11620Y82575D02*X12002D01*
X11430Y82956D02*X12192Y83718D01*
X12649Y82575D02*X12840D01*
X13297Y82766D02*X13487Y82575D01*
X13297Y83908D02*Y82766D01*
Y83908D02*X13487Y84099D01*
X13868D01*
X14059Y83908D01*
Y82766D01*
X13868Y82575D02*X14059Y82766D01*
X13487Y82575D02*X13868D01*
X13297Y82956D02*X14059Y83718D01*
X14516Y83794D02*X14821Y84099D01*
Y82575D01*
X14516D02*X15088D01*
X15545Y83908D02*X15735Y84099D01*
X16307D01*
X16497Y83908D01*
Y83528D01*
X15545Y82575D02*X16497Y83528D01*
X15545Y82575D02*X16497D01*
X762Y87909D02*X952Y87718D01*
X190Y87909D02*X762D01*
X0Y87718D02*X190Y87909D01*
X0Y87718D02*Y87338D01*
X190Y87147D01*
X762D01*
X952Y86956D01*
Y86576D01*
X762Y86385D02*X952Y86576D01*
X190Y86385D02*X762D01*
X0Y86576D02*X190Y86385D01*
X1410Y87147D02*Y86576D01*
X1600Y86385D01*
X2172Y87147D02*Y86004D01*
X1981Y85814D02*X2172Y86004D01*
X1600Y85814D02*X1981D01*
X1410Y86004D02*X1600Y85814D01*
Y86385D02*X1981D01*
X2172Y86576D01*
X2819Y86956D02*Y86385D01*
Y86956D02*X3010Y87147D01*
X3200D01*
X3391Y86956D01*
Y86385D01*
Y86956D02*X3581Y87147D01*
X3772D01*
X3962Y86956D01*
Y86385D01*
X2629Y87147D02*X2819Y86956D01*
X4420Y87909D02*Y86385D01*
Y86576D02*X4610Y86385D01*
X4991D01*
X5182Y86576D01*
Y86956D02*Y86576D01*
X4991Y87147D02*X5182Y86956D01*
X4610Y87147D02*X4991D01*
X4420Y86956D02*X4610Y87147D01*
X5639Y86956D02*Y86576D01*
Y86956D02*X5829Y87147D01*
X6210D01*
X6401Y86956D01*
Y86576D01*
X6210Y86385D02*X6401Y86576D01*
X5829Y86385D02*X6210D01*
X5639Y86576D02*X5829Y86385D01*
X6858Y87909D02*Y86576D01*
X7049Y86385D01*
X0Y85559D02*X7430D01*
X10604Y87909D02*Y86385D01*
X11100Y87909D02*X11366Y87642D01*
Y86652D01*
X11100Y86385D02*X11366Y86652D01*
X10414Y86385D02*X11100D01*
X10414Y87909D02*X11100D01*
G54D127*X11824Y87528D02*Y87490D01*
G54D126*Y86956D02*Y86385D01*
X12776Y87147D02*X12967Y86956D01*
X12395Y87147D02*X12776D01*
X12205Y86956D02*X12395Y87147D01*
X12205Y86956D02*Y86576D01*
X12395Y86385D01*
X12967Y87147D02*Y86576D01*
X13157Y86385D01*
X12395D02*X12776D01*
X12967Y86576D01*
X13805Y86956D02*Y86385D01*
Y86956D02*X13995Y87147D01*
X14186D01*
X14376Y86956D01*
Y86385D01*
Y86956D02*X14567Y87147D01*
X14757D01*
X14948Y86956D01*
Y86385D01*
X13614Y87147D02*X13805Y86956D01*
X15405Y86385D02*X15596D01*
X16739Y86576D02*X16929Y86385D01*
X16739Y87718D02*X16929Y87909D01*
X16739Y87718D02*Y86576D01*
X17386Y87909D02*X17767D01*
X17577D02*Y86385D01*
X17386D02*X17767D01*
X18415Y86956D02*Y86385D01*
Y86956D02*X18606Y87147D01*
X18796D01*
X18987Y86956D01*
Y86385D01*
X18225Y87147D02*X18415Y86956D01*
X19634Y87147D02*X20206D01*
X19444Y86956D02*X19634Y87147D01*
X19444Y86956D02*Y86576D01*
X19634Y86385D01*
X20206D01*
X20663Y87909D02*Y86385D01*
Y86956D02*X20853Y87147D01*
X21234D01*
X21425Y86956D01*
Y86385D01*
X21882Y87909D02*X22073Y87718D01*
Y86576D01*
X21882Y86385D02*X22073Y86576D01*
X10414Y85559D02*X22530D01*
X24397Y86385D02*X24892D01*
X24130Y86652D02*X24397Y86385D01*
X24130Y87642D02*Y86652D01*
Y87642D02*X24397Y87909D01*
X24892D01*
X25349Y86956D02*Y86576D01*
Y86956D02*X25540Y87147D01*
X25921D01*
X26111Y86956D01*
Y86576D01*
X25921Y86385D02*X26111Y86576D01*
X25540Y86385D02*X25921D01*
X25349Y86576D02*X25540Y86385D01*
X26568Y87147D02*Y86576D01*
X26759Y86385D01*
X27140D01*
X27330Y86576D01*
Y87147D02*Y86576D01*
X27978Y86956D02*Y86385D01*
Y86956D02*X28169Y87147D01*
X28359D01*
X28550Y86956D01*
Y86385D01*
X27788Y87147D02*X27978Y86956D01*
X29197Y87909D02*Y86576D01*
X29388Y86385D01*
X29007Y87338D02*X29388D01*
X24130Y85559D02*X29769D01*
X33210Y87909D02*Y86385D01*
X33020Y87909D02*X33782D01*
X33972Y87718D01*
Y87338D01*
X33782Y87147D02*X33972Y87338D01*
X33210Y87147D02*X33782D01*
X34430Y87909D02*Y86576D01*
X34620Y86385D01*
X35573Y87147D02*X35763Y86956D01*
X35192Y87147D02*X35573D01*
X35001Y86956D02*X35192Y87147D01*
X35001Y86956D02*Y86576D01*
X35192Y86385D01*
X35763Y87147D02*Y86576D01*
X35954Y86385D01*
X35192D02*X35573D01*
X35763Y86576D01*
X36601Y87909D02*Y86576D01*
X36792Y86385D01*
X36411Y87338D02*X36792D01*
X37363Y86385D02*X37935D01*
X37173Y86576D02*X37363Y86385D01*
X37173Y86956D02*Y86576D01*
Y86956D02*X37363Y87147D01*
X37744D01*
X37935Y86956D01*
X37173Y86766D02*X37935D01*
Y86956D02*Y86766D01*
X39154Y87909D02*Y86385D01*
X38964D02*X39154Y86576D01*
X38583Y86385D02*X38964D01*
X38392Y86576D02*X38583Y86385D01*
X38392Y86956D02*Y86576D01*
Y86956D02*X38583Y87147D01*
X38964D01*
X39154Y86956D01*
X39992Y87147D02*Y86956D01*
Y86576D02*Y86385D01*
X39611Y87718D02*Y87528D01*
Y87718D02*X39802Y87909D01*
X40183D01*
X40373Y87718D01*
Y87528D01*
X39992Y87147D02*X40373Y87528D01*
X33020Y85559D02*X40831D01*
X0Y91719D02*X762D01*
X381D02*Y90195D01*
X1219Y91719D02*Y90195D01*
Y90766D02*X1410Y90957D01*
X1791D01*
X1981Y90766D01*
Y90195D01*
X2629D02*X3200D01*
X2438Y90386D02*X2629Y90195D01*
X2438Y90766D02*Y90386D01*
Y90766D02*X2629Y90957D01*
X3010D01*
X3200Y90766D01*
X2438Y90576D02*X3200D01*
Y90766D02*Y90576D01*
X3848Y90766D02*Y90195D01*
Y90766D02*X4039Y90957D01*
X4420D01*
X3658D02*X3848Y90766D01*
X5067Y90195D02*X5639D01*
X4877Y90386D02*X5067Y90195D01*
X4877Y90766D02*Y90386D01*
Y90766D02*X5067Y90957D01*
X5448D01*
X5639Y90766D01*
X4877Y90576D02*X5639D01*
Y90766D02*Y90576D01*
X7353Y90957D02*X7544Y90766D01*
X6972Y90957D02*X7353D01*
X6782Y90766D02*X6972Y90957D01*
X6782Y90766D02*Y90386D01*
X6972Y90195D01*
X7544Y90957D02*Y90386D01*
X7734Y90195D01*
X6972D02*X7353D01*
X7544Y90386D01*
X8382Y90766D02*Y90195D01*
Y90766D02*X8573Y90957D01*
X8954D01*
X8192D02*X8382Y90766D01*
X9601Y90195D02*X10173D01*
X9411Y90386D02*X9601Y90195D01*
X9411Y90766D02*Y90386D01*
Y90766D02*X9601Y90957D01*
X9982D01*
X10173Y90766D01*
X9411Y90576D02*X10173D01*
Y90766D02*Y90576D01*
X11316Y90386D02*X11506Y90195D01*
X11316Y90690D02*Y90386D01*
Y90690D02*X11582Y90957D01*
X11811D01*
X12078Y90690D01*
Y90386D01*
X11887Y90195D02*X12078Y90386D01*
X11506Y90195D02*X11887D01*
X11316Y91224D02*X11582Y90957D01*
X11316Y91528D02*Y91224D01*
Y91528D02*X11506Y91719D01*
X11887D01*
X12078Y91528D01*
Y91224D01*
X11811Y90957D02*X12078Y91224D01*
X13983Y91719D02*Y90195D01*
X13792D02*X13983Y90386D01*
X13411Y90195D02*X13792D01*
X13221Y90386D02*X13411Y90195D01*
X13221Y90766D02*Y90386D01*
Y90766D02*X13411Y90957D01*
X13792D01*
X13983Y90766D01*
G54D127*X14440Y91338D02*Y91300D01*
G54D126*Y90766D02*Y90195D01*
X15011Y91528D02*Y90195D01*
Y91528D02*X15202Y91719D01*
X15392D01*
X14821Y90957D02*X15202D01*
X15964Y91528D02*Y90195D01*
Y91528D02*X16154Y91719D01*
X16345D01*
X15773Y90957D02*X16154D01*
X16916Y90195D02*X17488D01*
X16726Y90386D02*X16916Y90195D01*
X16726Y90766D02*Y90386D01*
Y90766D02*X16916Y90957D01*
X17297D01*
X17488Y90766D01*
X16726Y90576D02*X17488D01*
Y90766D02*Y90576D01*
X18136Y90766D02*Y90195D01*
Y90766D02*X18326Y90957D01*
X18707D01*
X17945D02*X18136Y90766D01*
X19355Y90195D02*X19926D01*
X19164Y90386D02*X19355Y90195D01*
X19164Y90766D02*Y90386D01*
Y90766D02*X19355Y90957D01*
X19736D01*
X19926Y90766D01*
X19164Y90576D02*X19926D01*
Y90766D02*Y90576D01*
X20574Y90766D02*Y90195D01*
Y90766D02*X20765Y90957D01*
X20955D01*
X21146Y90766D01*
Y90195D01*
X20384Y90957D02*X20574Y90766D01*
X21793Y91719D02*Y90386D01*
X21984Y90195D01*
X21603Y91148D02*X21984D01*
X23813Y91719D02*Y90195D01*
X23622D02*X23813Y90386D01*
X23241Y90195D02*X23622D01*
X23051Y90386D02*X23241Y90195D01*
X23051Y90766D02*Y90386D01*
Y90766D02*X23241Y90957D01*
X23622D01*
X23813Y90766D01*
X24460D02*Y90195D01*
Y90766D02*X24651Y90957D01*
X25032D01*
X24270D02*X24460Y90766D01*
G54D127*X25489Y91338D02*Y91300D01*
G54D126*Y90766D02*Y90195D01*
X25870Y91719D02*Y90386D01*
X26060Y90195D01*
X26441Y91719D02*Y90386D01*
X26632Y90195D01*
X27889D02*X28461D01*
X28651Y90386D01*
X28461Y90576D02*X28651Y90386D01*
X27889Y90576D02*X28461D01*
X27699Y90766D02*X27889Y90576D01*
X27699Y90766D02*X27889Y90957D01*
X28461D01*
X28651Y90766D01*
X27699Y90386D02*X27889Y90195D01*
G54D127*X29108Y91338D02*Y91300D01*
G54D126*Y90766D02*Y90195D01*
X29489Y90957D02*X30251D01*
X29489Y90195D02*X30251Y90957D01*
X29489Y90195D02*X30251D01*
X30899D02*X31471D01*
X30709Y90386D02*X30899Y90195D01*
X30709Y90766D02*Y90386D01*
Y90766D02*X30899Y90957D01*
X31280D01*
X31471Y90766D01*
X30709Y90576D02*X31471D01*
Y90766D02*Y90576D01*
X32118Y90195D02*X32690D01*
X32880Y90386D01*
X32690Y90576D02*X32880Y90386D01*
X32118Y90576D02*X32690D01*
X31928Y90766D02*X32118Y90576D01*
X31928Y90766D02*X32118Y90957D01*
X32690D01*
X32880Y90766D01*
X31928Y90386D02*X32118Y90195D01*
X34023Y90957D02*Y90386D01*
X34214Y90195D01*
X34595D01*
X34785Y90386D01*
Y90957D02*Y90386D01*
X35433Y90195D02*X36005D01*
X36195Y90386D01*
X36005Y90576D02*X36195Y90386D01*
X35433Y90576D02*X36005D01*
X35243Y90766D02*X35433Y90576D01*
X35243Y90766D02*X35433Y90957D01*
X36005D01*
X36195Y90766D01*
X35243Y90386D02*X35433Y90195D01*
X36843D02*X37414D01*
X36652Y90386D02*X36843Y90195D01*
X36652Y90766D02*Y90386D01*
Y90766D02*X36843Y90957D01*
X37224D01*
X37414Y90766D01*
X36652Y90576D02*X37414D01*
Y90766D02*Y90576D01*
X38633Y91719D02*Y90195D01*
X38443D02*X38633Y90386D01*
X38062Y90195D02*X38443D01*
X37871Y90386D02*X38062Y90195D01*
X37871Y90766D02*Y90386D01*
Y90766D02*X38062Y90957D01*
X38443D01*
X38633Y90766D01*
G54D127*X39776Y91338D02*Y91300D01*
G54D126*Y90766D02*Y90195D01*
X40348Y90766D02*Y90195D01*
Y90766D02*X40538Y90957D01*
X40729D01*
X40919Y90766D01*
Y90195D01*
X40157Y90957D02*X40348Y90766D01*
X42253Y91719D02*Y90386D01*
X42443Y90195D01*
X42062Y91148D02*X42443D01*
X42824Y91719D02*Y90195D01*
Y90766D02*X43015Y90957D01*
X43396D01*
X43586Y90766D01*
Y90195D01*
G54D127*X44044Y91338D02*Y91300D01*
G54D126*Y90766D02*Y90195D01*
X44615D02*X45187D01*
X45377Y90386D01*
X45187Y90576D02*X45377Y90386D01*
X44615Y90576D02*X45187D01*
X44425Y90766D02*X44615Y90576D01*
X44425Y90766D02*X44615Y90957D01*
X45187D01*
X45377Y90766D01*
X44425Y90386D02*X44615Y90195D01*
X46520Y91719D02*Y90386D01*
X46711Y90195D01*
X47663Y90957D02*X47854Y90766D01*
X47282Y90957D02*X47663D01*
X47092Y90766D02*X47282Y90957D01*
X47092Y90766D02*Y90386D01*
X47282Y90195D01*
X47854Y90957D02*Y90386D01*
X48044Y90195D01*
X47282D02*X47663D01*
X47854Y90386D01*
X48501Y90957D02*Y90386D01*
X48692Y90195D01*
X49263Y90957D02*Y89814D01*
X49073Y89624D02*X49263Y89814D01*
X48692Y89624D02*X49073D01*
X48501Y89814D02*X48692Y89624D01*
Y90195D02*X49073D01*
X49263Y90386D01*
X49721Y90766D02*Y90386D01*
Y90766D02*X49911Y90957D01*
X50292D01*
X50483Y90766D01*
Y90386D01*
X50292Y90195D02*X50483Y90386D01*
X49911Y90195D02*X50292D01*
X49721Y90386D02*X49911Y90195D01*
X50940Y90957D02*Y90386D01*
X51130Y90195D01*
X51511D01*
X51702Y90386D01*
Y90957D02*Y90386D01*
X52349Y91719D02*Y90386D01*
X52540Y90195D01*
X52159Y91148D02*X52540D01*
X52921Y89814D02*X53302Y90195D01*
X54445Y91414D02*X54750Y91719D01*
Y90195D01*
X54445D02*X55016D01*
X55474Y91719D02*X56236D01*
X55474D02*Y90957D01*
X55664Y91148D01*
X56045D01*
X56236Y90957D01*
Y90386D01*
X56045Y90195D02*X56236Y90386D01*
X55664Y90195D02*X56045D01*
X55474Y90386D02*X55664Y90195D01*
X56693Y91528D02*X56883Y91719D01*
X57264D01*
X57455Y91528D01*
X57264Y90195D02*X57455Y90386D01*
X56883Y90195D02*X57264D01*
X56693Y90386D02*X56883Y90195D01*
Y91033D02*X57264D01*
X57455Y91528D02*Y91224D01*
Y90843D02*Y90386D01*
Y90843D02*X57264Y91033D01*
X57455Y91224D02*X57264Y91033D01*
X58598Y91719D02*Y90195D01*
Y90766D02*X58788Y90957D01*
X59169D01*
X59360Y90766D01*
Y90195D01*
X59817Y90766D02*Y90386D01*
Y90766D02*X60008Y90957D01*
X60389D01*
X60579Y90766D01*
Y90386D01*
X60389Y90195D02*X60579Y90386D01*
X60008Y90195D02*X60389D01*
X59817Y90386D02*X60008Y90195D01*
X61036Y91719D02*Y90386D01*
X61227Y90195D01*
X61798D02*X62370D01*
X61608Y90386D02*X61798Y90195D01*
X61608Y90766D02*Y90386D01*
Y90766D02*X61798Y90957D01*
X62179D01*
X62370Y90766D01*
X61608Y90576D02*X62370D01*
Y90766D02*Y90576D01*
X63017Y90195D02*X63589D01*
X63779Y90386D01*
X63589Y90576D02*X63779Y90386D01*
X63017Y90576D02*X63589D01*
X62827Y90766D02*X63017Y90576D01*
X62827Y90766D02*X63017Y90957D01*
X63589D01*
X63779Y90766D01*
X62827Y90386D02*X63017Y90195D01*
X65113Y91719D02*Y90386D01*
X65303Y90195D01*
X64922Y91148D02*X65303D01*
X65684Y90766D02*Y90386D01*
Y90766D02*X65875Y90957D01*
X66256D01*
X66446Y90766D01*
Y90386D01*
X66256Y90195D02*X66446Y90386D01*
X65875Y90195D02*X66256D01*
X65684Y90386D02*X65875Y90195D01*
X67094Y91719D02*Y90386D01*
X67285Y90195D01*
X66904Y91148D02*X67285D01*
X68237Y90957D02*X68428Y90766D01*
X67856Y90957D02*X68237D01*
X67666Y90766D02*X67856Y90957D01*
X67666Y90766D02*Y90386D01*
X67856Y90195D01*
X68428Y90957D02*Y90386D01*
X68618Y90195D01*
X67856D02*X68237D01*
X68428Y90386D01*
X69075Y91719D02*Y90386D01*
X69266Y90195D01*
G54D128*X0Y54000D02*X85000D01*
X0D02*Y0D01*
X85000Y54000D02*Y0D01*
X0D02*X85000D01*
G54D126*X50800Y57429D02*Y55905D01*
Y57429D02*X51372Y56667D01*
X51943Y57429D01*
Y55905D01*
X52972Y56667D02*X53162Y56476D01*
X52591Y56667D02*X52972D01*
X52400Y56476D02*X52591Y56667D01*
X52400Y56476D02*Y56096D01*
X52591Y55905D01*
X53162Y56667D02*Y56096D01*
X53353Y55905D01*
X52591D02*X52972D01*
X53162Y56096D01*
X53810Y56667D02*X54572Y55905D01*
X53810D02*X54572Y56667D01*
G54D127*X55029Y57048D02*Y57010D01*
G54D126*Y56476D02*Y55905D01*
X55601Y56476D02*Y55905D01*
Y56476D02*X55791Y56667D01*
X55982D01*
X56172Y56476D01*
Y55905D01*
Y56476D02*X56363Y56667D01*
X56553D01*
X56744Y56476D01*
Y55905D01*
X55410Y56667D02*X55601Y56476D01*
X57201Y56667D02*Y56096D01*
X57391Y55905D01*
X57772D01*
X57963Y56096D01*
Y56667D02*Y56096D01*
X58611Y56476D02*Y55905D01*
Y56476D02*X58801Y56667D01*
X58992D01*
X59182Y56476D01*
Y55905D01*
Y56476D02*X59373Y56667D01*
X59563D01*
X59754Y56476D01*
Y55905D01*
X58420Y56667D02*X58611Y56476D01*
X61087Y57429D02*Y55905D01*
X61582Y57429D02*X61849Y57162D01*
Y56172D01*
X61582Y55905D02*X61849Y56172D01*
X60897Y55905D02*X61582D01*
X60897Y57429D02*X61582D01*
G54D127*X62306Y57048D02*Y57010D01*
G54D126*Y56476D02*Y55905D01*
X62878Y56476D02*Y55905D01*
Y56476D02*X63068Y56667D01*
X63259D01*
X63449Y56476D01*
Y55905D01*
Y56476D02*X63640Y56667D01*
X63830D01*
X64021Y56476D01*
Y55905D01*
X62687Y56667D02*X62878Y56476D01*
X64668Y55905D02*X65240D01*
X64478Y56096D02*X64668Y55905D01*
X64478Y56476D02*Y56096D01*
Y56476D02*X64668Y56667D01*
X65049D01*
X65240Y56476D01*
X64478Y56286D02*X65240D01*
Y56476D02*Y56286D01*
X65888Y56476D02*Y55905D01*
Y56476D02*X66078Y56667D01*
X66269D01*
X66459Y56476D01*
Y55905D01*
X65697Y56667D02*X65888Y56476D01*
X67107Y55905D02*X67678D01*
X67869Y56096D01*
X67678Y56286D02*X67869Y56096D01*
X67107Y56286D02*X67678D01*
X66916Y56476D02*X67107Y56286D01*
X66916Y56476D02*X67107Y56667D01*
X67678D01*
X67869Y56476D01*
X66916Y56096D02*X67107Y55905D01*
G54D127*X68326Y57048D02*Y57010D01*
G54D126*Y56476D02*Y55905D01*
X68707Y56476D02*Y56096D01*
Y56476D02*X68898Y56667D01*
X69279D01*
X69469Y56476D01*
Y56096D01*
X69279Y55905D02*X69469Y56096D01*
X68898Y55905D02*X69279D01*
X68707Y56096D02*X68898Y55905D01*
X70117Y56476D02*Y55905D01*
Y56476D02*X70307Y56667D01*
X70498D01*
X70688Y56476D01*
Y55905D01*
X69926Y56667D02*X70117Y56476D01*
X71336Y55905D02*X71907D01*
X72098Y56096D01*
X71907Y56286D02*X72098Y56096D01*
X71336Y56286D02*X71907D01*
X71145Y56476D02*X71336Y56286D01*
X71145Y56476D02*X71336Y56667D01*
X71907D01*
X72098Y56476D01*
X71145Y56096D02*X71336Y55905D01*
X72555Y56858D02*X72746D01*
X72555Y56476D02*X72746D01*
X73889Y57238D02*X74079Y57429D01*
X74460D01*
X74651Y57238D01*
X74460Y55905D02*X74651Y56096D01*
X74079Y55905D02*X74460D01*
X73889Y56096D02*X74079Y55905D01*
Y56743D02*X74460D01*
X74651Y57238D02*Y56934D01*
Y56553D02*Y56096D01*
Y56553D02*X74460Y56743D01*
X74651Y56934D02*X74460Y56743D01*
X75108Y57238D02*X75298Y57429D01*
X75679D01*
X75870Y57238D01*
X75679Y55905D02*X75870Y56096D01*
X75298Y55905D02*X75679D01*
X75108Y56096D02*X75298Y55905D01*
Y56743D02*X75679D01*
X75870Y57238D02*Y56934D01*
Y56553D02*Y56096D01*
Y56553D02*X75679Y56743D01*
X75870Y56934D02*X75679Y56743D01*
X76327Y56476D02*X77089Y57429D01*
X76327Y56476D02*X77280D01*
X77089Y57429D02*Y55905D01*
X78308Y57429D02*X78499Y57238D01*
X77927Y57429D02*X78308D01*
X77737Y57238D02*X77927Y57429D01*
X77737Y57238D02*Y56096D01*
X77927Y55905D01*
X78308Y56743D02*X78499Y56553D01*
X77737Y56743D02*X78308D01*
X77927Y55905D02*X78308D01*
X78499Y56096D01*
Y56553D02*Y56096D01*
X78956Y55905D02*X79146D01*
X79604Y56476D02*X80366Y57429D01*
X79604Y56476D02*X80556D01*
X80366Y57429D02*Y55905D01*
X81013Y57429D02*X81775D01*
X81013D02*Y56667D01*
X81204Y56858D01*
X81585D01*
X81775Y56667D01*
Y56096D01*
X81585Y55905D02*X81775Y56096D01*
X81204Y55905D02*X81585D01*
X81013Y56096D02*X81204Y55905D01*
X82804Y57429D02*X82995Y57238D01*
X82423Y57429D02*X82804D01*
X82233Y57238D02*X82423Y57429D01*
X82233Y57238D02*Y56096D01*
X82423Y55905D01*
X82804Y56743D02*X82995Y56553D01*
X82233Y56743D02*X82804D01*
X82423Y55905D02*X82804D01*
X82995Y56096D01*
Y56553D02*Y56096D01*
X84023Y57429D02*X84214Y57238D01*
X83642Y57429D02*X84023D01*
X83452Y57238D02*X83642Y57429D01*
X83452Y57238D02*Y56096D01*
X83642Y55905D01*
X84023Y56743D02*X84214Y56553D01*
X83452Y56743D02*X84023D01*
X83642Y55905D02*X84023D01*
X84214Y56096D01*
Y56553D02*Y56096D01*
X84861Y55905D02*X85433Y56667D01*
Y57238D02*Y56667D01*
X85242Y57429D02*X85433Y57238D01*
X84861Y57429D02*X85242D01*
X84671Y57238D02*X84861Y57429D01*
X84671Y57238D02*Y56858D01*
X84861Y56667D01*
X85433D01*
X85890Y57238D02*X86081Y57429D01*
X86462D01*
X86652Y57238D01*
X86462Y55905D02*X86652Y56096D01*
X86081Y55905D02*X86462D01*
X85890Y56096D02*X86081Y55905D01*
Y56743D02*X86462D01*
X86652Y57238D02*Y56934D01*
Y56553D02*Y56096D01*
Y56553D02*X86462Y56743D01*
X86652Y56934D02*X86462Y56743D01*
X87986Y56476D02*Y55905D01*
Y56476D02*X88176Y56667D01*
X88367D01*
X88557Y56476D01*
Y55905D01*
Y56476D02*X88748Y56667D01*
X88938D01*
X89129Y56476D01*
Y55905D01*
X87795Y56667D02*X87986Y56476D01*
G54D127*X89586Y57048D02*Y57010D01*
G54D126*Y56476D02*Y55905D01*
X89967Y57429D02*Y56096D01*
X90157Y55905D01*
X90729D02*X91300D01*
X91491Y56096D01*
X91300Y56286D02*X91491Y56096D01*
X90729Y56286D02*X91300D01*
X90538Y56476D02*X90729Y56286D01*
X90538Y56476D02*X90729Y56667D01*
X91300D01*
X91491Y56476D01*
X90538Y56096D02*X90729Y55905D01*
X92634Y56667D02*Y56096D01*
X92824Y55905D01*
X93015D01*
X93205Y56096D01*
Y56667D02*Y56096D01*
X93396Y55905D01*
X93586D01*
X93777Y56096D01*
Y56667D02*Y56096D01*
G54D127*X94234Y57048D02*Y57010D01*
G54D126*Y56476D02*Y55905D01*
X95377Y57429D02*Y55905D01*
X95187D02*X95377Y56096D01*
X94806Y55905D02*X95187D01*
X94615Y56096D02*X94806Y55905D01*
X94615Y56476D02*Y56096D01*
Y56476D02*X94806Y56667D01*
X95187D01*
X95377Y56476D01*
X96025Y55905D02*X96596D01*
X95834Y56096D02*X96025Y55905D01*
X95834Y56476D02*Y56096D01*
Y56476D02*X96025Y56667D01*
X96406D01*
X96596Y56476D01*
X95834Y56286D02*X96596D01*
Y56476D02*Y56286D01*
X97053Y55524D02*X97434Y55905D01*
X98577Y57238D02*X98768Y57429D01*
X99339D01*
X99530Y57238D01*
Y56858D01*
X98577Y55905D02*X99530Y56858D01*
X98577Y55905D02*X99530D01*
X99987Y57124D02*X100292Y57429D01*
Y55905D01*
X99987D02*X100559D01*
X101016Y57238D02*X101206Y57429D01*
X101778D01*
X101968Y57238D01*
Y56858D01*
X101016Y55905D02*X101968Y56858D01*
X101016Y55905D02*X101968D01*
X102426Y57429D02*X103188D01*
X102426D02*Y56667D01*
X102616Y56858D01*
X102997D01*
X103188Y56667D01*
Y56096D01*
X102997Y55905D02*X103188Y56096D01*
X102616Y55905D02*X102997D01*
X102426Y56096D02*X102616Y55905D01*
X103645D02*X103835D01*
X104483D02*X105054Y56667D01*
Y57238D02*Y56667D01*
X104864Y57429D02*X105054Y57238D01*
X104483Y57429D02*X104864D01*
X104292Y57238D02*X104483Y57429D01*
X104292Y57238D02*Y56858D01*
X104483Y56667D01*
X105054D01*
X105512Y56096D02*X105702Y55905D01*
X105512Y56400D02*Y56096D01*
Y56400D02*X105778Y56667D01*
X106007D01*
X106274Y56400D01*
Y56096D01*
X106083Y55905D02*X106274Y56096D01*
X105702Y55905D02*X106083D01*
X105512Y56934D02*X105778Y56667D01*
X105512Y57238D02*Y56934D01*
Y57238D02*X105702Y57429D01*
X106083D01*
X106274Y57238D01*
Y56934D01*
X106007Y56667D02*X106274Y56934D01*
X106731Y56476D02*X107493Y57429D01*
X106731Y56476D02*X107683D01*
X107493Y57429D02*Y55905D01*
X108141Y57238D02*X108331Y57429D01*
X108903D01*
X109093Y57238D01*
Y56858D01*
X108141Y55905D02*X109093Y56858D01*
X108141Y55905D02*X109093D01*
X109550Y57429D02*X110312D01*
X109550D02*Y56667D01*
X109741Y56858D01*
X110122D01*
X110312Y56667D01*
Y56096D01*
X110122Y55905D02*X110312Y56096D01*
X109741Y55905D02*X110122D01*
X109550Y56096D02*X109741Y55905D01*
X110769Y57238D02*X110960Y57429D01*
X111531D01*
X111722Y57238D01*
Y56858D01*
X110769Y55905D02*X111722Y56858D01*
X110769Y55905D02*X111722D01*
X113055Y56476D02*Y55905D01*
Y56476D02*X113246Y56667D01*
X113436D01*
X113627Y56476D01*
Y55905D01*
Y56476D02*X113817Y56667D01*
X114008D01*
X114198Y56476D01*
Y55905D01*
X112865Y56667D02*X113055Y56476D01*
G54D127*X114656Y57048D02*Y57010D01*
G54D126*Y56476D02*Y55905D01*
X115037Y57429D02*Y56096D01*
X115227Y55905D01*
X115799D02*X116370D01*
X116561Y56096D01*
X116370Y56286D02*X116561Y56096D01*
X115799Y56286D02*X116370D01*
X115608Y56476D02*X115799Y56286D01*
X115608Y56476D02*X115799Y56667D01*
X116370D01*
X116561Y56476D01*
X115608Y56096D02*X115799Y55905D01*
X117704Y57429D02*Y55905D01*
Y56476D02*X117894Y56667D01*
X118275D01*
X118466Y56476D01*
Y55905D01*
G54D127*X118923Y57048D02*Y57010D01*
G54D126*Y56476D02*Y55905D01*
X119875Y56667D02*X120066Y56476D01*
X119494Y56667D02*X119875D01*
X119304Y56476D02*X119494Y56667D01*
X119304Y56476D02*Y56096D01*
X119494Y55905D01*
X119875D01*
X120066Y56096D01*
X119304Y55524D02*X119494Y55334D01*
X119875D01*
X120066Y55524D01*
Y56667D02*Y55524D01*
X120523Y57429D02*Y55905D01*
Y56476D02*X120714Y56667D01*
X121095D01*
X121285Y56476D01*
Y55905D01*
X0Y-2413D02*X762D01*
X952Y-2222D01*
Y-1765D02*Y-2222D01*
X762Y-1575D02*X952Y-1765D01*
X190Y-1575D02*X762D01*
X190Y-889D02*Y-2413D01*
X0Y-889D02*X762D01*
X952Y-1080D01*
Y-1384D01*
X762Y-1575D02*X952Y-1384D01*
X1410Y-1842D02*Y-2222D01*
Y-1842D02*X1600Y-1651D01*
X1981D01*
X2172Y-1842D01*
Y-2222D01*
X1981Y-2413D02*X2172Y-2222D01*
X1600Y-2413D02*X1981D01*
X1410Y-2222D02*X1600Y-2413D01*
X3200Y-1651D02*X3391Y-1842D01*
X2819Y-1651D02*X3200D01*
X2629Y-1842D02*X2819Y-1651D01*
X2629Y-1842D02*Y-2222D01*
X2819Y-2413D01*
X3391Y-1651D02*Y-2222D01*
X3581Y-2413D01*
X2819D02*X3200D01*
X3391Y-2222D01*
X4229Y-1842D02*Y-2413D01*
Y-1842D02*X4420Y-1651D01*
X4801D01*
X4039D02*X4229Y-1842D01*
X6020Y-889D02*Y-2413D01*
X5829D02*X6020Y-2222D01*
X5448Y-2413D02*X5829D01*
X5258Y-2222D02*X5448Y-2413D01*
X5258Y-1842D02*Y-2222D01*
Y-1842D02*X5448Y-1651D01*
X5829D01*
X6020Y-1842D01*
X7163D02*Y-2222D01*
Y-1842D02*X7353Y-1651D01*
X7734D01*
X7925Y-1842D01*
Y-2222D01*
X7734Y-2413D02*X7925Y-2222D01*
X7353Y-2413D02*X7734D01*
X7163Y-2222D02*X7353Y-2413D01*
X8382Y-1651D02*Y-2222D01*
X8573Y-2413D01*
X8954D01*
X9144Y-2222D01*
Y-1651D02*Y-2222D01*
X9792Y-889D02*Y-2222D01*
X9982Y-2413D01*
X9601Y-1460D02*X9982D01*
X10363Y-889D02*Y-2222D01*
X10554Y-2413D01*
G54D127*X10935Y-1270D02*Y-1308D01*
G54D126*Y-1842D02*Y-2413D01*
X11506Y-1842D02*Y-2413D01*
Y-1842D02*X11697Y-1651D01*
X11887D01*
X12078Y-1842D01*
Y-2413D01*
X11316Y-1651D02*X11506Y-1842D01*
X12725Y-2413D02*X13297D01*
X12535Y-2222D02*X12725Y-2413D01*
X12535Y-1842D02*Y-2222D01*
Y-1842D02*X12725Y-1651D01*
X13106D01*
X13297Y-1842D01*
X12535Y-2032D02*X13297D01*
Y-1842D02*Y-2032D01*
G54D127*X14440Y-1270D02*Y-1308D01*
G54D126*Y-1842D02*Y-2413D01*
X15011D02*X15583D01*
X15773Y-2222D01*
X15583Y-2032D02*X15773Y-2222D01*
X15011Y-2032D02*X15583D01*
X14821Y-1842D02*X15011Y-2032D01*
X14821Y-1842D02*X15011Y-1651D01*
X15583D01*
X15773Y-1842D01*
X14821Y-2222D02*X15011Y-2413D01*
X17107Y-889D02*Y-2222D01*
X17297Y-2413D01*
X16916Y-1460D02*X17297D01*
X17678Y-889D02*Y-2413D01*
Y-1842D02*X17869Y-1651D01*
X18250D01*
X18440Y-1842D01*
Y-2413D01*
X19088D02*X19660D01*
X18898Y-2222D02*X19088Y-2413D01*
X18898Y-1842D02*Y-2222D01*
Y-1842D02*X19088Y-1651D01*
X19469D01*
X19660Y-1842D01*
X18898Y-2032D02*X19660D01*
Y-1842D02*Y-2032D01*
X20993Y-1651D02*X21565D01*
X20803Y-1842D02*X20993Y-1651D01*
X20803Y-1842D02*Y-2222D01*
X20993Y-2413D01*
X21565D01*
X22212D02*X22784D01*
X22022Y-2222D02*X22212Y-2413D01*
X22022Y-1842D02*Y-2222D01*
Y-1842D02*X22212Y-1651D01*
X22593D01*
X22784Y-1842D01*
X22022Y-2032D02*X22784D01*
Y-1842D02*Y-2032D01*
X23432Y-1842D02*Y-2413D01*
Y-1842D02*X23622Y-1651D01*
X23813D01*
X24003Y-1842D01*
Y-2413D01*
X23241Y-1651D02*X23432Y-1842D01*
X24651Y-889D02*Y-2222D01*
X24841Y-2413D01*
X24460Y-1460D02*X24841D01*
X25413Y-2413D02*X25984D01*
X25222Y-2222D02*X25413Y-2413D01*
X25222Y-1842D02*Y-2222D01*
Y-1842D02*X25413Y-1651D01*
X25794D01*
X25984Y-1842D01*
X25222Y-2032D02*X25984D01*
Y-1842D02*Y-2032D01*
X26632Y-1842D02*Y-2413D01*
Y-1842D02*X26822Y-1651D01*
X27203D01*
X26441D02*X26632Y-1842D01*
X27661Y-889D02*Y-2222D01*
X27851Y-2413D01*
G54D127*X28232Y-1270D02*Y-1308D01*
G54D126*Y-1842D02*Y-2413D01*
X28804Y-1842D02*Y-2413D01*
Y-1842D02*X28994Y-1651D01*
X29185D01*
X29375Y-1842D01*
Y-2413D01*
X28613Y-1651D02*X28804Y-1842D01*
X30023Y-2413D02*X30594D01*
X29832Y-2222D02*X30023Y-2413D01*
X29832Y-1842D02*Y-2222D01*
Y-1842D02*X30023Y-1651D01*
X30404D01*
X30594Y-1842D01*
X29832Y-2032D02*X30594D01*
Y-1842D02*Y-2032D01*
X31737Y-1842D02*Y-2222D01*
Y-1842D02*X31928Y-1651D01*
X32309D01*
X32499Y-1842D01*
Y-2222D01*
X32309Y-2413D02*X32499Y-2222D01*
X31928Y-2413D02*X32309D01*
X31737Y-2222D02*X31928Y-2413D01*
X33147Y-1080D02*Y-2413D01*
Y-1080D02*X33338Y-889D01*
X33528D01*
X32957Y-1651D02*X33338D01*
X34785Y-889D02*Y-2222D01*
X34976Y-2413D01*
X34595Y-1460D02*X34976D01*
X35357Y-889D02*Y-2413D01*
Y-1842D02*X35547Y-1651D01*
X35928D01*
X36119Y-1842D01*
Y-2413D01*
G54D127*X36576Y-1270D02*Y-1308D01*
G54D126*Y-1842D02*Y-2413D01*
X37148D02*X37719D01*
X37910Y-2222D01*
X37719Y-2032D02*X37910Y-2222D01*
X37148Y-2032D02*X37719D01*
X36957Y-1842D02*X37148Y-2032D01*
X36957Y-1842D02*X37148Y-1651D01*
X37719D01*
X37910Y-1842D01*
X36957Y-2222D02*X37148Y-2413D01*
X39053Y-2222D02*X39243Y-2413D01*
X39053Y-1918D02*Y-2222D01*
Y-1918D02*X39319Y-1651D01*
X39548D01*
X39815Y-1918D01*
Y-2222D01*
X39624Y-2413D02*X39815Y-2222D01*
X39243Y-2413D02*X39624D01*
X39053Y-1384D02*X39319Y-1651D01*
X39053Y-1080D02*Y-1384D01*
Y-1080D02*X39243Y-889D01*
X39624D01*
X39815Y-1080D01*
Y-1384D01*
X39548Y-1651D02*X39815Y-1384D01*
X40272Y-2413D02*X40462D01*
X40919Y-2222D02*X41110Y-2413D01*
X40919Y-1080D02*Y-2222D01*
Y-1080D02*X41110Y-889D01*
X41491D01*
X41681Y-1080D01*
Y-2222D01*
X41491Y-2413D02*X41681Y-2222D01*
X41110Y-2413D02*X41491D01*
X40919Y-2032D02*X41681Y-1270D01*
X42139Y-2222D02*X42329Y-2413D01*
X42139Y-1080D02*Y-2222D01*
Y-1080D02*X42329Y-889D01*
X42710D01*
X42901Y-1080D01*
Y-2222D01*
X42710Y-2413D02*X42901Y-2222D01*
X42329Y-2413D02*X42710D01*
X42139Y-2032D02*X42901Y-1270D01*
X43358Y-2222D02*X43548Y-2413D01*
X43358Y-1080D02*Y-2222D01*
Y-1080D02*X43548Y-889D01*
X43929D01*
X44120Y-1080D01*
Y-2222D01*
X43929Y-2413D02*X44120Y-2222D01*
X43548Y-2413D02*X43929D01*
X43358Y-2032D02*X44120Y-1270D01*
X44577Y-2222D02*X44768Y-2413D01*
X44577Y-1080D02*Y-2222D01*
Y-1080D02*X44768Y-889D01*
X45149D01*
X45339Y-1080D01*
Y-2222D01*
X45149Y-2413D02*X45339Y-2222D01*
X44768Y-2413D02*X45149D01*
X44577Y-2032D02*X45339Y-1270D01*
X45796Y-2222D02*X45987Y-2413D01*
X45796Y-1080D02*Y-2222D01*
Y-1080D02*X45987Y-889D01*
X46368D01*
X46558Y-1080D01*
Y-2222D01*
X46368Y-2413D02*X46558Y-2222D01*
X45987Y-2413D02*X46368D01*
X45796Y-2032D02*X46558Y-1270D01*
X47015Y-2222D02*X47206Y-2413D01*
X47015Y-1080D02*Y-2222D01*
Y-1080D02*X47206Y-889D01*
X47587D01*
X47777Y-1080D01*
Y-2222D01*
X47587Y-2413D02*X47777Y-2222D01*
X47206Y-2413D02*X47587D01*
X47015Y-2032D02*X47777Y-1270D01*
X49111Y-1842D02*Y-2413D01*
Y-1842D02*X49301Y-1651D01*
X49492D01*
X49682Y-1842D01*
Y-2413D01*
Y-1842D02*X49873Y-1651D01*
X50063D01*
X50254Y-1842D01*
Y-2413D01*
X48920Y-1651D02*X49111Y-1842D01*
G54D127*X50711Y-1270D02*Y-1308D01*
G54D126*Y-1842D02*Y-2413D01*
X51092Y-889D02*Y-2222D01*
X51283Y-2413D01*
X52540Y-1842D02*Y-2413D01*
Y-1842D02*X52730Y-1651D01*
X53111D01*
X52349D02*X52540Y-1842D01*
X53759Y-2413D02*X54331D01*
X53569Y-2222D02*X53759Y-2413D01*
X53569Y-1842D02*Y-2222D01*
Y-1842D02*X53759Y-1651D01*
X54140D01*
X54331Y-1842D01*
X53569Y-2032D02*X54331D01*
Y-1842D02*Y-2032D01*
X54978Y-1651D02*X55550D01*
X54788Y-1842D02*X54978Y-1651D01*
X54788Y-1842D02*Y-2222D01*
X54978Y-2413D01*
X55550D01*
X56198Y-889D02*Y-2222D01*
X56388Y-2413D01*
X56007Y-1460D02*X56388D01*
X57341Y-1651D02*X57531Y-1842D01*
X56960Y-1651D02*X57341D01*
X56769Y-1842D02*X56960Y-1651D01*
X56769Y-1842D02*Y-2222D01*
X56960Y-2413D01*
X57531Y-1651D02*Y-2222D01*
X57722Y-2413D01*
X56960D02*X57341D01*
X57531Y-2222D01*
X58369Y-1842D02*Y-2413D01*
Y-1842D02*X58560Y-1651D01*
X58750D01*
X58941Y-1842D01*
Y-2413D01*
X58179Y-1651D02*X58369Y-1842D01*
X59969Y-1651D02*X60160Y-1842D01*
X59588Y-1651D02*X59969D01*
X59398Y-1842D02*X59588Y-1651D01*
X59398Y-1842D02*Y-2222D01*
X59588Y-2413D01*
X59969D01*
X60160Y-2222D01*
X59398Y-2794D02*X59588Y-2984D01*
X59969D01*
X60160Y-2794D01*
Y-1651D02*Y-2794D01*
X60617Y-889D02*Y-2222D01*
X60808Y-2413D01*
X61379D02*X61951D01*
X61189Y-2222D02*X61379Y-2413D01*
X61189Y-1842D02*Y-2222D01*
Y-1842D02*X61379Y-1651D01*
X61760D01*
X61951Y-1842D01*
X61189Y-2032D02*X61951D01*
Y-1842D02*Y-2032D01*
X63094Y-1651D02*X63856D01*
X64999Y-2222D02*X65189Y-2413D01*
X64999Y-1080D02*Y-2222D01*
Y-1080D02*X65189Y-889D01*
X65570D01*
X65761Y-1080D01*
Y-2222D01*
X65570Y-2413D02*X65761Y-2222D01*
X65189Y-2413D02*X65570D01*
X64999Y-2032D02*X65761Y-1270D01*
X66218Y-2794D02*X66599Y-2413D01*
X67056Y-2222D02*X67247Y-2413D01*
X67056Y-1080D02*Y-2222D01*
Y-1080D02*X67247Y-889D01*
X67628D01*
X67818Y-1080D01*
Y-2222D01*
X67628Y-2413D02*X67818Y-2222D01*
X67247Y-2413D02*X67628D01*
X67056Y-2032D02*X67818Y-1270D01*
X69152Y-889D02*Y-2222D01*
X69342Y-2413D01*
X68961Y-1460D02*X69342D01*
X69723Y-1842D02*Y-2222D01*
Y-1842D02*X69914Y-1651D01*
X70295D01*
X70485Y-1842D01*
Y-2222D01*
X70295Y-2413D02*X70485Y-2222D01*
X69914Y-2413D02*X70295D01*
X69723Y-2222D02*X69914Y-2413D01*
X71628Y-1080D02*X71819Y-889D01*
X72200D01*
X72390Y-1080D01*
X72200Y-2413D02*X72390Y-2222D01*
X71819Y-2413D02*X72200D01*
X71628Y-2222D02*X71819Y-2413D01*
Y-1575D02*X72200D01*
X72390Y-1080D02*Y-1384D01*
Y-1765D02*Y-2222D01*
Y-1765D02*X72200Y-1575D01*
X72390Y-1384D02*X72200Y-1575D01*
X72847Y-1080D02*X73038Y-889D01*
X73419D01*
X73609Y-1080D01*
X73419Y-2413D02*X73609Y-2222D01*
X73038Y-2413D02*X73419D01*
X72847Y-2222D02*X73038Y-2413D01*
Y-1575D02*X73419D01*
X73609Y-1080D02*Y-1384D01*
Y-1765D02*Y-2222D01*
Y-1765D02*X73419Y-1575D01*
X73609Y-1384D02*X73419Y-1575D01*
X74066Y-1842D02*X74828Y-889D01*
X74066Y-1842D02*X75019D01*
X74828Y-889D02*Y-2413D01*
X76048Y-889D02*X76238Y-1080D01*
X75667Y-889D02*X76048D01*
X75476Y-1080D02*X75667Y-889D01*
X75476Y-1080D02*Y-2222D01*
X75667Y-2413D01*
X76048Y-1575D02*X76238Y-1765D01*
X75476Y-1575D02*X76048D01*
X75667Y-2413D02*X76048D01*
X76238Y-2222D01*
Y-1765D02*Y-2222D01*
X76695Y-2413D02*X76886D01*
X77343Y-1842D02*X78105Y-889D01*
X77343Y-1842D02*X78296D01*
X78105Y-889D02*Y-2413D01*
X78753Y-889D02*X79515D01*
X78753D02*Y-1651D01*
X78943Y-1460D01*
X79324D01*
X79515Y-1651D01*
Y-2222D01*
X79324Y-2413D02*X79515Y-2222D01*
X78943Y-2413D02*X79324D01*
X78753Y-2222D02*X78943Y-2413D01*
X80543Y-889D02*X80734Y-1080D01*
X80162Y-889D02*X80543D01*
X79972Y-1080D02*X80162Y-889D01*
X79972Y-1080D02*Y-2222D01*
X80162Y-2413D01*
X80543Y-1575D02*X80734Y-1765D01*
X79972Y-1575D02*X80543D01*
X80162Y-2413D02*X80543D01*
X80734Y-2222D01*
Y-1765D02*Y-2222D01*
X81763Y-889D02*X81953Y-1080D01*
X81382Y-889D02*X81763D01*
X81191Y-1080D02*X81382Y-889D01*
X81191Y-1080D02*Y-2222D01*
X81382Y-2413D01*
X81763Y-1575D02*X81953Y-1765D01*
X81191Y-1575D02*X81763D01*
X81382Y-2413D02*X81763D01*
X81953Y-2222D01*
Y-1765D02*Y-2222D01*
X82601Y-2413D02*X83172Y-1651D01*
Y-1080D02*Y-1651D01*
X82982Y-889D02*X83172Y-1080D01*
X82601Y-889D02*X82982D01*
X82410Y-1080D02*X82601Y-889D01*
X82410Y-1080D02*Y-1460D01*
X82601Y-1651D01*
X83172D01*
X83630Y-1080D02*X83820Y-889D01*
X84201D01*
X84392Y-1080D01*
X84201Y-2413D02*X84392Y-2222D01*
X83820Y-2413D02*X84201D01*
X83630Y-2222D02*X83820Y-2413D01*
Y-1575D02*X84201D01*
X84392Y-1080D02*Y-1384D01*
Y-1765D02*Y-2222D01*
Y-1765D02*X84201Y-1575D01*
X84392Y-1384D02*X84201Y-1575D01*
X84849Y-2794D02*X85230Y-2413D01*
X85687Y-1080D02*X85878Y-889D01*
X86449D01*
X86640Y-1080D01*
Y-1460D01*
X85687Y-2413D02*X86640Y-1460D01*
X85687Y-2413D02*X86640D01*
X87097Y-1194D02*X87402Y-889D01*
Y-2413D01*
X87097D02*X87668D01*
X88125Y-1080D02*X88316Y-889D01*
X88887D01*
X89078Y-1080D01*
Y-1460D01*
X88125Y-2413D02*X89078Y-1460D01*
X88125Y-2413D02*X89078D01*
X89535Y-889D02*X90297D01*
X89535D02*Y-1651D01*
X89726Y-1460D01*
X90107D01*
X90297Y-1651D01*
Y-2222D01*
X90107Y-2413D02*X90297Y-2222D01*
X89726Y-2413D02*X90107D01*
X89535Y-2222D02*X89726Y-2413D01*
X90754D02*X90945D01*
X91593D02*X92164Y-1651D01*
Y-1080D02*Y-1651D01*
X91974Y-889D02*X92164Y-1080D01*
X91593Y-889D02*X91974D01*
X91402Y-1080D02*X91593Y-889D01*
X91402Y-1080D02*Y-1460D01*
X91593Y-1651D01*
X92164D01*
X92621Y-2222D02*X92812Y-2413D01*
X92621Y-1918D02*Y-2222D01*
Y-1918D02*X92888Y-1651D01*
X93117D01*
X93383Y-1918D01*
Y-2222D01*
X93193Y-2413D02*X93383Y-2222D01*
X92812Y-2413D02*X93193D01*
X92621Y-1384D02*X92888Y-1651D01*
X92621Y-1080D02*Y-1384D01*
Y-1080D02*X92812Y-889D01*
X93193D01*
X93383Y-1080D01*
Y-1384D01*
X93117Y-1651D02*X93383Y-1384D01*
X93840Y-1842D02*X94602Y-889D01*
X93840Y-1842D02*X94793D01*
X94602Y-889D02*Y-2413D01*
X95250Y-1080D02*X95441Y-889D01*
X96012D01*
X96203Y-1080D01*
Y-1460D01*
X95250Y-2413D02*X96203Y-1460D01*
X95250Y-2413D02*X96203D01*
X96660Y-889D02*X97422D01*
X96660D02*Y-1651D01*
X96850Y-1460D01*
X97231D01*
X97422Y-1651D01*
Y-2222D01*
X97231Y-2413D02*X97422Y-2222D01*
X96850Y-2413D02*X97231D01*
X96660Y-2222D02*X96850Y-2413D01*
X97879Y-1080D02*X98070Y-889D01*
X98641D01*
X98832Y-1080D01*
Y-1460D01*
X97879Y-2413D02*X98832Y-1460D01*
X97879Y-2413D02*X98832D01*
X100165Y-1842D02*Y-2413D01*
Y-1842D02*X100356Y-1651D01*
X100546D01*
X100737Y-1842D01*
Y-2413D01*
Y-1842D02*X100927Y-1651D01*
X101118D01*
X101308Y-1842D01*
Y-2413D01*
X99975Y-1651D02*X100165Y-1842D01*
G54D127*X101765Y-1270D02*Y-1308D01*
G54D126*Y-1842D02*Y-2413D01*
X102146Y-889D02*Y-2222D01*
X102337Y-2413D01*
X102908D02*X103480D01*
X103670Y-2222D01*
X103480Y-2032D02*X103670Y-2222D01*
X102908Y-2032D02*X103480D01*
X102718Y-1842D02*X102908Y-2032D01*
X102718Y-1842D02*X102908Y-1651D01*
X103480D01*
X103670Y-1842D01*
X102718Y-2222D02*X102908Y-2413D01*
X50990Y61239D02*Y59715D01*
X51486Y61239D02*X51752Y60972D01*
Y59982D01*
X51486Y59715D02*X51752Y59982D01*
X50800Y59715D02*X51486D01*
X50800Y61239D02*X51486D01*
X52781Y60477D02*X52972Y60286D01*
X52400Y60477D02*X52781D01*
X52210Y60286D02*X52400Y60477D01*
X52210Y60286D02*Y59906D01*
X52400Y59715D01*
X52972Y60477D02*Y59906D01*
X53162Y59715D01*
X52400D02*X52781D01*
X52972Y59906D01*
X53810Y61239D02*Y59906D01*
X54000Y59715D01*
X53619Y60668D02*X54000D01*
X54572Y59715D02*X55143D01*
X54381Y59906D02*X54572Y59715D01*
X54381Y60286D02*Y59906D01*
Y60286D02*X54572Y60477D01*
X54953D01*
X55143Y60286D01*
X54381Y60096D02*X55143D01*
Y60286D02*Y60096D01*
X55601Y60668D02*X55791D01*
X55601Y60286D02*X55791D01*
X56934Y61239D02*Y59715D01*
Y61239D02*X57506Y60477D01*
X58077Y61239D01*
Y59715D01*
X58534Y60286D02*Y59906D01*
Y60286D02*X58725Y60477D01*
X59106D01*
X59296Y60286D01*
Y59906D01*
X59106Y59715D02*X59296Y59906D01*
X58725Y59715D02*X59106D01*
X58534Y59906D02*X58725Y59715D01*
X59944Y60286D02*Y59715D01*
Y60286D02*X60135Y60477D01*
X60325D01*
X60516Y60286D01*
Y59715D01*
X59754Y60477D02*X59944Y60286D01*
X61659Y60934D02*X61963Y61239D01*
Y59715D01*
X61659D02*X62230D01*
X62878D02*X63640Y61239D01*
X62687D02*X63640D01*
X65545D02*X65735Y61048D01*
X64973Y61239D02*X65545D01*
X64783Y61048D02*X64973Y61239D01*
X64783Y61048D02*Y60668D01*
X64973Y60477D01*
X65545D01*
X65735Y60286D01*
Y59906D01*
X65545Y59715D02*X65735Y59906D01*
X64973Y59715D02*X65545D01*
X64783Y59906D02*X64973Y59715D01*
X66383D02*X66954D01*
X66192Y59906D02*X66383Y59715D01*
X66192Y60286D02*Y59906D01*
Y60286D02*X66383Y60477D01*
X66764D01*
X66954Y60286D01*
X66192Y60096D02*X66954D01*
Y60286D02*Y60096D01*
X67602Y60286D02*Y59144D01*
X67412Y60477D02*X67602Y60286D01*
X67793Y60477D01*
X68174D01*
X68364Y60286D01*
Y59906D01*
X68174Y59715D02*X68364Y59906D01*
X67793Y59715D02*X68174D01*
X67602Y59906D02*X67793Y59715D01*
X69507Y61048D02*X69698Y61239D01*
X70269D01*
X70460Y61048D01*
Y60668D01*
X69507Y59715D02*X70460Y60668D01*
X69507Y59715D02*X70460D01*
X70917Y59906D02*X71107Y59715D01*
X70917Y61048D02*Y59906D01*
Y61048D02*X71107Y61239D01*
X71488D01*
X71679Y61048D01*
Y59906D01*
X71488Y59715D02*X71679Y59906D01*
X71107Y59715D02*X71488D01*
X70917Y60096D02*X71679Y60858D01*
X72136Y60934D02*X72441Y61239D01*
Y59715D01*
X72136D02*X72708D01*
X73165Y59906D02*X73355Y59715D01*
X73165Y60210D02*Y59906D01*
Y60210D02*X73431Y60477D01*
X73660D01*
X73927Y60210D01*
Y59906D01*
X73736Y59715D02*X73927Y59906D01*
X73355Y59715D02*X73736D01*
X73165Y60744D02*X73431Y60477D01*
X73165Y61048D02*Y60744D01*
Y61048D02*X73355Y61239D01*
X73736D01*
X73927Y61048D01*
Y60744D01*
X73660Y60477D02*X73927Y60744D01*
X75070Y60934D02*X75375Y61239D01*
Y59715D01*
X75070D02*X75641D01*
X76098Y61048D02*X76289Y61239D01*
X76860D01*
X77051Y61048D01*
Y60668D01*
X76098Y59715D02*X77051Y60668D01*
X76098Y59715D02*X77051D01*
X77508Y60668D02*X77699D01*
X77508Y60286D02*X77699D01*
X78156Y61048D02*X78346Y61239D01*
X78727D01*
X78918Y61048D01*
X78727Y59715D02*X78918Y59906D01*
X78346Y59715D02*X78727D01*
X78156Y59906D02*X78346Y59715D01*
Y60553D02*X78727D01*
X78918Y61048D02*Y60744D01*
Y60363D02*Y59906D01*
Y60363D02*X78727Y60553D01*
X78918Y60744D02*X78727Y60553D01*
X79375Y60286D02*X80137Y61239D01*
X79375Y60286D02*X80328D01*
X80137Y61239D02*Y59715D01*
X80785Y60668D02*X80975D01*
X80785Y60286D02*X80975D01*
X81432Y59906D02*X81623Y59715D01*
X81432Y61048D02*Y59906D01*
Y61048D02*X81623Y61239D01*
X82004D01*
X82194Y61048D01*
Y59906D01*
X82004Y59715D02*X82194Y59906D01*
X81623Y59715D02*X82004D01*
X81432Y60096D02*X82194Y60858D01*
X83223Y61239D02*X83414Y61048D01*
X82842Y61239D02*X83223D01*
X82652Y61048D02*X82842Y61239D01*
X82652Y61048D02*Y59906D01*
X82842Y59715D01*
X83223Y60553D02*X83414Y60363D01*
X82652Y60553D02*X83223D01*
X82842Y59715D02*X83223D01*
X83414Y59906D01*
Y60363D02*Y59906D01*
X84747Y61239D02*Y59715D01*
X84557Y61239D02*X85319D01*
X85509Y61048D01*
Y60668D01*
X85319Y60477D02*X85509Y60668D01*
X84747Y60477D02*X85319D01*
X85966Y61239D02*Y59715D01*
Y61239D02*X86538Y60477D01*
X87109Y61239D01*
Y59715D01*
X89014Y61239D02*X89205Y61048D01*
X88443Y61239D02*X89014D01*
X88252Y61048D02*X88443Y61239D01*
X88252Y61048D02*Y59906D01*
X88443Y59715D01*
X89014D01*
X89205Y59906D01*
Y60286D02*Y59906D01*
X89014Y60477D02*X89205Y60286D01*
X88633Y60477D02*X89014D01*
X89662Y61239D02*Y59715D01*
Y61239D02*X90234Y60477D01*
X90805Y61239D01*
Y59715D01*
X91262Y61239D02*X92024D01*
X91643D02*Y59715D01*
X93167Y61239D02*Y59906D01*
X93358Y59715D01*
X93739D01*
X93929Y59906D01*
Y61239D02*Y59906D01*
X94386Y61239D02*X95148D01*
X94767D02*Y59715D01*
X95872D02*X96368D01*
X95606Y59982D02*X95872Y59715D01*
X95606Y60972D02*Y59982D01*
Y60972D02*X95872Y61239D01*
X96368D01*
X50800Y64668D02*Y63525D01*
Y64668D02*X51067Y65049D01*
X51486D01*
X51752Y64668D01*
Y63525D01*
X50800Y64287D02*X51752D01*
X52210D02*Y63716D01*
X52400Y63525D01*
X52781D01*
X52972Y63716D01*
Y64287D02*Y63716D01*
X53619Y65049D02*Y63716D01*
X53810Y63525D01*
X53429Y64478D02*X53810D01*
X54191Y65049D02*Y63525D01*
Y64097D02*X54381Y64287D01*
X54762D01*
X54953Y64097D01*
Y63525D01*
X55410Y64097D02*Y63716D01*
Y64097D02*X55601Y64287D01*
X55982D01*
X56172Y64097D01*
Y63716D01*
X55982Y63525D02*X56172Y63716D01*
X55601Y63525D02*X55982D01*
X55410Y63716D02*X55601Y63525D01*
X56820Y64097D02*Y63525D01*
Y64097D02*X57010Y64287D01*
X57391D01*
X56629D02*X56820Y64097D01*
X57849Y64478D02*X58039D01*
X57849Y64097D02*X58039D01*
X59182Y64668D02*Y63525D01*
Y64668D02*X59449Y65049D01*
X59868D01*
X60135Y64668D01*
Y63525D01*
X59182Y64287D02*X60135D01*
X61354Y65049D02*Y63525D01*
X61163D02*X61354Y63716D01*
X60782Y63525D02*X61163D01*
X60592Y63716D02*X60782Y63525D01*
X60592Y64097D02*Y63716D01*
Y64097D02*X60782Y64287D01*
X61163D01*
X61354Y64097D01*
X62382Y64287D02*X62573Y64097D01*
X62001Y64287D02*X62382D01*
X61811Y64097D02*X62001Y64287D01*
X61811Y64097D02*Y63716D01*
X62001Y63525D01*
X62573Y64287D02*Y63716D01*
X62763Y63525D01*
X62001D02*X62382D01*
X62573Y63716D01*
X63411Y64097D02*Y63525D01*
Y64097D02*X63602Y64287D01*
X63792D01*
X63983Y64097D01*
Y63525D01*
Y64097D02*X64173Y64287D01*
X64364D01*
X64554Y64097D01*
Y63525D01*
X63221Y64287D02*X63411Y64097D01*
X50800Y68859D02*X51562D01*
X51181D02*Y67335D01*
G54D127*X52019Y68478D02*Y68440D01*
G54D126*Y67906D02*Y67335D01*
X52591Y68859D02*Y67526D01*
X52781Y67335D01*
X52400Y68288D02*X52781D01*
X53162Y68859D02*Y67526D01*
X53353Y67335D01*
X53924D02*X54496D01*
X53734Y67526D02*X53924Y67335D01*
X53734Y67906D02*Y67526D01*
Y67906D02*X53924Y68097D01*
X54305D01*
X54496Y67906D01*
X53734Y67716D02*X54496D01*
Y67906D02*Y67716D01*
X54953Y68288D02*X55143D01*
X54953Y67906D02*X55143D01*
X56477Y67335D02*X57048Y68097D01*
Y68668D02*Y68097D01*
X56858Y68859D02*X57048Y68668D01*
X56477Y68859D02*X56858D01*
X56286Y68668D02*X56477Y68859D01*
X56286Y68668D02*Y68288D01*
X56477Y68097D01*
X57048D01*
X58077Y68859D02*X58268Y68668D01*
X57696Y68859D02*X58077D01*
X57506Y68668D02*X57696Y68859D01*
X57506Y68668D02*Y67526D01*
X57696Y67335D01*
X58077Y68173D02*X58268Y67983D01*
X57506Y68173D02*X58077D01*
X57696Y67335D02*X58077D01*
X58268Y67526D01*
Y67983D02*Y67526D01*
X58725Y67335D02*X59487D01*
X59677Y67526D01*
Y67983D02*Y67526D01*
X59487Y68173D02*X59677Y67983D01*
X58915Y68173D02*X59487D01*
X58915Y68859D02*Y67335D01*
X58725Y68859D02*X59487D01*
X59677Y68668D01*
Y68364D01*
X59487Y68173D02*X59677Y68364D01*
X60135Y67906D02*Y67526D01*
Y67906D02*X60325Y68097D01*
X60706D01*
X60897Y67906D01*
Y67526D01*
X60706Y67335D02*X60897Y67526D01*
X60325Y67335D02*X60706D01*
X60135Y67526D02*X60325Y67335D01*
X61925Y68097D02*X62116Y67906D01*
X61544Y68097D02*X61925D01*
X61354Y67906D02*X61544Y68097D01*
X61354Y67906D02*Y67526D01*
X61544Y67335D01*
X62116Y68097D02*Y67526D01*
X62306Y67335D01*
X61544D02*X61925D01*
X62116Y67526D01*
X62954Y67906D02*Y67335D01*
Y67906D02*X63144Y68097D01*
X63525D01*
X62763D02*X62954Y67906D01*
X64745Y68859D02*Y67335D01*
X64554D02*X64745Y67526D01*
X64173Y67335D02*X64554D01*
X63983Y67526D02*X64173Y67335D01*
X63983Y67906D02*Y67526D01*
Y67906D02*X64173Y68097D01*
X64554D01*
X64745Y67906D01*
X65392Y67335D02*X65964D01*
X66154Y67526D01*
X65964Y67716D02*X66154Y67526D01*
X65392Y67716D02*X65964D01*
X65202Y67906D02*X65392Y67716D01*
X65202Y67906D02*X65392Y68097D01*
X65964D01*
X66154Y67906D01*
X65202Y67526D02*X65392Y67335D01*
X67564D02*X68059D01*
X67297Y67602D02*X67564Y67335D01*
X67297Y68592D02*Y67602D01*
Y68592D02*X67564Y68859D01*
X68059D01*
X68517Y68173D02*X69088D01*
X68517Y67335D02*X69279D01*
X68517Y68859D02*Y67335D01*
Y68859D02*X69279D01*
X70422D02*X70803D01*
X70612D02*Y67335D01*
X70422D02*X70803D01*
X71260Y68668D02*X71450Y68859D01*
X72022D01*
X72212Y68668D01*
Y68288D01*
X71260Y67335D02*X72212Y68288D01*
X71260Y67335D02*X72212D01*
X73431Y68859D02*X73622Y68668D01*
X72860Y68859D02*X73431D01*
X72669Y68668D02*X72860Y68859D01*
X72669Y68668D02*Y68288D01*
X72860Y68097D01*
X73431D01*
X73622Y67906D01*
Y67526D01*
X73431Y67335D02*X73622Y67526D01*
X72860Y67335D02*X73431D01*
X72669Y67526D02*X72860Y67335D01*
X74765Y68859D02*Y67335D01*
Y68859D02*X75336Y68097D01*
X75908Y68859D01*
Y67335D01*
X76556D02*X77127D01*
X76365Y67526D02*X76556Y67335D01*
X76365Y67906D02*Y67526D01*
Y67906D02*X76556Y68097D01*
X76937D01*
X77127Y67906D01*
X76365Y67716D02*X77127D01*
Y67906D02*Y67716D01*
X77584Y68097D02*X78346D01*
X77584Y67335D02*X78346Y68097D01*
X77584Y67335D02*X78346D01*
X78804Y68097D02*X79566D01*
X78804Y67335D02*X79566Y68097D01*
X78804Y67335D02*X79566D01*
X80594Y68097D02*X80785Y67906D01*
X80213Y68097D02*X80594D01*
X80023Y67906D02*X80213Y68097D01*
X80023Y67906D02*Y67526D01*
X80213Y67335D01*
X80785Y68097D02*Y67526D01*
X80975Y67335D01*
X80213D02*X80594D01*
X80785Y67526D01*
X81623Y67906D02*Y67335D01*
Y67906D02*X81813Y68097D01*
X82004D01*
X82194Y67906D01*
Y67335D01*
X81432Y68097D02*X81623Y67906D01*
G54D127*X82652Y68478D02*Y68440D01*
G54D126*Y67906D02*Y67335D01*
X83223Y67906D02*Y67335D01*
Y67906D02*X83414Y68097D01*
X83604D01*
X83795Y67906D01*
Y67335D01*
X83033Y68097D02*X83223Y67906D01*
X84442Y67335D02*X85014D01*
X84252Y67526D02*X84442Y67335D01*
X84252Y67906D02*Y67526D01*
Y67906D02*X84442Y68097D01*
X84823D01*
X85014Y67906D01*
X84252Y67716D02*X85014D01*
Y67906D02*Y67716D01*
X86157Y68097D02*X86919D01*
X88062Y68859D02*Y67335D01*
Y68859D02*X88824D01*
X88062Y68173D02*X88633D01*
X89853Y68097D02*X90043Y67906D01*
X89472Y68097D02*X89853D01*
X89281Y67906D02*X89472Y68097D01*
X89281Y67906D02*Y67526D01*
X89472Y67335D01*
X90043Y68097D02*Y67526D01*
X90234Y67335D01*
X89472D02*X89853D01*
X90043Y67526D01*
X90691Y68859D02*Y67335D01*
Y67526D02*X90881Y67335D01*
X91262D01*
X91453Y67526D01*
Y67906D02*Y67526D01*
X91262Y68097D02*X91453Y67906D01*
X90881Y68097D02*X91262D01*
X90691Y67906D02*X90881Y68097D01*
X92100Y67906D02*Y67335D01*
Y67906D02*X92291Y68097D01*
X92672D01*
X91910D02*X92100Y67906D01*
G54D127*X93129Y68478D02*Y68440D01*
G54D126*Y67906D02*Y67335D01*
X93701Y68097D02*X94272D01*
X93510Y67906D02*X93701Y68097D01*
X93510Y67906D02*Y67526D01*
X93701Y67335D01*
X94272D01*
X95301Y68097D02*X95491Y67906D01*
X94920Y68097D02*X95301D01*
X94729Y67906D02*X94920Y68097D01*
X94729Y67906D02*Y67526D01*
X94920Y67335D01*
X95491Y68097D02*Y67526D01*
X95682Y67335D01*
X94920D02*X95301D01*
X95491Y67526D01*
X96330Y68859D02*Y67526D01*
X96520Y67335D01*
X96139Y68288D02*X96520D01*
G54D127*X96901Y68478D02*Y68440D01*
G54D126*Y67906D02*Y67335D01*
X97282Y67906D02*Y67526D01*
Y67906D02*X97473Y68097D01*
X97854D01*
X98044Y67906D01*
Y67526D01*
X97854Y67335D02*X98044Y67526D01*
X97473Y67335D02*X97854D01*
X97282Y67526D02*X97473Y67335D01*
X98692Y67906D02*Y67335D01*
Y67906D02*X98882Y68097D01*
X99073D01*
X99263Y67906D01*
Y67335D01*
X98501Y68097D02*X98692Y67906D01*
X100597Y68859D02*Y67335D01*
X101092Y68859D02*X101359Y68592D01*
Y67602D01*
X101092Y67335D02*X101359Y67602D01*
X100406Y67335D02*X101092D01*
X100406Y68859D02*X101092D01*
X102006Y67906D02*Y67335D01*
Y67906D02*X102197Y68097D01*
X102578D01*
X101816D02*X102006Y67906D01*
X103607Y68097D02*X103797Y67906D01*
X103226Y68097D02*X103607D01*
X103035Y67906D02*X103226Y68097D01*
X103035Y67906D02*Y67526D01*
X103226Y67335D01*
X103797Y68097D02*Y67526D01*
X103988Y67335D01*
X103226D02*X103607D01*
X103797Y67526D01*
X104445Y68097D02*Y67526D01*
X104635Y67335D01*
X104826D01*
X105016Y67526D01*
Y68097D02*Y67526D01*
X105207Y67335D01*
X105397D01*
X105588Y67526D01*
Y68097D02*Y67526D01*
G54D127*X106045Y68478D02*Y68440D01*
G54D126*Y67906D02*Y67335D01*
X106617Y67906D02*Y67335D01*
Y67906D02*X106807Y68097D01*
X106998D01*
X107188Y67906D01*
Y67335D01*
X106426Y68097D02*X106617Y67906D01*
X108217Y68097D02*X108407Y67906D01*
X107836Y68097D02*X108217D01*
X107645Y67906D02*X107836Y68097D01*
X107645Y67906D02*Y67526D01*
X107836Y67335D01*
X108217D01*
X108407Y67526D01*
X107645Y66954D02*X107836Y66764D01*
X108217D01*
X108407Y66954D01*
Y68097D02*Y66954D01*
M02*
