G04 start of page 3 for group 5 idx 5 *
G04 Title: 96Boards CE Through Hole LS, bottom *
G04 Creator: pcb 20140316 *
G04 CreationDate: Fri 27 Jul 2018 05:17:59 PM GMT UTC *
G04 For: adam *
G04 Format: Gerber/RS-274X *
G04 PCB-Dimensions (mm): 85.00 54.00 *
G04 PCB-Coordinate-Origin: lower left *
%MOMM*%
%FSLAX43Y43*%
%LNBOTTOM*%
%ADD55C,0.965*%
%ADD54C,1.200*%
%ADD53C,1.500*%
%ADD52C,0.800*%
%ADD51C,0.508*%
%ADD50C,0.300*%
%ADD49C,2.500*%
%ADD48C,0.914*%
%ADD47C,0.700*%
%ADD46C,5.000*%
%ADD45R,1.000X1.000*%
%ADD44R,0.500X0.500*%
%ADD43C,1.524*%
%ADD42C,0.400*%
%ADD41C,0.635*%
%ADD40C,0.254*%
%ADD39C,0.002*%
G54D39*G36*
X80498Y54000D02*X85000D01*
Y0D01*
X80498D01*
Y15493D01*
X80500Y15493D01*
X80658Y15505D01*
X80811Y15542D01*
X80957Y15603D01*
X81092Y15685D01*
X81212Y15788D01*
X81315Y15908D01*
X81397Y16043D01*
X81458Y16189D01*
X81495Y16342D01*
X81504Y16500D01*
X81495Y16658D01*
X81458Y16811D01*
X81397Y16957D01*
X81315Y17092D01*
X81212Y17212D01*
X81092Y17315D01*
X80957Y17397D01*
X80811Y17458D01*
X80658Y17495D01*
X80500Y17507D01*
X80498Y17507D01*
Y26293D01*
X80500Y26293D01*
X80658Y26305D01*
X80811Y26342D01*
X80957Y26403D01*
X81092Y26485D01*
X81212Y26588D01*
X81315Y26708D01*
X81397Y26843D01*
X81458Y26989D01*
X81495Y27142D01*
X81504Y27300D01*
X81495Y27458D01*
X81458Y27611D01*
X81397Y27757D01*
X81315Y27892D01*
X81212Y28012D01*
X81092Y28115D01*
X80957Y28197D01*
X80811Y28258D01*
X80658Y28295D01*
X80500Y28307D01*
X80498Y28307D01*
Y54000D01*
G37*
G36*
X74898D02*X80498D01*
Y28307D01*
X80342Y28295D01*
X80189Y28258D01*
X80043Y28197D01*
X79908Y28115D01*
X79788Y28012D01*
X79685Y27892D01*
X79603Y27757D01*
X79542Y27611D01*
X79505Y27458D01*
X79493Y27300D01*
X79505Y27142D01*
X79542Y26989D01*
X79603Y26843D01*
X79685Y26708D01*
X79788Y26588D01*
X79908Y26485D01*
X80043Y26403D01*
X80189Y26342D01*
X80342Y26305D01*
X80498Y26293D01*
Y17507D01*
X80342Y17495D01*
X80189Y17458D01*
X80043Y17397D01*
X79908Y17315D01*
X79788Y17212D01*
X79685Y17092D01*
X79603Y16957D01*
X79542Y16811D01*
X79505Y16658D01*
X79493Y16500D01*
X79505Y16342D01*
X79542Y16189D01*
X79603Y16043D01*
X79685Y15908D01*
X79788Y15788D01*
X79908Y15685D01*
X80043Y15603D01*
X80189Y15542D01*
X80342Y15505D01*
X80498Y15493D01*
Y0D01*
X74898D01*
Y491D01*
X75525Y491D01*
X75550Y497D01*
X75573Y507D01*
X75594Y520D01*
X75613Y537D01*
X75630Y556D01*
X75643Y577D01*
X75653Y600D01*
X75659Y625D01*
X75660Y650D01*
X75659Y3275D01*
X75653Y3300D01*
X75643Y3323D01*
X75630Y3344D01*
X75613Y3363D01*
X75594Y3380D01*
X75573Y3393D01*
X75550Y3403D01*
X75525Y3409D01*
X75500Y3410D01*
X74898Y3409D01*
Y4591D01*
X75525Y4591D01*
X75550Y4597D01*
X75573Y4607D01*
X75594Y4620D01*
X75613Y4637D01*
X75630Y4656D01*
X75643Y4677D01*
X75653Y4700D01*
X75659Y4725D01*
X75660Y4750D01*
X75659Y7375D01*
X75653Y7400D01*
X75643Y7423D01*
X75630Y7444D01*
X75613Y7463D01*
X75594Y7480D01*
X75573Y7493D01*
X75550Y7503D01*
X75525Y7509D01*
X75500Y7510D01*
X74898Y7509D01*
Y41493D01*
X74900Y41493D01*
X75058Y41505D01*
X75211Y41542D01*
X75357Y41603D01*
X75492Y41685D01*
X75612Y41788D01*
X75715Y41908D01*
X75797Y42043D01*
X75858Y42189D01*
X75895Y42342D01*
X75904Y42500D01*
X75895Y42658D01*
X75858Y42811D01*
X75797Y42957D01*
X75715Y43092D01*
X75612Y43212D01*
X75492Y43315D01*
X75357Y43397D01*
X75211Y43458D01*
X75058Y43495D01*
X74900Y43507D01*
X74898Y43507D01*
Y48493D01*
X74900Y48493D01*
X75058Y48505D01*
X75211Y48542D01*
X75357Y48603D01*
X75492Y48685D01*
X75612Y48788D01*
X75715Y48908D01*
X75797Y49043D01*
X75858Y49189D01*
X75895Y49342D01*
X75904Y49500D01*
X75895Y49658D01*
X75858Y49811D01*
X75797Y49957D01*
X75715Y50092D01*
X75612Y50212D01*
X75492Y50315D01*
X75357Y50397D01*
X75211Y50458D01*
X75058Y50495D01*
X74900Y50507D01*
X74898Y50507D01*
Y54000D01*
G37*
G36*
X9998Y7653D02*X13250Y4401D01*
X13260Y4390D01*
X13305Y4351D01*
X13305Y4351D01*
X13356Y4319D01*
X13412Y4297D01*
X13470Y4283D01*
X13530Y4278D01*
X13545Y4279D01*
X22521D01*
X22559Y4246D01*
X22584Y4231D01*
X9998D01*
Y7653D01*
G37*
G36*
X52742Y12379D02*X55872D01*
X57629Y10622D01*
Y7445D01*
X57613Y7463D01*
X57594Y7480D01*
X57573Y7493D01*
X57550Y7503D01*
X57525Y7509D01*
X57500Y7510D01*
X56475Y7509D01*
X56450Y7503D01*
X56427Y7493D01*
X56406Y7480D01*
X56387Y7463D01*
X56370Y7444D01*
X56357Y7423D01*
X56347Y7400D01*
X56341Y7375D01*
X56340Y7350D01*
X56341Y4795D01*
X56330Y4797D01*
X56270Y4802D01*
X56255Y4801D01*
X55660D01*
X55659Y7375D01*
X55653Y7400D01*
X55643Y7423D01*
X55630Y7444D01*
X55613Y7463D01*
X55594Y7480D01*
X55573Y7493D01*
X55550Y7503D01*
X55525Y7509D01*
X55500Y7510D01*
X54475Y7509D01*
X54450Y7503D01*
X54427Y7493D01*
X54406Y7480D01*
X54387Y7463D01*
X54370Y7444D01*
X54357Y7423D01*
X54347Y7400D01*
X54341Y7375D01*
X54340Y7350D01*
X54341Y4801D01*
X53660D01*
X53659Y7375D01*
X53653Y7400D01*
X53643Y7423D01*
X53630Y7444D01*
X53613Y7463D01*
X53594Y7480D01*
X53573Y7493D01*
X53550Y7503D01*
X53525Y7509D01*
X53500Y7510D01*
X52742Y7509D01*
Y9949D01*
X56088D01*
X56093Y9941D01*
X56166Y9856D01*
X56251Y9783D01*
X56346Y9724D01*
X56450Y9682D01*
X56558Y9655D01*
X56670Y9647D01*
X56782Y9655D01*
X56890Y9682D01*
X56994Y9724D01*
X57089Y9783D01*
X57174Y9856D01*
X57247Y9941D01*
X57306Y10036D01*
X57348Y10140D01*
X57375Y10248D01*
X57381Y10360D01*
X57375Y10472D01*
X57348Y10580D01*
X57306Y10684D01*
X57247Y10779D01*
X57174Y10864D01*
X57089Y10937D01*
X56994Y10996D01*
X56890Y11038D01*
X56782Y11065D01*
X56670Y11073D01*
X56558Y11065D01*
X56450Y11038D01*
X56346Y10996D01*
X56251Y10937D01*
X56166Y10864D01*
X56093Y10779D01*
X56051Y10711D01*
X55143D01*
X55224Y10744D01*
X55319Y10803D01*
X55404Y10876D01*
X55477Y10961D01*
X55536Y11056D01*
X55578Y11160D01*
X55605Y11268D01*
X55611Y11380D01*
X55605Y11492D01*
X55578Y11600D01*
X55536Y11704D01*
X55477Y11799D01*
X55404Y11884D01*
X55319Y11957D01*
X55224Y12016D01*
X55120Y12058D01*
X55012Y12085D01*
X54900Y12093D01*
X54788Y12085D01*
X54680Y12058D01*
X54576Y12016D01*
X54481Y11957D01*
X54396Y11884D01*
X54323Y11799D01*
X54312Y11781D01*
X52742D01*
Y12379D01*
G37*
G36*
Y15599D02*X55082D01*
X59639Y11042D01*
Y7429D01*
X59630Y7444D01*
X59613Y7463D01*
X59594Y7480D01*
X59573Y7493D01*
X59550Y7503D01*
X59525Y7509D01*
X59500Y7510D01*
X58475Y7509D01*
X58450Y7503D01*
X58427Y7493D01*
X58406Y7480D01*
X58391Y7467D01*
Y10765D01*
X58392Y10780D01*
X58387Y10840D01*
X58387Y10840D01*
X58373Y10898D01*
X58351Y10954D01*
X58319Y11005D01*
X58280Y11050D01*
X58269Y11060D01*
X56310Y13019D01*
X56300Y13030D01*
X56255Y13069D01*
X56204Y13101D01*
X56148Y13123D01*
X56090Y13137D01*
X56030Y13142D01*
X56015Y13141D01*
X52742D01*
Y15599D01*
G37*
G36*
X54429Y3459D02*X54926D01*
X54969Y3409D01*
X54475Y3409D01*
X54450Y3403D01*
X54429Y3394D01*
Y3459D01*
G37*
G36*
X73498Y54000D02*X74898D01*
Y50507D01*
X74742Y50495D01*
X74589Y50458D01*
X74443Y50397D01*
X74308Y50315D01*
X74188Y50212D01*
X74085Y50092D01*
X74003Y49957D01*
X73942Y49811D01*
X73905Y49658D01*
X73893Y49500D01*
X73905Y49342D01*
X73942Y49189D01*
X74003Y49043D01*
X74085Y48908D01*
X74188Y48788D01*
X74308Y48685D01*
X74443Y48603D01*
X74589Y48542D01*
X74742Y48505D01*
X74898Y48493D01*
Y43507D01*
X74742Y43495D01*
X74589Y43458D01*
X74443Y43397D01*
X74308Y43315D01*
X74188Y43212D01*
X74085Y43092D01*
X74003Y42957D01*
X73942Y42811D01*
X73905Y42658D01*
X73893Y42500D01*
X73905Y42342D01*
X73942Y42189D01*
X74003Y42043D01*
X74085Y41908D01*
X74188Y41788D01*
X74308Y41685D01*
X74443Y41603D01*
X74589Y41542D01*
X74742Y41505D01*
X74898Y41493D01*
Y7509D01*
X74475Y7509D01*
X74450Y7503D01*
X74427Y7493D01*
X74406Y7480D01*
X74387Y7463D01*
X74370Y7444D01*
X74357Y7423D01*
X74347Y7400D01*
X74341Y7375D01*
X74340Y7350D01*
X74341Y4725D01*
X74347Y4700D01*
X74357Y4677D01*
X74370Y4656D01*
X74387Y4637D01*
X74406Y4620D01*
X74427Y4607D01*
X74450Y4597D01*
X74475Y4591D01*
X74500Y4590D01*
X74898Y4591D01*
Y3409D01*
X74475Y3409D01*
X74450Y3403D01*
X74427Y3393D01*
X74406Y3380D01*
X74387Y3363D01*
X74370Y3344D01*
X74357Y3323D01*
X74347Y3300D01*
X74341Y3275D01*
X74340Y3250D01*
X74341Y625D01*
X74347Y600D01*
X74357Y577D01*
X74370Y556D01*
X74387Y537D01*
X74406Y520D01*
X74427Y507D01*
X74450Y497D01*
X74475Y491D01*
X74500Y490D01*
X74898Y491D01*
Y0D01*
X73498D01*
Y491D01*
X73525Y491D01*
X73550Y497D01*
X73573Y507D01*
X73594Y520D01*
X73613Y537D01*
X73630Y556D01*
X73643Y577D01*
X73653Y600D01*
X73659Y625D01*
X73660Y650D01*
X73659Y3275D01*
X73653Y3300D01*
X73643Y3323D01*
X73630Y3344D01*
X73613Y3363D01*
X73594Y3380D01*
X73573Y3393D01*
X73550Y3403D01*
X73525Y3409D01*
X73500Y3410D01*
X73498Y3410D01*
Y4591D01*
X73525Y4591D01*
X73550Y4597D01*
X73573Y4607D01*
X73594Y4620D01*
X73613Y4637D01*
X73630Y4656D01*
X73643Y4677D01*
X73653Y4700D01*
X73659Y4725D01*
X73660Y4750D01*
X73659Y7375D01*
X73653Y7400D01*
X73643Y7423D01*
X73630Y7444D01*
X73613Y7463D01*
X73594Y7480D01*
X73573Y7493D01*
X73550Y7503D01*
X73525Y7509D01*
X73500Y7510D01*
X73498Y7510D01*
Y15493D01*
X73500Y15493D01*
X73658Y15505D01*
X73811Y15542D01*
X73957Y15603D01*
X74092Y15685D01*
X74212Y15788D01*
X74315Y15908D01*
X74397Y16043D01*
X74458Y16189D01*
X74495Y16342D01*
X74504Y16500D01*
X74495Y16658D01*
X74458Y16811D01*
X74397Y16957D01*
X74315Y17092D01*
X74212Y17212D01*
X74092Y17315D01*
X73957Y17397D01*
X73811Y17458D01*
X73658Y17495D01*
X73500Y17507D01*
X73498Y17507D01*
Y26293D01*
X73500Y26293D01*
X73658Y26305D01*
X73811Y26342D01*
X73957Y26403D01*
X74092Y26485D01*
X74212Y26588D01*
X74315Y26708D01*
X74397Y26843D01*
X74458Y26989D01*
X74495Y27142D01*
X74504Y27300D01*
X74495Y27458D01*
X74458Y27611D01*
X74397Y27757D01*
X74315Y27892D01*
X74212Y28012D01*
X74092Y28115D01*
X73957Y28197D01*
X73811Y28258D01*
X73658Y28295D01*
X73500Y28307D01*
X73498Y28307D01*
Y54000D01*
G37*
G36*
X71000D02*X73498D01*
Y28307D01*
X73342Y28295D01*
X73189Y28258D01*
X73043Y28197D01*
X72908Y28115D01*
X72788Y28012D01*
X72685Y27892D01*
X72603Y27757D01*
X72542Y27611D01*
X72505Y27458D01*
X72493Y27300D01*
X72505Y27142D01*
X72542Y26989D01*
X72603Y26843D01*
X72685Y26708D01*
X72788Y26588D01*
X72908Y26485D01*
X73043Y26403D01*
X73189Y26342D01*
X73342Y26305D01*
X73498Y26293D01*
Y17507D01*
X73342Y17495D01*
X73189Y17458D01*
X73043Y17397D01*
X72908Y17315D01*
X72788Y17212D01*
X72685Y17092D01*
X72603Y16957D01*
X72542Y16811D01*
X72505Y16658D01*
X72493Y16500D01*
X72505Y16342D01*
X72542Y16189D01*
X72603Y16043D01*
X72685Y15908D01*
X72788Y15788D01*
X72908Y15685D01*
X73043Y15603D01*
X73189Y15542D01*
X73342Y15505D01*
X73498Y15493D01*
Y7510D01*
X72475Y7509D01*
X72450Y7503D01*
X72427Y7493D01*
X72406Y7480D01*
X72387Y7463D01*
X72370Y7444D01*
X72357Y7423D01*
X72347Y7400D01*
X72341Y7375D01*
X72340Y7350D01*
X72341Y4725D01*
X72347Y4700D01*
X72357Y4677D01*
X72370Y4656D01*
X72387Y4637D01*
X72406Y4620D01*
X72427Y4607D01*
X72450Y4597D01*
X72475Y4591D01*
X72500Y4590D01*
X73498Y4591D01*
Y3410D01*
X72475Y3409D01*
X72450Y3403D01*
X72427Y3393D01*
X72406Y3380D01*
X72387Y3363D01*
X72370Y3344D01*
X72357Y3323D01*
X72347Y3300D01*
X72341Y3275D01*
X72340Y3250D01*
X72341Y625D01*
X72347Y600D01*
X72357Y577D01*
X72370Y556D01*
X72387Y537D01*
X72406Y520D01*
X72427Y507D01*
X72450Y497D01*
X72475Y491D01*
X72500Y490D01*
X73498Y491D01*
Y0D01*
X71000D01*
Y491D01*
X71525Y491D01*
X71550Y497D01*
X71573Y507D01*
X71594Y520D01*
X71613Y537D01*
X71630Y556D01*
X71643Y577D01*
X71653Y600D01*
X71659Y625D01*
X71660Y650D01*
X71659Y3275D01*
X71653Y3300D01*
X71643Y3323D01*
X71630Y3344D01*
X71613Y3363D01*
X71594Y3380D01*
X71573Y3393D01*
X71550Y3403D01*
X71525Y3409D01*
X71500Y3410D01*
X71000Y3409D01*
Y4591D01*
X71525Y4591D01*
X71550Y4597D01*
X71573Y4607D01*
X71594Y4620D01*
X71613Y4637D01*
X71630Y4656D01*
X71643Y4677D01*
X71653Y4700D01*
X71659Y4725D01*
X71660Y4750D01*
X71659Y7375D01*
X71653Y7400D01*
X71643Y7423D01*
X71630Y7444D01*
X71613Y7463D01*
X71594Y7480D01*
X71573Y7493D01*
X71550Y7503D01*
X71525Y7509D01*
X71500Y7510D01*
X71000Y7509D01*
Y54000D01*
G37*
G36*
X69000D02*X71000D01*
Y7509D01*
X70475Y7509D01*
X70450Y7503D01*
X70427Y7493D01*
X70406Y7480D01*
X70387Y7463D01*
X70370Y7444D01*
X70357Y7423D01*
X70347Y7400D01*
X70341Y7375D01*
X70340Y7350D01*
X70341Y4725D01*
X70347Y4700D01*
X70357Y4677D01*
X70370Y4656D01*
X70387Y4637D01*
X70406Y4620D01*
X70427Y4607D01*
X70450Y4597D01*
X70475Y4591D01*
X70500Y4590D01*
X71000Y4591D01*
Y3409D01*
X70475Y3409D01*
X70450Y3403D01*
X70427Y3393D01*
X70406Y3380D01*
X70387Y3363D01*
X70370Y3344D01*
X70357Y3323D01*
X70347Y3300D01*
X70341Y3275D01*
X70340Y3250D01*
X70341Y625D01*
X70347Y600D01*
X70357Y577D01*
X70370Y556D01*
X70387Y537D01*
X70406Y520D01*
X70427Y507D01*
X70450Y497D01*
X70475Y491D01*
X70500Y490D01*
X71000Y491D01*
Y0D01*
X69000D01*
Y491D01*
X69525Y491D01*
X69550Y497D01*
X69573Y507D01*
X69594Y520D01*
X69613Y537D01*
X69630Y556D01*
X69643Y577D01*
X69653Y600D01*
X69659Y625D01*
X69660Y650D01*
X69659Y3275D01*
X69653Y3300D01*
X69643Y3323D01*
X69630Y3344D01*
X69613Y3363D01*
X69594Y3380D01*
X69573Y3393D01*
X69550Y3403D01*
X69525Y3409D01*
X69500Y3410D01*
X69000Y3409D01*
Y4591D01*
X69525Y4591D01*
X69550Y4597D01*
X69573Y4607D01*
X69594Y4620D01*
X69613Y4637D01*
X69630Y4656D01*
X69643Y4677D01*
X69653Y4700D01*
X69659Y4725D01*
X69660Y4750D01*
X69659Y7375D01*
X69653Y7400D01*
X69643Y7423D01*
X69630Y7444D01*
X69613Y7463D01*
X69594Y7480D01*
X69573Y7493D01*
X69550Y7503D01*
X69525Y7509D01*
X69500Y7510D01*
X69000Y7509D01*
Y54000D01*
G37*
G36*
X67000D02*X69000D01*
Y7509D01*
X68475Y7509D01*
X68450Y7503D01*
X68427Y7493D01*
X68406Y7480D01*
X68387Y7463D01*
X68370Y7444D01*
X68357Y7423D01*
X68347Y7400D01*
X68341Y7375D01*
X68340Y7350D01*
X68341Y4725D01*
X68347Y4700D01*
X68357Y4677D01*
X68370Y4656D01*
X68387Y4637D01*
X68406Y4620D01*
X68427Y4607D01*
X68450Y4597D01*
X68475Y4591D01*
X68500Y4590D01*
X69000Y4591D01*
Y3409D01*
X68475Y3409D01*
X68450Y3403D01*
X68427Y3393D01*
X68406Y3380D01*
X68387Y3363D01*
X68370Y3344D01*
X68357Y3323D01*
X68347Y3300D01*
X68341Y3275D01*
X68340Y3250D01*
X68341Y625D01*
X68347Y600D01*
X68357Y577D01*
X68370Y556D01*
X68387Y537D01*
X68406Y520D01*
X68427Y507D01*
X68450Y497D01*
X68475Y491D01*
X68500Y490D01*
X69000Y491D01*
Y0D01*
X67000D01*
Y491D01*
X67525Y491D01*
X67550Y497D01*
X67573Y507D01*
X67594Y520D01*
X67613Y537D01*
X67630Y556D01*
X67643Y577D01*
X67653Y600D01*
X67659Y625D01*
X67660Y650D01*
X67659Y3275D01*
X67653Y3300D01*
X67643Y3323D01*
X67630Y3344D01*
X67613Y3363D01*
X67594Y3380D01*
X67573Y3393D01*
X67550Y3403D01*
X67525Y3409D01*
X67500Y3410D01*
X67000Y3409D01*
Y4591D01*
X67525Y4591D01*
X67550Y4597D01*
X67573Y4607D01*
X67594Y4620D01*
X67613Y4637D01*
X67630Y4656D01*
X67643Y4677D01*
X67653Y4700D01*
X67659Y4725D01*
X67660Y4750D01*
X67659Y7375D01*
X67653Y7400D01*
X67643Y7423D01*
X67630Y7444D01*
X67613Y7463D01*
X67594Y7480D01*
X67573Y7493D01*
X67550Y7503D01*
X67525Y7509D01*
X67500Y7510D01*
X67000Y7509D01*
Y54000D01*
G37*
G36*
X65000D02*X67000D01*
Y7509D01*
X66475Y7509D01*
X66450Y7503D01*
X66427Y7493D01*
X66406Y7480D01*
X66387Y7463D01*
X66370Y7444D01*
X66357Y7423D01*
X66347Y7400D01*
X66341Y7375D01*
X66340Y7350D01*
X66341Y4725D01*
X66347Y4700D01*
X66357Y4677D01*
X66370Y4656D01*
X66387Y4637D01*
X66406Y4620D01*
X66427Y4607D01*
X66450Y4597D01*
X66475Y4591D01*
X66500Y4590D01*
X67000Y4591D01*
Y3409D01*
X66475Y3409D01*
X66450Y3403D01*
X66427Y3393D01*
X66406Y3380D01*
X66387Y3363D01*
X66370Y3344D01*
X66357Y3323D01*
X66347Y3300D01*
X66341Y3275D01*
X66340Y3250D01*
X66341Y625D01*
X66347Y600D01*
X66357Y577D01*
X66370Y556D01*
X66387Y537D01*
X66406Y520D01*
X66427Y507D01*
X66450Y497D01*
X66475Y491D01*
X66500Y490D01*
X67000Y491D01*
Y0D01*
X65000D01*
Y491D01*
X65525Y491D01*
X65550Y497D01*
X65573Y507D01*
X65594Y520D01*
X65613Y537D01*
X65630Y556D01*
X65643Y577D01*
X65653Y600D01*
X65659Y625D01*
X65660Y650D01*
X65659Y3275D01*
X65653Y3300D01*
X65643Y3323D01*
X65630Y3344D01*
X65613Y3363D01*
X65594Y3380D01*
X65573Y3393D01*
X65550Y3403D01*
X65525Y3409D01*
X65500Y3410D01*
X65000Y3409D01*
Y4591D01*
X65525Y4591D01*
X65550Y4597D01*
X65573Y4607D01*
X65594Y4620D01*
X65613Y4637D01*
X65630Y4656D01*
X65643Y4677D01*
X65653Y4700D01*
X65659Y4725D01*
X65660Y4750D01*
X65659Y7375D01*
X65653Y7400D01*
X65643Y7423D01*
X65630Y7444D01*
X65613Y7463D01*
X65594Y7480D01*
X65573Y7493D01*
X65550Y7503D01*
X65525Y7509D01*
X65500Y7510D01*
X65000Y7509D01*
Y54000D01*
G37*
G36*
X63000D02*X65000D01*
Y7509D01*
X64475Y7509D01*
X64450Y7503D01*
X64427Y7493D01*
X64406Y7480D01*
X64387Y7463D01*
X64370Y7444D01*
X64357Y7423D01*
X64347Y7400D01*
X64341Y7375D01*
X64340Y7350D01*
X64341Y4725D01*
X64347Y4700D01*
X64357Y4677D01*
X64370Y4656D01*
X64387Y4637D01*
X64406Y4620D01*
X64427Y4607D01*
X64450Y4597D01*
X64475Y4591D01*
X64500Y4590D01*
X65000Y4591D01*
Y3409D01*
X64475Y3409D01*
X64450Y3403D01*
X64427Y3393D01*
X64406Y3380D01*
X64387Y3363D01*
X64370Y3344D01*
X64357Y3323D01*
X64347Y3300D01*
X64341Y3275D01*
X64340Y3250D01*
X64341Y625D01*
X64347Y600D01*
X64357Y577D01*
X64370Y556D01*
X64387Y537D01*
X64406Y520D01*
X64427Y507D01*
X64450Y497D01*
X64475Y491D01*
X64500Y490D01*
X65000Y491D01*
Y0D01*
X63000D01*
Y491D01*
X63525Y491D01*
X63550Y497D01*
X63573Y507D01*
X63594Y520D01*
X63613Y537D01*
X63630Y556D01*
X63643Y577D01*
X63653Y600D01*
X63659Y625D01*
X63660Y650D01*
X63659Y3275D01*
X63653Y3300D01*
X63643Y3323D01*
X63630Y3344D01*
X63613Y3363D01*
X63594Y3380D01*
X63573Y3393D01*
X63550Y3403D01*
X63525Y3409D01*
X63500Y3410D01*
X63000Y3409D01*
Y4591D01*
X63525Y4591D01*
X63550Y4597D01*
X63573Y4607D01*
X63594Y4620D01*
X63613Y4637D01*
X63630Y4656D01*
X63643Y4677D01*
X63653Y4700D01*
X63659Y4725D01*
X63660Y4750D01*
X63659Y7375D01*
X63653Y7400D01*
X63643Y7423D01*
X63630Y7444D01*
X63613Y7463D01*
X63594Y7480D01*
X63573Y7493D01*
X63550Y7503D01*
X63525Y7509D01*
X63500Y7510D01*
X63000Y7509D01*
Y17325D01*
X63056Y17416D01*
X63098Y17520D01*
X63125Y17628D01*
X63131Y17740D01*
X63125Y17852D01*
X63098Y17960D01*
X63056Y18064D01*
X63000Y18155D01*
Y34975D01*
X63320Y34976D01*
X63339Y34981D01*
X63357Y34988D01*
X63374Y34999D01*
X63389Y35011D01*
X63401Y35026D01*
X63412Y35043D01*
X63419Y35061D01*
X63424Y35080D01*
X63425Y35100D01*
X63424Y36876D01*
X63427Y36890D01*
X63431Y36950D01*
Y37427D01*
X63450Y37458D01*
X63469Y37427D01*
Y36900D01*
X63473Y36840D01*
X63475Y36829D01*
X63476Y35080D01*
X63481Y35061D01*
X63488Y35043D01*
X63499Y35026D01*
X63511Y35011D01*
X63526Y34999D01*
X63543Y34988D01*
X63561Y34981D01*
X63580Y34976D01*
X63600Y34975D01*
X64120Y34976D01*
X64139Y34981D01*
X64157Y34988D01*
X64174Y34999D01*
X64189Y35011D01*
X64201Y35026D01*
X64212Y35043D01*
X64219Y35061D01*
X64224Y35080D01*
X64225Y35100D01*
X64224Y36826D01*
X64227Y36840D01*
X64231Y36900D01*
Y37312D01*
X64262Y37338D01*
X64314Y37399D01*
X64356Y37468D01*
X64387Y37542D01*
X64405Y37620D01*
X64410Y37700D01*
X64405Y37780D01*
X64387Y37858D01*
X64356Y37932D01*
X64314Y38001D01*
X64262Y38062D01*
X64201Y38114D01*
X64132Y38156D01*
X64058Y38187D01*
X63980Y38205D01*
X63900Y38212D01*
X63820Y38205D01*
X63742Y38187D01*
X63668Y38156D01*
X63599Y38114D01*
X63538Y38062D01*
X63486Y38001D01*
X63450Y37942D01*
X63414Y38001D01*
X63362Y38062D01*
X63301Y38114D01*
X63232Y38156D01*
X63158Y38187D01*
X63080Y38205D01*
X63000Y38212D01*
Y38500D01*
X63020Y38495D01*
X63100Y38488D01*
X63180Y38495D01*
X63258Y38513D01*
X63332Y38544D01*
X63401Y38586D01*
X63462Y38638D01*
X63514Y38699D01*
X63556Y38768D01*
X63587Y38842D01*
X63605Y38920D01*
X63609Y38980D01*
X63668Y38944D01*
X63742Y38913D01*
X63820Y38895D01*
X63900Y38888D01*
X63980Y38895D01*
X64058Y38913D01*
X64132Y38944D01*
X64201Y38986D01*
X64262Y39038D01*
X64314Y39099D01*
X64356Y39168D01*
X64387Y39242D01*
X64405Y39320D01*
X64410Y39400D01*
X64405Y39480D01*
X64387Y39558D01*
X64356Y39632D01*
X64314Y39701D01*
X64262Y39762D01*
X64231Y39788D01*
Y40150D01*
X64227Y40210D01*
X64225Y40221D01*
X64224Y42020D01*
X64219Y42039D01*
X64212Y42057D01*
X64201Y42074D01*
X64189Y42089D01*
X64174Y42101D01*
X64157Y42112D01*
X64139Y42119D01*
X64120Y42124D01*
X64100Y42125D01*
X63580Y42124D01*
X63561Y42119D01*
X63543Y42112D01*
X63526Y42101D01*
X63511Y42089D01*
X63499Y42074D01*
X63488Y42057D01*
X63481Y42039D01*
X63476Y42020D01*
X63475Y42000D01*
X63476Y40224D01*
X63473Y40210D01*
X63469Y40150D01*
Y39673D01*
X63444Y39632D01*
X63431Y39600D01*
Y40200D01*
X63427Y40260D01*
X63425Y40271D01*
X63424Y42020D01*
X63419Y42039D01*
X63412Y42057D01*
X63401Y42074D01*
X63389Y42089D01*
X63374Y42101D01*
X63357Y42112D01*
X63339Y42119D01*
X63320Y42124D01*
X63300Y42125D01*
X63000Y42124D01*
Y54000D01*
G37*
G36*
Y38212D02*X62920Y38205D01*
X62842Y38187D01*
X62768Y38156D01*
X62699Y38114D01*
X62638Y38062D01*
X62586Y38001D01*
X62544Y37932D01*
X62513Y37858D01*
X62495Y37780D01*
X62488Y37700D01*
X62495Y37620D01*
X62513Y37542D01*
X62544Y37468D01*
X62545Y37467D01*
X62539Y37469D01*
X62520Y37474D01*
X62500Y37475D01*
X61980Y37474D01*
X61961Y37469D01*
X61955Y37467D01*
X61956Y37468D01*
X61987Y37542D01*
X62005Y37620D01*
X62010Y37700D01*
X62005Y37780D01*
X61987Y37858D01*
X61956Y37932D01*
X61914Y38001D01*
X61862Y38062D01*
X61801Y38114D01*
X61732Y38156D01*
X61658Y38187D01*
X61580Y38205D01*
X61500Y38212D01*
X61420Y38205D01*
X61342Y38187D01*
X61268Y38156D01*
X61199Y38114D01*
X61138Y38062D01*
X61086Y38001D01*
X61050Y37942D01*
X61014Y38001D01*
X60962Y38062D01*
X60901Y38114D01*
X60832Y38156D01*
X60758Y38187D01*
X60680Y38205D01*
X60600Y38212D01*
X60520Y38205D01*
X60442Y38187D01*
X60368Y38156D01*
X60299Y38114D01*
X60238Y38062D01*
X60186Y38001D01*
X60144Y37932D01*
X60113Y37858D01*
X60095Y37780D01*
X60088Y37700D01*
X60095Y37620D01*
X60113Y37542D01*
X60144Y37468D01*
X60145Y37467D01*
X60139Y37469D01*
X60120Y37474D01*
X60100Y37475D01*
X59580Y37474D01*
X59561Y37469D01*
X59555Y37467D01*
X59556Y37468D01*
X59587Y37542D01*
X59605Y37620D01*
X59610Y37700D01*
X59605Y37780D01*
X59587Y37858D01*
X59556Y37932D01*
X59514Y38001D01*
X59462Y38062D01*
X59401Y38114D01*
X59332Y38156D01*
X59258Y38187D01*
X59180Y38205D01*
X59100Y38212D01*
X59020Y38205D01*
X58942Y38187D01*
X58868Y38156D01*
X58799Y38114D01*
X58738Y38062D01*
X58686Y38001D01*
X58650Y37942D01*
X58614Y38001D01*
X58562Y38062D01*
X58501Y38114D01*
X58432Y38156D01*
X58358Y38187D01*
X58280Y38205D01*
X58200Y38212D01*
X58120Y38205D01*
X58042Y38187D01*
X57968Y38156D01*
X57899Y38114D01*
X57838Y38062D01*
X57786Y38001D01*
X57744Y37932D01*
X57713Y37858D01*
X57695Y37780D01*
X57688Y37700D01*
X57695Y37620D01*
X57713Y37542D01*
X57744Y37468D01*
X57745Y37467D01*
X57739Y37469D01*
X57720Y37474D01*
X57700Y37475D01*
X57180Y37474D01*
X57161Y37469D01*
X57155Y37467D01*
X57156Y37468D01*
X57187Y37542D01*
X57205Y37620D01*
X57210Y37700D01*
X57205Y37780D01*
X57187Y37858D01*
X57156Y37932D01*
X57114Y38001D01*
X57062Y38062D01*
X57001Y38114D01*
X56932Y38156D01*
X56858Y38187D01*
X56780Y38205D01*
X56700Y38212D01*
X56620Y38205D01*
X56542Y38187D01*
X56468Y38156D01*
X56399Y38114D01*
X56338Y38062D01*
X56286Y38001D01*
X56250Y37942D01*
X56214Y38001D01*
X56162Y38062D01*
X56101Y38114D01*
X56032Y38156D01*
X55958Y38187D01*
X55880Y38205D01*
X55800Y38212D01*
X55720Y38205D01*
X55642Y38187D01*
X55568Y38156D01*
X55499Y38114D01*
X55438Y38062D01*
X55386Y38001D01*
X55344Y37932D01*
X55313Y37858D01*
X55295Y37780D01*
X55288Y37700D01*
X55295Y37620D01*
X55313Y37542D01*
X55344Y37468D01*
X55345Y37467D01*
X55339Y37469D01*
X55320Y37474D01*
X55300Y37475D01*
X54780Y37474D01*
X54761Y37469D01*
X54755Y37467D01*
X54756Y37468D01*
X54787Y37542D01*
X54805Y37620D01*
X54810Y37700D01*
X54805Y37780D01*
X54787Y37858D01*
X54756Y37932D01*
X54714Y38001D01*
X54662Y38062D01*
X54601Y38114D01*
X54532Y38156D01*
X54458Y38187D01*
X54429Y38194D01*
Y39626D01*
X54520Y39626D01*
X54539Y39631D01*
X54545Y39633D01*
X54544Y39632D01*
X54513Y39558D01*
X54495Y39480D01*
X54488Y39400D01*
X54495Y39320D01*
X54513Y39242D01*
X54544Y39168D01*
X54586Y39099D01*
X54638Y39038D01*
X54699Y38986D01*
X54768Y38944D01*
X54842Y38913D01*
X54920Y38895D01*
X55000Y38888D01*
X55080Y38895D01*
X55158Y38913D01*
X55232Y38944D01*
X55301Y38986D01*
X55362Y39038D01*
X55414Y39099D01*
X55450Y39158D01*
X55486Y39099D01*
X55538Y39038D01*
X55599Y38986D01*
X55668Y38944D01*
X55742Y38913D01*
X55820Y38895D01*
X55900Y38888D01*
X55980Y38895D01*
X56058Y38913D01*
X56132Y38944D01*
X56201Y38986D01*
X56262Y39038D01*
X56314Y39099D01*
X56356Y39168D01*
X56387Y39242D01*
X56405Y39320D01*
X56410Y39400D01*
X56405Y39480D01*
X56387Y39558D01*
X56356Y39632D01*
X56355Y39633D01*
X56361Y39631D01*
X56380Y39626D01*
X56400Y39625D01*
X56920Y39626D01*
X56939Y39631D01*
X56945Y39633D01*
X56944Y39632D01*
X56913Y39558D01*
X56895Y39480D01*
X56888Y39400D01*
X56895Y39320D01*
X56913Y39242D01*
X56944Y39168D01*
X56986Y39099D01*
X57038Y39038D01*
X57099Y38986D01*
X57168Y38944D01*
X57242Y38913D01*
X57320Y38895D01*
X57400Y38888D01*
X57480Y38895D01*
X57558Y38913D01*
X57632Y38944D01*
X57701Y38986D01*
X57762Y39038D01*
X57814Y39099D01*
X57850Y39158D01*
X57886Y39099D01*
X57938Y39038D01*
X57999Y38986D01*
X58068Y38944D01*
X58142Y38913D01*
X58220Y38895D01*
X58300Y38888D01*
X58380Y38895D01*
X58458Y38913D01*
X58532Y38944D01*
X58601Y38986D01*
X58662Y39038D01*
X58714Y39099D01*
X58756Y39168D01*
X58787Y39242D01*
X58805Y39320D01*
X58810Y39400D01*
X58805Y39480D01*
X58787Y39558D01*
X58756Y39632D01*
X58755Y39633D01*
X58761Y39631D01*
X58780Y39626D01*
X58800Y39625D01*
X59242Y39626D01*
X59213Y39558D01*
X59195Y39480D01*
X59188Y39400D01*
X59195Y39320D01*
X59213Y39242D01*
X59244Y39168D01*
X59286Y39099D01*
X59338Y39038D01*
X59399Y38986D01*
X59468Y38944D01*
X59542Y38913D01*
X59620Y38895D01*
X59700Y38888D01*
X59780Y38895D01*
X59858Y38913D01*
X59932Y38944D01*
X60001Y38986D01*
X60062Y39038D01*
X60114Y39099D01*
X60156Y39168D01*
X60187Y39242D01*
X60200Y39298D01*
X60213Y39242D01*
X60244Y39168D01*
X60286Y39099D01*
X60338Y39038D01*
X60399Y38986D01*
X60468Y38944D01*
X60542Y38913D01*
X60620Y38895D01*
X60700Y38888D01*
X60780Y38895D01*
X60858Y38913D01*
X60932Y38944D01*
X60990Y38980D01*
X60995Y38920D01*
X61013Y38842D01*
X61044Y38768D01*
X61086Y38699D01*
X61138Y38638D01*
X61199Y38586D01*
X61268Y38544D01*
X61342Y38513D01*
X61420Y38495D01*
X61500Y38488D01*
X61580Y38495D01*
X61658Y38513D01*
X61732Y38544D01*
X61801Y38586D01*
X61862Y38638D01*
X61914Y38699D01*
X61956Y38768D01*
X61987Y38842D01*
X62005Y38920D01*
X62009Y38980D01*
X62068Y38944D01*
X62142Y38913D01*
X62220Y38895D01*
X62300Y38888D01*
X62380Y38895D01*
X62458Y38913D01*
X62532Y38944D01*
X62590Y38980D01*
X62595Y38920D01*
X62613Y38842D01*
X62644Y38768D01*
X62686Y38699D01*
X62738Y38638D01*
X62799Y38586D01*
X62868Y38544D01*
X62942Y38513D01*
X63000Y38500D01*
Y38212D01*
G37*
G36*
Y18155D02*X62997Y18159D01*
X62924Y18244D01*
X62839Y18317D01*
X62744Y18376D01*
X62640Y18418D01*
X62532Y18445D01*
X62420Y18453D01*
X62308Y18445D01*
X62200Y18418D01*
X62096Y18376D01*
X62001Y18317D01*
X61916Y18244D01*
X61872Y18194D01*
X54429D01*
Y23285D01*
X54446Y23266D01*
X54531Y23193D01*
X54626Y23134D01*
X54730Y23092D01*
X54838Y23065D01*
X54950Y23057D01*
X55062Y23065D01*
X55170Y23092D01*
X55274Y23134D01*
X55369Y23193D01*
X55454Y23266D01*
X55527Y23351D01*
X55586Y23446D01*
X55628Y23550D01*
X55655Y23658D01*
X55661Y23770D01*
X55655Y23882D01*
X55628Y23990D01*
X55586Y24094D01*
X55527Y24189D01*
X55454Y24274D01*
X55369Y24347D01*
X55274Y24406D01*
X55170Y24448D01*
X55062Y24475D01*
X54950Y24483D01*
X54884Y24478D01*
X54429Y24933D01*
Y29312D01*
X54487Y29381D01*
X54546Y29476D01*
X54588Y29580D01*
X54615Y29688D01*
X54621Y29800D01*
X54615Y29912D01*
X54588Y30020D01*
X54546Y30124D01*
X54487Y30219D01*
X54429Y30288D01*
Y34976D01*
X54520Y34976D01*
X54539Y34981D01*
X54557Y34988D01*
X54574Y34999D01*
X54589Y35011D01*
X54601Y35026D01*
X54612Y35043D01*
X54619Y35061D01*
X54624Y35080D01*
X54625Y35100D01*
X54624Y36826D01*
X54627Y36840D01*
X54631Y36900D01*
Y37312D01*
X54662Y37338D01*
X54675Y37354D01*
X54675Y37350D01*
X54676Y35080D01*
X54681Y35061D01*
X54688Y35043D01*
X54699Y35026D01*
X54711Y35011D01*
X54726Y34999D01*
X54743Y34988D01*
X54761Y34981D01*
X54780Y34976D01*
X54800Y34975D01*
X55320Y34976D01*
X55339Y34981D01*
X55357Y34988D01*
X55374Y34999D01*
X55389Y35011D01*
X55401Y35026D01*
X55412Y35043D01*
X55419Y35061D01*
X55424Y35080D01*
X55425Y35100D01*
X55424Y37355D01*
X55438Y37338D01*
X55469Y37312D01*
Y36950D01*
X55473Y36890D01*
X55475Y36879D01*
X55476Y35080D01*
X55481Y35061D01*
X55488Y35043D01*
X55499Y35026D01*
X55511Y35011D01*
X55526Y34999D01*
X55543Y34988D01*
X55561Y34981D01*
X55580Y34976D01*
X55600Y34975D01*
X56120Y34976D01*
X56139Y34981D01*
X56157Y34988D01*
X56174Y34999D01*
X56189Y35011D01*
X56201Y35026D01*
X56212Y35043D01*
X56219Y35061D01*
X56224Y35080D01*
X56225Y35100D01*
X56224Y36876D01*
X56227Y36890D01*
X56231Y36950D01*
Y37427D01*
X56250Y37458D01*
X56269Y37427D01*
Y36900D01*
X56273Y36840D01*
X56275Y36829D01*
X56276Y35080D01*
X56281Y35061D01*
X56288Y35043D01*
X56299Y35026D01*
X56311Y35011D01*
X56326Y34999D01*
X56343Y34988D01*
X56361Y34981D01*
X56380Y34976D01*
X56400Y34975D01*
X56920Y34976D01*
X56939Y34981D01*
X56957Y34988D01*
X56974Y34999D01*
X56989Y35011D01*
X57001Y35026D01*
X57012Y35043D01*
X57019Y35061D01*
X57024Y35080D01*
X57025Y35100D01*
X57024Y36826D01*
X57027Y36840D01*
X57031Y36900D01*
Y37312D01*
X57062Y37338D01*
X57075Y37354D01*
X57075Y37350D01*
X57076Y35080D01*
X57081Y35061D01*
X57088Y35043D01*
X57099Y35026D01*
X57111Y35011D01*
X57126Y34999D01*
X57143Y34988D01*
X57161Y34981D01*
X57180Y34976D01*
X57200Y34975D01*
X57720Y34976D01*
X57739Y34981D01*
X57757Y34988D01*
X57774Y34999D01*
X57789Y35011D01*
X57801Y35026D01*
X57812Y35043D01*
X57819Y35061D01*
X57824Y35080D01*
X57825Y35100D01*
X57824Y37355D01*
X57838Y37338D01*
X57869Y37312D01*
Y36950D01*
X57873Y36890D01*
X57875Y36879D01*
X57876Y35080D01*
X57881Y35061D01*
X57888Y35043D01*
X57899Y35026D01*
X57911Y35011D01*
X57926Y34999D01*
X57943Y34988D01*
X57961Y34981D01*
X57980Y34976D01*
X58000Y34975D01*
X58520Y34976D01*
X58539Y34981D01*
X58557Y34988D01*
X58574Y34999D01*
X58589Y35011D01*
X58601Y35026D01*
X58612Y35043D01*
X58619Y35061D01*
X58624Y35080D01*
X58625Y35100D01*
X58624Y36876D01*
X58627Y36890D01*
X58631Y36950D01*
Y37427D01*
X58650Y37458D01*
X58669Y37427D01*
Y36950D01*
X58673Y36890D01*
X58675Y36879D01*
X58676Y35080D01*
X58681Y35061D01*
X58688Y35043D01*
X58699Y35026D01*
X58711Y35011D01*
X58726Y34999D01*
X58743Y34988D01*
X58761Y34981D01*
X58780Y34976D01*
X58800Y34975D01*
X59320Y34976D01*
X59339Y34981D01*
X59357Y34988D01*
X59374Y34999D01*
X59389Y35011D01*
X59401Y35026D01*
X59412Y35043D01*
X59419Y35061D01*
X59424Y35080D01*
X59425Y35100D01*
X59424Y36876D01*
X59427Y36890D01*
X59431Y36950D01*
Y37312D01*
X59462Y37338D01*
X59475Y37354D01*
X59475Y37350D01*
X59476Y35080D01*
X59481Y35061D01*
X59488Y35043D01*
X59499Y35026D01*
X59511Y35011D01*
X59526Y34999D01*
X59543Y34988D01*
X59561Y34981D01*
X59580Y34976D01*
X59600Y34975D01*
X60120Y34976D01*
X60139Y34981D01*
X60157Y34988D01*
X60174Y34999D01*
X60189Y35011D01*
X60201Y35026D01*
X60212Y35043D01*
X60219Y35061D01*
X60224Y35080D01*
X60225Y35100D01*
X60224Y37355D01*
X60238Y37338D01*
X60269Y37312D01*
Y37000D01*
X60273Y36940D01*
X60275Y36929D01*
X60276Y35080D01*
X60281Y35061D01*
X60288Y35043D01*
X60299Y35026D01*
X60311Y35011D01*
X60326Y34999D01*
X60343Y34988D01*
X60361Y34981D01*
X60380Y34976D01*
X60400Y34975D01*
X60920Y34976D01*
X60939Y34981D01*
X60957Y34988D01*
X60974Y34999D01*
X60989Y35011D01*
X61001Y35026D01*
X61012Y35043D01*
X61019Y35061D01*
X61024Y35080D01*
X61025Y35100D01*
X61024Y36926D01*
X61027Y36940D01*
X61031Y37000D01*
Y37427D01*
X61050Y37458D01*
X61069Y37427D01*
Y36950D01*
X61073Y36890D01*
X61075Y36879D01*
X61076Y35080D01*
X61081Y35061D01*
X61088Y35043D01*
X61099Y35026D01*
X61111Y35011D01*
X61126Y34999D01*
X61143Y34988D01*
X61161Y34981D01*
X61180Y34976D01*
X61200Y34975D01*
X61720Y34976D01*
X61739Y34981D01*
X61757Y34988D01*
X61774Y34999D01*
X61789Y35011D01*
X61801Y35026D01*
X61812Y35043D01*
X61819Y35061D01*
X61824Y35080D01*
X61825Y35100D01*
X61824Y36876D01*
X61827Y36890D01*
X61831Y36950D01*
Y37312D01*
X61862Y37338D01*
X61875Y37354D01*
X61875Y37350D01*
X61876Y35080D01*
X61881Y35061D01*
X61888Y35043D01*
X61899Y35026D01*
X61911Y35011D01*
X61926Y34999D01*
X61943Y34988D01*
X61961Y34981D01*
X61980Y34976D01*
X62000Y34975D01*
X62520Y34976D01*
X62539Y34981D01*
X62557Y34988D01*
X62574Y34999D01*
X62589Y35011D01*
X62601Y35026D01*
X62612Y35043D01*
X62619Y35061D01*
X62624Y35080D01*
X62625Y35100D01*
X62624Y37355D01*
X62638Y37338D01*
X62669Y37312D01*
Y36950D01*
X62673Y36890D01*
X62675Y36879D01*
X62676Y35080D01*
X62681Y35061D01*
X62688Y35043D01*
X62699Y35026D01*
X62711Y35011D01*
X62726Y34999D01*
X62743Y34988D01*
X62761Y34981D01*
X62780Y34976D01*
X62800Y34975D01*
X63000Y34975D01*
Y18155D01*
G37*
G36*
Y7509D02*X62475Y7509D01*
X62450Y7503D01*
X62427Y7493D01*
X62406Y7480D01*
X62387Y7463D01*
X62370Y7444D01*
X62357Y7423D01*
X62351Y7408D01*
Y10015D01*
X62352Y10030D01*
X62347Y10090D01*
X62333Y10148D01*
X62311Y10204D01*
X62279Y10255D01*
X62240Y10300D01*
X62229Y10310D01*
X55760Y16779D01*
X55750Y16790D01*
X55705Y16829D01*
X55654Y16861D01*
X55598Y16883D01*
X55540Y16897D01*
X55480Y16902D01*
X55465Y16901D01*
X54429D01*
Y17286D01*
X61872D01*
X61916Y17236D01*
X62001Y17163D01*
X62096Y17104D01*
X62200Y17062D01*
X62308Y17035D01*
X62420Y17027D01*
X62532Y17035D01*
X62640Y17062D01*
X62744Y17104D01*
X62839Y17163D01*
X62924Y17236D01*
X62997Y17321D01*
X63000Y17325D01*
Y7509D01*
G37*
G36*
Y0D02*X54429D01*
Y506D01*
X54450Y497D01*
X54475Y491D01*
X54500Y490D01*
X55525Y491D01*
X55550Y497D01*
X55573Y507D01*
X55594Y520D01*
X55613Y537D01*
X55630Y556D01*
X55643Y577D01*
X55653Y600D01*
X55659Y625D01*
X55660Y650D01*
X55659Y3275D01*
X55653Y3300D01*
X55643Y3323D01*
X55632Y3341D01*
X55641Y3346D01*
X55702Y3398D01*
X55754Y3459D01*
X55796Y3528D01*
X55827Y3602D01*
X55845Y3680D01*
X55850Y3760D01*
X55845Y3840D01*
X55827Y3918D01*
X55796Y3992D01*
X55767Y4039D01*
X56112D01*
X56410Y3741D01*
X56415Y3680D01*
X56433Y3602D01*
X56464Y3528D01*
X56506Y3459D01*
X56549Y3409D01*
X56475Y3409D01*
X56450Y3403D01*
X56427Y3393D01*
X56406Y3380D01*
X56387Y3363D01*
X56370Y3344D01*
X56357Y3323D01*
X56347Y3300D01*
X56341Y3275D01*
X56340Y3250D01*
X56341Y625D01*
X56347Y600D01*
X56357Y577D01*
X56370Y556D01*
X56387Y537D01*
X56406Y520D01*
X56427Y507D01*
X56450Y497D01*
X56475Y491D01*
X56500Y490D01*
X57525Y491D01*
X57550Y497D01*
X57573Y507D01*
X57594Y520D01*
X57613Y537D01*
X57630Y556D01*
X57643Y577D01*
X57653Y600D01*
X57659Y625D01*
X57660Y650D01*
X57659Y2920D01*
X58269Y3530D01*
X58280Y3540D01*
X58319Y3585D01*
X58319Y3585D01*
X58351Y3636D01*
X58373Y3692D01*
X58387Y3750D01*
X58392Y3810D01*
X58391Y3825D01*
Y4633D01*
X58406Y4620D01*
X58427Y4607D01*
X58450Y4597D01*
X58475Y4591D01*
X58500Y4590D01*
X59525Y4591D01*
X59550Y4597D01*
X59573Y4607D01*
X59594Y4620D01*
X59613Y4637D01*
X59630Y4656D01*
X59639Y4671D01*
Y3978D01*
X59071Y3409D01*
X58475Y3409D01*
X58450Y3403D01*
X58427Y3393D01*
X58406Y3380D01*
X58387Y3363D01*
X58370Y3344D01*
X58357Y3323D01*
X58347Y3300D01*
X58341Y3275D01*
X58340Y3250D01*
X58341Y625D01*
X58347Y600D01*
X58357Y577D01*
X58370Y556D01*
X58387Y537D01*
X58406Y520D01*
X58427Y507D01*
X58450Y497D01*
X58475Y491D01*
X58500Y490D01*
X59525Y491D01*
X59550Y497D01*
X59573Y507D01*
X59594Y520D01*
X59613Y537D01*
X59630Y556D01*
X59643Y577D01*
X59653Y600D01*
X59659Y625D01*
X59660Y650D01*
X59659Y2920D01*
X60279Y3540D01*
X60290Y3550D01*
X60329Y3595D01*
X60329Y3595D01*
X60361Y3646D01*
X60383Y3702D01*
X60397Y3760D01*
X60402Y3820D01*
X60401Y3835D01*
Y4624D01*
X60406Y4620D01*
X60427Y4607D01*
X60450Y4597D01*
X60475Y4591D01*
X60500Y4590D01*
X61525Y4591D01*
X61550Y4597D01*
X61573Y4607D01*
X61589Y4617D01*
Y3768D01*
X61231Y3410D01*
X60475Y3409D01*
X60450Y3403D01*
X60427Y3393D01*
X60406Y3380D01*
X60387Y3363D01*
X60370Y3344D01*
X60357Y3323D01*
X60347Y3300D01*
X60341Y3275D01*
X60340Y3250D01*
X60341Y625D01*
X60347Y600D01*
X60357Y577D01*
X60370Y556D01*
X60387Y537D01*
X60406Y520D01*
X60427Y507D01*
X60450Y497D01*
X60475Y491D01*
X60500Y490D01*
X61525Y491D01*
X61550Y497D01*
X61573Y507D01*
X61594Y520D01*
X61613Y537D01*
X61630Y556D01*
X61643Y577D01*
X61653Y600D01*
X61659Y625D01*
X61660Y650D01*
X61659Y2760D01*
X62229Y3330D01*
X62240Y3340D01*
X62279Y3385D01*
X62279Y3385D01*
X62311Y3436D01*
X62333Y3492D01*
X62347Y3550D01*
X62352Y3610D01*
X62351Y3625D01*
Y4692D01*
X62357Y4677D01*
X62370Y4656D01*
X62387Y4637D01*
X62406Y4620D01*
X62427Y4607D01*
X62450Y4597D01*
X62475Y4591D01*
X62500Y4590D01*
X63000Y4591D01*
Y3409D01*
X62475Y3409D01*
X62450Y3403D01*
X62427Y3393D01*
X62406Y3380D01*
X62387Y3363D01*
X62370Y3344D01*
X62357Y3323D01*
X62347Y3300D01*
X62341Y3275D01*
X62340Y3250D01*
X62341Y625D01*
X62347Y600D01*
X62357Y577D01*
X62370Y556D01*
X62387Y537D01*
X62406Y520D01*
X62427Y507D01*
X62450Y497D01*
X62475Y491D01*
X62500Y490D01*
X63000Y491D01*
Y0D01*
G37*
G36*
X54429Y54000D02*X63000D01*
Y42124D01*
X62780Y42124D01*
X62761Y42119D01*
X62743Y42112D01*
X62726Y42101D01*
X62711Y42089D01*
X62699Y42074D01*
X62688Y42057D01*
X62681Y42039D01*
X62676Y42020D01*
X62675Y42000D01*
X62676Y40274D01*
X62673Y40260D01*
X62669Y40200D01*
Y39753D01*
X62662Y39762D01*
X62631Y39788D01*
Y40100D01*
X62627Y40160D01*
X62625Y40171D01*
X62624Y42020D01*
X62619Y42039D01*
X62612Y42057D01*
X62601Y42074D01*
X62589Y42089D01*
X62574Y42101D01*
X62557Y42112D01*
X62539Y42119D01*
X62520Y42124D01*
X62500Y42125D01*
X61980Y42124D01*
X61961Y42119D01*
X61943Y42112D01*
X61926Y42101D01*
X61911Y42089D01*
X61899Y42074D01*
X61888Y42057D01*
X61881Y42039D01*
X61876Y42020D01*
X61875Y42000D01*
X61876Y40174D01*
X61873Y40160D01*
X61869Y40100D01*
Y39673D01*
X61844Y39632D01*
X61831Y39600D01*
Y40150D01*
X61827Y40210D01*
X61825Y40221D01*
X61824Y42020D01*
X61819Y42039D01*
X61812Y42057D01*
X61801Y42074D01*
X61789Y42089D01*
X61774Y42101D01*
X61757Y42112D01*
X61739Y42119D01*
X61720Y42124D01*
X61700Y42125D01*
X61180Y42124D01*
X61161Y42119D01*
X61143Y42112D01*
X61126Y42101D01*
X61111Y42089D01*
X61099Y42074D01*
X61088Y42057D01*
X61081Y42039D01*
X61076Y42020D01*
X61075Y42000D01*
X61076Y40224D01*
X61073Y40210D01*
X61069Y40150D01*
Y39753D01*
X61062Y39762D01*
X61031Y39788D01*
Y40200D01*
X61027Y40260D01*
X61025Y40271D01*
X61024Y42020D01*
X61019Y42039D01*
X61012Y42057D01*
X61001Y42074D01*
X60989Y42089D01*
X60974Y42101D01*
X60957Y42112D01*
X60939Y42119D01*
X60920Y42124D01*
X60900Y42125D01*
X60380Y42124D01*
X60361Y42119D01*
X60343Y42112D01*
X60326Y42101D01*
X60311Y42089D01*
X60299Y42074D01*
X60288Y42057D01*
X60281Y42039D01*
X60276Y42020D01*
X60275Y42000D01*
X60276Y40274D01*
X60273Y40260D01*
X60269Y40200D01*
Y39673D01*
X60244Y39632D01*
X60231Y39600D01*
Y40250D01*
X60227Y40310D01*
X60225Y40321D01*
X60224Y42020D01*
X60219Y42039D01*
X60212Y42057D01*
X60201Y42074D01*
X60189Y42089D01*
X60174Y42101D01*
X60157Y42112D01*
X60139Y42119D01*
X60120Y42124D01*
X60100Y42125D01*
X59580Y42124D01*
X59561Y42119D01*
X59543Y42112D01*
X59526Y42101D01*
X59511Y42089D01*
X59499Y42074D01*
X59488Y42057D01*
X59481Y42039D01*
X59476Y42020D01*
X59475Y42000D01*
X59476Y40324D01*
X59473Y40310D01*
X59469Y40250D01*
Y39856D01*
X59468Y39856D01*
X59425Y39830D01*
X59424Y42020D01*
X59419Y42039D01*
X59412Y42057D01*
X59401Y42074D01*
X59389Y42089D01*
X59374Y42101D01*
X59357Y42112D01*
X59339Y42119D01*
X59320Y42124D01*
X59300Y42125D01*
X58780Y42124D01*
X58761Y42119D01*
X58743Y42112D01*
X58726Y42101D01*
X58711Y42089D01*
X58699Y42074D01*
X58688Y42057D01*
X58681Y42039D01*
X58676Y42020D01*
X58675Y42000D01*
X58676Y39745D01*
X58662Y39762D01*
X58631Y39788D01*
Y40150D01*
X58627Y40210D01*
X58625Y40221D01*
X58624Y42020D01*
X58619Y42039D01*
X58612Y42057D01*
X58601Y42074D01*
X58589Y42089D01*
X58574Y42101D01*
X58557Y42112D01*
X58539Y42119D01*
X58520Y42124D01*
X58500Y42125D01*
X57980Y42124D01*
X57961Y42119D01*
X57943Y42112D01*
X57926Y42101D01*
X57911Y42089D01*
X57899Y42074D01*
X57888Y42057D01*
X57881Y42039D01*
X57876Y42020D01*
X57875Y42000D01*
X57876Y40224D01*
X57873Y40210D01*
X57869Y40150D01*
Y39673D01*
X57850Y39642D01*
X57831Y39673D01*
Y40150D01*
X57827Y40210D01*
X57825Y40221D01*
X57824Y42020D01*
X57819Y42039D01*
X57812Y42057D01*
X57801Y42074D01*
X57789Y42089D01*
X57774Y42101D01*
X57757Y42112D01*
X57739Y42119D01*
X57720Y42124D01*
X57700Y42125D01*
X57180Y42124D01*
X57161Y42119D01*
X57143Y42112D01*
X57126Y42101D01*
X57111Y42089D01*
X57099Y42074D01*
X57088Y42057D01*
X57081Y42039D01*
X57076Y42020D01*
X57075Y42000D01*
X57076Y40224D01*
X57073Y40210D01*
X57069Y40150D01*
Y39788D01*
X57038Y39762D01*
X57025Y39746D01*
X57025Y39750D01*
X57024Y42020D01*
X57019Y42039D01*
X57012Y42057D01*
X57001Y42074D01*
X56989Y42089D01*
X56974Y42101D01*
X56957Y42112D01*
X56939Y42119D01*
X56920Y42124D01*
X56900Y42125D01*
X56380Y42124D01*
X56361Y42119D01*
X56343Y42112D01*
X56326Y42101D01*
X56311Y42089D01*
X56299Y42074D01*
X56288Y42057D01*
X56281Y42039D01*
X56276Y42020D01*
X56275Y42000D01*
X56276Y39745D01*
X56262Y39762D01*
X56231Y39788D01*
Y40200D01*
X56227Y40260D01*
X56225Y40271D01*
X56224Y42020D01*
X56219Y42039D01*
X56212Y42057D01*
X56201Y42074D01*
X56189Y42089D01*
X56174Y42101D01*
X56157Y42112D01*
X56139Y42119D01*
X56120Y42124D01*
X56100Y42125D01*
X55580Y42124D01*
X55561Y42119D01*
X55543Y42112D01*
X55526Y42101D01*
X55511Y42089D01*
X55499Y42074D01*
X55488Y42057D01*
X55481Y42039D01*
X55476Y42020D01*
X55475Y42000D01*
X55476Y40274D01*
X55473Y40260D01*
X55469Y40200D01*
Y39673D01*
X55450Y39642D01*
X55431Y39673D01*
Y40150D01*
X55427Y40210D01*
X55425Y40221D01*
X55424Y42020D01*
X55419Y42039D01*
X55412Y42057D01*
X55401Y42074D01*
X55389Y42089D01*
X55374Y42101D01*
X55357Y42112D01*
X55339Y42119D01*
X55320Y42124D01*
X55300Y42125D01*
X54780Y42124D01*
X54761Y42119D01*
X54743Y42112D01*
X54726Y42101D01*
X54711Y42089D01*
X54699Y42074D01*
X54688Y42057D01*
X54681Y42039D01*
X54676Y42020D01*
X54675Y42000D01*
X54676Y40224D01*
X54673Y40210D01*
X54669Y40150D01*
Y39788D01*
X54638Y39762D01*
X54625Y39746D01*
X54625Y39750D01*
X54624Y42020D01*
X54619Y42039D01*
X54612Y42057D01*
X54601Y42074D01*
X54589Y42089D01*
X54574Y42101D01*
X54557Y42112D01*
X54539Y42119D01*
X54520Y42124D01*
X54500Y42125D01*
X54429Y42125D01*
Y54000D01*
G37*
G36*
Y24933D02*X54374Y24988D01*
Y29261D01*
X54414Y29296D01*
X54429Y29312D01*
Y24933D01*
G37*
G36*
Y38194D02*X54380Y38205D01*
X54300Y38212D01*
X54220Y38205D01*
X54142Y38187D01*
X54068Y38156D01*
X53999Y38114D01*
X53938Y38062D01*
X53886Y38001D01*
X53850Y37942D01*
X53814Y38001D01*
X53762Y38062D01*
X53701Y38114D01*
X53632Y38156D01*
X53558Y38187D01*
X53480Y38205D01*
X53400Y38212D01*
X53320Y38205D01*
X53242Y38187D01*
X53168Y38156D01*
X53099Y38114D01*
X53038Y38062D01*
X52986Y38001D01*
X52944Y37932D01*
X52913Y37858D01*
X52895Y37780D01*
X52888Y37700D01*
X52895Y37620D01*
X52913Y37542D01*
X52944Y37468D01*
X52945Y37467D01*
X52939Y37469D01*
X52920Y37474D01*
X52900Y37475D01*
X52742Y37475D01*
Y38910D01*
X52758Y38913D01*
X52832Y38944D01*
X52901Y38986D01*
X52962Y39038D01*
X53014Y39099D01*
X53050Y39158D01*
X53086Y39099D01*
X53138Y39038D01*
X53199Y38986D01*
X53268Y38944D01*
X53342Y38913D01*
X53420Y38895D01*
X53500Y38888D01*
X53580Y38895D01*
X53658Y38913D01*
X53732Y38944D01*
X53801Y38986D01*
X53862Y39038D01*
X53914Y39099D01*
X53956Y39168D01*
X53987Y39242D01*
X54005Y39320D01*
X54010Y39400D01*
X54005Y39480D01*
X53987Y39558D01*
X53956Y39632D01*
X53955Y39633D01*
X53961Y39631D01*
X53980Y39626D01*
X54000Y39625D01*
X54429Y39626D01*
Y38194D01*
G37*
G36*
Y18194D02*X52742D01*
Y34976D01*
X52920Y34976D01*
X52939Y34981D01*
X52957Y34988D01*
X52974Y34999D01*
X52989Y35011D01*
X53001Y35026D01*
X53012Y35043D01*
X53019Y35061D01*
X53024Y35080D01*
X53025Y35100D01*
X53024Y37355D01*
X53038Y37338D01*
X53069Y37312D01*
Y37000D01*
X53073Y36940D01*
X53075Y36929D01*
X53076Y35080D01*
X53081Y35061D01*
X53088Y35043D01*
X53099Y35026D01*
X53111Y35011D01*
X53126Y34999D01*
X53143Y34988D01*
X53161Y34981D01*
X53180Y34976D01*
X53200Y34975D01*
X53720Y34976D01*
X53739Y34981D01*
X53757Y34988D01*
X53774Y34999D01*
X53789Y35011D01*
X53801Y35026D01*
X53812Y35043D01*
X53819Y35061D01*
X53824Y35080D01*
X53825Y35100D01*
X53824Y36926D01*
X53827Y36940D01*
X53831Y37000D01*
Y37427D01*
X53850Y37458D01*
X53869Y37427D01*
Y36900D01*
X53873Y36840D01*
X53875Y36829D01*
X53876Y35080D01*
X53881Y35061D01*
X53888Y35043D01*
X53899Y35026D01*
X53911Y35011D01*
X53926Y34999D01*
X53943Y34988D01*
X53961Y34981D01*
X53980Y34976D01*
X54000Y34975D01*
X54429Y34976D01*
Y30288D01*
X54414Y30304D01*
X54329Y30377D01*
X54234Y30436D01*
X54130Y30478D01*
X54022Y30505D01*
X53910Y30513D01*
X53798Y30505D01*
X53690Y30478D01*
X53586Y30436D01*
X53491Y30377D01*
X53406Y30304D01*
X53333Y30219D01*
X53274Y30124D01*
X53232Y30020D01*
X53205Y29912D01*
X53197Y29800D01*
X53205Y29688D01*
X53232Y29580D01*
X53274Y29476D01*
X53333Y29381D01*
X53406Y29296D01*
X53466Y29244D01*
Y24818D01*
X53465Y24800D01*
X53470Y24729D01*
X53487Y24659D01*
X53514Y24593D01*
X53552Y24532D01*
X53552Y24532D01*
X53598Y24478D01*
X53612Y24466D01*
X54242Y23836D01*
X54237Y23770D01*
X54245Y23658D01*
X54272Y23550D01*
X54314Y23446D01*
X54373Y23351D01*
X54429Y23285D01*
Y18194D01*
G37*
G36*
Y16901D02*X52742D01*
Y17286D01*
X54429D01*
Y16901D01*
G37*
G36*
Y0D02*X52742D01*
Y490D01*
X53525Y491D01*
X53550Y497D01*
X53573Y507D01*
X53594Y520D01*
X53613Y537D01*
X53630Y556D01*
X53643Y577D01*
X53653Y600D01*
X53659Y625D01*
X53660Y650D01*
X53659Y3275D01*
X53653Y3300D01*
X53643Y3323D01*
X53630Y3344D01*
X53613Y3363D01*
X53594Y3380D01*
X53573Y3393D01*
X53550Y3403D01*
X53525Y3409D01*
X53500Y3410D01*
X52742Y3409D01*
Y3459D01*
X54429D01*
Y3394D01*
X54427Y3393D01*
X54406Y3380D01*
X54387Y3363D01*
X54370Y3344D01*
X54357Y3323D01*
X54347Y3300D01*
X54341Y3275D01*
X54340Y3250D01*
X54341Y625D01*
X54347Y600D01*
X54357Y577D01*
X54370Y556D01*
X54387Y537D01*
X54406Y520D01*
X54427Y507D01*
X54429Y506D01*
Y0D01*
G37*
G36*
X52742Y54000D02*X54429D01*
Y42125D01*
X53980Y42124D01*
X53961Y42119D01*
X53943Y42112D01*
X53926Y42101D01*
X53911Y42089D01*
X53899Y42074D01*
X53888Y42057D01*
X53881Y42039D01*
X53876Y42020D01*
X53875Y42000D01*
X53876Y39745D01*
X53862Y39762D01*
X53831Y39788D01*
Y40050D01*
X53827Y40110D01*
X53825Y40121D01*
X53824Y42020D01*
X53819Y42039D01*
X53812Y42057D01*
X53801Y42074D01*
X53789Y42089D01*
X53774Y42101D01*
X53757Y42112D01*
X53739Y42119D01*
X53720Y42124D01*
X53700Y42125D01*
X53180Y42124D01*
X53161Y42119D01*
X53143Y42112D01*
X53126Y42101D01*
X53111Y42089D01*
X53099Y42074D01*
X53088Y42057D01*
X53081Y42039D01*
X53076Y42020D01*
X53075Y42000D01*
X53076Y40124D01*
X53073Y40110D01*
X53069Y40050D01*
Y39673D01*
X53050Y39642D01*
X53031Y39673D01*
Y40200D01*
X53027Y40260D01*
X53025Y40271D01*
X53024Y42020D01*
X53019Y42039D01*
X53012Y42057D01*
X53001Y42074D01*
X52989Y42089D01*
X52974Y42101D01*
X52957Y42112D01*
X52939Y42119D01*
X52920Y42124D01*
X52900Y42125D01*
X52742Y42125D01*
Y54000D01*
G37*
G36*
Y7509D02*X52475Y7509D01*
X52450Y7503D01*
X52427Y7493D01*
X52406Y7480D01*
X52387Y7463D01*
X52370Y7444D01*
X52357Y7423D01*
X52347Y7400D01*
X52341Y7375D01*
X52340Y7350D01*
X52341Y4801D01*
X51660D01*
X51659Y7375D01*
X51653Y7400D01*
X51643Y7423D01*
X51630Y7444D01*
X51613Y7463D01*
X51594Y7480D01*
X51573Y7493D01*
X51550Y7503D01*
X51525Y7509D01*
X51500Y7510D01*
X50475Y7509D01*
X50450Y7503D01*
X50427Y7493D01*
X50406Y7480D01*
X50387Y7463D01*
X50370Y7444D01*
X50357Y7423D01*
X50347Y7400D01*
X50341Y7375D01*
X50340Y7350D01*
X50341Y4801D01*
X49660D01*
X49659Y7375D01*
X49653Y7400D01*
X49643Y7423D01*
X49630Y7444D01*
X49613Y7463D01*
X49594Y7480D01*
X49573Y7493D01*
X49550Y7503D01*
X49525Y7509D01*
X49500Y7510D01*
X48475Y7509D01*
X48450Y7503D01*
X48427Y7493D01*
X48406Y7480D01*
X48387Y7463D01*
X48370Y7444D01*
X48357Y7423D01*
X48347Y7400D01*
X48341Y7375D01*
X48340Y7350D01*
X48341Y4801D01*
X47660D01*
X47659Y7375D01*
X47653Y7400D01*
X47643Y7423D01*
X47630Y7444D01*
X47613Y7463D01*
X47594Y7480D01*
X47573Y7493D01*
X47550Y7503D01*
X47525Y7509D01*
X47500Y7510D01*
X46475Y7509D01*
X46450Y7503D01*
X46427Y7493D01*
X46406Y7480D01*
X46387Y7463D01*
X46370Y7444D01*
X46357Y7423D01*
X46347Y7400D01*
X46341Y7375D01*
X46340Y7350D01*
X46341Y4801D01*
X45660D01*
X45659Y7375D01*
X45653Y7400D01*
X45643Y7423D01*
X45630Y7444D01*
X45613Y7463D01*
X45594Y7480D01*
X45573Y7493D01*
X45550Y7503D01*
X45525Y7509D01*
X45500Y7510D01*
X44475Y7509D01*
X44450Y7503D01*
X44427Y7493D01*
X44406Y7480D01*
X44387Y7463D01*
X44370Y7444D01*
X44357Y7423D01*
X44347Y7400D01*
X44341Y7375D01*
X44340Y7350D01*
X44341Y4801D01*
X43660D01*
X43659Y7375D01*
X43653Y7400D01*
X43643Y7423D01*
X43630Y7444D01*
X43613Y7463D01*
X43594Y7480D01*
X43573Y7493D01*
X43550Y7503D01*
X43525Y7509D01*
X43500Y7510D01*
X42475Y7509D01*
X42450Y7503D01*
X42427Y7493D01*
X42406Y7480D01*
X42387Y7463D01*
X42370Y7444D01*
X42357Y7423D01*
X42347Y7400D01*
X42341Y7375D01*
X42340Y7350D01*
X42341Y4801D01*
X41660D01*
X41659Y7375D01*
X41653Y7400D01*
X41643Y7423D01*
X41630Y7444D01*
X41613Y7463D01*
X41594Y7480D01*
X41573Y7493D01*
X41550Y7503D01*
X41525Y7509D01*
X41500Y7510D01*
X40475Y7509D01*
X40450Y7503D01*
X40427Y7493D01*
X40406Y7480D01*
X40400Y7475D01*
Y8179D01*
X41187Y8179D01*
X41212Y8185D01*
X41235Y8195D01*
X41256Y8208D01*
X41275Y8225D01*
X41292Y8244D01*
X41305Y8265D01*
X41315Y8288D01*
X41321Y8313D01*
X41322Y8338D01*
X41321Y9887D01*
X41315Y9912D01*
X41305Y9935D01*
X41292Y9956D01*
X41275Y9975D01*
X41256Y9992D01*
X41235Y10005D01*
X41212Y10015D01*
X41187Y10021D01*
X41162Y10022D01*
X40400Y10021D01*
Y10129D01*
X47577D01*
X47582Y10110D01*
X47624Y10006D01*
X47683Y9911D01*
X47756Y9826D01*
X47841Y9753D01*
X47936Y9694D01*
X48040Y9652D01*
X48148Y9625D01*
X48260Y9617D01*
X48372Y9625D01*
X48480Y9652D01*
X48584Y9694D01*
X48679Y9753D01*
X48764Y9826D01*
X48805Y9873D01*
X48843Y9811D01*
X48916Y9726D01*
X49001Y9653D01*
X49096Y9594D01*
X49200Y9552D01*
X49308Y9525D01*
X49420Y9517D01*
X49532Y9525D01*
X49640Y9552D01*
X49744Y9594D01*
X49839Y9653D01*
X49924Y9726D01*
X49997Y9811D01*
X50056Y9906D01*
X50098Y10010D01*
X50125Y10118D01*
X50130Y10211D01*
X50270Y10071D01*
X50280Y10060D01*
X50325Y10021D01*
X50376Y9989D01*
X50432Y9967D01*
X50490Y9953D01*
X50550Y9948D01*
X50565Y9949D01*
X52742D01*
Y7509D01*
G37*
G36*
X40400Y7475D02*X40387Y7463D01*
X40370Y7444D01*
X40357Y7423D01*
X40347Y7400D01*
X40341Y7375D01*
X40340Y7350D01*
X40341Y4801D01*
X39660D01*
X39659Y7375D01*
X39653Y7400D01*
X39643Y7423D01*
X39630Y7444D01*
X39613Y7463D01*
X39594Y7480D01*
X39573Y7493D01*
X39550Y7503D01*
X39525Y7509D01*
X39500Y7510D01*
X38475Y7509D01*
X38450Y7503D01*
X38427Y7493D01*
X38406Y7480D01*
X38387Y7463D01*
X38370Y7444D01*
X38357Y7423D01*
X38347Y7400D01*
X38341Y7375D01*
X38340Y7350D01*
X38341Y4801D01*
X37660D01*
X37659Y7375D01*
X37653Y7400D01*
X37643Y7423D01*
X37630Y7444D01*
X37613Y7463D01*
X37594Y7480D01*
X37573Y7493D01*
X37550Y7503D01*
X37525Y7509D01*
X37500Y7510D01*
X36475Y7509D01*
X36450Y7503D01*
X36427Y7493D01*
X36406Y7480D01*
X36387Y7463D01*
X36370Y7444D01*
X36357Y7423D01*
X36347Y7400D01*
X36341Y7375D01*
X36340Y7350D01*
X36341Y4801D01*
X35815D01*
X35800Y4802D01*
X35740Y4797D01*
X35682Y4783D01*
X35626Y4761D01*
X35575Y4729D01*
X35531Y4689D01*
X34971Y4130D01*
X34960Y4120D01*
X34921Y4075D01*
X34889Y4024D01*
X34867Y3968D01*
X34853Y3910D01*
X34853Y3910D01*
X34848Y3850D01*
X34849Y3835D01*
Y2678D01*
X34532Y2361D01*
X23677D01*
X23650Y2367D01*
X23640Y2368D01*
X23610Y2375D01*
X23530Y2382D01*
X23450Y2375D01*
X23432Y2371D01*
X11058D01*
X9998Y3430D01*
Y3469D01*
X23841D01*
X23879Y3436D01*
X23948Y3394D01*
X24022Y3363D01*
X24100Y3345D01*
X24180Y3338D01*
X24260Y3345D01*
X24338Y3363D01*
X24412Y3394D01*
X24481Y3436D01*
X24531Y3479D01*
X31955D01*
X31970Y3478D01*
X32030Y3483D01*
X32030Y3483D01*
X32088Y3497D01*
X32144Y3519D01*
X32195Y3551D01*
X32240Y3590D01*
X32250Y3601D01*
X36849Y8200D01*
X36860Y8210D01*
X36899Y8255D01*
X36899Y8255D01*
X36931Y8306D01*
X36953Y8362D01*
X36967Y8420D01*
X36972Y8480D01*
X36971Y8495D01*
Y8853D01*
X36980Y8814D01*
X37036Y8680D01*
X37112Y8556D01*
X37206Y8446D01*
X37316Y8352D01*
X37440Y8276D01*
X37574Y8220D01*
X37715Y8187D01*
X37860Y8175D01*
X38005Y8187D01*
X38146Y8220D01*
X38280Y8276D01*
X38404Y8352D01*
X38514Y8446D01*
X38608Y8556D01*
X38684Y8680D01*
X38740Y8814D01*
X38773Y8955D01*
X38782Y9100D01*
X38773Y9245D01*
X38740Y9386D01*
X38684Y9520D01*
X38608Y9644D01*
X38514Y9754D01*
X38404Y9848D01*
X38280Y9924D01*
X38146Y9980D01*
X38005Y10013D01*
X37860Y10025D01*
X37715Y10013D01*
X37574Y9980D01*
X37440Y9924D01*
X37316Y9848D01*
X37206Y9754D01*
X37112Y9644D01*
X37036Y9520D01*
X36980Y9386D01*
X36971Y9347D01*
Y9662D01*
X37438Y10129D01*
X40400D01*
Y10021D01*
X39613Y10021D01*
X39588Y10015D01*
X39565Y10005D01*
X39544Y9992D01*
X39525Y9975D01*
X39508Y9956D01*
X39495Y9935D01*
X39485Y9912D01*
X39479Y9887D01*
X39478Y9862D01*
X39479Y8313D01*
X39485Y8288D01*
X39495Y8265D01*
X39508Y8244D01*
X39525Y8225D01*
X39544Y8208D01*
X39565Y8195D01*
X39588Y8185D01*
X39613Y8179D01*
X39638Y8178D01*
X40400Y8179D01*
Y7475D01*
G37*
G36*
X52742Y16901D02*X51868D01*
X51699Y17070D01*
X51720Y17062D01*
X51828Y17035D01*
X51940Y17027D01*
X52052Y17035D01*
X52160Y17062D01*
X52264Y17104D01*
X52359Y17163D01*
X52444Y17236D01*
X52488Y17286D01*
X52742D01*
Y16901D01*
G37*
G36*
Y0D02*X51000D01*
Y491D01*
X51525Y491D01*
X51550Y497D01*
X51573Y507D01*
X51594Y520D01*
X51613Y537D01*
X51630Y556D01*
X51643Y577D01*
X51653Y600D01*
X51659Y625D01*
X51660Y650D01*
X51659Y3275D01*
X51653Y3300D01*
X51643Y3323D01*
X51630Y3344D01*
X51613Y3363D01*
X51594Y3380D01*
X51573Y3393D01*
X51550Y3403D01*
X51525Y3409D01*
X51500Y3410D01*
X51000Y3409D01*
Y3459D01*
X52742D01*
Y3409D01*
X52475Y3409D01*
X52450Y3403D01*
X52427Y3393D01*
X52406Y3380D01*
X52387Y3363D01*
X52370Y3344D01*
X52357Y3323D01*
X52347Y3300D01*
X52341Y3275D01*
X52340Y3250D01*
X52341Y625D01*
X52347Y600D01*
X52357Y577D01*
X52370Y556D01*
X52387Y537D01*
X52406Y520D01*
X52427Y507D01*
X52450Y497D01*
X52475Y491D01*
X52500Y490D01*
X52742Y490D01*
Y0D01*
G37*
G36*
X51000D02*X49000D01*
Y491D01*
X49525Y491D01*
X49550Y497D01*
X49573Y507D01*
X49594Y520D01*
X49613Y537D01*
X49630Y556D01*
X49643Y577D01*
X49653Y600D01*
X49659Y625D01*
X49660Y650D01*
X49659Y3275D01*
X49653Y3300D01*
X49643Y3323D01*
X49630Y3344D01*
X49613Y3363D01*
X49594Y3380D01*
X49573Y3393D01*
X49550Y3403D01*
X49525Y3409D01*
X49500Y3410D01*
X49000Y3409D01*
Y3459D01*
X51000D01*
Y3409D01*
X50475Y3409D01*
X50450Y3403D01*
X50427Y3393D01*
X50406Y3380D01*
X50387Y3363D01*
X50370Y3344D01*
X50357Y3323D01*
X50347Y3300D01*
X50341Y3275D01*
X50340Y3250D01*
X50341Y625D01*
X50347Y600D01*
X50357Y577D01*
X50370Y556D01*
X50387Y537D01*
X50406Y520D01*
X50427Y507D01*
X50450Y497D01*
X50475Y491D01*
X50500Y490D01*
X51000Y491D01*
Y0D01*
G37*
G36*
X49000D02*X47000D01*
Y491D01*
X47525Y491D01*
X47550Y497D01*
X47573Y507D01*
X47594Y520D01*
X47613Y537D01*
X47630Y556D01*
X47643Y577D01*
X47653Y600D01*
X47659Y625D01*
X47660Y650D01*
X47659Y3275D01*
X47653Y3300D01*
X47643Y3323D01*
X47630Y3344D01*
X47613Y3363D01*
X47594Y3380D01*
X47573Y3393D01*
X47550Y3403D01*
X47525Y3409D01*
X47500Y3410D01*
X47000Y3409D01*
Y3459D01*
X49000D01*
Y3409D01*
X48475Y3409D01*
X48450Y3403D01*
X48427Y3393D01*
X48406Y3380D01*
X48387Y3363D01*
X48370Y3344D01*
X48357Y3323D01*
X48347Y3300D01*
X48341Y3275D01*
X48340Y3250D01*
X48341Y625D01*
X48347Y600D01*
X48357Y577D01*
X48370Y556D01*
X48387Y537D01*
X48406Y520D01*
X48427Y507D01*
X48450Y497D01*
X48475Y491D01*
X48500Y490D01*
X49000Y491D01*
Y0D01*
G37*
G36*
X47000D02*X45000D01*
Y491D01*
X45525Y491D01*
X45550Y497D01*
X45573Y507D01*
X45594Y520D01*
X45613Y537D01*
X45630Y556D01*
X45643Y577D01*
X45653Y600D01*
X45659Y625D01*
X45660Y650D01*
X45659Y3275D01*
X45653Y3300D01*
X45643Y3323D01*
X45630Y3344D01*
X45613Y3363D01*
X45594Y3380D01*
X45573Y3393D01*
X45550Y3403D01*
X45525Y3409D01*
X45500Y3410D01*
X45000Y3409D01*
Y3459D01*
X47000D01*
Y3409D01*
X46475Y3409D01*
X46450Y3403D01*
X46427Y3393D01*
X46406Y3380D01*
X46387Y3363D01*
X46370Y3344D01*
X46357Y3323D01*
X46347Y3300D01*
X46341Y3275D01*
X46340Y3250D01*
X46341Y625D01*
X46347Y600D01*
X46357Y577D01*
X46370Y556D01*
X46387Y537D01*
X46406Y520D01*
X46427Y507D01*
X46450Y497D01*
X46475Y491D01*
X46500Y490D01*
X47000Y491D01*
Y0D01*
G37*
G36*
X45000D02*X43000D01*
Y491D01*
X43525Y491D01*
X43550Y497D01*
X43573Y507D01*
X43594Y520D01*
X43613Y537D01*
X43630Y556D01*
X43643Y577D01*
X43653Y600D01*
X43659Y625D01*
X43660Y650D01*
X43659Y3275D01*
X43653Y3300D01*
X43643Y3323D01*
X43630Y3344D01*
X43613Y3363D01*
X43594Y3380D01*
X43573Y3393D01*
X43550Y3403D01*
X43525Y3409D01*
X43500Y3410D01*
X43000Y3409D01*
Y3459D01*
X45000D01*
Y3409D01*
X44475Y3409D01*
X44450Y3403D01*
X44427Y3393D01*
X44406Y3380D01*
X44387Y3363D01*
X44370Y3344D01*
X44357Y3323D01*
X44347Y3300D01*
X44341Y3275D01*
X44340Y3250D01*
X44341Y625D01*
X44347Y600D01*
X44357Y577D01*
X44370Y556D01*
X44387Y537D01*
X44406Y520D01*
X44427Y507D01*
X44450Y497D01*
X44475Y491D01*
X44500Y490D01*
X45000Y491D01*
Y0D01*
G37*
G36*
X43000D02*X41000D01*
Y491D01*
X41525Y491D01*
X41550Y497D01*
X41573Y507D01*
X41594Y520D01*
X41613Y537D01*
X41630Y556D01*
X41643Y577D01*
X41653Y600D01*
X41659Y625D01*
X41660Y650D01*
X41659Y3275D01*
X41653Y3300D01*
X41643Y3323D01*
X41630Y3344D01*
X41613Y3363D01*
X41594Y3380D01*
X41573Y3393D01*
X41550Y3403D01*
X41525Y3409D01*
X41500Y3410D01*
X41000Y3409D01*
Y3459D01*
X43000D01*
Y3409D01*
X42475Y3409D01*
X42450Y3403D01*
X42427Y3393D01*
X42406Y3380D01*
X42387Y3363D01*
X42370Y3344D01*
X42357Y3323D01*
X42347Y3300D01*
X42341Y3275D01*
X42340Y3250D01*
X42341Y625D01*
X42347Y600D01*
X42357Y577D01*
X42370Y556D01*
X42387Y537D01*
X42406Y520D01*
X42427Y507D01*
X42450Y497D01*
X42475Y491D01*
X42500Y490D01*
X43000Y491D01*
Y0D01*
G37*
G36*
X41000D02*X39000D01*
Y491D01*
X39525Y491D01*
X39550Y497D01*
X39573Y507D01*
X39594Y520D01*
X39613Y537D01*
X39630Y556D01*
X39643Y577D01*
X39653Y600D01*
X39659Y625D01*
X39660Y650D01*
X39659Y3275D01*
X39653Y3300D01*
X39643Y3323D01*
X39630Y3344D01*
X39613Y3363D01*
X39594Y3380D01*
X39573Y3393D01*
X39550Y3403D01*
X39525Y3409D01*
X39500Y3410D01*
X39000Y3409D01*
Y3459D01*
X41000D01*
Y3409D01*
X40475Y3409D01*
X40450Y3403D01*
X40427Y3393D01*
X40406Y3380D01*
X40387Y3363D01*
X40370Y3344D01*
X40357Y3323D01*
X40347Y3300D01*
X40341Y3275D01*
X40340Y3250D01*
X40341Y625D01*
X40347Y600D01*
X40357Y577D01*
X40370Y556D01*
X40387Y537D01*
X40406Y520D01*
X40427Y507D01*
X40450Y497D01*
X40475Y491D01*
X40500Y490D01*
X41000Y491D01*
Y0D01*
G37*
G36*
X39000D02*X37000D01*
Y491D01*
X37525Y491D01*
X37550Y497D01*
X37573Y507D01*
X37594Y520D01*
X37613Y537D01*
X37630Y556D01*
X37643Y577D01*
X37653Y600D01*
X37659Y625D01*
X37660Y650D01*
X37659Y3275D01*
X37653Y3300D01*
X37643Y3323D01*
X37630Y3344D01*
X37613Y3363D01*
X37594Y3380D01*
X37573Y3393D01*
X37550Y3403D01*
X37525Y3409D01*
X37500Y3410D01*
X37000Y3409D01*
Y3459D01*
X39000D01*
Y3409D01*
X38475Y3409D01*
X38450Y3403D01*
X38427Y3393D01*
X38406Y3380D01*
X38387Y3363D01*
X38370Y3344D01*
X38357Y3323D01*
X38347Y3300D01*
X38341Y3275D01*
X38340Y3250D01*
X38341Y625D01*
X38347Y600D01*
X38357Y577D01*
X38370Y556D01*
X38387Y537D01*
X38406Y520D01*
X38427Y507D01*
X38450Y497D01*
X38475Y491D01*
X38500Y490D01*
X39000Y491D01*
Y0D01*
G37*
G36*
X37000D02*X9998D01*
Y1580D01*
X10620Y961D01*
X10630Y950D01*
X10675Y911D01*
X10676Y911D01*
X10676Y910D01*
X10702Y895D01*
X10726Y879D01*
X10727Y879D01*
X10727Y879D01*
X10754Y868D01*
X10782Y857D01*
X10782Y856D01*
X10783Y856D01*
X10811Y849D01*
X10840Y843D01*
X10841Y843D01*
X10841Y842D01*
X10901Y838D01*
X10915Y839D01*
X24574D01*
X24598Y824D01*
X24672Y793D01*
X24750Y775D01*
X24830Y768D01*
X24910Y775D01*
X24988Y793D01*
X25062Y824D01*
X25103Y849D01*
X34655D01*
X34670Y848D01*
X34730Y853D01*
X34730Y853D01*
X34788Y867D01*
X34844Y889D01*
X34895Y921D01*
X34940Y960D01*
X34950Y971D01*
X36019Y2040D01*
X36030Y2050D01*
X36069Y2095D01*
X36069Y2095D01*
X36101Y2146D01*
X36123Y2202D01*
X36137Y2260D01*
X36142Y2320D01*
X36141Y2335D01*
Y3459D01*
X37000D01*
Y3409D01*
X36475Y3409D01*
X36450Y3403D01*
X36427Y3393D01*
X36406Y3380D01*
X36387Y3363D01*
X36370Y3344D01*
X36357Y3323D01*
X36347Y3300D01*
X36341Y3275D01*
X36340Y3250D01*
X36341Y625D01*
X36347Y600D01*
X36357Y577D01*
X36370Y556D01*
X36387Y537D01*
X36406Y520D01*
X36427Y507D01*
X36450Y497D01*
X36475Y491D01*
X36500Y490D01*
X37000Y491D01*
Y0D01*
G37*
G36*
X27192Y11399D02*X34690D01*
X28332Y5041D01*
X27192D01*
Y9199D01*
X27203Y9203D01*
X27214Y9208D01*
X27225Y9215D01*
X27234Y9224D01*
X27241Y9234D01*
X27247Y9245D01*
X27264Y9289D01*
X27277Y9334D01*
X27286Y9380D01*
X27290Y9427D01*
Y9473D01*
X27286Y9520D01*
X27277Y9566D01*
X27264Y9611D01*
X27248Y9655D01*
X27242Y9666D01*
X27234Y9676D01*
X27225Y9685D01*
X27214Y9692D01*
X27203Y9698D01*
X27192Y9701D01*
Y11399D01*
G37*
G36*
X26780D02*X27192D01*
Y9701D01*
X27191Y9701D01*
X27178Y9703D01*
X27166Y9703D01*
X27153Y9701D01*
X27141Y9697D01*
X27130Y9691D01*
X27120Y9683D01*
X27111Y9674D01*
X27104Y9663D01*
X27099Y9652D01*
X27095Y9640D01*
X27093Y9627D01*
X27094Y9615D01*
X27096Y9602D01*
X27100Y9590D01*
X27112Y9561D01*
X27121Y9530D01*
X27127Y9498D01*
X27130Y9466D01*
Y9434D01*
X27127Y9402D01*
X27121Y9370D01*
X27112Y9339D01*
X27101Y9309D01*
X27096Y9298D01*
X27094Y9285D01*
X27094Y9273D01*
X27095Y9260D01*
X27099Y9248D01*
X27105Y9237D01*
X27112Y9226D01*
X27120Y9217D01*
X27130Y9210D01*
X27142Y9204D01*
X27153Y9200D01*
X27166Y9197D01*
X27178Y9197D01*
X27191Y9199D01*
X27192Y9199D01*
Y5041D01*
X26780D01*
Y8940D01*
X26803D01*
X26850Y8944D01*
X26896Y8953D01*
X26941Y8966D01*
X26985Y8982D01*
X26996Y8988D01*
X27006Y8996D01*
X27015Y9005D01*
X27022Y9016D01*
X27028Y9027D01*
X27031Y9039D01*
X27033Y9052D01*
X27033Y9064D01*
X27031Y9077D01*
X27027Y9089D01*
X27021Y9100D01*
X27013Y9110D01*
X27004Y9119D01*
X26993Y9126D01*
X26982Y9131D01*
X26970Y9135D01*
X26957Y9137D01*
X26945Y9136D01*
X26932Y9134D01*
X26920Y9130D01*
X26891Y9118D01*
X26860Y9109D01*
X26828Y9103D01*
X26796Y9100D01*
X26780D01*
Y9800D01*
X26796D01*
X26828Y9797D01*
X26860Y9791D01*
X26891Y9782D01*
X26921Y9771D01*
X26932Y9766D01*
X26945Y9764D01*
X26957Y9764D01*
X26970Y9765D01*
X26982Y9769D01*
X26993Y9775D01*
X27004Y9782D01*
X27013Y9790D01*
X27020Y9800D01*
X27026Y9812D01*
X27030Y9823D01*
X27033Y9836D01*
X27033Y9848D01*
X27031Y9861D01*
X27027Y9873D01*
X27022Y9884D01*
X27015Y9895D01*
X27006Y9904D01*
X26996Y9911D01*
X26985Y9917D01*
X26941Y9934D01*
X26896Y9947D01*
X26850Y9956D01*
X26803Y9960D01*
X26780D01*
Y11399D01*
G37*
G36*
X26368D02*X26780D01*
Y9960D01*
X26757D01*
X26710Y9956D01*
X26664Y9947D01*
X26619Y9934D01*
X26575Y9918D01*
X26564Y9912D01*
X26554Y9904D01*
X26545Y9895D01*
X26538Y9884D01*
X26532Y9873D01*
X26529Y9861D01*
X26527Y9848D01*
X26527Y9836D01*
X26529Y9823D01*
X26533Y9811D01*
X26539Y9800D01*
X26547Y9790D01*
X26556Y9781D01*
X26567Y9774D01*
X26578Y9769D01*
X26590Y9765D01*
X26603Y9763D01*
X26615Y9764D01*
X26628Y9766D01*
X26640Y9770D01*
X26669Y9782D01*
X26700Y9791D01*
X26732Y9797D01*
X26764Y9800D01*
X26780D01*
Y9100D01*
X26764D01*
X26732Y9103D01*
X26700Y9109D01*
X26669Y9118D01*
X26639Y9129D01*
X26628Y9134D01*
X26615Y9136D01*
X26603Y9136D01*
X26590Y9135D01*
X26578Y9131D01*
X26567Y9125D01*
X26556Y9118D01*
X26547Y9110D01*
X26540Y9100D01*
X26534Y9088D01*
X26530Y9077D01*
X26527Y9064D01*
X26527Y9052D01*
X26529Y9039D01*
X26533Y9027D01*
X26538Y9016D01*
X26545Y9005D01*
X26554Y8996D01*
X26564Y8989D01*
X26575Y8983D01*
X26619Y8966D01*
X26664Y8953D01*
X26710Y8944D01*
X26757Y8940D01*
X26780D01*
Y5041D01*
X26368D01*
Y9199D01*
X26369Y9199D01*
X26382Y9197D01*
X26394Y9197D01*
X26407Y9199D01*
X26419Y9203D01*
X26430Y9209D01*
X26440Y9217D01*
X26449Y9226D01*
X26456Y9237D01*
X26461Y9248D01*
X26465Y9260D01*
X26467Y9273D01*
X26466Y9285D01*
X26464Y9298D01*
X26460Y9310D01*
X26448Y9339D01*
X26439Y9370D01*
X26433Y9402D01*
X26430Y9434D01*
Y9466D01*
X26433Y9498D01*
X26439Y9530D01*
X26448Y9561D01*
X26459Y9591D01*
X26464Y9602D01*
X26466Y9615D01*
X26466Y9627D01*
X26465Y9640D01*
X26461Y9652D01*
X26455Y9663D01*
X26448Y9674D01*
X26440Y9683D01*
X26430Y9690D01*
X26418Y9696D01*
X26407Y9700D01*
X26394Y9703D01*
X26382Y9703D01*
X26369Y9701D01*
X26368Y9701D01*
Y11399D01*
G37*
G36*
X23674Y6386D02*X23740Y6402D01*
X23844Y6444D01*
X23939Y6503D01*
X24024Y6576D01*
X24097Y6661D01*
X24156Y6756D01*
X24198Y6860D01*
X24225Y6968D01*
X24231Y7080D01*
X24225Y7192D01*
X24198Y7300D01*
X24156Y7404D01*
X24097Y7499D01*
X24024Y7584D01*
X23939Y7657D01*
X23844Y7716D01*
X23740Y7758D01*
X23674Y7774D01*
Y10545D01*
X24528Y11399D01*
X26368D01*
Y9701D01*
X26357Y9697D01*
X26346Y9692D01*
X26335Y9685D01*
X26326Y9676D01*
X26319Y9666D01*
X26313Y9655D01*
X26296Y9611D01*
X26283Y9566D01*
X26274Y9520D01*
X26270Y9473D01*
Y9427D01*
X26274Y9380D01*
X26283Y9334D01*
X26296Y9289D01*
X26312Y9245D01*
X26318Y9234D01*
X26326Y9224D01*
X26335Y9215D01*
X26346Y9208D01*
X26357Y9202D01*
X26368Y9199D01*
Y5041D01*
X23674D01*
Y6386D01*
G37*
G36*
X47809Y16436D02*X47869Y16473D01*
X47954Y16546D01*
X48027Y16631D01*
X48057Y16679D01*
X50202D01*
X51160Y15721D01*
X51170Y15710D01*
X51215Y15671D01*
X51266Y15639D01*
X51322Y15617D01*
X51380Y15603D01*
X51440Y15598D01*
X51455Y15599D01*
X52742D01*
Y13141D01*
X52591D01*
X52567Y13179D01*
X52494Y13264D01*
X52409Y13337D01*
X52314Y13396D01*
X52210Y13438D01*
X52102Y13465D01*
X51990Y13473D01*
X51878Y13465D01*
X51770Y13438D01*
X51666Y13396D01*
X51571Y13337D01*
X51486Y13264D01*
X51413Y13179D01*
X51354Y13084D01*
X51312Y12980D01*
X51285Y12872D01*
X51277Y12760D01*
X51285Y12648D01*
X51312Y12540D01*
X51354Y12436D01*
X51413Y12341D01*
X51486Y12256D01*
X51571Y12183D01*
X51666Y12124D01*
X51770Y12082D01*
X51878Y12055D01*
X51990Y12047D01*
X52102Y12055D01*
X52210Y12082D01*
X52314Y12124D01*
X52409Y12183D01*
X52494Y12256D01*
X52567Y12341D01*
X52591Y12379D01*
X52742D01*
Y11781D01*
X50628D01*
X49770Y12639D01*
X49760Y12650D01*
X49715Y12689D01*
X49664Y12721D01*
X49608Y12743D01*
X49550Y12757D01*
X49490Y12762D01*
X49475Y12761D01*
X47809D01*
Y16436D01*
G37*
G36*
X48720Y34976D02*X48920Y34976D01*
X48939Y34981D01*
X48957Y34988D01*
X48974Y34999D01*
X48989Y35011D01*
X49001Y35026D01*
X49012Y35043D01*
X49019Y35061D01*
X49024Y35080D01*
X49025Y35100D01*
X49024Y37355D01*
X49038Y37338D01*
X49069Y37312D01*
Y36950D01*
X49073Y36890D01*
X49075Y36879D01*
X49076Y35080D01*
X49081Y35061D01*
X49088Y35043D01*
X49099Y35026D01*
X49111Y35011D01*
X49126Y34999D01*
X49143Y34988D01*
X49161Y34981D01*
X49180Y34976D01*
X49200Y34975D01*
X49720Y34976D01*
X49739Y34981D01*
X49757Y34988D01*
X49774Y34999D01*
X49789Y35011D01*
X49801Y35026D01*
X49812Y35043D01*
X49819Y35061D01*
X49824Y35080D01*
X49825Y35100D01*
X49824Y36876D01*
X49827Y36890D01*
X49831Y36950D01*
Y37427D01*
X49850Y37458D01*
X49869Y37427D01*
Y37000D01*
X49873Y36940D01*
X49875Y36929D01*
X49876Y35080D01*
X49881Y35061D01*
X49888Y35043D01*
X49899Y35026D01*
X49911Y35011D01*
X49926Y34999D01*
X49943Y34988D01*
X49961Y34981D01*
X49980Y34976D01*
X50000Y34975D01*
X50520Y34976D01*
X50539Y34981D01*
X50557Y34988D01*
X50574Y34999D01*
X50589Y35011D01*
X50601Y35026D01*
X50612Y35043D01*
X50619Y35061D01*
X50624Y35080D01*
X50625Y35100D01*
X50624Y36926D01*
X50627Y36940D01*
X50631Y37000D01*
Y37312D01*
X50662Y37338D01*
X50669Y37347D01*
Y36950D01*
X50673Y36890D01*
X50675Y36879D01*
X50676Y35080D01*
X50681Y35061D01*
X50688Y35043D01*
X50699Y35026D01*
X50711Y35011D01*
X50726Y34999D01*
X50743Y34988D01*
X50761Y34981D01*
X50780Y34976D01*
X50800Y34975D01*
X51320Y34976D01*
X51339Y34981D01*
X51357Y34988D01*
X51374Y34999D01*
X51389Y35011D01*
X51401Y35026D01*
X51412Y35043D01*
X51419Y35061D01*
X51424Y35080D01*
X51425Y35100D01*
X51424Y36876D01*
X51427Y36890D01*
X51431Y36950D01*
Y37500D01*
X51444Y37468D01*
X51469Y37427D01*
Y36950D01*
X51473Y36890D01*
X51475Y36879D01*
X51476Y35080D01*
X51481Y35061D01*
X51488Y35043D01*
X51499Y35026D01*
X51511Y35011D01*
X51526Y34999D01*
X51543Y34988D01*
X51561Y34981D01*
X51580Y34976D01*
X51600Y34975D01*
X52120Y34976D01*
X52139Y34981D01*
X52157Y34988D01*
X52174Y34999D01*
X52189Y35011D01*
X52201Y35026D01*
X52212Y35043D01*
X52219Y35061D01*
X52224Y35080D01*
X52225Y35100D01*
X52224Y36876D01*
X52227Y36890D01*
X52231Y36950D01*
Y37312D01*
X52262Y37338D01*
X52275Y37354D01*
X52275Y37350D01*
X52276Y35080D01*
X52281Y35061D01*
X52288Y35043D01*
X52299Y35026D01*
X52311Y35011D01*
X52326Y34999D01*
X52343Y34988D01*
X52361Y34981D01*
X52380Y34976D01*
X52400Y34975D01*
X52742Y34976D01*
Y18194D01*
X52488D01*
X52444Y18244D01*
X52359Y18317D01*
X52264Y18376D01*
X52160Y18418D01*
X52052Y18445D01*
X51940Y18453D01*
X51828Y18445D01*
X51720Y18418D01*
X51616Y18376D01*
X51521Y18317D01*
X51436Y18244D01*
X51363Y18159D01*
X51304Y18064D01*
X51262Y17960D01*
X51235Y17852D01*
X51227Y17740D01*
X51235Y17628D01*
X51262Y17520D01*
X51270Y17499D01*
X50560Y18209D01*
X50550Y18220D01*
X50505Y18259D01*
X50454Y18291D01*
X50398Y18313D01*
X50340Y18327D01*
X50280Y18332D01*
X50265Y18331D01*
X48720D01*
Y20846D01*
X49162D01*
X49180Y20845D01*
X49251Y20850D01*
X49251Y20850D01*
X49321Y20867D01*
X49387Y20894D01*
X49448Y20932D01*
X49502Y20978D01*
X49514Y20992D01*
X49978Y21456D01*
X49992Y21468D01*
X50038Y21522D01*
X50076Y21583D01*
X50081Y21595D01*
X50109Y21613D01*
X50194Y21686D01*
X50267Y21771D01*
X50326Y21866D01*
X50368Y21970D01*
X50395Y22078D01*
X50401Y22190D01*
X50395Y22302D01*
X50368Y22410D01*
X50326Y22514D01*
X50267Y22609D01*
X50194Y22694D01*
X50109Y22767D01*
X50014Y22826D01*
X49910Y22868D01*
X49802Y22895D01*
X49690Y22903D01*
X49578Y22895D01*
X49470Y22868D01*
X49366Y22826D01*
X49362Y22823D01*
X49369Y22831D01*
X49380Y22847D01*
X49388Y22866D01*
X49407Y22925D01*
X49421Y22986D01*
X49429Y23048D01*
X49432Y23110D01*
X49429Y23172D01*
X49421Y23234D01*
X49407Y23295D01*
X49389Y23355D01*
X49380Y23373D01*
X49369Y23390D01*
X49356Y23404D01*
X49340Y23417D01*
X49323Y23427D01*
X49304Y23434D01*
X49284Y23438D01*
X49264Y23438D01*
X49244Y23436D01*
X49225Y23431D01*
X49207Y23422D01*
X49190Y23411D01*
X49175Y23398D01*
X49163Y23382D01*
X49153Y23365D01*
X49146Y23346D01*
X49142Y23326D01*
X49141Y23306D01*
X49143Y23286D01*
X49149Y23267D01*
X49161Y23229D01*
X49170Y23190D01*
X49175Y23150D01*
X49177Y23110D01*
X49175Y23070D01*
X49170Y23030D01*
X49161Y22991D01*
X49149Y22953D01*
X49144Y22934D01*
X49141Y22914D01*
X49142Y22894D01*
X49146Y22874D01*
X49153Y22856D01*
X49163Y22838D01*
X49175Y22823D01*
X49190Y22809D01*
X49207Y22798D01*
X49225Y22790D01*
X49244Y22784D01*
X49264Y22782D01*
X49284Y22783D01*
X49302Y22787D01*
X49271Y22767D01*
X49186Y22694D01*
X49113Y22609D01*
X49054Y22514D01*
X49012Y22410D01*
X48985Y22302D01*
X48977Y22190D01*
X48985Y22078D01*
X49012Y21970D01*
X49054Y21866D01*
X49073Y21835D01*
X48992Y21754D01*
X48720D01*
Y22398D01*
X48782Y22401D01*
X48844Y22409D01*
X48905Y22423D01*
X48965Y22441D01*
X48983Y22450D01*
X49000Y22461D01*
X49014Y22474D01*
X49027Y22490D01*
X49037Y22507D01*
X49044Y22526D01*
X49048Y22546D01*
X49048Y22566D01*
X49046Y22586D01*
X49041Y22605D01*
X49032Y22623D01*
X49021Y22640D01*
X49008Y22655D01*
X48992Y22667D01*
X48975Y22677D01*
X48956Y22684D01*
X48936Y22688D01*
X48916Y22689D01*
X48896Y22687D01*
X48877Y22681D01*
X48839Y22669D01*
X48800Y22660D01*
X48760Y22655D01*
X48720Y22653D01*
Y23567D01*
X48760Y23565D01*
X48800Y23560D01*
X48839Y23551D01*
X48877Y23539D01*
X48896Y23534D01*
X48916Y23531D01*
X48936Y23532D01*
X48956Y23536D01*
X48974Y23543D01*
X48992Y23553D01*
X49007Y23565D01*
X49021Y23580D01*
X49032Y23597D01*
X49040Y23615D01*
X49046Y23634D01*
X49048Y23654D01*
X49047Y23674D01*
X49043Y23694D01*
X49036Y23712D01*
X49026Y23730D01*
X49014Y23745D01*
X48999Y23759D01*
X48983Y23770D01*
X48964Y23778D01*
X48905Y23797D01*
X48844Y23811D01*
X48782Y23819D01*
X48720Y23822D01*
Y34976D01*
G37*
G36*
Y18331D02*X47809D01*
Y20794D01*
X47832Y20795D01*
X47940Y20822D01*
X48000Y20846D01*
X48720D01*
Y18331D01*
G37*
G36*
X48154Y34987D02*X48157Y34988D01*
X48174Y34999D01*
X48189Y35011D01*
X48201Y35026D01*
X48212Y35043D01*
X48219Y35061D01*
X48224Y35080D01*
X48225Y35100D01*
X48224Y36926D01*
X48227Y36940D01*
X48231Y37000D01*
Y37312D01*
X48262Y37338D01*
X48275Y37354D01*
X48275Y37350D01*
X48276Y35080D01*
X48281Y35061D01*
X48288Y35043D01*
X48299Y35026D01*
X48311Y35011D01*
X48326Y34999D01*
X48343Y34988D01*
X48361Y34981D01*
X48380Y34976D01*
X48400Y34975D01*
X48720Y34976D01*
Y23822D01*
X48720Y23822D01*
X48658Y23819D01*
X48596Y23811D01*
X48535Y23797D01*
X48475Y23779D01*
X48457Y23770D01*
X48440Y23759D01*
X48426Y23746D01*
X48413Y23730D01*
X48403Y23713D01*
X48396Y23694D01*
X48392Y23674D01*
X48392Y23654D01*
X48394Y23634D01*
X48399Y23615D01*
X48408Y23597D01*
X48419Y23580D01*
X48432Y23565D01*
X48448Y23553D01*
X48465Y23543D01*
X48484Y23536D01*
X48504Y23532D01*
X48524Y23531D01*
X48544Y23533D01*
X48563Y23539D01*
X48601Y23551D01*
X48640Y23560D01*
X48680Y23565D01*
X48720Y23567D01*
X48720Y23567D01*
Y22653D01*
X48720Y22653D01*
X48680Y22655D01*
X48640Y22660D01*
X48601Y22669D01*
X48563Y22681D01*
X48544Y22686D01*
X48524Y22689D01*
X48504Y22688D01*
X48484Y22684D01*
X48466Y22677D01*
X48448Y22667D01*
X48433Y22655D01*
X48419Y22640D01*
X48408Y22623D01*
X48400Y22605D01*
X48394Y22586D01*
X48392Y22566D01*
X48393Y22546D01*
X48397Y22526D01*
X48404Y22508D01*
X48414Y22490D01*
X48426Y22475D01*
X48441Y22461D01*
X48457Y22450D01*
X48476Y22442D01*
X48535Y22423D01*
X48596Y22409D01*
X48658Y22401D01*
X48720Y22398D01*
X48720Y22398D01*
Y21754D01*
X48385D01*
X48356Y21824D01*
X48297Y21919D01*
X48224Y22004D01*
X48154Y22065D01*
Y22783D01*
X48156Y22782D01*
X48176Y22782D01*
X48196Y22784D01*
X48215Y22789D01*
X48233Y22798D01*
X48250Y22809D01*
X48265Y22822D01*
X48277Y22838D01*
X48287Y22855D01*
X48294Y22874D01*
X48298Y22894D01*
X48299Y22914D01*
X48297Y22934D01*
X48291Y22953D01*
X48279Y22991D01*
X48270Y23030D01*
X48265Y23070D01*
X48263Y23110D01*
X48265Y23150D01*
X48270Y23190D01*
X48279Y23229D01*
X48291Y23267D01*
X48296Y23286D01*
X48299Y23306D01*
X48298Y23326D01*
X48294Y23346D01*
X48287Y23364D01*
X48277Y23382D01*
X48265Y23397D01*
X48250Y23411D01*
X48233Y23422D01*
X48215Y23430D01*
X48196Y23436D01*
X48176Y23438D01*
X48156Y23437D01*
X48154Y23437D01*
Y34987D01*
G37*
G36*
X47809Y34975D02*X48120Y34976D01*
X48139Y34981D01*
X48154Y34987D01*
Y23437D01*
X48136Y23433D01*
X48118Y23426D01*
X48100Y23416D01*
X48085Y23404D01*
X48071Y23389D01*
X48060Y23373D01*
X48052Y23354D01*
X48033Y23295D01*
X48019Y23234D01*
X48011Y23172D01*
X48008Y23110D01*
X48011Y23048D01*
X48019Y22986D01*
X48033Y22925D01*
X48051Y22865D01*
X48060Y22847D01*
X48071Y22830D01*
X48084Y22816D01*
X48100Y22803D01*
X48117Y22793D01*
X48136Y22786D01*
X48154Y22783D01*
Y22065D01*
X48139Y22077D01*
X48044Y22136D01*
X47940Y22178D01*
X47832Y22205D01*
X47809Y22206D01*
Y34975D01*
G37*
G36*
X41204Y34975D02*X41720Y34976D01*
X41739Y34981D01*
X41757Y34988D01*
X41774Y34999D01*
X41789Y35011D01*
X41801Y35026D01*
X41812Y35043D01*
X41819Y35061D01*
X41824Y35080D01*
X41825Y35100D01*
X41824Y37355D01*
X41838Y37338D01*
X41869Y37312D01*
Y36950D01*
X41873Y36890D01*
X41875Y36879D01*
X41876Y35080D01*
X41881Y35061D01*
X41888Y35043D01*
X41899Y35026D01*
X41911Y35011D01*
X41926Y34999D01*
X41943Y34988D01*
X41961Y34981D01*
X41980Y34976D01*
X42000Y34975D01*
X42520Y34976D01*
X42539Y34981D01*
X42557Y34988D01*
X42574Y34999D01*
X42589Y35011D01*
X42601Y35026D01*
X42612Y35043D01*
X42619Y35061D01*
X42624Y35080D01*
X42625Y35100D01*
X42624Y36876D01*
X42627Y36890D01*
X42631Y36950D01*
Y37427D01*
X42650Y37458D01*
X42669Y37427D01*
Y36950D01*
X42673Y36890D01*
X42675Y36879D01*
X42676Y35080D01*
X42681Y35061D01*
X42688Y35043D01*
X42699Y35026D01*
X42711Y35011D01*
X42726Y34999D01*
X42743Y34988D01*
X42761Y34981D01*
X42780Y34976D01*
X42800Y34975D01*
X43320Y34976D01*
X43339Y34981D01*
X43357Y34988D01*
X43374Y34999D01*
X43389Y35011D01*
X43401Y35026D01*
X43412Y35043D01*
X43419Y35061D01*
X43424Y35080D01*
X43425Y35100D01*
X43424Y36876D01*
X43427Y36890D01*
X43431Y36950D01*
Y37312D01*
X43462Y37338D01*
X43475Y37354D01*
X43475Y37350D01*
X43476Y35080D01*
X43481Y35061D01*
X43488Y35043D01*
X43499Y35026D01*
X43511Y35011D01*
X43526Y34999D01*
X43543Y34988D01*
X43561Y34981D01*
X43580Y34976D01*
X43600Y34975D01*
X44120Y34976D01*
X44139Y34981D01*
X44157Y34988D01*
X44174Y34999D01*
X44189Y35011D01*
X44201Y35026D01*
X44212Y35043D01*
X44219Y35061D01*
X44224Y35080D01*
X44225Y35100D01*
X44224Y37355D01*
X44238Y37338D01*
X44269Y37312D01*
Y36950D01*
X44273Y36890D01*
X44275Y36879D01*
X44276Y35080D01*
X44281Y35061D01*
X44288Y35043D01*
X44299Y35026D01*
X44311Y35011D01*
X44326Y34999D01*
X44343Y34988D01*
X44361Y34981D01*
X44380Y34976D01*
X44400Y34975D01*
X44920Y34976D01*
X44939Y34981D01*
X44957Y34988D01*
X44974Y34999D01*
X44989Y35011D01*
X45001Y35026D01*
X45012Y35043D01*
X45019Y35061D01*
X45024Y35080D01*
X45025Y35100D01*
X45024Y36876D01*
X45027Y36890D01*
X45031Y36950D01*
Y37427D01*
X45050Y37458D01*
X45069Y37427D01*
Y37050D01*
X45073Y36990D01*
X45075Y36979D01*
X45076Y35080D01*
X45081Y35061D01*
X45088Y35043D01*
X45099Y35026D01*
X45111Y35011D01*
X45126Y34999D01*
X45143Y34988D01*
X45161Y34981D01*
X45180Y34976D01*
X45200Y34975D01*
X45720Y34976D01*
X45739Y34981D01*
X45757Y34988D01*
X45774Y34999D01*
X45789Y35011D01*
X45801Y35026D01*
X45812Y35043D01*
X45819Y35061D01*
X45824Y35080D01*
X45825Y35100D01*
X45824Y36976D01*
X45827Y36990D01*
X45831Y37050D01*
Y37312D01*
X45862Y37338D01*
X45875Y37354D01*
X45875Y37350D01*
X45876Y35080D01*
X45881Y35061D01*
X45888Y35043D01*
X45899Y35026D01*
X45911Y35011D01*
X45926Y34999D01*
X45943Y34988D01*
X45961Y34981D01*
X45980Y34976D01*
X46000Y34975D01*
X46520Y34976D01*
X46539Y34981D01*
X46557Y34988D01*
X46574Y34999D01*
X46589Y35011D01*
X46601Y35026D01*
X46612Y35043D01*
X46619Y35061D01*
X46624Y35080D01*
X46625Y35100D01*
X46624Y37355D01*
X46638Y37338D01*
X46669Y37312D01*
Y36900D01*
X46673Y36840D01*
X46675Y36829D01*
X46676Y35080D01*
X46681Y35061D01*
X46688Y35043D01*
X46699Y35026D01*
X46711Y35011D01*
X46726Y34999D01*
X46743Y34988D01*
X46761Y34981D01*
X46780Y34976D01*
X46800Y34975D01*
X47320Y34976D01*
X47339Y34981D01*
X47357Y34988D01*
X47374Y34999D01*
X47389Y35011D01*
X47401Y35026D01*
X47412Y35043D01*
X47419Y35061D01*
X47424Y35080D01*
X47425Y35100D01*
X47424Y36826D01*
X47427Y36840D01*
X47431Y36900D01*
Y37427D01*
X47450Y37458D01*
X47469Y37427D01*
Y37000D01*
X47473Y36940D01*
X47475Y36929D01*
X47476Y35080D01*
X47481Y35061D01*
X47488Y35043D01*
X47499Y35026D01*
X47511Y35011D01*
X47526Y34999D01*
X47543Y34988D01*
X47561Y34981D01*
X47580Y34976D01*
X47600Y34975D01*
X47809Y34975D01*
Y22206D01*
X47720Y22213D01*
X47608Y22205D01*
X47500Y22178D01*
X47396Y22136D01*
X47301Y22077D01*
X47216Y22004D01*
X47143Y21919D01*
X47084Y21824D01*
X47055Y21754D01*
X46388D01*
X46349Y21787D01*
X46254Y21846D01*
X46150Y21888D01*
X46042Y21915D01*
X45930Y21923D01*
X45818Y21915D01*
X45710Y21888D01*
X45606Y21846D01*
X45511Y21787D01*
X45426Y21714D01*
X45353Y21629D01*
X45294Y21534D01*
X45252Y21430D01*
X45225Y21322D01*
X45217Y21210D01*
X45225Y21098D01*
X45252Y20990D01*
X45294Y20886D01*
X45353Y20791D01*
X45426Y20706D01*
X45511Y20633D01*
X45606Y20574D01*
X45710Y20532D01*
X45818Y20505D01*
X45930Y20497D01*
X46042Y20505D01*
X46150Y20532D01*
X46254Y20574D01*
X46349Y20633D01*
X46434Y20706D01*
X46507Y20791D01*
X46541Y20846D01*
X47440D01*
X47500Y20822D01*
X47608Y20795D01*
X47720Y20787D01*
X47809Y20794D01*
Y18331D01*
X47301D01*
X47277Y18369D01*
X47204Y18454D01*
X47119Y18527D01*
X47024Y18586D01*
X46920Y18628D01*
X46812Y18655D01*
X46700Y18663D01*
X46588Y18655D01*
X46480Y18628D01*
X46376Y18586D01*
X46281Y18527D01*
X46196Y18454D01*
X46123Y18369D01*
X46064Y18274D01*
X46022Y18170D01*
X45995Y18062D01*
X45987Y17950D01*
X45995Y17838D01*
X46022Y17730D01*
X46064Y17626D01*
X46123Y17531D01*
X46196Y17446D01*
X46281Y17373D01*
X46376Y17314D01*
X46480Y17272D01*
X46588Y17245D01*
X46700Y17237D01*
X46765Y17242D01*
X46745Y17162D01*
X46737Y17050D01*
X46745Y16938D01*
X46772Y16830D01*
X46814Y16726D01*
X46873Y16631D01*
X46946Y16546D01*
X47031Y16473D01*
X47126Y16414D01*
X47230Y16372D01*
X47338Y16345D01*
X47450Y16337D01*
X47562Y16345D01*
X47670Y16372D01*
X47774Y16414D01*
X47809Y16436D01*
Y12761D01*
X41204D01*
Y21882D01*
X42518Y23196D01*
X45362D01*
X45406Y23146D01*
X45491Y23073D01*
X45586Y23014D01*
X45690Y22972D01*
X45798Y22945D01*
X45910Y22937D01*
X46022Y22945D01*
X46130Y22972D01*
X46234Y23014D01*
X46329Y23073D01*
X46414Y23146D01*
X46487Y23231D01*
X46546Y23326D01*
X46588Y23430D01*
X46615Y23538D01*
X46621Y23650D01*
X46615Y23762D01*
X46588Y23870D01*
X46546Y23974D01*
X46487Y24069D01*
X46414Y24154D01*
X46329Y24227D01*
X46234Y24286D01*
X46130Y24328D01*
X46022Y24355D01*
X45910Y24363D01*
X45798Y24355D01*
X45690Y24328D01*
X45586Y24286D01*
X45491Y24227D01*
X45406Y24154D01*
X45362Y24104D01*
X42348D01*
X42330Y24105D01*
X42259Y24100D01*
X42189Y24083D01*
X42123Y24056D01*
X42062Y24018D01*
X42062Y24018D01*
X42008Y23972D01*
X41996Y23958D01*
X41204Y23166D01*
Y34975D01*
G37*
G36*
Y38983D02*X41268Y38944D01*
X41342Y38913D01*
X41420Y38895D01*
X41500Y38888D01*
X41580Y38895D01*
X41658Y38913D01*
X41732Y38944D01*
X41801Y38986D01*
X41862Y39038D01*
X41914Y39099D01*
X41956Y39168D01*
X41987Y39242D01*
X42005Y39320D01*
X42010Y39400D01*
X42005Y39480D01*
X41987Y39558D01*
X41956Y39632D01*
X41955Y39633D01*
X41961Y39631D01*
X41980Y39626D01*
X42000Y39625D01*
X42520Y39626D01*
X42539Y39631D01*
X42545Y39633D01*
X42544Y39632D01*
X42513Y39558D01*
X42495Y39480D01*
X42488Y39400D01*
X42495Y39320D01*
X42513Y39242D01*
X42544Y39168D01*
X42586Y39099D01*
X42638Y39038D01*
X42699Y38986D01*
X42768Y38944D01*
X42842Y38913D01*
X42920Y38895D01*
X43000Y38888D01*
X43080Y38895D01*
X43158Y38913D01*
X43232Y38944D01*
X43301Y38986D01*
X43362Y39038D01*
X43414Y39099D01*
X43450Y39158D01*
X43486Y39099D01*
X43538Y39038D01*
X43599Y38986D01*
X43668Y38944D01*
X43742Y38913D01*
X43820Y38895D01*
X43900Y38888D01*
X43980Y38895D01*
X44058Y38913D01*
X44132Y38944D01*
X44201Y38986D01*
X44262Y39038D01*
X44314Y39099D01*
X44356Y39168D01*
X44387Y39242D01*
X44405Y39320D01*
X44410Y39400D01*
X44405Y39480D01*
X44387Y39558D01*
X44356Y39632D01*
X44355Y39633D01*
X44361Y39631D01*
X44380Y39626D01*
X44400Y39625D01*
X44920Y39626D01*
X44939Y39631D01*
X44945Y39633D01*
X44944Y39632D01*
X44913Y39558D01*
X44895Y39480D01*
X44888Y39400D01*
X44895Y39320D01*
X44913Y39242D01*
X44944Y39168D01*
X44986Y39099D01*
X45038Y39038D01*
X45099Y38986D01*
X45168Y38944D01*
X45242Y38913D01*
X45320Y38895D01*
X45400Y38888D01*
X45480Y38895D01*
X45558Y38913D01*
X45632Y38944D01*
X45701Y38986D01*
X45762Y39038D01*
X45814Y39099D01*
X45850Y39158D01*
X45886Y39099D01*
X45938Y39038D01*
X45999Y38986D01*
X46068Y38944D01*
X46142Y38913D01*
X46220Y38895D01*
X46300Y38888D01*
X46380Y38895D01*
X46458Y38913D01*
X46532Y38944D01*
X46601Y38986D01*
X46662Y39038D01*
X46714Y39099D01*
X46756Y39168D01*
X46787Y39242D01*
X46805Y39320D01*
X46810Y39400D01*
X46805Y39480D01*
X46787Y39558D01*
X46756Y39632D01*
X46755Y39633D01*
X46761Y39631D01*
X46780Y39626D01*
X46800Y39625D01*
X47320Y39626D01*
X47339Y39631D01*
X47345Y39633D01*
X47344Y39632D01*
X47313Y39558D01*
X47295Y39480D01*
X47288Y39400D01*
X47295Y39320D01*
X47313Y39242D01*
X47344Y39168D01*
X47386Y39099D01*
X47438Y39038D01*
X47499Y38986D01*
X47568Y38944D01*
X47642Y38913D01*
X47720Y38895D01*
X47800Y38888D01*
X47880Y38895D01*
X47958Y38913D01*
X48032Y38944D01*
X48101Y38986D01*
X48162Y39038D01*
X48214Y39099D01*
X48250Y39158D01*
X48286Y39099D01*
X48338Y39038D01*
X48399Y38986D01*
X48468Y38944D01*
X48542Y38913D01*
X48620Y38895D01*
X48700Y38888D01*
X48780Y38895D01*
X48858Y38913D01*
X48932Y38944D01*
X49001Y38986D01*
X49062Y39038D01*
X49114Y39099D01*
X49156Y39168D01*
X49187Y39242D01*
X49205Y39320D01*
X49210Y39400D01*
X49205Y39480D01*
X49187Y39558D01*
X49156Y39632D01*
X49155Y39633D01*
X49161Y39631D01*
X49180Y39626D01*
X49200Y39625D01*
X49720Y39626D01*
X49739Y39631D01*
X49745Y39633D01*
X49744Y39632D01*
X49713Y39558D01*
X49695Y39480D01*
X49688Y39400D01*
X49695Y39320D01*
X49713Y39242D01*
X49744Y39168D01*
X49786Y39099D01*
X49838Y39038D01*
X49899Y38986D01*
X49968Y38944D01*
X50042Y38913D01*
X50120Y38895D01*
X50200Y38888D01*
X50280Y38895D01*
X50358Y38913D01*
X50432Y38944D01*
X50501Y38986D01*
X50562Y39038D01*
X50614Y39099D01*
X50650Y39158D01*
X50686Y39099D01*
X50738Y39038D01*
X50799Y38986D01*
X50868Y38944D01*
X50942Y38913D01*
X51020Y38895D01*
X51100Y38888D01*
X51180Y38895D01*
X51258Y38913D01*
X51332Y38944D01*
X51401Y38986D01*
X51462Y39038D01*
X51514Y39099D01*
X51556Y39168D01*
X51587Y39242D01*
X51605Y39320D01*
X51610Y39400D01*
X51605Y39480D01*
X51587Y39558D01*
X51556Y39632D01*
X51555Y39633D01*
X51561Y39631D01*
X51580Y39626D01*
X51600Y39625D01*
X52120Y39626D01*
X52139Y39631D01*
X52145Y39633D01*
X52144Y39632D01*
X52113Y39558D01*
X52095Y39480D01*
X52088Y39400D01*
X52095Y39320D01*
X52113Y39242D01*
X52144Y39168D01*
X52186Y39099D01*
X52238Y39038D01*
X52299Y38986D01*
X52368Y38944D01*
X52442Y38913D01*
X52520Y38895D01*
X52600Y38888D01*
X52680Y38895D01*
X52742Y38910D01*
Y37475D01*
X52380Y37474D01*
X52361Y37469D01*
X52355Y37467D01*
X52356Y37468D01*
X52387Y37542D01*
X52405Y37620D01*
X52410Y37700D01*
X52405Y37780D01*
X52387Y37858D01*
X52356Y37932D01*
X52314Y38001D01*
X52262Y38062D01*
X52201Y38114D01*
X52132Y38156D01*
X52058Y38187D01*
X51980Y38205D01*
X51900Y38212D01*
X51820Y38205D01*
X51742Y38187D01*
X51668Y38156D01*
X51605Y38117D01*
X51605Y38120D01*
X51610Y38200D01*
X51605Y38280D01*
X51587Y38358D01*
X51556Y38432D01*
X51514Y38501D01*
X51462Y38562D01*
X51401Y38614D01*
X51332Y38656D01*
X51258Y38687D01*
X51180Y38705D01*
X51100Y38712D01*
X51020Y38705D01*
X50942Y38687D01*
X50868Y38656D01*
X50799Y38614D01*
X50738Y38562D01*
X50686Y38501D01*
X50644Y38432D01*
X50613Y38358D01*
X50595Y38280D01*
X50588Y38200D01*
X50595Y38120D01*
X50595Y38117D01*
X50532Y38156D01*
X50458Y38187D01*
X50380Y38205D01*
X50300Y38212D01*
X50220Y38205D01*
X50142Y38187D01*
X50068Y38156D01*
X49999Y38114D01*
X49938Y38062D01*
X49886Y38001D01*
X49850Y37942D01*
X49814Y38001D01*
X49762Y38062D01*
X49701Y38114D01*
X49632Y38156D01*
X49558Y38187D01*
X49480Y38205D01*
X49400Y38212D01*
X49320Y38205D01*
X49242Y38187D01*
X49168Y38156D01*
X49099Y38114D01*
X49038Y38062D01*
X48986Y38001D01*
X48944Y37932D01*
X48913Y37858D01*
X48895Y37780D01*
X48888Y37700D01*
X48895Y37620D01*
X48913Y37542D01*
X48944Y37468D01*
X48945Y37467D01*
X48939Y37469D01*
X48920Y37474D01*
X48900Y37475D01*
X48380Y37474D01*
X48361Y37469D01*
X48355Y37467D01*
X48356Y37468D01*
X48387Y37542D01*
X48405Y37620D01*
X48410Y37700D01*
X48405Y37780D01*
X48387Y37858D01*
X48356Y37932D01*
X48314Y38001D01*
X48262Y38062D01*
X48201Y38114D01*
X48132Y38156D01*
X48058Y38187D01*
X47980Y38205D01*
X47900Y38212D01*
X47820Y38205D01*
X47742Y38187D01*
X47668Y38156D01*
X47599Y38114D01*
X47538Y38062D01*
X47486Y38001D01*
X47450Y37942D01*
X47414Y38001D01*
X47362Y38062D01*
X47301Y38114D01*
X47232Y38156D01*
X47158Y38187D01*
X47080Y38205D01*
X47000Y38212D01*
X46920Y38205D01*
X46842Y38187D01*
X46768Y38156D01*
X46699Y38114D01*
X46638Y38062D01*
X46586Y38001D01*
X46544Y37932D01*
X46513Y37858D01*
X46495Y37780D01*
X46488Y37700D01*
X46495Y37620D01*
X46513Y37542D01*
X46544Y37468D01*
X46545Y37467D01*
X46539Y37469D01*
X46520Y37474D01*
X46500Y37475D01*
X45980Y37474D01*
X45961Y37469D01*
X45955Y37467D01*
X45956Y37468D01*
X45987Y37542D01*
X46005Y37620D01*
X46010Y37700D01*
X46005Y37780D01*
X45987Y37858D01*
X45956Y37932D01*
X45914Y38001D01*
X45862Y38062D01*
X45801Y38114D01*
X45732Y38156D01*
X45658Y38187D01*
X45580Y38205D01*
X45500Y38212D01*
X45420Y38205D01*
X45342Y38187D01*
X45268Y38156D01*
X45199Y38114D01*
X45138Y38062D01*
X45086Y38001D01*
X45050Y37942D01*
X45014Y38001D01*
X44962Y38062D01*
X44901Y38114D01*
X44832Y38156D01*
X44758Y38187D01*
X44680Y38205D01*
X44600Y38212D01*
X44520Y38205D01*
X44442Y38187D01*
X44368Y38156D01*
X44299Y38114D01*
X44238Y38062D01*
X44186Y38001D01*
X44144Y37932D01*
X44113Y37858D01*
X44095Y37780D01*
X44088Y37700D01*
X44095Y37620D01*
X44113Y37542D01*
X44144Y37468D01*
X44145Y37467D01*
X44139Y37469D01*
X44120Y37474D01*
X44100Y37475D01*
X43580Y37474D01*
X43561Y37469D01*
X43555Y37467D01*
X43556Y37468D01*
X43587Y37542D01*
X43605Y37620D01*
X43610Y37700D01*
X43605Y37780D01*
X43587Y37858D01*
X43556Y37932D01*
X43514Y38001D01*
X43462Y38062D01*
X43401Y38114D01*
X43332Y38156D01*
X43258Y38187D01*
X43180Y38205D01*
X43100Y38212D01*
X43020Y38205D01*
X42942Y38187D01*
X42868Y38156D01*
X42799Y38114D01*
X42738Y38062D01*
X42686Y38001D01*
X42650Y37942D01*
X42614Y38001D01*
X42562Y38062D01*
X42501Y38114D01*
X42432Y38156D01*
X42358Y38187D01*
X42280Y38205D01*
X42200Y38212D01*
X42120Y38205D01*
X42042Y38187D01*
X41968Y38156D01*
X41899Y38114D01*
X41838Y38062D01*
X41786Y38001D01*
X41744Y37932D01*
X41713Y37858D01*
X41695Y37780D01*
X41688Y37700D01*
X41695Y37620D01*
X41713Y37542D01*
X41744Y37468D01*
X41745Y37467D01*
X41739Y37469D01*
X41720Y37474D01*
X41700Y37475D01*
X41204Y37474D01*
Y38983D01*
G37*
G36*
Y54000D02*X52742D01*
Y42125D01*
X52380Y42124D01*
X52361Y42119D01*
X52343Y42112D01*
X52326Y42101D01*
X52311Y42089D01*
X52299Y42074D01*
X52288Y42057D01*
X52281Y42039D01*
X52276Y42020D01*
X52275Y42000D01*
X52276Y40274D01*
X52273Y40260D01*
X52269Y40200D01*
Y39788D01*
X52238Y39762D01*
X52225Y39746D01*
X52225Y39750D01*
X52224Y42020D01*
X52219Y42039D01*
X52212Y42057D01*
X52201Y42074D01*
X52189Y42089D01*
X52174Y42101D01*
X52157Y42112D01*
X52139Y42119D01*
X52120Y42124D01*
X52100Y42125D01*
X51580Y42124D01*
X51561Y42119D01*
X51543Y42112D01*
X51526Y42101D01*
X51511Y42089D01*
X51499Y42074D01*
X51488Y42057D01*
X51481Y42039D01*
X51476Y42020D01*
X51475Y42000D01*
X51476Y39745D01*
X51462Y39762D01*
X51431Y39788D01*
Y40100D01*
X51427Y40160D01*
X51425Y40171D01*
X51424Y42020D01*
X51419Y42039D01*
X51412Y42057D01*
X51401Y42074D01*
X51389Y42089D01*
X51374Y42101D01*
X51357Y42112D01*
X51339Y42119D01*
X51320Y42124D01*
X51300Y42125D01*
X50780Y42124D01*
X50761Y42119D01*
X50743Y42112D01*
X50726Y42101D01*
X50711Y42089D01*
X50699Y42074D01*
X50688Y42057D01*
X50681Y42039D01*
X50676Y42020D01*
X50675Y42000D01*
X50676Y40174D01*
X50673Y40160D01*
X50669Y40100D01*
Y39673D01*
X50650Y39642D01*
X50631Y39673D01*
Y40150D01*
X50627Y40210D01*
X50625Y40221D01*
X50624Y42020D01*
X50619Y42039D01*
X50612Y42057D01*
X50601Y42074D01*
X50589Y42089D01*
X50574Y42101D01*
X50557Y42112D01*
X50539Y42119D01*
X50520Y42124D01*
X50500Y42125D01*
X49980Y42124D01*
X49961Y42119D01*
X49943Y42112D01*
X49926Y42101D01*
X49911Y42089D01*
X49899Y42074D01*
X49888Y42057D01*
X49881Y42039D01*
X49876Y42020D01*
X49875Y42000D01*
X49876Y40224D01*
X49873Y40210D01*
X49869Y40150D01*
Y39788D01*
X49838Y39762D01*
X49825Y39746D01*
X49825Y39750D01*
X49824Y42020D01*
X49819Y42039D01*
X49812Y42057D01*
X49801Y42074D01*
X49789Y42089D01*
X49774Y42101D01*
X49757Y42112D01*
X49739Y42119D01*
X49720Y42124D01*
X49700Y42125D01*
X49180Y42124D01*
X49161Y42119D01*
X49143Y42112D01*
X49126Y42101D01*
X49111Y42089D01*
X49099Y42074D01*
X49088Y42057D01*
X49081Y42039D01*
X49076Y42020D01*
X49075Y42000D01*
X49076Y39745D01*
X49062Y39762D01*
X49031Y39788D01*
Y40200D01*
X49027Y40260D01*
X49025Y40271D01*
X49024Y42020D01*
X49019Y42039D01*
X49012Y42057D01*
X49001Y42074D01*
X48989Y42089D01*
X48974Y42101D01*
X48957Y42112D01*
X48939Y42119D01*
X48920Y42124D01*
X48900Y42125D01*
X48380Y42124D01*
X48361Y42119D01*
X48343Y42112D01*
X48326Y42101D01*
X48311Y42089D01*
X48299Y42074D01*
X48288Y42057D01*
X48281Y42039D01*
X48276Y42020D01*
X48275Y42000D01*
X48276Y40274D01*
X48273Y40260D01*
X48269Y40200D01*
Y39673D01*
X48250Y39642D01*
X48231Y39673D01*
Y40150D01*
X48227Y40210D01*
X48225Y40221D01*
X48224Y42020D01*
X48219Y42039D01*
X48212Y42057D01*
X48201Y42074D01*
X48189Y42089D01*
X48174Y42101D01*
X48157Y42112D01*
X48139Y42119D01*
X48120Y42124D01*
X48100Y42125D01*
X47580Y42124D01*
X47561Y42119D01*
X47543Y42112D01*
X47526Y42101D01*
X47511Y42089D01*
X47499Y42074D01*
X47488Y42057D01*
X47481Y42039D01*
X47476Y42020D01*
X47475Y42000D01*
X47476Y40224D01*
X47473Y40210D01*
X47469Y40150D01*
Y39788D01*
X47438Y39762D01*
X47425Y39746D01*
X47425Y39750D01*
X47424Y42020D01*
X47419Y42039D01*
X47412Y42057D01*
X47401Y42074D01*
X47389Y42089D01*
X47374Y42101D01*
X47357Y42112D01*
X47339Y42119D01*
X47320Y42124D01*
X47300Y42125D01*
X46780Y42124D01*
X46761Y42119D01*
X46743Y42112D01*
X46726Y42101D01*
X46711Y42089D01*
X46699Y42074D01*
X46688Y42057D01*
X46681Y42039D01*
X46676Y42020D01*
X46675Y42000D01*
X46676Y39745D01*
X46662Y39762D01*
X46631Y39788D01*
Y40100D01*
X46627Y40160D01*
X46625Y40171D01*
X46624Y42020D01*
X46619Y42039D01*
X46612Y42057D01*
X46601Y42074D01*
X46589Y42089D01*
X46574Y42101D01*
X46557Y42112D01*
X46539Y42119D01*
X46520Y42124D01*
X46500Y42125D01*
X45980Y42124D01*
X45961Y42119D01*
X45943Y42112D01*
X45926Y42101D01*
X45911Y42089D01*
X45899Y42074D01*
X45888Y42057D01*
X45881Y42039D01*
X45876Y42020D01*
X45875Y42000D01*
X45876Y40174D01*
X45873Y40160D01*
X45869Y40100D01*
Y39673D01*
X45850Y39642D01*
X45831Y39673D01*
Y40200D01*
X45827Y40260D01*
X45825Y40271D01*
X45824Y42020D01*
X45819Y42039D01*
X45812Y42057D01*
X45801Y42074D01*
X45789Y42089D01*
X45774Y42101D01*
X45757Y42112D01*
X45739Y42119D01*
X45720Y42124D01*
X45700Y42125D01*
X45180Y42124D01*
X45161Y42119D01*
X45143Y42112D01*
X45126Y42101D01*
X45111Y42089D01*
X45099Y42074D01*
X45088Y42057D01*
X45081Y42039D01*
X45076Y42020D01*
X45075Y42000D01*
X45076Y40274D01*
X45073Y40260D01*
X45069Y40200D01*
Y39788D01*
X45038Y39762D01*
X45025Y39746D01*
X45025Y39750D01*
X45024Y42020D01*
X45019Y42039D01*
X45012Y42057D01*
X45001Y42074D01*
X44989Y42089D01*
X44974Y42101D01*
X44957Y42112D01*
X44939Y42119D01*
X44920Y42124D01*
X44900Y42125D01*
X44380Y42124D01*
X44361Y42119D01*
X44343Y42112D01*
X44326Y42101D01*
X44311Y42089D01*
X44299Y42074D01*
X44288Y42057D01*
X44281Y42039D01*
X44276Y42020D01*
X44275Y42000D01*
X44276Y39745D01*
X44262Y39762D01*
X44231Y39788D01*
Y40100D01*
X44227Y40160D01*
X44225Y40171D01*
X44224Y42020D01*
X44219Y42039D01*
X44212Y42057D01*
X44201Y42074D01*
X44189Y42089D01*
X44174Y42101D01*
X44157Y42112D01*
X44139Y42119D01*
X44120Y42124D01*
X44100Y42125D01*
X43580Y42124D01*
X43561Y42119D01*
X43543Y42112D01*
X43526Y42101D01*
X43511Y42089D01*
X43499Y42074D01*
X43488Y42057D01*
X43481Y42039D01*
X43476Y42020D01*
X43475Y42000D01*
X43476Y40174D01*
X43473Y40160D01*
X43469Y40100D01*
Y39673D01*
X43450Y39642D01*
X43431Y39673D01*
Y40200D01*
X43427Y40260D01*
X43425Y40271D01*
X43424Y42020D01*
X43419Y42039D01*
X43412Y42057D01*
X43401Y42074D01*
X43389Y42089D01*
X43374Y42101D01*
X43357Y42112D01*
X43339Y42119D01*
X43320Y42124D01*
X43300Y42125D01*
X42780Y42124D01*
X42761Y42119D01*
X42743Y42112D01*
X42726Y42101D01*
X42711Y42089D01*
X42699Y42074D01*
X42688Y42057D01*
X42681Y42039D01*
X42676Y42020D01*
X42675Y42000D01*
X42676Y40274D01*
X42673Y40260D01*
X42669Y40200D01*
Y39788D01*
X42638Y39762D01*
X42625Y39746D01*
X42625Y39750D01*
X42624Y42020D01*
X42619Y42039D01*
X42612Y42057D01*
X42601Y42074D01*
X42589Y42089D01*
X42574Y42101D01*
X42557Y42112D01*
X42539Y42119D01*
X42520Y42124D01*
X42500Y42125D01*
X41980Y42124D01*
X41961Y42119D01*
X41943Y42112D01*
X41926Y42101D01*
X41911Y42089D01*
X41899Y42074D01*
X41888Y42057D01*
X41881Y42039D01*
X41876Y42020D01*
X41875Y42000D01*
X41876Y39745D01*
X41862Y39762D01*
X41831Y39788D01*
Y40150D01*
X41827Y40210D01*
X41825Y40221D01*
X41824Y42020D01*
X41819Y42039D01*
X41812Y42057D01*
X41801Y42074D01*
X41789Y42089D01*
X41774Y42101D01*
X41757Y42112D01*
X41739Y42119D01*
X41720Y42124D01*
X41700Y42125D01*
X41204Y42124D01*
Y54000D01*
G37*
G36*
X40599Y21277D02*X41204Y21882D01*
Y12761D01*
X40599D01*
Y21277D01*
G37*
G36*
Y38888D02*X40600Y38888D01*
X40680Y38895D01*
X40758Y38913D01*
X40832Y38944D01*
X40901Y38986D01*
X40962Y39038D01*
X41014Y39099D01*
X41050Y39158D01*
X41086Y39099D01*
X41138Y39038D01*
X41199Y38986D01*
X41204Y38983D01*
Y37474D01*
X41180Y37474D01*
X41161Y37469D01*
X41143Y37462D01*
X41126Y37451D01*
X41111Y37439D01*
X41099Y37424D01*
X41088Y37407D01*
X41081Y37389D01*
X41076Y37370D01*
X41075Y37350D01*
X41076Y35080D01*
X41081Y35061D01*
X41088Y35043D01*
X41099Y35026D01*
X41111Y35011D01*
X41126Y34999D01*
X41143Y34988D01*
X41161Y34981D01*
X41180Y34976D01*
X41200Y34975D01*
X41204Y34975D01*
Y23166D01*
X40599Y22561D01*
Y34975D01*
X40920Y34976D01*
X40939Y34981D01*
X40957Y34988D01*
X40974Y34999D01*
X40989Y35011D01*
X41001Y35026D01*
X41012Y35043D01*
X41019Y35061D01*
X41024Y35080D01*
X41025Y35100D01*
X41024Y36826D01*
X41027Y36840D01*
X41031Y36900D01*
Y37427D01*
X41056Y37468D01*
X41087Y37542D01*
X41105Y37620D01*
X41110Y37700D01*
X41105Y37780D01*
X41087Y37858D01*
X41056Y37932D01*
X41014Y38001D01*
X40962Y38062D01*
X40901Y38114D01*
X40832Y38156D01*
X40758Y38187D01*
X40680Y38205D01*
X40600Y38212D01*
X40599Y38212D01*
Y38888D01*
G37*
G36*
Y54000D02*X41204D01*
Y42124D01*
X41180Y42124D01*
X41161Y42119D01*
X41143Y42112D01*
X41126Y42101D01*
X41111Y42089D01*
X41099Y42074D01*
X41088Y42057D01*
X41081Y42039D01*
X41076Y42020D01*
X41075Y42000D01*
X41076Y40224D01*
X41073Y40210D01*
X41069Y40150D01*
Y39673D01*
X41050Y39642D01*
X41031Y39673D01*
Y40250D01*
X41027Y40310D01*
X41025Y40321D01*
X41024Y42020D01*
X41019Y42039D01*
X41012Y42057D01*
X41001Y42074D01*
X40989Y42089D01*
X40974Y42101D01*
X40957Y42112D01*
X40939Y42119D01*
X40920Y42124D01*
X40900Y42125D01*
X40599Y42124D01*
Y54000D01*
G37*
G36*
X31848D02*X40599D01*
Y42124D01*
X40380Y42124D01*
X40361Y42119D01*
X40343Y42112D01*
X40326Y42101D01*
X40311Y42089D01*
X40299Y42074D01*
X40288Y42057D01*
X40281Y42039D01*
X40276Y42020D01*
X40275Y42000D01*
X40276Y40324D01*
X40273Y40310D01*
X40269Y40250D01*
Y39788D01*
X40238Y39762D01*
X40186Y39701D01*
X40144Y39632D01*
X40113Y39558D01*
X40095Y39480D01*
X40088Y39400D01*
X40095Y39320D01*
X40113Y39242D01*
X40144Y39168D01*
X40186Y39099D01*
X40238Y39038D01*
X40299Y38986D01*
X40368Y38944D01*
X40442Y38913D01*
X40520Y38895D01*
X40599Y38888D01*
Y38212D01*
X40520Y38205D01*
X40442Y38187D01*
X40368Y38156D01*
X40299Y38114D01*
X40238Y38062D01*
X40186Y38001D01*
X40144Y37932D01*
X40113Y37858D01*
X40095Y37780D01*
X40088Y37700D01*
X40095Y37620D01*
X40113Y37542D01*
X40144Y37468D01*
X40186Y37399D01*
X40238Y37338D01*
X40269Y37312D01*
Y36900D01*
X40273Y36840D01*
X40275Y36829D01*
X40276Y35080D01*
X40281Y35061D01*
X40288Y35043D01*
X40299Y35026D01*
X40311Y35011D01*
X40326Y34999D01*
X40343Y34988D01*
X40361Y34981D01*
X40380Y34976D01*
X40400Y34975D01*
X40599Y34975D01*
Y22561D01*
X36557Y18519D01*
X36500Y18523D01*
X36388Y18515D01*
X36280Y18488D01*
X36176Y18446D01*
X36081Y18387D01*
X35996Y18314D01*
X35923Y18229D01*
X35864Y18134D01*
X35822Y18030D01*
X35795Y17922D01*
X35787Y17810D01*
X35795Y17698D01*
X35822Y17590D01*
X35864Y17486D01*
X35923Y17391D01*
X35996Y17306D01*
X36081Y17233D01*
X36176Y17174D01*
X36280Y17132D01*
X36388Y17105D01*
X36500Y17097D01*
X36612Y17105D01*
X36720Y17132D01*
X36824Y17174D01*
X36919Y17233D01*
X37004Y17306D01*
X37077Y17391D01*
X37136Y17486D01*
X37178Y17590D01*
X37205Y17698D01*
X37211Y17810D01*
X37207Y17885D01*
X40599Y21277D01*
Y12761D01*
X31848D01*
Y41493D01*
X31850Y41493D01*
X32008Y41505D01*
X32161Y41542D01*
X32307Y41603D01*
X32442Y41685D01*
X32562Y41788D01*
X32665Y41908D01*
X32747Y42043D01*
X32808Y42189D01*
X32845Y42342D01*
X32854Y42500D01*
X32845Y42658D01*
X32808Y42811D01*
X32747Y42957D01*
X32665Y43092D01*
X32562Y43212D01*
X32442Y43315D01*
X32307Y43397D01*
X32161Y43458D01*
X32008Y43495D01*
X31850Y43507D01*
X31848Y43507D01*
Y48493D01*
X31850Y48493D01*
X32008Y48505D01*
X32161Y48542D01*
X32307Y48603D01*
X32442Y48685D01*
X32562Y48788D01*
X32665Y48908D01*
X32747Y49043D01*
X32808Y49189D01*
X32845Y49342D01*
X32854Y49500D01*
X32845Y49658D01*
X32808Y49811D01*
X32747Y49957D01*
X32665Y50092D01*
X32562Y50212D01*
X32442Y50315D01*
X32307Y50397D01*
X32161Y50458D01*
X32008Y50495D01*
X31850Y50507D01*
X31848Y50507D01*
Y54000D01*
G37*
G36*
X23674D02*X31848D01*
Y50507D01*
X31692Y50495D01*
X31539Y50458D01*
X31393Y50397D01*
X31258Y50315D01*
X31138Y50212D01*
X31035Y50092D01*
X30953Y49957D01*
X30892Y49811D01*
X30855Y49658D01*
X30843Y49500D01*
X30855Y49342D01*
X30892Y49189D01*
X30953Y49043D01*
X31035Y48908D01*
X31138Y48788D01*
X31258Y48685D01*
X31393Y48603D01*
X31539Y48542D01*
X31692Y48505D01*
X31848Y48493D01*
Y43507D01*
X31692Y43495D01*
X31539Y43458D01*
X31393Y43397D01*
X31258Y43315D01*
X31138Y43212D01*
X31035Y43092D01*
X30953Y42957D01*
X30892Y42811D01*
X30855Y42658D01*
X30843Y42500D01*
X30855Y42342D01*
X30892Y42189D01*
X30953Y42043D01*
X31035Y41908D01*
X31138Y41788D01*
X31258Y41685D01*
X31393Y41603D01*
X31539Y41542D01*
X31692Y41505D01*
X31848Y41493D01*
Y12761D01*
X24125D01*
X24110Y12762D01*
X24050Y12757D01*
X23992Y12743D01*
X23936Y12721D01*
X23885Y12689D01*
X23885Y12689D01*
X23840Y12650D01*
X23830Y12639D01*
X23674Y12483D01*
Y19536D01*
X25573D01*
X25519Y19523D01*
X25453Y19496D01*
X25392Y19458D01*
X25338Y19412D01*
X25326Y19398D01*
X24555Y18627D01*
X24470Y18633D01*
X24358Y18625D01*
X24250Y18598D01*
X24146Y18556D01*
X24051Y18497D01*
X23966Y18424D01*
X23893Y18339D01*
X23834Y18244D01*
X23792Y18140D01*
X23765Y18032D01*
X23757Y17920D01*
X23765Y17808D01*
X23792Y17700D01*
X23834Y17596D01*
X23893Y17501D01*
X23966Y17416D01*
X24051Y17343D01*
X24146Y17284D01*
X24250Y17242D01*
X24358Y17215D01*
X24470Y17207D01*
X24582Y17215D01*
X24690Y17242D01*
X24794Y17284D01*
X24889Y17343D01*
X24974Y17416D01*
X25047Y17501D01*
X25106Y17596D01*
X25148Y17700D01*
X25175Y17808D01*
X25181Y17920D01*
X25178Y17966D01*
X25848Y18636D01*
X26115D01*
X26176Y18566D01*
X26261Y18493D01*
X26356Y18434D01*
X26460Y18392D01*
X26568Y18365D01*
X26680Y18357D01*
X26792Y18365D01*
X26900Y18392D01*
X27004Y18434D01*
X27099Y18493D01*
X27184Y18566D01*
X27257Y18651D01*
X27316Y18746D01*
X27358Y18850D01*
X27385Y18958D01*
X27391Y19070D01*
X27385Y19182D01*
X27358Y19290D01*
X27316Y19394D01*
X27257Y19489D01*
X27217Y19536D01*
X27998D01*
X28066Y19494D01*
X28170Y19452D01*
X28278Y19425D01*
X28390Y19417D01*
X28502Y19425D01*
X28610Y19452D01*
X28714Y19494D01*
X28809Y19553D01*
X28894Y19626D01*
X28967Y19711D01*
X29026Y19806D01*
X29068Y19910D01*
X29095Y20018D01*
X29101Y20130D01*
X29095Y20242D01*
X29068Y20350D01*
X29026Y20454D01*
X28967Y20549D01*
X28894Y20634D01*
X28809Y20707D01*
X28714Y20766D01*
X28610Y20808D01*
X28502Y20835D01*
X28390Y20843D01*
X28278Y20835D01*
X28170Y20808D01*
X28066Y20766D01*
X27971Y20707D01*
X27886Y20634D01*
X27813Y20549D01*
X27754Y20454D01*
X27750Y20444D01*
X23674D01*
Y24914D01*
X24656Y23932D01*
X24668Y23918D01*
X24722Y23872D01*
X24783Y23834D01*
X24849Y23807D01*
X24919Y23790D01*
X24990Y23785D01*
X25008Y23786D01*
X30132D01*
X30150Y23785D01*
X30221Y23790D01*
X30221Y23790D01*
X30291Y23807D01*
X30357Y23834D01*
X30418Y23872D01*
X30472Y23918D01*
X30484Y23932D01*
X31028Y24476D01*
X31042Y24488D01*
X31088Y24542D01*
X31126Y24603D01*
X31153Y24669D01*
X31170Y24739D01*
X31175Y24810D01*
X31174Y24828D01*
Y25761D01*
X31214Y25796D01*
X31287Y25881D01*
X31346Y25976D01*
X31388Y26080D01*
X31415Y26188D01*
X31421Y26300D01*
X31415Y26412D01*
X31388Y26520D01*
X31346Y26624D01*
X31287Y26719D01*
X31214Y26804D01*
X31129Y26877D01*
X31034Y26936D01*
X30930Y26978D01*
X30822Y27005D01*
X30710Y27013D01*
X30598Y27005D01*
X30490Y26978D01*
X30386Y26936D01*
X30291Y26877D01*
X30206Y26804D01*
X30133Y26719D01*
X30074Y26624D01*
X30032Y26520D01*
X30005Y26412D01*
X29997Y26300D01*
X30005Y26188D01*
X30032Y26080D01*
X30074Y25976D01*
X30133Y25881D01*
X30206Y25796D01*
X30266Y25744D01*
Y24998D01*
X29962Y24694D01*
X29647D01*
X29720Y24712D01*
X29824Y24754D01*
X29919Y24813D01*
X30004Y24886D01*
X30077Y24971D01*
X30136Y25066D01*
X30178Y25170D01*
X30205Y25278D01*
X30211Y25390D01*
X30205Y25502D01*
X30178Y25610D01*
X30136Y25714D01*
X30077Y25809D01*
X30004Y25894D01*
X29964Y25929D01*
Y29712D01*
X30195Y29943D01*
X30270Y29937D01*
X30382Y29945D01*
X30490Y29972D01*
X30594Y30014D01*
X30689Y30073D01*
X30774Y30146D01*
X30847Y30231D01*
X30906Y30326D01*
X30948Y30430D01*
X30975Y30538D01*
X30981Y30650D01*
X30975Y30762D01*
X30948Y30870D01*
X30906Y30974D01*
X30847Y31069D01*
X30774Y31154D01*
X30689Y31227D01*
X30594Y31286D01*
X30490Y31328D01*
X30382Y31355D01*
X30270Y31363D01*
X30158Y31355D01*
X30050Y31328D01*
X29946Y31286D01*
X29851Y31227D01*
X29766Y31154D01*
X29693Y31069D01*
X29634Y30974D01*
X29592Y30870D01*
X29565Y30762D01*
X29557Y30650D01*
X29561Y30593D01*
X29202Y30234D01*
X29188Y30222D01*
X29142Y30168D01*
X29104Y30107D01*
X29077Y30041D01*
X29060Y29971D01*
X29060Y29971D01*
X29055Y29900D01*
X29056Y29882D01*
Y26739D01*
X28999Y26787D01*
X28904Y26846D01*
X28800Y26888D01*
X28692Y26915D01*
X28580Y26923D01*
X28514Y26918D01*
X28474Y26958D01*
Y30552D01*
X28475Y30570D01*
X28470Y30641D01*
X28470Y30641D01*
X28453Y30711D01*
X28426Y30777D01*
X28388Y30838D01*
X28342Y30892D01*
X28328Y30904D01*
X27284Y31948D01*
X27272Y31962D01*
X27218Y32008D01*
X27157Y32046D01*
X27091Y32073D01*
X27021Y32090D01*
X27021Y32090D01*
X26950Y32095D01*
X26932Y32094D01*
X26500D01*
X26474Y32124D01*
X26389Y32197D01*
X26294Y32256D01*
X26190Y32298D01*
X26082Y32325D01*
X25970Y32333D01*
X25858Y32325D01*
X25750Y32298D01*
X25646Y32256D01*
X25551Y32197D01*
X25466Y32124D01*
X25393Y32039D01*
X25334Y31944D01*
X25292Y31840D01*
X25265Y31732D01*
X25257Y31620D01*
X25265Y31508D01*
X25292Y31400D01*
X25334Y31296D01*
X25393Y31201D01*
X25466Y31116D01*
X25551Y31043D01*
X25646Y30984D01*
X25750Y30942D01*
X25858Y30915D01*
X25970Y30907D01*
X26082Y30915D01*
X26190Y30942D01*
X26294Y30984D01*
X26389Y31043D01*
X26474Y31116D01*
X26535Y31186D01*
X26762D01*
X27566Y30382D01*
Y26788D01*
X27565Y26770D01*
X27570Y26699D01*
X27587Y26629D01*
X27614Y26563D01*
X27652Y26502D01*
X27698Y26448D01*
X27712Y26436D01*
X27872Y26276D01*
X27867Y26210D01*
X27875Y26098D01*
X27902Y25990D01*
X27944Y25886D01*
X28003Y25791D01*
X28076Y25706D01*
X28161Y25633D01*
X28256Y25574D01*
X28360Y25532D01*
X28468Y25505D01*
X28580Y25497D01*
X28692Y25505D01*
X28800Y25532D01*
X28803Y25532D01*
X28795Y25502D01*
X28787Y25390D01*
X28795Y25278D01*
X28822Y25170D01*
X28864Y25066D01*
X28923Y24971D01*
X28996Y24886D01*
X29081Y24813D01*
X29176Y24754D01*
X29280Y24712D01*
X29353Y24694D01*
X25178D01*
X24268Y25604D01*
X24271Y25650D01*
X24265Y25762D01*
X24238Y25870D01*
X24196Y25974D01*
X24137Y26069D01*
X24064Y26154D01*
X23979Y26227D01*
X23884Y26286D01*
X23780Y26328D01*
X23674Y26354D01*
Y54000D01*
G37*
G36*
Y7774D02*X23632Y7785D01*
X23520Y7793D01*
X23408Y7785D01*
X23300Y7758D01*
X23196Y7716D01*
X23108Y7662D01*
X18847D01*
X17523Y8985D01*
X17630Y8977D01*
X17742Y8985D01*
X17850Y9012D01*
X17954Y9054D01*
X18049Y9113D01*
X18134Y9186D01*
X18207Y9271D01*
X18231Y9309D01*
X22265D01*
X22280Y9308D01*
X22340Y9313D01*
X22340Y9313D01*
X22398Y9327D01*
X22454Y9349D01*
X22505Y9381D01*
X22550Y9420D01*
X22560Y9431D01*
X23674Y10545D01*
Y7774D01*
G37*
G36*
X20948Y6519D02*X23082D01*
X23101Y6503D01*
X23196Y6444D01*
X23300Y6402D01*
X23408Y6375D01*
X23520Y6367D01*
X23632Y6375D01*
X23674Y6386D01*
Y5041D01*
X23199D01*
X23161Y5074D01*
X23092Y5116D01*
X23018Y5147D01*
X22940Y5165D01*
X22860Y5172D01*
X22780Y5165D01*
X22702Y5147D01*
X22628Y5116D01*
X22559Y5074D01*
X22521Y5041D01*
X20948D01*
Y6519D01*
G37*
G36*
Y19536D02*X23674D01*
Y12483D01*
X22572Y11381D01*
X20948D01*
Y19536D01*
G37*
G36*
Y54000D02*X23674D01*
Y26354D01*
X23672Y26355D01*
X23560Y26363D01*
X23448Y26355D01*
X23340Y26328D01*
X23236Y26286D01*
X23141Y26227D01*
X23056Y26154D01*
X22983Y26069D01*
X22924Y25974D01*
X22882Y25870D01*
X22855Y25762D01*
X22847Y25650D01*
X22855Y25538D01*
X22882Y25430D01*
X22924Y25326D01*
X22983Y25231D01*
X23056Y25146D01*
X23141Y25073D01*
X23236Y25014D01*
X23340Y24972D01*
X23448Y24945D01*
X23560Y24937D01*
X23645Y24943D01*
X23674Y24914D01*
Y20444D01*
X20948D01*
Y41243D01*
X20950Y41243D01*
X21108Y41255D01*
X21261Y41292D01*
X21407Y41353D01*
X21542Y41435D01*
X21662Y41538D01*
X21765Y41658D01*
X21847Y41793D01*
X21908Y41939D01*
X21945Y42092D01*
X21954Y42250D01*
X21945Y42408D01*
X21908Y42561D01*
X21847Y42707D01*
X21765Y42842D01*
X21662Y42962D01*
X21542Y43065D01*
X21407Y43147D01*
X21261Y43208D01*
X21108Y43245D01*
X20950Y43257D01*
X20948Y43257D01*
Y48243D01*
X20950Y48243D01*
X21108Y48255D01*
X21261Y48292D01*
X21407Y48353D01*
X21542Y48435D01*
X21662Y48538D01*
X21765Y48658D01*
X21847Y48793D01*
X21908Y48939D01*
X21945Y49092D01*
X21954Y49250D01*
X21945Y49408D01*
X21908Y49561D01*
X21847Y49707D01*
X21765Y49842D01*
X21662Y49962D01*
X21542Y50065D01*
X21407Y50147D01*
X21261Y50208D01*
X21108Y50245D01*
X20950Y50257D01*
X20948Y50257D01*
Y54000D01*
G37*
G36*
X11498D02*X20948D01*
Y50257D01*
X20792Y50245D01*
X20639Y50208D01*
X20493Y50147D01*
X20358Y50065D01*
X20238Y49962D01*
X20135Y49842D01*
X20053Y49707D01*
X19992Y49561D01*
X19955Y49408D01*
X19943Y49250D01*
X19955Y49092D01*
X19992Y48939D01*
X20053Y48793D01*
X20135Y48658D01*
X20238Y48538D01*
X20358Y48435D01*
X20493Y48353D01*
X20639Y48292D01*
X20792Y48255D01*
X20948Y48243D01*
Y43257D01*
X20792Y43245D01*
X20639Y43208D01*
X20493Y43147D01*
X20358Y43065D01*
X20238Y42962D01*
X20135Y42842D01*
X20053Y42707D01*
X19992Y42561D01*
X19955Y42408D01*
X19943Y42250D01*
X19955Y42092D01*
X19992Y41939D01*
X20053Y41793D01*
X20135Y41658D01*
X20238Y41538D01*
X20358Y41435D01*
X20493Y41353D01*
X20639Y41292D01*
X20792Y41255D01*
X20948Y41243D01*
Y20444D01*
X19600D01*
X19596Y20454D01*
X19537Y20549D01*
X19464Y20634D01*
X19379Y20707D01*
X19284Y20766D01*
X19180Y20808D01*
X19072Y20835D01*
X18960Y20843D01*
X18848Y20835D01*
X18740Y20808D01*
X18636Y20766D01*
X18541Y20707D01*
X18456Y20634D01*
X18383Y20549D01*
X18324Y20454D01*
X18282Y20350D01*
X18255Y20242D01*
X18247Y20130D01*
X18255Y20018D01*
X18282Y19910D01*
X18324Y19806D01*
X18383Y19711D01*
X18456Y19626D01*
X18506Y19582D01*
Y17289D01*
X18466Y17254D01*
X18393Y17169D01*
X18334Y17074D01*
X18292Y16970D01*
X18265Y16862D01*
X18257Y16750D01*
X18265Y16638D01*
X18292Y16530D01*
X18334Y16426D01*
X18393Y16331D01*
X18466Y16246D01*
X18551Y16173D01*
X18646Y16114D01*
X18750Y16072D01*
X18858Y16045D01*
X18970Y16037D01*
X19082Y16045D01*
X19190Y16072D01*
X19294Y16114D01*
X19389Y16173D01*
X19474Y16246D01*
X19547Y16331D01*
X19606Y16426D01*
X19648Y16530D01*
X19675Y16638D01*
X19681Y16750D01*
X19675Y16862D01*
X19648Y16970D01*
X19606Y17074D01*
X19547Y17169D01*
X19474Y17254D01*
X19414Y17306D01*
Y19536D01*
X20948D01*
Y11381D01*
X18038D01*
X18027Y11399D01*
X17954Y11484D01*
X17869Y11557D01*
X17774Y11616D01*
X17670Y11658D01*
X17562Y11685D01*
X17450Y11693D01*
X17338Y11685D01*
X17230Y11658D01*
X17126Y11616D01*
X17031Y11557D01*
X16946Y11484D01*
X16873Y11399D01*
X16814Y11304D01*
X16772Y11200D01*
X16745Y11092D01*
X16737Y10980D01*
X16745Y10868D01*
X16772Y10760D01*
X16814Y10656D01*
X16873Y10561D01*
X16946Y10476D01*
X17031Y10403D01*
X17126Y10344D01*
X17230Y10302D01*
X17256Y10295D01*
X17211Y10267D01*
X17126Y10194D01*
X17053Y10109D01*
X16994Y10014D01*
X16952Y9910D01*
X16925Y9802D01*
X16917Y9690D01*
X16925Y9583D01*
X16032Y10477D01*
Y14024D01*
X16037Y14031D01*
X16096Y14126D01*
X16138Y14230D01*
X16165Y14338D01*
X16171Y14450D01*
X16165Y14562D01*
X16138Y14670D01*
X16096Y14774D01*
X16037Y14869D01*
X15964Y14954D01*
X15879Y15027D01*
X15784Y15086D01*
X15680Y15128D01*
X15572Y15155D01*
X15460Y15163D01*
X15348Y15155D01*
X15240Y15128D01*
X15136Y15086D01*
X15041Y15027D01*
X14956Y14954D01*
X14883Y14869D01*
X14824Y14774D01*
X14782Y14670D01*
X14755Y14562D01*
X14747Y14450D01*
X14755Y14338D01*
X14782Y14230D01*
X14824Y14126D01*
X14883Y14031D01*
X14888Y14024D01*
Y10262D01*
X14887Y10240D01*
X14894Y10150D01*
Y10150D01*
X14915Y10063D01*
X14949Y9980D01*
X14967Y9951D01*
X14996Y9903D01*
X14996Y9903D01*
X15055Y9835D01*
X15072Y9820D01*
X18190Y6702D01*
X18205Y6685D01*
X18273Y6626D01*
X18273Y6626D01*
X18350Y6579D01*
X18433Y6545D01*
X18520Y6524D01*
X18610Y6517D01*
X18632Y6519D01*
X20948D01*
Y5041D01*
X13688D01*
X11498Y7230D01*
Y26593D01*
X11500Y26593D01*
X11658Y26605D01*
X11811Y26642D01*
X11957Y26703D01*
X12092Y26785D01*
X12212Y26888D01*
X12315Y27008D01*
X12397Y27143D01*
X12458Y27289D01*
X12495Y27442D01*
X12504Y27600D01*
X12495Y27758D01*
X12458Y27911D01*
X12397Y28057D01*
X12315Y28192D01*
X12212Y28312D01*
X12092Y28415D01*
X11957Y28497D01*
X11811Y28558D01*
X11658Y28595D01*
X11500Y28607D01*
X11498Y28607D01*
Y54000D01*
G37*
G36*
X9998D02*X11498D01*
Y28607D01*
X11342Y28595D01*
X11189Y28558D01*
X11043Y28497D01*
X10908Y28415D01*
X10788Y28312D01*
X10685Y28192D01*
X10603Y28057D01*
X10542Y27911D01*
X10505Y27758D01*
X10493Y27600D01*
X10505Y27442D01*
X10542Y27289D01*
X10603Y27143D01*
X10685Y27008D01*
X10788Y26888D01*
X10908Y26785D01*
X11043Y26703D01*
X11189Y26642D01*
X11342Y26605D01*
X11498Y26593D01*
Y7230D01*
X9998Y8730D01*
Y41493D01*
X10000Y41493D01*
X10158Y41505D01*
X10311Y41542D01*
X10457Y41603D01*
X10592Y41685D01*
X10712Y41788D01*
X10815Y41908D01*
X10897Y42043D01*
X10958Y42189D01*
X10995Y42342D01*
X11004Y42500D01*
X10995Y42658D01*
X10958Y42811D01*
X10897Y42957D01*
X10815Y43092D01*
X10712Y43212D01*
X10592Y43315D01*
X10457Y43397D01*
X10311Y43458D01*
X10158Y43495D01*
X10000Y43507D01*
X9998Y43507D01*
Y48493D01*
X10000Y48493D01*
X10158Y48505D01*
X10311Y48542D01*
X10457Y48603D01*
X10592Y48685D01*
X10712Y48788D01*
X10815Y48908D01*
X10897Y49043D01*
X10958Y49189D01*
X10995Y49342D01*
X11004Y49500D01*
X10995Y49658D01*
X10958Y49811D01*
X10897Y49957D01*
X10815Y50092D01*
X10712Y50212D01*
X10592Y50315D01*
X10457Y50397D01*
X10311Y50458D01*
X10158Y50495D01*
X10000Y50507D01*
X9998Y50507D01*
Y54000D01*
G37*
G36*
Y3430D02*X9960Y3469D01*
X9998D01*
Y3430D01*
G37*
G36*
X8850Y2725D02*X9998Y1580D01*
Y0D01*
X8850D01*
Y2725D01*
G37*
G36*
Y8801D02*X9998Y7653D01*
Y4231D01*
X9938D01*
X8850Y5319D01*
Y8801D01*
G37*
G36*
X9262Y41819D02*X9288Y41788D01*
X9408Y41685D01*
X9543Y41603D01*
X9689Y41542D01*
X9842Y41505D01*
X9998Y41493D01*
Y8730D01*
X9262Y9467D01*
Y14699D01*
X9273Y14703D01*
X9284Y14708D01*
X9295Y14715D01*
X9304Y14724D01*
X9311Y14734D01*
X9317Y14745D01*
X9334Y14789D01*
X9347Y14834D01*
X9356Y14880D01*
X9360Y14927D01*
Y14973D01*
X9356Y15020D01*
X9347Y15066D01*
X9334Y15111D01*
X9318Y15155D01*
X9312Y15166D01*
X9304Y15176D01*
X9295Y15185D01*
X9284Y15192D01*
X9273Y15198D01*
X9262Y15201D01*
Y41819D01*
G37*
G36*
Y48819D02*X9288Y48788D01*
X9408Y48685D01*
X9543Y48603D01*
X9689Y48542D01*
X9842Y48505D01*
X9998Y48493D01*
Y43507D01*
X9842Y43495D01*
X9689Y43458D01*
X9543Y43397D01*
X9408Y43315D01*
X9288Y43212D01*
X9262Y43181D01*
Y48819D01*
G37*
G36*
Y54000D02*X9998D01*
Y50507D01*
X9842Y50495D01*
X9689Y50458D01*
X9543Y50397D01*
X9408Y50315D01*
X9288Y50212D01*
X9262Y50181D01*
Y54000D01*
G37*
G36*
X8850D02*X9262D01*
Y50181D01*
X9185Y50092D01*
X9103Y49957D01*
X9042Y49811D01*
X9005Y49658D01*
X8993Y49500D01*
X9005Y49342D01*
X9042Y49189D01*
X9103Y49043D01*
X9185Y48908D01*
X9262Y48819D01*
Y43181D01*
X9185Y43092D01*
X9103Y42957D01*
X9042Y42811D01*
X9005Y42658D01*
X8993Y42500D01*
X9005Y42342D01*
X9042Y42189D01*
X9103Y42043D01*
X9185Y41908D01*
X9262Y41819D01*
Y15201D01*
X9261Y15201D01*
X9248Y15203D01*
X9236Y15203D01*
X9223Y15201D01*
X9211Y15197D01*
X9200Y15191D01*
X9190Y15183D01*
X9181Y15174D01*
X9174Y15163D01*
X9169Y15152D01*
X9165Y15140D01*
X9163Y15127D01*
X9164Y15115D01*
X9166Y15102D01*
X9170Y15090D01*
X9182Y15061D01*
X9191Y15030D01*
X9197Y14998D01*
X9200Y14966D01*
Y14934D01*
X9197Y14902D01*
X9191Y14870D01*
X9182Y14839D01*
X9171Y14809D01*
X9166Y14798D01*
X9164Y14785D01*
X9164Y14773D01*
X9165Y14760D01*
X9169Y14748D01*
X9175Y14737D01*
X9182Y14726D01*
X9190Y14717D01*
X9200Y14710D01*
X9212Y14704D01*
X9223Y14700D01*
X9236Y14697D01*
X9248Y14697D01*
X9261Y14699D01*
X9262Y14699D01*
Y9467D01*
X8850Y9879D01*
Y14440D01*
X8873D01*
X8920Y14444D01*
X8966Y14453D01*
X9011Y14466D01*
X9055Y14482D01*
X9066Y14488D01*
X9076Y14496D01*
X9085Y14505D01*
X9092Y14516D01*
X9098Y14527D01*
X9101Y14539D01*
X9103Y14552D01*
X9103Y14564D01*
X9101Y14577D01*
X9097Y14589D01*
X9091Y14600D01*
X9083Y14610D01*
X9074Y14619D01*
X9063Y14626D01*
X9052Y14631D01*
X9040Y14635D01*
X9027Y14637D01*
X9015Y14636D01*
X9002Y14634D01*
X8990Y14630D01*
X8961Y14618D01*
X8930Y14609D01*
X8898Y14603D01*
X8866Y14600D01*
X8850D01*
Y15300D01*
X8866D01*
X8898Y15297D01*
X8930Y15291D01*
X8961Y15282D01*
X8991Y15271D01*
X9002Y15266D01*
X9015Y15264D01*
X9027Y15264D01*
X9040Y15265D01*
X9052Y15269D01*
X9063Y15275D01*
X9074Y15282D01*
X9083Y15290D01*
X9090Y15300D01*
X9096Y15312D01*
X9100Y15323D01*
X9103Y15336D01*
X9103Y15348D01*
X9101Y15361D01*
X9097Y15373D01*
X9092Y15384D01*
X9085Y15395D01*
X9076Y15404D01*
X9066Y15411D01*
X9055Y15417D01*
X9011Y15434D01*
X8966Y15447D01*
X8920Y15456D01*
X8873Y15460D01*
X8850D01*
Y54000D01*
G37*
G36*
X8438Y3135D02*X8850Y2725D01*
Y0D01*
X8438D01*
Y3135D01*
G37*
G36*
Y9213D02*X8850Y8801D01*
Y5319D01*
X8438Y5730D01*
Y9213D01*
G37*
G36*
Y54000D02*X8850D01*
Y15460D01*
X8827D01*
X8780Y15456D01*
X8734Y15447D01*
X8689Y15434D01*
X8645Y15418D01*
X8634Y15412D01*
X8624Y15404D01*
X8615Y15395D01*
X8608Y15384D01*
X8602Y15373D01*
X8599Y15361D01*
X8597Y15348D01*
X8597Y15336D01*
X8599Y15323D01*
X8603Y15311D01*
X8609Y15300D01*
X8617Y15290D01*
X8626Y15281D01*
X8637Y15274D01*
X8648Y15269D01*
X8660Y15265D01*
X8673Y15263D01*
X8685Y15264D01*
X8698Y15266D01*
X8710Y15270D01*
X8739Y15282D01*
X8770Y15291D01*
X8802Y15297D01*
X8834Y15300D01*
X8850D01*
Y14600D01*
X8834D01*
X8802Y14603D01*
X8770Y14609D01*
X8739Y14618D01*
X8709Y14629D01*
X8698Y14634D01*
X8685Y14636D01*
X8673Y14636D01*
X8660Y14635D01*
X8648Y14631D01*
X8637Y14625D01*
X8626Y14618D01*
X8617Y14610D01*
X8610Y14600D01*
X8604Y14588D01*
X8600Y14577D01*
X8597Y14564D01*
X8597Y14552D01*
X8599Y14539D01*
X8603Y14527D01*
X8608Y14516D01*
X8615Y14505D01*
X8624Y14496D01*
X8634Y14489D01*
X8645Y14483D01*
X8689Y14466D01*
X8734Y14453D01*
X8780Y14444D01*
X8827Y14440D01*
X8850D01*
Y9879D01*
X8438Y10290D01*
Y14699D01*
X8439Y14699D01*
X8452Y14697D01*
X8464Y14697D01*
X8477Y14699D01*
X8489Y14703D01*
X8500Y14709D01*
X8510Y14717D01*
X8519Y14726D01*
X8526Y14737D01*
X8531Y14748D01*
X8535Y14760D01*
X8537Y14773D01*
X8536Y14785D01*
X8534Y14798D01*
X8530Y14810D01*
X8518Y14839D01*
X8509Y14870D01*
X8503Y14902D01*
X8500Y14934D01*
Y14966D01*
X8503Y14998D01*
X8509Y15030D01*
X8518Y15061D01*
X8529Y15091D01*
X8534Y15102D01*
X8536Y15115D01*
X8536Y15127D01*
X8535Y15140D01*
X8531Y15152D01*
X8525Y15163D01*
X8518Y15174D01*
X8510Y15183D01*
X8500Y15190D01*
X8488Y15196D01*
X8477Y15200D01*
X8464Y15203D01*
X8452Y15203D01*
X8439Y15201D01*
X8438Y15201D01*
Y54000D01*
G37*
G36*
X4498Y9062D02*X4506Y9049D01*
X4558Y8988D01*
X4619Y8936D01*
X4688Y8894D01*
X4762Y8863D01*
X4840Y8845D01*
X4920Y8838D01*
X5000Y8845D01*
X5078Y8863D01*
X5152Y8894D01*
X5221Y8936D01*
X5282Y8988D01*
X5334Y9049D01*
X5376Y9118D01*
X5407Y9192D01*
X5425Y9270D01*
X5430Y9350D01*
X5425Y9430D01*
X5407Y9508D01*
X5376Y9582D01*
X5334Y9651D01*
X5301Y9689D01*
Y9842D01*
X5778Y10319D01*
X7332D01*
X8438Y9213D01*
Y5730D01*
X6601Y7568D01*
Y9001D01*
X6634Y9039D01*
X6676Y9108D01*
X6707Y9182D01*
X6725Y9260D01*
X6730Y9340D01*
X6725Y9420D01*
X6707Y9498D01*
X6676Y9572D01*
X6634Y9641D01*
X6582Y9702D01*
X6521Y9754D01*
X6452Y9796D01*
X6378Y9827D01*
X6300Y9845D01*
X6220Y9852D01*
X6140Y9845D01*
X6062Y9827D01*
X5988Y9796D01*
X5919Y9754D01*
X5858Y9702D01*
X5806Y9641D01*
X5764Y9572D01*
X5733Y9498D01*
X5715Y9420D01*
X5708Y9340D01*
X5715Y9260D01*
X5733Y9182D01*
X5764Y9108D01*
X5806Y9039D01*
X5839Y9001D01*
Y7630D01*
X5820Y7641D01*
X5743Y7673D01*
X5663Y7693D01*
X5580Y7699D01*
X5497Y7693D01*
X5417Y7673D01*
X5340Y7641D01*
X5269Y7598D01*
X5206Y7544D01*
X5152Y7481D01*
X5109Y7410D01*
X5077Y7333D01*
X5057Y7253D01*
X5051Y7170D01*
X5057Y7087D01*
X5077Y7007D01*
X5109Y6930D01*
X5152Y6859D01*
X5206Y6796D01*
X5269Y6742D01*
X5340Y6699D01*
X5417Y6667D01*
X5497Y6647D01*
X5580Y6641D01*
X5663Y6647D01*
X5696Y6655D01*
X8014Y4337D01*
X7990Y4339D01*
X7907Y4333D01*
X7827Y4313D01*
X7750Y4281D01*
X7679Y4238D01*
X7616Y4184D01*
X7562Y4121D01*
X7519Y4050D01*
X7487Y3973D01*
X7467Y3893D01*
X7461Y3810D01*
X7467Y3727D01*
X7487Y3647D01*
X7519Y3570D01*
X7562Y3499D01*
X7616Y3436D01*
X7679Y3382D01*
X7750Y3339D01*
X7827Y3307D01*
X7907Y3287D01*
X7990Y3281D01*
X8073Y3287D01*
X8153Y3307D01*
X8230Y3339D01*
X8232Y3340D01*
X8438Y3135D01*
Y0D01*
X4498D01*
Y9062D01*
G37*
G36*
Y54000D02*X8438D01*
Y15201D01*
X8427Y15197D01*
X8416Y15192D01*
X8405Y15185D01*
X8396Y15176D01*
X8389Y15166D01*
X8383Y15155D01*
X8366Y15111D01*
X8353Y15066D01*
X8344Y15020D01*
X8340Y14973D01*
Y14927D01*
X8344Y14880D01*
X8353Y14834D01*
X8366Y14789D01*
X8382Y14745D01*
X8388Y14734D01*
X8396Y14724D01*
X8405Y14715D01*
X8416Y14708D01*
X8427Y14702D01*
X8438Y14699D01*
Y10290D01*
X7770Y10959D01*
X7760Y10970D01*
X7715Y11009D01*
X7664Y11041D01*
X7608Y11063D01*
X7550Y11077D01*
X7490Y11082D01*
X7475Y11081D01*
X5635D01*
X5620Y11082D01*
X5560Y11077D01*
X5502Y11063D01*
X5446Y11041D01*
X5395Y11009D01*
X5395Y11009D01*
X5350Y10970D01*
X5340Y10959D01*
X4661Y10280D01*
X4650Y10270D01*
X4611Y10225D01*
X4579Y10174D01*
X4557Y10118D01*
X4543Y10060D01*
X4543Y10060D01*
X4538Y10000D01*
X4539Y9985D01*
Y9689D01*
X4506Y9651D01*
X4498Y9638D01*
Y26593D01*
X4500Y26593D01*
X4658Y26605D01*
X4811Y26642D01*
X4957Y26703D01*
X5092Y26785D01*
X5212Y26888D01*
X5315Y27008D01*
X5397Y27143D01*
X5458Y27289D01*
X5495Y27442D01*
X5504Y27600D01*
X5495Y27758D01*
X5458Y27911D01*
X5397Y28057D01*
X5315Y28192D01*
X5212Y28312D01*
X5092Y28415D01*
X4957Y28497D01*
X4811Y28558D01*
X4658Y28595D01*
X4500Y28607D01*
X4498Y28607D01*
Y54000D01*
G37*
G36*
X0D02*X4498D01*
Y28607D01*
X4342Y28595D01*
X4189Y28558D01*
X4043Y28497D01*
X3908Y28415D01*
X3788Y28312D01*
X3685Y28192D01*
X3603Y28057D01*
X3542Y27911D01*
X3505Y27758D01*
X3493Y27600D01*
X3505Y27442D01*
X3542Y27289D01*
X3603Y27143D01*
X3685Y27008D01*
X3788Y26888D01*
X3908Y26785D01*
X4043Y26703D01*
X4189Y26642D01*
X4342Y26605D01*
X4498Y26593D01*
Y9638D01*
X4464Y9582D01*
X4433Y9508D01*
X4415Y9430D01*
X4408Y9350D01*
X4415Y9270D01*
X4433Y9192D01*
X4464Y9118D01*
X4498Y9062D01*
Y0D01*
X0D01*
Y54000D01*
G37*
G54D40*X10900Y1990D02*X5580Y7310D01*
X10900Y1220D02*X8140Y3970D01*
X6220Y9340D02*Y7410D01*
X9780Y3850D01*
X5620Y10700D02*X7490D01*
X4920Y9360D02*Y10000D01*
X5620Y10700D01*
G54D41*X15460Y14450D02*Y10240D01*
X18610Y7090D01*
G54D40*X7490Y10700D02*X13530Y4660D01*
G54D42*X29510Y25400D02*Y29900D01*
X30270Y30660D01*
X18960Y20120D02*Y16750D01*
X18950Y19990D02*X28400D01*
X26700Y19090D02*X25660D01*
X24470Y17900D01*
X28020Y30570D02*X26950Y31640D01*
X28020Y26770D02*Y30570D01*
X26950Y31640D02*X25960D01*
X30720Y26300D02*Y24810D01*
X30150Y24240D01*
X24990D01*
X23560Y25670D01*
X28520Y26180D02*Y26270D01*
X28020Y26770D01*
G54D40*X24140Y3850D02*X9780D01*
X23590Y1990D02*X10910D01*
X10900Y1220D02*X24820D01*
X23520Y1980D02*X34690D01*
X24830Y1230D02*X34670D01*
X34690Y1980D02*X35230Y2520D01*
X34670Y1230D02*X35760Y2320D01*
G54D41*X36870Y1120D02*X36050D01*
G54D40*X35230Y2520D02*Y3850D01*
X35760Y2320D02*Y3640D01*
X31970Y3860D02*X36590Y8480D01*
Y9820D01*
X28490Y4660D02*X34980Y11150D01*
X35230Y3850D02*X35800Y4420D01*
X24180Y3860D02*X31970D01*
X13530Y4660D02*X28490D01*
G54D41*X18610Y7090D02*X23530D01*
G54D40*X17630Y9690D02*X22280D01*
X24370Y11780D01*
X17460Y11000D02*X22730D01*
X24110Y12380D01*
X51850Y40100D02*Y39350D01*
X51050Y39450D02*Y40100D01*
X50250Y39450D02*Y40150D01*
X46250Y37000D02*Y37700D01*
X48650Y37050D02*Y37750D01*
X47050Y37650D02*Y36900D01*
X47850Y37650D02*Y37000D01*
X47050Y40100D02*Y39350D01*
X46250Y39450D02*Y40100D01*
X45450Y39450D02*Y40200D01*
X49450Y40100D02*Y39250D01*
X48650Y39450D02*Y40200D01*
X47850Y39450D02*Y40150D01*
X49450Y37650D02*Y36950D01*
X45450Y37650D02*Y37050D01*
X54250Y40050D02*Y39350D01*
X55850Y39450D02*Y40200D01*
X55050Y39450D02*Y40150D01*
X53450Y39450D02*Y40050D01*
X52650Y39450D02*Y40200D01*
X56650Y40150D02*Y39300D01*
X59050Y40150D02*Y39250D01*
X58250Y39450D02*Y40150D01*
X57450Y39450D02*Y40150D01*
X63850Y39450D02*Y40150D01*
Y37650D02*Y36900D01*
X63050Y39110D02*Y40200D01*
X62250Y39450D02*Y40100D01*
X61450Y39110D02*Y40150D01*
X60650Y39450D02*Y40200D01*
X59850Y39450D02*Y40250D01*
X62250Y36950D02*Y37750D01*
X59850Y37000D02*Y37750D01*
X63050Y37650D02*Y36950D01*
X61450Y37650D02*Y36950D01*
X60650Y37650D02*Y37000D01*
X57450D02*Y37750D01*
X55050Y36950D02*Y37800D01*
X55850Y37650D02*Y36950D01*
X59050Y37650D02*Y36950D01*
X58250Y37650D02*Y36950D01*
X56650Y37650D02*Y36900D01*
X52650Y36950D02*Y37750D01*
X54250Y37650D02*Y36900D01*
X53450Y37650D02*Y37000D01*
X51850Y37650D02*Y36950D01*
X51050Y38140D02*Y36950D01*
X50250Y37650D02*Y37000D01*
X41450Y36900D02*Y37750D01*
X43850Y37000D02*Y37700D01*
X42250Y37650D02*Y36950D01*
X43050Y37650D02*Y36950D01*
X42250Y40100D02*Y39350D01*
X44650Y40100D02*Y39250D01*
X43850Y39450D02*Y40100D01*
X43050Y39450D02*Y40200D01*
X41450Y39450D02*Y40150D01*
X40650Y39450D02*Y40250D01*
Y37650D02*Y36900D01*
X44650Y37650D02*Y36950D01*
G54D42*X53920Y29800D02*Y24800D01*
X54970Y23750D01*
X49670Y22180D02*Y21790D01*
X49180Y21300D01*
X47670D01*
X47740D02*X45940D01*
X45920Y23650D02*X42330D01*
X36470Y17790D01*
G54D40*X46700Y17950D02*X50280D01*
X51710Y16520D01*
X55480D01*
X47450Y17060D02*X50360D01*
X51440Y15980D01*
X55240D01*
G54D42*X51950Y17740D02*X62440D01*
G54D40*X55480Y16520D02*X61970Y10030D01*
X55240Y15980D02*X60020Y11200D01*
X51990Y12760D02*X56030D01*
X58010Y10780D01*
X54880Y11400D02*X54900Y11420D01*
G54D41*X75010Y2890D02*Y5130D01*
G54D40*X61970Y10030D02*Y3610D01*
X60940Y2580D01*
X60020Y11200D02*Y3820D01*
X58990Y2790D01*
X58010Y10780D02*Y3810D01*
X57040Y2840D01*
X56930Y3760D02*X56270Y4420D01*
X35810D02*X56260D01*
X35960Y3840D02*X55330D01*
X49100Y11780D02*X50550Y10330D01*
X50470Y11400D02*X54880D01*
X48780Y11150D02*X49590Y10330D01*
X35760Y3640D02*X35960Y3840D01*
X36590Y9820D02*X37280Y10510D01*
X48280D01*
X24370Y11780D02*X49100D01*
X34980Y11150D02*X48780D01*
G54D41*X36980Y5940D02*X36000D01*
G54D40*X50550Y10330D02*X56690D01*
X24110Y12380D02*X49490D01*
X50470Y11400D01*
G54D39*G36*
X39638Y9862D02*Y8338D01*
X41162D01*
Y9862D01*
X39638D01*
G37*
G54D43*X37860Y9100D03*
X35320D03*
G54D44*X50250Y37100D02*Y35350D01*
X47050Y37100D02*Y35350D01*
X46250Y37100D02*Y35350D01*
X45450Y37100D02*Y35350D01*
X42250Y37100D02*Y35350D01*
X41450Y37100D02*Y35350D01*
X40650Y37100D02*Y35350D01*
X49450Y37100D02*Y35350D01*
X48650Y37100D02*Y35350D01*
X47850Y37100D02*Y35350D01*
X44650Y37100D02*Y35350D01*
X43850Y37100D02*Y35350D01*
X43050Y37100D02*Y35350D01*
X60650Y37100D02*Y35350D01*
Y41750D02*Y40000D01*
X59850Y41750D02*Y40000D01*
X59050Y41750D02*Y40000D01*
X57450Y37100D02*Y35350D01*
X56650Y37100D02*Y35350D01*
X55850Y37100D02*Y35350D01*
X59850Y37100D02*Y35350D01*
X59050Y37100D02*Y35350D01*
X58250Y37100D02*Y35350D01*
Y41750D02*Y40000D01*
X57450Y41750D02*Y40000D01*
X56650Y41750D02*Y40000D01*
X55850Y41750D02*Y40000D01*
X63850Y41750D02*Y40000D01*
X63050Y41750D02*Y40000D01*
X62250Y41750D02*Y40000D01*
X63850Y37100D02*Y35350D01*
X63050Y37100D02*Y35350D01*
X61450Y41750D02*Y40000D01*
X62250Y37100D02*Y35350D01*
X61450Y37100D02*Y35350D01*
X55050Y37100D02*Y35350D01*
X54250Y37100D02*Y35350D01*
X53450Y37100D02*Y35350D01*
X52650Y41750D02*Y40000D01*
X51850Y41750D02*Y40000D01*
X51050Y41750D02*Y40000D01*
X55050Y41750D02*Y40000D01*
X54250Y41750D02*Y40000D01*
X53450Y41750D02*Y40000D01*
X52650Y37100D02*Y35350D01*
X51850Y37100D02*Y35350D01*
X51050Y37100D02*Y35350D01*
X50250Y41750D02*Y40000D01*
X49450Y41750D02*Y40000D01*
X48650Y41750D02*Y40000D01*
X47850Y41750D02*Y40000D01*
X47050Y41750D02*Y40000D01*
X42250Y41750D02*Y40000D01*
X41450Y41750D02*Y40000D01*
X40650Y41750D02*Y40000D01*
X46250Y41750D02*Y40000D01*
X45450Y41750D02*Y40000D01*
X44650Y41750D02*Y40000D01*
X43850Y41750D02*Y40000D01*
X43050Y41750D02*Y40000D01*
G54D45*X75000Y6850D02*Y5250D01*
Y2750D02*Y1150D01*
X71000Y6850D02*Y5250D01*
Y2750D02*Y1150D01*
X69000Y2750D02*Y1150D01*
X67000Y2750D02*Y1150D01*
X73000Y6850D02*Y5250D01*
Y2750D02*Y1150D01*
X69000Y6850D02*Y5250D01*
X67000Y6850D02*Y5250D01*
X65000Y2750D02*Y1150D01*
X63000Y2750D02*Y1150D01*
Y6850D02*Y5250D01*
X65000Y6850D02*Y5250D01*
X61000Y6850D02*Y5250D01*
Y2750D02*Y1150D01*
X59000Y2750D02*Y1150D01*
X55000Y2750D02*Y1150D01*
X53000Y2750D02*Y1150D01*
X59000Y6850D02*Y5250D01*
X57000Y6850D02*Y5250D01*
Y2750D02*Y1150D01*
X55000Y6850D02*Y5250D01*
X53000Y6850D02*Y5250D01*
X51000Y6850D02*Y5250D01*
X49000Y2750D02*Y1150D01*
X51000Y2750D02*Y1150D01*
X47000Y2750D02*Y1150D01*
X45000Y2750D02*Y1150D01*
X49000Y6850D02*Y5250D01*
X47000Y6850D02*Y5250D01*
X45000Y6850D02*Y5250D01*
X43000Y2750D02*Y1150D01*
X41000Y2750D02*Y1150D01*
X43000Y6850D02*Y5250D01*
X41000Y6850D02*Y5250D01*
X39000Y6850D02*Y5250D01*
X37000Y6850D02*Y5250D01*
X39000Y2750D02*Y1150D01*
X37000Y2750D02*Y1150D01*
G54D46*X4000Y4000D03*
G54D47*X5580Y7170D03*
X7990Y3810D03*
X6220Y9340D03*
X4920Y9350D03*
X24830Y1280D03*
X23530Y1870D03*
X24180Y3850D03*
X22860Y4660D03*
G54D48*X23520Y7080D03*
G54D47*X26780Y9450D03*
G54D48*X15460Y14450D03*
G54D47*X8850Y14950D03*
G54D48*X18970Y16750D03*
X17450Y10980D03*
X17630Y9690D03*
X18960Y20130D03*
X28390D03*
X26680Y19070D03*
X24470Y17920D03*
G54D46*X81000Y4000D03*
G54D47*X75010Y2890D03*
X73000D03*
X36980Y5110D03*
X39000D03*
X41000D03*
X42990D03*
X44990D03*
X64990D03*
X66990Y5120D03*
X69000Y5110D03*
X71000D03*
X73000Y5120D03*
X75010Y5110D03*
G54D48*X46700Y17950D03*
X47450Y17050D03*
X51940Y17740D03*
X51990Y12760D03*
X48260Y10330D03*
X49420Y10230D03*
X62420Y17740D03*
G54D47*X46990Y5110D03*
X49000D03*
X50990D03*
X53010D03*
X55000D03*
X56990D03*
X58990D03*
G54D48*X56670Y10360D03*
X54900Y11380D03*
G54D47*X60990Y5110D03*
X63000D03*
X70990Y2880D03*
X69010Y2890D03*
X67000D03*
X64990Y2880D03*
X63000D03*
X55340Y3760D03*
X56920D03*
X61010Y2890D03*
X59000D03*
X57000D03*
X54990Y2880D03*
X53000D03*
X51000D03*
X49000D03*
X47010D03*
X45000Y2890D03*
X43010Y2880D03*
X41020D03*
X38980D03*
X36990Y2890D03*
G54D46*X4000Y35500D03*
X81000D03*
G54D47*X40600Y39400D03*
Y37700D03*
X42200D03*
X41500Y39400D03*
X43000D03*
X43900D03*
X43100Y37700D03*
X44600D03*
X45500D03*
X47000D03*
X56700D03*
X58200D03*
X59100D03*
X60600D03*
X61500D03*
X63000D03*
X63900D03*
X45400Y39400D03*
X46300D03*
X47800D03*
X48700D03*
X50200D03*
X51100D03*
X52600D03*
X53500D03*
X55000D03*
X55900D03*
X57400D03*
X58300D03*
X59700D03*
X60700D03*
X61500Y39000D03*
X62300Y39400D03*
X63100Y39000D03*
X63900Y39400D03*
X47900Y37700D03*
G54D48*X48720Y23110D03*
X49690Y22190D03*
X47720Y21500D03*
X45930Y21210D03*
X45910Y23650D03*
G54D47*X49400Y37700D03*
X50300D03*
X51100Y38200D03*
X51900Y37700D03*
X53400D03*
X54300D03*
X55800D03*
G54D48*X54950Y23770D03*
X53910Y29800D03*
X29500Y25390D03*
X30710Y26300D03*
X36500Y17810D03*
X28580Y26210D03*
G54D47*X28780Y27400D03*
G54D48*X30270Y30650D03*
X25970Y31620D03*
G54D47*X27230Y29220D03*
X28780D03*
X27240Y27400D03*
G54D48*X23560Y25650D03*
G54D49*G54D50*G54D51*G54D50*G54D51*G54D50*G54D51*G54D49*G54D50*G54D51*G54D50*G54D51*G54D50*G54D49*G54D50*G54D51*G54D50*G54D51*G54D50*G54D51*G54D50*G54D51*G54D52*G54D53*G54D54*G54D53*G54D55*G54D53*M02*
