G04 start of page 6 for group -4063 idx -4063 *
G04 Title: 96Boards CE I2S Mezzanine, componentmask *
G04 Creator: pcb 20140316 *
G04 CreationDate: Mon 17 Sep 2018 12:34:06 PM GMT UTC *
G04 For: adam *
G04 Format: Gerber/RS-274X *
G04 PCB-Dimensions (mm): 85.00 54.00 *
G04 PCB-Coordinate-Origin: lower left *
%MOMM*%
%FSLAX43Y43*%
%LNTOPMASK*%
%ADD87R,1.050X1.050*%
%ADD86R,1.016X1.016*%
%ADD85R,0.562X0.562*%
%ADD84R,1.150X1.150*%
%ADD83R,0.320X0.320*%
%ADD82R,0.302X0.302*%
%ADD81R,0.550X0.550*%
%ADD80R,0.350X0.350*%
%ADD79R,0.352X0.352*%
%ADD78C,1.524*%
%ADD77C,1.074*%
%ADD76R,0.384X0.384*%
%ADD75R,1.452X1.452*%
%ADD74R,2.058X2.058*%
%ADD73R,2.258X2.258*%
%ADD72R,1.658X1.658*%
%ADD71C,5.030*%
%ADD70C,1.676*%
%ADD69C,0.002*%
%ADD68C,1.200*%
%ADD67C,1.754*%
%ADD66C,0.800*%
G54D66*X66350Y38550D03*
D03*
G54D67*X73500Y16500D03*
Y27300D03*
G54D68*X38150Y38550D03*
D03*
G54D67*X20950Y42500D03*
Y49500D03*
X31850Y42500D03*
Y49500D03*
X80500Y16500D03*
G54D69*G36*
X39562Y9938D02*Y8262D01*
X41238D01*
Y9938D01*
X39562D01*
G37*
G54D70*X37860Y9100D03*
X35320D03*
G54D67*X80500Y27300D03*
X11500Y27600D03*
X4500D03*
X74900Y42500D03*
X10000D03*
X74900Y49500D03*
X10000D03*
G54D71*X4000Y4000D03*
X81000D03*
X4000Y35500D03*
X81000D03*
G54D69*G36*
X15571Y42629D02*Y39771D01*
X18429D01*
Y42629D01*
X15571D01*
G37*
G54D72*X16650Y53200D02*X17350D01*
G54D73*X16950Y50600D02*X17050D01*
X24850Y48700D02*X24950D01*
G54D74*X24750Y51500D02*X25050D01*
G54D75*X25050Y44450D02*X25250D01*
X25050Y46250D02*X25250D01*
G54D69*G36*
X26471Y42629D02*Y39771D01*
X29329D01*
Y42629D01*
X26471D01*
G37*
G54D73*X35750Y48700D02*X35850D01*
X27850Y50600D02*X27950D01*
X13900Y48700D02*X14000D01*
G54D69*G36*
X20271Y38629D02*Y35771D01*
X23129D01*
Y38629D01*
X20271D01*
G37*
G54D75*X16760Y36750D02*X16960D01*
X16760Y38550D02*X16960D01*
G54D69*G36*
X31171Y38629D02*Y35771D01*
X34029D01*
Y38629D01*
X31171D01*
G37*
G36*
X9321D02*Y35771D01*
X12179D01*
Y38629D01*
X9321D01*
G37*
G54D75*X25440Y21470D02*Y21270D01*
Y23520D02*Y23320D01*
X26740Y14930D02*X26940D01*
X26740Y16730D02*X26940D01*
X24670Y14930D02*X24870D01*
X24670Y16730D02*X24870D01*
X23640Y21470D02*Y21270D01*
Y23520D02*Y23320D01*
X21740Y26960D02*Y26760D01*
X21750Y29500D02*Y29300D01*
X23540Y26960D02*Y26760D01*
X23550Y29500D02*Y29300D01*
G54D76*X25165Y29300D02*X26335D01*
X25165Y28650D02*X26335D01*
X25165Y28000D02*X26335D01*
X25165Y27350D02*X26335D01*
G54D75*X25630Y25740D02*Y25540D01*
X27430Y25740D02*Y25540D01*
G54D77*X27230Y29270D02*Y27410D01*
X28770D01*
Y29260D02*Y27410D01*
X27240Y29260D02*X28770D01*
G54D78*X27970Y28860D02*Y28040D01*
G54D69*G36*
X15371Y29779D02*Y26921D01*
X18229D01*
Y29779D01*
X15371D01*
G37*
G36*
X11371Y25079D02*Y22221D01*
X14229D01*
Y25079D01*
X11371D01*
G37*
G54D73*X5300Y31600D02*Y31500D01*
G54D75*X9400Y33900D02*Y33700D01*
X7600Y33900D02*Y33700D01*
X9400Y31800D02*Y31600D01*
X7600Y31800D02*Y31600D01*
G54D69*G36*
X4621Y42629D02*Y39771D01*
X7479D01*
Y42629D01*
X4621D01*
G37*
G54D73*X6000Y50600D02*X6100D01*
G54D79*X10125Y14450D02*Y13450D01*
X9475Y14450D02*Y13450D01*
X8825Y14450D02*Y13450D01*
X8175Y14450D02*Y13450D01*
X7525Y14450D02*Y13450D01*
X6875Y14450D02*Y13450D01*
X6225Y14450D02*Y13450D01*
X5575Y14450D02*Y13450D01*
X4925Y14450D02*Y13450D01*
G54D75*X3760Y16390D02*Y16190D01*
G54D73*X3400Y23700D02*Y23600D01*
G54D75*X9040Y20300D02*X9240D01*
X11920Y17420D02*Y17220D01*
X10120Y17420D02*Y17220D01*
X8030Y16670D02*X8230D01*
X8030Y18470D02*X8230D01*
X9040Y22100D02*X9240D01*
X7000Y20300D02*X7200D01*
X7000Y22100D02*X7200D01*
G54D79*X4275Y14450D02*Y13450D01*
X3625Y14450D02*Y13450D01*
X2975Y14450D02*Y13450D01*
X2325Y14450D02*Y13450D01*
X1675Y14450D02*Y13450D01*
Y8850D02*Y7850D01*
X2325Y8850D02*Y7850D01*
X2975Y8850D02*Y7850D01*
X3625Y8850D02*Y7850D01*
G54D75*X1960Y16390D02*Y16190D01*
G54D79*X4275Y8850D02*Y7850D01*
X4925Y8850D02*Y7850D01*
X5575Y8850D02*Y7850D01*
X6225Y8850D02*Y7850D01*
X6875Y8850D02*Y7850D01*
X7525Y8850D02*Y7850D01*
X8175Y8850D02*Y7850D01*
X8825Y8850D02*Y7850D01*
X9475Y8850D02*Y7850D01*
X10125Y8850D02*Y7850D01*
G54D75*X13900Y7150D02*X14100D01*
X11850Y7140D02*X12050D01*
X11850Y8940D02*X12050D01*
X13900Y8950D02*X14100D01*
X13870Y12660D02*X14070D01*
X11850Y12640D02*X12050D01*
X13870Y14460D02*X14070D01*
X11850Y14440D02*X12050D01*
X20280Y14920D02*X20480D01*
X20280Y16720D02*X20480D01*
X22350Y14920D02*X22550D01*
X22350Y16720D02*X22550D01*
X21720Y11250D02*Y11050D01*
X19920Y11250D02*Y11050D01*
G54D79*X28075Y8950D02*Y7950D01*
G54D75*X29880Y12120D02*Y11920D01*
X28080Y12120D02*Y11920D01*
X34230Y16470D02*Y16270D01*
X32430Y16470D02*Y16270D01*
G54D79*X27425Y8950D02*Y7950D01*
G54D75*X32370Y7200D02*X32570D01*
X32370Y9000D02*X32570D01*
X30340Y7200D02*X30540D01*
X30340Y9000D02*X30540D01*
G54D79*X26775Y8950D02*Y7950D01*
G54D75*X25960Y11250D02*X26160D01*
X25960Y13050D02*X26160D01*
G54D79*X26125Y8950D02*Y7950D01*
X25475Y8950D02*Y7950D01*
X24825Y8950D02*Y7950D01*
X24175Y8950D02*Y7950D01*
X23525Y8950D02*Y7950D01*
X22875Y8950D02*Y7950D01*
X22225Y8950D02*Y7950D01*
X21575Y8950D02*Y7950D01*
X20925Y8950D02*Y7950D01*
X20275Y8950D02*Y7950D01*
X19625Y8950D02*Y7950D01*
Y3350D02*Y2350D01*
X20275Y3350D02*Y2350D01*
X20925Y3350D02*Y2350D01*
X21575Y3350D02*Y2350D01*
X22225Y3350D02*Y2350D01*
X22875Y3350D02*Y2350D01*
X23525Y3350D02*Y2350D01*
X24175Y3350D02*Y2350D01*
X24825Y3350D02*Y2350D01*
X25475Y3350D02*Y2350D01*
X26125Y3350D02*Y2350D01*
X26775Y3350D02*Y2350D01*
X27425Y3350D02*Y2350D01*
G54D80*X28075Y3350D02*Y2350D01*
G54D75*X32380Y1560D02*X32580D01*
X32380Y3360D02*X32580D01*
X30350Y1560D02*X30550D01*
X30350Y3360D02*X30550D01*
G54D81*X52650Y37100D02*Y35350D01*
X51850Y37100D02*Y35350D01*
X51050Y37100D02*Y35350D01*
X50250Y37100D02*Y35350D01*
X47050Y37100D02*Y35350D01*
X46250Y37100D02*Y35350D01*
X45450Y37100D02*Y35350D01*
X42250Y37100D02*Y35350D01*
X41450Y37100D02*Y35350D01*
X40650Y37100D02*Y35350D01*
X49450Y37100D02*Y35350D01*
X48650Y37100D02*Y35350D01*
X47850Y37100D02*Y35350D01*
X44650Y37100D02*Y35350D01*
X43850Y37100D02*Y35350D01*
X43050Y37100D02*Y35350D01*
G54D82*X52950Y25365D02*Y24335D01*
X52450Y25365D02*Y24335D01*
X51950Y25365D02*Y24335D01*
X51450Y25365D02*Y24335D01*
X50950Y25365D02*Y24335D01*
X50450Y25365D02*Y24335D01*
X49950Y25365D02*Y24335D01*
X49450Y25365D02*Y24335D01*
G54D75*X51270Y29740D02*X51470D01*
X51270Y27940D02*X51470D01*
G54D82*X48950Y25365D02*Y24335D01*
Y19765D02*Y18735D01*
X48450Y25365D02*Y24335D01*
Y19765D02*Y18735D01*
X47950Y25365D02*Y24335D01*
X47450Y25365D02*Y24335D01*
X46950Y25365D02*Y24335D01*
Y19765D02*Y18735D01*
X47450Y19765D02*Y18735D01*
X47950Y19765D02*Y18735D01*
X49450Y19765D02*Y18735D01*
X49950Y19765D02*Y18735D01*
G54D83*X50450Y19765D02*Y18735D01*
G54D82*X50950Y19765D02*Y18735D01*
X51450Y19765D02*Y18735D01*
X51950Y19765D02*Y18735D01*
X52450Y19765D02*Y18735D01*
X52950Y19765D02*Y18735D01*
G54D75*X43030Y24110D02*Y23910D01*
X43040Y21530D02*Y21330D01*
X44830Y26170D02*Y25970D01*
X43030Y26170D02*Y25970D01*
G54D84*X48670Y28060D02*X48870D01*
X46370D02*X46570D01*
X48670Y29860D02*X48870D01*
X46370D02*X46570D01*
G54D75*X46730Y31800D02*Y31600D01*
X48530Y31800D02*Y31600D01*
X44420Y29840D02*X44620D01*
X44420Y28040D02*X44620D01*
X44830Y24110D02*Y23910D01*
X44840Y21530D02*Y21330D01*
G54D81*X60650Y37100D02*Y35350D01*
Y41750D02*Y40000D01*
X59850Y41750D02*Y40000D01*
X59050Y41750D02*Y40000D01*
X57450Y37100D02*Y35350D01*
X56650Y37100D02*Y35350D01*
X55850Y37100D02*Y35350D01*
X59850Y37100D02*Y35350D01*
X59050Y37100D02*Y35350D01*
X58250Y37100D02*Y35350D01*
X63850Y41750D02*Y40000D01*
X63050Y41750D02*Y40000D01*
X62250Y41750D02*Y40000D01*
X63850Y37100D02*Y35350D01*
X63050Y37100D02*Y35350D01*
X61450Y41750D02*Y40000D01*
X62250Y37100D02*Y35350D01*
X61450Y37100D02*Y35350D01*
G54D69*G36*
X74221Y38629D02*Y35771D01*
X77079D01*
Y38629D01*
X74221D01*
G37*
G54D73*X78800Y48700D02*X78900D01*
G54D75*X81230Y46410D02*X81430D01*
X81230Y44610D02*X81430D01*
X79150Y44600D02*X79350D01*
X79150Y46400D02*X79350D01*
G54D69*G36*
X69521Y42629D02*Y39771D01*
X72379D01*
Y42629D01*
X69521D01*
G37*
G54D73*X70900Y50600D02*X71000D01*
G54D75*X70660Y37390D02*X70860D01*
X70660Y35590D02*X70860D01*
X72750D02*X72950D01*
X72750Y37390D02*X72950D01*
G54D81*X58250Y41750D02*Y40000D01*
X57450Y41750D02*Y40000D01*
X56650Y41750D02*Y40000D01*
X55850Y41750D02*Y40000D01*
X55050Y37100D02*Y35350D01*
X54250Y37100D02*Y35350D01*
X53450Y37100D02*Y35350D01*
X52650Y41750D02*Y40000D01*
X51850Y41750D02*Y40000D01*
X51050Y41750D02*Y40000D01*
X55050Y41750D02*Y40000D01*
X54250Y41750D02*Y40000D01*
X53450Y41750D02*Y40000D01*
X50250Y41750D02*Y40000D01*
X49450Y41750D02*Y40000D01*
X48650Y41750D02*Y40000D01*
X47850Y41750D02*Y40000D01*
X47050Y41750D02*Y40000D01*
X42250Y41750D02*Y40000D01*
X41450Y41750D02*Y40000D01*
X40650Y41750D02*Y40000D01*
X46250Y41750D02*Y40000D01*
X45450Y41750D02*Y40000D01*
X44650Y41750D02*Y40000D01*
X43850Y41750D02*Y40000D01*
X43050Y41750D02*Y40000D01*
G54D75*X66600Y21870D02*Y21670D01*
Y31500D02*Y31300D01*
Y29370D02*Y29170D01*
G54D69*G36*
X66771Y17179D02*Y14321D01*
X69629D01*
Y17179D01*
X66771D01*
G37*
G36*
X70771Y21879D02*Y19021D01*
X73629D01*
Y21879D01*
X70771D01*
G37*
G54D75*X63640Y19610D02*Y19410D01*
X65440Y19610D02*Y19410D01*
X63650Y17540D02*Y17340D01*
X65450Y17540D02*Y17340D01*
G54D73*X81600Y20500D02*Y20400D01*
X79700Y23400D02*Y23300D01*
G54D69*G36*
X70771Y32679D02*Y29821D01*
X73629D01*
Y32679D01*
X70771D01*
G37*
G54D75*X66620Y23910D02*Y23710D01*
X68400Y21870D02*Y21670D01*
Y31500D02*Y31300D01*
G54D69*G36*
X66771Y27979D02*Y25121D01*
X69629D01*
Y27979D01*
X66771D01*
G37*
G54D75*X68400Y29370D02*Y29170D01*
X68420Y23910D02*Y23710D01*
G54D73*X81600Y31300D02*Y31200D01*
G54D75*X75350Y10200D02*Y10000D01*
X77150Y10200D02*Y10000D01*
G54D73*X79700Y12600D02*Y12500D01*
G54D75*X75350Y12250D02*Y12050D01*
X77150Y12250D02*Y12050D01*
X28400Y21470D02*Y21270D01*
X30200Y21470D02*Y21270D01*
G54D85*X35851Y16875D02*X37502D01*
X35851Y15605D02*X37502D01*
X35851Y14335D02*X37502D01*
X35851Y13065D02*X37502D01*
G54D76*X29665Y27350D02*X30835D01*
X29665Y28000D02*X30835D01*
X29665Y28650D02*X30835D01*
X29665Y29300D02*X30835D01*
G54D75*X34200Y27500D02*Y27300D01*
X34040Y29990D02*Y29790D01*
X32240Y29990D02*Y29790D01*
X34190Y25460D02*Y25260D01*
X32390Y25460D02*Y25260D01*
X32400Y27500D02*Y27300D01*
X30200Y23520D02*Y23320D01*
X28400Y23520D02*Y23320D01*
X43030Y19480D02*Y19280D01*
G54D85*X41058Y13065D02*X42709D01*
X41058Y14335D02*X42709D01*
X41058Y15605D02*X42709D01*
X41058Y16875D02*X42709D01*
G54D86*X44940Y8676D02*Y8524D01*
X46921Y8676D02*Y8524D01*
X45931Y10759D02*Y10607D01*
G54D75*X42920Y8970D02*X43120D01*
X42920Y10770D02*X43120D01*
X44830Y19480D02*Y19280D01*
X44610Y13040D02*Y12840D01*
X46410Y13040D02*Y12840D01*
X44530Y16850D02*X44730D01*
X44530Y15050D02*X44730D01*
X56790Y28110D02*Y27910D01*
X56800Y30230D02*Y30030D01*
X54990Y28110D02*Y27910D01*
X55000Y30230D02*Y30030D01*
X57850Y26010D02*Y25810D01*
X56050Y26010D02*Y25810D01*
X57860Y23920D02*Y23720D01*
X56060Y23920D02*Y23720D01*
G54D82*X53950Y25365D02*Y24335D01*
X53450Y25365D02*Y24335D01*
Y19765D02*Y18735D01*
X53950Y19765D02*Y18735D01*
G54D87*X75000Y2750D02*Y1150D01*
X73000Y6850D02*Y5250D01*
X71000Y2750D02*Y1150D01*
Y6850D02*Y5250D01*
X69000Y2750D02*Y1150D01*
X67000Y2750D02*Y1150D01*
X75000Y6850D02*Y5250D01*
X73000Y2750D02*Y1150D01*
X69000Y6850D02*Y5250D01*
X67000Y6850D02*Y5250D01*
X65000Y2750D02*Y1150D01*
X63000Y2750D02*Y1150D01*
Y6850D02*Y5250D01*
X65000Y6850D02*Y5250D01*
X61000Y6850D02*Y5250D01*
Y2750D02*Y1150D01*
X59000Y2750D02*Y1150D01*
X57000Y2750D02*Y1150D01*
X55000Y2750D02*Y1150D01*
X53000Y2750D02*Y1150D01*
X59000Y6850D02*Y5250D01*
X57000Y6850D02*Y5250D01*
X55000Y6850D02*Y5250D01*
X53000Y6850D02*Y5250D01*
X51000Y6850D02*Y5250D01*
X49000Y2750D02*Y1150D01*
Y6850D02*Y5250D01*
X51000Y2750D02*Y1150D01*
X47000Y2750D02*Y1150D01*
X45000Y2750D02*Y1150D01*
X47000Y6850D02*Y5250D01*
X45000Y6850D02*Y5250D01*
X43000Y2750D02*Y1150D01*
Y6850D02*Y5250D01*
X41000Y2750D02*Y1150D01*
Y6850D02*Y5250D01*
X39000Y6850D02*Y5250D01*
X37000Y6850D02*Y5250D01*
X39000Y2750D02*Y1150D01*
X37000Y2750D02*Y1150D01*
M02*
