M48
METRIC,000.000
T62C0.889
T61C0.508
T60C0.300
T59C2.500
T58C0.965
%
T60
X004920Y009350
X005580Y007170
X006220Y009340
X007990Y003810
X008850Y014950
X022860Y004660
X023530Y001870
X024180Y003850
X024830Y001280
X026780Y009450
X036980Y005110
X036990Y002890
X038980Y002880
X039000Y005110
X040600Y039400
X040600Y037700
X041000Y005110
X041020Y002880
X041500Y039400
X042200Y037700
X042990Y005110
X043000Y039400
X043010Y002880
X043100Y037700
X043900Y039400
X044600Y037700
X044990Y005110
X045000Y002890
X045400Y039400
X045500Y037700
X046300Y039400
X046990Y005110
X047000Y037700
X047010Y002880
X047800Y039400
X047900Y037700
X048700Y039400
X049000Y005110
X049000Y002880
X049400Y037700
X050200Y039400
X050300Y037700
X050990Y005110
X051000Y002880
X051100Y039400
X051100Y038200
X051900Y037700
X052600Y039400
X053000Y002880
X053010Y005110
X053400Y037700
X053500Y039400
X054300Y037700
X054990Y002880
X055000Y039400
X055000Y005110
X055340Y003760
X055800Y037700
X055900Y039400
X056700Y037700
X056920Y003760
X056990Y005110
X057000Y002890
X057400Y039400
X058200Y037700
X058300Y039400
X058990Y005110
X059000Y002890
X059100Y037700
X059700Y039400
X060600Y037700
X060700Y039400
X060990Y005110
X061010Y002890
X061500Y039000
X061500Y037700
X062300Y039400
X063000Y037700
X063000Y005110
X063000Y002880
X063100Y039000
X063900Y039400
X063900Y037700
X064990Y005110
X064990Y002880
X066990Y005120
X067000Y002890
X069000Y005110
X069010Y002890
X070990Y002880
X071000Y005110
X073000Y005120
X073000Y002890
X075010Y005110
X075010Y002890
T61
X015460Y014450
X017450Y010980
X017630Y009690
X018960Y020130
X018970Y016750
X023520Y007080
X023560Y025650
X024470Y017920
X025970Y031620
X026680Y019070
X028390Y020130
X028580Y026210
X029500Y025390
X030270Y030650
X030710Y026300
X036500Y017810
X045910Y023650
X045930Y021210
X046700Y017950
X047450Y017050
X047720Y021500
X048260Y010330
X048720Y023110
X049420Y010230
X049690Y022190
X051940Y017740
X051990Y012760
X053910Y029800
X054900Y011380
X054950Y023770
X056670Y010360
X062420Y017740
T62
X028000Y028310
T58
X035320Y009100
X037860Y009100
X040400Y009100
T59
X004000Y035500
X004000Y004000
X081000Y035500
X081000Y004000
M30
