G04 start of page 12 for group -3984 idx -3984 *
G04 Title: 96Boards CE Through Hole LS, fab *
G04 Creator: pcb 20140316 *
G04 CreationDate: Fri 27 Jul 2018 05:17:59 PM GMT UTC *
G04 For: adam *
G04 Format: Gerber/RS-274X *
G04 PCB-Dimensions (mm): 85.00 54.00 *
G04 PCB-Coordinate-Origin: lower left *
%MOMM*%
%FSLAX43Y43*%
%LNFAB*%
%ADD125C,0.254*%
%ADD124C,0.191*%
%ADD123C,0.152*%
%ADD122R,0.203X0.203*%
G54D122*X4000Y36313D02*Y34687D01*
X3187Y35500D02*X4813D01*
X3594Y35906D02*X4406D01*
X3594D02*Y35094D01*
X4406D01*
Y35906D02*Y35094D01*
X4000Y4813D02*Y3187D01*
X3187Y4000D02*X4813D01*
X3594Y4406D02*X4406D01*
X3594D02*Y3594D01*
X4406D01*
Y4406D02*Y3594D01*
X81000Y4813D02*Y3187D01*
X80187Y4000D02*X81813D01*
X80594Y4406D02*X81406D01*
X80594D02*Y3594D01*
X81406D01*
Y4406D02*Y3594D01*
X81000Y36313D02*Y34687D01*
X80187Y35500D02*X81813D01*
X80594Y35906D02*X81406D01*
X80594D02*Y35094D01*
X81406D01*
Y35906D02*Y35094D01*
X3810Y57670D02*Y56045D01*
X2997Y56858D02*X4623D01*
X3404Y57264D02*X4216D01*
X3404D02*Y56451D01*
X4216D01*
Y57264D02*Y56451D01*
G54D123*X34290Y57429D02*X34671Y56667D01*
X35052Y57429D01*
X34671Y56667D02*Y55905D01*
X35509Y56743D02*X36081D01*
X35509Y55905D02*X36271D01*
X35509Y57429D02*Y55905D01*
Y57429D02*X36271D01*
X37490D02*X37681Y57238D01*
X36919Y57429D02*X37490D01*
X36728Y57238D02*X36919Y57429D01*
X36728Y57238D02*Y56858D01*
X36919Y56667D01*
X37490D01*
X37681Y56476D01*
Y56096D01*
X37490Y55905D02*X37681Y56096D01*
X36919Y55905D02*X37490D01*
X36728Y56096D02*X36919Y55905D01*
X24892Y56476D02*X25654Y57429D01*
X24892Y56476D02*X25844D01*
X25654Y57429D02*Y55905D01*
X11430Y56096D02*X11620Y55905D01*
X11430Y57238D02*Y56096D01*
Y57238D02*X11620Y57429D01*
X12002D01*
X12192Y57238D01*
Y56096D01*
X12002Y55905D02*X12192Y56096D01*
X11620Y55905D02*X12002D01*
X11430Y56286D02*X12192Y57048D01*
X12649Y55905D02*X12840D01*
X13297Y56096D02*X13487Y55905D01*
X13297Y57238D02*Y56096D01*
Y57238D02*X13487Y57429D01*
X13868D01*
X14059Y57238D01*
Y56096D01*
X13868Y55905D02*X14059Y56096D01*
X13487Y55905D02*X13868D01*
X13297Y56286D02*X14059Y57048D01*
X14707Y55905D02*X15278Y56667D01*
Y57238D02*Y56667D01*
X15088Y57429D02*X15278Y57238D01*
X14707Y57429D02*X15088D01*
X14516Y57238D02*X14707Y57429D01*
X14516Y57238D02*Y56858D01*
X14707Y56667D01*
X15278D01*
X15926Y55905D02*X16497Y56667D01*
Y57238D02*Y56667D01*
X16307Y57429D02*X16497Y57238D01*
X15926Y57429D02*X16307D01*
X15735Y57238D02*X15926Y57429D01*
X15735Y57238D02*Y56858D01*
X15926Y56667D01*
X16497D01*
X20950Y42250D02*Y41437D01*
Y42250D02*X21654Y42656D01*
X20950Y42250D02*X20246Y42656D01*
X20544Y42250D02*G75*G03X21356Y42250I406J0D01*G01*
G75*G03X20544Y42250I-406J0D01*G01*
X20950Y49250D02*Y48437D01*
Y49250D02*X21654Y49656D01*
X20950Y49250D02*X20246Y49656D01*
X20544Y49250D02*G75*G03X21356Y49250I406J0D01*G01*
G75*G03X20544Y49250I-406J0D01*G01*
X73500Y16500D02*Y15687D01*
Y16500D02*X74204Y16906D01*
X73500Y16500D02*X72796Y16906D01*
X73094Y16500D02*G75*G03X73906Y16500I406J0D01*G01*
G75*G03X73094Y16500I-406J0D01*G01*
X80500D02*Y15687D01*
Y16500D02*X81204Y16906D01*
X80500Y16500D02*X79796Y16906D01*
X80094Y16500D02*G75*G03X80906Y16500I406J0D01*G01*
G75*G03X80094Y16500I-406J0D01*G01*
X73500Y27300D02*Y26487D01*
Y27300D02*X74204Y27706D01*
X73500Y27300D02*X72796Y27706D01*
X73094Y27300D02*G75*G03X73906Y27300I406J0D01*G01*
G75*G03X73094Y27300I-406J0D01*G01*
X80500D02*Y26487D01*
Y27300D02*X81204Y27706D01*
X80500Y27300D02*X79796Y27706D01*
X80094Y27300D02*G75*G03X80906Y27300I406J0D01*G01*
G75*G03X80094Y27300I-406J0D01*G01*
X74900Y42500D02*Y41687D01*
Y42500D02*X75604Y42906D01*
X74900Y42500D02*X74196Y42906D01*
X74494Y42500D02*G75*G03X75306Y42500I406J0D01*G01*
G75*G03X74494Y42500I-406J0D01*G01*
X74900Y49500D02*Y48687D01*
Y49500D02*X75604Y49906D01*
X74900Y49500D02*X74196Y49906D01*
X74494Y49500D02*G75*G03X75306Y49500I406J0D01*G01*
G75*G03X74494Y49500I-406J0D01*G01*
X31850Y42500D02*Y41687D01*
Y42500D02*X32554Y42906D01*
X31850Y42500D02*X31146Y42906D01*
X31444Y42500D02*G75*G03X32256Y42500I406J0D01*G01*
G75*G03X31444Y42500I-406J0D01*G01*
X31850Y49500D02*Y48687D01*
Y49500D02*X32554Y49906D01*
X31850Y49500D02*X31146Y49906D01*
X31444Y49500D02*G75*G03X32256Y49500I406J0D01*G01*
G75*G03X31444Y49500I-406J0D01*G01*
X11500Y27600D02*Y26787D01*
Y27600D02*X12204Y28006D01*
X11500Y27600D02*X10796Y28006D01*
X11094Y27600D02*G75*G03X11906Y27600I406J0D01*G01*
G75*G03X11094Y27600I-406J0D01*G01*
X4500D02*Y26787D01*
Y27600D02*X5204Y28006D01*
X4500Y27600D02*X3796Y28006D01*
X4094Y27600D02*G75*G03X4906Y27600I406J0D01*G01*
G75*G03X4094Y27600I-406J0D01*G01*
X10000Y42500D02*Y41687D01*
Y42500D02*X10704Y42906D01*
X10000Y42500D02*X9296Y42906D01*
X9594Y42500D02*G75*G03X10406Y42500I406J0D01*G01*
G75*G03X9594Y42500I-406J0D01*G01*
X10000Y49500D02*Y48687D01*
Y49500D02*X10704Y49906D01*
X10000Y49500D02*X9296Y49906D01*
X9594Y49500D02*G75*G03X10406Y49500I406J0D01*G01*
G75*G03X9594Y49500I-406J0D01*G01*
X3810Y60668D02*Y59855D01*
Y60668D02*X4514Y61074D01*
X3810Y60668D02*X3106Y61074D01*
X3404Y60668D02*G75*G03X4216Y60668I406J0D01*G01*
G75*G03X3404Y60668I-406J0D01*G01*
X35560Y61239D02*Y59715D01*
Y61239D02*X36512Y59715D01*
Y61239D02*Y59715D01*
X36970Y61048D02*Y59906D01*
Y61048D02*X37160Y61239D01*
X37541D01*
X37732Y61048D01*
Y59906D01*
X37541Y59715D02*X37732Y59906D01*
X37160Y59715D02*X37541D01*
X36970Y59906D02*X37160Y59715D01*
X24892Y60934D02*X25197Y61239D01*
Y59715D01*
X24892D02*X25464D01*
X25921Y60286D02*X26683Y61239D01*
X25921Y60286D02*X26873D01*
X26683Y61239D02*Y59715D01*
X11430Y59906D02*X11620Y59715D01*
X11430Y61048D02*Y59906D01*
Y61048D02*X11620Y61239D01*
X12002D01*
X12192Y61048D01*
Y59906D01*
X12002Y59715D02*X12192Y59906D01*
X11620Y59715D02*X12002D01*
X11430Y60096D02*X12192Y60858D01*
X12649Y59715D02*X12840D01*
X13297Y59906D02*X13487Y59715D01*
X13297Y61048D02*Y59906D01*
Y61048D02*X13487Y61239D01*
X13868D01*
X14059Y61048D01*
Y59906D01*
X13868Y59715D02*X14059Y59906D01*
X13487Y59715D02*X13868D01*
X13297Y60096D02*X14059Y60858D01*
X14516Y61239D02*X15278D01*
X14516D02*Y60477D01*
X14707Y60668D01*
X15088D01*
X15278Y60477D01*
Y59906D01*
X15088Y59715D02*X15278Y59906D01*
X14707Y59715D02*X15088D01*
X14516Y59906D02*X14707Y59715D01*
X15926D02*X16497Y60477D01*
Y61048D02*Y60477D01*
X16307Y61239D02*X16497Y61048D01*
X15926Y61239D02*X16307D01*
X15735Y61048D02*X15926Y61239D01*
X15735Y61048D02*Y60668D01*
X15926Y60477D01*
X16497D01*
X37744Y38956D02*X38556D01*
X37744D02*Y38144D01*
X38556D01*
Y38956D02*Y38144D01*
X37744Y38956D02*X38556D01*
X37744D02*Y38144D01*
X38556D01*
Y38956D02*Y38144D01*
X3404Y64884D02*X4216D01*
X3404D02*Y64071D01*
X4216D01*
Y64884D02*Y64071D01*
X35560Y65049D02*Y63525D01*
Y65049D02*X36512Y63525D01*
Y65049D02*Y63525D01*
X36970Y64859D02*Y63716D01*
Y64859D02*X37160Y65049D01*
X37541D01*
X37732Y64859D01*
Y63716D01*
X37541Y63525D02*X37732Y63716D01*
X37160Y63525D02*X37541D01*
X36970Y63716D02*X37160Y63525D01*
X24892Y64859D02*X25082Y65049D01*
X25654D01*
X25844Y64859D01*
Y64478D01*
X24892Y63525D02*X25844Y64478D01*
X24892Y63525D02*X25844D01*
X11430Y63716D02*X11620Y63525D01*
X11430Y64859D02*Y63716D01*
Y64859D02*X11620Y65049D01*
X12002D01*
X12192Y64859D01*
Y63716D01*
X12002Y63525D02*X12192Y63716D01*
X11620Y63525D02*X12002D01*
X11430Y63906D02*X12192Y64668D01*
X12649Y63525D02*X12840D01*
X13297Y63716D02*X13487Y63525D01*
X13297Y64859D02*Y63716D01*
Y64859D02*X13487Y65049D01*
X13868D01*
X14059Y64859D01*
Y63716D01*
X13868Y63525D02*X14059Y63716D01*
X13487Y63525D02*X13868D01*
X13297Y63906D02*X14059Y64668D01*
X14516Y64097D02*X15278Y65049D01*
X14516Y64097D02*X15469D01*
X15278Y65049D02*Y63525D01*
X16116D02*X16878Y65049D01*
X15926D02*X16878D01*
X40197Y9100D02*G75*G03X40603Y9100I203J0D01*G01*
G75*G03X40197Y9100I-203J0D01*G01*
X37657D02*G75*G03X38063Y9100I203J0D01*G01*
G75*G03X37657Y9100I-203J0D01*G01*
X35117D02*G75*G03X35523Y9100I203J0D01*G01*
G75*G03X35117Y9100I-203J0D01*G01*
X3607Y68288D02*G75*G03X4013Y68288I203J0D01*G01*
G75*G03X3607Y68288I-203J0D01*G01*
X34290Y68859D02*X34671Y68097D01*
X35052Y68859D01*
X34671Y68097D02*Y67335D01*
X35509Y68173D02*X36081D01*
X35509Y67335D02*X36271D01*
X35509Y68859D02*Y67335D01*
Y68859D02*X36271D01*
X37490D02*X37681Y68668D01*
X36919Y68859D02*X37490D01*
X36728Y68668D02*X36919Y68859D01*
X36728Y68668D02*Y68288D01*
X36919Y68097D01*
X37490D01*
X37681Y67906D01*
Y67526D01*
X37490Y67335D02*X37681Y67526D01*
X36919Y67335D02*X37490D01*
X36728Y67526D02*X36919Y67335D01*
X24892Y68668D02*X25082Y68859D01*
X25464D01*
X25654Y68668D01*
X25464Y67335D02*X25654Y67526D01*
X25082Y67335D02*X25464D01*
X24892Y67526D02*X25082Y67335D01*
Y68173D02*X25464D01*
X25654Y68668D02*Y68364D01*
Y67983D02*Y67526D01*
Y67983D02*X25464Y68173D01*
X25654Y68364D02*X25464Y68173D01*
X11430Y67526D02*X11620Y67335D01*
X11430Y68668D02*Y67526D01*
Y68668D02*X11620Y68859D01*
X12002D01*
X12192Y68668D01*
Y67526D01*
X12002Y67335D02*X12192Y67526D01*
X11620Y67335D02*X12002D01*
X11430Y67716D02*X12192Y68478D01*
X12649Y67335D02*X12840D01*
X13297Y67526D02*X13487Y67335D01*
X13297Y68668D02*Y67526D01*
Y68668D02*X13487Y68859D01*
X13868D01*
X14059Y68668D01*
Y67526D01*
X13868Y67335D02*X14059Y67526D01*
X13487Y67335D02*X13868D01*
X13297Y67716D02*X14059Y68478D01*
X14516Y68668D02*X14707Y68859D01*
X15088D01*
X15278Y68668D01*
X15088Y67335D02*X15278Y67526D01*
X14707Y67335D02*X15088D01*
X14516Y67526D02*X14707Y67335D01*
Y68173D02*X15088D01*
X15278Y68668D02*Y68364D01*
Y67983D02*Y67526D01*
Y67983D02*X15088Y68173D01*
X15278Y68364D02*X15088Y68173D01*
X15735Y67526D02*X15926Y67335D01*
X15735Y67830D02*Y67526D01*
Y67830D02*X16002Y68097D01*
X16231D01*
X16497Y67830D01*
Y67526D01*
X16307Y67335D02*X16497Y67526D01*
X15926Y67335D02*X16307D01*
X15735Y68364D02*X16002Y68097D01*
X15735Y68668D02*Y68364D01*
Y68668D02*X15926Y68859D01*
X16307D01*
X16497Y68668D01*
Y68364D01*
X16231Y68097D02*X16497Y68364D01*
X66045Y38855D02*X66655Y38245D01*
X66045D02*X66655Y38855D01*
X66045D02*X66655Y38245D01*
X66045D02*X66655Y38855D01*
X3505Y72402D02*X4115Y71793D01*
X3505D02*X4115Y72402D01*
X35560Y72669D02*Y71145D01*
Y72669D02*X36512Y71145D01*
Y72669D02*Y71145D01*
X36970Y72478D02*Y71336D01*
Y72478D02*X37160Y72669D01*
X37541D01*
X37732Y72478D01*
Y71336D01*
X37541Y71145D02*X37732Y71336D01*
X37160Y71145D02*X37541D01*
X36970Y71336D02*X37160Y71145D01*
X24892Y72478D02*X25082Y72669D01*
X25654D01*
X25844Y72478D01*
Y72098D01*
X24892Y71145D02*X25844Y72098D01*
X24892Y71145D02*X25844D01*
X11430Y71336D02*X11620Y71145D01*
X11430Y72478D02*Y71336D01*
Y72478D02*X11620Y72669D01*
X12002D01*
X12192Y72478D01*
Y71336D01*
X12002Y71145D02*X12192Y71336D01*
X11620Y71145D02*X12002D01*
X11430Y71526D02*X12192Y72288D01*
X12649Y71145D02*X12840D01*
X13297Y71336D02*X13487Y71145D01*
X13297Y72478D02*Y71336D01*
Y72478D02*X13487Y72669D01*
X13868D01*
X14059Y72478D01*
Y71336D01*
X13868Y71145D02*X14059Y71336D01*
X13487Y71145D02*X13868D01*
X13297Y71526D02*X14059Y72288D01*
X14516Y72478D02*X14707Y72669D01*
X15088D01*
X15278Y72478D01*
X15088Y71145D02*X15278Y71336D01*
X14707Y71145D02*X15088D01*
X14516Y71336D02*X14707Y71145D01*
Y71983D02*X15088D01*
X15278Y72478D02*Y72174D01*
Y71793D02*Y71336D01*
Y71793D02*X15088Y71983D01*
X15278Y72174D02*X15088Y71983D01*
X15735Y72364D02*X16040Y72669D01*
Y71145D01*
X15735D02*X16307D01*
X46700Y18356D02*Y17544D01*
X46294Y17950D02*X47106D01*
X47450Y17456D02*Y16644D01*
X47044Y17050D02*X47856D01*
X23520Y7486D02*Y6674D01*
X23114Y7080D02*X23926D01*
X15460Y14856D02*Y14044D01*
X15054Y14450D02*X15866D01*
X18960Y20536D02*Y19724D01*
X18554Y20130D02*X19366D01*
X18970Y17156D02*Y16344D01*
X18564Y16750D02*X19376D01*
X28390Y20536D02*Y19724D01*
X27984Y20130D02*X28796D01*
X29500Y25796D02*Y24984D01*
X29094Y25390D02*X29906D01*
X30270Y31056D02*Y30244D01*
X29864Y30650D02*X30676D01*
X23560Y26056D02*Y25244D01*
X23154Y25650D02*X23966D01*
X30710Y26706D02*Y25894D01*
X30304Y26300D02*X31116D01*
X26680Y19476D02*Y18664D01*
X26274Y19070D02*X27086D01*
X24470Y18326D02*Y17514D01*
X24064Y17920D02*X24876D01*
X54950Y24176D02*Y23364D01*
X54544Y23770D02*X55356D01*
X53910Y30206D02*Y29394D01*
X53504Y29800D02*X54316D01*
X51940Y18146D02*Y17334D01*
X51534Y17740D02*X52346D01*
X62420Y18146D02*Y17334D01*
X62014Y17740D02*X62826D01*
X48720Y23516D02*Y22704D01*
X48314Y23110D02*X49126D01*
X49690Y22596D02*Y21784D01*
X49284Y22190D02*X50096D01*
X47720Y21906D02*Y21094D01*
X47314Y21500D02*X48126D01*
X45930Y21616D02*Y20804D01*
X45524Y21210D02*X46336D01*
X45910Y24056D02*Y23244D01*
X45504Y23650D02*X46316D01*
X36500Y18216D02*Y17404D01*
X36094Y17810D02*X36906D01*
X28580Y26616D02*Y25804D01*
X28174Y26210D02*X28986D01*
X25970Y32026D02*Y31214D01*
X25564Y31620D02*X26376D01*
X51990Y13166D02*Y12354D01*
X51584Y12760D02*X52396D01*
X48260Y10736D02*Y9924D01*
X47854Y10330D02*X48666D01*
X17450Y11386D02*Y10574D01*
X17044Y10980D02*X17856D01*
X17630Y10096D02*Y9284D01*
X17224Y9690D02*X18036D01*
X56670Y10766D02*Y9954D01*
X56264Y10360D02*X57076D01*
X54900Y11786D02*Y10974D01*
X54494Y11380D02*X55306D01*
X49420Y10636D02*Y9824D01*
X49014Y10230D02*X49826D01*
X3810Y76314D02*Y75501D01*
X3404Y75908D02*X4216D01*
X34290Y76479D02*X34671Y75717D01*
X35052Y76479D01*
X34671Y75717D02*Y74955D01*
X35509Y75793D02*X36081D01*
X35509Y74955D02*X36271D01*
X35509Y76479D02*Y74955D01*
Y76479D02*X36271D01*
X37490D02*X37681Y76288D01*
X36919Y76479D02*X37490D01*
X36728Y76288D02*X36919Y76479D01*
X36728Y76288D02*Y75908D01*
X36919Y75717D01*
X37490D01*
X37681Y75526D01*
Y75146D01*
X37490Y74955D02*X37681Y75146D01*
X36919Y74955D02*X37490D01*
X36728Y75146D02*X36919Y74955D01*
X24892Y76288D02*X25082Y76479D01*
X25464D01*
X25654Y76288D01*
X25464Y74955D02*X25654Y75146D01*
X25082Y74955D02*X25464D01*
X24892Y75146D02*X25082Y74955D01*
Y75793D02*X25464D01*
X25654Y76288D02*Y75984D01*
Y75603D02*Y75146D01*
Y75603D02*X25464Y75793D01*
X25654Y75984D02*X25464Y75793D01*
X26111Y76288D02*X26302Y76479D01*
X26873D01*
X27064Y76288D01*
Y75908D01*
X26111Y74955D02*X27064Y75908D01*
X26111Y74955D02*X27064D01*
X11430Y75146D02*X11620Y74955D01*
X11430Y76288D02*Y75146D01*
Y76288D02*X11620Y76479D01*
X12002D01*
X12192Y76288D01*
Y75146D01*
X12002Y74955D02*X12192Y75146D01*
X11620Y74955D02*X12002D01*
X11430Y75336D02*X12192Y76098D01*
X12649Y74955D02*X12840D01*
X13297Y75146D02*X13487Y74955D01*
X13297Y76288D02*Y75146D01*
Y76288D02*X13487Y76479D01*
X13868D01*
X14059Y76288D01*
Y75146D01*
X13868Y74955D02*X14059Y75146D01*
X13487Y74955D02*X13868D01*
X13297Y75336D02*X14059Y76098D01*
X14516Y76288D02*X14707Y76479D01*
X15278D01*
X15469Y76288D01*
Y75908D01*
X14516Y74955D02*X15469Y75908D01*
X14516Y74955D02*X15469D01*
X15926Y75146D02*X16116Y74955D01*
X15926Y76288D02*Y75146D01*
Y76288D02*X16116Y76479D01*
X16497D01*
X16688Y76288D01*
Y75146D01*
X16497Y74955D02*X16688Y75146D01*
X16116Y74955D02*X16497D01*
X15926Y75336D02*X16688Y76098D01*
X5580Y7170D02*Y6764D01*
Y7170D02*X5932Y7373D01*
X5580Y7170D02*X5228Y7373D01*
X7990Y3810D02*Y3404D01*
Y3810D02*X8342Y4013D01*
X7990Y3810D02*X7638Y4013D01*
X24830Y1280D02*Y874D01*
Y1280D02*X25182Y1483D01*
X24830Y1280D02*X24478Y1483D01*
X23530Y1870D02*Y1464D01*
Y1870D02*X23882Y2073D01*
X23530Y1870D02*X23178Y2073D01*
X40600Y39400D02*Y38994D01*
Y39400D02*X40952Y39603D01*
X40600Y39400D02*X40248Y39603D01*
X41500Y39400D02*Y38994D01*
Y39400D02*X41852Y39603D01*
X41500Y39400D02*X41148Y39603D01*
X43000Y39400D02*Y38994D01*
Y39400D02*X43352Y39603D01*
X43000Y39400D02*X42648Y39603D01*
X43900Y39400D02*Y38994D01*
Y39400D02*X44252Y39603D01*
X43900Y39400D02*X43548Y39603D01*
X45400Y39400D02*Y38994D01*
Y39400D02*X45752Y39603D01*
X45400Y39400D02*X45048Y39603D01*
X46300Y39400D02*Y38994D01*
Y39400D02*X46652Y39603D01*
X46300Y39400D02*X45948Y39603D01*
X47800Y39400D02*Y38994D01*
Y39400D02*X48152Y39603D01*
X47800Y39400D02*X47448Y39603D01*
X48700Y39400D02*Y38994D01*
Y39400D02*X49052Y39603D01*
X48700Y39400D02*X48348Y39603D01*
X50200Y39400D02*Y38994D01*
Y39400D02*X50552Y39603D01*
X50200Y39400D02*X49848Y39603D01*
X51100Y39400D02*Y38994D01*
Y39400D02*X51452Y39603D01*
X51100Y39400D02*X50748Y39603D01*
X52600Y39400D02*Y38994D01*
Y39400D02*X52952Y39603D01*
X52600Y39400D02*X52248Y39603D01*
X53500Y39400D02*Y38994D01*
Y39400D02*X53852Y39603D01*
X53500Y39400D02*X53148Y39603D01*
X55000Y39400D02*Y38994D01*
Y39400D02*X55352Y39603D01*
X55000Y39400D02*X54648Y39603D01*
X55900Y39400D02*Y38994D01*
Y39400D02*X56252Y39603D01*
X55900Y39400D02*X55548Y39603D01*
X57400Y39400D02*Y38994D01*
Y39400D02*X57752Y39603D01*
X57400Y39400D02*X57048Y39603D01*
X58300Y39400D02*Y38994D01*
Y39400D02*X58652Y39603D01*
X58300Y39400D02*X57948Y39603D01*
X59700Y39400D02*Y38994D01*
Y39400D02*X60052Y39603D01*
X59700Y39400D02*X59348Y39603D01*
X60700Y39400D02*Y38994D01*
Y39400D02*X61052Y39603D01*
X60700Y39400D02*X60348Y39603D01*
X61500Y39000D02*Y38594D01*
Y39000D02*X61852Y39203D01*
X61500Y39000D02*X61148Y39203D01*
X62300Y39400D02*Y38994D01*
Y39400D02*X62652Y39603D01*
X62300Y39400D02*X61948Y39603D01*
X63100Y39000D02*Y38594D01*
Y39000D02*X63452Y39203D01*
X63100Y39000D02*X62748Y39203D01*
X63900Y39400D02*Y38994D01*
Y39400D02*X64252Y39603D01*
X63900Y39400D02*X63548Y39603D01*
X40600Y37700D02*Y37294D01*
Y37700D02*X40952Y37903D01*
X40600Y37700D02*X40248Y37903D01*
X42200Y37700D02*Y37294D01*
Y37700D02*X42552Y37903D01*
X42200Y37700D02*X41848Y37903D01*
X43100Y37700D02*Y37294D01*
Y37700D02*X43452Y37903D01*
X43100Y37700D02*X42748Y37903D01*
X44600Y37700D02*Y37294D01*
Y37700D02*X44952Y37903D01*
X44600Y37700D02*X44248Y37903D01*
X45500Y37700D02*Y37294D01*
Y37700D02*X45852Y37903D01*
X45500Y37700D02*X45148Y37903D01*
X47000Y37700D02*Y37294D01*
Y37700D02*X47352Y37903D01*
X47000Y37700D02*X46648Y37903D01*
X47900Y37700D02*Y37294D01*
Y37700D02*X48252Y37903D01*
X47900Y37700D02*X47548Y37903D01*
X49400Y37700D02*Y37294D01*
Y37700D02*X49752Y37903D01*
X49400Y37700D02*X49048Y37903D01*
X50300Y37700D02*Y37294D01*
Y37700D02*X50652Y37903D01*
X50300Y37700D02*X49948Y37903D01*
X51100Y38200D02*Y37794D01*
Y38200D02*X51452Y38403D01*
X51100Y38200D02*X50748Y38403D01*
X51900Y37700D02*Y37294D01*
Y37700D02*X52252Y37903D01*
X51900Y37700D02*X51548Y37903D01*
X53400Y37700D02*Y37294D01*
Y37700D02*X53752Y37903D01*
X53400Y37700D02*X53048Y37903D01*
X54300Y37700D02*Y37294D01*
Y37700D02*X54652Y37903D01*
X54300Y37700D02*X53948Y37903D01*
X55800Y37700D02*Y37294D01*
Y37700D02*X56152Y37903D01*
X55800Y37700D02*X55448Y37903D01*
X56700Y37700D02*Y37294D01*
Y37700D02*X57052Y37903D01*
X56700Y37700D02*X56348Y37903D01*
X58200Y37700D02*Y37294D01*
Y37700D02*X58552Y37903D01*
X58200Y37700D02*X57848Y37903D01*
X59100Y37700D02*Y37294D01*
Y37700D02*X59452Y37903D01*
X59100Y37700D02*X58748Y37903D01*
X60600Y37700D02*Y37294D01*
Y37700D02*X60952Y37903D01*
X60600Y37700D02*X60248Y37903D01*
X61500Y37700D02*Y37294D01*
Y37700D02*X61852Y37903D01*
X61500Y37700D02*X61148Y37903D01*
X63000Y37700D02*Y37294D01*
Y37700D02*X63352Y37903D01*
X63000Y37700D02*X62648Y37903D01*
X63900Y37700D02*Y37294D01*
Y37700D02*X64252Y37903D01*
X63900Y37700D02*X63548Y37903D01*
X6220Y9340D02*Y8934D01*
Y9340D02*X6572Y9543D01*
X6220Y9340D02*X5868Y9543D01*
X8850Y14950D02*Y14544D01*
Y14950D02*X9202Y15153D01*
X8850Y14950D02*X8498Y15153D01*
X26780Y9450D02*Y9044D01*
Y9450D02*X27132Y9653D01*
X26780Y9450D02*X26428Y9653D01*
X27230Y29220D02*Y28814D01*
Y29220D02*X27582Y29423D01*
X27230Y29220D02*X26878Y29423D01*
X28780Y29220D02*Y28814D01*
Y29220D02*X29132Y29423D01*
X28780Y29220D02*X28428Y29423D01*
X28780Y27400D02*Y26994D01*
Y27400D02*X29132Y27603D01*
X28780Y27400D02*X28428Y27603D01*
X27240Y27400D02*Y26994D01*
Y27400D02*X27592Y27603D01*
X27240Y27400D02*X26888Y27603D01*
X24180Y3850D02*Y3444D01*
Y3850D02*X24532Y4053D01*
X24180Y3850D02*X23828Y4053D01*
X36980Y5110D02*Y4704D01*
Y5110D02*X37332Y5313D01*
X36980Y5110D02*X36628Y5313D01*
X39000Y5110D02*Y4704D01*
Y5110D02*X39352Y5313D01*
X39000Y5110D02*X38648Y5313D01*
X41000Y5110D02*Y4704D01*
Y5110D02*X41352Y5313D01*
X41000Y5110D02*X40648Y5313D01*
X42990Y5110D02*Y4704D01*
Y5110D02*X43342Y5313D01*
X42990Y5110D02*X42638Y5313D01*
X44990Y5110D02*Y4704D01*
Y5110D02*X45342Y5313D01*
X44990Y5110D02*X44638Y5313D01*
X46990Y5110D02*Y4704D01*
Y5110D02*X47342Y5313D01*
X46990Y5110D02*X46638Y5313D01*
X49000Y5110D02*Y4704D01*
Y5110D02*X49352Y5313D01*
X49000Y5110D02*X48648Y5313D01*
X50990Y5110D02*Y4704D01*
Y5110D02*X51342Y5313D01*
X50990Y5110D02*X50638Y5313D01*
X53010Y5110D02*Y4704D01*
Y5110D02*X53362Y5313D01*
X53010Y5110D02*X52658Y5313D01*
X55000Y5110D02*Y4704D01*
Y5110D02*X55352Y5313D01*
X55000Y5110D02*X54648Y5313D01*
X56990Y5110D02*Y4704D01*
Y5110D02*X57342Y5313D01*
X56990Y5110D02*X56638Y5313D01*
X58990Y5110D02*Y4704D01*
Y5110D02*X59342Y5313D01*
X58990Y5110D02*X58638Y5313D01*
X60990Y5110D02*Y4704D01*
Y5110D02*X61342Y5313D01*
X60990Y5110D02*X60638Y5313D01*
X63000Y5110D02*Y4704D01*
Y5110D02*X63352Y5313D01*
X63000Y5110D02*X62648Y5313D01*
X64990Y5110D02*Y4704D01*
Y5110D02*X65342Y5313D01*
X64990Y5110D02*X64638Y5313D01*
X66990Y5120D02*Y4714D01*
Y5120D02*X67342Y5323D01*
X66990Y5120D02*X66638Y5323D01*
X69000Y5110D02*Y4704D01*
Y5110D02*X69352Y5313D01*
X69000Y5110D02*X68648Y5313D01*
X71000Y5110D02*Y4704D01*
Y5110D02*X71352Y5313D01*
X71000Y5110D02*X70648Y5313D01*
X73000Y5120D02*Y4714D01*
Y5120D02*X73352Y5323D01*
X73000Y5120D02*X72648Y5323D01*
X75010Y5110D02*Y4704D01*
Y5110D02*X75362Y5313D01*
X75010Y5110D02*X74658Y5313D01*
X75010Y2890D02*Y2484D01*
Y2890D02*X75362Y3093D01*
X75010Y2890D02*X74658Y3093D01*
X73000Y2890D02*Y2484D01*
Y2890D02*X73352Y3093D01*
X73000Y2890D02*X72648Y3093D01*
X70990Y2880D02*Y2474D01*
Y2880D02*X71342Y3083D01*
X70990Y2880D02*X70638Y3083D01*
X69010Y2890D02*Y2484D01*
Y2890D02*X69362Y3093D01*
X69010Y2890D02*X68658Y3093D01*
X67000Y2890D02*Y2484D01*
Y2890D02*X67352Y3093D01*
X67000Y2890D02*X66648Y3093D01*
X64990Y2880D02*Y2474D01*
Y2880D02*X65342Y3083D01*
X64990Y2880D02*X64638Y3083D01*
X63000Y2880D02*Y2474D01*
Y2880D02*X63352Y3083D01*
X63000Y2880D02*X62648Y3083D01*
X61010Y2890D02*Y2484D01*
Y2890D02*X61362Y3093D01*
X61010Y2890D02*X60658Y3093D01*
X59000Y2890D02*Y2484D01*
Y2890D02*X59352Y3093D01*
X59000Y2890D02*X58648Y3093D01*
X57000Y2890D02*Y2484D01*
Y2890D02*X57352Y3093D01*
X57000Y2890D02*X56648Y3093D01*
X54990Y2880D02*Y2474D01*
Y2880D02*X55342Y3083D01*
X54990Y2880D02*X54638Y3083D01*
X53000Y2880D02*Y2474D01*
Y2880D02*X53352Y3083D01*
X53000Y2880D02*X52648Y3083D01*
X51000Y2880D02*Y2474D01*
Y2880D02*X51352Y3083D01*
X51000Y2880D02*X50648Y3083D01*
X49000Y2880D02*Y2474D01*
Y2880D02*X49352Y3083D01*
X49000Y2880D02*X48648Y3083D01*
X47010Y2880D02*Y2474D01*
Y2880D02*X47362Y3083D01*
X47010Y2880D02*X46658Y3083D01*
X45000Y2890D02*Y2484D01*
Y2890D02*X45352Y3093D01*
X45000Y2890D02*X44648Y3093D01*
X43010Y2880D02*Y2474D01*
Y2880D02*X43362Y3083D01*
X43010Y2880D02*X42658Y3083D01*
X41020Y2880D02*Y2474D01*
Y2880D02*X41372Y3083D01*
X41020Y2880D02*X40668Y3083D01*
X38980Y2880D02*Y2474D01*
Y2880D02*X39332Y3083D01*
X38980Y2880D02*X38628Y3083D01*
X36990Y2890D02*Y2484D01*
Y2890D02*X37342Y3093D01*
X36990Y2890D02*X36638Y3093D01*
X55340Y3760D02*Y3354D01*
Y3760D02*X55692Y3963D01*
X55340Y3760D02*X54988Y3963D01*
X56920Y3760D02*Y3354D01*
Y3760D02*X57272Y3963D01*
X56920Y3760D02*X56568Y3963D01*
X4920Y9350D02*Y8944D01*
Y9350D02*X5272Y9553D01*
X4920Y9350D02*X4568Y9553D01*
X22860Y4660D02*Y4254D01*
Y4660D02*X23212Y4863D01*
X22860Y4660D02*X22508Y4863D01*
X3810Y79718D02*Y79311D01*
Y79718D02*X4162Y79921D01*
X3810Y79718D02*X3458Y79921D01*
X34290Y80289D02*X34671Y79527D01*
X35052Y80289D01*
X34671Y79527D02*Y78765D01*
X35509Y79603D02*X36081D01*
X35509Y78765D02*X36271D01*
X35509Y80289D02*Y78765D01*
Y80289D02*X36271D01*
X37490D02*X37681Y80098D01*
X36919Y80289D02*X37490D01*
X36728Y80098D02*X36919Y80289D01*
X36728Y80098D02*Y79718D01*
X36919Y79527D01*
X37490D01*
X37681Y79336D01*
Y78956D01*
X37490Y78765D02*X37681Y78956D01*
X36919Y78765D02*X37490D01*
X36728Y78956D02*X36919Y78765D01*
X25082D02*X25654Y79527D01*
Y80098D02*Y79527D01*
X25464Y80289D02*X25654Y80098D01*
X25082Y80289D02*X25464D01*
X24892Y80098D02*X25082Y80289D01*
X24892Y80098D02*Y79718D01*
X25082Y79527D01*
X25654D01*
X26302Y78765D02*X26873Y79527D01*
Y80098D02*Y79527D01*
X26683Y80289D02*X26873Y80098D01*
X26302Y80289D02*X26683D01*
X26111Y80098D02*X26302Y80289D01*
X26111Y80098D02*Y79718D01*
X26302Y79527D01*
X26873D01*
X11430Y78956D02*X11620Y78765D01*
X11430Y80098D02*Y78956D01*
Y80098D02*X11620Y80289D01*
X12002D01*
X12192Y80098D01*
Y78956D01*
X12002Y78765D02*X12192Y78956D01*
X11620Y78765D02*X12002D01*
X11430Y79146D02*X12192Y79908D01*
X12649Y78765D02*X12840D01*
X13297Y78956D02*X13487Y78765D01*
X13297Y80098D02*Y78956D01*
Y80098D02*X13487Y80289D01*
X13868D01*
X14059Y80098D01*
Y78956D01*
X13868Y78765D02*X14059Y78956D01*
X13487Y78765D02*X13868D01*
X13297Y79146D02*X14059Y79908D01*
X14516Y79984D02*X14821Y80289D01*
Y78765D01*
X14516D02*X15088D01*
X15545Y80098D02*X15735Y80289D01*
X16307D01*
X16497Y80098D01*
Y79718D01*
X15545Y78765D02*X16497Y79718D01*
X15545Y78765D02*X16497D01*
X762Y84099D02*X952Y83908D01*
X190Y84099D02*X762D01*
X0Y83908D02*X190Y84099D01*
X0Y83908D02*Y83528D01*
X190Y83337D01*
X762D01*
X952Y83146D01*
Y82766D01*
X762Y82575D02*X952Y82766D01*
X190Y82575D02*X762D01*
X0Y82766D02*X190Y82575D01*
X1410Y83337D02*Y82766D01*
X1600Y82575D01*
X2172Y83337D02*Y82194D01*
X1981Y82004D02*X2172Y82194D01*
X1600Y82004D02*X1981D01*
X1410Y82194D02*X1600Y82004D01*
Y82575D02*X1981D01*
X2172Y82766D01*
X2819Y83146D02*Y82575D01*
Y83146D02*X3010Y83337D01*
X3200D01*
X3391Y83146D01*
Y82575D01*
Y83146D02*X3581Y83337D01*
X3772D01*
X3962Y83146D01*
Y82575D01*
X2629Y83337D02*X2819Y83146D01*
X4420Y84099D02*Y82575D01*
Y82766D02*X4610Y82575D01*
X4991D01*
X5182Y82766D01*
Y83146D02*Y82766D01*
X4991Y83337D02*X5182Y83146D01*
X4610Y83337D02*X4991D01*
X4420Y83146D02*X4610Y83337D01*
X5639Y83146D02*Y82766D01*
Y83146D02*X5829Y83337D01*
X6210D01*
X6401Y83146D01*
Y82766D01*
X6210Y82575D02*X6401Y82766D01*
X5829Y82575D02*X6210D01*
X5639Y82766D02*X5829Y82575D01*
X6858Y84099D02*Y82766D01*
X7049Y82575D01*
X0Y81749D02*X7430D01*
X10604Y84099D02*Y82575D01*
X11100Y84099D02*X11366Y83832D01*
Y82842D01*
X11100Y82575D02*X11366Y82842D01*
X10414Y82575D02*X11100D01*
X10414Y84099D02*X11100D01*
G54D124*X11824Y83718D02*Y83680D01*
G54D123*Y83146D02*Y82575D01*
X12776Y83337D02*X12967Y83146D01*
X12395Y83337D02*X12776D01*
X12205Y83146D02*X12395Y83337D01*
X12205Y83146D02*Y82766D01*
X12395Y82575D01*
X12967Y83337D02*Y82766D01*
X13157Y82575D01*
X12395D02*X12776D01*
X12967Y82766D01*
X13805Y83146D02*Y82575D01*
Y83146D02*X13995Y83337D01*
X14186D01*
X14376Y83146D01*
Y82575D01*
Y83146D02*X14567Y83337D01*
X14757D01*
X14948Y83146D01*
Y82575D01*
X13614Y83337D02*X13805Y83146D01*
X15405Y82575D02*X15596D01*
X16739Y82766D02*X16929Y82575D01*
X16739Y83908D02*X16929Y84099D01*
X16739Y83908D02*Y82766D01*
X17386Y84099D02*X17767D01*
X17577D02*Y82575D01*
X17386D02*X17767D01*
X18415Y83146D02*Y82575D01*
Y83146D02*X18606Y83337D01*
X18796D01*
X18987Y83146D01*
Y82575D01*
X18225Y83337D02*X18415Y83146D01*
X19634Y83337D02*X20206D01*
X19444Y83146D02*X19634Y83337D01*
X19444Y83146D02*Y82766D01*
X19634Y82575D01*
X20206D01*
X20663Y84099D02*Y82575D01*
Y83146D02*X20853Y83337D01*
X21234D01*
X21425Y83146D01*
Y82575D01*
X21882Y84099D02*X22073Y83908D01*
Y82766D01*
X21882Y82575D02*X22073Y82766D01*
X10414Y81749D02*X22530D01*
X24397Y82575D02*X24892D01*
X24130Y82842D02*X24397Y82575D01*
X24130Y83832D02*Y82842D01*
Y83832D02*X24397Y84099D01*
X24892D01*
X25349Y83146D02*Y82766D01*
Y83146D02*X25540Y83337D01*
X25921D01*
X26111Y83146D01*
Y82766D01*
X25921Y82575D02*X26111Y82766D01*
X25540Y82575D02*X25921D01*
X25349Y82766D02*X25540Y82575D01*
X26568Y83337D02*Y82766D01*
X26759Y82575D01*
X27140D01*
X27330Y82766D01*
Y83337D02*Y82766D01*
X27978Y83146D02*Y82575D01*
Y83146D02*X28169Y83337D01*
X28359D01*
X28550Y83146D01*
Y82575D01*
X27788Y83337D02*X27978Y83146D01*
X29197Y84099D02*Y82766D01*
X29388Y82575D01*
X29007Y83528D02*X29388D01*
X24130Y81749D02*X29769D01*
X33210Y84099D02*Y82575D01*
X33020Y84099D02*X33782D01*
X33972Y83908D01*
Y83528D01*
X33782Y83337D02*X33972Y83528D01*
X33210Y83337D02*X33782D01*
X34430Y84099D02*Y82766D01*
X34620Y82575D01*
X35573Y83337D02*X35763Y83146D01*
X35192Y83337D02*X35573D01*
X35001Y83146D02*X35192Y83337D01*
X35001Y83146D02*Y82766D01*
X35192Y82575D01*
X35763Y83337D02*Y82766D01*
X35954Y82575D01*
X35192D02*X35573D01*
X35763Y82766D01*
X36601Y84099D02*Y82766D01*
X36792Y82575D01*
X36411Y83528D02*X36792D01*
X37363Y82575D02*X37935D01*
X37173Y82766D02*X37363Y82575D01*
X37173Y83146D02*Y82766D01*
Y83146D02*X37363Y83337D01*
X37744D01*
X37935Y83146D01*
X37173Y82956D02*X37935D01*
Y83146D02*Y82956D01*
X39154Y84099D02*Y82575D01*
X38964D02*X39154Y82766D01*
X38583Y82575D02*X38964D01*
X38392Y82766D02*X38583Y82575D01*
X38392Y83146D02*Y82766D01*
Y83146D02*X38583Y83337D01*
X38964D01*
X39154Y83146D01*
X39992Y83337D02*Y83146D01*
Y82766D02*Y82575D01*
X39611Y83908D02*Y83718D01*
Y83908D02*X39802Y84099D01*
X40183D01*
X40373Y83908D01*
Y83718D01*
X39992Y83337D02*X40373Y83718D01*
X33020Y81749D02*X40831D01*
X0Y87909D02*X762D01*
X381D02*Y86385D01*
X1219Y87909D02*Y86385D01*
Y86956D02*X1410Y87147D01*
X1791D01*
X1981Y86956D01*
Y86385D01*
X2629D02*X3200D01*
X2438Y86576D02*X2629Y86385D01*
X2438Y86956D02*Y86576D01*
Y86956D02*X2629Y87147D01*
X3010D01*
X3200Y86956D01*
X2438Y86766D02*X3200D01*
Y86956D02*Y86766D01*
X3848Y86956D02*Y86385D01*
Y86956D02*X4039Y87147D01*
X4420D01*
X3658D02*X3848Y86956D01*
X5067Y86385D02*X5639D01*
X4877Y86576D02*X5067Y86385D01*
X4877Y86956D02*Y86576D01*
Y86956D02*X5067Y87147D01*
X5448D01*
X5639Y86956D01*
X4877Y86766D02*X5639D01*
Y86956D02*Y86766D01*
X7353Y87147D02*X7544Y86956D01*
X6972Y87147D02*X7353D01*
X6782Y86956D02*X6972Y87147D01*
X6782Y86956D02*Y86576D01*
X6972Y86385D01*
X7544Y87147D02*Y86576D01*
X7734Y86385D01*
X6972D02*X7353D01*
X7544Y86576D01*
X8382Y86956D02*Y86385D01*
Y86956D02*X8573Y87147D01*
X8954D01*
X8192D02*X8382Y86956D01*
X9601Y86385D02*X10173D01*
X9411Y86576D02*X9601Y86385D01*
X9411Y86956D02*Y86576D01*
Y86956D02*X9601Y87147D01*
X9982D01*
X10173Y86956D01*
X9411Y86766D02*X10173D01*
Y86956D02*Y86766D01*
X11506Y86385D02*X12268Y87909D01*
X11316D02*X12268D01*
X14173D02*Y86385D01*
X13983D02*X14173Y86576D01*
X13602Y86385D02*X13983D01*
X13411Y86576D02*X13602Y86385D01*
X13411Y86956D02*Y86576D01*
Y86956D02*X13602Y87147D01*
X13983D01*
X14173Y86956D01*
G54D124*X14630Y87528D02*Y87490D01*
G54D123*Y86956D02*Y86385D01*
X15202Y87718D02*Y86385D01*
Y87718D02*X15392Y87909D01*
X15583D01*
X15011Y87147D02*X15392D01*
X16154Y87718D02*Y86385D01*
Y87718D02*X16345Y87909D01*
X16535D01*
X15964Y87147D02*X16345D01*
X17107Y86385D02*X17678D01*
X16916Y86576D02*X17107Y86385D01*
X16916Y86956D02*Y86576D01*
Y86956D02*X17107Y87147D01*
X17488D01*
X17678Y86956D01*
X16916Y86766D02*X17678D01*
Y86956D02*Y86766D01*
X18326Y86956D02*Y86385D01*
Y86956D02*X18517Y87147D01*
X18898D01*
X18136D02*X18326Y86956D01*
X19545Y86385D02*X20117D01*
X19355Y86576D02*X19545Y86385D01*
X19355Y86956D02*Y86576D01*
Y86956D02*X19545Y87147D01*
X19926D01*
X20117Y86956D01*
X19355Y86766D02*X20117D01*
Y86956D02*Y86766D01*
X20765Y86956D02*Y86385D01*
Y86956D02*X20955Y87147D01*
X21146D01*
X21336Y86956D01*
Y86385D01*
X20574Y87147D02*X20765Y86956D01*
X21984Y87909D02*Y86576D01*
X22174Y86385D01*
X21793Y87338D02*X22174D01*
X24003Y87909D02*Y86385D01*
X23813D02*X24003Y86576D01*
X23432Y86385D02*X23813D01*
X23241Y86576D02*X23432Y86385D01*
X23241Y86956D02*Y86576D01*
Y86956D02*X23432Y87147D01*
X23813D01*
X24003Y86956D01*
X24651D02*Y86385D01*
Y86956D02*X24841Y87147D01*
X25222D01*
X24460D02*X24651Y86956D01*
G54D124*X25679Y87528D02*Y87490D01*
G54D123*Y86956D02*Y86385D01*
X26060Y87909D02*Y86576D01*
X26251Y86385D01*
X26632Y87909D02*Y86576D01*
X26822Y86385D01*
X28080D02*X28651D01*
X28842Y86576D01*
X28651Y86766D02*X28842Y86576D01*
X28080Y86766D02*X28651D01*
X27889Y86956D02*X28080Y86766D01*
X27889Y86956D02*X28080Y87147D01*
X28651D01*
X28842Y86956D01*
X27889Y86576D02*X28080Y86385D01*
G54D124*X29299Y87528D02*Y87490D01*
G54D123*Y86956D02*Y86385D01*
X29680Y87147D02*X30442D01*
X29680Y86385D02*X30442Y87147D01*
X29680Y86385D02*X30442D01*
X31090D02*X31661D01*
X30899Y86576D02*X31090Y86385D01*
X30899Y86956D02*Y86576D01*
Y86956D02*X31090Y87147D01*
X31471D01*
X31661Y86956D01*
X30899Y86766D02*X31661D01*
Y86956D02*Y86766D01*
X32309Y86385D02*X32880D01*
X33071Y86576D01*
X32880Y86766D02*X33071Y86576D01*
X32309Y86766D02*X32880D01*
X32118Y86956D02*X32309Y86766D01*
X32118Y86956D02*X32309Y87147D01*
X32880D01*
X33071Y86956D01*
X32118Y86576D02*X32309Y86385D01*
X34214Y87147D02*Y86576D01*
X34404Y86385D01*
X34785D01*
X34976Y86576D01*
Y87147D02*Y86576D01*
X35624Y86385D02*X36195D01*
X36386Y86576D01*
X36195Y86766D02*X36386Y86576D01*
X35624Y86766D02*X36195D01*
X35433Y86956D02*X35624Y86766D01*
X35433Y86956D02*X35624Y87147D01*
X36195D01*
X36386Y86956D01*
X35433Y86576D02*X35624Y86385D01*
X37033D02*X37605D01*
X36843Y86576D02*X37033Y86385D01*
X36843Y86956D02*Y86576D01*
Y86956D02*X37033Y87147D01*
X37414D01*
X37605Y86956D01*
X36843Y86766D02*X37605D01*
Y86956D02*Y86766D01*
X38824Y87909D02*Y86385D01*
X38633D02*X38824Y86576D01*
X38252Y86385D02*X38633D01*
X38062Y86576D02*X38252Y86385D01*
X38062Y86956D02*Y86576D01*
Y86956D02*X38252Y87147D01*
X38633D01*
X38824Y86956D01*
G54D124*X39967Y87528D02*Y87490D01*
G54D123*Y86956D02*Y86385D01*
X40538Y86956D02*Y86385D01*
Y86956D02*X40729Y87147D01*
X40919D01*
X41110Y86956D01*
Y86385D01*
X40348Y87147D02*X40538Y86956D01*
X42443Y87909D02*Y86576D01*
X42634Y86385D01*
X42253Y87338D02*X42634D01*
X43015Y87909D02*Y86385D01*
Y86956D02*X43205Y87147D01*
X43586D01*
X43777Y86956D01*
Y86385D01*
G54D124*X44234Y87528D02*Y87490D01*
G54D123*Y86956D02*Y86385D01*
X44806D02*X45377D01*
X45568Y86576D01*
X45377Y86766D02*X45568Y86576D01*
X44806Y86766D02*X45377D01*
X44615Y86956D02*X44806Y86766D01*
X44615Y86956D02*X44806Y87147D01*
X45377D01*
X45568Y86956D01*
X44615Y86576D02*X44806Y86385D01*
X46711Y87909D02*Y86576D01*
X46901Y86385D01*
X47854Y87147D02*X48044Y86956D01*
X47473Y87147D02*X47854D01*
X47282Y86956D02*X47473Y87147D01*
X47282Y86956D02*Y86576D01*
X47473Y86385D01*
X48044Y87147D02*Y86576D01*
X48235Y86385D01*
X47473D02*X47854D01*
X48044Y86576D01*
X48692Y87147D02*Y86576D01*
X48882Y86385D01*
X49454Y87147D02*Y86004D01*
X49263Y85814D02*X49454Y86004D01*
X48882Y85814D02*X49263D01*
X48692Y86004D02*X48882Y85814D01*
Y86385D02*X49263D01*
X49454Y86576D01*
X49911Y86956D02*Y86576D01*
Y86956D02*X50102Y87147D01*
X50483D01*
X50673Y86956D01*
Y86576D01*
X50483Y86385D02*X50673Y86576D01*
X50102Y86385D02*X50483D01*
X49911Y86576D02*X50102Y86385D01*
X51130Y87147D02*Y86576D01*
X51321Y86385D01*
X51702D01*
X51892Y86576D01*
Y87147D02*Y86576D01*
X52540Y87909D02*Y86576D01*
X52730Y86385D01*
X52349Y87338D02*X52730D01*
X53111Y86004D02*X53492Y86385D01*
X54635Y87604D02*X54940Y87909D01*
Y86385D01*
X54635D02*X55207D01*
X55664Y87909D02*X56426D01*
X55664D02*Y87147D01*
X55855Y87338D01*
X56236D01*
X56426Y87147D01*
Y86576D01*
X56236Y86385D02*X56426Y86576D01*
X55855Y86385D02*X56236D01*
X55664Y86576D02*X55855Y86385D01*
X57455Y87909D02*X57645Y87718D01*
X57074Y87909D02*X57455D01*
X56883Y87718D02*X57074Y87909D01*
X56883Y87718D02*Y86576D01*
X57074Y86385D01*
X57455Y87223D02*X57645Y87033D01*
X56883Y87223D02*X57455D01*
X57074Y86385D02*X57455D01*
X57645Y86576D01*
Y87033D02*Y86576D01*
X58788Y87909D02*Y86385D01*
Y86956D02*X58979Y87147D01*
X59360D01*
X59550Y86956D01*
Y86385D01*
X60008Y86956D02*Y86576D01*
Y86956D02*X60198Y87147D01*
X60579D01*
X60770Y86956D01*
Y86576D01*
X60579Y86385D02*X60770Y86576D01*
X60198Y86385D02*X60579D01*
X60008Y86576D02*X60198Y86385D01*
X61227Y87909D02*Y86576D01*
X61417Y86385D01*
X61989D02*X62560D01*
X61798Y86576D02*X61989Y86385D01*
X61798Y86956D02*Y86576D01*
Y86956D02*X61989Y87147D01*
X62370D01*
X62560Y86956D01*
X61798Y86766D02*X62560D01*
Y86956D02*Y86766D01*
X63208Y86385D02*X63779D01*
X63970Y86576D01*
X63779Y86766D02*X63970Y86576D01*
X63208Y86766D02*X63779D01*
X63017Y86956D02*X63208Y86766D01*
X63017Y86956D02*X63208Y87147D01*
X63779D01*
X63970Y86956D01*
X63017Y86576D02*X63208Y86385D01*
X65303Y87909D02*Y86576D01*
X65494Y86385D01*
X65113Y87338D02*X65494D01*
X65875Y86956D02*Y86576D01*
Y86956D02*X66065Y87147D01*
X66446D01*
X66637Y86956D01*
Y86576D01*
X66446Y86385D02*X66637Y86576D01*
X66065Y86385D02*X66446D01*
X65875Y86576D02*X66065Y86385D01*
X67285Y87909D02*Y86576D01*
X67475Y86385D01*
X67094Y87338D02*X67475D01*
X68428Y87147D02*X68618Y86956D01*
X68047Y87147D02*X68428D01*
X67856Y86956D02*X68047Y87147D01*
X67856Y86956D02*Y86576D01*
X68047Y86385D01*
X68618Y87147D02*Y86576D01*
X68809Y86385D01*
X68047D02*X68428D01*
X68618Y86576D01*
X69266Y87909D02*Y86576D01*
X69456Y86385D01*
G54D125*X0Y54000D02*X85000D01*
X0D02*Y0D01*
X85000Y54000D02*Y0D01*
X0D02*X85000D01*
G54D123*X50800Y57429D02*Y55905D01*
Y57429D02*X51372Y56667D01*
X51943Y57429D01*
Y55905D01*
X52972Y56667D02*X53162Y56476D01*
X52591Y56667D02*X52972D01*
X52400Y56476D02*X52591Y56667D01*
X52400Y56476D02*Y56096D01*
X52591Y55905D01*
X53162Y56667D02*Y56096D01*
X53353Y55905D01*
X52591D02*X52972D01*
X53162Y56096D01*
X53810Y56667D02*X54572Y55905D01*
X53810D02*X54572Y56667D01*
G54D124*X55029Y57048D02*Y57010D01*
G54D123*Y56476D02*Y55905D01*
X55601Y56476D02*Y55905D01*
Y56476D02*X55791Y56667D01*
X55982D01*
X56172Y56476D01*
Y55905D01*
Y56476D02*X56363Y56667D01*
X56553D01*
X56744Y56476D01*
Y55905D01*
X55410Y56667D02*X55601Y56476D01*
X57201Y56667D02*Y56096D01*
X57391Y55905D01*
X57772D01*
X57963Y56096D01*
Y56667D02*Y56096D01*
X58611Y56476D02*Y55905D01*
Y56476D02*X58801Y56667D01*
X58992D01*
X59182Y56476D01*
Y55905D01*
Y56476D02*X59373Y56667D01*
X59563D01*
X59754Y56476D01*
Y55905D01*
X58420Y56667D02*X58611Y56476D01*
X61087Y57429D02*Y55905D01*
X61582Y57429D02*X61849Y57162D01*
Y56172D01*
X61582Y55905D02*X61849Y56172D01*
X60897Y55905D02*X61582D01*
X60897Y57429D02*X61582D01*
G54D124*X62306Y57048D02*Y57010D01*
G54D123*Y56476D02*Y55905D01*
X62878Y56476D02*Y55905D01*
Y56476D02*X63068Y56667D01*
X63259D01*
X63449Y56476D01*
Y55905D01*
Y56476D02*X63640Y56667D01*
X63830D01*
X64021Y56476D01*
Y55905D01*
X62687Y56667D02*X62878Y56476D01*
X64668Y55905D02*X65240D01*
X64478Y56096D02*X64668Y55905D01*
X64478Y56476D02*Y56096D01*
Y56476D02*X64668Y56667D01*
X65049D01*
X65240Y56476D01*
X64478Y56286D02*X65240D01*
Y56476D02*Y56286D01*
X65888Y56476D02*Y55905D01*
Y56476D02*X66078Y56667D01*
X66269D01*
X66459Y56476D01*
Y55905D01*
X65697Y56667D02*X65888Y56476D01*
X67107Y55905D02*X67678D01*
X67869Y56096D01*
X67678Y56286D02*X67869Y56096D01*
X67107Y56286D02*X67678D01*
X66916Y56476D02*X67107Y56286D01*
X66916Y56476D02*X67107Y56667D01*
X67678D01*
X67869Y56476D01*
X66916Y56096D02*X67107Y55905D01*
G54D124*X68326Y57048D02*Y57010D01*
G54D123*Y56476D02*Y55905D01*
X68707Y56476D02*Y56096D01*
Y56476D02*X68898Y56667D01*
X69279D01*
X69469Y56476D01*
Y56096D01*
X69279Y55905D02*X69469Y56096D01*
X68898Y55905D02*X69279D01*
X68707Y56096D02*X68898Y55905D01*
X70117Y56476D02*Y55905D01*
Y56476D02*X70307Y56667D01*
X70498D01*
X70688Y56476D01*
Y55905D01*
X69926Y56667D02*X70117Y56476D01*
X71336Y55905D02*X71907D01*
X72098Y56096D01*
X71907Y56286D02*X72098Y56096D01*
X71336Y56286D02*X71907D01*
X71145Y56476D02*X71336Y56286D01*
X71145Y56476D02*X71336Y56667D01*
X71907D01*
X72098Y56476D01*
X71145Y56096D02*X71336Y55905D01*
X72555Y56858D02*X72746D01*
X72555Y56476D02*X72746D01*
X73889Y57238D02*X74079Y57429D01*
X74460D01*
X74651Y57238D01*
X74460Y55905D02*X74651Y56096D01*
X74079Y55905D02*X74460D01*
X73889Y56096D02*X74079Y55905D01*
Y56743D02*X74460D01*
X74651Y57238D02*Y56934D01*
Y56553D02*Y56096D01*
Y56553D02*X74460Y56743D01*
X74651Y56934D02*X74460Y56743D01*
X75108Y57238D02*X75298Y57429D01*
X75679D01*
X75870Y57238D01*
X75679Y55905D02*X75870Y56096D01*
X75298Y55905D02*X75679D01*
X75108Y56096D02*X75298Y55905D01*
Y56743D02*X75679D01*
X75870Y57238D02*Y56934D01*
Y56553D02*Y56096D01*
Y56553D02*X75679Y56743D01*
X75870Y56934D02*X75679Y56743D01*
X76327Y56476D02*X77089Y57429D01*
X76327Y56476D02*X77280D01*
X77089Y57429D02*Y55905D01*
X78308Y57429D02*X78499Y57238D01*
X77927Y57429D02*X78308D01*
X77737Y57238D02*X77927Y57429D01*
X77737Y57238D02*Y56096D01*
X77927Y55905D01*
X78308Y56743D02*X78499Y56553D01*
X77737Y56743D02*X78308D01*
X77927Y55905D02*X78308D01*
X78499Y56096D01*
Y56553D02*Y56096D01*
X78956Y55905D02*X79146D01*
X79604Y56476D02*X80366Y57429D01*
X79604Y56476D02*X80556D01*
X80366Y57429D02*Y55905D01*
X81013Y57429D02*X81775D01*
X81013D02*Y56667D01*
X81204Y56858D01*
X81585D01*
X81775Y56667D01*
Y56096D01*
X81585Y55905D02*X81775Y56096D01*
X81204Y55905D02*X81585D01*
X81013Y56096D02*X81204Y55905D01*
X82804Y57429D02*X82995Y57238D01*
X82423Y57429D02*X82804D01*
X82233Y57238D02*X82423Y57429D01*
X82233Y57238D02*Y56096D01*
X82423Y55905D01*
X82804Y56743D02*X82995Y56553D01*
X82233Y56743D02*X82804D01*
X82423Y55905D02*X82804D01*
X82995Y56096D01*
Y56553D02*Y56096D01*
X84023Y57429D02*X84214Y57238D01*
X83642Y57429D02*X84023D01*
X83452Y57238D02*X83642Y57429D01*
X83452Y57238D02*Y56096D01*
X83642Y55905D01*
X84023Y56743D02*X84214Y56553D01*
X83452Y56743D02*X84023D01*
X83642Y55905D02*X84023D01*
X84214Y56096D01*
Y56553D02*Y56096D01*
X84861Y55905D02*X85433Y56667D01*
Y57238D02*Y56667D01*
X85242Y57429D02*X85433Y57238D01*
X84861Y57429D02*X85242D01*
X84671Y57238D02*X84861Y57429D01*
X84671Y57238D02*Y56858D01*
X84861Y56667D01*
X85433D01*
X85890Y57238D02*X86081Y57429D01*
X86462D01*
X86652Y57238D01*
X86462Y55905D02*X86652Y56096D01*
X86081Y55905D02*X86462D01*
X85890Y56096D02*X86081Y55905D01*
Y56743D02*X86462D01*
X86652Y57238D02*Y56934D01*
Y56553D02*Y56096D01*
Y56553D02*X86462Y56743D01*
X86652Y56934D02*X86462Y56743D01*
X87986Y56476D02*Y55905D01*
Y56476D02*X88176Y56667D01*
X88367D01*
X88557Y56476D01*
Y55905D01*
Y56476D02*X88748Y56667D01*
X88938D01*
X89129Y56476D01*
Y55905D01*
X87795Y56667D02*X87986Y56476D01*
G54D124*X89586Y57048D02*Y57010D01*
G54D123*Y56476D02*Y55905D01*
X89967Y57429D02*Y56096D01*
X90157Y55905D01*
X90729D02*X91300D01*
X91491Y56096D01*
X91300Y56286D02*X91491Y56096D01*
X90729Y56286D02*X91300D01*
X90538Y56476D02*X90729Y56286D01*
X90538Y56476D02*X90729Y56667D01*
X91300D01*
X91491Y56476D01*
X90538Y56096D02*X90729Y55905D01*
X92634Y56667D02*Y56096D01*
X92824Y55905D01*
X93015D01*
X93205Y56096D01*
Y56667D02*Y56096D01*
X93396Y55905D01*
X93586D01*
X93777Y56096D01*
Y56667D02*Y56096D01*
G54D124*X94234Y57048D02*Y57010D01*
G54D123*Y56476D02*Y55905D01*
X95377Y57429D02*Y55905D01*
X95187D02*X95377Y56096D01*
X94806Y55905D02*X95187D01*
X94615Y56096D02*X94806Y55905D01*
X94615Y56476D02*Y56096D01*
Y56476D02*X94806Y56667D01*
X95187D01*
X95377Y56476D01*
X96025Y55905D02*X96596D01*
X95834Y56096D02*X96025Y55905D01*
X95834Y56476D02*Y56096D01*
Y56476D02*X96025Y56667D01*
X96406D01*
X96596Y56476D01*
X95834Y56286D02*X96596D01*
Y56476D02*Y56286D01*
X97053Y55524D02*X97434Y55905D01*
X98577Y57238D02*X98768Y57429D01*
X99339D01*
X99530Y57238D01*
Y56858D01*
X98577Y55905D02*X99530Y56858D01*
X98577Y55905D02*X99530D01*
X99987Y57124D02*X100292Y57429D01*
Y55905D01*
X99987D02*X100559D01*
X101016Y57238D02*X101206Y57429D01*
X101778D01*
X101968Y57238D01*
Y56858D01*
X101016Y55905D02*X101968Y56858D01*
X101016Y55905D02*X101968D01*
X102426Y57429D02*X103188D01*
X102426D02*Y56667D01*
X102616Y56858D01*
X102997D01*
X103188Y56667D01*
Y56096D01*
X102997Y55905D02*X103188Y56096D01*
X102616Y55905D02*X102997D01*
X102426Y56096D02*X102616Y55905D01*
X103645D02*X103835D01*
X104483D02*X105054Y56667D01*
Y57238D02*Y56667D01*
X104864Y57429D02*X105054Y57238D01*
X104483Y57429D02*X104864D01*
X104292Y57238D02*X104483Y57429D01*
X104292Y57238D02*Y56858D01*
X104483Y56667D01*
X105054D01*
X105512Y56096D02*X105702Y55905D01*
X105512Y56400D02*Y56096D01*
Y56400D02*X105778Y56667D01*
X106007D01*
X106274Y56400D01*
Y56096D01*
X106083Y55905D02*X106274Y56096D01*
X105702Y55905D02*X106083D01*
X105512Y56934D02*X105778Y56667D01*
X105512Y57238D02*Y56934D01*
Y57238D02*X105702Y57429D01*
X106083D01*
X106274Y57238D01*
Y56934D01*
X106007Y56667D02*X106274Y56934D01*
X106731Y56476D02*X107493Y57429D01*
X106731Y56476D02*X107683D01*
X107493Y57429D02*Y55905D01*
X108141Y57238D02*X108331Y57429D01*
X108903D01*
X109093Y57238D01*
Y56858D01*
X108141Y55905D02*X109093Y56858D01*
X108141Y55905D02*X109093D01*
X109550Y57429D02*X110312D01*
X109550D02*Y56667D01*
X109741Y56858D01*
X110122D01*
X110312Y56667D01*
Y56096D01*
X110122Y55905D02*X110312Y56096D01*
X109741Y55905D02*X110122D01*
X109550Y56096D02*X109741Y55905D01*
X110769Y57238D02*X110960Y57429D01*
X111531D01*
X111722Y57238D01*
Y56858D01*
X110769Y55905D02*X111722Y56858D01*
X110769Y55905D02*X111722D01*
X113055Y56476D02*Y55905D01*
Y56476D02*X113246Y56667D01*
X113436D01*
X113627Y56476D01*
Y55905D01*
Y56476D02*X113817Y56667D01*
X114008D01*
X114198Y56476D01*
Y55905D01*
X112865Y56667D02*X113055Y56476D01*
G54D124*X114656Y57048D02*Y57010D01*
G54D123*Y56476D02*Y55905D01*
X115037Y57429D02*Y56096D01*
X115227Y55905D01*
X115799D02*X116370D01*
X116561Y56096D01*
X116370Y56286D02*X116561Y56096D01*
X115799Y56286D02*X116370D01*
X115608Y56476D02*X115799Y56286D01*
X115608Y56476D02*X115799Y56667D01*
X116370D01*
X116561Y56476D01*
X115608Y56096D02*X115799Y55905D01*
X117704Y57429D02*Y55905D01*
Y56476D02*X117894Y56667D01*
X118275D01*
X118466Y56476D01*
Y55905D01*
G54D124*X118923Y57048D02*Y57010D01*
G54D123*Y56476D02*Y55905D01*
X119875Y56667D02*X120066Y56476D01*
X119494Y56667D02*X119875D01*
X119304Y56476D02*X119494Y56667D01*
X119304Y56476D02*Y56096D01*
X119494Y55905D01*
X119875D01*
X120066Y56096D01*
X119304Y55524D02*X119494Y55334D01*
X119875D01*
X120066Y55524D01*
Y56667D02*Y55524D01*
X120523Y57429D02*Y55905D01*
Y56476D02*X120714Y56667D01*
X121095D01*
X121285Y56476D01*
Y55905D01*
X0Y-2413D02*X762D01*
X952Y-2222D01*
Y-1765D02*Y-2222D01*
X762Y-1575D02*X952Y-1765D01*
X190Y-1575D02*X762D01*
X190Y-889D02*Y-2413D01*
X0Y-889D02*X762D01*
X952Y-1080D01*
Y-1384D01*
X762Y-1575D02*X952Y-1384D01*
X1410Y-1842D02*Y-2222D01*
Y-1842D02*X1600Y-1651D01*
X1981D01*
X2172Y-1842D01*
Y-2222D01*
X1981Y-2413D02*X2172Y-2222D01*
X1600Y-2413D02*X1981D01*
X1410Y-2222D02*X1600Y-2413D01*
X3200Y-1651D02*X3391Y-1842D01*
X2819Y-1651D02*X3200D01*
X2629Y-1842D02*X2819Y-1651D01*
X2629Y-1842D02*Y-2222D01*
X2819Y-2413D01*
X3391Y-1651D02*Y-2222D01*
X3581Y-2413D01*
X2819D02*X3200D01*
X3391Y-2222D01*
X4229Y-1842D02*Y-2413D01*
Y-1842D02*X4420Y-1651D01*
X4801D01*
X4039D02*X4229Y-1842D01*
X6020Y-889D02*Y-2413D01*
X5829D02*X6020Y-2222D01*
X5448Y-2413D02*X5829D01*
X5258Y-2222D02*X5448Y-2413D01*
X5258Y-1842D02*Y-2222D01*
Y-1842D02*X5448Y-1651D01*
X5829D01*
X6020Y-1842D01*
X7163D02*Y-2222D01*
Y-1842D02*X7353Y-1651D01*
X7734D01*
X7925Y-1842D01*
Y-2222D01*
X7734Y-2413D02*X7925Y-2222D01*
X7353Y-2413D02*X7734D01*
X7163Y-2222D02*X7353Y-2413D01*
X8382Y-1651D02*Y-2222D01*
X8573Y-2413D01*
X8954D01*
X9144Y-2222D01*
Y-1651D02*Y-2222D01*
X9792Y-889D02*Y-2222D01*
X9982Y-2413D01*
X9601Y-1460D02*X9982D01*
X10363Y-889D02*Y-2222D01*
X10554Y-2413D01*
G54D124*X10935Y-1270D02*Y-1308D01*
G54D123*Y-1842D02*Y-2413D01*
X11506Y-1842D02*Y-2413D01*
Y-1842D02*X11697Y-1651D01*
X11887D01*
X12078Y-1842D01*
Y-2413D01*
X11316Y-1651D02*X11506Y-1842D01*
X12725Y-2413D02*X13297D01*
X12535Y-2222D02*X12725Y-2413D01*
X12535Y-1842D02*Y-2222D01*
Y-1842D02*X12725Y-1651D01*
X13106D01*
X13297Y-1842D01*
X12535Y-2032D02*X13297D01*
Y-1842D02*Y-2032D01*
G54D124*X14440Y-1270D02*Y-1308D01*
G54D123*Y-1842D02*Y-2413D01*
X15011D02*X15583D01*
X15773Y-2222D01*
X15583Y-2032D02*X15773Y-2222D01*
X15011Y-2032D02*X15583D01*
X14821Y-1842D02*X15011Y-2032D01*
X14821Y-1842D02*X15011Y-1651D01*
X15583D01*
X15773Y-1842D01*
X14821Y-2222D02*X15011Y-2413D01*
X17107Y-889D02*Y-2222D01*
X17297Y-2413D01*
X16916Y-1460D02*X17297D01*
X17678Y-889D02*Y-2413D01*
Y-1842D02*X17869Y-1651D01*
X18250D01*
X18440Y-1842D01*
Y-2413D01*
X19088D02*X19660D01*
X18898Y-2222D02*X19088Y-2413D01*
X18898Y-1842D02*Y-2222D01*
Y-1842D02*X19088Y-1651D01*
X19469D01*
X19660Y-1842D01*
X18898Y-2032D02*X19660D01*
Y-1842D02*Y-2032D01*
X20993Y-1651D02*X21565D01*
X20803Y-1842D02*X20993Y-1651D01*
X20803Y-1842D02*Y-2222D01*
X20993Y-2413D01*
X21565D01*
X22212D02*X22784D01*
X22022Y-2222D02*X22212Y-2413D01*
X22022Y-1842D02*Y-2222D01*
Y-1842D02*X22212Y-1651D01*
X22593D01*
X22784Y-1842D01*
X22022Y-2032D02*X22784D01*
Y-1842D02*Y-2032D01*
X23432Y-1842D02*Y-2413D01*
Y-1842D02*X23622Y-1651D01*
X23813D01*
X24003Y-1842D01*
Y-2413D01*
X23241Y-1651D02*X23432Y-1842D01*
X24651Y-889D02*Y-2222D01*
X24841Y-2413D01*
X24460Y-1460D02*X24841D01*
X25413Y-2413D02*X25984D01*
X25222Y-2222D02*X25413Y-2413D01*
X25222Y-1842D02*Y-2222D01*
Y-1842D02*X25413Y-1651D01*
X25794D01*
X25984Y-1842D01*
X25222Y-2032D02*X25984D01*
Y-1842D02*Y-2032D01*
X26632Y-1842D02*Y-2413D01*
Y-1842D02*X26822Y-1651D01*
X27203D01*
X26441D02*X26632Y-1842D01*
X27661Y-889D02*Y-2222D01*
X27851Y-2413D01*
G54D124*X28232Y-1270D02*Y-1308D01*
G54D123*Y-1842D02*Y-2413D01*
X28804Y-1842D02*Y-2413D01*
Y-1842D02*X28994Y-1651D01*
X29185D01*
X29375Y-1842D01*
Y-2413D01*
X28613Y-1651D02*X28804Y-1842D01*
X30023Y-2413D02*X30594D01*
X29832Y-2222D02*X30023Y-2413D01*
X29832Y-1842D02*Y-2222D01*
Y-1842D02*X30023Y-1651D01*
X30404D01*
X30594Y-1842D01*
X29832Y-2032D02*X30594D01*
Y-1842D02*Y-2032D01*
X31737Y-1842D02*Y-2222D01*
Y-1842D02*X31928Y-1651D01*
X32309D01*
X32499Y-1842D01*
Y-2222D01*
X32309Y-2413D02*X32499Y-2222D01*
X31928Y-2413D02*X32309D01*
X31737Y-2222D02*X31928Y-2413D01*
X33147Y-1080D02*Y-2413D01*
Y-1080D02*X33338Y-889D01*
X33528D01*
X32957Y-1651D02*X33338D01*
X34785Y-889D02*Y-2222D01*
X34976Y-2413D01*
X34595Y-1460D02*X34976D01*
X35357Y-889D02*Y-2413D01*
Y-1842D02*X35547Y-1651D01*
X35928D01*
X36119Y-1842D01*
Y-2413D01*
G54D124*X36576Y-1270D02*Y-1308D01*
G54D123*Y-1842D02*Y-2413D01*
X37148D02*X37719D01*
X37910Y-2222D01*
X37719Y-2032D02*X37910Y-2222D01*
X37148Y-2032D02*X37719D01*
X36957Y-1842D02*X37148Y-2032D01*
X36957Y-1842D02*X37148Y-1651D01*
X37719D01*
X37910Y-1842D01*
X36957Y-2222D02*X37148Y-2413D01*
X39053Y-2222D02*X39243Y-2413D01*
X39053Y-1918D02*Y-2222D01*
Y-1918D02*X39319Y-1651D01*
X39548D01*
X39815Y-1918D01*
Y-2222D01*
X39624Y-2413D02*X39815Y-2222D01*
X39243Y-2413D02*X39624D01*
X39053Y-1384D02*X39319Y-1651D01*
X39053Y-1080D02*Y-1384D01*
Y-1080D02*X39243Y-889D01*
X39624D01*
X39815Y-1080D01*
Y-1384D01*
X39548Y-1651D02*X39815Y-1384D01*
X40272Y-2413D02*X40462D01*
X40919Y-2222D02*X41110Y-2413D01*
X40919Y-1080D02*Y-2222D01*
Y-1080D02*X41110Y-889D01*
X41491D01*
X41681Y-1080D01*
Y-2222D01*
X41491Y-2413D02*X41681Y-2222D01*
X41110Y-2413D02*X41491D01*
X40919Y-2032D02*X41681Y-1270D01*
X42139Y-2222D02*X42329Y-2413D01*
X42139Y-1080D02*Y-2222D01*
Y-1080D02*X42329Y-889D01*
X42710D01*
X42901Y-1080D01*
Y-2222D01*
X42710Y-2413D02*X42901Y-2222D01*
X42329Y-2413D02*X42710D01*
X42139Y-2032D02*X42901Y-1270D01*
X43358Y-2222D02*X43548Y-2413D01*
X43358Y-1080D02*Y-2222D01*
Y-1080D02*X43548Y-889D01*
X43929D01*
X44120Y-1080D01*
Y-2222D01*
X43929Y-2413D02*X44120Y-2222D01*
X43548Y-2413D02*X43929D01*
X43358Y-2032D02*X44120Y-1270D01*
X44577Y-2222D02*X44768Y-2413D01*
X44577Y-1080D02*Y-2222D01*
Y-1080D02*X44768Y-889D01*
X45149D01*
X45339Y-1080D01*
Y-2222D01*
X45149Y-2413D02*X45339Y-2222D01*
X44768Y-2413D02*X45149D01*
X44577Y-2032D02*X45339Y-1270D01*
X45796Y-2222D02*X45987Y-2413D01*
X45796Y-1080D02*Y-2222D01*
Y-1080D02*X45987Y-889D01*
X46368D01*
X46558Y-1080D01*
Y-2222D01*
X46368Y-2413D02*X46558Y-2222D01*
X45987Y-2413D02*X46368D01*
X45796Y-2032D02*X46558Y-1270D01*
X47015Y-2222D02*X47206Y-2413D01*
X47015Y-1080D02*Y-2222D01*
Y-1080D02*X47206Y-889D01*
X47587D01*
X47777Y-1080D01*
Y-2222D01*
X47587Y-2413D02*X47777Y-2222D01*
X47206Y-2413D02*X47587D01*
X47015Y-2032D02*X47777Y-1270D01*
X49111Y-1842D02*Y-2413D01*
Y-1842D02*X49301Y-1651D01*
X49492D01*
X49682Y-1842D01*
Y-2413D01*
Y-1842D02*X49873Y-1651D01*
X50063D01*
X50254Y-1842D01*
Y-2413D01*
X48920Y-1651D02*X49111Y-1842D01*
G54D124*X50711Y-1270D02*Y-1308D01*
G54D123*Y-1842D02*Y-2413D01*
X51092Y-889D02*Y-2222D01*
X51283Y-2413D01*
X52540Y-1842D02*Y-2413D01*
Y-1842D02*X52730Y-1651D01*
X53111D01*
X52349D02*X52540Y-1842D01*
X53759Y-2413D02*X54331D01*
X53569Y-2222D02*X53759Y-2413D01*
X53569Y-1842D02*Y-2222D01*
Y-1842D02*X53759Y-1651D01*
X54140D01*
X54331Y-1842D01*
X53569Y-2032D02*X54331D01*
Y-1842D02*Y-2032D01*
X54978Y-1651D02*X55550D01*
X54788Y-1842D02*X54978Y-1651D01*
X54788Y-1842D02*Y-2222D01*
X54978Y-2413D01*
X55550D01*
X56198Y-889D02*Y-2222D01*
X56388Y-2413D01*
X56007Y-1460D02*X56388D01*
X57341Y-1651D02*X57531Y-1842D01*
X56960Y-1651D02*X57341D01*
X56769Y-1842D02*X56960Y-1651D01*
X56769Y-1842D02*Y-2222D01*
X56960Y-2413D01*
X57531Y-1651D02*Y-2222D01*
X57722Y-2413D01*
X56960D02*X57341D01*
X57531Y-2222D01*
X58369Y-1842D02*Y-2413D01*
Y-1842D02*X58560Y-1651D01*
X58750D01*
X58941Y-1842D01*
Y-2413D01*
X58179Y-1651D02*X58369Y-1842D01*
X59969Y-1651D02*X60160Y-1842D01*
X59588Y-1651D02*X59969D01*
X59398Y-1842D02*X59588Y-1651D01*
X59398Y-1842D02*Y-2222D01*
X59588Y-2413D01*
X59969D01*
X60160Y-2222D01*
X59398Y-2794D02*X59588Y-2984D01*
X59969D01*
X60160Y-2794D01*
Y-1651D02*Y-2794D01*
X60617Y-889D02*Y-2222D01*
X60808Y-2413D01*
X61379D02*X61951D01*
X61189Y-2222D02*X61379Y-2413D01*
X61189Y-1842D02*Y-2222D01*
Y-1842D02*X61379Y-1651D01*
X61760D01*
X61951Y-1842D01*
X61189Y-2032D02*X61951D01*
Y-1842D02*Y-2032D01*
X63094Y-1651D02*X63856D01*
X64999Y-2222D02*X65189Y-2413D01*
X64999Y-1080D02*Y-2222D01*
Y-1080D02*X65189Y-889D01*
X65570D01*
X65761Y-1080D01*
Y-2222D01*
X65570Y-2413D02*X65761Y-2222D01*
X65189Y-2413D02*X65570D01*
X64999Y-2032D02*X65761Y-1270D01*
X66218Y-2794D02*X66599Y-2413D01*
X67056Y-2222D02*X67247Y-2413D01*
X67056Y-1080D02*Y-2222D01*
Y-1080D02*X67247Y-889D01*
X67628D01*
X67818Y-1080D01*
Y-2222D01*
X67628Y-2413D02*X67818Y-2222D01*
X67247Y-2413D02*X67628D01*
X67056Y-2032D02*X67818Y-1270D01*
X69152Y-889D02*Y-2222D01*
X69342Y-2413D01*
X68961Y-1460D02*X69342D01*
X69723Y-1842D02*Y-2222D01*
Y-1842D02*X69914Y-1651D01*
X70295D01*
X70485Y-1842D01*
Y-2222D01*
X70295Y-2413D02*X70485Y-2222D01*
X69914Y-2413D02*X70295D01*
X69723Y-2222D02*X69914Y-2413D01*
X71628Y-1080D02*X71819Y-889D01*
X72200D01*
X72390Y-1080D01*
X72200Y-2413D02*X72390Y-2222D01*
X71819Y-2413D02*X72200D01*
X71628Y-2222D02*X71819Y-2413D01*
Y-1575D02*X72200D01*
X72390Y-1080D02*Y-1384D01*
Y-1765D02*Y-2222D01*
Y-1765D02*X72200Y-1575D01*
X72390Y-1384D02*X72200Y-1575D01*
X72847Y-1080D02*X73038Y-889D01*
X73419D01*
X73609Y-1080D01*
X73419Y-2413D02*X73609Y-2222D01*
X73038Y-2413D02*X73419D01*
X72847Y-2222D02*X73038Y-2413D01*
Y-1575D02*X73419D01*
X73609Y-1080D02*Y-1384D01*
Y-1765D02*Y-2222D01*
Y-1765D02*X73419Y-1575D01*
X73609Y-1384D02*X73419Y-1575D01*
X74066Y-1842D02*X74828Y-889D01*
X74066Y-1842D02*X75019D01*
X74828Y-889D02*Y-2413D01*
X76048Y-889D02*X76238Y-1080D01*
X75667Y-889D02*X76048D01*
X75476Y-1080D02*X75667Y-889D01*
X75476Y-1080D02*Y-2222D01*
X75667Y-2413D01*
X76048Y-1575D02*X76238Y-1765D01*
X75476Y-1575D02*X76048D01*
X75667Y-2413D02*X76048D01*
X76238Y-2222D01*
Y-1765D02*Y-2222D01*
X76695Y-2413D02*X76886D01*
X77343Y-1842D02*X78105Y-889D01*
X77343Y-1842D02*X78296D01*
X78105Y-889D02*Y-2413D01*
X78753Y-889D02*X79515D01*
X78753D02*Y-1651D01*
X78943Y-1460D01*
X79324D01*
X79515Y-1651D01*
Y-2222D01*
X79324Y-2413D02*X79515Y-2222D01*
X78943Y-2413D02*X79324D01*
X78753Y-2222D02*X78943Y-2413D01*
X80543Y-889D02*X80734Y-1080D01*
X80162Y-889D02*X80543D01*
X79972Y-1080D02*X80162Y-889D01*
X79972Y-1080D02*Y-2222D01*
X80162Y-2413D01*
X80543Y-1575D02*X80734Y-1765D01*
X79972Y-1575D02*X80543D01*
X80162Y-2413D02*X80543D01*
X80734Y-2222D01*
Y-1765D02*Y-2222D01*
X81763Y-889D02*X81953Y-1080D01*
X81382Y-889D02*X81763D01*
X81191Y-1080D02*X81382Y-889D01*
X81191Y-1080D02*Y-2222D01*
X81382Y-2413D01*
X81763Y-1575D02*X81953Y-1765D01*
X81191Y-1575D02*X81763D01*
X81382Y-2413D02*X81763D01*
X81953Y-2222D01*
Y-1765D02*Y-2222D01*
X82601Y-2413D02*X83172Y-1651D01*
Y-1080D02*Y-1651D01*
X82982Y-889D02*X83172Y-1080D01*
X82601Y-889D02*X82982D01*
X82410Y-1080D02*X82601Y-889D01*
X82410Y-1080D02*Y-1460D01*
X82601Y-1651D01*
X83172D01*
X83630Y-1080D02*X83820Y-889D01*
X84201D01*
X84392Y-1080D01*
X84201Y-2413D02*X84392Y-2222D01*
X83820Y-2413D02*X84201D01*
X83630Y-2222D02*X83820Y-2413D01*
Y-1575D02*X84201D01*
X84392Y-1080D02*Y-1384D01*
Y-1765D02*Y-2222D01*
Y-1765D02*X84201Y-1575D01*
X84392Y-1384D02*X84201Y-1575D01*
X84849Y-2794D02*X85230Y-2413D01*
X85687Y-1080D02*X85878Y-889D01*
X86449D01*
X86640Y-1080D01*
Y-1460D01*
X85687Y-2413D02*X86640Y-1460D01*
X85687Y-2413D02*X86640D01*
X87097Y-1194D02*X87402Y-889D01*
Y-2413D01*
X87097D02*X87668D01*
X88125Y-1080D02*X88316Y-889D01*
X88887D01*
X89078Y-1080D01*
Y-1460D01*
X88125Y-2413D02*X89078Y-1460D01*
X88125Y-2413D02*X89078D01*
X89535Y-889D02*X90297D01*
X89535D02*Y-1651D01*
X89726Y-1460D01*
X90107D01*
X90297Y-1651D01*
Y-2222D01*
X90107Y-2413D02*X90297Y-2222D01*
X89726Y-2413D02*X90107D01*
X89535Y-2222D02*X89726Y-2413D01*
X90754D02*X90945D01*
X91593D02*X92164Y-1651D01*
Y-1080D02*Y-1651D01*
X91974Y-889D02*X92164Y-1080D01*
X91593Y-889D02*X91974D01*
X91402Y-1080D02*X91593Y-889D01*
X91402Y-1080D02*Y-1460D01*
X91593Y-1651D01*
X92164D01*
X92621Y-2222D02*X92812Y-2413D01*
X92621Y-1918D02*Y-2222D01*
Y-1918D02*X92888Y-1651D01*
X93117D01*
X93383Y-1918D01*
Y-2222D01*
X93193Y-2413D02*X93383Y-2222D01*
X92812Y-2413D02*X93193D01*
X92621Y-1384D02*X92888Y-1651D01*
X92621Y-1080D02*Y-1384D01*
Y-1080D02*X92812Y-889D01*
X93193D01*
X93383Y-1080D01*
Y-1384D01*
X93117Y-1651D02*X93383Y-1384D01*
X93840Y-1842D02*X94602Y-889D01*
X93840Y-1842D02*X94793D01*
X94602Y-889D02*Y-2413D01*
X95250Y-1080D02*X95441Y-889D01*
X96012D01*
X96203Y-1080D01*
Y-1460D01*
X95250Y-2413D02*X96203Y-1460D01*
X95250Y-2413D02*X96203D01*
X96660Y-889D02*X97422D01*
X96660D02*Y-1651D01*
X96850Y-1460D01*
X97231D01*
X97422Y-1651D01*
Y-2222D01*
X97231Y-2413D02*X97422Y-2222D01*
X96850Y-2413D02*X97231D01*
X96660Y-2222D02*X96850Y-2413D01*
X97879Y-1080D02*X98070Y-889D01*
X98641D01*
X98832Y-1080D01*
Y-1460D01*
X97879Y-2413D02*X98832Y-1460D01*
X97879Y-2413D02*X98832D01*
X100165Y-1842D02*Y-2413D01*
Y-1842D02*X100356Y-1651D01*
X100546D01*
X100737Y-1842D01*
Y-2413D01*
Y-1842D02*X100927Y-1651D01*
X101118D01*
X101308Y-1842D01*
Y-2413D01*
X99975Y-1651D02*X100165Y-1842D01*
G54D124*X101765Y-1270D02*Y-1308D01*
G54D123*Y-1842D02*Y-2413D01*
X102146Y-889D02*Y-2222D01*
X102337Y-2413D01*
X102908D02*X103480D01*
X103670Y-2222D01*
X103480Y-2032D02*X103670Y-2222D01*
X102908Y-2032D02*X103480D01*
X102718Y-1842D02*X102908Y-2032D01*
X102718Y-1842D02*X102908Y-1651D01*
X103480D01*
X103670Y-1842D01*
X102718Y-2222D02*X102908Y-2413D01*
X50990Y61239D02*Y59715D01*
X51486Y61239D02*X51752Y60972D01*
Y59982D01*
X51486Y59715D02*X51752Y59982D01*
X50800Y59715D02*X51486D01*
X50800Y61239D02*X51486D01*
X52781Y60477D02*X52972Y60286D01*
X52400Y60477D02*X52781D01*
X52210Y60286D02*X52400Y60477D01*
X52210Y60286D02*Y59906D01*
X52400Y59715D01*
X52972Y60477D02*Y59906D01*
X53162Y59715D01*
X52400D02*X52781D01*
X52972Y59906D01*
X53810Y61239D02*Y59906D01*
X54000Y59715D01*
X53619Y60668D02*X54000D01*
X54572Y59715D02*X55143D01*
X54381Y59906D02*X54572Y59715D01*
X54381Y60286D02*Y59906D01*
Y60286D02*X54572Y60477D01*
X54953D01*
X55143Y60286D01*
X54381Y60096D02*X55143D01*
Y60286D02*Y60096D01*
X55601Y60668D02*X55791D01*
X55601Y60286D02*X55791D01*
X56934Y61239D02*Y59715D01*
Y61239D02*X57696D01*
X56934Y60553D02*X57506D01*
X58344Y60286D02*Y59715D01*
Y60286D02*X58534Y60477D01*
X58915D01*
X58153D02*X58344Y60286D01*
G54D124*X59373Y60858D02*Y60820D01*
G54D123*Y60286D02*Y59715D01*
X60439Y61048D02*X60630Y61239D01*
X61201D01*
X61392Y61048D01*
Y60668D01*
X60439Y59715D02*X61392Y60668D01*
X60439Y59715D02*X61392D01*
X62040D02*X62802Y61239D01*
X61849D02*X62802D01*
X64211D02*X64516D01*
Y59906D01*
X64326Y59715D02*X64516Y59906D01*
X64135Y59715D02*X64326D01*
X63945Y59906D02*X64135Y59715D01*
X63945Y60096D02*Y59906D01*
X64973Y60477D02*Y59906D01*
X65164Y59715D01*
X65545D01*
X65735Y59906D01*
Y60477D02*Y59906D01*
X66192Y61239D02*Y59906D01*
X66383Y59715D01*
X67450Y61048D02*X67640Y61239D01*
X68212D01*
X68402Y61048D01*
Y60668D01*
X67450Y59715D02*X68402Y60668D01*
X67450Y59715D02*X68402D01*
X68859Y59906D02*X69050Y59715D01*
X68859Y61048D02*Y59906D01*
Y61048D02*X69050Y61239D01*
X69431D01*
X69621Y61048D01*
Y59906D01*
X69431Y59715D02*X69621Y59906D01*
X69050Y59715D02*X69431D01*
X68859Y60096D02*X69621Y60858D01*
X70079Y60934D02*X70383Y61239D01*
Y59715D01*
X70079D02*X70650D01*
X71107Y59906D02*X71298Y59715D01*
X71107Y60210D02*Y59906D01*
Y60210D02*X71374Y60477D01*
X71603D01*
X71869Y60210D01*
Y59906D01*
X71679Y59715D02*X71869Y59906D01*
X71298Y59715D02*X71679D01*
X71107Y60744D02*X71374Y60477D01*
X71107Y61048D02*Y60744D01*
Y61048D02*X71298Y61239D01*
X71679D01*
X71869Y61048D01*
Y60744D01*
X71603Y60477D02*X71869Y60744D01*
X73012Y59906D02*X73203Y59715D01*
X73012Y61048D02*Y59906D01*
Y61048D02*X73203Y61239D01*
X73584D01*
X73774Y61048D01*
Y59906D01*
X73584Y59715D02*X73774Y59906D01*
X73203Y59715D02*X73584D01*
X73012Y60096D02*X73774Y60858D01*
X74232Y61239D02*X74994D01*
X74232D02*Y60477D01*
X74422Y60668D01*
X74803D01*
X74994Y60477D01*
Y59906D01*
X74803Y59715D02*X74994Y59906D01*
X74422Y59715D02*X74803D01*
X74232Y59906D02*X74422Y59715D01*
X75451Y60668D02*X75641D01*
X75451Y60286D02*X75641D01*
X76098Y60934D02*X76403Y61239D01*
Y59715D01*
X76098D02*X76670D01*
X77318D02*X78080Y61239D01*
X77127D02*X78080D01*
X78537Y60668D02*X78727D01*
X78537Y60286D02*X78727D01*
X79185Y61239D02*X79947D01*
X79185D02*Y60477D01*
X79375Y60668D01*
X79756D01*
X79947Y60477D01*
Y59906D01*
X79756Y59715D02*X79947Y59906D01*
X79375Y59715D02*X79756D01*
X79185Y59906D02*X79375Y59715D01*
X80594D02*X81166Y60477D01*
Y61048D02*Y60477D01*
X80975Y61239D02*X81166Y61048D01*
X80594Y61239D02*X80975D01*
X80404Y61048D02*X80594Y61239D01*
X80404Y61048D02*Y60668D01*
X80594Y60477D01*
X81166D01*
X82499Y61239D02*Y59715D01*
X82309Y61239D02*X83071D01*
X83261Y61048D01*
Y60668D01*
X83071Y60477D02*X83261Y60668D01*
X82499Y60477D02*X83071D01*
X83718Y61239D02*Y59715D01*
Y61239D02*X84290Y60477D01*
X84861Y61239D01*
Y59715D01*
X86766Y61239D02*X86957Y61048D01*
X86195Y61239D02*X86766D01*
X86004Y61048D02*X86195Y61239D01*
X86004Y61048D02*Y59906D01*
X86195Y59715D01*
X86766D01*
X86957Y59906D01*
Y60286D02*Y59906D01*
X86766Y60477D02*X86957Y60286D01*
X86385Y60477D02*X86766D01*
X87414Y61239D02*Y59715D01*
Y61239D02*X87986Y60477D01*
X88557Y61239D01*
Y59715D01*
X89014Y61239D02*X89776D01*
X89395D02*Y59715D01*
X90919Y61239D02*Y59906D01*
X91110Y59715D01*
X91491D01*
X91681Y59906D01*
Y61239D02*Y59906D01*
X92139Y61239D02*X92901D01*
X92520D02*Y59715D01*
X93624D02*X94120D01*
X93358Y59982D02*X93624Y59715D01*
X93358Y60972D02*Y59982D01*
Y60972D02*X93624Y61239D01*
X94120D01*
X50800Y64668D02*Y63525D01*
Y64668D02*X51067Y65049D01*
X51486D01*
X51752Y64668D01*
Y63525D01*
X50800Y64287D02*X51752D01*
X52210D02*Y63716D01*
X52400Y63525D01*
X52781D01*
X52972Y63716D01*
Y64287D02*Y63716D01*
X53619Y65049D02*Y63716D01*
X53810Y63525D01*
X53429Y64478D02*X53810D01*
X54191Y65049D02*Y63525D01*
Y64097D02*X54381Y64287D01*
X54762D01*
X54953Y64097D01*
Y63525D01*
X55410Y64097D02*Y63716D01*
Y64097D02*X55601Y64287D01*
X55982D01*
X56172Y64097D01*
Y63716D01*
X55982Y63525D02*X56172Y63716D01*
X55601Y63525D02*X55982D01*
X55410Y63716D02*X55601Y63525D01*
X56820Y64097D02*Y63525D01*
Y64097D02*X57010Y64287D01*
X57391D01*
X56629D02*X56820Y64097D01*
X57849Y64478D02*X58039D01*
X57849Y64097D02*X58039D01*
X59182Y64668D02*Y63525D01*
Y64668D02*X59449Y65049D01*
X59868D01*
X60135Y64668D01*
Y63525D01*
X59182Y64287D02*X60135D01*
X61354Y65049D02*Y63525D01*
X61163D02*X61354Y63716D01*
X60782Y63525D02*X61163D01*
X60592Y63716D02*X60782Y63525D01*
X60592Y64097D02*Y63716D01*
Y64097D02*X60782Y64287D01*
X61163D01*
X61354Y64097D01*
X62382Y64287D02*X62573Y64097D01*
X62001Y64287D02*X62382D01*
X61811Y64097D02*X62001Y64287D01*
X61811Y64097D02*Y63716D01*
X62001Y63525D01*
X62573Y64287D02*Y63716D01*
X62763Y63525D01*
X62001D02*X62382D01*
X62573Y63716D01*
X63411Y64097D02*Y63525D01*
Y64097D02*X63602Y64287D01*
X63792D01*
X63983Y64097D01*
Y63525D01*
Y64097D02*X64173Y64287D01*
X64364D01*
X64554Y64097D01*
Y63525D01*
X63221Y64287D02*X63411Y64097D01*
X50800Y68859D02*X51562D01*
X51181D02*Y67335D01*
G54D124*X52019Y68478D02*Y68440D01*
G54D123*Y67906D02*Y67335D01*
X52591Y68859D02*Y67526D01*
X52781Y67335D01*
X52400Y68288D02*X52781D01*
X53162Y68859D02*Y67526D01*
X53353Y67335D01*
X53924D02*X54496D01*
X53734Y67526D02*X53924Y67335D01*
X53734Y67906D02*Y67526D01*
Y67906D02*X53924Y68097D01*
X54305D01*
X54496Y67906D01*
X53734Y67716D02*X54496D01*
Y67906D02*Y67716D01*
X54953Y68288D02*X55143D01*
X54953Y67906D02*X55143D01*
X56477Y67335D02*X57048Y68097D01*
Y68668D02*Y68097D01*
X56858Y68859D02*X57048Y68668D01*
X56477Y68859D02*X56858D01*
X56286Y68668D02*X56477Y68859D01*
X56286Y68668D02*Y68288D01*
X56477Y68097D01*
X57048D01*
X58077Y68859D02*X58268Y68668D01*
X57696Y68859D02*X58077D01*
X57506Y68668D02*X57696Y68859D01*
X57506Y68668D02*Y67526D01*
X57696Y67335D01*
X58077Y68173D02*X58268Y67983D01*
X57506Y68173D02*X58077D01*
X57696Y67335D02*X58077D01*
X58268Y67526D01*
Y67983D02*Y67526D01*
X58725Y67335D02*X59487D01*
X59677Y67526D01*
Y67983D02*Y67526D01*
X59487Y68173D02*X59677Y67983D01*
X58915Y68173D02*X59487D01*
X58915Y68859D02*Y67335D01*
X58725Y68859D02*X59487D01*
X59677Y68668D01*
Y68364D01*
X59487Y68173D02*X59677Y68364D01*
X60135Y67906D02*Y67526D01*
Y67906D02*X60325Y68097D01*
X60706D01*
X60897Y67906D01*
Y67526D01*
X60706Y67335D02*X60897Y67526D01*
X60325Y67335D02*X60706D01*
X60135Y67526D02*X60325Y67335D01*
X61925Y68097D02*X62116Y67906D01*
X61544Y68097D02*X61925D01*
X61354Y67906D02*X61544Y68097D01*
X61354Y67906D02*Y67526D01*
X61544Y67335D01*
X62116Y68097D02*Y67526D01*
X62306Y67335D01*
X61544D02*X61925D01*
X62116Y67526D01*
X62954Y67906D02*Y67335D01*
Y67906D02*X63144Y68097D01*
X63525D01*
X62763D02*X62954Y67906D01*
X64745Y68859D02*Y67335D01*
X64554D02*X64745Y67526D01*
X64173Y67335D02*X64554D01*
X63983Y67526D02*X64173Y67335D01*
X63983Y67906D02*Y67526D01*
Y67906D02*X64173Y68097D01*
X64554D01*
X64745Y67906D01*
X65392Y67335D02*X65964D01*
X66154Y67526D01*
X65964Y67716D02*X66154Y67526D01*
X65392Y67716D02*X65964D01*
X65202Y67906D02*X65392Y67716D01*
X65202Y67906D02*X65392Y68097D01*
X65964D01*
X66154Y67906D01*
X65202Y67526D02*X65392Y67335D01*
X67564D02*X68059D01*
X67297Y67602D02*X67564Y67335D01*
X67297Y68592D02*Y67602D01*
Y68592D02*X67564Y68859D01*
X68059D01*
X68517Y68173D02*X69088D01*
X68517Y67335D02*X69279D01*
X68517Y68859D02*Y67335D01*
Y68859D02*X69279D01*
X70422D02*X71184D01*
X70803D02*Y67335D01*
X71641Y68859D02*Y67335D01*
Y67906D02*X71831Y68097D01*
X72212D01*
X72403Y67906D01*
Y67335D01*
X73050Y67906D02*Y67335D01*
Y67906D02*X73241Y68097D01*
X73622D01*
X72860D02*X73050Y67906D01*
X74079D02*Y67526D01*
Y67906D02*X74270Y68097D01*
X74651D01*
X74841Y67906D01*
Y67526D01*
X74651Y67335D02*X74841Y67526D01*
X74270Y67335D02*X74651D01*
X74079Y67526D02*X74270Y67335D01*
X75298Y68097D02*Y67526D01*
X75489Y67335D01*
X75870D01*
X76060Y67526D01*
Y68097D02*Y67526D01*
X77089Y68097D02*X77280Y67906D01*
X76708Y68097D02*X77089D01*
X76518Y67906D02*X76708Y68097D01*
X76518Y67906D02*Y67526D01*
X76708Y67335D01*
X77089D01*
X77280Y67526D01*
X76518Y66954D02*X76708Y66764D01*
X77089D01*
X77280Y66954D01*
Y68097D02*Y66954D01*
X77737Y68859D02*Y67335D01*
Y67906D02*X77927Y68097D01*
X78308D01*
X78499Y67906D01*
Y67335D01*
X79642Y68859D02*Y67335D01*
X80594Y68859D02*Y67335D01*
X79642Y68097D02*X80594D01*
X81051Y67906D02*Y67526D01*
Y67906D02*X81242Y68097D01*
X81623D01*
X81813Y67906D01*
Y67526D01*
X81623Y67335D02*X81813Y67526D01*
X81242Y67335D02*X81623D01*
X81051Y67526D02*X81242Y67335D01*
X82271Y68859D02*Y67526D01*
X82461Y67335D01*
X83033D02*X83604D01*
X82842Y67526D02*X83033Y67335D01*
X82842Y67906D02*Y67526D01*
Y67906D02*X83033Y68097D01*
X83414D01*
X83604Y67906D01*
X82842Y67716D02*X83604D01*
Y67906D02*Y67716D01*
X84747Y68859D02*Y67335D01*
X85509D01*
X86728Y68859D02*X86919Y68668D01*
X86157Y68859D02*X86728D01*
X85966Y68668D02*X86157Y68859D01*
X85966Y68668D02*Y68288D01*
X86157Y68097D01*
X86728D01*
X86919Y67906D01*
Y67526D01*
X86728Y67335D02*X86919Y67526D01*
X86157Y67335D02*X86728D01*
X85966Y67526D02*X86157Y67335D01*
X88062Y68097D02*X88824D01*
X89967Y68859D02*Y67335D01*
Y68859D02*X90729D01*
X89967Y68173D02*X90538D01*
X91758Y68097D02*X91948Y67906D01*
X91377Y68097D02*X91758D01*
X91186Y67906D02*X91377Y68097D01*
X91186Y67906D02*Y67526D01*
X91377Y67335D01*
X91948Y68097D02*Y67526D01*
X92139Y67335D01*
X91377D02*X91758D01*
X91948Y67526D01*
X92596Y68859D02*Y67335D01*
Y67526D02*X92786Y67335D01*
X93167D01*
X93358Y67526D01*
Y67906D02*Y67526D01*
X93167Y68097D02*X93358Y67906D01*
X92786Y68097D02*X93167D01*
X92596Y67906D02*X92786Y68097D01*
X94005Y67906D02*Y67335D01*
Y67906D02*X94196Y68097D01*
X94577D01*
X93815D02*X94005Y67906D01*
G54D124*X95034Y68478D02*Y68440D01*
G54D123*Y67906D02*Y67335D01*
X95606Y68097D02*X96177D01*
X95415Y67906D02*X95606Y68097D01*
X95415Y67906D02*Y67526D01*
X95606Y67335D01*
X96177D01*
X97206Y68097D02*X97396Y67906D01*
X96825Y68097D02*X97206D01*
X96634Y67906D02*X96825Y68097D01*
X96634Y67906D02*Y67526D01*
X96825Y67335D01*
X97396Y68097D02*Y67526D01*
X97587Y67335D01*
X96825D02*X97206D01*
X97396Y67526D01*
X98235Y68859D02*Y67526D01*
X98425Y67335D01*
X98044Y68288D02*X98425D01*
G54D124*X98806Y68478D02*Y68440D01*
G54D123*Y67906D02*Y67335D01*
X99187Y67906D02*Y67526D01*
Y67906D02*X99378Y68097D01*
X99759D01*
X99949Y67906D01*
Y67526D01*
X99759Y67335D02*X99949Y67526D01*
X99378Y67335D02*X99759D01*
X99187Y67526D02*X99378Y67335D01*
X100597Y67906D02*Y67335D01*
Y67906D02*X100787Y68097D01*
X100978D01*
X101168Y67906D01*
Y67335D01*
X100406Y68097D02*X100597Y67906D01*
X102502Y68859D02*Y67335D01*
X102997Y68859D02*X103264Y68592D01*
Y67602D01*
X102997Y67335D02*X103264Y67602D01*
X102311Y67335D02*X102997D01*
X102311Y68859D02*X102997D01*
X103911Y67906D02*Y67335D01*
Y67906D02*X104102Y68097D01*
X104483D01*
X103721D02*X103911Y67906D01*
X105512Y68097D02*X105702Y67906D01*
X105131Y68097D02*X105512D01*
X104940Y67906D02*X105131Y68097D01*
X104940Y67906D02*Y67526D01*
X105131Y67335D01*
X105702Y68097D02*Y67526D01*
X105893Y67335D01*
X105131D02*X105512D01*
X105702Y67526D01*
X106350Y68097D02*Y67526D01*
X106540Y67335D01*
X106731D01*
X106921Y67526D01*
Y68097D02*Y67526D01*
X107112Y67335D01*
X107302D01*
X107493Y67526D01*
Y68097D02*Y67526D01*
G54D124*X107950Y68478D02*Y68440D01*
G54D123*Y67906D02*Y67335D01*
X108522Y67906D02*Y67335D01*
Y67906D02*X108712Y68097D01*
X108903D01*
X109093Y67906D01*
Y67335D01*
X108331Y68097D02*X108522Y67906D01*
X110122Y68097D02*X110312Y67906D01*
X109741Y68097D02*X110122D01*
X109550Y67906D02*X109741Y68097D01*
X109550Y67906D02*Y67526D01*
X109741Y67335D01*
X110122D01*
X110312Y67526D01*
X109550Y66954D02*X109741Y66764D01*
X110122D01*
X110312Y66954D01*
Y68097D02*Y66954D01*
M02*
