G04 start of page 9 for group -4078 idx -4078 *
G04 Title: 96Boards CE Through Hole LS, bottomsilk *
G04 Creator: pcb 20140316 *
G04 CreationDate: Fri 27 Jul 2018 05:17:59 PM GMT UTC *
G04 For: adam *
G04 Format: Gerber/RS-274X *
G04 PCB-Dimensions (mm): 85.00 54.00 *
G04 PCB-Coordinate-Origin: lower left *
%MOMM*%
%FSLAX43Y43*%
%LNBOTTOMSILK*%
%ADD105C,0.200*%
%ADD104C,0.400*%
%ADD103C,0.500*%
%ADD102C,0.250*%
G54D102*X36350Y7500D02*X75650D01*
X36350Y500D02*X75650D01*
Y7500D02*Y500D01*
X36350Y7500D02*Y500D01*
G54D103*X75000Y8050D02*G75*G03X75000Y8050I0J200D01*G01*
G54D102*X37100Y42300D02*X67600D01*
X37100D02*Y34800D01*
X67600D01*
Y42300D02*Y34800D01*
X65350Y38550D02*X67600D01*
X65350Y42300D02*Y38550D01*
X37100D02*X39350D01*
Y42300D02*Y38550D01*
G54D104*X63850Y42850D02*G75*G03X63850Y42850I0J200D01*G01*
G54D105*X69196Y35528D02*Y35731D01*
X68307D02*X69196D01*
X68180Y35604D02*X68307Y35731D01*
X68180Y35477D02*Y35604D01*
X68307Y35350D02*X68180Y35477D01*
X68307Y35350D02*X68434D01*
X69069Y36036D02*X69196Y36163D01*
Y36544D01*
X69069Y36671D01*
X68815D02*X69069D01*
X68180Y36036D02*X68815Y36671D01*
X68180Y36036D02*Y36671D01*
X77046Y1078D02*Y1281D01*
X76157D02*X77046D01*
X76030Y1154D02*X76157Y1281D01*
X76030Y1027D02*Y1154D01*
X76157Y900D02*X76030Y1027D01*
X76157Y900D02*X76284D01*
X76843Y1586D02*X77046Y1789D01*
X76030D02*X77046D01*
X76030Y1586D02*Y1967D01*
M02*
