G04 start of page 10 for group -4015 idx -4015 *
G04 Title: 96Boards CE Through Hole LS, toppaste *
G04 Creator: pcb 20140316 *
G04 CreationDate: Fri 27 Jul 2018 05:17:59 PM GMT UTC *
G04 For: adam *
G04 Format: Gerber/RS-274X *
G04 PCB-Dimensions (mm): 85.00 54.00 *
G04 PCB-Coordinate-Origin: lower left *
%MOMM*%
%FSLAX43Y43*%
%LNTOPPASTE*%
%ADD119R,1.000X1.000*%
%ADD118C,1.016*%
%ADD117R,0.864X0.864*%
%ADD116R,0.508X0.508*%
%ADD115R,1.100X1.100*%
%ADD114R,0.270X0.270*%
%ADD113R,0.300X0.300*%
%ADD112R,0.330X0.330*%
%ADD111R,1.300X1.300*%
%ADD110R,1.600X1.600*%
%ADD109R,2.000X2.000*%
%ADD108R,2.200X2.200*%
%ADD107C,0.002*%
%ADD106R,0.500X0.500*%
G54D106*X63850Y37100D02*Y35350D01*
Y41750D02*Y40000D01*
X63050Y37100D02*Y35350D01*
Y41750D02*Y40000D01*
X62250Y37100D02*Y35350D01*
Y41750D02*Y40000D01*
X61450Y37100D02*Y35350D01*
Y41750D02*Y40000D01*
X60650Y37100D02*Y35350D01*
Y41750D02*Y40000D01*
X59850Y37100D02*Y35350D01*
Y41750D02*Y40000D01*
X59050Y37100D02*Y35350D01*
Y41750D02*Y40000D01*
X58250Y37100D02*Y35350D01*
Y41750D02*Y40000D01*
X57450Y37100D02*Y35350D01*
Y41750D02*Y40000D01*
X56650Y37100D02*Y35350D01*
Y41750D02*Y40000D01*
X55850Y37100D02*Y35350D01*
Y41750D02*Y40000D01*
X55050Y37100D02*Y35350D01*
Y41750D02*Y40000D01*
X54250Y37100D02*Y35350D01*
Y41750D02*Y40000D01*
X53450Y37100D02*Y35350D01*
Y41750D02*Y40000D01*
X52650Y37100D02*Y35350D01*
Y41750D02*Y40000D01*
X51850Y37100D02*Y35350D01*
Y41750D02*Y40000D01*
X51050Y37100D02*Y35350D01*
Y41750D02*Y40000D01*
X50250Y37100D02*Y35350D01*
Y41750D02*Y40000D01*
X49450Y37100D02*Y35350D01*
Y41750D02*Y40000D01*
X48650Y37100D02*Y35350D01*
Y41750D02*Y40000D01*
X47850Y37100D02*Y35350D01*
Y41750D02*Y40000D01*
X47050Y37100D02*Y35350D01*
Y41750D02*Y40000D01*
X46250Y37100D02*Y35350D01*
Y41750D02*Y40000D01*
X45450Y37100D02*Y35350D01*
Y41750D02*Y40000D01*
X44650Y37100D02*Y35350D01*
Y41750D02*Y40000D01*
X43850Y37100D02*Y35350D01*
Y41750D02*Y40000D01*
X43050Y37100D02*Y35350D01*
Y41750D02*Y40000D01*
X42250Y37100D02*Y35350D01*
Y41750D02*Y40000D01*
X41450Y37100D02*Y35350D01*
Y41750D02*Y40000D01*
X40650Y37100D02*Y35350D01*
Y41750D02*Y40000D01*
G54D107*G36*
X20300Y38350D02*Y35550D01*
X23100D01*
Y38350D01*
X20300D01*
G37*
G36*
X15600Y42350D02*Y39550D01*
X18400D01*
Y42350D01*
X15600D01*
G37*
G54D108*X24850Y48450D02*X24950D01*
G54D109*X24750Y51250D02*X25050D01*
G54D110*X16650Y52950D02*X17350D01*
G54D108*X16950Y50350D02*X17050D01*
G54D111*X16760Y36750D02*X16960D01*
X16760Y38550D02*X16960D01*
X25050Y44450D02*X25250D01*
X25050Y46250D02*X25250D01*
X25440Y21470D02*Y21270D01*
X23640Y21470D02*Y21270D01*
X28400Y21470D02*Y21270D01*
X30200Y21470D02*Y21270D01*
G54D112*X25165Y29300D02*X26335D01*
X25165Y28650D02*X26335D01*
X25165Y28000D02*X26335D01*
X25165Y27350D02*X26335D01*
X29665D02*X30835D01*
X29665Y28000D02*X30835D01*
X29665Y28650D02*X30835D01*
X29665Y29300D02*X30835D01*
G54D113*X10125Y14450D02*Y13450D01*
X9475Y14450D02*Y13450D01*
X8825Y14450D02*Y13450D01*
X8175Y14450D02*Y13450D01*
X7525Y14450D02*Y13450D01*
X6875Y14450D02*Y13450D01*
X6225Y14450D02*Y13450D01*
X5575Y14450D02*Y13450D01*
X4925Y14450D02*Y13450D01*
X4275Y14450D02*Y13450D01*
X3625Y14450D02*Y13450D01*
X2975Y14450D02*Y13450D01*
X2325Y14450D02*Y13450D01*
X1675Y14450D02*Y13450D01*
Y8850D02*Y7850D01*
X2325Y8850D02*Y7850D01*
X2975Y8850D02*Y7850D01*
X3625Y8850D02*Y7850D01*
X4275Y8850D02*Y7850D01*
X4925Y8850D02*Y7850D01*
X5575Y8850D02*Y7850D01*
X6225Y8850D02*Y7850D01*
X6875Y8850D02*Y7850D01*
X7525Y8850D02*Y7850D01*
X8175Y8850D02*Y7850D01*
X8825Y8850D02*Y7850D01*
X9475Y8850D02*Y7850D01*
X10125Y8850D02*Y7850D01*
G54D111*X66600Y21870D02*Y21670D01*
X68400Y21870D02*Y21670D01*
X66600Y31500D02*Y31300D01*
X68400Y31500D02*Y31300D01*
G54D107*G36*
X66800Y17150D02*Y14350D01*
X69600D01*
Y17150D01*
X66800D01*
G37*
G36*
X70800Y21850D02*Y19050D01*
X73600D01*
Y21850D01*
X70800D01*
G37*
G54D108*X79700Y12600D02*Y12500D01*
X81600Y20500D02*Y20400D01*
G54D107*G36*
X66800Y27950D02*Y25150D01*
X69600D01*
Y27950D01*
X66800D01*
G37*
G36*
X70800Y32650D02*Y29850D01*
X73600D01*
Y32650D01*
X70800D01*
G37*
G54D108*X79700Y23400D02*Y23300D01*
X81600Y31300D02*Y31200D01*
G54D107*G36*
X74250Y38600D02*Y35800D01*
X77050D01*
Y38600D01*
X74250D01*
G37*
G36*
X69550Y42600D02*Y39800D01*
X72350D01*
Y42600D01*
X69550D01*
G37*
G54D108*X78800Y48700D02*X78900D01*
X70900Y50600D02*X71000D01*
G54D107*G36*
X31200Y38600D02*Y35800D01*
X34000D01*
Y38600D01*
X31200D01*
G37*
G36*
X26500Y42600D02*Y39800D01*
X29300D01*
Y42600D01*
X26500D01*
G37*
G54D108*X35750Y48700D02*X35850D01*
X27850Y50600D02*X27950D01*
G54D107*G36*
X15400Y29750D02*Y26950D01*
X18200D01*
Y29750D01*
X15400D01*
G37*
G36*
X11400Y25050D02*Y22250D01*
X14200D01*
Y25050D01*
X11400D01*
G37*
G54D108*X5300Y31600D02*Y31500D01*
X3400Y23700D02*Y23600D01*
G54D107*G36*
X9350Y38600D02*Y35800D01*
X12150D01*
Y38600D01*
X9350D01*
G37*
G36*
X4650Y42600D02*Y39800D01*
X7450D01*
Y42600D01*
X4650D01*
G37*
G54D108*X13900Y48700D02*X14000D01*
X6000Y50600D02*X6100D01*
G54D111*X34190Y25460D02*Y25260D01*
X32390Y25460D02*Y25260D01*
X34200Y27500D02*Y27300D01*
X32400Y27500D02*Y27300D01*
X21740Y26960D02*Y26760D01*
X23540Y26960D02*Y26760D01*
X21750Y29500D02*Y29300D01*
X23550Y29500D02*Y29300D01*
X23640Y23520D02*Y23320D01*
X25440Y23520D02*Y23320D01*
X30200Y23520D02*Y23320D01*
X28400Y23520D02*Y23320D01*
X25630Y25740D02*Y25540D01*
X27430Y25740D02*Y25540D01*
X34040Y29990D02*Y29790D01*
X32240Y29990D02*Y29790D01*
X70660Y37390D02*X70860D01*
X70660Y35590D02*X70860D01*
X81230Y46410D02*X81430D01*
X81230Y44610D02*X81430D01*
X72750Y35590D02*X72950D01*
X72750Y37390D02*X72950D01*
X79150Y44600D02*X79350D01*
X79150Y46400D02*X79350D01*
X75350Y10200D02*Y10000D01*
X77150Y10200D02*Y10000D01*
X63640Y19610D02*Y19410D01*
X65440Y19610D02*Y19410D01*
X63650Y17540D02*Y17340D01*
X65450Y17540D02*Y17340D01*
X75350Y12250D02*Y12050D01*
X77150Y12250D02*Y12050D01*
X66600Y29370D02*Y29170D01*
X68400Y29370D02*Y29170D01*
X66620Y23910D02*Y23710D01*
X68420Y23910D02*Y23710D01*
X56790Y28110D02*Y27910D01*
X54990Y28110D02*Y27910D01*
X57850Y26010D02*Y25810D01*
X56050Y26010D02*Y25810D01*
X57860Y23920D02*Y23720D01*
X56060Y23920D02*Y23720D01*
X56800Y30230D02*Y30030D01*
X55000Y30230D02*Y30030D01*
X9400Y33900D02*Y33700D01*
X7600Y33900D02*Y33700D01*
X9400Y31800D02*Y31600D01*
X7600Y31800D02*Y31600D01*
X9040Y20300D02*X9240D01*
X9040Y22100D02*X9240D01*
X7000Y20300D02*X7200D01*
X7000Y22100D02*X7200D01*
X20280Y14920D02*X20480D01*
X20280Y16720D02*X20480D01*
X22350Y14920D02*X22550D01*
X22350Y16720D02*X22550D01*
X26740Y14930D02*X26940D01*
X26740Y16730D02*X26940D01*
X24670Y14930D02*X24870D01*
X24670Y16730D02*X24870D01*
X13900Y7150D02*X14100D01*
X13900Y8950D02*X14100D01*
X13870Y12660D02*X14070D01*
X13870Y14460D02*X14070D01*
X11850Y7140D02*X12050D01*
X11850Y8940D02*X12050D01*
X11850Y12640D02*X12050D01*
X11850Y14440D02*X12050D01*
X3760Y16390D02*Y16190D01*
X1960Y16390D02*Y16190D01*
X11920Y17420D02*Y17220D01*
X10120Y17420D02*Y17220D01*
X8030Y16670D02*X8230D01*
X8030Y18470D02*X8230D01*
X21720Y11250D02*Y11050D01*
X19920Y11250D02*Y11050D01*
G54D113*X28075Y8950D02*Y7950D01*
X27425Y8950D02*Y7950D01*
X26775Y8950D02*Y7950D01*
X26125Y8950D02*Y7950D01*
X25475Y8950D02*Y7950D01*
X24825Y8950D02*Y7950D01*
X24175Y8950D02*Y7950D01*
X23525Y8950D02*Y7950D01*
X22875Y8950D02*Y7950D01*
X22225Y8950D02*Y7950D01*
X21575Y8950D02*Y7950D01*
X20925Y8950D02*Y7950D01*
X20275Y8950D02*Y7950D01*
X19625Y8950D02*Y7950D01*
Y3350D02*Y2350D01*
X20275Y3350D02*Y2350D01*
X20925Y3350D02*Y2350D01*
X21575Y3350D02*Y2350D01*
X22225Y3350D02*Y2350D01*
X22875Y3350D02*Y2350D01*
X23525Y3350D02*Y2350D01*
X24175Y3350D02*Y2350D01*
X24825Y3350D02*Y2350D01*
X25475Y3350D02*Y2350D01*
X26125Y3350D02*Y2350D01*
X26775Y3350D02*Y2350D01*
X27425Y3350D02*Y2350D01*
X28075Y3350D02*Y2350D01*
G54D111*X29880Y12120D02*Y11920D01*
X28080Y12120D02*Y11920D01*
X25960Y11250D02*X26160D01*
X25960Y13050D02*X26160D01*
X32370Y7200D02*X32570D01*
X32370Y9000D02*X32570D01*
X32380Y1560D02*X32580D01*
X32380Y3360D02*X32580D01*
X30350Y1560D02*X30550D01*
X30350Y3360D02*X30550D01*
X30340Y7200D02*X30540D01*
X30340Y9000D02*X30540D01*
G54D114*X53950Y25365D02*Y24335D01*
X53450Y25365D02*Y24335D01*
X52950Y25365D02*Y24335D01*
X52450Y25365D02*Y24335D01*
X51950Y25365D02*Y24335D01*
X51450Y25365D02*Y24335D01*
X50950Y25365D02*Y24335D01*
X50450Y25365D02*Y24335D01*
X49950Y25365D02*Y24335D01*
X49450Y25365D02*Y24335D01*
X48950Y25365D02*Y24335D01*
X48450Y25365D02*Y24335D01*
X47950Y25365D02*Y24335D01*
X47450Y25365D02*Y24335D01*
X46950Y25365D02*Y24335D01*
Y19765D02*Y18735D01*
X47450Y19765D02*Y18735D01*
X47950Y19765D02*Y18735D01*
X48450Y19765D02*Y18735D01*
X48950Y19765D02*Y18735D01*
X49450Y19765D02*Y18735D01*
X49950Y19765D02*Y18735D01*
X50450Y19765D02*Y18735D01*
X50950Y19765D02*Y18735D01*
X51450Y19765D02*Y18735D01*
X51950Y19765D02*Y18735D01*
X52450Y19765D02*Y18735D01*
X52950Y19765D02*Y18735D01*
X53450Y19765D02*Y18735D01*
X53950Y19765D02*Y18735D01*
G54D111*X44830Y24110D02*Y23910D01*
X43030Y24110D02*Y23910D01*
X44830Y26170D02*Y25970D01*
X43030Y26170D02*Y25970D01*
X43040Y21530D02*Y21330D01*
X44840Y21530D02*Y21330D01*
X43030Y19480D02*Y19280D01*
X44830Y19480D02*Y19280D01*
G54D115*X48670Y28060D02*X48870D01*
X46370D02*X46570D01*
X48670Y29860D02*X48870D01*
X46370D02*X46570D01*
G54D111*X46730Y31800D02*Y31600D01*
X48530Y31800D02*Y31600D01*
X44420Y29840D02*X44620D01*
X44420Y28040D02*X44620D01*
X51270Y29740D02*X51470D01*
X51270Y27940D02*X51470D01*
X44610Y13040D02*Y12840D01*
X46410Y13040D02*Y12840D01*
G54D116*X35851Y16875D02*X37502D01*
X35851Y15605D02*X37502D01*
X35851Y14335D02*X37502D01*
X35851Y13065D02*X37502D01*
X41058D02*X42709D01*
X41058Y14335D02*X42709D01*
X41058Y15605D02*X42709D01*
X41058Y16875D02*X42709D01*
G54D111*X34230Y16470D02*Y16270D01*
X32430Y16470D02*Y16270D01*
G54D117*X44940Y8676D02*Y8524D01*
X46921Y8676D02*Y8524D01*
X45931Y10759D02*Y10607D01*
G54D111*X42920Y8970D02*X43120D01*
X42920Y10770D02*X43120D01*
X44530Y16850D02*X44730D01*
X44530Y15050D02*X44730D01*
G54D118*X27230Y29270D02*Y27410D01*
X28770D01*
Y29260D02*Y27410D01*
X27240Y29260D02*X28770D01*
X27970Y28860D02*Y28040D01*
G54D119*X75000Y2750D02*Y1150D01*
Y6850D02*Y5250D01*
X73000Y2750D02*Y1150D01*
Y6850D02*Y5250D01*
X71000Y2750D02*Y1150D01*
Y6850D02*Y5250D01*
X69000Y2750D02*Y1150D01*
Y6850D02*Y5250D01*
X67000Y2750D02*Y1150D01*
Y6850D02*Y5250D01*
X65000Y2750D02*Y1150D01*
Y6850D02*Y5250D01*
X63000Y2750D02*Y1150D01*
Y6850D02*Y5250D01*
X61000Y2750D02*Y1150D01*
Y6850D02*Y5250D01*
X59000Y2750D02*Y1150D01*
Y6850D02*Y5250D01*
X57000Y2750D02*Y1150D01*
Y6850D02*Y5250D01*
X55000Y2750D02*Y1150D01*
Y6850D02*Y5250D01*
X53000Y2750D02*Y1150D01*
Y6850D02*Y5250D01*
X51000Y2750D02*Y1150D01*
Y6850D02*Y5250D01*
X49000Y2750D02*Y1150D01*
Y6850D02*Y5250D01*
X47000Y2750D02*Y1150D01*
Y6850D02*Y5250D01*
X45000Y2750D02*Y1150D01*
Y6850D02*Y5250D01*
X43000Y2750D02*Y1150D01*
Y6850D02*Y5250D01*
X41000Y2750D02*Y1150D01*
Y6850D02*Y5250D01*
X39000Y2750D02*Y1150D01*
Y6850D02*Y5250D01*
X37000Y2750D02*Y1150D01*
Y6850D02*Y5250D01*
M02*
