G04 start of page 7 for group -4062 idx -4062 *
G04 Title: 96Boards CE Through Hole LS, soldermask *
G04 Creator: pcb 20140316 *
G04 CreationDate: Fri 27 Jul 2018 05:17:59 PM GMT UTC *
G04 For: adam *
G04 Format: Gerber/RS-274X *
G04 PCB-Dimensions (mm): 85.00 54.00 *
G04 PCB-Coordinate-Origin: lower left *
%MOMM*%
%FSLAX43Y43*%
%LNBOTTOMMASK*%
%ADD94R,1.050X1.050*%
%ADD93R,0.550X0.550*%
%ADD92C,0.711*%
%ADD91C,5.030*%
%ADD90C,1.676*%
%ADD89C,0.002*%
%ADD88C,1.200*%
%ADD87C,1.754*%
%ADD86C,0.800*%
G54D86*X66350Y38550D03*
D03*
G54D87*X73500Y16500D03*
Y27300D03*
G54D88*X38150Y38550D03*
D03*
G54D87*X20950Y42250D03*
Y49250D03*
X31850Y42500D03*
Y49500D03*
X80500Y16500D03*
G54D89*G36*
X39562Y9938D02*Y8262D01*
X41238D01*
Y9938D01*
X39562D01*
G37*
G54D90*X37860Y9100D03*
X35320D03*
G54D87*X80500Y27300D03*
X11500Y27600D03*
X4500D03*
X74900Y42500D03*
X10000D03*
X74900Y49500D03*
X10000D03*
G54D91*X4000Y4000D03*
X81000D03*
X4000Y35500D03*
X81000D03*
G54D92*X28780Y27400D03*
X27230Y29220D03*
X28780D03*
X27240Y27400D03*
G54D93*X50250Y37100D02*Y35350D01*
X47050Y37100D02*Y35350D01*
X46250Y37100D02*Y35350D01*
X45450Y37100D02*Y35350D01*
X42250Y37100D02*Y35350D01*
X41450Y37100D02*Y35350D01*
X40650Y37100D02*Y35350D01*
X49450Y37100D02*Y35350D01*
X48650Y37100D02*Y35350D01*
X47850Y37100D02*Y35350D01*
X44650Y37100D02*Y35350D01*
X43850Y37100D02*Y35350D01*
X43050Y37100D02*Y35350D01*
X60650Y37100D02*Y35350D01*
Y41750D02*Y40000D01*
X59850Y41750D02*Y40000D01*
X59050Y41750D02*Y40000D01*
X57450Y37100D02*Y35350D01*
X56650Y37100D02*Y35350D01*
X55850Y37100D02*Y35350D01*
X59850Y37100D02*Y35350D01*
X59050Y37100D02*Y35350D01*
X58250Y37100D02*Y35350D01*
Y41750D02*Y40000D01*
X57450Y41750D02*Y40000D01*
X56650Y41750D02*Y40000D01*
X55850Y41750D02*Y40000D01*
X63850Y41750D02*Y40000D01*
X63050Y41750D02*Y40000D01*
X62250Y41750D02*Y40000D01*
X63850Y37100D02*Y35350D01*
X63050Y37100D02*Y35350D01*
X61450Y41750D02*Y40000D01*
X62250Y37100D02*Y35350D01*
X61450Y37100D02*Y35350D01*
X55050Y37100D02*Y35350D01*
X54250Y37100D02*Y35350D01*
X53450Y37100D02*Y35350D01*
X52650Y41750D02*Y40000D01*
X51850Y41750D02*Y40000D01*
X51050Y41750D02*Y40000D01*
X55050Y41750D02*Y40000D01*
X54250Y41750D02*Y40000D01*
X53450Y41750D02*Y40000D01*
X52650Y37100D02*Y35350D01*
X51850Y37100D02*Y35350D01*
X51050Y37100D02*Y35350D01*
X50250Y41750D02*Y40000D01*
X49450Y41750D02*Y40000D01*
X48650Y41750D02*Y40000D01*
X47850Y41750D02*Y40000D01*
X47050Y41750D02*Y40000D01*
X42250Y41750D02*Y40000D01*
X41450Y41750D02*Y40000D01*
X40650Y41750D02*Y40000D01*
X46250Y41750D02*Y40000D01*
X45450Y41750D02*Y40000D01*
X44650Y41750D02*Y40000D01*
X43850Y41750D02*Y40000D01*
X43050Y41750D02*Y40000D01*
G54D94*X75000Y6850D02*Y5250D01*
Y2750D02*Y1150D01*
X71000Y6850D02*Y5250D01*
Y2750D02*Y1150D01*
X69000Y2750D02*Y1150D01*
X67000Y2750D02*Y1150D01*
X73000Y6850D02*Y5250D01*
Y2750D02*Y1150D01*
X69000Y6850D02*Y5250D01*
X67000Y6850D02*Y5250D01*
X65000Y2750D02*Y1150D01*
X63000Y2750D02*Y1150D01*
Y6850D02*Y5250D01*
X65000Y6850D02*Y5250D01*
X61000Y6850D02*Y5250D01*
Y2750D02*Y1150D01*
X59000Y2750D02*Y1150D01*
X55000Y2750D02*Y1150D01*
X53000Y2750D02*Y1150D01*
X59000Y6850D02*Y5250D01*
X57000Y6850D02*Y5250D01*
Y2750D02*Y1150D01*
X55000Y6850D02*Y5250D01*
X53000Y6850D02*Y5250D01*
X51000Y6850D02*Y5250D01*
X49000Y2750D02*Y1150D01*
X51000Y2750D02*Y1150D01*
X47000Y2750D02*Y1150D01*
X45000Y2750D02*Y1150D01*
X49000Y6850D02*Y5250D01*
X47000Y6850D02*Y5250D01*
X45000Y6850D02*Y5250D01*
X43000Y2750D02*Y1150D01*
X41000Y2750D02*Y1150D01*
X43000Y6850D02*Y5250D01*
X41000Y6850D02*Y5250D01*
X39000Y6850D02*Y5250D01*
X37000Y6850D02*Y5250D01*
X39000Y2750D02*Y1150D01*
X37000Y2750D02*Y1150D01*
M02*
