G04 Layer_Color=16711935*
%FSLAX42Y42*%
%MOMM*%
G71*
G01*
G75*
%ADD40C,0.10*%
%ADD59C,0.15*%
D40*
X8966Y5406D02*
Y5551D01*
X9276Y5406D02*
Y5551D01*
X8966D02*
X9276D01*
X8966Y5406D02*
X9276D01*
X8986Y4835D02*
Y4981D01*
X9296Y4835D02*
Y4981D01*
X8986D02*
X9296D01*
X8986Y4835D02*
X9296D01*
X8976Y3615D02*
Y3760D01*
X9286Y3615D02*
Y3760D01*
X8976D02*
X9286D01*
X8976Y3615D02*
X9286D01*
X8950Y2239D02*
Y2383D01*
X9260Y2239D02*
Y2383D01*
X8950D02*
X9260D01*
X8950Y2239D02*
X9260D01*
X8986Y4246D02*
Y4390D01*
X9296Y4246D02*
Y4390D01*
X8986D02*
X9296D01*
X8986Y4246D02*
X9296D01*
X8950Y1978D02*
Y2123D01*
X9260Y1978D02*
Y2123D01*
X8950D02*
X9260D01*
X8950Y1978D02*
X9260D01*
X8732Y3263D02*
Y3408D01*
X9042Y3263D02*
Y3408D01*
X8732D02*
X9042D01*
X8732Y3263D02*
X9042D01*
X8950Y1739D02*
Y1883D01*
X9260Y1739D02*
Y1883D01*
X8950D02*
X9260D01*
X8950Y1739D02*
X9260D01*
X8952Y1477D02*
Y1623D01*
X9262Y1477D02*
Y1623D01*
X8952D02*
X9262D01*
X8952Y1477D02*
X9262D01*
D59*
X9172Y5516D02*
Y5440D01*
X9134D01*
X9121Y5453D01*
Y5478D01*
X9134Y5491D01*
X9172D01*
X9146D02*
X9121Y5516D01*
X9096Y5503D02*
X9083Y5516D01*
X9058D01*
X9045Y5503D01*
Y5453D01*
X9058Y5440D01*
X9083D01*
X9096Y5453D01*
Y5465D01*
X9083Y5478D01*
X9045D01*
X9192Y4946D02*
Y4870D01*
X9154D01*
X9141Y4883D01*
Y4908D01*
X9154Y4921D01*
X9192D01*
X9166D02*
X9141Y4946D01*
X9116Y4883D02*
X9103Y4870D01*
X9078D01*
X9065Y4883D01*
Y4895D01*
X9078Y4908D01*
X9065Y4921D01*
Y4933D01*
X9078Y4946D01*
X9103D01*
X9116Y4933D01*
Y4921D01*
X9103Y4908D01*
X9116Y4895D01*
Y4883D01*
X9103Y4908D02*
X9078D01*
X9182Y3726D02*
Y3650D01*
X9144D01*
X9131Y3663D01*
Y3688D01*
X9144Y3701D01*
X9182D01*
X9156D02*
X9131Y3726D01*
X9055Y3650D02*
X9080Y3663D01*
X9106Y3688D01*
Y3713D01*
X9093Y3726D01*
X9068D01*
X9055Y3713D01*
Y3701D01*
X9068Y3688D01*
X9106D01*
X9156Y2349D02*
Y2273D01*
X9118D01*
X9105Y2286D01*
Y2311D01*
X9118Y2324D01*
X9156D01*
X9130D02*
X9105Y2349D01*
X9042D02*
Y2273D01*
X9080Y2311D01*
X9029D01*
X9192Y4356D02*
Y4280D01*
X9154D01*
X9141Y4293D01*
Y4318D01*
X9154Y4331D01*
X9192D01*
X9166D02*
X9141Y4356D01*
X9116Y4280D02*
X9065D01*
Y4293D01*
X9116Y4343D01*
Y4356D01*
X9156Y2088D02*
Y2012D01*
X9118D01*
X9105Y2025D01*
Y2050D01*
X9118Y2063D01*
X9156D01*
X9130D02*
X9105Y2088D01*
X9080Y2025D02*
X9067Y2012D01*
X9042D01*
X9029Y2025D01*
Y2038D01*
X9042Y2050D01*
X9054D01*
X9042D01*
X9029Y2063D01*
Y2076D01*
X9042Y2088D01*
X9067D01*
X9080Y2076D01*
X8938Y3374D02*
Y3298D01*
X8900D01*
X8887Y3311D01*
Y3336D01*
X8900Y3349D01*
X8938D01*
X8912D02*
X8887Y3374D01*
X8811Y3298D02*
X8862D01*
Y3336D01*
X8836Y3323D01*
X8824D01*
X8811Y3336D01*
Y3361D01*
X8824Y3374D01*
X8849D01*
X8862Y3361D01*
X9156Y1849D02*
Y1773D01*
X9118D01*
X9105Y1786D01*
Y1811D01*
X9118Y1824D01*
X9156D01*
X9130D02*
X9105Y1849D01*
X9029D02*
X9080D01*
X9029Y1798D01*
Y1786D01*
X9042Y1773D01*
X9067D01*
X9080Y1786D01*
X7680Y1503D02*
Y1579D01*
X7718D01*
X7731Y1566D01*
Y1541D01*
X7718Y1528D01*
X7680D01*
X7705D02*
X7731Y1503D01*
X7756D02*
X7781D01*
X7769D01*
Y1579D01*
X7756Y1566D01*
M02*
