G04 Layer_Color=128*
%FSLAX42Y42*%
%MOMM*%
G71*
G01*
G75*
%ADD14R,1.00X3.00*%
%ADD34R,0.50X2.00*%
D14*
X2000Y6225D02*
D03*
Y5775D02*
D03*
X2200Y6225D02*
D03*
Y5775D02*
D03*
X2400Y6225D02*
D03*
Y5775D02*
D03*
X2600Y6225D02*
D03*
Y5775D02*
D03*
X2800Y6225D02*
D03*
Y5775D02*
D03*
X3000Y6225D02*
D03*
Y5775D02*
D03*
X3200Y6225D02*
D03*
Y5775D02*
D03*
X3400Y6225D02*
D03*
Y5775D02*
D03*
X3600Y6225D02*
D03*
Y5775D02*
D03*
X3800Y6225D02*
D03*
Y5775D02*
D03*
X4000Y6225D02*
D03*
Y5775D02*
D03*
X4200Y6225D02*
D03*
Y5775D02*
D03*
X4400Y6225D02*
D03*
Y5775D02*
D03*
X4600Y6225D02*
D03*
Y5775D02*
D03*
X4800Y6225D02*
D03*
Y5775D02*
D03*
X5000Y6225D02*
D03*
Y5775D02*
D03*
X5200Y6225D02*
D03*
Y5775D02*
D03*
X5400Y6225D02*
D03*
Y5775D02*
D03*
X5600Y6225D02*
D03*
Y5775D02*
D03*
X5800Y6225D02*
D03*
Y5775D02*
D03*
D34*
X3115Y2765D02*
D03*
X3195Y2325D02*
D03*
X3275D02*
D03*
X3355D02*
D03*
X3435D02*
D03*
X3515D02*
D03*
X3595D02*
D03*
X3675D02*
D03*
X3755D02*
D03*
X3835D02*
D03*
X3915D02*
D03*
X3995D02*
D03*
X4075D02*
D03*
X4155D02*
D03*
X4235D02*
D03*
X4315D02*
D03*
X4395D02*
D03*
X4475D02*
D03*
X4555D02*
D03*
X4635D02*
D03*
X4715D02*
D03*
X4795D02*
D03*
X4875D02*
D03*
X4955D02*
D03*
X5035D02*
D03*
X5115D02*
D03*
X5195D02*
D03*
X5275D02*
D03*
X5355D02*
D03*
X5435D02*
D03*
X3115D02*
D03*
X3195Y2765D02*
D03*
X3275D02*
D03*
X3355D02*
D03*
X3435D02*
D03*
X3515D02*
D03*
X3595D02*
D03*
X3675D02*
D03*
X3755D02*
D03*
X3835D02*
D03*
X3915D02*
D03*
X3995D02*
D03*
X4075D02*
D03*
X4155D02*
D03*
X4235D02*
D03*
X4315D02*
D03*
X4395D02*
D03*
X4475D02*
D03*
X4555D02*
D03*
X4635D02*
D03*
X4715D02*
D03*
X4795D02*
D03*
X4875D02*
D03*
X4955D02*
D03*
X5035D02*
D03*
X5115D02*
D03*
X5195D02*
D03*
X5275D02*
D03*
X5355D02*
D03*
X5435D02*
D03*
M02*
