G04 Layer_Color=65535*
%FSLAX42Y42*%
%MOMM*%
G71*
G01*
G75*
%ADD20C,0.25*%
%ADD36C,0.20*%
%ADD37C,0.13*%
%ADD38C,0.18*%
%ADD39C,0.15*%
%ADD40C,0.10*%
%ADD41C,0.20*%
D20*
X1194Y1384D02*
X1245D01*
X1219D01*
Y1232D01*
X1194D01*
X1245D01*
X1397Y1384D02*
X1346D01*
X1321Y1359D01*
Y1257D01*
X1346Y1232D01*
X1397D01*
X1422Y1257D01*
Y1359D01*
X1397Y1384D01*
X1473Y1308D02*
X1575D01*
X1625Y1384D02*
X1727D01*
X1676D01*
Y1232D01*
X1854D02*
X1803D01*
X1778Y1257D01*
Y1308D01*
X1803Y1333D01*
X1854D01*
X1879Y1308D01*
Y1283D01*
X1778D01*
X1930Y1232D02*
X2006D01*
X2032Y1257D01*
X2006Y1283D01*
X1956D01*
X1930Y1308D01*
X1956Y1333D01*
X2032D01*
X2108Y1359D02*
Y1333D01*
X2083D01*
X2133D01*
X2108D01*
Y1257D01*
X2133Y1232D01*
X2209D02*
X2260D01*
X2235D01*
Y1333D01*
X2209D01*
X2336Y1232D02*
Y1333D01*
X2413D01*
X2438Y1308D01*
Y1232D01*
X2540Y1181D02*
X2565D01*
X2590Y1207D01*
Y1333D01*
X2514D01*
X2489Y1308D01*
Y1257D01*
X2514Y1232D01*
X2590D01*
X2641Y1308D02*
X2743D01*
X2793Y1232D02*
Y1384D01*
X2844Y1333D01*
X2895Y1384D01*
Y1232D01*
X3022D02*
X2971D01*
X2946Y1257D01*
Y1308D01*
X2971Y1333D01*
X3022D01*
X3047Y1308D01*
Y1283D01*
X2946D01*
X3098Y1333D02*
X3200D01*
X3098Y1232D01*
X3200D01*
X3251Y1333D02*
X3352D01*
X3251Y1232D01*
X3352D01*
X3428Y1333D02*
X3479D01*
X3504Y1308D01*
Y1232D01*
X3428D01*
X3403Y1257D01*
X3428Y1283D01*
X3504D01*
X3555Y1232D02*
Y1333D01*
X3631D01*
X3657Y1308D01*
Y1232D01*
X3708D02*
X3758D01*
X3733D01*
Y1333D01*
X3708D01*
X3835Y1232D02*
Y1333D01*
X3911D01*
X3936Y1308D01*
Y1232D01*
X4063D02*
X4012D01*
X3987Y1257D01*
Y1308D01*
X4012Y1333D01*
X4063D01*
X4088Y1308D01*
Y1283D01*
X3987D01*
X4139Y1308D02*
X4241D01*
X4292Y1333D02*
X4342Y1232D01*
X4393Y1333D01*
X4444Y1359D02*
X4469Y1384D01*
X4520D01*
X4546Y1359D01*
Y1257D01*
X4520Y1232D01*
X4469D01*
X4444Y1257D01*
Y1359D01*
X4698Y1232D02*
X4596D01*
X4698Y1333D01*
Y1359D01*
X4672Y1384D01*
X4622D01*
X4596Y1359D01*
X8879Y4915D02*
X8896Y4931D01*
Y4965D01*
X8879Y4981D01*
X8863D01*
X8846Y4965D01*
Y4931D01*
X8829Y4915D01*
X8813D01*
X8796Y4931D01*
Y4965D01*
X8813Y4981D01*
X8879Y4881D02*
X8896Y4865D01*
Y4831D01*
X8879Y4815D01*
X8863D01*
X8846Y4831D01*
Y4848D01*
Y4831D01*
X8829Y4815D01*
X8813D01*
X8796Y4831D01*
Y4865D01*
X8813Y4881D01*
X6318Y5925D02*
Y6077D01*
X6394D01*
X6420Y6052D01*
Y6001D01*
X6394Y5976D01*
X6318D01*
X6572Y6077D02*
X6470D01*
Y6001D01*
X6521Y6027D01*
X6547D01*
X6572Y6001D01*
Y5950D01*
X6547Y5925D01*
X6496D01*
X6470Y5950D01*
X8879Y5499D02*
X8896Y5516D01*
Y5549D01*
X8879Y5566D01*
X8863D01*
X8846Y5549D01*
Y5516D01*
X8829Y5499D01*
X8813D01*
X8796Y5516D01*
Y5549D01*
X8813Y5566D01*
X8796Y5416D02*
X8896D01*
X8846Y5466D01*
Y5399D01*
X8890Y4317D02*
X8907Y4334D01*
Y4367D01*
X8890Y4384D01*
X8874D01*
X8857Y4367D01*
Y4334D01*
X8840Y4317D01*
X8824D01*
X8807Y4334D01*
Y4367D01*
X8824Y4384D01*
X8807Y4217D02*
Y4284D01*
X8874Y4217D01*
X8890D01*
X8907Y4234D01*
Y4267D01*
X8890Y4284D01*
X8897Y3694D02*
X8914Y3711D01*
Y3744D01*
X8897Y3761D01*
X8881D01*
X8864Y3744D01*
Y3711D01*
X8847Y3694D01*
X8831D01*
X8814Y3711D01*
Y3744D01*
X8831Y3761D01*
X8814Y3661D02*
Y3628D01*
Y3644D01*
X8914D01*
X8897Y3661D01*
X1359Y4401D02*
Y4553D01*
X1435D01*
X1461Y4528D01*
Y4477D01*
X1435Y4452D01*
X1359D01*
X1511Y4528D02*
X1537Y4553D01*
X1588D01*
X1613Y4528D01*
Y4503D01*
X1588Y4477D01*
X1562D01*
X1588D01*
X1613Y4452D01*
Y4426D01*
X1588Y4401D01*
X1537D01*
X1511Y4426D01*
X1543Y3629D02*
Y3781D01*
X1619D01*
X1645Y3756D01*
Y3705D01*
X1619Y3680D01*
X1543D01*
X1797Y3781D02*
X1746Y3756D01*
X1695Y3705D01*
Y3654D01*
X1721Y3629D01*
X1772D01*
X1797Y3654D01*
Y3680D01*
X1772Y3705D01*
X1695D01*
X6409Y2783D02*
Y2656D01*
X6434Y2631D01*
X6485D01*
X6511Y2656D01*
Y2783D01*
X6663Y2758D02*
X6638Y2783D01*
X6587D01*
X6561Y2758D01*
Y2733D01*
X6587Y2707D01*
X6638D01*
X6663Y2682D01*
Y2656D01*
X6638Y2631D01*
X6587D01*
X6561Y2656D01*
X6714Y2783D02*
Y2631D01*
X6790D01*
X6815Y2656D01*
Y2682D01*
X6790Y2707D01*
X6714D01*
X6790D01*
X6815Y2733D01*
Y2758D01*
X6790Y2783D01*
X6714D01*
X6866Y2631D02*
X6917D01*
X6891D01*
Y2783D01*
X6866Y2758D01*
D36*
X8292Y1569D02*
Y1598D01*
X8169Y1570D02*
Y1598D01*
X8181D01*
X8280Y1598D02*
X8292D01*
X8280Y1871D02*
X8292D01*
X8169Y1872D02*
X8181D01*
X8169Y1844D02*
Y1872D01*
X8292Y1843D02*
Y1871D01*
Y2090D02*
Y2117D01*
X8169Y2091D02*
Y2118D01*
X8181D01*
X8280Y2117D02*
X8292D01*
X8280Y2373D02*
X8292D01*
X8169Y2374D02*
X8181D01*
X8169Y2345D02*
Y2374D01*
X8292Y2344D02*
Y2373D01*
X5874Y6256D02*
X5975D01*
X5874Y5748D02*
X5975D01*
X1822D02*
X1924D01*
X1822Y6256D02*
X1924D01*
X5975Y5748D02*
Y6256D01*
X1822Y5748D02*
Y6256D01*
X1879Y3831D02*
X3403D01*
X1879Y3577D02*
X3403D01*
Y3831D01*
X1879Y3577D02*
Y3831D01*
X6909Y4718D02*
X7004D01*
X6909Y4210D02*
X7004D01*
X1822D02*
X1913D01*
X1822Y4718D02*
X1908D01*
X7004Y4210D02*
Y4718D01*
X1822Y4210D02*
Y4718D01*
D37*
X7909Y4695D02*
X8760D01*
X7909Y5101D02*
X8760D01*
Y4695D02*
Y5101D01*
X7909Y4695D02*
Y5101D01*
Y5285D02*
X8760D01*
X7909Y5691D02*
X8760D01*
Y5285D02*
Y5691D01*
X7909Y5285D02*
Y5691D01*
Y4105D02*
X8760D01*
X7909Y4511D02*
X8760D01*
Y4105D02*
Y4511D01*
X7909Y4105D02*
Y4511D01*
X7919Y3505D02*
X8770D01*
X7919Y3911D02*
X8770D01*
Y3505D02*
Y3911D01*
X7919Y3505D02*
Y3911D01*
X8837Y1488D02*
Y1615D01*
X8520Y1589D02*
X8545Y1615D01*
X8520Y1513D02*
X8545Y1488D01*
X8520Y1513D02*
Y1589D01*
X8545Y1488D02*
X8647D01*
X8723D02*
X8837D01*
X8545Y1615D02*
X8647D01*
X8723D02*
X8837D01*
X8555Y3410D02*
X8669D01*
X8377D02*
X8479D01*
X8555Y3283D02*
X8669D01*
X8377D02*
X8479D01*
X8352Y3308D02*
Y3384D01*
Y3308D02*
X8377Y3283D01*
X8352Y3384D02*
X8377Y3410D01*
X8669Y3283D02*
Y3410D01*
X8733Y2384D02*
X8847D01*
X8555D02*
X8657D01*
X8733Y2258D02*
X8847D01*
X8555D02*
X8657D01*
X8530Y2283D02*
Y2359D01*
Y2283D02*
X8555Y2258D01*
X8530Y2359D02*
X8555Y2384D01*
X8847Y2258D02*
Y2384D01*
X8733Y2115D02*
X8847D01*
X8555D02*
X8657D01*
X8733Y1988D02*
X8847D01*
X8555D02*
X8657D01*
X8530Y2013D02*
Y2089D01*
Y2013D02*
X8555Y1988D01*
X8530Y2089D02*
X8555Y2115D01*
X8847Y1988D02*
Y2115D01*
X8723Y1884D02*
X8837D01*
X8545D02*
X8647D01*
X8723Y1758D02*
X8837D01*
X8545D02*
X8647D01*
X8520Y1783D02*
Y1859D01*
Y1783D02*
X8545Y1758D01*
X8520Y1859D02*
X8545Y1884D01*
X8837Y1758D02*
Y1884D01*
X6090Y1000D02*
Y2542D01*
X7233Y1000D02*
Y2542D01*
X6092Y2550D02*
X7235D01*
D38*
X9207Y5547D02*
X9273D01*
Y5409D02*
Y5547D01*
X9207Y5409D02*
X9273D01*
X8969D02*
X9035D01*
X8969D02*
Y5547D01*
X9035D01*
X9227Y4977D02*
X9293D01*
Y4839D02*
Y4977D01*
X9227Y4839D02*
X9293D01*
X8989D02*
X9055D01*
X8989D02*
Y4977D01*
X9055D01*
X9217Y3757D02*
X9283D01*
Y3619D02*
Y3757D01*
X9217Y3619D02*
X9283D01*
X8979D02*
X9045D01*
X8979D02*
Y3757D01*
X9045D01*
X9191Y2380D02*
X9257D01*
Y2242D02*
Y2380D01*
X9191Y2242D02*
X9257D01*
X8953D02*
X9019D01*
X8953D02*
Y2380D01*
X9019D01*
X9227Y4387D02*
X9293D01*
Y4249D02*
Y4387D01*
X9227Y4249D02*
X9293D01*
X8989D02*
X9055D01*
X8989D02*
Y4387D01*
X9055D01*
X9191Y2119D02*
X9257D01*
Y1981D02*
Y2119D01*
X9191Y1981D02*
X9257D01*
X8953D02*
X9019D01*
X8953D02*
Y2119D01*
X9019D01*
X8973Y3405D02*
X9039D01*
Y3267D02*
Y3405D01*
X8973Y3267D02*
X9039D01*
X8735D02*
X8801D01*
X8735D02*
Y3405D01*
X8801D01*
X9191Y1880D02*
X9257D01*
Y1742D02*
Y1880D01*
X9191Y1742D02*
X9257D01*
X8953D02*
X9019D01*
X8953D02*
Y1880D01*
X9019D01*
X9193Y1619D02*
X9259D01*
Y1481D02*
Y1619D01*
X9193Y1481D02*
X9259D01*
X8955D02*
X9021D01*
X8955D02*
Y1619D01*
X9021D01*
D39*
X2607Y3524D02*
X2619Y3504D01*
X2613Y3514D01*
X2554Y3477D01*
X2548Y3487D01*
X2560Y3467D01*
X2603Y3398D02*
X2578Y3438D01*
X2643Y3423D01*
X2652Y3429D01*
X2656Y3445D01*
X2644Y3465D01*
X2628Y3468D01*
X2689Y3369D02*
X2693Y3385D01*
X2681Y3405D01*
X2665Y3409D01*
X2625Y3384D01*
X2621Y3368D01*
X2634Y3349D01*
X2650Y3345D01*
X2677Y3279D02*
X2652Y3319D01*
X2716Y3304D01*
X2726Y3310D01*
X2730Y3326D01*
X2718Y3346D01*
X2702Y3349D01*
X2679Y3253D02*
X2704Y3213D01*
X2800Y3191D02*
X2804Y3207D01*
X2791Y3227D01*
X2775Y3231D01*
X2765Y3224D01*
X2762Y3208D01*
X2774Y3188D01*
X2770Y3172D01*
X2760Y3166D01*
X2744Y3170D01*
X2732Y3190D01*
X2736Y3206D01*
X2822Y3177D02*
X2763Y3140D01*
X2781Y3111D01*
X2797Y3107D01*
X2837Y3131D01*
X2841Y3147D01*
X2822Y3177D01*
X2799Y3081D02*
X2839Y3105D01*
X2871Y3098D01*
X2864Y3066D01*
X2824Y3041D01*
X2854Y3060D01*
X2829Y3099D01*
X2323Y3534D02*
X2335Y3514D01*
X2329Y3524D01*
X2270Y3487D01*
X2264Y3497D01*
X2276Y3477D01*
X2319Y3408D02*
X2294Y3448D01*
X2359Y3433D01*
X2368Y3439D01*
X2372Y3455D01*
X2360Y3475D01*
X2344Y3478D01*
X2405Y3379D02*
X2409Y3395D01*
X2397Y3415D01*
X2381Y3419D01*
X2341Y3394D01*
X2337Y3378D01*
X2350Y3359D01*
X2366Y3355D01*
X2393Y3289D02*
X2368Y3329D01*
X2432Y3314D01*
X2442Y3320D01*
X2446Y3336D01*
X2434Y3356D01*
X2418Y3359D01*
X2395Y3263D02*
X2420Y3223D01*
X2516Y3201D02*
X2520Y3217D01*
X2507Y3237D01*
X2491Y3241D01*
X2481Y3234D01*
X2478Y3218D01*
X2490Y3198D01*
X2486Y3182D01*
X2476Y3176D01*
X2460Y3180D01*
X2448Y3200D01*
X2452Y3216D01*
X2553Y3141D02*
X2557Y3157D01*
X2544Y3177D01*
X2528Y3181D01*
X2489Y3156D01*
X2485Y3140D01*
X2497Y3121D01*
X2513Y3117D01*
X2575Y3128D02*
X2515Y3091D01*
X2540Y3051D01*
X2046Y3487D02*
X2050Y3503D01*
X2037Y3523D01*
X2021Y3527D01*
X1982Y3502D01*
X1978Y3486D01*
X1990Y3466D01*
X2006Y3463D01*
X2026Y3475D01*
X2014Y3495D01*
X2009Y3437D02*
X2068Y3474D01*
X2033Y3397D01*
X2093Y3434D01*
X2105Y3414D02*
X2045Y3377D01*
X2064Y3347D01*
X2080Y3344D01*
X2120Y3368D01*
X2123Y3384D01*
X2105Y3414D01*
X2853Y3540D02*
X2865Y3520D01*
X2859Y3530D01*
X2800Y3493D01*
X2794Y3503D01*
X2806Y3483D01*
X2849Y3414D02*
X2824Y3454D01*
X2889Y3439D01*
X2898Y3445D01*
X2902Y3461D01*
X2890Y3481D01*
X2874Y3484D01*
X2935Y3385D02*
X2939Y3401D01*
X2927Y3421D01*
X2911Y3425D01*
X2871Y3400D01*
X2867Y3384D01*
X2880Y3365D01*
X2896Y3361D01*
X2948Y3365D02*
X2964Y3362D01*
X2976Y3342D01*
X2972Y3326D01*
X2962Y3320D01*
X2946Y3323D01*
X2940Y3333D01*
X2946Y3323D01*
X2942Y3307D01*
X2933Y3301D01*
X2916Y3305D01*
X2904Y3325D01*
X2908Y3341D01*
X2925Y3269D02*
X2950Y3229D01*
X3046Y3207D02*
X3050Y3223D01*
X3037Y3243D01*
X3021Y3247D01*
X3011Y3240D01*
X3008Y3224D01*
X3020Y3204D01*
X3016Y3188D01*
X3006Y3182D01*
X2990Y3186D01*
X2978Y3206D01*
X2982Y3222D01*
X3083Y3147D02*
X3087Y3163D01*
X3074Y3183D01*
X3058Y3187D01*
X3019Y3162D01*
X3015Y3146D01*
X3027Y3127D01*
X3043Y3123D01*
X3105Y3134D02*
X3045Y3097D01*
X3070Y3057D01*
X3096Y3529D02*
X3108Y3509D01*
X3102Y3519D01*
X3042Y3482D01*
X3036Y3492D01*
X3048Y3472D01*
X3091Y3403D02*
X3067Y3443D01*
X3131Y3428D01*
X3141Y3434D01*
X3145Y3450D01*
X3133Y3470D01*
X3116Y3473D01*
X3178Y3374D02*
X3182Y3390D01*
X3169Y3410D01*
X3153Y3414D01*
X3114Y3389D01*
X3110Y3373D01*
X3122Y3354D01*
X3138Y3350D01*
X3190Y3354D02*
X3206Y3351D01*
X3219Y3331D01*
X3215Y3315D01*
X3205Y3309D01*
X3189Y3312D01*
X3183Y3322D01*
X3189Y3312D01*
X3185Y3296D01*
X3175Y3290D01*
X3159Y3294D01*
X3147Y3314D01*
X3151Y3330D01*
X3168Y3258D02*
X3192Y3218D01*
X3288Y3196D02*
X3292Y3212D01*
X3280Y3232D01*
X3264Y3236D01*
X3254Y3229D01*
X3250Y3213D01*
X3263Y3193D01*
X3259Y3177D01*
X3249Y3171D01*
X3233Y3175D01*
X3220Y3195D01*
X3224Y3211D01*
X3311Y3182D02*
X3251Y3145D01*
X3270Y3116D01*
X3286Y3112D01*
X3325Y3136D01*
X3329Y3152D01*
X3311Y3182D01*
X3288Y3086D02*
X3328Y3110D01*
X3360Y3103D01*
X3352Y3071D01*
X3313Y3046D01*
X3342Y3065D01*
X3318Y3104D01*
X3341Y3525D02*
X3366Y3485D01*
X3374Y3517D02*
X3334Y3492D01*
X3433Y3444D02*
X3408Y3484D01*
X3378Y3465D01*
X3400Y3451D01*
X3407Y3442D01*
X3403Y3425D01*
X3383Y3413D01*
X3367Y3417D01*
X3355Y3437D01*
X3358Y3453D01*
X3445Y3424D02*
X3405Y3399D01*
X3398Y3367D01*
X3430Y3360D01*
X3469Y3384D01*
D40*
X8059Y2292D02*
Y2332D01*
X8049Y2342D01*
X8029D01*
X8019Y2332D01*
Y2292D01*
X8029Y2282D01*
X8049D01*
X8039Y2302D02*
X8059Y2282D01*
X8049D02*
X8059Y2292D01*
X8109Y2282D02*
Y2342D01*
X8079Y2312D01*
X8119D01*
X8059Y2028D02*
Y2068D01*
X8049Y2078D01*
X8029D01*
X8019Y2068D01*
Y2028D01*
X8029Y2018D01*
X8049D01*
X8039Y2038D02*
X8059Y2018D01*
X8049D02*
X8059Y2028D01*
X8079Y2068D02*
X8089Y2078D01*
X8109D01*
X8119Y2068D01*
Y2058D01*
X8109Y2048D01*
X8099D01*
X8109D01*
X8119Y2038D01*
Y2028D01*
X8109Y2018D01*
X8089D01*
X8079Y2028D01*
X8059Y1808D02*
Y1848D01*
X8049Y1858D01*
X8029D01*
X8019Y1848D01*
Y1808D01*
X8029Y1799D01*
X8049D01*
X8039Y1818D02*
X8059Y1799D01*
X8049D02*
X8059Y1808D01*
X8119Y1799D02*
X8079D01*
X8119Y1838D01*
Y1848D01*
X8109Y1858D01*
X8089D01*
X8079Y1848D01*
X8059Y1556D02*
Y1596D01*
X8049Y1606D01*
X8029D01*
X8019Y1596D01*
Y1556D01*
X8029Y1546D01*
X8049D01*
X8039Y1566D02*
X8059Y1546D01*
X8049D02*
X8059Y1556D01*
X8079Y1546D02*
X8099D01*
X8089D01*
Y1606D01*
X8079Y1596D01*
X9316Y5447D02*
Y5507D01*
X9346D01*
X9356Y5497D01*
Y5477D01*
X9346Y5467D01*
X9316D01*
X9336D02*
X9356Y5447D01*
X9376Y5457D02*
X9386Y5447D01*
X9406D01*
X9416Y5457D01*
Y5497D01*
X9406Y5507D01*
X9386D01*
X9376Y5497D01*
Y5487D01*
X9386Y5477D01*
X9416D01*
X9333Y4882D02*
Y4942D01*
X9363D01*
X9373Y4932D01*
Y4912D01*
X9363Y4902D01*
X9333D01*
X9353D02*
X9373Y4882D01*
X9393Y4932D02*
X9403Y4942D01*
X9423D01*
X9433Y4932D01*
Y4922D01*
X9423Y4912D01*
X9433Y4902D01*
Y4892D01*
X9423Y4882D01*
X9403D01*
X9393Y4892D01*
Y4902D01*
X9403Y4912D01*
X9393Y4922D01*
Y4932D01*
X9403Y4912D02*
X9423D01*
X9321Y3662D02*
Y3722D01*
X9351D01*
X9361Y3712D01*
Y3692D01*
X9351Y3682D01*
X9321D01*
X9341D02*
X9361Y3662D01*
X9421Y3722D02*
X9401Y3712D01*
X9381Y3692D01*
Y3672D01*
X9391Y3662D01*
X9411D01*
X9421Y3672D01*
Y3682D01*
X9411Y3692D01*
X9381D01*
X8392Y1586D02*
Y1526D01*
X8432D01*
X8452D02*
X8472D01*
X8462D01*
Y1586D01*
X8452Y1576D01*
X8382Y1852D02*
Y1792D01*
X8422D01*
X8482D02*
X8442D01*
X8482Y1832D01*
Y1842D01*
X8472Y1852D01*
X8452D01*
X8442Y1842D01*
X8390Y2082D02*
Y2022D01*
X8430D01*
X8450Y2072D02*
X8460Y2082D01*
X8480D01*
X8490Y2072D01*
Y2062D01*
X8480Y2052D01*
X8470D01*
X8480D01*
X8490Y2042D01*
Y2032D01*
X8480Y2022D01*
X8460D01*
X8450Y2032D01*
X8393Y2356D02*
Y2296D01*
X8433D01*
X8483D02*
Y2356D01*
X8453Y2326D01*
X8493D01*
X8476Y3241D02*
Y3181D01*
X8516D01*
X8576Y3241D02*
X8536D01*
Y3211D01*
X8556Y3221D01*
X8566D01*
X8576Y3211D01*
Y3191D01*
X8566Y3181D01*
X8546D01*
X8536Y3191D01*
X9305Y1520D02*
Y1580D01*
X9335D01*
X9345Y1570D01*
Y1550D01*
X9335Y1540D01*
X9305D01*
X9325D02*
X9345Y1520D01*
X9365D02*
X9385D01*
X9375D01*
Y1580D01*
X9365Y1570D01*
X9300Y1785D02*
Y1845D01*
X9330D01*
X9340Y1835D01*
Y1815D01*
X9330Y1805D01*
X9300D01*
X9320D02*
X9340Y1785D01*
X9400D02*
X9360D01*
X9400Y1825D01*
Y1835D01*
X9390Y1845D01*
X9370D01*
X9360Y1835D01*
X8837Y3182D02*
Y3242D01*
X8867D01*
X8877Y3232D01*
Y3212D01*
X8867Y3202D01*
X8837D01*
X8857D02*
X8877Y3182D01*
X8937Y3242D02*
X8897D01*
Y3212D01*
X8917Y3222D01*
X8927D01*
X8937Y3212D01*
Y3192D01*
X8927Y3182D01*
X8907D01*
X8897Y3192D01*
X9297Y2025D02*
Y2085D01*
X9327D01*
X9337Y2075D01*
Y2055D01*
X9327Y2045D01*
X9297D01*
X9317D02*
X9337Y2025D01*
X9357Y2075D02*
X9367Y2085D01*
X9387D01*
X9397Y2075D01*
Y2065D01*
X9387Y2055D01*
X9377D01*
X9387D01*
X9397Y2045D01*
Y2035D01*
X9387Y2025D01*
X9367D01*
X9357Y2035D01*
X9331Y4281D02*
Y4341D01*
X9361D01*
X9371Y4331D01*
Y4311D01*
X9361Y4301D01*
X9331D01*
X9351D02*
X9371Y4281D01*
X9391Y4341D02*
X9431D01*
Y4331D01*
X9391Y4291D01*
Y4281D01*
X9305Y2283D02*
Y2343D01*
X9335D01*
X9345Y2333D01*
Y2313D01*
X9335Y2303D01*
X9305D01*
X9325D02*
X9345Y2283D01*
X9395D02*
Y2343D01*
X9365Y2313D01*
X9405D01*
D41*
X1742Y5709D02*
X1784D01*
X1763D01*
Y5836D01*
X1742Y5815D01*
X6015Y5801D02*
X6036Y5822D01*
X6078D01*
X6100Y5801D01*
Y5780D01*
X6078Y5758D01*
X6057D01*
X6078D01*
X6100Y5737D01*
Y5716D01*
X6078Y5695D01*
X6036D01*
X6015Y5716D01*
X6142D02*
X6163Y5695D01*
X6205D01*
X6227Y5716D01*
Y5801D01*
X6205Y5822D01*
X6163D01*
X6142Y5801D01*
Y5780D01*
X6163Y5758D01*
X6227D01*
X6081Y6177D02*
Y6304D01*
X6018Y6240D01*
X6103D01*
X6145Y6283D02*
X6166Y6304D01*
X6208D01*
X6230Y6283D01*
Y6198D01*
X6208Y6177D01*
X6166D01*
X6145Y6198D01*
Y6283D01*
X1774Y6149D02*
X1689D01*
X1774Y6234D01*
Y6255D01*
X1752Y6276D01*
X1710D01*
X1689Y6255D01*
X1733Y4198D02*
X1776D01*
X1754D01*
Y4325D01*
X1733Y4303D01*
X7067Y4253D02*
X7088Y4274D01*
X7131D01*
X7152Y4253D01*
Y4231D01*
X7131Y4210D01*
X7110D01*
X7131D01*
X7152Y4189D01*
Y4168D01*
X7131Y4147D01*
X7088D01*
X7067Y4168D01*
X7194D02*
X7215Y4147D01*
X7258D01*
X7279Y4168D01*
Y4253D01*
X7258Y4274D01*
X7215D01*
X7194Y4253D01*
Y4231D01*
X7215Y4210D01*
X7279D01*
X7131Y4642D02*
Y4769D01*
X7067Y4706D01*
X7152D01*
X7194Y4748D02*
X7215Y4769D01*
X7258D01*
X7279Y4748D01*
Y4663D01*
X7258Y4642D01*
X7215D01*
X7194Y4663D01*
Y4748D01*
X1780Y4680D02*
X1695D01*
X1780Y4765D01*
Y4786D01*
X1759Y4807D01*
X1716D01*
X1695Y4786D01*
M02*
