%FSTAX24Y24*%
%MOMM*%
%SFA1B1*%

%IPPOS*%
%ADD10R,0.949998X0.999998*%
%ADD11R,2.299995X2.299995*%
%ADD12R,1.199998X1.999996*%
%ADD13R,1.099998X1.649997*%
%ADD14R,1.649997X1.099998*%
%ADD15R,1.599997X1.269997*%
%ADD16R,0.999998X0.949998*%
%ADD17O,1.699997X0.349999*%
%ADD18R,1.149998X0.599999*%
%ADD19R,1.699997X1.099998*%
%ADD20R,2.199996X3.499993*%
%ADD21R,2.199996X1.199998*%
%ADD24R,1.599997X1.599997*%
%ADD25C,1.599997*%
%ADD26R,1.519997X1.519997*%
%ADD27C,1.519997*%
%ADD28R,1.499997X1.499997*%
%ADD29C,1.499997*%
%ADD30C,3.999992*%
%ADD31C,2.499995*%
%ADD32R,1.499997X1.499997*%
%ADD33C,1.399997*%
%ADD34R,1.399997X1.399997*%
%ADD35R,1.879996X1.879996*%
%ADD36C,1.879996*%
%LNiot_6_lowpan_gateway_v01-1*%
%LPD*%
G54D10*
X434199Y107699D03*
Y091799D03*
X062799Y100999D03*
Y084999D03*
X088499Y101499D03*
Y085499D03*
X537799Y246199D03*
Y262299D03*
X511199Y261699D03*
Y245799D03*
X835499Y474699D03*
Y458799D03*
X395799Y438799D03*
Y454699D03*
X836099Y072799D03*
Y088799D03*
X561199Y108799D03*
Y092699D03*
X586699Y108799D03*
Y092699D03*
X415299Y438799D03*
Y454699D03*
G54D11*
X571999Y510299D03*
Y465299D03*
G54D12*
X658299Y384699D03*
Y459799D03*
X684399Y384699D03*
Y459799D03*
G54D13*
X709299Y283299D03*
X742199D03*
X709299Y245199D03*
X742199D03*
G54D14*
X577199Y337199D03*
Y370299D03*
G54D15*
X565499Y262699D03*
Y242299D03*
G54D16*
X809699Y458799D03*
X793799D03*
X511199Y413999D03*
X4953D03*
X527799Y4445D03*
X511699D03*
X510799Y224199D03*
X526699D03*
X109499Y349999D03*
X125499D03*
X847799Y038799D03*
X831799D03*
X108999Y374499D03*
X124999D03*
Y399699D03*
X108999D03*
X319499Y349199D03*
X303499D03*
X303799Y329999D03*
X319799D03*
X318999Y397199D03*
X302999D03*
Y378799D03*
X318999D03*
G54D17*
X185199Y384999D03*
Y378499D03*
Y371999D03*
Y365499D03*
Y358999D03*
Y352499D03*
Y345999D03*
X242299Y384999D03*
Y378499D03*
Y371999D03*
Y365499D03*
Y358999D03*
Y352499D03*
Y345999D03*
G54D18*
X589999Y404699D03*
Y423799D03*
X567499Y414199D03*
G54D19*
X732499Y319499D03*
Y346499D03*
G54D20*
X405999Y283999D03*
G54D21*
X467999Y306999D03*
Y283999D03*
Y260999D03*
G54D24*
X756799Y408999D03*
G54D25*
X756799Y434399D03*
Y459699D03*
G54D26*
X788199Y510299D03*
X786999Y142299D03*
G54D27*
X762799Y510299D03*
X761599Y142299D03*
X763899Y065899D03*
G54D28*
X358099Y041199D03*
X763899Y040499D03*
G54D29*
X383499Y041199D03*
X408899D03*
X434299D03*
X459699D03*
X485099D03*
X510499D03*
X535899D03*
X561299D03*
X586699D03*
X612099D03*
X637499D03*
X662899D03*
X688299D03*
X713699D03*
X062499Y349199D03*
Y374699D03*
Y400099D03*
X662499Y336499D03*
Y304499D03*
Y282499D03*
Y260499D03*
X611699D03*
Y282499D03*
Y304499D03*
Y336499D03*
X789299Y065899D03*
Y040499D03*
G54D30*
X055499Y200499D03*
Y515499D03*
G54D31*
X817799Y348999D03*
Y399799D03*
Y298299D03*
Y247499D03*
G54D32*
X062499Y323799D03*
G54D33*
X495499Y525499D03*
Y505499D03*
X475499Y525499D03*
Y505499D03*
X455499Y525499D03*
Y505499D03*
X435499Y525499D03*
Y505499D03*
X415499Y525499D03*
Y505499D03*
X395499Y525499D03*
Y505499D03*
X375499Y525499D03*
Y505499D03*
X355499Y525499D03*
Y505499D03*
X335499Y525499D03*
Y505499D03*
X315499Y525499D03*
Y505499D03*
X295499Y525499D03*
Y505499D03*
X275499Y525499D03*
Y505499D03*
X255499Y525499D03*
Y505499D03*
X235499Y525499D03*
Y505499D03*
X215499Y525499D03*
Y505499D03*
X195499Y525499D03*
Y505499D03*
X175499Y525499D03*
Y505499D03*
X155499Y525499D03*
Y505499D03*
X135499Y525499D03*
Y505499D03*
X115499Y525499D03*
G54D34*
X115499Y505499D03*
G54D35*
X037699Y038799D03*
G54D36*
X062999Y038799D03*
X088499D03*
X113899D03*
X139299D03*
X164699D03*
X189999D03*
X215499D03*
X240799D03*
X266199D03*
X291699D03*
X316999D03*
M02*