%FSTAX24Y24*%
%MOMM*%
%SFA1B1*%

%IPPOS*%
%ADD10R,0.949998X0.999998*%
%ADD11R,2.299995X2.299995*%
%ADD12R,1.199998X1.999996*%
%ADD13R,1.099998X1.649997*%
%ADD14R,1.649997X1.099998*%
%ADD15R,1.599997X1.269997*%
%ADD16R,0.999998X0.949998*%
%ADD17O,1.699997X0.349999*%
%ADD18R,1.149998X0.599999*%
%ADD19R,1.699997X1.099998*%
%ADD20R,2.199996X3.499993*%
%ADD21R,2.199996X1.199998*%
%LNiot_6_lowpan_gateway_v01-1*%
%LPD*%
G54D10*
X434199Y107699D03*
Y091799D03*
X062799Y100999D03*
Y084999D03*
X088499Y101499D03*
Y085499D03*
X537799Y246199D03*
Y262299D03*
X511199Y261699D03*
Y245799D03*
X835499Y474699D03*
Y458799D03*
X395799Y438799D03*
Y454699D03*
X836099Y072799D03*
Y088799D03*
X561199Y108799D03*
Y092699D03*
X586699Y108799D03*
Y092699D03*
X415299Y438799D03*
Y454699D03*
G54D11*
X571999Y510299D03*
Y465299D03*
G54D12*
X658299Y384699D03*
Y459799D03*
X684399Y384699D03*
Y459799D03*
G54D13*
X709299Y283299D03*
X742199D03*
X709299Y245199D03*
X742199D03*
G54D14*
X577199Y337199D03*
Y370299D03*
G54D15*
X565499Y262699D03*
Y242299D03*
G54D16*
X809699Y458799D03*
X793799D03*
X511199Y413999D03*
X4953D03*
X527799Y4445D03*
X511699D03*
X510799Y224199D03*
X526699D03*
X109499Y349999D03*
X125499D03*
X847799Y038799D03*
X831799D03*
X108999Y374499D03*
X124999D03*
Y399699D03*
X108999D03*
X319499Y349199D03*
X303499D03*
X303799Y329999D03*
X319799D03*
X318999Y397199D03*
X302999D03*
Y378799D03*
X318999D03*
G54D17*
X185199Y384999D03*
Y378499D03*
Y371999D03*
Y365499D03*
Y358999D03*
Y352499D03*
Y345999D03*
X242299Y384999D03*
Y378499D03*
Y371999D03*
Y365499D03*
Y358999D03*
Y352499D03*
Y345999D03*
G54D18*
X589999Y404699D03*
Y423799D03*
X567499Y414199D03*
G54D19*
X732499Y319499D03*
Y346499D03*
G54D20*
X405999Y283999D03*
G54D21*
X467999Y306999D03*
Y283999D03*
Y260999D03*
M02*