%FSTAX24Y24*%
%MOMM*%
%SFA1B1*%

%IPPOS*%
%ADD9500C,0.250000*%
%ADD9501C,0.579999*%
%ADD9502C,0.699999*%
%ADD9503C,0.759998*%
%ADD9504C,0.799998*%
%ADD9505C,0.859998*%
%ADD9506C,0.899998*%
%ADD9507C,1.299997*%
%ADD9508C,2.499995*%
%LNiot_6_lowpan_gateway_v01-plated-1*%
%LPD*%
G54D9500*
X405999Y283999D03*
X488999D03*
G54D9501*
X611699Y260499D03*
Y282499D03*
Y304499D03*
Y336499D03*
X662499D03*
Y304499D03*
Y282499D03*
Y260499D03*
G54D9502*
X055499Y243799D03*
X187999Y227699D03*
X255199Y227999D03*
X340799Y349199D03*
Y393499D03*
X489999Y117499D03*
X668499Y104299D03*
X682799Y183999D03*
X763799Y296499D03*
X759499Y371999D03*
X613799Y450299D03*
X606699Y527199D03*
X282999Y447199D03*
X109499Y482999D03*
X037799Y476199D03*
G54D9503*
X763899Y065899D03*
G54D9504*
X358099Y041199D03*
X383499D03*
X408899D03*
X434299D03*
X459699D03*
X485099D03*
X510499D03*
X535899D03*
X561299D03*
X586699D03*
X612099D03*
X637499D03*
X662899D03*
X688299D03*
X713699D03*
X495499Y505499D03*
Y525499D03*
X475499D03*
X455499D03*
Y505499D03*
X475499D03*
X435499D03*
X415499D03*
Y525499D03*
X435499D03*
X395499D03*
Y505499D03*
X375499D03*
X355499D03*
Y525499D03*
X375499D03*
X335499D03*
X315499D03*
Y505499D03*
X335499D03*
X295499D03*
X275499D03*
Y525499D03*
X295499D03*
X255499D03*
Y505499D03*
X235499D03*
X215499D03*
Y525499D03*
X235499D03*
X195499D03*
X175499D03*
Y505499D03*
X195499D03*
X155499D03*
X135499D03*
Y525499D03*
X155499D03*
X115499D03*
Y505499D03*
G54D9505*
X761599Y142299D03*
X786999D03*
X788199Y510299D03*
X762799D03*
G54D9506*
X037699Y038799D03*
X062999D03*
X088499D03*
X113899D03*
X139299D03*
X164699D03*
X189999D03*
X215499D03*
X240799D03*
X266199D03*
X291699D03*
X316999D03*
X062499Y323799D03*
Y349199D03*
Y374699D03*
X789299Y065899D03*
Y040499D03*
X763899D03*
X756799Y408999D03*
Y434399D03*
Y459699D03*
X062499Y400099D03*
G54D9507*
X817799Y247499D03*
Y298299D03*
Y348999D03*
Y399799D03*
G54D9508*
X055499Y200499D03*
X8255D03*
Y515499D03*
X055499D03*
M02*