%FSTAX24Y24*%
%MOMM*%
%SFA1B1*%

%IPPOS*%
%ADD10R,0.949998X0.999998*%
%ADD24R,1.599997X1.599997*%
%ADD25C,1.599997*%
%ADD26R,1.519997X1.519997*%
%ADD27C,1.519997*%
%ADD28R,1.499997X1.499997*%
%ADD29C,1.499997*%
%ADD30C,3.999992*%
%ADD31C,2.499995*%
%ADD32R,1.499997X1.499997*%
%ADD33C,1.399997*%
%ADD34R,1.399997X1.399997*%
%ADD35R,1.879996X1.879996*%
%ADD36C,1.879996*%
%LNiot_6_lowpan_gateway_v01-1*%
%LPD*%
G54D10*
X2413Y106999D03*
Y090999D03*
X266299Y107299D03*
Y091199D03*
X291499Y107299D03*
Y091199D03*
X637499Y107699D03*
Y091799D03*
G54D24*
X756799Y408999D03*
G54D25*
X756799Y434399D03*
Y459699D03*
G54D26*
X788199Y510299D03*
X786999Y142299D03*
G54D27*
X762799Y510299D03*
X761599Y142299D03*
X763899Y065899D03*
G54D28*
X358099Y041199D03*
X763899Y040499D03*
G54D29*
X383499Y041199D03*
X408899D03*
X434299D03*
X459699D03*
X485099D03*
X510499D03*
X535899D03*
X561299D03*
X586699D03*
X612099D03*
X637499D03*
X662899D03*
X688299D03*
X713699D03*
X062499Y349199D03*
Y374699D03*
Y400099D03*
X662499Y336499D03*
Y304499D03*
Y282499D03*
Y260499D03*
X611699D03*
Y282499D03*
Y304499D03*
Y336499D03*
X789299Y065899D03*
Y040499D03*
G54D30*
X055499Y200499D03*
Y515499D03*
G54D31*
X817799Y348999D03*
Y399799D03*
Y298299D03*
Y247499D03*
G54D32*
X062499Y323799D03*
G54D33*
X495499Y525499D03*
Y505499D03*
X475499Y525499D03*
Y505499D03*
X455499Y525499D03*
Y505499D03*
X435499Y525499D03*
Y505499D03*
X415499Y525499D03*
Y505499D03*
X395499Y525499D03*
Y505499D03*
X375499Y525499D03*
Y505499D03*
X355499Y525499D03*
Y505499D03*
X335499Y525499D03*
Y505499D03*
X315499Y525499D03*
Y505499D03*
X295499Y525499D03*
Y505499D03*
X275499Y525499D03*
Y505499D03*
X255499Y525499D03*
Y505499D03*
X235499Y525499D03*
Y505499D03*
X215499Y525499D03*
Y505499D03*
X195499Y525499D03*
Y505499D03*
X175499Y525499D03*
Y505499D03*
X155499Y525499D03*
Y505499D03*
X135499Y525499D03*
Y505499D03*
X115499Y525499D03*
G54D34*
X115499Y505499D03*
G54D35*
X037699Y038799D03*
G54D36*
X062999Y038799D03*
X088499D03*
X113899D03*
X139299D03*
X164699D03*
X189999D03*
X215499D03*
X240799D03*
X266199D03*
X291699D03*
X316999D03*
M02*