%FSTAX24Y24*%
%MOMM*%
%SFA1B1*%

%IPPOS*%
%ADD10R,0.949998X0.999998*%
%ADD22C,0.299999*%
%ADD23C,0.999998*%
%ADD24R,1.599997X1.599997*%
%ADD25C,1.599997*%
%ADD26R,1.519997X1.519997*%
%ADD27C,1.519997*%
%ADD28R,1.499997X1.499997*%
%ADD29C,1.499997*%
%ADD30C,3.999992*%
%ADD31C,2.499995*%
%ADD32R,1.499997X1.499997*%
%ADD33C,1.399997*%
%ADD34R,1.399997X1.399997*%
%ADD35R,1.879996X1.879996*%
%ADD36C,1.879996*%
%ADD37C,0.509999*%
%ADD38C,0.499999*%
%ADD39C,0.250000*%
%LNiot_6_lowpan_gateway_v01-1*%
%LPD*%
G36*
X353399Y537299D02*
X353099Y536199D01*
X352499Y535099*
X350499Y534199*
X348399Y532599*
X346799Y530499*
X346599Y530099*
X344399*
X344199Y530499*
X342599Y532599*
X340499Y534199*
X338099Y535199*
X335499Y535599*
X332899Y535199*
X330499Y534199*
X328399Y532599*
X326799Y530499*
X326599Y530099*
X324399*
X324199Y530499*
X322599Y532599*
X320499Y534199*
X318099Y535199*
X315499Y535599*
X312899Y535199*
X310499Y534199*
X308399Y532599*
X306799Y530499*
X306599Y530099*
X304399*
X304199Y530499*
X302599Y532599*
X300499Y534199*
X298099Y535199*
X295499Y535599*
X292899Y535199*
X290499Y534199*
X288399Y532599*
X286799Y530499*
X286599Y530099*
X284399*
X284199Y530499*
X282599Y532599*
X280499Y534199*
X278099Y535199*
X275499Y535599*
X272899Y535199*
X270499Y534199*
X268399Y532599*
X266799Y530499*
X266599Y530099*
X264399*
X264199Y530499*
X262599Y532599*
X260499Y534199*
X258099Y535199*
X255499Y535599*
X252899Y535199*
X250499Y534199*
X248399Y532599*
X246799Y530499*
X246599Y530099*
X244399*
X244199Y530499*
X242599Y532599*
X240499Y534199*
X238099Y535199*
X235499Y535599*
X232899Y535199*
X230499Y534199*
X228399Y532599*
X226799Y530499*
X226599Y530099*
X224399*
X224199Y530499*
X222599Y532599*
X220499Y534199*
X218099Y535199*
X215499Y535599*
X212899Y535199*
X210499Y534199*
X208399Y532599*
X206799Y530499*
X206599Y530099*
X204399*
X204199Y530499*
X202599Y532599*
X200499Y534199*
X198099Y535199*
X195499Y535599*
X192899Y535199*
X1905Y534199*
X188399Y532599*
X186799Y530499*
X186599Y530099*
X184399*
X184199Y530499*
X182599Y532599*
X180499Y534199*
X178099Y535199*
X175499Y535599*
X172899Y535199*
X170499Y534199*
X168399Y532599*
X166799Y530499*
X166599Y530099*
X164399*
X164199Y530499*
X162599Y532599*
X160499Y534199*
X158099Y535199*
X155499Y535599*
X152899Y535199*
X150499Y534199*
X148399Y532599*
X146799Y530499*
X146599Y530099*
X144399*
X144199Y530499*
X142599Y532599*
X140499Y534199*
X138099Y535199*
X135499Y535599*
X132899Y535199*
X130499Y534199*
X128399Y532599*
X126799Y530499*
X126299Y529499*
X124199*
X123799Y530299*
X122299Y532299*
X120299Y533799*
X117999Y534799*
X116799Y534999*
Y525499*
X115499*
Y524199*
X105999*
X106199Y522999*
X107199Y5207*
X108699Y518699*
X110699Y517199*
X110999Y516999*
X110599Y514999*
X105999*
Y506799*
X115499*
Y505499*
X116799*
Y495999*
X124999*
Y499599*
X125599Y499799*
X127Y500099*
X128399Y498399*
X130499Y496799*
X132899Y495799*
X135499Y495399*
X138099Y495799*
X140499Y496799*
X142599Y498399*
X144199Y500499*
X144399Y500899*
X146599*
X146799Y500499*
X148399Y498399*
X150499Y496799*
X152899Y495799*
X155499Y495399*
X158099Y495799*
X160499Y496799*
X162599Y498399*
X164199Y500499*
X164399Y500899*
X166599*
X166799Y500499*
X168399Y498399*
X170499Y496799*
X172899Y495799*
X175499Y495399*
X178099Y495799*
X180499Y496799*
X182599Y498399*
X184199Y500499*
X184399Y500899*
X186599*
X186799Y500499*
X188399Y498399*
X1905Y496799*
X192899Y495799*
X195499Y495399*
X198099Y495799*
X200499Y496799*
X202599Y498399*
X204199Y500499*
X204399Y500899*
X206599*
X206799Y500499*
X208399Y498399*
X210499Y496799*
X212899Y495799*
X215499Y495399*
X218099Y495799*
X220499Y496799*
X222599Y498399*
X224199Y500499*
X224399Y500899*
X226599*
X226799Y500499*
X228399Y498399*
X230499Y496799*
X232899Y495799*
X235499Y495399*
X238099Y495799*
X240499Y496799*
X242599Y498399*
X244199Y500499*
X244399Y500899*
X246599*
X246799Y500499*
X248399Y498399*
X250499Y496799*
X252899Y495799*
X255499Y495399*
X258099Y495799*
X260499Y496799*
X262599Y498399*
X264199Y500499*
X264399Y500899*
X266599*
X266799Y500499*
X268399Y498399*
X270499Y496799*
X272899Y495799*
X275499Y495399*
X278099Y495799*
X280499Y496799*
X282599Y498399*
X284199Y500499*
X284399Y500899*
X286599*
X286799Y500499*
X288399Y498399*
X290499Y496799*
X292899Y495799*
X295499Y495399*
X298099Y495799*
X300499Y496799*
X302599Y498399*
X304199Y500499*
X304399Y500899*
X306599*
X306799Y500499*
X308399Y498399*
X310499Y496799*
X312899Y495799*
X315499Y495399*
X316199Y495499*
X317099Y493599*
X307799Y484299*
X142299*
X140499Y483999*
X138999Y482999*
X103299Y447199*
X102299Y445799*
X101899Y443999*
Y160999*
X102299Y159199*
X103299Y157799*
X121899Y139099*
X121599Y137799*
X121199Y137099*
X118699*
X099799Y155899*
Y475799*
X101799Y476499*
X102299Y475799*
X104399Y474199*
X106899Y473199*
X108199Y472999*
Y482999*
Y492999*
X106899Y492799*
X104399Y491799*
X102299Y490199*
X101799Y489499*
X099799Y490199*
Y530099*
X107699Y537899*
X352999*
X353399Y537299*
G37*
G36*
X865499Y015199D02*
X015199D01*
Y555799*
X094899*
X095499Y553799*
Y553699*
X081299Y539499*
X080299Y537999*
X079899Y536199*
Y517999*
X077899Y517899*
X077699Y519899*
X076399Y524199*
X074299Y528099*
X071499Y531499*
X068099Y534299*
X064199Y536399*
X059899Y537699*
X056799Y537999*
Y515499*
Y492999*
X059899Y493299*
X064199Y494599*
X068099Y496699*
X071499Y499499*
X074299Y502899*
X076399Y506799*
X077699Y511099*
X077899Y513099*
X079899Y512999*
Y202999*
X077899Y202899*
X077699Y204899*
X076399Y209199*
X074299Y213099*
X071499Y216499*
X068099Y219299*
X064199Y221399*
X059899Y222699*
X056799Y222999*
Y200499*
Y177999*
X059899Y178299*
X064199Y179599*
X068099Y181699*
X071499Y184499*
X074299Y187899*
X076399Y191799*
X077699Y196099*
X077899Y198099*
X079899Y197999*
Y148799*
X080299Y146999*
X081299Y145499*
X108499Y118299*
X109999Y117299*
X111799Y116899*
X224099*
X233499Y107499*
Y098999*
Y096999*
Y082999*
X236299*
Y050299*
X234599Y049599*
X231999Y047599*
X229999Y044999*
X229199Y043099*
X227099*
X226299Y044999*
X224299Y047599*
X221699Y049599*
X218699Y0508*
X215499Y051299*
X212199Y0508*
X209199Y049599*
X206599Y047599*
X204599Y044999*
X203799Y043099*
X201699*
X200899Y044999*
X198899Y047599*
X196299Y049599*
X193299Y0508*
X189999Y051299*
X186799Y0508*
X183799Y049599*
X181199Y047599*
X179199Y044999*
X178399Y043099*
X176299*
X175499Y044999*
X173499Y047599*
X170899Y049599*
X167899Y0508*
X164699Y051299*
X161399Y0508*
X158399Y049599*
X155799Y047599*
X153799Y044999*
X152999Y043099*
X150899*
X150099Y044999*
X148099Y047599*
X145499Y049599*
X142499Y0508*
X139299Y051299*
X135999Y0508*
X132999Y049599*
X130399Y047599*
X128399Y044999*
X127599Y043099*
X125499*
X124699Y044999*
X122699Y047599*
X120099Y049599*
X117099Y0508*
X113899Y051299*
X110599Y0508*
X107599Y049599*
X104999Y047599*
X102999Y044999*
X102199Y043099*
X100099*
X099299Y044999*
X097299Y047599*
X094699Y049599*
X091699Y0508*
X088499Y051299*
X085199Y0508*
X082199Y049599*
X079599Y047599*
X077599Y044999*
X076799Y043099*
X074699*
X073899Y044999*
X071899Y047599*
X069299Y049599*
X066299Y0508*
X062999Y051299*
X059799Y0508*
X056799Y049599*
X054199Y047599*
X052199Y044999*
X051599Y043499*
X049599Y043899*
Y050699*
X038899*
Y038699*
Y026799*
X049599*
Y033599*
X051599Y033999*
X052199Y032499*
X054199Y029899*
X056799Y027899*
X059799Y026699*
X062999Y026199*
X066299Y026699*
X069299Y027899*
X071899Y029899*
X073899Y032499*
X074699Y034399*
X076799*
X077599Y032499*
X079599Y029899*
X082199Y027899*
X085199Y026699*
X088499Y026199*
X091699Y026699*
X094699Y027899*
X097299Y029899*
X099299Y032499*
X100099Y034399*
X102199*
X102999Y032499*
X104999Y029899*
X107599Y027899*
X110599Y026699*
X113899Y026199*
X117099Y026699*
X120099Y027899*
X122699Y029899*
X124699Y032499*
X125499Y034399*
X127599*
X128399Y032499*
X130399Y029899*
X132999Y027899*
X135999Y026699*
X139299Y026199*
X142499Y026699*
X145499Y027899*
X148099Y029899*
X150099Y032499*
X150899Y034399*
X152999*
X153799Y032499*
X155799Y029899*
X158399Y027899*
X161399Y026699*
X164699Y026199*
X167899Y026699*
X170899Y027899*
X173499Y029899*
X175499Y032499*
X176299Y034399*
X178399*
X179199Y032499*
X181199Y029899*
X183799Y027899*
X186799Y026699*
X189999Y026199*
X193299Y026699*
X196299Y027899*
X198899Y029899*
X200899Y032499*
X201699Y034399*
X203799*
X204599Y032499*
X206599Y029899*
X209199Y027899*
X212199Y026699*
X215499Y026199*
X218699Y026699*
X221699Y027899*
X224299Y029899*
X226299Y032499*
X227099Y034399*
X229199*
X229999Y032499*
X231999Y029899*
X234599Y027899*
X237599Y026699*
X240799Y026199*
X244099Y026699*
X247099Y027899*
X249699Y029899*
X251699Y032499*
X252499Y034399*
X254599*
X255399Y032499*
X257399Y029899*
X259999Y027899*
X262999Y026699*
X266199Y026199*
X269499Y026699*
X272499Y027899*
X275099Y029899*
X277099Y032499*
X277899Y034399*
X279999*
X280799Y032499*
X282799Y029899*
X285399Y027899*
X288399Y026699*
X291699Y026199*
X294899Y026699*
X297899Y027899*
X300499Y029899*
X302499Y032499*
X303299Y034399*
X305399*
X306199Y032499*
X308199Y029899*
X310799Y027899*
X313799Y026699*
X316999Y026199*
X320299Y026699*
X323299Y027899*
X325899Y029899*
X327899Y032499*
X329099Y035499*
X329599Y038799*
X329099Y041999*
X327899Y044999*
X325899Y047599*
X325099Y048199*
Y115699*
X324799Y117799*
X323999Y119699*
X322799Y121399*
X278999Y165199*
X277299Y166499*
X275299Y167299*
X273299Y167599*
X141799*
X130299Y179099*
Y438399*
X151599Y459699*
X443499*
X445599Y459999*
X447499Y460799*
X449199Y461999*
X459299Y472199*
X461199Y471399*
Y453499*
X460599Y452599*
X460099Y450499*
Y395999*
X460599Y393899*
X461799Y391999*
X521599Y332199*
Y242999*
X522099Y240899*
X523299Y238999*
X631899Y130399*
Y115699*
X629799*
Y101799*
Y099799*
Y097699*
Y083799*
X632899*
Y050699*
X632199Y050399*
X629999Y048699*
X628299Y046499*
X627299Y043999*
X626899Y041199*
X627299Y038499*
X628299Y035999*
X629999Y033799*
X632199Y032099*
X634799Y030999*
X637499Y030699*
X640199Y030999*
X642799Y032099*
X644999Y033799*
X646699Y035999*
X6477Y038499*
X648099Y041199*
X6477Y043999*
X646699Y046499*
X644999Y048699*
X642799Y050399*
X642099Y050699*
Y083799*
X645299*
Y097699*
Y099799*
Y101799*
Y115699*
X643099*
Y132699*
X642699Y134899*
X641499Y136699*
X532899Y245299*
Y334499*
X532399Y336599*
X531199Y338499*
X471399Y398299*
Y450499*
X470899Y452599*
X470299Y453499*
Y477899*
X472199Y478699*
X593499Y357299*
X595199Y355999*
X597199Y355199*
X599199Y354899*
X662399*
X753699Y263699*
Y149399*
X752299Y147599*
X751299Y144999*
X751199Y144299*
X682599Y075799*
X681299Y074099*
X680499Y072099*
X680199Y070099*
Y047999*
X679099Y046499*
X678099Y043999*
X677699Y041199*
X678099Y038499*
X679099Y035999*
X680799Y033799*
X682999Y032099*
X685599Y030999*
X688299Y030699*
X690999Y030999*
X693599Y032099*
X695799Y033799*
X697499Y035999*
X6985Y038499*
X698899Y041199*
X6985Y043999*
X697499Y046499*
X696399Y047999*
Y066699*
X761199Y131599*
X761599Y131499*
X764399Y131899*
X766999Y132999*
X769199Y134699*
X770899Y136899*
X771899Y139499*
X772299Y142299*
X771899Y144999*
X770899Y147599*
X769799Y148999*
Y266999*
X769499Y269099*
X768699Y270999*
X767499Y272699*
X671499Y368699*
X669799Y369999*
X667799Y370799*
X665699Y371099*
X602599*
X483599Y490099*
Y499599*
X484199Y500499*
X484699Y501499*
X486799*
X487199Y500699*
X488699Y498699*
X490699Y497199*
X492999Y496199*
X494199Y495999*
Y505499*
X495499*
Y506799*
X504999*
X504799Y508*
X503799Y510299*
X502299Y512299*
X500299Y513799*
X498899Y514399*
Y516599*
X500299Y517199*
X502299Y518699*
X503799Y5207*
X504799Y522999*
X504999Y524199*
X495499*
Y525499*
X494199*
Y534999*
X492999Y534799*
X490699Y533799*
X488699Y532299*
X487199Y530299*
X486799Y529499*
X484699*
X484199Y530499*
X483599Y531399*
Y536199*
X485799Y538399*
X601099*
X601499Y536399*
X599299Y534699*
X597599Y532499*
X596499Y529999*
X596199Y527199*
X596499Y524499*
X597599Y521999*
X599299Y519799*
X601499Y518099*
X603999Y516999*
X606699Y516699*
X609499Y516999*
X611999Y518099*
X614199Y519799*
X615899Y521999*
X616999Y524499*
X617199Y526299*
X629299Y538399*
X740399*
X754699Y524099*
Y517199*
X753499Y515599*
X752499Y512999*
X752099Y510299*
X752499Y507499*
X753499Y504899*
X755199Y502699*
X757399Y500999*
X759999Y499899*
X762799Y499499*
X765599Y499899*
X768199Y500999*
X770399Y502699*
X772099Y504899*
X773099Y507499*
X773499Y510299*
X773099Y512999*
X772099Y515599*
X770899Y517199*
Y527399*
X770599Y529499*
X769799Y531499*
X768499Y533199*
X749499Y552199*
X747799Y553499*
X747199Y553799*
X747499Y555799*
X865499*
Y015199*
G37*
%LNiot_6_lowpan_gateway_v01-2*%
%LPC*%
G36*
X114199Y534999D02*
X112999Y534799D01*
X110699Y533799*
X108699Y532299*
X107199Y530299*
X106199Y527999*
X105999Y526799*
X114199*
Y534999*
G37*
G36*
Y504199D02*
X105999D01*
Y495999*
X114199*
Y504199*
G37*
G36*
X110799Y492999D02*
Y484299D01*
X119499*
X119299Y485599*
X118299Y488099*
X116699Y490199*
X114599Y491799*
X112099Y492799*
X110799Y492999*
G37*
G36*
X119499Y481699D02*
X110799D01*
Y472999*
X112099Y473199*
X114599Y474199*
X116699Y475799*
X118299Y477899*
X119299Y480399*
X119499Y481699*
G37*
G36*
X496799Y534999D02*
Y526799D01*
X504999*
X504799Y527999*
X503799Y530299*
X502299Y532299*
X500299Y533799*
X497999Y534799*
X496799Y534999*
G37*
G36*
X054199Y537999D02*
X051099Y537699D01*
X046799Y536399*
X042899Y534299*
X039499Y531499*
X036699Y528099*
X034599Y524199*
X033299Y519899*
X032999Y516799*
X054199*
Y537999*
G37*
G36*
X798399Y520399D02*
X789499D01*
Y511499*
X798399*
Y520399*
G37*
G36*
X786899D02*
X777999D01*
Y511499*
X786899*
Y520399*
G37*
G36*
X798399Y508999D02*
X789499D01*
Y500099*
X798399*
Y508999*
G37*
G36*
X786899D02*
X777999D01*
Y500099*
X786899*
Y508999*
G37*
G36*
X8255Y531099D02*
X822499Y530799D01*
X819499Y529899*
X816799Y528499*
X814499Y526499*
X812499Y524199*
X811099Y521499*
X810199Y518499*
X809899Y515499*
X810199Y512499*
X811099Y509499*
X812499Y506799*
X814499Y504499*
X816799Y502499*
X819499Y501099*
X822499Y500199*
X8255Y499899*
X828499Y500199*
X831499Y501099*
X834199Y502499*
X836499Y504499*
X838499Y506799*
X839899Y509499*
X840799Y512499*
X841099Y515499*
X840799Y518499*
X839899Y521499*
X838499Y524199*
X836499Y526499*
X834199Y528499*
X831499Y529899*
X828499Y530799*
X8255Y531099*
G37*
G36*
X504999Y504199D02*
X496799D01*
Y495999*
X497999Y496199*
X500299Y497199*
X502299Y498699*
X503799Y500699*
X504799Y502999*
X504999Y504199*
G37*
G36*
X054199Y514199D02*
X032999D01*
X033299Y511099*
X034599Y506799*
X036699Y502899*
X039499Y499499*
X042899Y496699*
X046799Y494599*
X051099Y493299*
X054199Y492999*
Y514199*
G37*
G36*
X038999Y486199D02*
Y477499D01*
X047699*
X047499Y478899*
X046499Y481299*
X044899Y483399*
X042799Y484999*
X040399Y485999*
X038999Y486199*
G37*
G36*
X036499D02*
X035099Y485999D01*
X032699Y484999*
X030599Y483399*
X028999Y481299*
X027999Y478899*
X027799Y477499*
X036499*
Y486199*
G37*
G36*
X047699Y474999D02*
X038999D01*
Y466299*
X040399Y466499*
X042799Y467499*
X044899Y469099*
X046499Y471199*
X047499Y473599*
X047699Y474999*
G37*
G36*
X036499D02*
X027799D01*
X027999Y473599*
X028999Y471199*
X030599Y469099*
X032699Y467499*
X035099Y466499*
X036499Y466299*
Y474999*
G37*
G36*
X614999Y460199D02*
Y451499D01*
X623699*
X623499Y452899*
X622499Y455299*
X620899Y457399*
X618799Y458999*
X616399Y459999*
X614999Y460199*
G37*
G36*
X612499D02*
X611099Y459999D01*
X608699Y458999*
X606599Y457399*
X604999Y455299*
X603999Y452899*
X603799Y451499*
X612499*
Y460199*
G37*
G36*
X756799Y470799D02*
X753899Y470499D01*
X751199Y469399*
X748899Y467599*
X747099Y465299*
X745999Y462599*
X745699Y459699*
X745999Y456899*
X747099Y454199*
X748899Y451899*
X751199Y450099*
X753899Y448999*
X756799Y448699*
X759599Y448999*
X762299Y450099*
X764599Y451899*
X766399Y454199*
X767499Y456899*
X767799Y459699*
X767499Y462599*
X766399Y465299*
X764599Y467599*
X762299Y469399*
X759599Y470499*
X756799Y470799*
G37*
G36*
X284299Y4572D02*
Y448499D01*
X292999*
X292799Y449899*
X291799Y452299*
X290199Y454399*
X288099Y455999*
X285599Y456999*
X284299Y4572*
G37*
G36*
X281699D02*
X280399Y456999D01*
X277899Y455999*
X275799Y454399*
X274199Y452299*
X273199Y449899*
X272999Y448499*
X281699*
Y4572*
G37*
G36*
X623699Y448999D02*
X614999D01*
Y440299*
X616399Y440499*
X618799Y441499*
X620899Y443099*
X622499Y445199*
X623499Y447599*
X623699Y448999*
G37*
G36*
X612499D02*
X603799D01*
X603999Y447599*
X604999Y445199*
X606599Y443099*
X608699Y441499*
X611099Y440499*
X612499Y440299*
Y448999*
G37*
G36*
X292999Y445999D02*
X284299D01*
Y437299*
X285599Y437499*
X288099Y438499*
X290199Y440099*
X291799Y442199*
X292799Y444599*
X292999Y445999*
G37*
G36*
X281699D02*
X272999D01*
X273199Y444599*
X274199Y442199*
X275799Y440099*
X277899Y438499*
X280399Y437499*
X281699Y437299*
Y445999*
G37*
G36*
X756799Y445399D02*
X753899Y445099D01*
X751199Y443999*
X748899Y442199*
X747099Y439899*
X745999Y437199*
X745699Y434399*
X745999Y431499*
X747099Y428799*
X748899Y426499*
X751199Y424699*
X753899Y423599*
X756799Y423299*
X759599Y423599*
X762299Y424699*
X764599Y426499*
X766399Y428799*
X767499Y431499*
X767799Y434399*
X767499Y437199*
X766399Y439899*
X764599Y442199*
X762299Y443999*
X759599Y445099*
X756799Y445399*
G37*
G36*
X767299Y419499D02*
X757999D01*
Y410199*
X767299*
Y419499*
G37*
G36*
X755499D02*
X746199D01*
Y410199*
X755499*
Y419499*
G37*
G36*
X767299Y407699D02*
X757999D01*
Y398399*
X767299*
Y407699*
G37*
G36*
X755499D02*
X746199D01*
Y398399*
X755499*
Y407699*
G37*
G36*
X341999Y403499D02*
Y394799D01*
X350699*
X350499Y396099*
X349499Y398599*
X347899Y400699*
X345799Y402299*
X343399Y403299*
X341999Y403499*
G37*
G36*
X339499D02*
X338099Y403299D01*
X335699Y402299*
X333599Y400699*
X331999Y398599*
X330999Y396099*
X330799Y394799*
X339499*
Y403499*
G37*
G36*
X062499Y410599D02*
X059799Y410299D01*
X057199Y409199*
X054999Y407499*
X053299Y405299*
X052299Y402799*
X051899Y400099*
X052299Y397299*
X053299Y394799*
X054999Y392599*
X057199Y390899*
X059799Y389799*
X062499Y389499*
X065199Y389799*
X067799Y390899*
X069999Y392599*
X071699Y394799*
X072699Y397299*
X073099Y400099*
X072699Y402799*
X071699Y405299*
X069999Y407499*
X067799Y409199*
X065199Y410299*
X062499Y410599*
G37*
G36*
X817799Y415399D02*
X814699Y415099D01*
X811799Y414199*
X809099Y412799*
X806699Y410799*
X804799Y408499*
X804499Y407899*
X787299*
X785199Y407599*
X783299Y406799*
X781599Y405499*
X758599Y382499*
X756799Y382199*
X754199Y381199*
X751999Y379499*
X750299Y377299*
X7493Y374699*
X748899Y371999*
X7493Y369299*
X750299Y366699*
X751999Y364499*
X754199Y362799*
X756799Y361799*
X759499Y361399*
X762199Y361799*
X764799Y362799*
X766999Y364499*
X768699Y366699*
X769699Y369299*
X769999Y371099*
X790599Y391699*
X804499*
X804799Y391099*
X806699Y388799*
X809099Y386799*
X811799Y385399*
X814699Y384499*
X817799Y384199*
X820799Y384499*
X823699Y385399*
X826399Y386799*
X828799Y388799*
X830699Y391099*
X832099Y393799*
X832999Y396799*
X833299Y399799*
X832999Y402799*
X832099Y405799*
X830699Y408499*
X828799Y410799*
X826399Y412799*
X823699Y414199*
X820799Y415099*
X817799Y415399*
G37*
G36*
X350699Y392199D02*
X341999D01*
Y383499*
X343399Y383699*
X345799Y384699*
X347899Y386299*
X349499Y388399*
X350499Y390899*
X350699Y392199*
G37*
G36*
X339499D02*
X330799D01*
X330999Y390899*
X331999Y388399*
X333599Y386299*
X335699Y384699*
X338099Y383699*
X339499Y383499*
Y392199*
G37*
G36*
X062499Y385199D02*
X059799Y384899D01*
X057199Y383799*
X054999Y382099*
X053299Y379899*
X052299Y377399*
X051899Y374699*
X052299Y371899*
X053299Y369399*
X054999Y367199*
X057199Y365499*
X059799Y364399*
X062499Y364099*
X065199Y364399*
X067799Y365499*
X069999Y367199*
X071699Y369399*
X072699Y371899*
X073099Y374699*
X072699Y377399*
X071699Y379899*
X069999Y382099*
X067799Y383799*
X065199Y384899*
X062499Y385199*
G37*
G36*
X341999Y359199D02*
Y350499D01*
X350699*
X350499Y351899*
X349499Y354299*
X347899Y356399*
X345799Y357999*
X343399Y358999*
X341999Y359199*
G37*
G36*
X339499D02*
X338099Y358999D01*
X335699Y357999*
X333599Y356399*
X331999Y354299*
X330999Y351899*
X330799Y350499*
X339499*
Y359199*
G37*
G36*
X818999Y363999D02*
Y350299D01*
X832699*
X832599Y351899*
X831699Y354799*
X830299Y357399*
X828399Y359699*
X826099Y361599*
X823499Y362999*
X820699Y363799*
X818999Y363999*
G37*
G36*
X816499D02*
X814799Y363799D01*
X811999Y362999*
X809399Y361599*
X807099Y359699*
X805199Y357399*
X803799Y354799*
X802899Y351899*
X802799Y350299*
X816499*
Y363999*
G37*
G36*
X350699Y347999D02*
X341999D01*
Y339299*
X343399Y339499*
X345799Y340499*
X347899Y342099*
X349499Y344199*
X350499Y346599*
X350699Y347999*
G37*
G36*
X339499D02*
X330799D01*
X330999Y346599*
X331999Y344199*
X333599Y342099*
X335699Y340499*
X338099Y339499*
X339499Y339299*
Y347999*
G37*
G36*
X062499Y359799D02*
X059799Y359499D01*
X057199Y358399*
X054999Y356699*
X053299Y354499*
X052299Y351999*
X051899Y349199*
X052299Y346499*
X053299Y343999*
X054999Y341799*
X057199Y340099*
X059799Y338999*
X062499Y338699*
X065199Y338999*
X067799Y340099*
X069999Y341799*
X071699Y343999*
X072699Y346499*
X073099Y349199*
X072699Y351999*
X071699Y354499*
X069999Y356699*
X067799Y358399*
X065199Y359499*
X062499Y359799*
G37*
G36*
X832699Y347699D02*
X818999D01*
Y333999*
X820699Y334199*
X823499Y334999*
X826099Y336399*
X828399Y338299*
X830299Y340599*
X831699Y343199*
X832599Y346099*
X832699Y347699*
G37*
G36*
X816499D02*
X802799D01*
X802899Y346099*
X803799Y343199*
X805199Y340599*
X807099Y338299*
X809399Y336399*
X811999Y334999*
X814799Y334199*
X816499Y333999*
Y347699*
G37*
G36*
X662499Y347099D02*
X659799Y346699D01*
X657199Y345699*
X654999Y343999*
X653299Y341799*
X652299Y339199*
X651899Y336499*
X652299Y333799*
X653299Y331199*
X654999Y328999*
X657199Y327299*
X659799Y326299*
X662499Y325899*
X665199Y326299*
X667799Y327299*
X669999Y328999*
X671699Y331199*
X672699Y333799*
X6731Y336499*
X672699Y339199*
X671699Y341799*
X669999Y343999*
X667799Y345699*
X665199Y346699*
X662499Y347099*
G37*
G36*
X611699D02*
X608999Y346699D01*
X606399Y345699*
X604199Y343999*
X602499Y341799*
X601499Y339199*
X601099Y336499*
X601499Y333799*
X602499Y331199*
X604199Y328999*
X606399Y327299*
X608999Y326299*
X611699Y325899*
X614399Y326299*
X616999Y327299*
X619199Y328999*
X620899Y331199*
X621899Y333799*
X6223Y336499*
X621899Y339199*
X620899Y341799*
X619199Y343999*
X616999Y345699*
X614399Y346699*
X611699Y347099*
G37*
G36*
X072499Y333899D02*
X063799D01*
Y325099*
X072499*
Y333899*
G37*
G36*
X061199D02*
X052499D01*
Y325099*
X061199*
Y333899*
G37*
G36*
X072499Y322599D02*
X063799D01*
Y313799*
X072499*
Y322599*
G37*
G36*
X061199D02*
X052499D01*
Y313799*
X061199*
Y322599*
G37*
G36*
X817799Y313799D02*
X814699Y313499D01*
X811799Y312599*
X809099Y311199*
X806699Y309299*
X804799Y306899*
X803599Y304599*
X770499*
X768999Y305699*
X766499Y306699*
X763799Y307099*
X760999Y306699*
X758499Y305699*
X756299Y303999*
X754599Y301799*
X753499Y299199*
X753199Y296499*
X753499Y293799*
X754599Y291199*
X756299Y288999*
X758499Y287299*
X760999Y286299*
X763799Y285899*
X766499Y286299*
X768999Y287299*
X770499Y288399*
X805799*
X806699Y287199*
X809099Y285299*
X811799Y283899*
X814699Y282999*
X817799Y282699*
X820799Y282999*
X823699Y283899*
X826399Y285299*
X828799Y287199*
X830699Y289599*
X832099Y292299*
X832999Y295199*
X833299Y298299*
X832999Y301299*
X832099Y304199*
X830699Y306899*
X828799Y309299*
X826399Y311199*
X823699Y312599*
X820799Y313499*
X817799Y313799*
G37*
G36*
X662499Y315099D02*
X659799Y314699D01*
X657199Y313699*
X654999Y311999*
X653299Y309799*
X652299Y307199*
X651899Y304499*
X652299Y301799*
X653299Y299199*
X654999Y296999*
X657199Y295299*
X658999Y294599*
Y292399*
X657199Y291699*
X655799Y290599*
X618399*
X616999Y291699*
X615199Y292399*
Y294599*
X616999Y295299*
X619199Y296999*
X620899Y299199*
X621899Y301799*
X6223Y304499*
X621899Y307199*
X620899Y309799*
X619199Y311999*
X616999Y313699*
X614399Y314699*
X611699Y315099*
X608999Y314699*
X606399Y313699*
X604199Y311999*
X602499Y309799*
X601499Y307199*
X601099Y304499*
X601499Y301799*
X602499Y299199*
X604199Y296999*
X606399Y295299*
X608199Y294599*
Y292399*
X606399Y291699*
X604199Y289999*
X602499Y287799*
X601499Y285199*
X601099Y282499*
X601499Y279799*
X602499Y277199*
X604199Y274999*
X606399Y273299*
X608199Y272599*
Y270399*
X606399Y269699*
X604199Y267999*
X602499Y265799*
X601499Y263199*
X601099Y260499*
X601499Y257799*
X602499Y255199*
X604199Y252999*
X606399Y251299*
X608999Y250299*
X611699Y249899*
X614399Y250299*
X616999Y251299*
X619199Y252999*
X620899Y255199*
X621899Y257799*
X6223Y260499*
X621899Y263199*
X620899Y265799*
X619199Y267999*
X616999Y269699*
X615199Y270399*
Y272599*
X616999Y273299*
X618399Y274399*
X655799*
X657199Y273299*
X658999Y272599*
Y270399*
X657199Y269699*
X654999Y267999*
X653299Y265799*
X652299Y263199*
X651899Y260499*
X652299Y257799*
X653299Y255199*
X654999Y252999*
X657199Y251299*
X659799Y250299*
X662499Y249899*
X665199Y250299*
X667799Y251299*
X669999Y252999*
X671699Y255199*
X672699Y257799*
X6731Y260499*
X672699Y263199*
X671699Y265799*
X669999Y267999*
X667799Y269699*
X665999Y270399*
Y272599*
X667799Y273299*
X669999Y274999*
X671699Y277199*
X672699Y279799*
X6731Y282499*
X672699Y285199*
X671699Y287799*
X669999Y289999*
X667799Y291699*
X665999Y292399*
Y294599*
X667799Y295299*
X669999Y296999*
X671699Y299199*
X672699Y301799*
X6731Y304499*
X672699Y307199*
X671699Y309799*
X669999Y311999*
X667799Y313699*
X665199Y314699*
X662499Y315099*
G37*
G36*
X488999Y2921D02*
X405999D01*
X403899Y291799*
X401999Y290999*
X400299Y289699*
X398999Y287999*
X398199Y286099*
X397899Y283999*
X398199Y281899*
X398999Y279999*
X400299Y278299*
X401999Y276999*
X403899Y276199*
X405999Y275899*
X488999*
X491099Y276199*
X492999Y276999*
X494699Y278299*
X495999Y279999*
X496799Y281899*
X497099Y283999*
X496799Y286099*
X495999Y287999*
X494699Y289699*
X492999Y290999*
X491099Y291799*
X488999Y2921*
G37*
G36*
X818999Y262399D02*
Y248699D01*
X832699*
X832599Y250399*
X831699Y253199*
X830299Y255799*
X828399Y258099*
X826099Y259999*
X823499Y261399*
X820699Y262299*
X818999Y262399*
G37*
G36*
X816499D02*
X814799Y262299D01*
X811999Y261399*
X809399Y259999*
X807099Y258099*
X805199Y255799*
X803799Y253199*
X802899Y250399*
X802799Y248699*
X816499*
Y262399*
G37*
G36*
X056799Y253699D02*
Y244999D01*
X065499*
X065299Y246399*
X064299Y248799*
X062699Y250899*
X060599Y252499*
X058099Y253499*
X056799Y253699*
G37*
G36*
X054199D02*
X052899Y253499D01*
X050399Y252499*
X048299Y250899*
X046699Y248799*
X045699Y246399*
X045499Y244999*
X054199*
Y253699*
G37*
G36*
X065499Y242499D02*
X056799D01*
Y233799*
X058099Y233999*
X060599Y234999*
X062699Y236599*
X064299Y238699*
X065299Y241099*
X065499Y242499*
G37*
G36*
X054199D02*
X045499D01*
X045699Y241099*
X046699Y238699*
X048299Y236599*
X050399Y234999*
X052899Y233999*
X054199Y233799*
Y242499*
G37*
G36*
X832699Y246199D02*
X818999D01*
Y232499*
X820699Y232599*
X823499Y233499*
X826099Y234899*
X828399Y236799*
X830299Y239099*
X831699Y241699*
X832599Y244499*
X832699Y246199*
G37*
G36*
X816499D02*
X802799D01*
X802899Y244499*
X803799Y241699*
X805199Y239099*
X807099Y236799*
X809399Y234899*
X811999Y233499*
X814799Y232599*
X816499Y232499*
Y246199*
G37*
G36*
X256499Y237999D02*
Y229299D01*
X265199*
X264999Y230599*
X263999Y233099*
X262399Y235199*
X260299Y236799*
X257899Y237799*
X256499Y237999*
G37*
G36*
X254D02*
X252599Y237799D01*
X250199Y236799*
X248099Y235199*
X246499Y233099*
X245499Y230599*
X245299Y229299*
X254*
Y237999*
G37*
G36*
X189299Y237699D02*
Y228999D01*
X197999*
X197799Y230399*
X196799Y232799*
X195199Y234899*
X193099Y236499*
X190599Y237499*
X189299Y237699*
G37*
G36*
X186699D02*
X185399Y237499D01*
X182899Y236499*
X180799Y234899*
X179199Y232799*
X178199Y230399*
X177999Y228999*
X186699*
Y237699*
G37*
G36*
X265199Y226699D02*
X256499D01*
Y217999*
X257899Y218199*
X260299Y219199*
X262399Y220799*
X263999Y222899*
X264999Y225399*
X265199Y226699*
G37*
G36*
X254D02*
X245299D01*
X245499Y225399*
X246499Y222899*
X248099Y220799*
X250199Y219199*
X252599Y218199*
X254Y217999*
Y226699*
G37*
G36*
X197999Y226499D02*
X189299D01*
Y217799*
X190599Y217999*
X193099Y218999*
X195199Y220599*
X196799Y222699*
X197799Y225099*
X197999Y226499*
G37*
G36*
X186699D02*
X177999D01*
X178199Y225099*
X179199Y222699*
X180799Y220599*
X182899Y218999*
X185399Y217999*
X186699Y217799*
Y226499*
G37*
G36*
X054199Y222999D02*
X051099Y222699D01*
X046799Y221399*
X042899Y219299*
X039499Y216499*
X036699Y213099*
X034599Y209199*
X033299Y204899*
X032999Y201799*
X054199*
Y222999*
G37*
G36*
X683999Y193999D02*
Y185299D01*
X692699*
X692499Y186599*
X691499Y189099*
X689899Y191199*
X687799Y192799*
X685399Y193799*
X683999Y193999*
G37*
G36*
X681499D02*
X680099Y193799D01*
X677699Y192799*
X675599Y191199*
X673999Y189099*
X672999Y186599*
X672799Y185299*
X681499*
Y193999*
G37*
G36*
X8255Y216099D02*
X822499Y215799D01*
X819499Y214899*
X816799Y213499*
X814499Y211499*
X812499Y209199*
X811099Y206499*
X810199Y203499*
X809899Y200499*
X810199Y197499*
X811099Y194499*
X812499Y191799*
X814499Y189499*
X816799Y187499*
X819499Y186099*
X822499Y185199*
X8255Y184899*
X828499Y185199*
X831499Y186099*
X834199Y187499*
X836499Y189499*
X838499Y191799*
X839899Y194499*
X840799Y197499*
X841099Y200499*
X840799Y203499*
X839899Y206499*
X838499Y209199*
X836499Y211499*
X834199Y213499*
X831499Y214899*
X828499Y215799*
X8255Y216099*
G37*
G36*
X054199Y199199D02*
X032999D01*
X033299Y196099*
X034599Y191799*
X036699Y187899*
X039499Y184499*
X042899Y181699*
X046799Y179599*
X051099Y178299*
X054199Y177999*
Y199199*
G37*
G36*
X471699Y197099D02*
X222899D01*
Y174499*
X471699*
Y197099*
G37*
G36*
X692699Y182699D02*
X683999D01*
Y173999*
X685399Y174199*
X687799Y175199*
X689899Y176799*
X691499Y178899*
X692499Y181399*
X692699Y182699*
G37*
G36*
X681499D02*
X672799D01*
X672999Y181399*
X673999Y178899*
X675599Y176799*
X677699Y175199*
X680099Y174199*
X681499Y173999*
Y182699*
G37*
G36*
X797199Y1524D02*
X788299D01*
Y143499*
X797199*
Y1524*
G37*
G36*
X785699D02*
X776799D01*
Y143499*
X785699*
Y1524*
G37*
G36*
X797199Y140999D02*
X788299D01*
Y132099*
X797199*
Y140999*
G37*
G36*
X785699D02*
X776799D01*
Y132099*
X785699*
Y140999*
G37*
G36*
X491299Y127499D02*
Y118799D01*
X499999*
X499799Y120099*
X498799Y122599*
X497199Y124699*
X495099Y126299*
X492599Y127299*
X491299Y127499*
G37*
G36*
X488699D02*
X487399Y127299D01*
X484899Y126299*
X482799Y124699*
X481199Y122599*
X480199Y120099*
X479999Y118799*
X488699*
Y127499*
G37*
G36*
X499999Y116199D02*
X491299D01*
Y107499*
X492599Y107699*
X495099Y108699*
X497199Y110299*
X498799Y112399*
X499799Y114899*
X499999Y116199*
G37*
G36*
X488699D02*
X479999D01*
X480199Y114899*
X481199Y112399*
X482799Y110299*
X484899Y108699*
X487399Y107699*
X488699Y107499*
Y116199*
G37*
G36*
X669799Y114199D02*
Y105499D01*
X678499*
X678299Y106899*
X677299Y109299*
X675699Y111399*
X673599Y112999*
X671099Y113999*
X669799Y114199*
G37*
G36*
X667199D02*
X665899Y113999D01*
X663399Y112999*
X661299Y111399*
X659699Y109299*
X658699Y106899*
X658499Y105499*
X667199*
Y114199*
G37*
G36*
X678499Y102999D02*
X669799D01*
Y094299*
X671099Y094499*
X673599Y095499*
X675699Y097099*
X677299Y099199*
X678299Y1016*
X678499Y102999*
G37*
G36*
X667199D02*
X658499D01*
X658699Y1016*
X659699Y099199*
X661299Y097099*
X663399Y095499*
X665899Y094499*
X667199Y094299*
Y102999*
G37*
G36*
X789299Y076499D02*
X786499Y076099D01*
X783999Y075099*
X781799Y073399*
X780099Y071199*
X778999Y068599*
X778699Y065899*
X778999Y063199*
X780099Y060599*
X781799Y058399*
X783999Y056699*
X786499Y055699*
X789299Y055299*
X791999Y055699*
X794499Y056699*
X796699Y058399*
X798399Y060599*
X799499Y063199*
X799799Y065899*
X799499Y068599*
X798399Y071199*
X796699Y073399*
X794499Y075099*
X791999Y076099*
X789299Y076499*
G37*
G36*
X763899Y076599D02*
X761099Y0762D01*
X758499Y075199*
X756299Y073499*
X754599Y071299*
X753499Y068699*
X753099Y065899*
X753499Y063099*
X754599Y060499*
X756299Y058299*
X758499Y056599*
X761099Y055599*
X763899Y055199*
X766599Y055599*
X769199Y056599*
X771399Y058299*
X773099Y060499*
X774199Y063099*
X774599Y065899*
X774199Y068699*
X773099Y071299*
X771399Y073499*
X769199Y075199*
X766599Y0762*
X763899Y076599*
G37*
G36*
X714999Y051199D02*
Y042499D01*
X723699*
X723499Y043899*
X722499Y046299*
X720899Y048399*
X718799Y049999*
X716299Y050999*
X714999Y051199*
G37*
G36*
X712399D02*
X711099Y050999D01*
X708599Y049999*
X706499Y048399*
X704899Y046299*
X703899Y043899*
X703699Y042499*
X712399*
Y051199*
G37*
G36*
X773899Y050499D02*
X765099D01*
Y041799*
X773899*
Y050499*
G37*
G36*
X762599D02*
X753799D01*
Y041799*
X762599*
Y050499*
G37*
G36*
X036399Y050699D02*
X025699D01*
Y039999*
X036399*
Y050699*
G37*
G36*
X723699Y039999D02*
X714999D01*
Y031299*
X716299Y031499*
X718799Y032499*
X720899Y034099*
X722499Y036199*
X723499Y038599*
X723699Y039999*
G37*
G36*
X712399D02*
X703699D01*
X703899Y038599*
X704899Y036199*
X706499Y034099*
X708599Y032499*
X711099Y031499*
X712399Y031299*
Y039999*
G37*
G36*
X368599Y051799D02*
X347599D01*
Y030799*
X368599*
Y051799*
G37*
G36*
X662899D02*
X660199Y051499D01*
X657599Y050399*
X655399Y048699*
X653699Y046499*
X652699Y043999*
X652299Y041199*
X652699Y038499*
X653699Y035999*
X655399Y033799*
X657599Y032099*
X660199Y030999*
X662899Y030699*
X665599Y030999*
X668199Y032099*
X670399Y033799*
X672099Y035999*
X6731Y038499*
X673499Y041199*
X6731Y043999*
X672099Y046499*
X670399Y048699*
X668199Y050399*
X665599Y051499*
X662899Y051799*
G37*
G36*
X612099D02*
X609399Y051499D01*
X606799Y050399*
X604599Y048699*
X602899Y046499*
X601899Y043999*
X601499Y041199*
X601899Y038499*
X602899Y035999*
X604599Y033799*
X606799Y032099*
X609399Y030999*
X612099Y030699*
X614799Y030999*
X617399Y032099*
X619599Y033799*
X621299Y035999*
X6223Y038499*
X622699Y041199*
X6223Y043999*
X621299Y046499*
X619599Y048699*
X617399Y050399*
X614799Y051499*
X612099Y051799*
G37*
G36*
X586699D02*
X583999Y051499D01*
X581399Y050399*
X579199Y048699*
X577499Y046499*
X576499Y043999*
X576099Y041199*
X576499Y038499*
X577499Y035999*
X579199Y033799*
X581399Y032099*
X583999Y030999*
X586699Y030699*
X589399Y030999*
X591999Y032099*
X594199Y033799*
X595899Y035999*
X5969Y038499*
X597299Y041199*
X5969Y043999*
X595899Y046499*
X594199Y048699*
X591999Y050399*
X589399Y051499*
X586699Y051799*
G37*
G36*
X561299D02*
X558599Y051499D01*
X555999Y050399*
X553799Y048699*
X552099Y046499*
X551099Y043999*
X550699Y041199*
X551099Y038499*
X552099Y035999*
X553799Y033799*
X555999Y032099*
X558599Y030999*
X561299Y030699*
X563999Y030999*
X566599Y032099*
X568799Y033799*
X570499Y035999*
X5715Y038499*
X571899Y041199*
X5715Y043999*
X570499Y046499*
X568799Y048699*
X566599Y050399*
X563999Y051499*
X561299Y051799*
G37*
G36*
X535899D02*
X533199Y051499D01*
X530599Y050399*
X528399Y048699*
X526699Y046499*
X525699Y043999*
X525299Y041199*
X525699Y038499*
X526699Y035999*
X528399Y033799*
X530599Y032099*
X533199Y030999*
X535899Y030699*
X538599Y030999*
X541199Y032099*
X543399Y033799*
X545099Y035999*
X5461Y038499*
X546499Y041199*
X5461Y043999*
X545099Y046499*
X543399Y048699*
X541199Y050399*
X538599Y051499*
X535899Y051799*
G37*
G36*
X510499D02*
X507799Y051499D01*
X505199Y050399*
X502999Y048699*
X501299Y046499*
X500299Y043999*
X499899Y041199*
X500299Y038499*
X501299Y035999*
X502999Y033799*
X505199Y032099*
X507799Y030999*
X510499Y030699*
X513199Y030999*
X515799Y032099*
X517999Y033799*
X519699Y035999*
X5207Y038499*
X521099Y041199*
X5207Y043999*
X519699Y046499*
X517999Y048699*
X515799Y050399*
X513199Y051499*
X510499Y051799*
G37*
G36*
X485099D02*
X482399Y051499D01*
X479799Y050399*
X477599Y048699*
X475899Y046499*
X474899Y043999*
X474499Y041199*
X474899Y038499*
X475899Y035999*
X477599Y033799*
X479799Y032099*
X482399Y030999*
X485099Y030699*
X487799Y030999*
X490399Y032099*
X492599Y033799*
X494299Y035999*
X4953Y038499*
X495699Y041199*
X4953Y043999*
X494299Y046499*
X492599Y048699*
X490399Y050399*
X487799Y051499*
X485099Y051799*
G37*
G36*
X459699D02*
X456999Y051499D01*
X454399Y050399*
X452199Y048699*
X450499Y046499*
X449499Y043999*
X449099Y041199*
X449499Y038499*
X450499Y035999*
X452199Y033799*
X454399Y032099*
X456999Y030999*
X459699Y030699*
X462399Y030999*
X464999Y032099*
X467199Y033799*
X468899Y035999*
X4699Y038499*
X470299Y041199*
X4699Y043999*
X468899Y046499*
X467199Y048699*
X464999Y050399*
X462399Y051499*
X459699Y051799*
G37*
G36*
X434299D02*
X431599Y051499D01*
X428999Y050399*
X426799Y048699*
X425099Y046499*
X424099Y043999*
X423699Y041199*
X424099Y038499*
X425099Y035999*
X426799Y033799*
X428999Y032099*
X431599Y030999*
X434299Y030699*
X436999Y030999*
X439599Y032099*
X441799Y033799*
X443499Y035999*
X4445Y038499*
X444899Y041199*
X4445Y043999*
X443499Y046499*
X441799Y048699*
X439599Y050399*
X436999Y051499*
X434299Y051799*
G37*
G36*
X408899D02*
X406199Y051499D01*
X403599Y050399*
X401399Y048699*
X399699Y046499*
X398699Y043999*
X398299Y041199*
X398699Y038499*
X399699Y035999*
X401399Y033799*
X403599Y032099*
X406199Y030999*
X408899Y030699*
X411599Y030999*
X414199Y032099*
X416399Y033799*
X418099Y035999*
X4191Y038499*
X419499Y041199*
X4191Y043999*
X418099Y046499*
X416399Y048699*
X414199Y050399*
X411599Y051499*
X408899Y051799*
G37*
G36*
X383499D02*
X380799Y051499D01*
X378199Y050399*
X375999Y048699*
X374299Y046499*
X373299Y043999*
X372899Y041199*
X373299Y038499*
X374299Y035999*
X375999Y033799*
X378199Y032099*
X380799Y030999*
X383499Y030699*
X386199Y030999*
X388799Y032099*
X390999Y033799*
X392699Y035999*
X3937Y038499*
X394099Y041199*
X3937Y043999*
X392699Y046499*
X390999Y048699*
X388799Y050399*
X386199Y051499*
X383499Y051799*
G37*
G36*
X773899Y039199D02*
X765099D01*
Y030499*
X773899*
Y039199*
G37*
G36*
X762599D02*
X753799D01*
Y030499*
X762599*
Y039199*
G37*
G36*
X789299Y051099D02*
X786499Y050699D01*
X783999Y049699*
X781799Y047999*
X780099Y045799*
X778999Y043199*
X778699Y040499*
X778999Y037799*
X780099Y035199*
X781799Y032999*
X783999Y031299*
X786499Y030299*
X789299Y029899*
X791999Y030299*
X794499Y031299*
X796699Y032999*
X798399Y035199*
X799499Y037799*
X799799Y040499*
X799499Y043199*
X798399Y045799*
X796699Y047999*
X794499Y049699*
X791999Y050699*
X789299Y051099*
G37*
G36*
X036399Y037499D02*
X025699D01*
Y026799*
X036399*
Y037499*
G37*
%LNiot_6_lowpan_gateway_v01-3*%
%LPD*%
G36*
X336199Y190699D02*
X336499D01*
X336799Y190599*
X337099*
X337499Y190399*
X337699Y190199*
X337899Y190099*
X338099Y189999*
X338299Y189899*
X338399Y189799*
X338499Y189699*
X338599Y189599*
X338699*
Y189499*
X338899Y189299*
X339099Y188999*
X339199Y188699*
X339399Y188399*
Y188099*
X339499Y187799*
X339699Y187199*
Y186999*
X339799Y186699*
Y186499*
Y186299*
Y186199*
Y185999*
Y185899*
Y185599*
Y185299*
X339699Y184699*
X339599Y184399*
X339499Y184099*
Y183899*
X339399Y183699*
X339299Y183499*
X339199Y183299*
Y183199*
X339099Y182999*
X338999*
Y182899*
Y182799*
X338699Y182499*
X338499Y182299*
X338299Y182099*
X337999Y181899*
X337799Y181799*
X337499Y181599*
X337299Y181499*
X337099*
X336899Y181399*
X336699Y181299*
X336499*
X336299*
X336199*
X336099Y181199*
X335999*
X335699Y181299*
X335399*
X335099Y181399*
X334899Y181499*
X334399Y181699*
X334199Y181899*
X333999Y181999*
X333799Y182099*
X333699Y182299*
X333499Y182399*
X333399Y182499*
X333299Y182599*
Y182699*
X333199*
Y181399*
Y181099*
Y180899*
X333299Y180699*
Y180499*
Y180399*
Y180299*
X333399*
Y180099*
X333499Y179999*
X333599Y179899*
X333699Y179799*
Y179699*
X333799*
X333999Y179599*
X334299Y179499*
X334499Y179399*
X334699*
X334899*
X335099*
X335299*
X335499*
X335799*
X335899Y179499*
X336099*
X336199*
X336299Y179599*
X336399*
X336499Y179699*
Y179799*
X336599Y179999*
X336699Y180099*
Y180199*
Y180299*
X339499Y180599*
Y180499*
Y180399*
Y180299*
Y180099*
Y179899*
X339399Y179499*
X339199Y179099*
X338999Y178799*
X338899Y178599*
X338699Y178399*
X338599Y178299*
X338499*
X338299Y178099*
X338099Y177999*
X337899Y177899*
X337599Y1778*
X336999Y177699*
X336499Y177599*
X336199Y177499*
X335999*
X335799*
X335599*
X335399*
X335199*
X334699*
X334299*
X333999Y177599*
X333699*
X333399Y177699*
X333299*
X333199*
X333099Y1778*
X332799Y177899*
X332599Y177999*
X332299Y178099*
X332199Y178199*
X331999Y178299*
X331899Y178399*
X331799Y178499*
X331599Y178699*
X331499Y178899*
X331399Y179099*
X331199Y179299*
Y179499*
X331099Y179599*
Y179699*
X330999Y179799*
Y179899*
X330899Y180099*
Y180499*
X330799Y180899*
Y181299*
Y181599*
Y181799*
Y181899*
Y181999*
Y182099*
Y182199*
Y1905*
X333099*
Y189199*
X333299Y189499*
X333499Y189699*
X333699Y189899*
X333999Y190099*
X334199Y190199*
X334499Y190399*
X334699Y1905*
X334899Y190599*
X335099*
X335299Y190699*
X335499*
X335599*
X335699*
X335799*
X335899*
X336199*
G37*
G36*
X245099Y193699D02*
X245299Y193299D01*
X245599Y192999*
X245899Y192699*
X246099Y192399*
X246299Y192199*
X246399*
Y192099*
X246499*
X246899Y191799*
X247299Y191499*
X247599Y191299*
X247899Y191199*
X248199Y190999*
X248399*
X248499Y190899*
X248599*
Y188699*
X247899Y188899*
X247299Y189199*
X246999Y189399*
X246799Y189499*
X246499Y189699*
X246299Y189799*
X246099Y189999*
X245899Y190099*
X245799Y190199*
X245599Y190299*
X245499Y190399*
X245399Y1905*
Y181199*
X242899*
Y194099*
X244899*
X245099Y193699*
G37*
G36*
X428099Y194099D02*
X428399D01*
X428799Y193999*
X429099Y193899*
X429399Y193799*
X429699Y193599*
X429899Y193499*
X430199Y193399*
X430399Y193199*
X430599Y193099*
X430699Y192899*
X430799Y192799*
X430999Y192699*
Y192599*
X431099*
X431299Y192199*
X431499Y191899*
X431699Y191499*
X4318Y191099*
X431999Y190699*
X432099Y190299*
X432199Y189799*
Y189399*
X432299Y188999*
Y188699*
Y188299*
X432399Y187999*
Y187799*
Y187599*
Y187499*
Y186799*
X432299Y186299*
Y185699*
X432199Y185199*
X432099Y184799*
X431999Y184399*
X431899Y183999*
X4318Y183699*
X431599Y183399*
X431499Y183199*
X431399Y182999*
X431299Y182799*
Y182699*
X431199Y182599*
Y182499*
X431099*
X430899Y182199*
X430599Y181999*
X430399Y181799*
X430099Y181599*
X429799Y181499*
X429599Y181399*
X429299Y181299*
X429099Y181199*
X428799Y181099*
X428599*
X428399*
X428299Y180999*
X428099*
X427999*
X427899*
X427599*
X427299Y181099*
X426999*
X426699Y181199*
X426399Y181299*
X426199Y181399*
X425999Y181499*
X425799Y181599*
X425599Y181699*
X425399Y181799*
X425299Y181899*
X425199Y181999*
X425099Y182099*
X424999*
Y182199*
X424799Y182399*
X424599Y182699*
X424399Y182899*
X424299Y183199*
X424199Y183499*
X424099Y183699*
X423999Y184199*
X423899Y184499*
Y184699*
X423799Y184899*
Y184999*
Y185199*
Y185299*
Y185399*
Y185699*
X423899Y185999*
Y186299*
X423999Y186599*
X424099Y186899*
X424199Y187099*
X424299Y187399*
X424399Y187599*
X424499Y187799*
X424599Y187899*
X424699Y188099*
X424799Y188199*
Y188299*
X424899*
Y188399*
X425099Y188599*
X425299Y188799*
X425599Y188999*
X425799Y189099*
X425999Y189199*
X426199Y189299*
X426599Y189399*
X426799Y189499*
X426999*
X427199*
X427299Y189599*
X427399*
X427599*
X427799*
X428099Y189499*
X428299*
X428499Y189399*
X428899Y189199*
X429199Y188999*
X429499Y188799*
X429599Y188699*
X429699*
X429799Y188599*
Y188499*
Y188899*
Y189199*
X429699Y189599*
Y189899*
X429599Y190099*
Y190399*
X429499Y190599*
X429399Y190799*
Y190899*
X429299Y191099*
Y191199*
X429199Y191299*
Y191399*
X428999Y191599*
X428699Y191799*
X428499Y191899*
X428299Y191999*
X428099Y192099*
X427999*
X427899*
X427799*
X427599*
X427399Y191999*
X427299*
X427099Y191899*
X426999*
Y191799*
X426899*
Y191699*
X426799Y191599*
X426699Y191399*
X426599Y191199*
X426499Y191099*
Y190899*
X426399Y190799*
Y190699*
X424099Y190899*
X424199Y191499*
X424399Y191999*
X424599Y192399*
X424799Y192699*
X424999Y192999*
X425099Y193099*
Y193199*
X425199*
X425299Y193299*
X425499Y193499*
X425699Y193599*
X426099Y193799*
X426499Y193899*
X426799Y193999*
X427199Y194099*
X427299*
X427499*
X427599*
X427699*
X428099*
G37*
G36*
X367099Y190699D02*
X367399D01*
X367699Y190599*
X367999*
X368199Y1905*
X368399*
X368599Y190399*
X368699*
X368899Y190299*
X368999Y190199*
X369099*
X369199Y190099*
X369299*
X369599Y189799*
X369799Y189499*
X370099Y189199*
X370199Y188799*
X370399Y188499*
Y188399*
X370499Y188299*
Y188199*
Y188099*
X3683Y187699*
X368199Y187899*
X368099Y188099*
Y188199*
X367899Y188399*
Y188499*
X367799*
Y188599*
X367699*
X367599Y188699*
X367399*
X367199Y188799*
X367099*
X366899*
X366799Y188899*
X366699*
X366399Y188799*
X366099*
X365899*
X365699Y188699*
X365599Y188599*
X365499*
X365399*
Y188499*
X365299Y188399*
X365199Y188299*
X365099Y188099*
Y187899*
X364999Y187799*
Y187599*
Y187499*
Y187299*
X365099Y187199*
X365299*
X365699Y187099*
X366099Y186999*
X366499Y186899*
X366799Y186799*
X366999Y186699*
X367099*
X367299*
X367399*
X367899Y186599*
X3683Y186499*
X368599Y186399*
X368899Y186299*
X369099Y186199*
X369299*
X369399Y186099*
X369599Y185999*
X369799Y185799*
X369999Y185699*
X370099Y185499*
X370299Y185399*
X370399Y185299*
Y185199*
X370599Y184899*
Y184699*
X370699Y184499*
Y184199*
X370799Y183999*
Y183899*
Y183799*
Y183499*
Y183299*
X370699Y182999*
X370499Y182599*
X370399Y182299*
X370199Y182099*
X370099Y181999*
X369999Y181799*
X369599Y181499*
X369299Y181399*
X368899Y181199*
X368499Y181099*
X368199*
X368099*
X367999*
X367899Y180999*
X367699*
X367399Y181099*
X367099*
X366899*
X366599Y181199*
X366499*
X366299Y181299*
X366199*
X365899Y181499*
X365699Y181599*
X365399Y181799*
X365199Y181899*
X365099Y181999*
X364899Y182199*
X364799*
Y182099*
Y181999*
X364699*
Y181799*
X364599Y181699*
Y181499*
Y181399*
X364499*
Y181299*
Y181199*
X362099*
X362199Y181499*
X362299Y181699*
X362399Y181899*
Y182099*
X362499Y182199*
Y182399*
Y182499*
X362599Y182699*
Y182999*
Y183299*
Y183599*
Y183899*
Y184099*
Y184199*
Y184299*
Y187199*
Y187499*
Y187699*
Y187999*
Y188199*
X362699Y188399*
Y188599*
Y188699*
X362799Y188899*
Y188999*
Y189099*
X362899Y189199*
Y189299*
Y189399*
X363099Y189599*
X363199Y189799*
X363399Y189899*
X363599Y190099*
X363799Y190199*
X363899Y190299*
X363999*
X364099*
X364199Y190399*
X364399Y1905*
X364799Y190599*
X365199Y190699*
X365599*
X365999*
X366099*
X366199*
X366899*
X367099*
G37*
G36*
X325299D02*
X325599D01*
X325899Y190599*
X326199*
X326399Y1905*
X326599*
X326799Y190399*
X326899*
X327099Y190299*
X327199Y190199*
X327299*
X327399Y190099*
X327799Y189799*
X327999Y189499*
X328199Y189199*
X328399Y188799*
X328599Y188499*
Y188399*
X328699Y188299*
Y188199*
Y188099*
X326499Y187699*
X326399Y187899*
X326299Y188099*
X326199Y188199*
X326099Y188399*
Y188499*
X325999*
Y188599*
X325899*
X325799Y188699*
X325599*
X325399Y188799*
X325299*
X325099*
X324999Y188899*
X324899*
X324599Y188799*
X324299*
X324099*
X323899Y188699*
X323699Y188599*
X323599*
Y188499*
X323499Y188399*
X323399Y188299*
X323299Y188099*
X323199Y187899*
Y187799*
Y187599*
Y187499*
Y187299*
X323299Y187199*
X323499*
X323899Y187099*
X324299Y186999*
X324699Y186899*
X324999Y186799*
X325199Y186699*
X325299*
X325399*
X325499*
X325599*
X326099Y186599*
X326499Y186499*
X326799Y186399*
X327099Y186299*
X327299Y186199*
X327399*
X327499Y186099*
X327599*
X327799Y185999*
X327999Y185799*
X328199Y185699*
X328299Y185499*
X328499Y185399*
Y185299*
X328599Y185199*
X328699Y184899*
X328799Y184699*
X328899Y184499*
Y184199*
X328999Y183999*
Y183899*
Y183799*
Y183499*
X328899Y183299*
Y182999*
X328699Y182599*
X328599Y182299*
X328399Y182099*
X328299Y181999*
X328199Y181799*
X327799Y181499*
X327499Y181399*
X327099Y181199*
X326699Y181099*
X326399*
X326299*
X326199*
X325999Y180999*
X325899*
X325599Y181099*
X325299*
X325099*
X324799Y181199*
X324699*
X324499Y181299*
X324399*
X324099Y181499*
X323899Y181599*
X323599Y181799*
X323399Y181899*
X323299Y181999*
X323099Y182199*
X322999*
Y182099*
Y181999*
X322899*
Y181799*
X322799Y181699*
Y181499*
Y181399*
X322699*
Y181299*
Y181199*
X320299*
X320399Y181499*
X320499Y181699*
Y181899*
X320599Y182099*
X320699Y182199*
Y182399*
Y182499*
Y182699*
X320799Y182999*
Y183299*
Y183599*
Y183899*
Y184099*
Y184199*
Y184299*
Y187199*
Y187499*
Y187699*
Y187999*
Y188199*
X320899Y188399*
Y188599*
Y188699*
X320999Y188899*
Y188999*
Y189099*
X321099Y189199*
Y189299*
Y189399*
X321299Y189599*
X321399Y189799*
X321599Y189899*
X321799Y190099*
X321999Y190199*
X322099Y190299*
X322199*
X322299*
X322399Y190399*
X322599Y1905*
X322999Y190599*
X323399Y190699*
X323799*
X324199*
X324299*
X324399*
X324999*
X325299*
G37*
G36*
X285499D02*
X285799D01*
X286099Y190599*
X286299*
X286599Y1905*
X286799*
X286999Y190399*
X287099*
X287299Y190299*
X287399Y190199*
X287499*
Y190099*
X287599*
X287999Y189799*
X288199Y189499*
X288399Y189199*
X288599Y188799*
X288799Y188499*
Y188399*
Y188299*
X288899Y188199*
Y188099*
X286699Y187699*
X286599Y187899*
X286499Y188099*
X286399Y188199*
X286299Y188399*
Y188499*
X286199*
X286099Y188599*
X285999Y188699*
X285799*
X285599Y188799*
X285499*
X285299*
X285199Y188899*
X285099*
X284799Y188799*
X284499*
X284299*
X284099Y188699*
X283899Y188599*
X283799*
Y188499*
X283599Y188399*
X283499Y188299*
Y188099*
X283399Y187899*
Y187799*
Y187599*
Y187499*
Y187299*
X283499Y187199*
X283699*
X283999Y187099*
X284499Y186999*
X284799Y186899*
X285199Y186799*
X285399Y186699*
X285499*
X285599*
X285699*
X285799*
X286299Y186599*
X286699Y186499*
X286999Y186399*
X287299Y186299*
X287499Y186199*
X287599*
X287699Y186099*
X287799*
X287999Y185999*
X288199Y185799*
X288399Y185699*
X288499Y185499*
X288699Y185399*
Y185299*
X288799Y185199*
X288899Y184899*
X288999Y184699*
X289099Y184499*
Y184199*
X289199Y183999*
Y183899*
Y183799*
Y183499*
X289099Y183299*
X288999Y182999*
X288899Y182599*
X288799Y182299*
X288599Y182099*
X288499Y181999*
X288399Y181799*
X287999Y181499*
X287699Y181399*
X287299Y181199*
X286899Y181099*
X286599*
X286499*
X286299*
X286199Y180999*
X286099*
X285799Y181099*
X285499*
X285299*
X284999Y181199*
X284799*
X284699Y181299*
X284599*
X284299Y181499*
X283999Y181599*
X283799Y181799*
X283599Y181899*
X283499Y181999*
X283299Y182199*
X283199*
Y182099*
X283099Y181999*
Y181799*
X282999Y181699*
Y181499*
Y181399*
X282899*
Y181299*
Y181199*
X280499*
X280599Y181499*
X280699Y181699*
Y181899*
X280799Y182099*
Y182199*
X280899Y182399*
Y182499*
Y182699*
X280999Y182999*
Y183299*
Y183599*
Y183899*
Y184099*
Y184199*
Y184299*
Y187199*
Y187499*
Y187699*
Y187999*
Y188199*
Y188399*
X281099Y188599*
Y188699*
Y188899*
X281199Y188999*
Y189099*
X281299Y189199*
Y189299*
Y189399*
X281499Y189599*
X281599Y189799*
X281799Y189899*
X281999Y190099*
X282199Y190199*
X282299Y190299*
X282399*
X282499*
X282599Y190399*
X282799Y1905*
X283199Y190599*
X283599Y190699*
X283999*
X284299*
X284499*
X284599*
X285199*
X285499*
G37*
G36*
X394299Y181199D02*
X391899D01*
X390299Y187199*
X388699Y181199*
X386399*
X383399Y1905*
X385799*
X387599Y184499*
X389099Y1905*
X391499*
X393099Y184499*
X394899Y1905*
X397199*
X394299Y181199*
G37*
G36*
X300699D02*
X298299D01*
X296799Y187199*
X295199Y181199*
X292799*
X289799Y1905*
X292199*
X293999Y184499*
X295599Y1905*
X297899*
X299499Y184499*
X301299Y1905*
X303699*
X300699Y181199*
G37*
G36*
X256099D02*
X253899D01*
X250199Y1905*
X252699*
X254499Y185799*
X254599Y185499*
X254699Y185199*
Y185099*
X254799Y184999*
Y184899*
Y184799*
X254899Y184499*
Y184399*
X254999Y184299*
Y184199*
X255499Y185799*
X257299Y1905*
X259799*
X256099Y181199*
G37*
G36*
X276199D02*
X276299Y180999D01*
X276399Y180699*
X276499Y180499*
X276599Y180299*
X276699Y180199*
X276799Y179999*
X276999Y179799*
X277199Y179699*
X277399Y179599*
X277599Y179499*
X277799*
X277899Y179399*
X278099*
X278399Y179499*
X278599*
X278799*
X278899*
X278999*
X279099Y179599*
X278899Y177599*
X278399Y177499*
X278199*
X277999*
X277799*
X277599*
X277299*
X276999*
X276799*
X276599Y177599*
X276499*
X276399*
X276299*
X276099Y177699*
X275899Y1778*
X275699*
X275599Y177899*
X275499Y177999*
X275399*
X275299*
X275099Y178299*
X274899Y178499*
X274799Y178599*
X274699Y178699*
Y178799*
X274599Y178899*
X274499Y179099*
X274299Y179299*
Y179499*
X274199Y179699*
X274099Y179899*
Y179999*
X273999*
X273499Y181599*
X270199Y1905*
X272699*
X274899Y183899*
X277099Y1905*
X279699*
X276199Y181199*
G37*
G36*
X318199Y192399D02*
Y1905D01*
X319399*
Y188599*
X318199*
Y184499*
Y184299*
Y184099*
Y183899*
Y183699*
Y183399*
Y183199*
Y182999*
Y182899*
Y182799*
X318099Y182599*
Y182399*
X317999Y182199*
Y182099*
X317899Y181999*
Y181899*
X317799Y181799*
X317699Y181699*
X317599Y181599*
X317299Y181399*
X317199*
X317099Y181299*
X316999*
X316799Y181199*
X316599Y181099*
X316399*
X316199*
X316099*
X315999Y180999*
X315799*
X315499Y181099*
X315099*
X314699Y181199*
X314499*
X314199Y181299*
X313999*
X313899Y181399*
X314099Y183299*
X314299Y183199*
X314499*
X314699Y183099*
X314899*
X314999*
X315099*
X315299*
X315399*
X315499Y183199*
X315599Y183299*
X315699Y183399*
Y183499*
X315799Y183599*
Y183799*
Y183999*
Y184199*
Y184499*
Y184599*
Y184699*
Y184799*
Y188599*
X314099*
Y1905*
X315799*
Y193799*
X318199Y192399*
G37*
G36*
X309199Y190699D02*
X309499D01*
X309799Y190599*
X310099Y1905*
X310399*
X310599Y190299*
X310899Y190199*
X311099Y190099*
X311299Y189999*
X311399Y189799*
X311599Y189699*
X311699Y189599*
X311799*
X311899Y189499*
Y189399*
X312099Y189199*
X312299Y188899*
X312499Y188599*
X312599Y188299*
X312699Y187999*
X312799Y187699*
X312999Y187099*
Y186899*
X313099Y186599*
Y186399*
Y186199*
Y185999*
Y185899*
Y185799*
Y185499*
Y185099*
X312999Y184799*
Y184499*
X312899Y184199*
X312799Y183999*
X312699Y183699*
Y183499*
X312599Y183299*
X312499Y183099*
X312399Y182999*
Y182799*
X312299Y182699*
X312199*
Y182599*
X311999Y182299*
X311699Y182099*
X311499Y181899*
X311199Y181699*
X310899Y181599*
X310599Y181399*
X310299Y181299*
X309999Y181199*
X309699*
X309499Y181099*
X309199*
X308999*
X308799*
X308699Y180999*
X308599*
X308099Y181099*
X307599Y181199*
X307199Y181299*
X306799Y181399*
X306599Y181499*
X306499*
X306399Y181599*
X306299*
X306199Y181699*
X306099*
X305699Y181999*
X305399Y182399*
X305199Y182699*
X304999Y182999*
X3048Y183299*
X304699Y183499*
Y183599*
X304599Y183699*
Y183799*
X306999Y184199*
X307099Y183999*
X307199Y183699*
X307299Y183599*
X307399Y183399*
X307499Y183299*
X307599Y183199*
X307799Y183099*
X307999Y182999*
X308099*
X308299Y182899*
X308399*
X308499*
X308599*
X308899*
X309199Y182999*
X309399Y183099*
X309599Y183199*
X309799Y183299*
X309899Y183399*
X309999Y183499*
X310199Y183699*
X310299Y183999*
X310499Y184299*
Y184499*
X310599Y184799*
Y184999*
Y185099*
Y185199*
X304499*
Y185699*
Y186199*
Y186599*
X304599Y186999*
X304699Y187399*
X3048Y187699*
X304899Y187999*
X304999Y188299*
X305099Y188599*
X305199Y188799*
X305299Y188999*
X305399Y189099*
X305499Y189199*
X305599Y189299*
Y189399*
X305799Y189599*
X306099Y189799*
X306399Y189999*
X306599Y190199*
X306899Y190299*
X307199Y190399*
X307399Y1905*
X307699Y190599*
X307899*
X308199Y190699*
X308399*
X308499*
X308699*
X308899*
X309199*
G37*
G36*
X468799Y181199D02*
X466199D01*
Y194099*
X468799*
Y181199*
G37*
G36*
X453599Y191899D02*
X449799D01*
Y181199*
X447299*
Y191899*
X443499*
Y194099*
X453599*
Y191899*
G37*
G36*
X411899Y181199D02*
X409499D01*
Y194099*
X411899*
Y181199*
G37*
G36*
X382099D02*
X379499D01*
Y186099*
X377199*
X376899*
X376599*
X376399*
X376199*
X375999Y186199*
X375799*
X375599*
X375499*
X375399*
X375299*
X375199*
X375099*
X374899Y186299*
X374599Y186399*
X374399Y186499*
X374199Y186599*
X373999Y186699*
X373899Y186799*
X373799*
Y186899*
X373499Y186999*
X373299Y187199*
X373099Y187499*
X372999Y187699*
X372899Y187799*
X372799Y187999*
X372699Y188099*
X372499Y188399*
X372399Y188799*
Y189099*
X372299Y189399*
Y189699*
Y189799*
X372199Y189899*
Y189999*
Y190099*
X372299Y190699*
X372399Y191199*
X372499Y191599*
X372599Y191899*
X372699Y192099*
X372799Y192199*
Y192299*
X372899Y192399*
Y192499*
X372999Y192599*
X373299Y192899*
X373599Y193199*
X373899Y193399*
X374199Y193599*
X374399Y193699*
X374599Y193799*
X374699*
X374799*
Y193899*
X374999*
X375199*
X375399Y193999*
X375599*
X376099*
X376599*
X377099*
X377299Y194099*
X382099*
Y181199*
G37*
G36*
X355199Y190699D02*
X355499D01*
X355799Y190599*
X356099Y1905*
X356399Y190399*
X356699Y190199*
X356899Y190099*
X357099Y189999*
X357299Y189799*
X357399Y189699*
X357599Y189499*
X357699Y189399*
X357799Y189299*
X357899Y189199*
Y1905*
X360199*
Y181199*
X357699*
Y185399*
Y185699*
Y185999*
Y186199*
Y186399*
Y186599*
Y186799*
Y186999*
Y187099*
X357599Y187299*
Y187499*
Y187599*
X357499Y187799*
X357399Y187999*
X357299Y188099*
X357199Y188299*
X356999Y188399*
X356899Y188499*
X356699Y188599*
X356499Y188699*
X356299Y188799*
X356099*
X355899*
X355799Y188899*
X355699*
X355499Y188799*
X355399*
X355199*
X355099Y188699*
X354999*
X354899Y188599*
X354699Y188499*
Y188399*
X354499Y188199*
X354399Y188099*
Y187999*
Y187899*
X354299Y187799*
Y187699*
Y187399*
X354199Y187099*
Y186799*
Y186499*
Y186299*
Y186199*
Y186099*
Y185999*
Y181199*
X351699*
Y186999*
Y187399*
Y187699*
X351799Y187999*
Y188199*
Y188399*
X351899Y188499*
Y188599*
Y188699*
Y188899*
X351999Y189099*
X352099Y189199*
X352199Y189399*
Y189499*
X352299Y189599*
Y189699*
X352399*
X352499Y189899*
X352699Y189999*
X352799Y190099*
X352999Y190199*
X353199Y190299*
X353299Y190399*
X353399*
Y1905*
X353699*
X353899Y190599*
X354199Y190699*
X354399*
X354599*
X354699*
X354899*
X355199*
G37*
G36*
X238699Y181199D02*
X236299D01*
Y183699*
X238699*
Y181199*
G37*
G36*
X459999Y190699D02*
X460499D01*
X460899Y190599*
X461299Y1905*
X461399Y190399*
X461499Y190299*
X461699*
X461799Y190199*
X461899*
X461999Y190099*
X462399Y189899*
X462699Y189599*
X462999Y189299*
X463199Y188999*
X463399Y188799*
X463599Y188599*
Y188499*
Y188399*
X463699*
X463899Y187999*
X463999Y187499*
X464099Y187099*
X464199Y186799*
Y186499*
X464299Y186299*
Y186199*
Y186099*
Y185999*
Y185499*
X464199Y184899*
X464099Y184499*
X463999Y184199*
Y184099*
X463899Y183899*
Y183699*
X463799Y183599*
Y183499*
X463699Y183399*
Y183299*
X463399Y182899*
X463099Y182599*
X462799Y182299*
X462599Y181999*
X462299Y181899*
X462099Y181699*
X461999*
Y181599*
X461899*
X461499Y181399*
X460999Y181299*
X460599Y181199*
X460299Y181099*
X459899*
X459799*
X459699*
X459599Y180999*
X459499*
X459099Y181099*
X458699*
X458399Y181199*
X458099Y181299*
X457799Y181399*
X457499Y181499*
X4572Y181599*
X456999Y181699*
X456799Y181899*
X456599Y181999*
X456399Y182099*
X456299Y182199*
X456199Y182299*
X456099Y182399*
X455999*
X455799Y182699*
X455599Y182999*
X455399Y183199*
X455299Y183499*
X455099Y183799*
X454999Y184099*
X454899Y184399*
X454799Y184699*
Y184899*
Y185199*
X454699Y185399*
Y185599*
Y185699*
Y185799*
Y185899*
Y186299*
Y186699*
X454799Y186999*
X454899Y187299*
X454999Y187599*
X455099Y187899*
X455199Y188199*
X455299Y188399*
X455499Y188599*
X455599Y188799*
X455699Y188999*
X455799Y189099*
X455899Y189199*
X455999Y189299*
Y189399*
X456299Y189599*
X456599Y189799*
X456799Y189999*
X457099Y190199*
X457399Y190299*
X457699Y190399*
X457999Y1905*
X458299Y190599*
X458499*
X458799Y190699*
X458999*
X459099*
X459299*
X459499*
X459999*
G37*
G36*
X403199D02*
X403699D01*
X404099Y190599*
X404499Y1905*
X404599Y190399*
X404799Y190299*
X404899*
X404999Y190199*
X405099*
X405199*
Y190099*
X405599Y189899*
X405899Y189599*
X406199Y189299*
X406499Y188999*
X406699Y188799*
X406799Y188599*
X406899Y188499*
Y188399*
X407099Y187999*
X407299Y187499*
X407399Y187099*
Y186799*
X407499Y186499*
Y186299*
Y186199*
Y186099*
Y185999*
Y185499*
X407399Y184899*
X407299Y184499*
Y184199*
X407199Y184099*
Y183899*
X407099Y183699*
Y183599*
X406999Y183499*
Y183399*
X406899*
Y183299*
X406699Y182899*
X4064Y182599*
X406099Y182299*
X405799Y181999*
X405599Y181899*
X405299Y181699*
X405199Y181599*
X404699Y181399*
X404299Y181299*
X403899Y181199*
X403499Y181099*
X403199*
X403099*
X402899*
X402799Y180999*
X402699*
X402299Y181099*
X401999*
X401599Y181199*
X401299Y181299*
X400999Y181399*
X400699Y181499*
X400499Y181599*
X400199Y181699*
X399999Y181899*
X399799Y181999*
X399699Y182099*
X399499Y182199*
X399399Y182299*
X399299Y182399*
X399099Y182699*
X398799Y182999*
X398699Y183199*
X398499Y183499*
X398399Y183799*
X398299Y184099*
X398199Y184399*
X398099Y184699*
X397999Y184899*
Y185199*
Y185399*
X397899Y185599*
Y185699*
Y185799*
Y185899*
Y186299*
X397999Y186699*
X398099Y186999*
Y187299*
X398199Y187599*
X398299Y187899*
X398499Y188199*
X398599Y188399*
X398699Y188599*
X398799Y188799*
X398999Y188999*
X399099Y189099*
Y189199*
X399199Y189299*
X399299Y189399*
X399499Y189599*
X399799Y189799*
X400099Y189999*
X400399Y190199*
X400699Y190299*
X400999Y190399*
X401199Y1905*
X401499Y190599*
X401799*
X401999Y190699*
X402199*
X402399*
X402499*
X402699*
X403199*
G37*
G36*
X230399Y194099D02*
X230799D01*
X231099Y193999*
X231299Y193899*
X231599Y193799*
X231799Y193699*
X232099Y193599*
X232299Y193499*
X232399Y193299*
X232599Y193199*
X232699Y193099*
X232799Y192999*
X232899Y192899*
X232999*
Y192799*
X233199Y192499*
X233399Y192099*
X233599Y191699*
X233699Y191299*
X233799Y190899*
X233999Y1905*
Y189999*
X234099Y189599*
Y189199*
X234199Y188799*
Y188499*
Y188199*
X234299Y187899*
Y187699*
Y187599*
X234199Y186899*
Y186299*
X234099Y185699*
Y185199*
X233999Y184699*
X233899Y184299*
X233799Y183999*
X233699Y183599*
X233599Y183299*
X233499Y183099*
X233399Y182899*
X233299Y182699*
X233199Y182599*
Y182499*
X233099*
Y182399*
X232899Y182199*
X232699Y181999*
X232399Y181799*
X232199Y181599*
X231899Y181499*
X231699Y181399*
X231399Y181299*
X231199Y181199*
X230999Y181099*
X230799*
X230599Y180999*
X230399*
X230299*
X230199*
X230099*
X229799*
X229499Y181099*
X229099*
X228899Y181199*
X2286Y181299*
X228399Y181399*
X228199Y181499*
X227999Y181699*
X227799Y181799*
X227599Y181899*
X227499Y181999*
X227399Y182099*
X227299Y182199*
Y182299*
X227199*
X226999Y182599*
X226799Y182999*
X226599Y183399*
X226499Y183799*
X226299Y184199*
Y184699*
X226199Y185099*
X226099Y185499*
Y185999*
X225999Y186299*
Y186699*
Y186999*
X225899Y187199*
Y187399*
Y187499*
Y187599*
X225999Y188199*
Y188799*
X226099Y189399*
Y189899*
X226199Y190399*
X226299Y190799*
X226499Y191199*
X226599Y191499*
X226699Y191899*
X226799Y192099*
X226899Y192299*
X226999Y192499*
X227099Y192599*
Y192699*
X227199Y192799*
X227399Y192999*
X227599Y193199*
X227899Y193399*
X228099Y193599*
X228299Y193699*
X2286Y193799*
X228799Y193899*
X229099Y193999*
X229299*
X229499Y194099*
X229599*
X229799*
X229899*
X230099*
X230399*
G37*
G36*
X443299Y177699D02*
X433099D01*
Y179299*
X443299*
Y177699*
G37*
G36*
X423299D02*
X413099D01*
Y179299*
X423299*
Y177699*
G37*
G36*
X350699D02*
X340499D01*
Y179299*
X350699*
Y177699*
G37*
G36*
X269999D02*
X259799D01*
Y179299*
X269999*
Y177699*
G37*
%LNiot_6_lowpan_gateway_v01-4*%
%LPC*%
G36*
X335299Y188899D02*
D01*
X334899Y188799*
X334699Y188699*
X334399Y188599*
X334199Y188499*
X333999Y188399*
X333899Y188299*
X333799Y188199*
X333599Y187899*
X333399Y187499*
X333299Y187199*
Y186799*
X333199Y186499*
Y186399*
Y186199*
Y186099*
Y185999*
Y185499*
X333299Y185099*
X333399Y184699*
X333499Y184499*
X333599Y184199*
X333699Y184099*
X333799Y183999*
Y183899*
X334099Y183699*
X334299Y183499*
X334599Y183399*
X334799Y183299*
X334999*
X335199Y183199*
X335299*
X335599Y183299*
X335899*
X336199Y183499*
X336399Y183599*
X336499Y183699*
X336599Y183799*
X336699Y183899*
X336899Y184199*
X337099Y184499*
X337199Y184899*
Y185199*
X337299Y185599*
Y185699*
Y185799*
Y185899*
Y185999*
Y186099*
Y186599*
X337199Y186999*
X337099Y187299*
X336999Y187599*
X336899Y187899*
X336799Y187999*
Y188099*
X336699Y188199*
X336499Y188399*
X336299Y188599*
X335999Y188699*
X335799Y188799*
X335599*
X335399*
X335299Y188899*
G37*
G36*
X428099Y187799D02*
X427899D01*
X427699Y187699*
X427399*
X427199Y187599*
X427099Y187499*
X426899Y187399*
X426799Y187299*
X426699Y187199*
X426599Y186899*
X426399Y186599*
X426299Y186299*
Y185999*
X426199Y185699*
Y185499*
Y185399*
Y185299*
Y184899*
X426299Y184499*
X426399Y184199*
Y183999*
X426499Y183799*
X426599Y183699*
X426699Y183599*
X426899Y183399*
X427099Y183299*
X427299Y183199*
X427399Y183099*
X427599*
X427699Y182999*
X427799*
X428099Y183099*
X428299Y183199*
X428499*
X428699Y183399*
X428899Y183499*
X428999Y183599*
X429099Y183699*
X429299Y183999*
X429399Y184199*
X429499Y184599*
X429599Y184899*
Y185099*
Y185299*
Y185399*
Y185499*
Y185899*
Y186299*
X429499Y186499*
X429399Y186799*
X429299Y186999*
X429199Y187099*
Y187199*
X429099*
X428999Y187399*
X428799Y187499*
X428599Y187599*
X428399Y187699*
X428199*
X428099Y187799*
G37*
G36*
X364999Y185699D02*
D01*
Y185199*
Y184899*
Y184599*
X365099Y184399*
Y184299*
Y184199*
Y184099*
Y183999*
X365199Y183799*
X365299Y183699*
X365399Y183499*
X365499Y183399*
X365599Y183299*
Y183199*
X365699*
X365899Y182999*
X366199*
X366399Y182899*
X366599Y182799*
X366699*
X366899*
X366999*
X367199*
X367399*
X367599Y182899*
X367699Y182999*
X367799*
X367899Y183099*
X367999*
X368099Y183299*
X368199Y183399*
Y183599*
X3683Y183699*
Y183799*
Y183899*
Y183999*
Y184199*
Y184399*
X368199Y184499*
X368099Y184699*
X367999*
X367899Y184799*
Y184899*
X367699Y184999*
X367499*
X367299Y185099*
X367099Y185199*
X366899*
X366699Y185299*
X366599*
X366499*
X366199Y185399*
X365899Y185499*
X365599*
X365399Y185599*
X365199*
X365099Y185699*
X364999*
G37*
G36*
X323199D02*
D01*
Y185199*
Y184899*
Y184599*
Y184399*
X323299Y184299*
Y184199*
Y184099*
Y183999*
X323399Y183799*
X323499Y183699*
X323599Y183499*
X323699Y183399*
Y183299*
X323799Y183199*
X323899*
X324099Y182999*
X324399*
X324599Y182899*
X324799Y182799*
X324899*
X325099*
X325199*
X325399*
X325599*
X325699Y182899*
X325899Y182999*
X325999*
X326099Y183099*
X326199*
X326299Y183299*
X326399Y183399*
Y183599*
X326499Y183699*
Y183799*
Y183899*
Y183999*
Y184199*
X326399Y184399*
Y184499*
X326299Y184699*
X326199*
X326099Y184799*
Y184899*
X325899Y184999*
X325699*
X325499Y185099*
X325299Y185199*
X325099*
X324899Y185299*
X324799*
X324699*
X324399Y185399*
X324099Y185499*
X323799*
X323599Y185599*
X323399*
X323299Y185699*
X323199*
G37*
G36*
X283399D02*
D01*
Y185199*
Y184899*
Y184599*
Y184399*
X283499Y184299*
Y184199*
Y184099*
Y183999*
X283599Y183799*
X283699Y183699*
X283799Y183499*
Y183399*
X283899Y183299*
X283999Y183199*
X284099*
X284299Y182999*
X284499*
X284799Y182899*
X284999Y182799*
X285099*
X285299*
X285399*
X285599*
X285799*
X285899Y182899*
X286099Y182999*
X286199*
X286299Y183099*
X286499Y183299*
X286599Y183399*
Y183599*
X286699Y183699*
Y183799*
Y183899*
Y183999*
Y184199*
X286599Y184399*
Y184499*
X286499Y184699*
X286399*
X286299Y184799*
Y184899*
X286099Y184999*
X285899*
X285699Y185099*
X285499Y185199*
X285299*
X285099Y185299*
X284999*
X284899*
X284499Y185399*
X284299Y185499*
X283999*
X283799Y185599*
X283599*
X283499Y185699*
X283399*
G37*
G36*
X308899Y188899D02*
X308699D01*
X308499Y188799*
X308199*
X307999Y188699*
X307799Y188599*
X307699Y188499*
X307499Y188399*
Y188299*
X307299Y188099*
X307099Y187799*
X306999Y187499*
Y187299*
X306899Y186999*
Y186799*
Y186699*
X310599*
X310499Y186999*
Y187299*
X310399Y187599*
X310299Y187799*
X310199Y187999*
X310099Y188199*
X309999Y188299*
X309799Y188499*
X309599Y188599*
X309399Y188699*
X309199Y188799*
X308999*
X308899Y188899*
G37*
G36*
X379499Y191899D02*
X377499D01*
X377399*
X377199*
X376999*
X376799*
X376599Y191799*
X376499*
X376399*
X376099Y191699*
X375899*
X375799Y191599*
X375599Y191499*
X375499Y191399*
X375399Y191299*
Y191199*
X375299*
X375199Y190999*
X375099Y190899*
X374999Y190699*
Y1905*
X374899Y190299*
Y190199*
Y190099*
Y189899*
Y189699*
X374999Y189499*
X375099Y189399*
Y189199*
Y189099*
X375199*
X375299Y188899*
X375499Y188799*
X375599Y188699*
X375699Y188599*
X375799Y188499*
X375899*
X375999*
Y188399*
X376099*
X376299*
X376599Y188299*
X376899*
X377199*
X377599*
X377699Y188199*
X379499*
Y191899*
G37*
G36*
X459599Y188699D02*
X459499D01*
X459099*
X458799Y188599*
X458499Y188499*
X458299Y188399*
X458099Y188199*
X457999Y188099*
X457899Y187999*
X457599Y187699*
X457499Y187399*
X457399Y186999*
X457299Y186699*
X4572Y186399*
Y186199*
Y186099*
Y185999*
Y185899*
Y185399*
X457299Y184999*
X457399Y184599*
X457499Y184299*
X457699Y184099*
X457799Y183899*
Y183799*
X457899*
X458099Y183499*
X458399Y183299*
X458699Y183199*
X458899Y183099*
X459099*
X459299*
X459399Y182999*
X459499*
X459799Y183099*
X460099Y183199*
X460399Y183299*
X460599Y183399*
X460799Y183499*
X460999Y183699*
X461099*
Y183799*
X461299Y184099*
X461499Y184399*
X461599Y184799*
X461699Y185099*
Y185399*
Y185499*
Y185699*
X461799Y185799*
Y185899*
X461699Y186399*
X461599Y186799*
X461499Y187199*
X461399Y187499*
X461299Y187699*
X461199Y187899*
X461099Y187999*
X460799Y188199*
X460599Y188399*
X460299Y188599*
X459999Y188699*
X459799*
X459599*
G37*
G36*
X402799D02*
X402699D01*
X402399*
X402099Y188599*
X401799Y188499*
X401599Y188399*
X401399Y188199*
X401199Y188099*
X401099Y187999*
X400899Y187699*
X400699Y187399*
X400599Y186999*
X400499Y186699*
Y186399*
Y186199*
Y186099*
X400399Y185999*
Y185899*
X400499Y185399*
X400599Y184999*
Y184599*
X400799Y184299*
X400899Y184099*
X400999Y183899*
X401099Y183799*
X401399Y183499*
X401599Y183299*
X401899Y183199*
X402199Y183099*
X402399*
X402599*
Y182999*
X402699*
X403099Y183099*
X403399Y183199*
X403699Y183299*
X403899Y183399*
X404099Y183499*
X404199Y183699*
X404299*
Y183799*
X404599Y184099*
X404699Y184399*
X404799Y184799*
X404899Y185099*
X404999Y185399*
Y185499*
Y185699*
Y185799*
Y185899*
Y186399*
X404899Y186799*
X404799Y187199*
X404699Y187499*
X404599Y187699*
X404399Y187899*
Y187999*
X404299*
X404099Y188199*
X403799Y188399*
X403499Y188599*
X403299Y188699*
X403099*
X402899*
X402799*
G37*
G36*
X230199Y192099D02*
X230099D01*
X229899*
X229799*
X229699Y191999*
X229599*
X229499Y191899*
X229399*
X229299Y191799*
X229199Y191699*
X229099Y191499*
X228999Y191299*
X228899Y191099*
Y190999*
X228799Y190799*
Y190699*
X228699Y1905*
Y190299*
Y190099*
X2286Y189799*
Y189299*
Y188799*
Y188599*
Y188299*
X228499Y188099*
Y187899*
Y187799*
Y187699*
Y187599*
Y187199*
X2286Y186799*
Y186399*
Y186099*
Y185799*
Y185499*
Y185299*
X228699Y185099*
Y184899*
Y184799*
Y184599*
X228799Y184499*
Y184399*
Y184299*
X228899Y184099*
X228999Y183899*
X229099Y183699*
Y183599*
X229199Y183499*
X229299Y183399*
Y183299*
X229499Y183199*
X229599*
X229699Y183099*
X229799*
X229899*
X229999Y182999*
X230099*
X230299Y183099*
X230399*
X230599*
X230699Y183199*
X230799*
Y183299*
X230899*
X230999Y183499*
X231099Y183599*
X231199Y183799*
X231299Y183999*
Y184199*
X231399Y184299*
Y184399*
X231499Y184599*
Y184799*
X231599Y184999*
Y185299*
Y185799*
Y186299*
Y186599*
Y186799*
X231699Y186999*
Y187199*
Y187299*
Y187499*
Y187599*
Y187999*
X231599Y188399*
Y188699*
Y188999*
Y189299*
Y189599*
Y189799*
X231499Y189999*
Y190199*
Y190399*
Y1905*
Y190599*
X231399Y190699*
Y190799*
X231299Y190999*
Y191299*
X231199Y191399*
X231099Y191599*
X230999Y191699*
X230899Y191799*
X230799Y191899*
X230599Y191999*
X230499*
X230399Y192099*
X230299*
X230199*
G37*
%LNiot_6_lowpan_gateway_v01-5*%
%LPD*%
G54D10*
X2413Y106999D03*
Y090999D03*
X266299Y107299D03*
Y091199D03*
X291499Y107299D03*
Y091199D03*
X637499Y107699D03*
Y091799D03*
G54D22*
X142299Y479699D02*
X309799D01*
X106499Y443999D02*
X142299Y479699D01*
X106499Y160999D02*
Y443999D01*
X375499Y505499D02*
X385299Y515299D01*
X372799Y550499D02*
X385299Y537999D01*
X760499Y142299D02*
X761599D01*
X105699Y542499D02*
X356499D01*
X095199Y531999D02*
X105699Y542499D01*
X095199Y153999D02*
Y531999D01*
X084499Y536199D02*
X098799Y550499D01*
X372799*
X084499Y148799D02*
Y536199D01*
Y148799D02*
X111799Y121499D01*
X225999*
X116799Y132499D02*
X240999D01*
X095199Y153999D02*
X116799Y132499D01*
X240999D02*
X266299Y107299D01*
X355499Y505499D02*
X365499Y515499D01*
X356499Y542499D02*
X365499Y533499D01*
X225999Y121499D02*
X239199Y108199D01*
X239499*
X240799Y038799D02*
Y090599D01*
X291699Y038799D02*
Y091099D01*
X256799Y141999D02*
X291499Y107299D01*
X125499Y141999D02*
X256799D01*
X106499Y160999D02*
X125499Y141999D01*
X309799Y479699D02*
X335499Y505499D01*
X637499Y041199D02*
Y091699D01*
X266199Y038799D02*
Y093199D01*
X465799Y450499D02*
Y510499D01*
X460799Y515499D02*
X465799Y510499D01*
X445299Y515499D02*
X460799D01*
X435499Y505799D02*
X445299Y515499D01*
G54D23*
X122299Y175799D02*
Y441699D01*
Y175799D02*
X138499Y159499D01*
X122299Y441699D02*
X148199Y467799D01*
X787299Y399799D02*
X817799D01*
X759499Y371999D02*
X787299Y399799D01*
X763799Y296499D02*
X815999D01*
X148199Y467799D02*
X443499D01*
X455999Y480299*
X761799Y142299D02*
Y266999D01*
X665699Y362999D02*
X761799Y266999D01*
X688299Y070099D02*
X760499Y142299D01*
X599199Y362999D02*
X665699D01*
X138499Y159499D02*
X273299D01*
X316999Y115699*
X625999Y546499D02*
X743799D01*
X482499D02*
X625999D01*
X606699Y527199D02*
X625999Y546499D01*
X688299Y041199D02*
Y070099D01*
X475499Y486799D02*
X599199Y362999D01*
X475499Y486799D02*
Y505499D01*
X455499Y525499D02*
X475499D01*
Y539499D02*
X482499Y546499D01*
X475499Y525499D02*
Y539499D01*
X743799Y546499D02*
X762799Y527399D01*
Y510299D02*
Y527399D01*
X455999Y480299D02*
Y504999D01*
X316999Y038799D02*
Y115699D01*
X611699Y282499D02*
X662499D01*
X405999Y283999D02*
X488999D01*
G54D24*
X756799Y408999D03*
G54D25*
X756799Y434399D03*
Y459699D03*
G54D26*
X788199Y510299D03*
X786999Y142299D03*
G54D27*
X762799Y510299D03*
X761599Y142299D03*
X763899Y065899D03*
G54D28*
X358099Y041199D03*
X763899Y040499D03*
G54D29*
X383499Y041199D03*
X408899D03*
X434299D03*
X459699D03*
X485099D03*
X510499D03*
X535899D03*
X561299D03*
X586699D03*
X612099D03*
X637499D03*
X662899D03*
X688299D03*
X713699D03*
X062499Y349199D03*
Y374699D03*
Y400099D03*
X662499Y336499D03*
Y304499D03*
Y282499D03*
Y260499D03*
X611699D03*
Y282499D03*
Y304499D03*
Y336499D03*
X789299Y065899D03*
Y040499D03*
X763799Y296499D03*
X759499Y371999D03*
X282999Y447199D03*
X055499Y243799D03*
X606699Y527199D03*
X340799Y349199D03*
Y393499D03*
X109499Y482999D03*
X187999Y227699D03*
X255199Y227999D03*
X489999Y117499D03*
X668499Y104299D03*
X682799Y183999D03*
X037799Y476199D03*
X613799Y450299D03*
G54D30*
X055499Y200499D03*
Y515499D03*
G54D31*
X817799Y348999D03*
Y399799D03*
Y298299D03*
Y247499D03*
G54D32*
X062499Y323799D03*
G54D33*
X495499Y525499D03*
Y505499D03*
X475499Y525499D03*
Y505499D03*
X455499Y525499D03*
Y505499D03*
X435499Y525499D03*
Y505499D03*
X415499Y525499D03*
Y505499D03*
X395499Y525499D03*
Y505499D03*
X375499Y525499D03*
Y505499D03*
X355499Y525499D03*
Y505499D03*
X335499Y525499D03*
Y505499D03*
X315499Y525499D03*
Y505499D03*
X295499Y525499D03*
Y505499D03*
X275499Y525499D03*
Y505499D03*
X255499Y525499D03*
Y505499D03*
X235499Y525499D03*
Y505499D03*
X215499Y525499D03*
Y505499D03*
X195499Y525499D03*
Y505499D03*
X175499Y525499D03*
Y505499D03*
X155499Y525499D03*
Y505499D03*
X135499Y525499D03*
Y505499D03*
X115499Y525499D03*
G54D34*
X115499Y505499D03*
G54D35*
X037699Y038799D03*
G54D36*
X062999Y038799D03*
X088499D03*
X113899D03*
X139299D03*
X164699D03*
X189999D03*
X215499D03*
X240799D03*
X266199D03*
X291699D03*
X316999D03*
G54D37*
X405999Y283999D03*
X488999D03*
G54D38*
X465799Y395999D02*
Y450499D01*
Y395999D02*
X527199Y334499D01*
Y242999D02*
Y334499D01*
Y242999D02*
X637499Y132699D01*
Y107699D02*
Y132699D01*
G54D39*
X385299Y515299D02*
Y537999D01*
X365499Y515499D02*
Y533499D01*
M02*