%FSTAX24Y24*%
%MOMM*%
%SFA1B1*%

%IPPOS*%
%ADD39C,0.250000*%
%ADD43C,0.180000*%
%ADD44C,0.200000*%
%ADD46C,0.170000*%
%LNiot_6_lowpan_gateway_v01-1*%
%LPD*%
G54D39*
X105499Y495499D02*
Y535499D01*
X505499*
X105499Y495499D02*
X505499D01*
G54D43*
X234299Y107599D02*
Y114199D01*
X248199*
Y107599D02*
Y114199D01*
Y083799D02*
Y090399D01*
X234299Y083799D02*
X248199D01*
X234299D02*
Y090399D01*
X259299Y107899D02*
Y114499D01*
X273199*
Y107899D02*
Y114499D01*
Y083999D02*
Y090599D01*
X259299Y083999D02*
X273199D01*
X259299D02*
Y090599D01*
X284599Y107899D02*
Y114499D01*
X298399*
Y107899D02*
Y114499D01*
Y083999D02*
Y090599D01*
X284599Y083999D02*
X298399D01*
X284599D02*
Y090599D01*
X630599Y108399D02*
Y114999D01*
X644399*
Y108399D02*
Y114999D01*
Y084499D02*
Y091099D01*
X630599Y084499D02*
X644399D01*
X630599D02*
Y091099D01*
G54D44*
X505499Y495499D02*
Y535499D01*
G54D46*
X643599Y122699D02*
Y131299D01*
X639299*
X637899Y129899*
Y127*
X639299Y125599*
X643599*
X640799D02*
X637899Y122699D01*
X635D02*
X632099D01*
X633599*
Y131299*
X635Y129899*
X627799Y124099D02*
X626399Y122699D01*
X623499*
X621999Y124099*
Y129899*
X623499Y131299*
X626399*
X627799Y129899*
Y128399*
X626399Y127*
X621999*
X237299Y118199D02*
X245899D01*
Y122599*
X244499Y123999*
X241599*
X240099Y122599*
Y118199*
Y121099D02*
X237299Y123999D01*
Y132599D02*
Y126899D01*
X242999Y132599*
X244499*
X245899Y131199*
Y128299*
X244499Y126899*
Y135499D02*
X245899Y136999D01*
Y139799*
X244499Y141299*
X242999*
X241599Y139799*
Y138399*
Y139799*
X240099Y141299*
X238699*
X237299Y139799*
Y136999*
X238699Y135499*
X261999Y118799D02*
X270699D01*
Y123099*
X269199Y124499*
X266299*
X264899Y123099*
Y118799*
Y121599D02*
X261999Y124499D01*
Y133099D02*
Y127399D01*
X267799Y133099*
X269199*
X270699Y131699*
Y128799*
X269199Y127399*
X261999Y141799D02*
Y135999D01*
X267799Y141799*
X269199*
X270699Y140299*
Y137499*
X269199Y135999*
X287299Y118999D02*
X295899D01*
Y123299*
X294499Y124799*
X291599*
X290099Y123299*
Y118999*
Y121899D02*
X287299Y124799D01*
Y133399D02*
Y127599D01*
X292999Y133399*
X294499*
X295899Y131999*
Y129099*
X294499Y127599*
X287299Y136299D02*
Y139199D01*
Y137699*
X295899*
X294499Y136299*
M02*