%FSTAX24Y24*%
%MOMM*%
%SFA1B1*%

%IPPOS*%
%ADD75C,0.100000*%
%LNiot_6_lowpan_gateway_v01-1*%
%LPD*%
G54D75*
X232299Y348999D02*
X231599Y351499D01*
X229799Y353299*
X227299Y353999*
X224799Y353299*
X222899Y351499*
X222299Y348999*
X222899Y346499*
X224799Y344699*
X227299Y343999*
X229799Y344699*
X231599Y346499*
X232299Y348999*
X429499Y108499D02*
X438999D01*
X429499Y094299D02*
X438999D01*
Y090999D02*
Y108499D01*
X429499Y090999D02*
Y108499D01*
Y090999D02*
X438999D01*
X429499Y105199D02*
X438999D01*
X057999Y101799D02*
X067499D01*
X057999Y087499D02*
X067499D01*
Y084299D02*
Y101799D01*
X057999Y084299D02*
Y101799D01*
Y084299D02*
X067499D01*
X057999Y098499D02*
X067499D01*
X083799Y102299D02*
X093199D01*
X083799Y087999D02*
X093199D01*
Y084799D02*
Y102299D01*
X083799Y084799D02*
Y102299D01*
Y084799D02*
X093199D01*
X083799Y098999D02*
X093199D01*
X236499Y107699D02*
X245999D01*
X236499Y093499D02*
X245999D01*
X236499Y090199D02*
Y107699D01*
X245999Y090199D02*
Y107699D01*
X236499Y090199D02*
X245999D01*
X236499Y104499D02*
X245999D01*
X261499Y107999D02*
X270999D01*
X261499Y093799D02*
X270999D01*
X261499Y090499D02*
Y107999D01*
X270999Y090499D02*
Y107999D01*
X261499Y090499D02*
X270999D01*
X261499Y104799D02*
X270999D01*
X286799Y107999D02*
X296299D01*
X286799Y093799D02*
X296299D01*
X286799Y090499D02*
Y107999D01*
X296299Y090499D02*
Y107999D01*
X286799Y090499D02*
X296299D01*
X286799Y104799D02*
X296299D01*
X558299Y241499D02*
Y263499D01*
X572799Y241499D02*
Y263499D01*
X558299Y245999D02*
X572799D01*
X558299Y263499D02*
X572799D01*
X558299Y241499D02*
X572799D01*
X558299Y258999D02*
X572799D01*
X810499Y453999D02*
Y463499D01*
X796199Y453999D02*
Y463499D01*
X792999Y453999D02*
X810499D01*
X792999Y463499D02*
X810499D01*
X792999Y453999D02*
Y463499D01*
X807199Y453999D02*
Y463499D01*
X511999Y409199D02*
Y418799D01*
X497799Y409199D02*
Y418799D01*
X494499Y409199D02*
X511999D01*
X494499Y418799D02*
X511999D01*
X494499Y409199D02*
Y418799D01*
X508799Y409199D02*
Y418799D01*
X528499Y439699D02*
Y449199D01*
X514199Y439699D02*
Y449199D01*
X510999Y439699D02*
X528499D01*
X510999Y449199D02*
X528499D01*
X510999Y439699D02*
Y449199D01*
X525299Y439699D02*
Y449199D01*
X532999Y245499D02*
X542499D01*
X532999Y259799D02*
X542499D01*
X532999Y245499D02*
Y262999D01*
X542499Y245499D02*
Y262999D01*
X532999D02*
X542499D01*
X532999Y248799D02*
X542499D01*
X506499Y262499D02*
X515999D01*
X506499Y248299D02*
X515999D01*
Y244999D02*
Y262499D01*
X506499Y244999D02*
Y262499D01*
Y244999D02*
X515999D01*
X506499Y259199D02*
X515999D01*
X509999Y219499D02*
Y228999D01*
X524199Y219499D02*
Y228999D01*
X509999D02*
X527499D01*
X509999Y219499D02*
X527499D01*
Y228999*
X513299Y219499D02*
Y228999D01*
X108799Y345299D02*
Y354699D01*
X122999Y345299D02*
Y354699D01*
X108799D02*
X126199D01*
X108799Y345299D02*
X126199D01*
Y354699*
X111999Y345299D02*
Y354699D01*
X191199Y390999D02*
X236199D01*
X191199Y339999D02*
X236199D01*
X191199D02*
Y390999D01*
X236199Y339999D02*
Y390999D01*
X585799Y399199D02*
Y429199D01*
X571699Y399199D02*
Y429199D01*
Y399199D02*
X585799D01*
X571699Y429199D02*
X585799D01*
X830699Y461199D02*
X840299D01*
X830699Y475499D02*
X840299D01*
Y457999D02*
Y475499D01*
X830699Y457999D02*
Y475499D01*
Y472199D02*
X840299D01*
X830699Y457999D02*
X840299D01*
X390999Y452199D02*
X400499D01*
X390999Y437999D02*
X400499D01*
X390999D02*
Y455499D01*
X400499Y437999D02*
Y455499D01*
X390999Y441199D02*
X400499D01*
X390999Y455499D02*
X400499D01*
X831399Y086199D02*
X840799D01*
X831399Y071999D02*
X840799D01*
X831399D02*
Y089499D01*
X840799Y071999D02*
Y089499D01*
X831399Y075299D02*
X840799D01*
X831399Y089499D02*
X840799D01*
X848499Y033999D02*
Y043499D01*
X834299Y033999D02*
Y043499D01*
X830999Y033999D02*
X848499D01*
X830999Y043499D02*
X848499D01*
X830999Y033999D02*
Y043499D01*
X845299Y033999D02*
Y043499D01*
X556499Y109499D02*
X565999D01*
X556499Y095199D02*
X565999D01*
Y091999D02*
Y109499D01*
X556499Y091999D02*
Y109499D01*
Y091999D02*
X565999D01*
X556499Y106199D02*
X565999D01*
X581999Y109499D02*
X591499D01*
X581999Y095199D02*
X591499D01*
Y091999D02*
Y109499D01*
X581999Y091999D02*
Y109499D01*
Y091999D02*
X591499D01*
X581999Y106199D02*
X591499D01*
X410499Y452199D02*
X419999D01*
X410499Y437999D02*
X419999D01*
X410499D02*
Y455499D01*
X419999Y437999D02*
Y455499D01*
X410499Y441199D02*
X419999D01*
X410499Y455499D02*
X419999D01*
X108199Y369699D02*
Y379199D01*
X122499Y369699D02*
Y379199D01*
X108199D02*
X125699D01*
X108199Y369699D02*
X125699D01*
Y379199*
X111499Y369699D02*
Y379199D01*
X125699Y394999D02*
Y404499D01*
X111499Y394999D02*
Y404499D01*
X108199Y394999D02*
X125699D01*
X108199Y404499D02*
X125699D01*
X108199Y394999D02*
Y404499D01*
X122499Y394999D02*
Y404499D01*
X320299Y344499D02*
Y353999D01*
X305999Y344499D02*
Y353999D01*
X302699Y344499D02*
X320299D01*
X302699Y353999D02*
X320299D01*
X302699Y344499D02*
Y353999D01*
X316999Y344499D02*
Y353999D01*
X302999Y325299D02*
Y334699D01*
X317299Y325299D02*
Y334699D01*
X302999D02*
X320499D01*
X302999Y325299D02*
X320499D01*
Y334699*
X306199Y325299D02*
Y334699D01*
X319799Y392499D02*
Y401999D01*
X305499Y392499D02*
Y401999D01*
X302299Y392499D02*
X319799D01*
X302299Y401999D02*
X319799D01*
X302299Y392499D02*
Y401999D01*
X316499Y392499D02*
Y401999D01*
X302299Y373999D02*
Y383499D01*
X316499Y373999D02*
Y383499D01*
X302299D02*
X319799D01*
X302299Y373999D02*
X319799D01*
Y383499*
X305499Y373999D02*
Y383499D01*
X723499Y315999D02*
Y349999D01*
X741499Y315999D02*
Y349999D01*
X723499Y315999D02*
X741499D01*
X723499Y349999D02*
X741499D01*
X632799Y108499D02*
X642299D01*
X632799Y094299D02*
X642299D01*
X632799Y090999D02*
Y108499D01*
X642299Y090999D02*
Y108499D01*
X632799Y090999D02*
X642299D01*
X632799Y105199D02*
X642299D01*
M02*