%FSTAX24Y24*%
%MOMM*%
%SFA1B1*%

%IPPOS*%
%ADD10R,0.949998X0.999998*%
%ADD11R,2.299995X2.299995*%
%ADD12R,1.199998X1.999996*%
%ADD13R,1.099998X1.649997*%
%ADD14R,1.649997X1.099998*%
%ADD15R,1.599997X1.269997*%
%ADD16R,0.999998X0.949998*%
%ADD17O,1.699997X0.349999*%
%ADD18R,1.149998X0.599999*%
%ADD19R,1.699997X1.099998*%
%ADD20R,2.199996X3.499993*%
%ADD21R,2.199996X1.199998*%
%ADD22C,0.299999*%
%ADD23C,0.999998*%
%ADD24R,1.599997X1.599997*%
%ADD25C,1.599997*%
%ADD26R,1.519997X1.519997*%
%ADD27C,1.519997*%
%ADD28R,1.499997X1.499997*%
%ADD29C,1.499997*%
%ADD30C,3.999992*%
%ADD31C,2.499995*%
%ADD32R,1.499997X1.499997*%
%ADD33C,1.399997*%
%ADD34R,1.399997X1.399997*%
%ADD35R,1.879996X1.879996*%
%ADD36C,1.879996*%
%ADD37C,0.509999*%
%LNiot_6_lowpan_gateway_v01-1*%
%LPD*%
G36*
X218799Y554699D02*
X219299Y552799D01*
X202499Y535999*
X200999Y534599*
X198599Y535099*
X198099Y535199*
X195499Y535599*
X192899Y535199*
X1905Y534199*
X188399Y532599*
X187199Y531199*
X185899Y530899*
X185099*
X183799Y531199*
X182599Y532599*
X180499Y534199*
X178099Y535199*
X175499Y535599*
X172899Y535199*
X170499Y534199*
X168399Y532599*
X167199Y531199*
X165899Y530899*
X1651*
X163799Y531199*
X162599Y532599*
X160499Y534199*
X158099Y535199*
X155499Y535599*
X152899Y535199*
X150499Y534199*
X148399Y532599*
X147199Y531199*
X145899Y530899*
X145099*
X143799Y531199*
X142599Y532599*
X140499Y534199*
X138099Y535199*
X135499Y535599*
X132899Y535199*
X130499Y534199*
X128399Y532599*
X126899Y530699*
X125199Y530499*
X123599Y530699*
X122299Y532299*
X120299Y533799*
X117999Y534799*
X116799Y534999*
Y525499*
X115499*
Y524199*
X105999*
X106199Y522999*
X107199Y5207*
X108699Y518699*
X109599Y517999*
X108499Y514999*
X105999*
Y506799*
X115499*
Y505499*
X116799*
Y495999*
X124999*
Y497799*
X127999Y498799*
X128399Y498399*
X130499Y496799*
X132899Y495799*
X135499Y495399*
X138099Y495799*
X140499Y496799*
X142599Y498399*
X143799Y499799*
X145099Y500099*
X145899*
X147199Y499799*
X148399Y498399*
Y498299*
X148599Y4953*
X108299Y455099*
X043499*
X041699Y454699*
X040299Y453699*
X018299Y431699*
X015199Y432599*
Y555799*
X218099*
X218799Y554699*
G37*
G36*
X267199Y499799D02*
X268399Y498399D01*
X270499Y496799*
X272899Y495799*
X275499Y495399*
X278099Y495799*
X280499Y496799*
X282599Y498399*
X283799Y499799*
X285099Y500099*
X285899*
X287199Y499799*
X288399Y498399*
X290499Y496799*
X292899Y495799*
X295499Y495399*
X298099Y495799*
X300499Y496799*
X302599Y498399*
X303799Y499799*
X305099Y500099*
X305899*
X307199Y499799*
X308399Y498399*
X310499Y496799*
X312899Y495799*
X315499Y495399*
X318099Y495799*
X320499Y496799*
X322599Y498399*
X323799Y499799*
X325099Y500099*
X325899*
X327199Y499799*
X328399Y498399*
X330499Y496799*
X332899Y495799*
X335499Y495399*
X338099Y495799*
X340499Y496799*
X342599Y498399*
X343799Y499799*
X345099Y500099*
X345899*
X347199Y499799*
X348399Y498399*
X350499Y496799*
X352899Y495799*
X355499Y495399*
X358099Y495799*
X360499Y496799*
X362599Y498399*
X363799Y499799*
X365099Y500099*
X365899*
X367199Y499799*
X368399Y498399*
X370499Y496799*
X372899Y495799*
X375499Y495399*
X378099Y495799*
X380499Y496799*
X382599Y498399*
X383799Y499799*
X385099Y500099*
X385899*
X387199Y499799*
X388399Y498399*
X390499Y496799*
X391199Y496499*
Y462799*
X387999*
Y449699*
Y446799*
Y446699*
Y441299*
X294699*
X292699Y444299*
X292799Y444599*
X292999Y445999*
X272999*
X273199Y444599*
X273299Y444299*
X271299Y441299*
X173499*
X171699Y440999*
X170299Y439999*
X156999Y426699*
X155999Y425299*
X155699Y423499*
Y390799*
X155999Y388999*
X156999Y387499*
X165199Y379299*
X163899Y376399*
X162999Y376199*
X161499Y375199*
X152799Y366599*
X135899*
X132999Y366699*
Y369599*
Y382199*
X129599*
Y391999*
X132999*
Y407499*
X119999*
X116999*
X113999*
X100999*
Y404599*
X071999*
X071699Y405299*
X069999Y407499*
X067799Y409199*
X065199Y410299*
X062499Y410599*
X059799Y410299*
X057199Y409199*
X054999Y407499*
X053299Y405299*
X052999Y404599*
X049099*
X047299Y404299*
X045799Y403299*
X037399Y394799*
X034599Y395999*
Y420599*
X048699Y434699*
X114499*
X116299Y434999*
X117699Y435999*
X177399Y495699*
X178099Y495799*
X180499Y496799*
X182599Y498399*
X183799Y499799*
X185099Y500099*
X185899*
X187199Y499799*
X188399Y498399*
X1905Y496799*
X192899Y495799*
X195499Y495399*
X198099Y495799*
X200499Y496799*
X202599Y498399*
X203799Y499799*
X205099Y500099*
X205899*
X207199Y499799*
X208399Y498399*
X210499Y496799*
X212899Y495799*
X215499Y495399*
X218099Y495799*
X220499Y496799*
X222599Y498399*
X223799Y499799*
X225099Y500099*
X225899*
X227199Y499799*
X228399Y498399*
X230499Y496799*
X232899Y495799*
X235499Y495399*
X238099Y495799*
X240499Y496799*
X242599Y498399*
X243799Y499799*
X245099Y500099*
X245899*
X247199Y499799*
X248399Y498399*
X250499Y496799*
X252899Y495799*
X255499Y495399*
X258099Y495799*
X260499Y496799*
X262599Y498399*
X263799Y499799*
X265099Y500099*
X265899*
X267199Y499799*
G37*
G36*
X865499Y015199D02*
X799599D01*
X798899Y016099*
X798199Y018299*
X807699Y027799*
X808699Y029199*
X809099Y030999*
Y054699*
X808699Y056499*
X807699Y057999*
X799799Y065899*
X799499Y068599*
X798399Y071199*
X796699Y073399*
X794499Y075099*
X791999Y076099*
X789299Y076499*
X786499Y076099*
X783999Y075099*
X781799Y073399*
X780099Y071199*
X778999Y068599*
X778699Y065899*
X778999Y063199*
X780099Y060599*
X781799Y058399*
X783999Y056699*
X786499Y055699*
X789299Y055299*
X791999Y055699*
X794499Y056699*
X795399Y057399*
X799899Y052799*
Y048799*
X796899Y047799*
X796699Y047999*
X794499Y049699*
X791999Y050699*
X789299Y051099*
X786499Y050699*
X783999Y049699*
X781799Y047999*
X780099Y045799*
X778999Y043199*
X778699Y040499*
X778999Y037799*
X780099Y035199*
X780799Y034299*
X776899Y030499*
X773899Y031799*
Y032299*
Y039199*
X753799*
Y032299*
Y030499*
X751299Y029299*
X741699*
X740499Y032099*
X745199Y036799*
X746199Y038199*
X746599Y039999*
Y048799*
X756099Y058299*
X756299*
X758499Y056599*
X761099Y055599*
X763899Y055199*
X766599Y055599*
X769199Y056599*
X771399Y058299*
X773099Y060499*
X774199Y063099*
X774599Y065899*
X774199Y068699*
X773099Y071299*
X771399Y073499*
X769199Y075199*
X766599Y0762*
X763899Y076599*
X761099Y0762*
X758499Y075199*
X756299Y073499*
X754599Y071299*
X753599Y068799*
X738799Y053999*
X737799Y052499*
X737399Y050699*
Y041899*
X729599Y034099*
X724599*
X723999Y034699*
X722799Y037099*
X723499Y038599*
X723699Y039999*
X703699*
X703899Y038599*
X704599Y037099*
X703399Y034699*
X702799Y034099*
X699499*
X697899Y037099*
X6985Y038499*
X698899Y041199*
X6985Y043999*
X697499Y046499*
X695799Y048699*
X693599Y050399*
X690999Y051499*
X688299Y051799*
X685599Y051499*
X682999Y050399*
X680799Y048699*
X679099Y046499*
X678099Y043999*
X677699Y041199*
X678099Y038499*
X678699Y037099*
X677099Y034099*
X674099*
X672499Y037099*
X6731Y038499*
X673499Y041199*
X6731Y043999*
X672099Y046499*
X670399Y048699*
X668199Y050399*
X665599Y051499*
X662899Y051799*
X660199Y051499*
X657599Y050399*
X655399Y048699*
X653699Y046499*
X652699Y043999*
X652299Y041199*
X652699Y038499*
X653299Y037099*
X651699Y034099*
X648699*
X647099Y037099*
X6477Y038499*
X648099Y041199*
X6477Y043999*
X646699Y046499*
X644999Y048699*
X642799Y050399*
X640199Y051499*
X637499Y051799*
X634799Y051499*
X632199Y050399*
X629999Y048699*
X628299Y046499*
X627299Y043999*
X626899Y041199*
X627299Y038499*
X627899Y037099*
X626299Y034099*
X623299*
X621699Y037099*
X6223Y038499*
X622699Y041199*
X6223Y043999*
X621299Y046499*
X619599Y048699*
X617399Y050399*
X614799Y051499*
X612099Y051799*
X609399Y051499*
X606799Y050399*
X604599Y048699*
X602899Y046499*
X601899Y043999*
X601499Y041199*
X601899Y038499*
X602499Y037099*
X600899Y034099*
X597899*
X596299Y037099*
X5969Y038499*
X597299Y041199*
X5969Y043999*
X595899Y046499*
X594199Y048699*
X591999Y050399*
X591299Y050699*
Y084799*
X594499*
Y100699*
Y100799*
Y116799*
X591299*
Y129999*
X590999Y131799*
X589999Y133199*
X548999Y174199*
X547499Y175199*
X545799Y175599*
X513699*
X443099Y246199*
Y280699*
X446099Y281899*
X448299Y279799*
X449699Y278799*
X451499Y278399*
X453999*
Y274999*
X481999*
Y275899*
X485699*
X503499Y258099*
Y253799*
X502799Y252999*
X498899Y252799*
X487499Y264199*
X485999Y265199*
X484199Y265599*
X481999*
Y269999*
X453999*
Y251999*
X481999*
Y252499*
X484999Y253799*
X496299Y242499*
X497699Y241499*
X499499Y241199*
X503499*
Y237699*
X506199*
Y231999*
X502799*
Y216499*
X516399*
X518799*
X521599Y216999*
X525499*
Y224199*
Y231499*
X521599*
X518799Y231999*
X517499*
X515299Y234099*
Y237699*
X518999*
Y253799*
Y256699*
Y259599*
Y259699*
X519299Y261699*
X518999Y263799*
Y263899*
Y265699*
X521799Y266799*
X529999Y258599*
Y254199*
X530499Y251399*
Y247499*
X544999*
Y251399*
X545499Y254199*
Y256599*
Y260099*
Y260199*
X545799Y262299*
X545499Y264299*
Y264399*
Y266999*
X548499Y268199*
X554499Y262199*
Y254*
Y253299*
X554999Y250499*
Y243599*
X575999*
Y250499*
X576499Y253299*
Y254*
Y258099*
X580699*
X586399Y252299*
Y217999*
X586799Y216199*
X587799Y214799*
X716999Y085499*
X718499Y084499*
X720299Y084199*
X826199*
X828299Y081999*
Y080699*
Y077799*
Y064699*
X831499*
Y058999*
X828499Y055999*
X827499Y054499*
X827199Y052799*
Y046499*
X823799*
Y030999*
X836799*
X839699*
X842799*
X855699*
Y046499*
X852299*
Y049799*
X860699Y058299*
X861699Y059699*
X862099Y061499*
Y412199*
X861699Y413999*
X860699Y415499*
X847499Y428699*
X845999Y429699*
X844299Y430099*
X813799*
X811999Y429699*
X810499Y428699*
X773299Y391599*
X744199*
X719699Y415999*
X718299Y416999*
X716499Y417299*
X600899*
X598299Y418199*
Y420299*
Y422499*
X581699*
Y419999*
X581199Y418599*
X578799Y417699*
X576199Y419499*
Y420299*
X5588*
Y418799*
X519199*
Y421699*
X515799*
Y434599*
X517999Y436699*
X519699*
X522599Y437199*
X526499*
Y4445*
Y451799*
X522599*
X519699Y452199*
X517399*
X503799*
Y436699*
X506699*
Y423899*
X504499Y421699*
X503299*
Y421799*
X503199Y421699*
X493999*
X493699Y421999*
X492299Y422999*
X490499Y423299*
X417799*
X416599Y426299*
X418499Y428299*
X419499Y429699*
X419699Y430799*
X422999*
Y446699*
Y446799*
Y462799*
X419799*
Y496499*
X420499Y496799*
X422599Y498399*
X423799Y499799*
X425099Y500099*
X425899*
X427199Y499799*
X428399Y498399*
X430499Y496799*
X432899Y495799*
X435499Y495399*
X438099Y495799*
X440499Y496799*
X442599Y498399*
X443799Y499799*
X445099Y500099*
X445899*
X447199Y499799*
X448399Y498399*
X450499Y496799*
X452899Y495799*
X455499Y495399*
X458099Y495799*
X460499Y496799*
X462599Y498399*
X463799Y499799*
X465099Y500099*
X465899*
X467199Y499799*
X468399Y498399*
X470499Y496799*
X472899Y495799*
X475499Y495399*
X478099Y495799*
X480499Y496799*
X4826Y498399*
X484099Y500299*
X485799Y500499*
X487399Y500299*
X488699Y498699*
X490699Y497199*
X492999Y496199*
X494199Y495999*
Y505499*
X495499*
Y506799*
X504999*
X504799Y508*
X503799Y510299*
X502299Y512299*
X500299Y513799*
X500199Y513899*
Y517099*
X500299Y517199*
X502299Y518699*
X503799Y5207*
X504799Y522999*
X504999Y524199*
X495499*
Y526799*
X504999*
X504799Y527999*
X503799Y530299*
X502299Y532299*
X500299Y533799*
X497999Y534799*
X498599Y537699*
X589399*
X589999Y534699*
X588999Y534199*
X587299Y532999*
X579099Y524699*
X557499*
Y495799*
X586499*
Y502199*
X655599*
X676399Y477999*
Y472799*
X675399*
Y446799*
X693399*
Y472799*
X692599*
Y480999*
X692499Y481799*
X692399Y482499*
X692299Y482799*
Y483099*
X691999Y483799*
X691799Y484499*
X691599Y484799*
X691499Y484999*
X690999Y485599*
X690599Y486299*
X665399Y515499*
X665099Y515699*
X664999Y515999*
X664399Y516399*
X663799Y516899*
X663499Y517099*
X663299Y517199*
X662599Y517499*
X661899Y517899*
X661599*
X661299Y517999*
X660599Y518099*
X659799Y518299*
X659499*
X659299*
X616899*
X615399Y521299*
X615899Y521999*
X616999Y524499*
X617299Y527199*
X616999Y529999*
X615899Y532499*
X614299Y534699*
Y534999*
X615399Y537699*
X718799*
X731699Y524799*
Y4572*
X731999Y455499*
X732999Y453999*
X747099Y439899*
X745999Y437199*
X745699Y434399*
X745999Y431499*
X747099Y428799*
X748899Y426499*
X751199Y424699*
X753899Y423599*
X756799Y423299*
X759599Y423599*
X762299Y424699*
X764599Y426499*
X766399Y428799*
X767499Y431499*
X767799Y434399*
X767499Y437199*
X766399Y439899*
X764599Y442199*
X762299Y443999*
X759599Y445099*
X757099Y445399*
X756699Y445799*
Y446299*
Y446399*
X758199Y448899*
X759599Y448999*
X762299Y450099*
X764599Y451899*
X766399Y454199*
X767499Y456899*
X767699Y458999*
X769599Y459999*
X770799Y460199*
X775499Y455499*
X776999Y454499*
X778799Y454199*
X785699*
Y450999*
X798799*
X801799*
X804699*
X817799*
Y454199*
X827799*
Y450799*
X843199*
Y464399*
X843299Y466699*
X842799Y469599*
Y473499*
X828199*
Y469599*
X827799Y466699*
Y465499*
X825599Y463299*
X817799*
Y466499*
X804699*
X801799*
X798799*
X785699*
Y463299*
X780699*
X767399Y476599*
Y500699*
X768199Y500999*
X770399Y502699*
X772099Y504899*
X773099Y507499*
X773499Y510299*
X773099Y512999*
X772099Y515599*
X770399Y517799*
X768199Y519499*
X765599Y520599*
X762799Y520999*
X759999Y520599*
X757399Y519499*
X755199Y517799*
X754099Y516299*
X751099Y517199*
Y530999*
X750699Y532799*
X749699Y534199*
X731199Y552799*
X731699Y554699*
X732399Y555799*
X865499*
Y015199*
G37*
G36*
X476299Y396999D02*
X477699Y395999D01*
X479499Y395699*
X574999*
X576799Y395999*
X578199Y396999*
X578699Y397499*
X581199Y398799*
X581299*
X591499*
X596699Y393599*
Y375099*
X588499*
Y378799*
X565999*
Y362799*
X378199*
X358999Y381999*
X357499Y382999*
X355799Y383299*
X348899*
X347899Y386299*
X349499Y388399*
X350499Y390899*
X350699Y392199*
X330799*
X330999Y390899*
X331999Y388399*
X333599Y386299*
X332599Y383299*
X326999*
Y386499*
X313999*
X310999*
X309699Y389499*
X310999*
X313799Y389999*
X317699*
Y397199*
X318999*
Y398499*
X326499*
Y402199*
Y404499*
X329299Y405199*
X334399*
X335599Y402499*
X335499Y402199*
X333599Y400699*
X331999Y398599*
X330999Y396099*
X330799Y394799*
X350699*
X350499Y396099*
X349499Y398599*
X347899Y400699*
X345999Y402199*
X345899Y402499*
X347099Y405199*
X468099*
X476299Y396999*
G37*
G36*
X852899Y410299D02*
Y063399D01*
X844499Y054999*
X843499Y053499*
X843199Y051799*
Y048599*
X840999Y046499*
X838499*
X836899Y048099*
Y051399*
X839299Y053899*
X840299Y055299*
X840699Y057099*
Y064699*
X843899*
Y077799*
Y080699*
Y083799*
Y096799*
X828299*
Y093299*
X722199*
X595599Y219899*
Y254199*
X595199Y255999*
X594199Y257499*
X585799Y265899*
X584299Y266899*
X582599Y267199*
X576499*
Y271999*
X567599*
X549899Y289699*
X548199Y290999*
X546199Y291799*
X544199Y2921*
X481999*
Y292999*
X453999*
X453399Y293599*
Y297399*
X453999Y297999*
X454799*
X481999*
Y298899*
X573399*
X594399Y277899*
X596099Y276599*
X597499Y275999*
X598199Y275499*
X600199Y274699*
X602199Y274399*
X604999*
X606399Y273299*
X606899Y273099*
Y269899*
X606399Y269699*
X604199Y267999*
X602499Y265799*
X601499Y263199*
X601099Y260499*
X601499Y257799*
X602499Y255199*
X604199Y252999*
X606399Y251299*
X608999Y250299*
X611699Y249899*
X614399Y250299*
X616999Y251299*
X619199Y252999*
X620899Y255199*
X621899Y257799*
X6223Y260499*
X621899Y263199*
X620899Y265799*
X619199Y267999*
X616999Y269699*
X616499Y269899*
Y273099*
X616999Y273299*
X619199Y274999*
X620899Y277199*
X621899Y279799*
X6223Y282499*
X621899Y285199*
X620899Y287799*
X619199Y289999*
X616999Y291699*
X616499Y291899*
Y295099*
X616999Y295299*
X619199Y296999*
X619699Y297599*
X621899Y297899*
X623299Y297699*
X642199Y278799*
Y230499*
X642499Y228699*
X643499Y227299*
X651299Y219499*
X652699Y218499*
X654499Y218199*
X735499*
X737299Y218499*
X738699Y219499*
X745499Y226299*
X746499Y227699*
X746799Y229499*
Y233999*
X750699*
Y242299*
X769499Y260999*
X770699Y262699*
X771499Y264699*
X771799Y2667*
Y289799*
X772899Y291199*
X773999Y293799*
X774299Y296499*
X773999Y299199*
X772899Y301799*
X771199Y303999*
X768999Y305699*
X766499Y306699*
X763799Y307099*
X760999Y306699*
X758499Y305699*
X756299Y303999*
X754599Y301799*
X753499Y299199*
X753299Y297699*
X750299Y297899*
Y309799*
X749999Y311799*
X749199Y313799*
X747999Y315499*
X743999Y319399*
Y327999*
X720999*
Y324099*
X708999*
X707199Y323699*
X705799Y322699*
X681099Y298099*
X674499*
X672499Y301099*
X672699Y301799*
X672999Y303599*
X690099Y320699*
X691399Y322399*
X692199Y324299*
X692499Y326399*
Y371699*
X693399*
Y397699*
X675399*
Y371699*
X676299*
Y329699*
X661599Y314999*
X659799Y314699*
X657199Y313699*
X654999Y311999*
X653299Y309799*
X652299Y307199*
X651899Y304499*
X652099Y303399*
X649199Y301999*
X640099Y311199*
Y345499*
X639699Y347299*
X638699Y348699*
X625999Y361499*
X624499Y362499*
X622799Y362799*
X588499*
Y365899*
X627299*
X652799Y340499*
X652299Y339199*
X651899Y336499*
X652299Y333799*
X653299Y331199*
X654999Y328999*
X657199Y327299*
X659799Y326299*
X662499Y325899*
X665199Y326299*
X667799Y327299*
X669999Y328999*
X671699Y331199*
X672699Y333799*
X6731Y336499*
X672699Y339199*
X671699Y341799*
X669999Y343999*
X667799Y345699*
X665199Y346699*
X662499Y347099*
X659799Y346699*
X659599*
X632499Y373699*
X630999Y374699*
X629199Y375099*
X605799*
Y395499*
X605499Y397299*
X604499Y398699*
X598799Y404499*
Y408199*
X714599*
X738999Y383799*
X740499Y382799*
X742199Y382399*
X750899*
X751899Y379799*
X751999Y379399*
X750299Y377299*
X7493Y374699*
X748999Y372899*
X731099Y354999*
X720999*
Y337999*
X743999*
Y345099*
X760399Y361499*
X762199Y361799*
X764799Y362799*
X766999Y364499*
X768699Y366699*
X769699Y369299*
X770099Y371999*
X769699Y374699*
X768699Y377299*
X766999Y379399*
X767099Y379799*
X768099Y382399*
X775299*
X776999Y382799*
X778499Y383799*
X8001Y405399*
X802799Y403799*
X802499Y402799*
X802199Y399799*
X802499Y396799*
X803399Y393799*
X804799Y391099*
X806699Y388799*
X809099Y386799*
X811799Y385399*
X814699Y384499*
X817799Y384199*
X820799Y384499*
X823699Y385399*
X826399Y386799*
X828799Y388799*
X830699Y391099*
X832099Y393799*
X832999Y396799*
X833299Y399799*
X832999Y402799*
X832099Y405799*
X830699Y408499*
X828799Y410799*
X826399Y412799*
X823699Y414199*
X820799Y415099*
X817799Y415399*
X814699Y415099*
X813799Y414799*
X812199Y417399*
X815699Y420899*
X842299*
X852899Y410299*
G37*
G36*
X282699Y411199D02*
X261099Y389599D01*
X250299*
X248999Y389799*
X235499*
X233599Y389499*
X229999Y390199*
X228499Y391199*
X226699Y391599*
X224999Y391199*
X223499Y390199*
X222499Y388799*
X222199Y386999*
Y343299*
X222499Y341499*
X223499Y339999*
X224699Y339199*
X225099Y338599*
X225599Y335799*
X193299Y303599*
X048199*
X042299Y309399*
Y386799*
X050299Y394799*
X051499*
X053499Y394499*
X054999Y392599*
X057199Y390899*
X059799Y389799*
X062499Y389499*
X065199Y389799*
X067799Y390899*
X069999Y392599*
X071699Y394799*
X071999Y395499*
X100999*
Y391999*
X113999*
X118299*
X120399Y389899*
Y384399*
X118299Y382199*
X116999*
X113999*
X100999*
Y379199*
X071999*
X071699Y379899*
X069999Y382099*
X067799Y383799*
X065199Y384899*
X062499Y385199*
X059799Y384899*
X057199Y383799*
X054999Y382099*
X053299Y379899*
X052299Y377399*
X051899Y374699*
X052299Y371899*
X053299Y369399*
X054999Y367199*
X057199Y365499*
X059799Y364399*
X062499Y364099*
X065199Y364399*
X067799Y365499*
X069999Y367199*
X071699Y369399*
X071999Y370099*
X100999*
Y366699*
X105199*
Y357799*
X101499*
Y342199*
X115199*
X117499*
X120299Y342699*
X124199*
Y349999*
X125499*
Y351299*
X132999*
Y357299*
X135999Y357399*
X154699*
X154799Y357299*
X156099Y354599*
X128099Y326599*
X107899*
X081999Y352499*
X080499Y353499*
X078799Y353799*
X071999*
X071699Y354499*
X069999Y356699*
X067799Y358399*
X065199Y359499*
X062499Y359799*
X059799Y359499*
X057199Y358399*
X054999Y356699*
X053299Y354499*
X052299Y351999*
X051899Y349199*
X052299Y346499*
X053299Y343999*
X054999Y341799*
X057199Y340099*
X059799Y338999*
X062499Y338699*
X065199Y338999*
X067799Y340099*
X069999Y341799*
X071699Y343999*
X071999Y344699*
X076799*
X102799Y318799*
X104199Y317799*
X105999Y317399*
X129999*
X131799Y317799*
X133199Y318799*
X169599Y355099*
X173399Y354999*
X173999Y354399*
X173699Y352499*
X173999Y350599*
X175099Y349099*
Y348699*
X174499Y347699*
X174399Y347299*
X196099*
X195999Y347699*
X196199Y347999*
X197499Y348299*
X198999Y349299*
X206999Y357299*
X207999Y358699*
X208299Y360499*
Y390599*
X231899Y414199*
X281399*
X282699Y411199*
G37*
G36*
X372999Y354999D02*
X373199Y353399D01*
X354299Y334599*
X327799*
Y337799*
X311699*
X310999*
X309699Y340799*
X310499Y341499*
X311499*
X314299Y341999*
X318199*
Y349199*
Y356499*
X314299*
X311499Y356999*
X309199*
X302199*
X288099Y371099*
X289199Y373899*
X294999*
Y370999*
X310999*
X326999*
Y374199*
X353799*
X372999Y354999*
G37*
G36*
X302499Y280799D02*
X303999Y279799D01*
X305799Y2794*
X391999*
Y263499*
X396399*
Y222499*
X396699Y220399*
X397499Y218499*
X398799Y216799*
X426199Y189399*
Y107699*
X426499Y105699*
Y105599*
Y102699*
Y099799*
Y099699*
Y093899*
Y093799*
X426199Y091799*
Y047899*
X425099Y046499*
X424099Y043999*
X423699Y041199*
X424099Y038499*
X421799Y036099*
X420999Y035999*
X418999Y038199*
X4191Y038499*
X419499Y041199*
X4191Y043999*
X418099Y046499*
X416399Y048699*
X414199Y050399*
X411599Y051499*
X408899Y051799*
X406199Y051499*
X403599Y050399*
X401399Y048699*
X399699Y046499*
X398699Y043999*
X398299Y041199*
X398699Y038499*
X399699Y035999*
X401399Y033799*
X403299Y032299*
Y031399*
X402499Y029299*
X392999*
X390899Y031499*
X390999Y033799*
X392699Y035999*
X3937Y038499*
X394099Y041199*
X3937Y043999*
X392699Y046499*
X390999Y048699*
X388799Y050399*
X386199Y051499*
X383499Y051799*
X380799Y051499*
X378199Y050399*
X375999Y048699*
X374299Y046499*
X373299Y043999*
X372899Y041199*
X373299Y038499*
X374299Y035999*
X374999Y035099*
X372699Y033099*
X368599Y037199*
Y051799*
X347599*
Y030799*
X362099*
X374599Y018299*
X373999Y016099*
X373199Y015199*
X015199*
Y138099*
X018299Y138999*
X054999Y102299*
Y092999*
Y089999*
Y076999*
X058199*
Y050099*
X056799Y049599*
X054199Y047599*
X052599Y045499*
X050699Y045699*
X049599Y046299*
Y050699*
X038899*
Y038799*
Y026799*
X049599*
Y031199*
X050699Y031799*
X052599Y031999*
X054199Y029899*
X056799Y027899*
X059799Y026699*
X062999Y026199*
X066299Y026699*
X069299Y027899*
X071899Y029899*
X073899Y032499*
X074099Y033099*
X077399*
X077599Y032499*
X079599Y029899*
X082199Y027899*
X085199Y026699*
X088499Y026199*
X091699Y026699*
X094699Y027899*
X097299Y029899*
X099299Y032499*
X099499Y033099*
X102799*
X102999Y032499*
X104999Y029899*
X107599Y027899*
X110599Y026699*
X113899Y026199*
X117099Y026699*
X120099Y027899*
X122699Y029899*
X124699Y032499*
X124899Y033099*
X128199*
X128399Y032499*
X130399Y029899*
X132999Y027899*
X135999Y026699*
X139299Y026199*
X142499Y026699*
X145499Y027899*
X148099Y029899*
X150099Y032499*
X150299Y033099*
X153599*
X153799Y032499*
X155799Y029899*
X158399Y027899*
X161399Y026699*
X164699Y026199*
X167899Y026699*
X170899Y027899*
X173499Y029899*
X175499Y032499*
X175699Y033099*
X178999*
X179199Y032499*
X181199Y029899*
X183799Y027899*
X186799Y026699*
X189999Y026199*
X193299Y026699*
X196299Y027899*
X198899Y029899*
X200899Y032499*
X201099Y033099*
X204399*
X204599Y032499*
X206599Y029899*
X209199Y027899*
X212199Y026699*
X215499Y026199*
X218699Y026699*
X221699Y027899*
X224299Y029899*
X226299Y032499*
X226499Y033099*
X229799*
X229999Y032499*
X231999Y029899*
X234599Y027899*
X237599Y026699*
X240799Y026199*
X244099Y026699*
X247099Y027899*
X249699Y029899*
X251699Y032499*
X251899Y033099*
X255199*
X255399Y032499*
X257399Y029899*
X259999Y027899*
X262999Y026699*
X266199Y026199*
X269499Y026699*
X272499Y027899*
X275099Y029899*
X277099Y032499*
X277299Y033099*
X280599*
X280799Y032499*
X282799Y029899*
X285399Y027899*
X288399Y026699*
X291699Y026199*
X294899Y026699*
X297899Y027899*
X300499Y029899*
X302499Y032499*
X302699Y033099*
X305999*
X306199Y032499*
X308199Y029899*
X310799Y027899*
X313799Y026699*
X316999Y026199*
X320299Y026699*
X323299Y027899*
X325899Y029899*
X327899Y032499*
X329099Y035499*
X329599Y038799*
X329099Y041999*
X327899Y044999*
X325899Y047599*
X323299Y049599*
X320299Y0508*
X316999Y051299*
X313799Y0508*
X310799Y049599*
X308199Y047599*
X306199Y044999*
X305999Y044399*
X302699*
X302499Y044999*
X300499Y047599*
X297899Y049599*
X294899Y0508*
X291699Y051299*
X288399Y0508*
X285399Y049599*
X282799Y047599*
X280799Y044999*
X280599Y044399*
X277299*
X277099Y044999*
X275099Y047599*
X272499Y049599*
X269499Y0508*
X266199Y051299*
X262999Y0508*
X259999Y049599*
X257399Y047599*
X255399Y044999*
X255199Y044399*
X251899*
X251699Y044999*
X249699Y047599*
X247099Y049599*
X244099Y0508*
X240799Y051299*
X237599Y0508*
X234599Y049599*
X231999Y047599*
X229999Y044999*
X229799Y044399*
X226499*
X226299Y044999*
X224299Y047599*
X221699Y049599*
X218699Y0508*
X215499Y051299*
X212199Y0508*
X209199Y049599*
X206599Y047599*
X204599Y044999*
X204399Y044399*
X201099*
X200899Y044999*
X198899Y047599*
X196299Y049599*
X193299Y0508*
X189999Y051299*
X186799Y0508*
X183799Y049599*
X181199Y047599*
X179199Y044999*
X178999Y044399*
X175699*
X175499Y044999*
X173499Y047599*
X170899Y049599*
X167899Y0508*
X164699Y051299*
X161399Y0508*
X158399Y049599*
X155799Y047599*
X153799Y044999*
X153599Y044399*
X150299*
X150099Y044999*
X148099Y047599*
X145499Y049599*
X142499Y0508*
X139299Y051299*
X135999Y0508*
X132999Y049599*
X130399Y047599*
X128399Y044999*
X128199Y044399*
X124899*
X124699Y044999*
X122699Y047599*
X120099Y049599*
X117099Y0508*
X113899Y051299*
X110599Y0508*
X107599Y049599*
X104999Y047599*
X102999Y044999*
X102799Y044399*
X099499*
X099299Y044999*
X097299Y047599*
X094699Y049599*
X093099Y050199*
Y077499*
X096199*
Y090499*
Y093499*
Y096499*
Y109499*
X086999*
X034599Y161899*
Y185699*
X037599Y186799*
X039499Y184499*
X042899Y181699*
X046799Y179599*
X051099Y178299*
X054199Y177999*
Y200499*
Y222999*
X051099Y222699*
X046799Y221399*
X042899Y219299*
X039499Y216499*
X037599Y214199*
X034599Y215299*
Y300299*
X037399Y301399*
X042999Y295799*
X044499Y294799*
X046199Y294399*
X195199*
X196999Y294799*
X198499Y295799*
X242999Y340299*
X302499Y280799*
G37*
G36*
X425399Y298599D02*
Y239999D01*
X425799Y238199*
X426799Y236799*
X553499Y109999*
Y100799*
Y100699*
Y084799*
X556699*
Y050699*
X555999Y050399*
X553799Y048699*
X552099Y046499*
X551099Y043999*
X550699Y041199*
X551099Y038499*
X551699Y037099*
X550099Y034099*
X547099*
X545499Y037099*
X5461Y038499*
X546499Y041199*
X5461Y043999*
X545099Y046499*
X543399Y048699*
X541199Y050399*
X538599Y051499*
X535899Y051799*
X533199Y051499*
X530599Y050399*
X528399Y048699*
X526699Y046499*
X525699Y043999*
X525299Y041199*
X525699Y038499*
X526299Y037099*
X524699Y034099*
X521699*
X520099Y037099*
X5207Y038499*
X521099Y041199*
X5207Y043999*
X519699Y046499*
X517999Y048699*
X515799Y050399*
X513199Y051499*
X510499Y051799*
X507799Y051499*
X505199Y050399*
X502999Y048699*
X501299Y046499*
X500299Y043999*
X499899Y041199*
X500299Y038499*
X500899Y037099*
X499299Y034099*
X496299*
X494699Y037099*
X4953Y038499*
X495699Y041199*
X4953Y043999*
X494299Y046499*
X492599Y048699*
X490399Y050399*
X487799Y051499*
X485099Y051799*
X482399Y051499*
X479799Y050399*
X477599Y048699*
X475899Y046499*
X474899Y043999*
X474499Y041199*
X474899Y038499*
X475499Y037099*
X473899Y034099*
X470899*
X469299Y037099*
X4699Y038499*
X470299Y041199*
X4699Y043999*
X468899Y046499*
X467199Y048699*
X464999Y050399*
X462399Y051499*
X459699Y051799*
X456999Y051499*
X454399Y050399*
X452199Y048699*
X450499Y046499*
X449499Y043999*
X449099Y041199*
X449499Y038499*
X450099Y037099*
X448499Y034099*
X445499*
X443899Y037099*
X4445Y038499*
X444899Y041199*
X4445Y043999*
X443499Y046499*
X442299Y047999*
Y091799*
X441999Y093799*
Y093899*
Y096799*
Y099699*
Y099799*
Y105599*
Y105699*
X442299Y107699*
Y192699*
X441999Y194799*
X441199Y196799*
X439999Y198499*
X412599Y225799*
Y263499*
X419999*
Y300099*
X422799Y301199*
X425399Y298599*
G37*
%LNiot_6_lowpan_gateway_v01-2*%
%LPC*%
G36*
X114199Y534999D02*
X112999Y534799D01*
X110699Y533799*
X108699Y532299*
X107199Y530299*
X106199Y527999*
X105999Y526799*
X114199*
Y534999*
G37*
G36*
X056799Y537999D02*
Y516799D01*
X077999*
X077699Y519899*
X076399Y524199*
X074299Y528099*
X071499Y531499*
X068099Y534299*
X064199Y536399*
X059899Y537699*
X056799Y537999*
G37*
G36*
X054199D02*
X051099Y537699D01*
X046799Y536399*
X042899Y534299*
X039499Y531499*
X036699Y528099*
X034599Y524199*
X033299Y519899*
X032999Y516799*
X054199*
Y537999*
G37*
G36*
X077999Y514199D02*
X056799D01*
Y492999*
X059899Y493299*
X064199Y494599*
X068099Y496699*
X071499Y499499*
X074299Y502899*
X076399Y506799*
X077699Y511099*
X077999Y514199*
G37*
G36*
X054199D02*
X032999D01*
X033299Y511099*
X034599Y506799*
X036699Y502899*
X039499Y499499*
X042899Y496699*
X046799Y494599*
X051099Y493299*
X054199Y492999*
Y514199*
G37*
G36*
X114199Y504199D02*
X105999D01*
Y495999*
X107999*
X108199Y492999*
X107899Y492899*
X106899Y492799*
X104399Y491799*
X102299Y490199*
X100699Y488099*
X099699Y485599*
X099499Y484299*
X119499*
X119299Y485599*
X118299Y488099*
X116699Y490199*
X114599Y491799*
X112099Y492799*
X111099Y492899*
X110799Y492999*
X110999Y495999*
X114199*
Y504199*
G37*
G36*
X038999Y486199D02*
Y477499D01*
X047699*
X047499Y478899*
X046499Y481299*
X044899Y483399*
X042799Y484999*
X040399Y485999*
X038999Y486199*
G37*
G36*
X036499D02*
X035099Y485999D01*
X032699Y484999*
X030599Y483399*
X028999Y481299*
X027999Y478899*
X027799Y477499*
X036499*
Y486199*
G37*
G36*
X119499Y481699D02*
X110799D01*
Y472999*
X112099Y473199*
X114599Y474199*
X116699Y475799*
X118299Y477899*
X119299Y480399*
X119499Y481699*
G37*
G36*
X108199D02*
X099499D01*
X099699Y480399*
X100699Y477899*
X102299Y475799*
X104399Y474199*
X106899Y473199*
X108199Y472999*
Y481699*
G37*
G36*
X047699Y474999D02*
X038999D01*
Y466299*
X040399Y466499*
X042799Y467499*
X044899Y469099*
X046499Y471199*
X047499Y473599*
X047699Y474999*
G37*
G36*
X036499D02*
X027799D01*
X027999Y473599*
X028999Y471199*
X030599Y469099*
X032699Y467499*
X035099Y466499*
X036499Y466299*
Y474999*
G37*
G36*
X284299Y4572D02*
Y448499D01*
X292999*
X292799Y449899*
X291799Y452299*
X290199Y454399*
X288099Y455999*
X285599Y456999*
X284299Y4572*
G37*
G36*
X281699D02*
X280399Y456999D01*
X277899Y455999*
X275799Y454399*
X274199Y452299*
X273199Y449899*
X272999Y448499*
X281699*
Y4572*
G37*
G36*
X798399Y520399D02*
X789499D01*
Y511499*
X798399*
Y520399*
G37*
G36*
X786899D02*
X777999D01*
Y511499*
X786899*
Y520399*
G37*
G36*
X798399Y508999D02*
X789499D01*
Y500099*
X798399*
Y508999*
G37*
G36*
X786899D02*
X777999D01*
Y500099*
X786899*
Y508999*
G37*
G36*
X8255Y531099D02*
X822499Y530799D01*
X819499Y529899*
X816799Y528499*
X814499Y526499*
X812499Y524199*
X811099Y521499*
X810199Y518499*
X809899Y515499*
X810199Y512499*
X811099Y509499*
X812499Y506799*
X814499Y504499*
X816799Y502499*
X819499Y501099*
X822499Y500199*
X8255Y499899*
X828499Y500199*
X831499Y501099*
X834199Y502499*
X836499Y504499*
X838499Y506799*
X839899Y509499*
X840799Y512499*
X841099Y515499*
X840799Y518499*
X839899Y521499*
X838499Y524199*
X836499Y526499*
X834199Y528499*
X831499Y529899*
X828499Y530799*
X8255Y531099*
G37*
G36*
X504999Y504199D02*
X496799D01*
Y495999*
X497999Y496199*
X500299Y497199*
X502299Y498699*
X503799Y500699*
X504799Y502999*
X504999Y504199*
G37*
G36*
X842799Y482299D02*
X836799D01*
Y475999*
X842799*
Y482299*
G37*
G36*
X834199D02*
X828199D01*
Y475999*
X834199*
Y482299*
G37*
G36*
X585999Y479299D02*
X573299D01*
Y466499*
X585999*
Y479299*
G37*
G36*
X570699D02*
X557999D01*
Y466499*
X570699*
Y479299*
G37*
G36*
X666799Y472299D02*
X659599D01*
Y460999*
X666799*
Y472299*
G37*
G36*
X656999D02*
X649799D01*
Y460999*
X656999*
Y472299*
G37*
G36*
X614999Y460199D02*
Y451499D01*
X623699*
X623499Y452899*
X622499Y455299*
X620899Y457399*
X618799Y458999*
X616399Y459999*
X614999Y460199*
G37*
G36*
X612499D02*
X611099Y459999D01*
X608699Y458999*
X606599Y457399*
X604999Y455299*
X603999Y452899*
X603799Y451499*
X612499*
Y460199*
G37*
G36*
X585999Y463999D02*
X573299D01*
Y451199*
X585999*
Y463999*
G37*
G36*
X570699D02*
X557999D01*
Y451199*
X570699*
Y463999*
G37*
G36*
X666799Y458499D02*
X659599D01*
Y447199*
X666799*
Y458499*
G37*
G36*
X656999D02*
X649799D01*
Y447199*
X656999*
Y458499*
G37*
G36*
X528999Y451799D02*
Y445799D01*
X535299*
Y451799*
X528999*
G37*
G36*
X623699Y448999D02*
X614999D01*
Y440299*
X616399Y440499*
X618799Y441499*
X620899Y443099*
X622499Y445199*
X623499Y447599*
X623699Y448999*
G37*
G36*
X612499D02*
X603799D01*
X603999Y447599*
X604999Y445199*
X606599Y443099*
X608699Y441499*
X611099Y440499*
X612499Y440299*
Y448999*
G37*
G36*
X535299Y443199D02*
X528999D01*
Y437199*
X535299*
Y443199*
G37*
G36*
X598299Y429299D02*
X591299D01*
Y424999*
X598299*
Y429299*
G37*
G36*
X588699D02*
X581699D01*
Y424999*
X588699*
Y429299*
G37*
G36*
X767299Y419499D02*
X757999D01*
Y410199*
X767299*
Y419499*
G37*
G36*
X755499D02*
X746199D01*
Y410199*
X755499*
Y419499*
G37*
G36*
X767299Y407699D02*
X757999D01*
Y398399*
X767299*
Y407699*
G37*
G36*
X755499D02*
X746199D01*
Y398399*
X755499*
Y407699*
G37*
G36*
X544999Y244999D02*
X538999D01*
Y238699*
X544999*
Y244999*
G37*
G36*
X536499D02*
X530499D01*
Y238699*
X536499*
Y244999*
G37*
G36*
X575999Y241099D02*
X566799D01*
Y233399*
X575999*
Y241099*
G37*
G36*
X564199D02*
X554999D01*
Y233399*
X564199*
Y241099*
G37*
G36*
X527999Y231499D02*
Y225499D01*
X534299*
Y231499*
X527999*
G37*
G36*
X534299Y222999D02*
X527999D01*
Y216999*
X534299*
Y222999*
G37*
G36*
X669799Y114199D02*
Y105499D01*
X678499*
X678299Y106899*
X677299Y109299*
X675699Y111399*
X673599Y112999*
X671099Y113999*
X669799Y114199*
G37*
G36*
X667199D02*
X665899Y113999D01*
X663399Y112999*
X661299Y111399*
X659699Y109299*
X658699Y106899*
X658499Y105499*
X667199*
Y114199*
G37*
G36*
X678499Y102999D02*
X669799D01*
Y094299*
X671099Y094499*
X673599Y095499*
X675699Y097099*
X677299Y099199*
X678299Y1016*
X678499Y102999*
G37*
G36*
X667199D02*
X658499D01*
X658699Y1016*
X659699Y099199*
X661299Y097099*
X663399Y095499*
X665899Y094499*
X667199Y094299*
Y102999*
G37*
G36*
X714999Y051199D02*
Y042499D01*
X723699*
X723499Y043899*
X722499Y046299*
X720899Y048399*
X718799Y049999*
X716299Y050999*
X714999Y051199*
G37*
G36*
X712399D02*
X711099Y050999D01*
X708599Y049999*
X706499Y048399*
X704899Y046299*
X703899Y043899*
X703699Y042499*
X712399*
Y051199*
G37*
G36*
X773899Y050499D02*
X765099D01*
Y041799*
X773899*
Y050499*
G37*
G36*
X762599D02*
X753799D01*
Y041799*
X762599*
Y050499*
G37*
G36*
X326499Y395999D02*
X320299D01*
Y389999*
X326499*
Y395999*
G37*
G36*
X666799Y397299D02*
X659599D01*
Y385999*
X666799*
Y397299*
G37*
G36*
X656999D02*
X649799D01*
Y385999*
X656999*
Y397299*
G37*
G36*
X666799Y383499D02*
X659599D01*
Y372199*
X666799*
Y383499*
G37*
G36*
X656999D02*
X649799D01*
Y372199*
X656999*
Y383499*
G37*
G36*
X818999Y363999D02*
Y350299D01*
X832699*
X832599Y351899*
X831699Y354799*
X830299Y357399*
X828399Y359699*
X826099Y361599*
X823499Y362999*
X820699Y363799*
X818999Y363999*
G37*
G36*
X816499D02*
X814799Y363799D01*
X811999Y362999*
X809399Y361599*
X807099Y359699*
X805199Y357399*
X803799Y354799*
X802899Y351899*
X802799Y350299*
X816499*
Y363999*
G37*
G36*
X832699Y347699D02*
X818999D01*
Y333999*
X820699Y334199*
X823499Y334999*
X826099Y336399*
X828399Y338299*
X830299Y340599*
X831699Y343199*
X832599Y346099*
X832699Y347699*
G37*
G36*
X816499D02*
X802799D01*
X802899Y346099*
X803799Y343199*
X805199Y340599*
X807099Y338299*
X809399Y336399*
X811999Y334999*
X814799Y334199*
X816499Y333999*
Y347699*
G37*
G36*
X817799Y313799D02*
X814699Y313499D01*
X811799Y312599*
X809099Y311199*
X806699Y309299*
X804799Y306899*
X803399Y304199*
X802499Y301299*
X802199Y298299*
X802499Y295199*
X803399Y292299*
X804799Y289599*
X806699Y287199*
X809099Y285299*
X811799Y283899*
X814699Y282999*
X817799Y282699*
X820799Y282999*
X823699Y283899*
X826399Y285299*
X828799Y287199*
X830699Y289599*
X832099Y292299*
X832999Y295199*
X833299Y298299*
X832999Y301299*
X832099Y304199*
X830699Y306899*
X828799Y309299*
X826399Y311199*
X823699Y312599*
X820799Y313499*
X817799Y313799*
G37*
G36*
X818999Y262399D02*
Y248699D01*
X832699*
X832599Y250399*
X831699Y253199*
X830299Y255799*
X828399Y258099*
X826099Y259999*
X823499Y261399*
X820699Y262299*
X818999Y262399*
G37*
G36*
X816499D02*
X814799Y262299D01*
X811999Y261399*
X809399Y259999*
X807099Y258099*
X805199Y255799*
X803799Y253199*
X802899Y250399*
X802799Y248699*
X816499*
Y262399*
G37*
G36*
X832699Y246199D02*
X818999D01*
Y232499*
X820699Y232599*
X823499Y233499*
X826099Y234899*
X828399Y236799*
X830299Y239099*
X831699Y241699*
X832599Y244499*
X832699Y246199*
G37*
G36*
X816499D02*
X802799D01*
X802899Y244499*
X803799Y241699*
X805199Y239099*
X807099Y236799*
X809399Y234899*
X811999Y233499*
X814799Y232599*
X816499Y232499*
Y246199*
G37*
G36*
X683999Y193999D02*
Y185299D01*
X692699*
X692499Y186599*
X691499Y189099*
X689899Y191199*
X687799Y192799*
X685399Y193799*
X683999Y193999*
G37*
G36*
X681499D02*
X680099Y193799D01*
X677699Y192799*
X675599Y191199*
X673999Y189099*
X672999Y186599*
X672799Y185299*
X681499*
Y193999*
G37*
G36*
X8255Y216099D02*
X822499Y215799D01*
X819499Y214899*
X816799Y213499*
X814499Y211499*
X812499Y209199*
X811099Y206499*
X810199Y203499*
X809899Y200499*
X810199Y197499*
X811099Y194499*
X812499Y191799*
X814499Y189499*
X816799Y187499*
X819499Y186099*
X822499Y185199*
X8255Y184899*
X828499Y185199*
X831499Y186099*
X834199Y187499*
X836499Y189499*
X838499Y191799*
X839899Y194499*
X840799Y197499*
X841099Y200499*
X840799Y203499*
X839899Y206499*
X838499Y209199*
X836499Y211499*
X834199Y213499*
X831499Y214899*
X828499Y215799*
X8255Y216099*
G37*
G36*
X692699Y182699D02*
X683999D01*
Y173999*
X685399Y174199*
X687799Y175199*
X689899Y176799*
X691499Y178899*
X692499Y181399*
X692699Y182699*
G37*
G36*
X681499D02*
X672799D01*
X672999Y181399*
X673999Y178899*
X675599Y176799*
X677699Y175199*
X680099Y174199*
X681499Y173999*
Y182699*
G37*
G36*
X797199Y1524D02*
X788299D01*
Y143499*
X797199*
Y1524*
G37*
G36*
X785699D02*
X776799D01*
Y143499*
X785699*
Y1524*
G37*
G36*
X797199Y140999D02*
X788299D01*
Y132099*
X797199*
Y140999*
G37*
G36*
X785699D02*
X776799D01*
Y132099*
X785699*
Y140999*
G37*
G36*
X761599Y152999D02*
X758799Y152599D01*
X756199Y151499*
X753999Y149799*
X752299Y147599*
X751299Y144999*
X750899Y142299*
X751299Y139499*
X752299Y136899*
X753999Y134699*
X756199Y132999*
X758799Y131899*
X761599Y131499*
X764399Y131899*
X766999Y132999*
X769199Y134699*
X770899Y136899*
X771899Y139499*
X772299Y142299*
X771899Y144999*
X770899Y147599*
X769199Y149799*
X766999Y151499*
X764399Y152599*
X761599Y152999*
G37*
G36*
X132999Y348699D02*
X126799D01*
Y342699*
X132999*
Y348699*
G37*
G36*
X196099Y344699D02*
X186499D01*
Y341599*
X191999*
X193699Y341999*
X195099Y3429*
X195999Y344299*
X196099Y344699*
G37*
G36*
X183999D02*
X174399D01*
X174499Y344299*
X175399Y3429*
X176799Y341999*
X178499Y341599*
X183999*
Y344699*
G37*
G36*
X072499Y333899D02*
X063799D01*
Y325099*
X072499*
Y333899*
G37*
G36*
X061199D02*
X052499D01*
Y325099*
X061199*
Y333899*
G37*
G36*
X072499Y322599D02*
X063799D01*
Y313799*
X072499*
Y322599*
G37*
G36*
X061199D02*
X052499D01*
Y313799*
X061199*
Y322599*
G37*
G36*
X341999Y359199D02*
Y350499D01*
X350699*
X350499Y351899*
X349499Y354299*
X347899Y356399*
X345799Y357999*
X343399Y358999*
X341999Y359199*
G37*
G36*
X339499D02*
X338099Y358999D01*
X335699Y357999*
X333599Y356399*
X331999Y354299*
X330999Y351899*
X330799Y350499*
X339499*
Y359199*
G37*
G36*
X320799Y356499D02*
Y350499D01*
X326999*
Y356499*
X320799*
G37*
G36*
X326999Y347999D02*
X320799D01*
Y341999*
X326999*
Y347999*
G37*
G36*
X350699D02*
X341999D01*
Y339299*
X343399Y339499*
X345799Y340499*
X347899Y342099*
X349499Y344199*
X350499Y346599*
X350699Y347999*
G37*
G36*
X339499D02*
X330799D01*
X330999Y346599*
X331999Y344199*
X333599Y342099*
X335699Y340499*
X338099Y339499*
X339499Y339299*
Y347999*
G37*
G36*
X056799Y253699D02*
Y244999D01*
X065499*
X065299Y246399*
X064299Y248799*
X062699Y250899*
X060599Y252499*
X058099Y253499*
X056799Y253699*
G37*
G36*
X054199D02*
X052899Y253499D01*
X050399Y252499*
X048299Y250899*
X046699Y248799*
X045699Y246399*
X045499Y244999*
X054199*
Y253699*
G37*
G36*
X065499Y242499D02*
X056799D01*
Y233799*
X058099Y233999*
X060599Y234999*
X062699Y236599*
X064299Y238699*
X065299Y241099*
X065499Y242499*
G37*
G36*
X054199D02*
X045499D01*
X045699Y241099*
X046699Y238699*
X048299Y236599*
X050399Y234999*
X052899Y233999*
X054199Y233799*
Y242499*
G37*
G36*
X256499Y237999D02*
Y229299D01*
X265199*
X264999Y230599*
X263999Y233099*
X262399Y235199*
X260299Y236799*
X257899Y237799*
X256499Y237999*
G37*
G36*
X254D02*
X252599Y237799D01*
X250199Y236799*
X248099Y235199*
X246499Y233099*
X245499Y230599*
X245299Y229299*
X254*
Y237999*
G37*
G36*
X189299Y237699D02*
Y228999D01*
X197999*
X197799Y230399*
X196799Y232799*
X195199Y234899*
X193099Y236499*
X190599Y237499*
X189299Y237699*
G37*
G36*
X186699D02*
X185399Y237499D01*
X182899Y236499*
X180799Y234899*
X179199Y232799*
X178199Y230399*
X177999Y228999*
X186699*
Y237699*
G37*
G36*
X265199Y226699D02*
X256499D01*
Y217999*
X257899Y218199*
X260299Y219199*
X262399Y220799*
X263999Y222899*
X264999Y225399*
X265199Y226699*
G37*
G36*
X254D02*
X245299D01*
X245499Y225399*
X246499Y222899*
X248099Y220799*
X250199Y219199*
X252599Y218199*
X254Y217999*
Y226699*
G37*
G36*
X197999Y226499D02*
X189299D01*
Y217799*
X190599Y217999*
X193099Y218999*
X195199Y220599*
X196799Y222699*
X197799Y225099*
X197999Y226499*
G37*
G36*
X186699D02*
X177999D01*
X178199Y225099*
X179199Y222699*
X180799Y220599*
X182899Y218999*
X185399Y217999*
X186699Y217799*
Y226499*
G37*
G36*
X056799Y222999D02*
Y201799D01*
X077999*
X077699Y204899*
X076399Y209199*
X074299Y213099*
X071499Y216499*
X068099Y219299*
X064199Y221399*
X059899Y222699*
X056799Y222999*
G37*
G36*
X077999Y199199D02*
X056799D01*
Y177999*
X059899Y178299*
X064199Y179599*
X068099Y181699*
X071499Y184499*
X074299Y187899*
X076399Y191799*
X077699Y196099*
X077999Y199199*
G37*
G36*
X380499Y204299D02*
X117499D01*
Y170499*
X380499*
Y204299*
G37*
G36*
X036399Y050699D02*
X025699D01*
Y039999*
X036399*
Y050699*
G37*
G36*
Y037499D02*
X025699D01*
Y026799*
X036399*
Y037499*
G37*
G36*
X491299Y127499D02*
Y118799D01*
X499999*
X499799Y120099*
X498799Y122599*
X497199Y124699*
X495099Y126299*
X492599Y127299*
X491299Y127499*
G37*
G36*
X488699D02*
X487399Y127299D01*
X484899Y126299*
X482799Y124699*
X481199Y122599*
X480199Y120099*
X479999Y118799*
X488699*
Y127499*
G37*
G36*
X499999Y116199D02*
X491299D01*
Y107499*
X492599Y107699*
X495099Y108699*
X497199Y110299*
X498799Y112399*
X499799Y114899*
X499999Y116199*
G37*
G36*
X488699D02*
X479999D01*
X480199Y114899*
X481199Y112399*
X482799Y110299*
X484899Y108699*
X487399Y107699*
X488699Y107499*
Y116199*
G37*
%LNiot_6_lowpan_gateway_v01-3*%
%LPD*%
G36*
X162999Y193499D02*
X163199D01*
X163299*
X163699Y193399*
X163999Y193299*
X164399Y193099*
X164799Y192899*
X164999Y192799*
X165199Y192699*
Y192599*
X165299*
X165399Y192499*
Y192399*
X165499Y192299*
X165699Y192099*
X165899Y191699*
X166099Y191299*
X166299Y190899*
X166399Y190299*
X164099Y189999*
Y190099*
X163999Y190299*
Y190399*
X163899Y190599*
X163799Y190799*
X163699Y190999*
X163599Y191099*
X163499Y191199*
X163399Y191299*
X163199Y191399*
X163099*
X162899*
X162699Y191499*
X162599*
X162499Y191399*
X162399*
X162199*
X161999Y191299*
X161799Y191199*
X161499Y190999*
X161299Y190799*
Y190699*
X161199Y190599*
Y1905*
Y190399*
X161099Y190299*
Y190099*
X160999Y189899*
X160899Y189699*
Y189499*
X160799Y189199*
Y188899*
X160699Y188599*
Y188199*
Y187899*
X160799Y187999*
X160899Y188099*
X160999Y188199*
X161299Y188399*
X161599Y188599*
X161999Y188799*
X162199Y188899*
X162399*
X162699*
X162899*
X163099*
X163199*
X163299*
X163499*
X163699*
X163899Y188799*
X164299Y188699*
X164499Y188599*
X164699Y188399*
X164899Y188299*
X165199Y188199*
X165399Y187999*
X165599Y187799*
Y187699*
X165699*
Y187599*
X165799Y187399*
X165899Y187299*
X165999Y187099*
X166099Y186899*
X166199Y186699*
X166299Y186499*
X166399Y186299*
X166499Y185999*
X166599Y185699*
Y185399*
X166699Y185099*
Y184699*
Y184599*
Y184499*
Y184399*
Y184199*
X166599Y183999*
Y183799*
X166499Y183599*
X166399Y183099*
X166299Y182799*
X166199Y182599*
X166099Y182299*
X165899Y181999*
X165699Y181799*
X165499Y181599*
Y181499*
X165399Y181399*
X165299*
X165199Y181299*
X1651Y181199*
X164899Y181099*
X164699Y180999*
X164499Y180899*
X164299Y180699*
X164099*
X163799Y180599*
X163499Y180499*
X163199Y180399*
X162899*
X162599*
X162499*
X162399*
X162199*
X162099*
X161899*
X161699Y180499*
X161399Y180599*
X161199*
X160899Y180699*
X160699Y180899*
X160399Y180999*
X160099Y181199*
X159899Y181399*
X159599Y181599*
X159399Y181899*
X159299*
X159199Y181999*
Y182199*
X159099Y182299*
X158999Y182499*
X158899Y182799*
X158699Y183099*
X158599Y183399*
X158499Y183699*
X158399Y184199*
X158299Y184599*
X158199Y185099*
Y185599*
X158099Y186199*
Y186799*
Y186899*
Y186999*
Y187199*
Y187399*
X158199Y187699*
Y187999*
Y188399*
X158299Y188799*
Y189199*
X158399Y189599*
X158499Y190099*
X158699Y1905*
X158799Y190899*
X158999Y191299*
X159199Y191599*
X159399Y191899*
X159499Y191999*
Y192099*
X159699Y192199*
X159799Y192299*
X159899Y192399*
X160099Y192599*
X160299Y192699*
X160599Y192899*
X160799Y192999*
X161099Y193099*
X161399Y193299*
X161699Y193399*
X162099*
X162399Y193499*
X162799*
X162899*
X162999*
G37*
G36*
X235899Y190099D02*
X236099D01*
X236299Y189999*
X236599*
X236799Y189899*
X237099Y189799*
X237199*
X237299Y189699*
X237499Y189599*
X237699Y189499*
X237799Y189399*
X237999Y189199*
X238099Y189099*
X238199Y188999*
X238299Y188899*
Y188799*
X238399Y188599*
X238499Y188399*
X238599Y188199*
Y187999*
Y187899*
X238699Y187799*
Y187599*
Y187399*
X238799Y187099*
Y186799*
Y186399*
Y180599*
X236299*
Y185299*
Y185399*
Y185499*
Y185599*
Y185699*
Y185799*
Y186199*
Y186499*
X236199Y186799*
Y187099*
Y187199*
X236099Y187299*
Y187399*
X235999Y187499*
X235799Y187799*
Y187899*
X235599Y187999*
X235499*
X235399Y188099*
X235299Y188199*
X235099*
X234999*
X234799*
X234699*
X234599*
X234399*
X234199Y188099*
X233999*
X233799Y187999*
X233599Y187899*
Y187799*
X233499Y187699*
X233299Y187599*
X233199Y187499*
X233099Y187299*
X232999Y187099*
X232899Y186899*
Y186799*
Y186699*
X232799Y186399*
Y186299*
Y186199*
Y185999*
Y185799*
Y185599*
Y185299*
Y185099*
Y184799*
Y180599*
X230299*
Y189899*
X232599*
Y188499*
Y188599*
X232699Y188699*
X232799Y188799*
X232899Y188899*
X233099Y188999*
X233199Y189199*
X233399Y189299*
X233599Y189499*
X233799Y189599*
X234099Y189699*
X234399Y189899*
X234699Y189999*
X234999*
X235299Y190099*
X235599*
X235799*
X235899*
G37*
G36*
X297699Y180599D02*
X295299D01*
X293699Y186599*
X292199Y180599*
X289799*
X286799Y189899*
X289199*
X290999Y183799*
X292599Y189899*
X294899*
X296499Y183799*
X298299Y189899*
X300699*
X297699Y180599*
G37*
G36*
X204099D02*
X201799D01*
X200199Y186599*
X198599Y180599*
X196199*
X193299Y189899*
X195599*
X197399Y183799*
X198999Y189899*
X201399*
X202899Y183799*
X204699Y189899*
X207099*
X204099Y180599*
G37*
G36*
X336599D02*
X334399D01*
X330699Y189899*
X333199*
X334999Y185199*
X335499Y183599*
Y183699*
X335599Y183799*
Y183899*
X335699Y184199*
Y184299*
Y184399*
X335799*
Y184499*
Y184599*
X335899Y184899*
X335999Y185199*
X337799Y189899*
X340299*
X336599Y180599*
G37*
G36*
X316999Y180899D02*
X316499Y179399D01*
X316399Y179299*
Y179199*
X316299Y179099*
X316199Y178899*
Y178699*
X315999Y178499*
X315899Y178299*
X315799Y178099*
Y177999*
X315699*
X315599Y177899*
X315399Y177599*
X315199Y177399*
X315099*
X314999Y177299*
X314899*
X314799Y177199*
X314599Y177099*
X314399*
X314199Y176999*
X314099*
X313999Y176899*
X313899*
X313699*
X313499*
X313199Y176799*
X312899*
X312699Y176899*
X312499*
X312299*
X312099*
X311599Y176999*
X311399Y178899*
X311499*
X311599*
X311699*
X311899Y178799*
X312099*
X312399*
X312599*
X312699*
X312899Y178899*
X313099*
X313299Y178999*
X313499Y179199*
X313699Y179299*
Y179399*
X313799Y179499*
X313899Y179699*
X313999Y179899*
X314099Y180099*
X314199Y180299*
X314299Y180599*
X310799Y189899*
X313399*
X315599Y183299*
X317799Y189899*
X320299*
X316999Y180899*
G37*
G36*
X354199Y180599D02*
X351799D01*
Y183099*
X354199*
Y180599*
G37*
G36*
X347599D02*
X345099D01*
Y189899*
Y189799*
X344999*
X344899Y189699*
X344699Y189599*
X344599Y189499*
X344399Y189299*
X344199Y189199*
X343999Y188999*
X343699Y188899*
X343499Y188699*
X343199Y188599*
X342599Y188299*
X341899Y187999*
Y190299*
X341999*
X342099*
X342299Y190399*
X342599Y1905*
X3429Y190699*
X343199Y190899*
X343599Y191099*
X343999Y191399*
X344099Y191499*
X344199Y191599*
X344399Y191799*
X344599Y191999*
X344899Y192299*
X345199Y192699*
X345399Y193099*
X345599Y193499*
X347599*
Y180599*
G37*
G36*
X305999Y190099D02*
X306199D01*
X306499*
X306899Y189999*
X307299Y189899*
X307699Y189799*
X307899*
X307999Y189699*
X308099*
X308199Y189599*
X308299*
X308499Y189399*
X308699Y189299*
X308899Y189099*
X308999Y188899*
X309199Y188699*
Y188599*
X309299Y188399*
X309399Y188199*
Y188099*
Y187899*
X309499Y187699*
Y187499*
Y187299*
Y187099*
Y186799*
Y186499*
Y183699*
Y183599*
Y183499*
Y183399*
Y183199*
Y182999*
Y182699*
Y182399*
X309599Y182099*
Y181799*
Y181699*
X309699Y181599*
Y181499*
X309799Y181299*
Y181099*
X309899Y180899*
X309999Y180599*
X307599*
Y180699*
X307499Y180799*
Y180899*
Y180999*
X307399Y181199*
Y181299*
Y181399*
X307299*
Y181499*
Y181599*
X307199*
Y181499*
X306999Y181399*
X306899Y181299*
X306699Y181099*
X306499Y180999*
X306199Y180799*
X305899Y180699*
X305799*
X305699Y180599*
X305499*
X305199Y180499*
X304999*
X304699Y180399*
X304399*
X304299*
X304199*
X303999*
X303899*
X303599Y180499*
X303199Y180599*
X302799Y180699*
X302499Y180899*
X302099Y181199*
X301999Y181299*
X301899Y181499*
X301699Y181699*
X301599Y181999*
X301499Y182299*
X301399Y182699*
X301299Y182899*
Y183099*
Y183199*
Y183299*
Y183399*
X301399Y183599*
Y183799*
X301499Y183999*
X301599Y184299*
X301699Y184499*
Y184599*
X301799*
Y184699*
X301999Y184899*
X302099Y184999*
X302299Y185199*
X302499Y185299*
X302699Y185499*
X302799*
X302899*
X302999Y185599*
X303199Y185699*
X303499Y185799*
X303799Y185899*
X304199*
X304699Y185999*
X3048Y186099*
X304899*
X304999*
X305099*
X305299Y186199*
X305699*
X305999Y186299*
X306499Y186399*
X306799Y186499*
X306999Y186599*
X307099Y186699*
Y186899*
Y186999*
Y187099*
Y187299*
X306999Y187499*
Y187599*
X306899Y187799*
X306699Y187899*
Y187999*
X306599*
X306399Y188099*
X306199*
X305999Y188199*
X305699*
X305399*
X305299*
X305199*
X304999*
X304899*
X304699Y188099*
X304499Y187999*
X304399Y187899*
X304299*
X304199Y187799*
Y187699*
X304099Y187599*
X303999Y187399*
X303899Y187299*
X303799Y186999*
X301599Y187399*
Y187499*
Y187599*
X301699Y187699*
Y187799*
Y187899*
X301899Y188199*
X302099Y188499*
X302299Y188899*
X302499Y189199*
X302899Y189399*
Y189499*
X302999*
Y189599*
X303099*
X303199Y189699*
X303399*
X303499Y189799*
X303699*
X303899Y189899*
X304199Y189999*
X304399*
X304699Y190099*
X304999*
X305299*
X305899*
X305999*
G37*
G36*
X266199D02*
X266299D01*
X2667*
X267099Y189999*
X267499Y189899*
X267899Y189799*
X268099*
X268199Y189699*
X268299*
X268399Y189599*
X268499*
X268699Y189399*
X268899Y189299*
X269099Y189099*
X269199Y188899*
X269399Y188699*
Y188599*
X269499Y188399*
Y188199*
X269599Y188099*
Y187899*
Y187699*
X269699Y187499*
Y187299*
Y187099*
Y186799*
Y186499*
Y183699*
Y183599*
Y183499*
Y183399*
Y183199*
Y182999*
Y182699*
Y182399*
X269799Y182099*
Y181799*
Y181699*
Y181599*
X269899Y181499*
X269999Y181299*
Y181099*
X270099Y180899*
X270199Y180599*
X267799*
Y180699*
X267699Y180799*
Y180899*
Y180999*
X267599Y181199*
Y181299*
Y181399*
X267499*
Y181499*
Y181599*
X267399*
Y181499*
X267199Y181399*
X267099Y181299*
X266899Y181099*
X266599Y180999*
X266399Y180799*
X266099Y180699*
X265999*
X265799Y180599*
X265699*
X265399Y180499*
X265199*
X264899Y180399*
X264599*
X264499*
X264299*
X264199*
X264099*
X263799Y180499*
X263399Y180599*
X262999Y180699*
X262699Y180899*
X262299Y181199*
X262199Y181299*
X262099Y181499*
X261899Y181699*
X261799Y181999*
X261599Y182299*
Y182699*
X261499Y182899*
Y183099*
Y183199*
Y183299*
Y183399*
X261599Y183599*
Y183799*
X261699Y183999*
X261799Y184299*
X261899Y184499*
Y184599*
X261999*
Y184699*
X262199Y184899*
X262299Y184999*
X262499Y185199*
X262699Y185299*
X262899Y185499*
X262999*
X263099*
X263199Y185599*
X263399Y185699*
X263699Y185799*
X263999Y185899*
X264399*
X264899Y185999*
X264999Y186099*
X265199*
X265299*
X265499Y186199*
X265799*
X266199Y186299*
X266599Y186399*
X266999Y186499*
X267199Y186599*
X267299Y186699*
Y186899*
Y186999*
Y187099*
Y187299*
X267199Y187499*
X267099Y187599*
X266999Y187799*
X266899Y187899*
X266799Y187999*
X266599Y188099*
X266399*
X266199Y188199*
X265899*
X265599*
X265499*
X265399*
X265199*
X265099*
X264899Y188099*
X264699Y187999*
X264599Y187899*
X264499*
X264399Y187799*
Y187699*
X264299Y187599*
X264199Y187399*
X264099Y187299*
X263999Y186999*
X261799Y187399*
Y187499*
Y187599*
Y187699*
X261899Y187799*
Y187899*
X262099Y188199*
X262299Y188499*
X262499Y188899*
X262699Y189199*
X263099Y189399*
Y189499*
X263199Y189599*
X263299*
X263399Y189699*
X263599*
X263699Y189799*
X263899*
X264099Y189899*
X264299Y189999*
X264599*
X264899Y190099*
X265199*
X265499*
X266099*
X266199*
G37*
G36*
X224399D02*
X224499D01*
X224899*
X225299Y189999*
X225699Y189899*
X226099Y189799*
X226299*
X226399Y189699*
X226499*
X226599Y189599*
X226699*
X226899Y189399*
X227099Y189299*
X227299Y189099*
X227399Y188899*
X227599Y188699*
Y188599*
X227699Y188399*
Y188199*
X227799Y188099*
Y187899*
Y187699*
X227899Y187499*
Y187299*
Y187099*
Y186799*
Y186499*
Y183699*
Y183599*
Y183499*
Y183399*
Y183199*
Y182999*
Y182699*
Y182399*
Y182099*
X227999Y181799*
Y181699*
Y181599*
X228099Y181499*
Y181299*
X228199Y181099*
X228299Y180899*
X228399Y180599*
X225999*
Y180699*
X225899Y180799*
Y180899*
Y180999*
X225799Y181199*
Y181299*
Y181399*
X225699*
Y181499*
Y181599*
X225599*
Y181499*
X225399Y181399*
X225299Y181299*
X225099Y181099*
X224799Y180999*
X224599Y180799*
X224299Y180699*
X224199*
X223999Y180599*
X223899*
X223599Y180499*
X223399*
X223099Y180399*
X222799*
X222599*
X222499*
X222399*
X222299*
X221999Y180499*
X221599Y180599*
X221199Y180699*
X220899Y180899*
X220499Y181199*
X220399Y181299*
X220299Y181499*
X220099Y181699*
X219999Y181999*
X219799Y182299*
X219699Y182699*
Y182899*
Y183099*
Y183199*
Y183299*
Y183399*
X219799Y183599*
Y183799*
X219899Y183999*
Y184299*
X220099Y184499*
Y184599*
X220199Y184699*
X220399Y184899*
X220499Y184999*
X220699Y185199*
X220899Y185299*
X221099Y185499*
X221199*
X221399Y185599*
X221599Y185699*
X221899Y185799*
X222199Y185899*
X222599*
X223099Y185999*
Y186099*
X223199*
X223399*
X223499*
X223699Y186199*
X223999*
X224399Y186299*
X224799Y186399*
X225199Y186499*
X225399Y186599*
X225499Y186699*
Y186899*
Y186999*
Y187099*
X225399Y187299*
Y187499*
X225299Y187599*
X225199Y187799*
X225099Y187899*
X224999Y187999*
X224899*
X224799Y188099*
X224599*
X224399Y188199*
X224099*
X223799*
X223699*
X223599*
X223399*
X223299*
X223099Y188099*
X222899Y187999*
X222799Y187899*
X222699*
X222599Y187799*
Y187699*
X222399Y187599*
Y187399*
X222299Y187299*
X222199Y186999*
X219999Y187399*
Y187499*
Y187599*
Y187699*
X220099Y187799*
Y187899*
X220299Y188199*
X220399Y188499*
X220699Y188899*
X220899Y189199*
X221199Y189399*
X221299*
Y189499*
X221399Y189599*
X221499*
X221599Y189699*
X221799*
X221899Y189799*
X222099*
X222299Y189899*
X222499Y189999*
X222799*
X223099Y190099*
X223399*
X223599*
X224299*
X224399*
G37*
G36*
X213399Y193399D02*
X213899D01*
X214399*
X214899Y193299*
X215099*
X215299*
X215499*
X215699Y193199*
X215799*
X2159*
X216099Y193099*
X216299Y192999*
X216599Y192799*
X216899Y192599*
X217199Y192299*
X217499Y191999*
Y191899*
X217599*
Y191799*
X217699Y191699*
Y191599*
X217799Y191399*
X217899Y191299*
X217999Y190899*
X218099Y1905*
X218199Y189999*
X218299Y189499*
Y189399*
Y189299*
X218199Y189199*
Y189099*
Y188799*
X218099Y188499*
Y188099*
X217999Y187799*
X217799Y187499*
Y187399*
X217699*
X217599Y187199*
X217499Y186999*
X217399Y186799*
X217199Y186599*
X216999Y186399*
X216699Y186199*
X216599*
X216499Y186099*
X216299Y185999*
X216099Y185899*
X2159Y185799*
X215599Y185699*
X215399Y185599*
X215299*
X215199*
X215099*
X214999*
X214899Y185499*
X214699*
X214499*
X214299*
X214099*
X213899*
X213599*
X213299Y185399*
X210999*
Y180599*
X208399*
Y193399*
X213199*
X213399*
G37*
G36*
X180999Y180599D02*
X178599D01*
Y193399*
X180999*
Y180599*
G37*
G36*
X146999Y191299D02*
X143199D01*
Y180599*
X140699*
Y191299*
X136899*
Y193399*
X146999*
Y191299*
G37*
G36*
X124299Y180599D02*
X121799D01*
Y193399*
X124299*
Y180599*
G37*
G36*
X281999Y190099D02*
X282099D01*
X282299Y189999*
X282599*
X282799Y189899*
X283099*
X283299Y189799*
X283599Y189699*
X283899Y189499*
X284099Y189399*
X284399Y189199*
X284699Y188999*
X284899Y188699*
X284999Y188599*
X285099Y188499*
X285199Y188299*
X285299Y188199*
X285399Y187899*
X285499Y187699*
X285599Y187399*
X285699Y187099*
X285799Y186799*
X285899Y186399*
X285999Y185999*
Y185499*
Y185099*
Y184499*
X279899*
Y184399*
Y184199*
X279999Y183899*
Y183699*
X280199Y183399*
X280299Y183099*
X280499Y182799*
X280599Y182699*
X280699*
X280899Y182499*
X281099Y182399*
X281299Y182299*
X281599*
X281899Y182199*
X281999*
X282099Y182299*
X282199*
X282399*
X282499Y182399*
X282699*
X282899Y182599*
X282999Y182699*
X283099Y182799*
X283199Y182899*
X283299Y183099*
X283399Y183299*
X283499Y183599*
X285899Y183199*
Y183099*
Y182999*
X285799Y182899*
Y182799*
X285699Y182699*
X285499Y182399*
X285299Y182099*
X285099Y181699*
X284799Y181399*
X284399Y181099*
X284299*
X284199Y180999*
X284099Y180899*
X283999*
X283899Y180799*
X283699*
X283299Y180599*
X282899Y180499*
X282399Y180399*
X281899*
X281799*
X281699*
X281499*
X281299Y180499*
X280999*
X280799*
X280499Y180599*
X280199Y180699*
X279899Y180799*
X279599Y180899*
X279299Y181099*
X278999Y181299*
X278799Y181499*
X278499Y181699*
X278299Y181999*
X278199Y182099*
X278099Y182199*
Y182299*
X277999Y182499*
X277899Y182699*
X277799Y182899*
Y183099*
X277699Y183299*
X277599Y183599*
X277499Y183899*
Y184199*
X277399Y184499*
Y184799*
Y185199*
Y185299*
Y185399*
Y185599*
Y185799*
Y185999*
X277499Y186199*
Y186499*
X277699Y187099*
X277799Y187399*
X277899Y187699*
X277999Y187999*
X278199Y188299*
X278399Y188499*
X278599Y188799*
Y188899*
X278699*
X278799Y188999*
X278899Y189099*
X279099Y189199*
X279199Y189299*
X2794Y189499*
X279599Y189599*
X279899Y189699*
X280099Y189799*
X280399Y189899*
X280699Y189999*
X280999Y190099*
X281299*
X281599*
X281799*
X281999*
G37*
G36*
X274699Y189899D02*
X276399D01*
Y187899*
X274699*
Y184199*
Y184099*
Y183999*
Y183799*
Y183599*
Y183399*
Y183199*
Y182999*
X274799Y182899*
Y182799*
X274899Y182699*
X274999Y182599*
Y182499*
X275099*
X275199*
X275399Y182399*
X275499*
Y182499*
X275599*
X275799*
X275999*
X276199Y182599*
X276399Y182699*
X276599Y180799*
Y180699*
X276499*
X276299*
X275999Y180599*
X275799Y180499*
X275399*
X274999Y180399*
X274699*
X274499*
X274399*
X274299*
X274099Y180499*
X273899*
X273699Y180599*
X273499*
X273399Y180699*
X273299*
X273199Y180799*
X272899Y180999*
X272799Y181099*
X272699Y181199*
X272599*
Y181299*
Y181399*
X272499Y181499*
Y181599*
X272399Y181799*
Y181899*
X272299Y182199*
Y182399*
Y182499*
Y182799*
Y183099*
Y183199*
Y183399*
Y183699*
Y183899*
Y187899*
X271099*
Y189899*
X272299*
Y191799*
X274699Y193199*
Y189899*
G37*
G36*
X188099Y190099D02*
X188299D01*
X188499Y189999*
X188699*
X188999Y189899*
X189299*
X189499Y189799*
X189799Y189699*
X190099Y189499*
X190399Y189399*
X190699Y189199*
X190999Y188999*
X191199Y188699*
X191299*
X191399Y188599*
Y188499*
X191499Y188399*
X191699Y188199*
X191799Y187999*
X191899Y187799*
X191999Y187599*
X192199Y187299*
X192299Y186999*
X192399Y186699*
Y186399*
X192499Y185999*
X192599Y185699*
Y185299*
Y185199*
Y185099*
Y184899*
X192499Y184699*
Y184499*
Y184299*
X192399Y184099*
X192299Y183799*
X192199Y183499*
X192099Y183199*
X191999Y182899*
X191799Y182599*
X191699Y182299*
X191399Y182099*
X191199Y181799*
Y181699*
X191099*
X190999Y181599*
X190799Y181499*
X190699Y181399*
X1905Y181199*
X190299Y181099*
X189999Y180999*
X189799Y180799*
X189499Y180699*
X189199Y180599*
X188899Y180499*
X188499*
X188199Y180399*
X187799*
X187699*
X187599*
X187399*
X187299*
X186999Y180499*
X186599Y180599*
X186199Y180699*
X185799Y180799*
X185299Y180999*
X185199*
Y181099*
X184899Y181199*
X184699Y181399*
X184399Y181699*
X184099Y181899*
X183799Y182299*
X183599Y182699*
X183499Y182799*
Y182899*
X183399Y182999*
Y183099*
X183299Y183299*
Y183399*
X183199Y183599*
Y183799*
X183099Y184299*
X182999Y184799*
Y185399*
Y185499*
Y185599*
Y185699*
Y185799*
X183099Y186199*
Y186499*
X183199Y186899*
X183399Y187299*
X183599Y187699*
Y187799*
Y187899*
X183699*
X183799Y188099*
X183999Y188399*
X184299Y188699*
X184599Y188999*
X184899Y189199*
X185299Y189499*
X185399Y189599*
X185499*
X185599Y189699*
X185699*
X185899*
X185999Y189799*
X186399Y189899*
X186799Y189999*
X187299Y190099*
X187799*
X187999*
X188099*
G37*
G36*
X131399D02*
X131499D01*
X131699Y189999*
X131999*
X132199Y189899*
X132499*
X132799Y189799*
X133099Y189699*
X133399Y189499*
X133699Y189399*
X133899Y189199*
X134199Y188999*
X134499Y188699*
X134599Y188599*
X134699Y188499*
X134799Y188399*
X134899Y188199*
X134999Y187999*
X135199Y187799*
X135299Y187599*
X135399Y187299*
X135499Y186999*
X135599Y186699*
X135699Y186399*
X135799Y185999*
Y185699*
Y185299*
Y185199*
Y185099*
Y184899*
Y184699*
X135699Y184499*
Y184299*
Y184099*
X135599Y183799*
X135499Y183499*
X135399Y183199*
X135199Y182899*
X135099Y182599*
X134899Y182299*
X134699Y182099*
X134499Y181799*
X134399*
Y181699*
X134299*
X134199Y181599*
X134099Y181499*
X133899Y181399*
X133699Y181199*
X133499Y181099*
X133299Y180999*
X132999Y180799*
X132699Y180699*
X132399Y180599*
X132099Y180499*
X131799*
X131399Y180399*
X130999*
X130899*
X130799*
X130699*
X130599*
X130199Y180499*
X129899Y180599*
X129499Y180699*
X128999Y180799*
X128599Y180999*
X128499*
X128399Y181099*
X128199Y181199*
X127899Y181399*
X127699Y181699*
X127399Y181899*
X127099Y182299*
X126799Y182699*
Y182799*
X126699Y182899*
Y182999*
X126599Y183099*
Y183299*
X126499Y183399*
Y183599*
X126399Y183799*
X126299Y184299*
X126199Y184799*
Y185399*
Y185499*
Y185599*
Y185699*
X126299Y185799*
Y186199*
X126399Y186499*
X126499Y186899*
X126599Y187299*
X126799Y187699*
Y187799*
X126899*
Y187899*
X127099Y188099*
X127299Y188399*
X127499Y188699*
X127799Y188999*
X128099Y189199*
X128499Y189499*
X128599*
Y189599*
X128699*
X128799Y189699*
X128999*
X129099*
X129199Y189799*
X129599Y189899*
X129999Y189999*
X130499Y190099*
X130999*
X131199*
X131399*
G37*
G36*
X360699Y193499D02*
X360899D01*
X360999Y193399*
X361199*
X361399Y193299*
X361699*
X361899Y193199*
X362199Y193099*
X362399Y192899*
X362599Y192799*
X362899Y192599*
X363099Y192399*
X363299Y192199*
Y192099*
X363399*
Y191999*
X363499Y191899*
X363599Y191699*
X363699Y191499*
X363799Y191199*
X363899Y190899*
X363999Y190599*
X364199Y190199*
X364299Y189799*
X364399Y189299*
Y188799*
X364499Y188199*
Y187599*
X364599Y186899*
Y186799*
Y186599*
X364499Y186299*
Y185999*
Y185699*
X364399Y185299*
Y184899*
X364299Y184499*
X364199Y183999*
Y183599*
X363999Y183199*
X363899Y182799*
X363699Y182399*
X363499Y181999*
X363299Y181699*
X363199Y181599*
X363099Y181499*
X362999Y181399*
X362899Y181299*
X362699Y181199*
X362499Y180999*
X362299Y180899*
X362099Y180799*
X361899Y180699*
X361599Y180599*
X361399Y180499*
X360999Y180399*
X360699*
X360399*
X360299*
X360199*
X360099*
X359899*
X359699*
X359499Y180499*
X359299Y180599*
X359099*
X358799Y180699*
X358599Y180799*
X358299Y180999*
X358099Y181099*
X357799Y181299*
X357599Y181499*
X357399Y181799*
X357299Y181899*
Y181999*
X357199Y182099*
X357099Y182199*
X356999Y182399*
X356899Y182699*
X356799Y182999*
X356699Y183299*
X356599Y183699*
X356499Y184099*
X356399Y184599*
Y185099*
X356299Y185699*
Y186299*
X356199Y186899*
Y186999*
Y187099*
Y187299*
X356299Y187499*
Y187799*
Y188199*
X356399Y188599*
Y188999*
X356499Y189399*
Y189799*
X356699Y190299*
X356799Y190699*
X356899Y191099*
X357099Y191499*
X357299Y191899*
X357499Y192199*
X357599Y192299*
X357699Y192399*
X357799Y192499*
X357899Y192599*
X358099Y192699*
X358199Y192799*
X358399Y192999*
X358699Y193099*
X358899Y193199*
X359199Y193299*
X359399Y193399*
X359699*
X360099Y193499*
X360399*
X360599*
X360699*
G37*
G36*
X254799Y190099D02*
X254899D01*
X254999*
X255199Y189999*
X255399*
X255599Y189899*
X255799Y189799*
X255999Y189699*
X256299Y189599*
X256499Y189499*
X256799Y189299*
X256999Y189099*
X257199Y188899*
X257399Y188599*
Y189899*
X259699*
Y181599*
Y181499*
Y181399*
Y181299*
Y181199*
Y180999*
Y180699*
Y180199*
X259599Y179799*
Y179399*
X259499Y179299*
Y179099*
X259399*
Y178999*
X259299Y178799*
Y178699*
X259099Y178399*
X258999Y178199*
X258899Y177999*
X258699Y1778*
X258599*
X258499Y177699*
X258299Y177599*
X258199Y177499*
X257899Y177299*
X257699Y177199*
X257399Y177099*
X257299*
X257199*
X257099Y176999*
X256799*
X256499Y176899*
X256199*
X255799*
X255299Y176799*
X255099*
X254899Y176899*
X254699*
X254499*
X254299*
X254*
X253499Y176999*
X252899Y177199*
X252599Y177299*
X252399Y177399*
X252199Y177499*
X251999Y177699*
X251899*
X251799Y1778*
X251599Y177999*
X251499Y178199*
X251299Y178499*
X251099Y178899*
X250999Y179299*
Y179499*
Y179699*
Y179799*
Y179899*
Y179999*
X253799Y179699*
Y179599*
Y179499*
X253899Y179399*
X254Y179199*
Y179099*
X254099Y178999*
X254199*
X254299Y178899*
X254399*
X254599Y178799*
X254699*
X254999Y178699*
X255199*
X255399*
X255599*
X255799Y178799*
X255999*
X256199Y178899*
X256499*
X256699Y178999*
Y179099*
X256799*
Y179199*
X256899Y179299*
X256999Y179399*
X257099Y179499*
Y179699*
X257199*
Y179799*
Y179899*
Y180099*
X257299Y180199*
Y180499*
Y180799*
Y182099*
X257199*
Y181999*
X257099Y181899*
X256999Y181799*
X256799Y181599*
X256699Y181499*
X256499Y181399*
X256299Y181199*
X256099Y181099*
X255599Y180899*
X255399Y180799*
X255099Y180699*
X254799Y180599*
X254499*
X254399*
X254299*
X254199*
X254Y180699*
X253799*
X253599*
X253399Y180799*
X253199Y180899*
X252999Y180999*
X252699Y181099*
X252499Y181299*
X252199Y181499*
X251999Y181699*
X251799Y181899*
X251499Y182199*
Y182299*
X251399Y182399*
X251299Y182499*
Y182699*
X251199Y182899*
X251099Y183099*
X250999Y183299*
Y183499*
X250899Y183799*
X250799Y183999*
X250699Y184599*
Y184999*
Y185299*
Y185399*
Y185499*
Y185699*
Y185899*
Y186099*
X250799Y186399*
Y186599*
X250999Y187199*
X251099Y187499*
Y187799*
X251299Y188099*
X251399Y188399*
X251599Y188599*
X251799Y188899*
X251899Y188999*
X251999Y189099*
X252099Y189199*
X252199Y189299*
X252399Y189399*
X252599Y189499*
X252799Y189599*
X252999Y189699*
X253399Y189899*
X253699Y189999*
X254Y190099*
X254299*
X254599*
X254699*
X254799*
G37*
G36*
X330699Y177099D02*
X320499D01*
Y178699*
X330699*
Y177099*
G37*
G36*
X249999D02*
X239799D01*
Y178699*
X249999*
Y177099*
G37*
G36*
X177399D02*
X167199D01*
Y178699*
X177399*
Y177099*
G37*
G36*
X157399D02*
X147199D01*
Y178699*
X157399*
Y177099*
G37*
%LNiot_6_lowpan_gateway_v01-4*%
%LPC*%
G36*
X162599Y187099D02*
X162399D01*
X162299*
X162099*
X161899Y186999*
X161699Y186899*
X161499Y186699*
X161399Y186599*
X161299Y186499*
Y186399*
X161199Y186299*
X161099Y186199*
X160999Y185899*
X160899Y185599*
Y185299*
Y184899*
Y184799*
Y184699*
Y184499*
Y184199*
X160999Y183899*
X161099Y183599*
X161199Y183299*
X161399Y183099*
Y182999*
X161499*
X161599Y182899*
X161799Y182699*
X161999Y182599*
X162199Y182499*
X162399Y182399*
X162699*
X162799*
X162899*
X163099Y182499*
X163199*
X163399Y182599*
X163599Y182799*
X163799Y182899*
X163899Y182999*
X163999Y183199*
X164099Y183399*
Y183599*
X164199Y183899*
X164299Y184299*
Y184699*
Y184799*
Y184899*
Y185099*
X164199Y185399*
Y185699*
X164099Y185999*
X163899Y186299*
X163799Y186499*
Y186599*
X163699*
X163599Y186699*
X163399Y186799*
X163299Y186899*
X163099Y186999*
X162799Y187099*
X162599*
G37*
G36*
X307099Y185099D02*
D01*
X306999Y184999*
X306899*
X306699Y184899*
X306499*
X306199Y184799*
X305999Y184699*
X305599*
X305499*
X305399Y184599*
X305199*
X304999Y184499*
X3048*
X304599Y184399*
X304399Y184299*
X304199Y184199*
X304099Y184099*
X303999Y183999*
X303899Y183899*
Y183699*
X303799Y183599*
Y183399*
Y183299*
Y183199*
Y183099*
X303899Y182899*
Y182799*
X303999Y182699*
X304199Y182499*
Y182399*
X304299*
X304399Y182299*
X304599Y182199*
X304699*
X304899*
X305099Y182099*
X305199*
X305399Y182199*
X305499*
X305699*
X305999Y182299*
X306199Y182399*
X306399Y182599*
X306499*
X306599Y182699*
X306699Y182799*
Y182899*
X306799Y182999*
X306899Y183199*
X306999Y183399*
Y183499*
Y183599*
X307099Y183799*
Y183999*
Y184299*
Y184599*
Y185099*
G37*
G36*
X267299D02*
D01*
X267199Y184999*
X267099*
X266899Y184899*
X2667*
X266399Y184799*
X266099Y184699*
X265799*
X265699*
X265599Y184599*
X265399*
X265199Y184499*
X264999*
X264799Y184399*
X264599Y184299*
X264399Y184199*
X264299Y184099*
X264199Y183999*
X264099Y183899*
Y183699*
X263999Y183599*
Y183399*
Y183299*
Y183199*
Y183099*
X264099Y182899*
Y182799*
X264199Y182699*
X264299Y182499*
X264399*
Y182399*
X264499*
X264599Y182299*
X264799Y182199*
X264899*
X265099*
X265299Y182099*
X265399*
X265599Y182199*
X265699*
X265899*
X266099Y182299*
X266399Y182399*
X266599Y182599*
X2667*
X266799Y182699*
Y182799*
X266899Y182899*
X266999Y182999*
X267099Y183199*
X267199Y183399*
Y183499*
Y183599*
X267299Y183799*
Y183999*
Y184299*
Y184599*
Y185099*
G37*
G36*
X225499D02*
D01*
X225399Y184999*
X225299*
X225099Y184899*
X224899*
X224599Y184799*
X224299Y184699*
X223999*
X223899*
X223799Y184599*
X223599*
X223399Y184499*
X223199*
X222999Y184399*
X222799Y184299*
X222599Y184199*
X222499Y184099*
X222399Y183999*
X222299Y183899*
X222199Y183699*
Y183599*
Y183399*
Y183299*
Y183199*
Y183099*
X222299Y182899*
Y182799*
X222399Y182699*
X222499Y182499*
X222599*
Y182399*
X222699*
X222799Y182299*
X222899Y182199*
X223099*
X223299*
X223499Y182099*
X223599*
X223799Y182199*
X223899*
X224099*
X224299Y182299*
X224599Y182399*
X224799Y182599*
X224899*
Y182699*
X224999Y182799*
X225099Y182899*
X225199Y182999*
X225299Y183199*
X225399Y183399*
Y183499*
Y183599*
Y183799*
X225499Y183999*
Y184299*
Y184599*
Y185099*
G37*
G36*
X212999Y191299D02*
X210999D01*
Y187599*
X212799*
X212899*
X213299*
X213599Y187699*
X213899*
X214199*
X214399Y187799*
X214499*
X214599*
X214699Y187899*
X214799*
X214899Y187999*
X214999Y188199*
X215199Y188299*
X215299Y188399*
X215399Y188499*
Y188599*
Y188699*
X215499Y188899*
X215599Y188999*
Y189199*
Y189399*
Y189499*
Y189699*
X215499Y189799*
Y189999*
X215399Y190199*
X215299Y190399*
X215199Y190599*
X215099*
Y190699*
X214999*
X214899Y190799*
X214699Y190899*
X214599Y190999*
X214399Y191099*
X214099Y191199*
X213999*
X213899*
X213699*
X213499*
X213299*
X213099*
X212999Y191299*
G37*
G36*
X281799Y188199D02*
X281599D01*
X281499*
X281299*
X281099Y188099*
X280899Y187999*
X280699Y187799*
X280499Y187599*
X280399*
Y187499*
X280299Y187399*
X280199Y187199*
X280099Y186999*
X279999Y186699*
Y186399*
X279899Y185999*
X283599*
Y186099*
Y186199*
Y186399*
X283499Y186599*
Y186899*
X283399Y187199*
X283199Y187399*
X282999Y187699*
X282799Y187799*
X282699Y187899*
X282499Y187999*
X282299Y188099*
X281999Y188199*
X281799*
G37*
G36*
X187799Y188099D02*
X187699D01*
X187599*
X187399*
X187199Y187999*
X186999Y187899*
X186699Y187799*
X186399Y187599*
X186199Y187399*
X186099Y187299*
Y187199*
X185899Y187099*
X185799Y186799*
X185699Y186499*
X185599Y186199*
X185499Y185699*
Y185299*
Y185199*
Y185099*
Y184999*
Y184899*
Y184799*
X185599Y184499*
X185699Y184099*
X185799Y183799*
X185899Y183399*
X186199Y183099*
X186299Y182999*
X186399Y182899*
X186599Y182799*
X186799Y182599*
X187099Y182499*
X187399Y182399*
X187799*
X187899*
X188099*
X188299Y182499*
X188599Y182599*
X188899Y182699*
X189099Y182899*
X189399Y183099*
Y183199*
X189499Y183299*
X189599Y183399*
X189699Y183699*
X189899Y183999*
Y184299*
X189999Y184799*
X190099Y185299*
Y185399*
X189999Y185499*
Y185599*
Y185699*
Y185999*
X189899Y186399*
X189799Y186699*
X189599Y187099*
X189399Y187399*
X189299Y187499*
X189099Y187599*
X188899Y187699*
X188699Y187899*
X188399Y187999*
X188099Y188099*
X187799*
G37*
G36*
X130999D02*
X130899D01*
X130699*
X130499Y187999*
X130199Y187899*
X129899Y187799*
X129699Y187599*
X129399Y187399*
Y187299*
X129299Y187199*
X129199Y187099*
X129099Y186799*
X128999Y186499*
X128899Y186199*
X128799Y185699*
X128699Y185299*
Y185199*
Y185099*
X128799Y184999*
Y184899*
Y184799*
Y184499*
X128899Y184099*
X128999Y183799*
X129199Y183399*
X129399Y183099*
X129499Y182999*
X129699Y182899*
X129899Y182799*
X130099Y182599*
X130399Y182499*
X130699Y182399*
X130999*
X131099*
X131199*
X131399*
X131599Y182499*
X131799Y182599*
X132099Y182699*
X132399Y182899*
X132599Y183099*
X132699Y183199*
Y183299*
X132799Y183399*
X132999Y183699*
X133099Y183999*
X133199Y184299*
X133299Y184799*
Y185299*
Y185399*
Y185499*
Y185599*
Y185699*
X133199Y185999*
X133099Y186399*
X132999Y186699*
X132899Y187099*
X132599Y187399*
X132499Y187499*
X132399Y187599*
X132199Y187699*
X131999Y187899*
X131699Y187999*
X131399Y188099*
X130999*
G37*
G36*
X360399Y191499D02*
X360299D01*
X360199Y191399*
X360099*
X359999*
X359899Y191299*
X359699*
X359599Y191199*
Y191099*
X359499*
Y190999*
X359399Y190899*
X359299Y190799*
X359199Y190599*
Y190399*
X359099Y190099*
Y189999*
X358999*
Y189899*
Y189699*
Y189599*
Y189399*
X358899Y189199*
Y188899*
Y188699*
Y188399*
Y188099*
Y187699*
X358799Y187299*
Y186899*
Y186799*
Y186699*
Y186599*
Y186399*
X358899Y186199*
Y185899*
Y185699*
Y185199*
Y184699*
Y184399*
X358999Y184199*
Y183999*
X359099Y183799*
Y183699*
X359199Y183499*
Y183399*
X359299Y183199*
X359399Y182999*
X359499Y182799*
X359599Y182699*
X359699*
Y182599*
X359799*
X359899Y182499*
X360099Y182399*
X360199*
X360399*
X360499*
X360599*
X360699*
X360799Y182499*
X360899*
X360999Y182599*
X361199Y182699*
X361299Y182799*
X361399Y182899*
Y183099*
X361499Y183199*
X361599Y183399*
X361699Y183699*
Y183799*
Y183899*
X361799Y183999*
Y184099*
Y184299*
Y184499*
X361899Y184699*
Y184899*
Y185199*
Y185499*
Y185799*
Y186099*
X361999Y186499*
Y186899*
Y186999*
Y187199*
Y187299*
Y187499*
X361899Y187699*
Y187899*
Y188199*
Y188699*
Y189199*
X361799Y189399*
Y189699*
Y189899*
X361699Y189999*
Y190099*
Y190199*
X361599Y190299*
Y1905*
X361499Y190699*
X361399Y190899*
X361299Y190999*
X361199Y191199*
X361099*
X360999Y191299*
X360899*
X360799Y191399*
X360699*
X360599*
X360399Y191499*
G37*
G36*
X255199Y188199D02*
D01*
X255099*
X254899*
X254699Y188099*
X254499*
X254199Y187899*
X254Y187799*
X253799Y187499*
X253699*
Y187399*
X253599Y187199*
X253499Y186999*
X253399Y186699*
X253299Y186399*
X253199Y185899*
Y185399*
Y185299*
Y185199*
Y185099*
Y184899*
X253299Y184599*
Y184299*
X253399Y183899*
X253599Y183599*
X253799Y183299*
Y183199*
X253899*
X254Y183099*
X254099Y182899*
X254299Y182799*
X254599Y182699*
X254899Y182599*
X255199*
X255299*
X255499*
X255699Y182699*
X255899Y182799*
X256199Y182899*
X256399Y183099*
X256699Y183299*
X256799Y183399*
X256899Y183599*
X256999Y183799*
X257099Y184099*
X257199Y184499*
X257299Y184899*
Y185399*
Y185499*
Y185599*
Y185699*
Y185899*
X257199Y186199*
Y186499*
X257099Y186899*
X256899Y187199*
X256699Y187499*
Y187599*
X256599*
X256499Y187699*
X256299Y187899*
X256099Y187999*
X255799Y188099*
X255599Y188199*
X255199*
G37*
%LNiot_6_lowpan_gateway_v01-5*%
%LPD*%
G54D10*
X434199Y107699D03*
Y091799D03*
X062799Y100999D03*
Y084999D03*
X088499Y101499D03*
Y085499D03*
X537799Y246199D03*
Y262299D03*
X511199Y261699D03*
Y245799D03*
X835499Y474699D03*
Y458799D03*
X395799Y438799D03*
Y454699D03*
X836099Y072799D03*
Y088799D03*
X561199Y108799D03*
Y092699D03*
X586699Y108799D03*
Y092699D03*
X415299Y438799D03*
Y454699D03*
G54D11*
X571999Y510299D03*
Y465299D03*
G54D12*
X658299Y384699D03*
Y459799D03*
X684399Y384699D03*
Y459799D03*
G54D13*
X709299Y283299D03*
X742199D03*
X709299Y245199D03*
X742199D03*
G54D14*
X577199Y337199D03*
Y370299D03*
G54D15*
X565499Y262699D03*
Y242299D03*
G54D16*
X809699Y458799D03*
X793799D03*
X511199Y413999D03*
X4953D03*
X527799Y4445D03*
X511699D03*
X510799Y224199D03*
X526699D03*
X109499Y349999D03*
X125499D03*
X847799Y038799D03*
X831799D03*
X108999Y374499D03*
X124999D03*
Y399699D03*
X108999D03*
X319499Y349199D03*
X303499D03*
X303799Y329999D03*
X319799D03*
X318999Y397199D03*
X302999D03*
Y378799D03*
X318999D03*
G54D17*
X185199Y384999D03*
Y378499D03*
Y371999D03*
Y365499D03*
Y358999D03*
Y352499D03*
Y345999D03*
X242299Y384999D03*
Y378499D03*
Y371999D03*
Y365499D03*
Y358999D03*
Y352499D03*
Y345999D03*
G54D18*
X589999Y404699D03*
Y423799D03*
X567499Y414199D03*
G54D19*
X732499Y319499D03*
Y346499D03*
G54D20*
X405999Y283999D03*
G54D21*
X467999Y306999D03*
Y283999D03*
Y260999D03*
G54D22*
X021499Y142299D02*
Y428499D01*
Y142299D02*
X062799Y100999D01*
X021499Y428499D02*
X043499Y450499D01*
X129999Y321999D02*
X173499Y365499D01*
X105999Y321999D02*
X129999D01*
X078799Y349199D02*
X105999Y321999D01*
X062499Y349199D02*
X078799D01*
X459199Y336499D02*
X611699D01*
X110199Y450499D02*
X155499Y495799D01*
X195199Y298999D02*
X242299Y345999D01*
X046199Y298999D02*
X195199D01*
X155499Y495799D02*
Y505499D01*
X043499Y450499D02*
X110199D01*
X046799Y439199D02*
X114499D01*
X029999Y422499D02*
X046799Y439199D01*
X114499D02*
X175499Y500299D01*
X029999Y159999D02*
Y422499D01*
X376199Y358299D02*
X622799D01*
X355799Y378799D02*
X376199Y358299D01*
X622799D02*
X635499Y345499D01*
X062799Y038999D02*
Y084999D01*
X720699Y542199D02*
X736199Y526699D01*
X235199Y542199D02*
X720699D01*
X736199Y4572D02*
Y526699D01*
X727499Y549999D02*
X746499Y530999D01*
X222999Y549999D02*
X727499D01*
X746499Y469999D02*
Y530999D01*
X175499Y500299D02*
Y505499D01*
X088499Y038799D02*
Y085499D01*
X383499Y031999D02*
X390999Y024699D01*
X777499*
X789299Y036199*
X420599Y029499D02*
X731499D01*
X741999Y039999*
Y050699*
X757099Y065899*
X763899*
X789299Y036199D02*
Y040499D01*
X379099Y019999D02*
X793799D01*
Y020299D02*
X804499Y030999D01*
Y054699*
X793299Y065899D02*
X804499Y054699D01*
X789299Y065899D02*
X793299D01*
X789299Y036999D02*
Y040499D01*
X809699Y458799D02*
X835499D01*
X762799Y474699D02*
X778799Y458799D01*
X762799Y474699D02*
Y510299D01*
X778799Y458799D02*
X793799D01*
X225499Y532499D02*
X235199Y542199D01*
X225499Y515299D02*
Y532499D01*
Y515299D02*
X235499Y505499D01*
X736199Y4572D02*
X756799Y436699D01*
Y434399D02*
Y436699D01*
X205799Y532799D02*
X222999Y549999D01*
X205799Y515199D02*
Y532799D01*
Y515199D02*
X215499Y505499D01*
X746499Y469999D02*
X756799Y459699D01*
X173499Y365499D02*
X182499D01*
X124999Y374499D02*
Y399699D01*
X164799Y371999D02*
X185199D01*
X154799Y361999D02*
X164799Y371999D01*
X109999Y361999D02*
X154799D01*
X062499Y374699D02*
X109599D01*
X109799Y350299D02*
Y374499D01*
X395799Y454699D02*
Y505199D01*
X415299Y454699D02*
Y505299D01*
X172499Y378499D02*
X185199D01*
X160199Y390799D02*
X172499Y378499D01*
X160199Y390799D02*
Y423499D01*
X168499Y391499D02*
X174999Y384999D01*
X185199*
X660499Y339199D02*
X660999D01*
X629199Y370499D02*
X660499Y339199D01*
X601199Y370499D02*
X629199D01*
X408899Y041199D02*
X420599Y029499D01*
X358099Y041199D02*
X379099Y020299D01*
X511499Y414199D02*
X567499D01*
X511199Y413999D02*
Y443999D01*
X203799Y360499D02*
Y392499D01*
X195799Y352499D02*
X203799Y360499D01*
X185199Y352499D02*
X195799D01*
X609699Y284499D02*
X611699Y282499D01*
X499499Y245799D02*
X511199D01*
X484199Y260999D02*
X499499Y245799D01*
X467999Y260999D02*
X484199D01*
X510799Y224199D02*
Y245199D01*
X601199Y370499D02*
Y395499D01*
X591999Y404699D02*
X601199Y395499D01*
X242299Y378499D02*
X302699D01*
X242299Y371999D02*
X280799D01*
X303499Y349199*
X580999Y370499D02*
X601199D01*
X708999Y319499D02*
X732499D01*
X682999Y293499D02*
X708999Y319499D01*
X651199Y293499D02*
X682999D01*
X635499Y309199D02*
X651199Y293499D01*
X318999Y378799D02*
X355799D01*
X511699Y170999D02*
X545799D01*
X586699Y129999*
Y108799D02*
Y129999D01*
X242299Y365499D02*
X262699D01*
X303799Y329999D02*
Y348999D01*
X302999Y378799D02*
Y400499D01*
X586699Y041299D02*
Y092699D01*
X561199Y041299D02*
Y092699D01*
X451499Y282999D02*
X465999D01*
X742199Y229499D02*
Y245199D01*
X735499Y222699D02*
X742199Y229499D01*
X654499Y222699D02*
X735499D01*
X646799Y230499D02*
X654499Y222699D01*
X646799Y230499D02*
Y280799D01*
X626199Y301199D02*
X646799Y280799D01*
X635499Y309199D02*
Y345499D01*
X626199Y301199D02*
Y341999D01*
X616699Y351499D02*
X626199Y341999D01*
X319799Y329999D02*
X356199D01*
X377799Y351499*
X616699*
X411499Y427799D02*
X415299Y431499D01*
Y438799*
X242299Y384999D02*
X262999D01*
X287699Y409699*
X469999*
X479499Y400299*
X574999*
X578799Y403999*
Y410799*
X580799Y412799*
X716499*
X742199Y386999*
X775299*
X813799Y425499*
X844299*
X857499Y412199*
Y061499D02*
Y412199D01*
X847799Y051799D02*
X857499Y061499D01*
X847799Y038799D02*
Y051799D01*
X203799Y392499D02*
X229999Y418799D01*
X490499*
X4953Y413999*
X160199Y423499D02*
X173499Y436699D01*
X393799*
X395799Y438799*
X168499Y391499D02*
Y416699D01*
X179499Y427799*
X411499*
X831799Y038799D02*
Y052799D01*
X836099Y057099*
Y072799*
X262699Y365499D02*
X281199Y346999D01*
X438499Y244199D02*
X511699Y170999D01*
X438499Y244199D02*
Y311499D01*
X398499Y313799D02*
X416699D01*
X382999Y298299D02*
X398499Y313799D01*
X242299Y358999D02*
X254999D01*
X272299Y341699*
X281199Y331199D02*
Y346999D01*
Y331199D02*
X296999Y315499D01*
X272299Y328999D02*
Y341699D01*
Y328999D02*
X302999Y298299D01*
X382999*
X429999Y239999D02*
X561199Y108799D01*
X429999Y239999D02*
Y300499D01*
X416699Y313799D02*
X429999Y300499D01*
X447199Y287299D02*
X451499Y282999D01*
X447199Y287299D02*
Y324499D01*
X459199Y336499*
X720299Y088799D02*
X836099D01*
X590999Y217999D02*
X720299Y088799D01*
X590999Y217999D02*
Y254199D01*
X582599Y262699D02*
X590999Y254199D01*
X565499Y262699D02*
X582599D01*
X244499Y345299D02*
X305799Y283999D01*
X049099Y400099D02*
X062499D01*
X037799Y388799D02*
X049099Y400099D01*
X037799Y307499D02*
Y388799D01*
Y307499D02*
X046199Y298999D01*
X029999Y159999D02*
X088499Y101499D01*
X062499Y400099D02*
X108699D01*
X303799Y326999D02*
Y329999D01*
X303499Y349199D02*
X303799Y348999D01*
X383499Y031999D02*
Y041199D01*
X305799Y283999D02*
X405999D01*
X296999Y315499D02*
X381699D01*
X425999Y323999D02*
X438499Y311499D01*
X381699Y315499D02*
X390299Y323999D01*
X425999*
G54D23*
X733999Y346499D02*
X759499Y371999D01*
X732499Y346499D02*
X733999D01*
X763799Y296499D02*
X765499Y298299D01*
X763799Y2667D02*
Y296499D01*
X742199Y245199D02*
X763799Y2667D01*
X662499Y282499D02*
X708499D01*
X662499Y304499D02*
X684399Y326399D01*
X659299Y510299D02*
X684499Y480999D01*
X571999Y510299D02*
X659299D01*
X684499Y462799D02*
Y480999D01*
X684399Y326399D02*
Y384699D01*
X578499Y512799D02*
X592999Y527199D01*
X606699*
X709299Y245199D02*
Y283299D01*
X732499Y319499D02*
X742199Y309799D01*
Y283299D02*
Y309799D01*
X467999Y306999D02*
X576699D01*
X600099Y283599*
X544199Y283999D02*
X565499Y262699D01*
X488999Y283999D02*
X511199Y261699D01*
X434199Y107699D02*
Y192699D01*
X404499Y222499D02*
X434199Y192699D01*
X404499Y222499D02*
Y282499D01*
X434199Y043999D02*
Y091799D01*
X602199Y282499D02*
X611699D01*
X488999Y283999D02*
X544199D01*
X516699Y283299D02*
X537799Y262299D01*
X467999Y283999D02*
X488999D01*
G54D24*
X756799Y408999D03*
G54D25*
X756799Y434399D03*
Y459699D03*
G54D26*
X788199Y510299D03*
X786999Y142299D03*
G54D27*
X762799Y510299D03*
X761599Y142299D03*
X763899Y065899D03*
G54D28*
X358099Y041199D03*
X763899Y040499D03*
G54D29*
X383499Y041199D03*
X408899D03*
X434299D03*
X459699D03*
X485099D03*
X510499D03*
X535899D03*
X561299D03*
X586699D03*
X612099D03*
X637499D03*
X662899D03*
X688299D03*
X713699D03*
X062499Y349199D03*
Y374699D03*
Y400099D03*
X662499Y336499D03*
Y304499D03*
Y282499D03*
Y260499D03*
X611699D03*
Y282499D03*
Y304499D03*
Y336499D03*
X789299Y065899D03*
Y040499D03*
X763799Y296499D03*
X759499Y371999D03*
X282999Y447199D03*
X055499Y243799D03*
X606699Y527199D03*
X340799Y349199D03*
Y393499D03*
X109499Y482999D03*
X187999Y227699D03*
X255199Y227999D03*
X489999Y117499D03*
X668499Y104299D03*
X682799Y183999D03*
X037799Y476199D03*
X613799Y450299D03*
G54D30*
X055499Y200499D03*
Y515499D03*
G54D31*
X817799Y348999D03*
Y399799D03*
Y298299D03*
Y247499D03*
G54D32*
X062499Y323799D03*
G54D33*
X495499Y525499D03*
Y505499D03*
X475499Y525499D03*
Y505499D03*
X455499Y525499D03*
Y505499D03*
X435499Y525499D03*
Y505499D03*
X415499Y525499D03*
Y505499D03*
X395499Y525499D03*
Y505499D03*
X375499Y525499D03*
Y505499D03*
X355499Y525499D03*
Y505499D03*
X335499Y525499D03*
Y505499D03*
X315499Y525499D03*
Y505499D03*
X295499Y525499D03*
Y505499D03*
X275499Y525499D03*
Y505499D03*
X255499Y525499D03*
Y505499D03*
X235499Y525499D03*
Y505499D03*
X215499Y525499D03*
Y505499D03*
X195499Y525499D03*
Y505499D03*
X175499Y525499D03*
Y505499D03*
X155499Y525499D03*
Y505499D03*
X135499Y525499D03*
Y505499D03*
X115499Y525499D03*
G54D34*
X115499Y505499D03*
G54D35*
X037699Y038799D03*
G54D36*
X062999Y038799D03*
X088499D03*
X113899D03*
X139299D03*
X164699D03*
X189999D03*
X215499D03*
X240799D03*
X266199D03*
X291699D03*
X316999D03*
G54D37*
X405999Y283999D03*
X488999D03*
M02*