G04 #@! TF.GenerationSoftware,KiCad,Pcbnew,(2017-08-02 revision 9760937)-master*
G04 #@! TF.CreationDate,2017-08-14T12:51:11-05:00*
G04 #@! TF.ProjectId,proto-mezzanine,70726F746F2D6D657A7A616E696E652E,A*
G04 #@! TF.SameCoordinates,Original*
G04 #@! TF.FileFunction,Soldermask,Top*
G04 #@! TF.FilePolarity,Negative*
%FSLAX46Y46*%
G04 Gerber Fmt 4.6, Leading zero omitted, Abs format (unit mm)*
G04 Created by KiCad (PCBNEW (2017-08-02 revision 9760937)-master) date Mon Aug 14 12:51:11 2017*
%MOMM*%
%LPD*%
G01*
G04 APERTURE LIST*
%ADD10C,2.032000*%
%ADD11R,2.032000X2.032000*%
%ADD12O,2.032000X2.032000*%
%ADD13O,1.727200X2.032000*%
%ADD14R,1.727200X2.032000*%
%ADD15R,1.200000X1.200000*%
%ADD16C,1.200000*%
%ADD17C,3.000000*%
G04 APERTURE END LIST*
D10*
X180010000Y-149530000D03*
X180010000Y-119050000D03*
X180010000Y-121590000D03*
X180010000Y-129210000D03*
X180010000Y-126670000D03*
X180010000Y-131750000D03*
X180010000Y-124130000D03*
X180010000Y-144450000D03*
X180010000Y-141910000D03*
X180010000Y-146990000D03*
X136830000Y-149530000D03*
X136830000Y-141910000D03*
X136830000Y-139370000D03*
X136830000Y-144450000D03*
X136830000Y-146990000D03*
X136830000Y-129210000D03*
X136830000Y-131750000D03*
X136830000Y-136830000D03*
X136830000Y-134290000D03*
X136830000Y-124130000D03*
X136830000Y-126670000D03*
X136830000Y-121590000D03*
X146990000Y-149530000D03*
X146990000Y-139370000D03*
X146990000Y-144450000D03*
X146990000Y-141910000D03*
X146990000Y-146990000D03*
X146990000Y-136830000D03*
X146990000Y-134290000D03*
X146990000Y-131750000D03*
X146990000Y-129210000D03*
X146990000Y-126670000D03*
X146990000Y-124130000D03*
X146990000Y-121590000D03*
X146990000Y-119050000D03*
X141910000Y-149530000D03*
X141910000Y-144450000D03*
X141910000Y-146990000D03*
X141910000Y-141910000D03*
X141910000Y-139370000D03*
X141910000Y-131750000D03*
X141910000Y-129210000D03*
X141910000Y-136830000D03*
X141910000Y-134290000D03*
X141910000Y-126670000D03*
X141910000Y-124130000D03*
X141910000Y-121590000D03*
X141910000Y-119050000D03*
X103810000Y-146990000D03*
X103810000Y-144450000D03*
X103810000Y-149530000D03*
X103810000Y-141910000D03*
X103810000Y-131750000D03*
X103810000Y-129210000D03*
X103810000Y-126670000D03*
X103810000Y-121590000D03*
X103810000Y-119050000D03*
X159690000Y-144450000D03*
X169850000Y-139370000D03*
X174930000Y-134290000D03*
X169850000Y-124130000D03*
X169850000Y-141910000D03*
X172390000Y-131750000D03*
X174930000Y-131750000D03*
X157150000Y-119050000D03*
X174930000Y-141910000D03*
X167310000Y-146990000D03*
X154610000Y-136830000D03*
X159690000Y-121590000D03*
X172390000Y-126670000D03*
X157150000Y-141910000D03*
X159690000Y-126670000D03*
X172390000Y-149530000D03*
X154610000Y-124130000D03*
X157150000Y-129210000D03*
X159690000Y-149530000D03*
X159690000Y-146990000D03*
X159690000Y-129210000D03*
X157150000Y-146990000D03*
X159690000Y-141910000D03*
X152070000Y-129210000D03*
X157150000Y-144450000D03*
X152070000Y-144450000D03*
X154610000Y-119050000D03*
X167310000Y-134290000D03*
X174930000Y-129210000D03*
X167310000Y-141910000D03*
X174930000Y-119050000D03*
X152070000Y-141910000D03*
X154610000Y-131750000D03*
X174930000Y-126670000D03*
X157150000Y-121590000D03*
X157150000Y-124130000D03*
X167310000Y-129210000D03*
X172390000Y-121590000D03*
X169850000Y-129210000D03*
X169850000Y-126670000D03*
X174930000Y-139370000D03*
X167310000Y-124130000D03*
X169850000Y-131750000D03*
X152070000Y-119050000D03*
X152070000Y-124130000D03*
X167310000Y-121590000D03*
X152070000Y-149530000D03*
X159690000Y-139370000D03*
X169850000Y-146990000D03*
X174930000Y-146990000D03*
X174930000Y-144450000D03*
X174930000Y-136830000D03*
X172390000Y-124130000D03*
X152070000Y-126670000D03*
X169850000Y-136830000D03*
X172390000Y-119050000D03*
X152070000Y-139370000D03*
X152070000Y-121590000D03*
X157150000Y-149530000D03*
X152070000Y-146990000D03*
X152070000Y-134290000D03*
X152070000Y-136830000D03*
X167310000Y-136830000D03*
X167310000Y-131750000D03*
X167310000Y-119050000D03*
X154610000Y-144450000D03*
X174930000Y-124130000D03*
X172390000Y-129210000D03*
X157150000Y-139370000D03*
X167310000Y-149530000D03*
X159690000Y-131750000D03*
X154610000Y-146990000D03*
X167310000Y-144450000D03*
X169850000Y-134290000D03*
X172390000Y-141910000D03*
X172390000Y-134290000D03*
X174930000Y-121590000D03*
X169850000Y-144450000D03*
X157150000Y-134290000D03*
X157150000Y-126670000D03*
X169850000Y-119050000D03*
X154610000Y-139370000D03*
X157150000Y-136830000D03*
X169850000Y-121590000D03*
X159690000Y-134290000D03*
X172390000Y-139370000D03*
X157150000Y-131750000D03*
X167310000Y-139370000D03*
X167310000Y-126670000D03*
X154610000Y-141910000D03*
X159690000Y-119050000D03*
X172390000Y-144450000D03*
X172390000Y-136830000D03*
X169850000Y-149530000D03*
X152070000Y-131750000D03*
X154610000Y-126670000D03*
X174930000Y-149530000D03*
X154610000Y-134290000D03*
X154610000Y-129210000D03*
X159690000Y-136830000D03*
X154610000Y-149530000D03*
X154610000Y-121590000D03*
X172390000Y-146990000D03*
X159690000Y-124130000D03*
X136830000Y-119050000D03*
X131750000Y-144450000D03*
X129210000Y-119050000D03*
X126670000Y-136830000D03*
X131750000Y-121590000D03*
X129210000Y-141910000D03*
X131750000Y-126670000D03*
X126670000Y-124130000D03*
X129210000Y-129210000D03*
X131750000Y-149530000D03*
X131750000Y-146990000D03*
X131750000Y-129210000D03*
X129210000Y-146990000D03*
X131750000Y-141910000D03*
X124130000Y-129210000D03*
X129210000Y-144450000D03*
X124130000Y-144450000D03*
X126670000Y-119050000D03*
X124130000Y-141910000D03*
X126670000Y-131750000D03*
X129210000Y-121590000D03*
X129210000Y-124130000D03*
X124130000Y-119050000D03*
X124130000Y-124130000D03*
X124130000Y-149530000D03*
X131750000Y-139370000D03*
X124130000Y-126670000D03*
X124130000Y-139370000D03*
X124130000Y-121590000D03*
X129210000Y-149530000D03*
X124130000Y-146990000D03*
X124130000Y-134290000D03*
X124130000Y-136830000D03*
X126670000Y-144450000D03*
X129210000Y-139370000D03*
X131750000Y-131750000D03*
X126670000Y-146990000D03*
X129210000Y-134290000D03*
X129210000Y-126670000D03*
X126670000Y-139370000D03*
X129210000Y-136830000D03*
X131750000Y-134290000D03*
X129210000Y-131750000D03*
X126670000Y-141910000D03*
X131750000Y-119050000D03*
X124130000Y-131750000D03*
X126670000Y-126670000D03*
X126670000Y-134290000D03*
X126670000Y-129210000D03*
X131750000Y-136830000D03*
X126670000Y-149530000D03*
X126670000Y-121590000D03*
X131750000Y-124130000D03*
X111430000Y-124130000D03*
X113970000Y-129210000D03*
X116510000Y-129210000D03*
X108890000Y-129210000D03*
X111430000Y-119050000D03*
X116510000Y-126670000D03*
X108890000Y-126670000D03*
X108890000Y-121590000D03*
X108890000Y-124130000D03*
X113970000Y-126670000D03*
X116510000Y-119050000D03*
X113970000Y-121590000D03*
X111430000Y-126670000D03*
X113970000Y-124130000D03*
X116510000Y-121590000D03*
X113970000Y-119050000D03*
X111430000Y-129210000D03*
X108890000Y-119050000D03*
X111430000Y-121590000D03*
X116510000Y-124130000D03*
X116510000Y-134290000D03*
X113970000Y-131750000D03*
X116510000Y-139370000D03*
X116510000Y-136830000D03*
X113970000Y-136830000D03*
X116510000Y-131750000D03*
X113970000Y-134290000D03*
X108890000Y-134290000D03*
X108890000Y-131750000D03*
X108890000Y-139370000D03*
X113970000Y-139370000D03*
X108890000Y-136830000D03*
X111430000Y-134290000D03*
X111430000Y-136830000D03*
X111430000Y-131750000D03*
X111430000Y-139370000D03*
X116510000Y-144450000D03*
X116510000Y-141910000D03*
X113970000Y-141910000D03*
X108890000Y-144450000D03*
X113970000Y-144450000D03*
X108890000Y-141910000D03*
X111430000Y-141910000D03*
X111430000Y-144450000D03*
X116510000Y-146990000D03*
X108890000Y-146990000D03*
X113970000Y-146990000D03*
X111430000Y-146990000D03*
X108890000Y-149530000D03*
X113970000Y-149530000D03*
X116510000Y-149530000D03*
X111430000Y-149530000D03*
X103810000Y-124130000D03*
D11*
X129210000Y-113970000D03*
D12*
X131750000Y-113970000D03*
D13*
X124130000Y-113970000D03*
X121590000Y-113970000D03*
X119050000Y-113970000D03*
D14*
X116510000Y-113970000D03*
X103810000Y-113970000D03*
D13*
X106350000Y-113970000D03*
X108890000Y-113970000D03*
X111430000Y-113970000D03*
D14*
X139370000Y-113970000D03*
D13*
X141910000Y-113970000D03*
X144450000Y-113970000D03*
X146990000Y-113970000D03*
X149530000Y-113970000D03*
X152070000Y-113970000D03*
X154610000Y-113970000D03*
X157150000Y-113970000D03*
X159690000Y-113970000D03*
X162230000Y-113970000D03*
X164770000Y-113970000D03*
X167310000Y-113970000D03*
D15*
X110000000Y-105000000D03*
D16*
X110000000Y-103000000D03*
X112000000Y-105000000D03*
X112000000Y-103000000D03*
X114000000Y-105000000D03*
X114000000Y-103000000D03*
X116000000Y-105000000D03*
X116000000Y-103000000D03*
X118000000Y-105000000D03*
X118000000Y-103000000D03*
X120000000Y-105000000D03*
X120000000Y-103000000D03*
X122000000Y-105000000D03*
X122000000Y-103000000D03*
X124000000Y-105000000D03*
X124000000Y-103000000D03*
X126000000Y-105000000D03*
X126000000Y-103000000D03*
X128000000Y-105000000D03*
X128000000Y-103000000D03*
X130000000Y-105000000D03*
X130000000Y-103000000D03*
X132000000Y-105000000D03*
X132000000Y-103000000D03*
X134000000Y-105000000D03*
X134000000Y-103000000D03*
X136000000Y-105000000D03*
X136000000Y-103000000D03*
X138000000Y-105000000D03*
X138000000Y-103000000D03*
X140000000Y-105000000D03*
X140000000Y-103000000D03*
X142000000Y-105000000D03*
X142000000Y-103000000D03*
X144000000Y-105000000D03*
X144000000Y-103000000D03*
X146000000Y-105000000D03*
X146000000Y-103000000D03*
X148000000Y-105000000D03*
X148000000Y-103000000D03*
D17*
X104000000Y-135500000D03*
X181000000Y-135500000D03*
X181000000Y-104000000D03*
X104000000Y-104000000D03*
M02*
