M48
;DRILL file {KiCad (2017-08-02 revision 9760937)-master} date Mon Aug 14 12:52:07 2017
;FORMAT={-:-/ absolute / inch / decimal}
FMAT,2
INCH,TZ
T1C0.031
T2C0.040
T3C0.098
%
G90
G05
M72
T1
X4.3307Y-4.0551
X4.3307Y-4.1339
X4.4094Y-4.0551
X4.4094Y-4.1339
X4.4882Y-4.0551
X4.4882Y-4.1339
X4.5669Y-4.0551
X4.5669Y-4.1339
X4.6457Y-4.0551
X4.6457Y-4.1339
X4.7244Y-4.0551
X4.7244Y-4.1339
X4.8031Y-4.0551
X4.8031Y-4.1339
X4.8819Y-4.0551
X4.8819Y-4.1339
X4.9606Y-4.0551
X4.9606Y-4.1339
X5.0394Y-4.0551
X5.0394Y-4.1339
X5.1181Y-4.0551
X5.1181Y-4.1339
X5.1969Y-4.0551
X5.1969Y-4.1339
X5.2756Y-4.0551
X5.2756Y-4.1339
X5.3543Y-4.0551
X5.3543Y-4.1339
X5.4331Y-4.0551
X5.4331Y-4.1339
X5.5118Y-4.0551
X5.5118Y-4.1339
X5.5906Y-4.0551
X5.5906Y-4.1339
X5.6693Y-4.0551
X5.6693Y-4.1339
X5.748Y-4.0551
X5.748Y-4.1339
X5.8268Y-4.0551
X5.8268Y-4.1339
T2
X5.787Y-5.287
X6.587Y-4.987
X5.987Y-5.087
X6.287Y-5.787
X5.187Y-4.987
X4.887Y-4.687
X7.087Y-4.687
X6.187Y-5.287
X5.587Y-5.287
X6.687Y-4.887
X6.787Y-4.787
X4.087Y-4.987
X4.887Y-5.087
X7.087Y-4.787
X5.587Y-5.887
X5.587Y-5.787
X6.587Y-5.787
X4.487Y-5.187
X5.187Y-5.287
X6.087Y-5.887
X6.187Y-4.787
X4.287Y-4.787
X5.187Y-4.887
X4.587Y-4.687
X6.287Y-4.987
X5.387Y-5.487
X4.887Y-5.487
X4.487Y-5.487
X6.087Y-5.187
X4.387Y-5.087
X5.187Y-5.787
X4.287Y-5.487
X6.287Y-4.887
X5.187Y-5.687
X6.087Y-5.387
X4.087Y-4.487
X4.187Y-4.487
X4.287Y-4.487
X4.387Y-4.487
X4.387Y-5.887
X6.787Y-5.687
X4.287Y-5.887
X5.787Y-4.687
X4.387Y-5.687
X4.587Y-5.787
X6.887Y-5.187
X5.187Y-4.787
X6.687Y-4.987
X6.087Y-4.987
X5.987Y-5.387
X7.087Y-5.187
X6.687Y-4.687
X4.887Y-5.887
X5.187Y-5.187
X4.887Y-5.587
X6.887Y-5.087
X6.887Y-4.687
X6.287Y-5.687
X4.487Y-4.687
X4.487Y-5.687
X6.187Y-5.887
X5.987Y-5.287
X6.587Y-4.787
X5.587Y-5.587
X4.087Y-5.887
X7.087Y-4.887
X6.087Y-5.687
X5.787Y-5.787
X6.287Y-5.287
X5.987Y-5.887
X6.687Y-5.387
X5.187Y-5.387
X6.887Y-5.687
X5.787Y-4.887
X5.587Y-4.787
X4.887Y-5.387
X4.387Y-4.687
X6.887Y-5.587
X6.087Y-5.287
X4.587Y-5.387
X4.587Y-5.187
X6.187Y-5.087
X5.387Y-5.887
X6.287Y-5.187
X5.787Y-4.987
X6.887Y-5.487
X5.187Y-4.687
X4.987Y-4.987
X6.787Y-4.687
X4.587Y-5.687
X6.187Y-5.687
X6.287Y-5.087
X4.987Y-4.887
X6.187Y-4.987
X6.087Y-5.587
X6.687Y-5.587
X5.987Y-5.687
X4.087Y-4.787
X5.087Y-5.687
X5.787Y-5.487
X7.087Y-4.987
X4.587Y-5.487
X5.087Y-5.187
X4.587Y-4.487
X4.687Y-4.487
X4.787Y-4.487
X4.887Y-4.487
X6.087Y-4.787
X6.187Y-4.887
X4.387Y-4.887
X4.487Y-4.787
X6.787Y-5.887
X4.987Y-5.487
X5.087Y-4.787
X6.887Y-4.787
X5.587Y-5.087
X7.087Y-5.887
X4.887Y-4.787
X5.987Y-5.587
X6.887Y-4.987
X4.287Y-4.687
X5.187Y-5.087
X5.387Y-4.987
X6.287Y-4.787
X6.587Y-5.187
X4.087Y-4.887
X6.787Y-5.387
X4.587Y-4.987
X6.887Y-5.887
X4.287Y-4.887
X5.387Y-5.787
X5.387Y-5.287
X4.487Y-5.887
X4.287Y-5.787
X6.787Y-5.587
X6.187Y-4.687
X5.087Y-5.587
X4.287Y-5.287
X5.587Y-4.687
X6.087Y-5.487
X5.187Y-5.487
X4.987Y-5.787
X5.387Y-5.387
X7.087Y-5.787
X6.687Y-5.487
X4.387Y-4.987
X4.287Y-5.587
X6.587Y-4.887
X5.987Y-4.887
X5.587Y-5.487
X6.887Y-4.887
X5.087Y-4.687
X6.687Y-5.887
X7.087Y-5.587
X6.787Y-5.487
X6.287Y-5.487
X5.387Y-4.787
X4.987Y-5.887
X6.887Y-5.787
X6.887Y-5.387
X4.987Y-5.687
X4.287Y-5.387
X4.887Y-5.687
X5.387Y-5.087
X6.087Y-5.087
X4.487Y-5.287
X4.487Y-4.887
X4.487Y-5.587
X6.287Y-5.887
X5.987Y-5.487
X4.587Y-5.587
X6.787Y-4.887
X6.187Y-5.787
X5.087Y-5.087
X4.987Y-5.287
X7.087Y-5.087
X6.587Y-5.687
X5.587Y-4.987
X4.887Y-5.787
X4.387Y-5.287
X4.587Y-5.087
X6.087Y-4.687
X6.587Y-5.387
X5.787Y-5.687
X4.087Y-5.187
X6.187Y-5.487
X5.787Y-5.187
X5.087Y-4.987
X4.387Y-5.187
X5.787Y-5.387
X6.787Y-5.787
X6.587Y-5.087
X6.587Y-5.487
X6.287Y-5.587
X5.087Y-4.887
X5.387Y-5.587
X6.687Y-5.687
X5.587Y-5.387
X5.087Y-5.887
X6.887Y-5.287
X4.387Y-4.787
X5.087Y-5.787
X4.087Y-5.087
X6.787Y-4.987
X5.187Y-5.587
X6.587Y-4.687
X5.587Y-5.687
X4.087Y-5.687
X5.087Y-4.487
X5.187Y-4.487
X4.587Y-5.287
X5.087Y-5.387
X6.087Y-5.787
X5.087Y-5.287
X4.287Y-4.987
X4.987Y-4.787
X4.487Y-4.987
X6.187Y-5.587
X5.387Y-5.687
X5.387Y-4.887
X4.387Y-5.587
X4.487Y-5.787
X6.687Y-5.287
X6.787Y-5.287
X5.187Y-5.887
X4.287Y-5.187
X5.387Y-4.687
X5.787Y-4.787
X4.587Y-5.887
X6.187Y-5.387
X4.887Y-4.987
X6.287Y-4.687
X6.687Y-5.187
X5.987Y-4.687
X5.587Y-5.187
X4.387Y-5.787
X4.587Y-4.887
X6.787Y-5.187
X6.787Y-5.087
X4.987Y-5.387
X6.687Y-5.087
X5.987Y-5.187
X7.087Y-5.687
X6.687Y-5.787
X5.787Y-5.887
X5.487Y-4.487
X5.587Y-4.487
X5.687Y-4.487
X5.787Y-4.487
X5.887Y-4.487
X5.987Y-4.487
X6.087Y-4.487
X6.187Y-4.487
X6.287Y-4.487
X6.387Y-4.487
X6.487Y-4.487
X6.587Y-4.487
X4.987Y-5.587
X4.887Y-4.887
X5.087Y-5.487
X4.987Y-4.687
X4.487Y-5.087
X5.387Y-5.187
X6.587Y-5.587
X6.287Y-5.387
X4.087Y-4.687
X4.587Y-4.787
X4.287Y-5.687
X4.987Y-5.187
X5.987Y-5.787
X5.987Y-4.787
X6.187Y-5.187
X6.687Y-4.787
X5.987Y-4.987
X4.987Y-5.087
X5.587Y-4.887
X4.887Y-5.287
X4.387Y-5.387
X4.287Y-5.087
X6.587Y-5.287
X4.487Y-5.387
X6.087Y-4.887
X5.787Y-5.587
X4.087Y-5.587
X6.587Y-5.887
X5.787Y-5.087
X4.087Y-5.787
X4.887Y-5.187
X4.387Y-5.487
T3
X4.0945Y-5.3346
X7.126Y-4.0945
X7.126Y-5.3346
X4.0945Y-4.0945
T0
M30
